<svg xmlns="http://www.w3.org/2000/svg" style="display:block" viewBox="0 0 2048 2048"><path fill="#FEFEFE" d="M0 0h2048v2048H0z"/><path fill="#5C2A7E" d="M1012.34 70.475a1055 1055 0 0 1 119.96 5.057c167.46 16.238 327.79 74.948 455.84 185.835 28.74 24.886 55.68 51.309 79.81 80.744 21.5 26.235 40.23 53.617 57.92 82.513 69.02 112.725 94.51 224.491 76.25 355.567-4.25 30.47-10.49 60.555-16.98 90.611-4.27 19.8-9.67 40.037-11.56 60.215-6.22 66.666 36.29 114.593 83.14 155.283 13.27 11.52 29.31 22.75 40.46 36.36 7.68 9.38 12.59 21.21 11.19 33.5-5.2 45.41-74.61 63.95-105.53 89.65a156.5 156.5 0 0 0 7.31 27.68c4.78 12.96 16.3 29.44 14.38 43.56-2.21 16.18-21.57 29.11-33.72 38.31 4.92 4.66 10.09 9.27 14.5 14.43 7.79 9.12 8.39 17.18 7.49 28.55-7.26 12-19.84 16.07-30.99 23.49l-1.08.73c-3.16 9.82-3.71 20.82-3.91 31.06-.94 50.38 20.66 103.89-11.98 148.79-43.18 59.41-138.66 56.28-202.92 41.68-39.74-9.02-109.24-34.45-148.1-28.11-31.11 5.07-53.74 27.19-71.39 51.97-48.12 67.56-67.64 158.61-79.62 239.16-3.28 22.09-8.79 48.54-5.02 70.7-15.32-14.75-50.06-29.4-70.06-39.73l-123.99-63.15a23810 23810 0 0 0-437.369-224.62c-49.16 51.4-104.993 102.01-176.604 117.47-8 1.72-16.36 3.92-24.53 4.54-3.073.23-6.216.39-8.522-2.03-2.761-2.9-2.995-6.25-1.625-9.84 3.989-10.47 29.091-39.6 37.096-50.3a246 246 0 0 0 20.535-32.39c30.844-58.02 24.336-107.2-6.157-163.02-27.025-49.47-65.53-95.01-100.142-139.35-26.132-33.48-53.373-66.16-78.224-100.62-86.834-120.41-142.857-245.25-145.82-395.691-3.949-200.521 84.914-413.718 223.677-557.689C538.064 142.925 769.967 74.902 1012.34 70.475"/><path fill="#FEFEFE" d="M1711.93 450.513c.09.07.18.134.27.212 10.45 10.124 31.62 61.377 37.75 77.284 37.77 97.91 41.69 199.675 19.54 301.828-8.53 39.334-21.3 76.926-20.56 117.69 1.24 68.173 42.98 113.713 90.73 156.623 11.05 9.93 23 19.19 33.59 29.58 5.19 5.09 11.22 12.43 10.93 20.16-.99 27.01-82.05 55.43-101.74 75.01-.33.32-.64.65-.96.98-6.61 31.7 9.06 55.65 19.99 83.84-10.39 10.92-37.48 26.46-42.28 34.84-2.79 4.86-1.04 9.27.31 14.22 9.77 10.13 21.77 15.52 30.63 27.16-8.65 3.94-18.7 8.23-26.21 14.08-4.33 3.38-7.21 7.3-9.09 12.47-3.1 8.53-3.06 18.44-3.19 27.4a470 470 0 0 0 2.25 49.35c2.17 20.32 6.74 40.46 3.99 60.99-2.67 19.88-12.5 37.35-28.57 49.44-19.9 14.97-44.16 21.32-68.58 23.54-45.89 4.18-92.14-5.03-136.01-18-24.08-7.13-48.07-15.15-73.07-18.42-34.19-4.46-63.92 1.21-91.55 22.65-16.96 13.16-30.17 29.68-42.17 47.32-54.15 79.59-71.46 179.1-83.57 272.68-17.18-7.63-33.73-16.9-50.58-25.27l-140.07-71.13c-25.18-12.18-49.577-25.75-74.464-38.5l-153.185-78.93-173.113-89.06c12.471-19.54 28.41-37.66 42.496-56.09 72.157-94.42 143.06-164.3 255.497-208.75 49.78-19.68 95.119-27.3 143.639-53.68 63.94-34.77 113.16-92.84 127.29-165.27 6.13-31.45 6.77-60.33 16.13-91.92 13.65-46.01 38.57-89.091 82.07-112.459 25.12-13.492 46.6-19.105 74.28-10.813 15.23-11.284 30.47-22.537 44.78-34.986 18.94-16.474 36.74-34.827 54.52-52.538 91.09-90.706 150.16-176.827 197.01-296.888 12.29-31.496 23.99-63.573 31.27-96.643"/><path fill="#5C2A7E" d="M1722.01 809.403c3.71-.594 7.71-.627 11.48-.919l.25 27.634c-46.03-.731-89.62 12.892-128.33 37.62-9.56 6.112-18.01 13.715-27.43 19.838-2.4 1.557-3.42 1.544-6.1.831a958 958 0 0 1-15.74-17.925c11.6-7.331 22.53-15.866 34.15-23.274 42.18-26.898 82.32-39.206 131.72-43.805"/><path fill="#FEFEFE" d="M996.087 95.445c95.873-3.846 203.663 8.775 295.893 35.769 134.02 39.229 249.23 105.69 342.76 210.421 21.5 24.08 44.41 51.717 59.96 80.089-6.36 21.177-11.8 42.515-18.74 63.542-29.3 88.867-70.28 176.44-128.46 250.25-22.34 28.34-47.61 54.67-72.43 80.833-26.34 27.758-64.11 67.647-95.23 88.781-9.5-2.106-18.97-2.812-28.65-1.672-24.43 2.875-50.68 14.283-70.53 28.623-50.47 36.46-75.85 97.109-85.64 156.979-3.51 21.45-3.87 42.98-9.39 64.16-8.68 33.32-24.58 62.95-48.17 88.08-71.87 76.59-180.835 81.55-268.739 130.43-56.889 31.64-108.066 75.61-150.73 124.58-23.464 26.93-44.904 55.5-67.19 83.39-51.936 64.55-108.567 135.98-191.809 160.38a164 164 0 0 0 3.219-3.41c8.399-9.18 15.387-19.78 21.981-30.3 29.928-47.72 40.722-101.03 24.534-155.67-21.374-72.16-116.959-182.25-164.398-242.46-27.941-35.46-55.074-72.37-78.657-110.86-59.517-97.16-93.966-199.785-98.457-313.97-5.25-133.501 39.929-284.024 107.002-398.88a806.5 806.5 0 0 1 103.317-138.294c92.207-99.488 200.405-162.598 329.236-203.053 98.142-30.819 186.822-43.865 289.318-47.738"/><path fill="#5C2A7E" d="M431.031 567.614c1.832.231 4.461.372 5.801 1.671 6.284 6.089 3.224 32.824 3.155 42.052 6.686-.052 14.186-.908 20.082 2.892 2.076 1.339 2.569 2.191 2.979 4.557-.575 1.068-.589 1.265-1.624 2.215-5.3 4.863-14.869 3.717-21.423 3.594l.32 68.185c5.495-.317 12.971-1.656 17.764 1.638 2.283 1.57 2.773 2.571 3.361 5.209-.504 1.155-.566 1.474-1.441 2.558-4.255 5.273-13.89 3.877-19.806 3.738l-.2 68.462c5.45-.233 12.536-1.354 17.59.884 2.671 1.183 4.268 2.472 5.28 5.199l-1.325 2.478c-7.116 5.123-12.994 4.218-21.441 4.083l.146 70.16c6.255-.154 14.335-1.209 19.593 2.986 2.218 1.769 2.458 2.22 2.877 4.851-.534 1.096-.562 1.322-1.512 2.332-4.956 5.269-14.707 3.921-21.143 3.767l-.036 67.353c6.146-.11 13.995-1.115 19.406 2.357 2.328 1.494 3.003 2.319 3.649 4.972-.552 1.119-.585 1.366-1.581 2.38-5.111 5.204-14.83 4.063-21.378 3.978l.089 66.865c5.941-.18 13.293-1.26 18.417 2.4 2.151 1.53 2.746 2.46 3.216 5-.524 1.1-.552 1.32-1.46 2.35-4.639 5.26-13.746 4.12-19.96 3.98a4196 4196 0 0 0 .127 67.3c5.492-.1 12.868-1.14 17.624 2.07 2.224 1.51 2.708 2.48 3.294 5.03-.504 1.13-.567 1.45-1.46 2.5-4.385 5.13-13.968 3.68-19.892 3.52-.19 22.78.511 45.59.575 68.38 3.759-.36 8.732-1.33 12.433-.62 3.475.67 5.52 1.95 7.622 4.85.168 2.6.368 3.25-1.42 5.37-4.465 5.29-13.223 3.88-19.328 3.74l-.009 62.02 61.572-.14c.065-11.29-2.41-39.49 1.271-48.55 1.014-2.5 1.913-3.29 4.306-4.36 2.937.51 3.985 1.32 6.199 3.16 3.941 7.43 1.818 38.89 2.034 49.27l62.722.5c-.023-11.65-1.586-86.56 1.197-91.75 1.407-2.63 2.046-2.81 4.677-3.8 2.91.28 4.014.67 6.273 2.53 4.628 7.51 2.134 78.4 2.115 92.81l62.049-.14-.143-94.72c-.06-16.44-2.884-38.14 1.153-53.7 1.451-1.65 2.395-2.81 4.797-3.05 1.524-.16 3.095.21 4.167 1.3 2.353 2.38 2.945 5.68 3.258 8.91.996 10.27-.511 21.14-.373 31.51a7670 7670 0 0 0 1.153 109.65 3208 3208 0 0 1 63.401.25l.046-136.8c-.099-21.05-1.796-42.85-.833-63.8.168-3.65.548-9.8 2.956-12.81 1.582-1.98 2.17-2.03 4.49-2.22 2.262.85 3.926 1.83 5.592 3.57 1.243 1.3 1.643 2.25 1.899 4.06.86 6.09.049 13.49.027 19.72l-.117 44.12.463 144.42c20.604.23 41.245-.33 61.849-.59a8191 8191 0 0 0 .248-165.52c.204-13.97-2.486-33.74 1.31-46.87.921-3.19 2.112-4.73 4.942-6.37 2.513.36 3.851 1.02 5.656 2.74 2.187 2.09 2.585 4.68 2.825 7.56 1.748 21.04-.049 46.38-.105 67.84l-.162 141.35 64.283-.03a10938 10938 0 0 1-.315-117.57c.012-8.77-1.52-29.01.198-36.73.562-2.52 2.226-4.46 4.579-5.58 2.304-1.09 3.05-.84 5.298-.11 2.999 3.21 3.827 6.54 4.396 10.82 2.047 15.39.338 32.52.263 48.12l-.301 100.88a4052 4052 0 0 1 62.565-.46l.215-60.51c.01-9.78-.923-20.01.081-29.73.297-2.88.722-5.66 2.54-7.99.999-1.28 2.554-1.63 4.146-1.7a7.42 7.42 0 0 1 6.001 2.66c3.987 4.74 2.07 86.52 2.074 97.21 21.007.27 42.051.05 63.061.06.02-21.12-2.23-46.08-.7-66.76.26-3.55.41-7.34 3.62-9.47 2.06-1.37 4.28-1.24 6.51-.7 2.61 2.93 3.52 5.67 4.15 9.53 2.45 15 .58 49.79.57 67.1 9.15.02 25.67-1.99 32.48 4.55.68 2.6.49 3.18-.21 5.81-1 1.16-1.91 2.2-3.34 2.85-2.62 1.2-5.82 1.56-8.68 1.58l-381.41-.58-182.572.54c-22.087-.04-44.297.51-66.371-.07-5.987-.16-11.77-.77-17.509-2.57-.739-1.38-1.248-2.67-1.48-4.22-1.485-9.99-.321-21.23-.341-31.33l-.433-53.04a17323 17323 0 0 1-.055-211.763l.498-273.62.223-80.203c.034-12.634-.726-25.899.212-38.459.258-3.457 1.829-5.28 3.879-7.901"/><path fill="#C357A6" d="m649.921 547.195 1.43-.089c7.92-.457 19.093-.766 24.982 5.596 1.642 1.773 2.209 3.85 1.789 6.218-.844 4.76-4.808 7.383-8.292 10.243-.621 8.488-.635 17.07-.775 25.577 15.847 1.086 28.885 5.891 43.083 12.776 7.258-6.6 13.944-14.419 20.158-21.984-.874-4.134-2.273-9.149.085-13.034 1.306-2.152 3.136-3.243 5.558-3.732 4.077-.822 8.785 1.34 12.14 3.431 4.955 3.087 12.201 9.636 12.834 15.882.251 2.475-.192 4.679-1.959 6.529-4.133 4.325-10.748 4.153-16.279 4.536-5.046 7.657-10.155 15.171-15.664 22.51 11.12 9.768 16.96 19.798 21.553 33.736 9.432-.308 18.82-2.023 28.001-4.124 3.671-4.655 6.947-10.268 13.194-11.37 3.158 1.234 4.982 3.326 6.761 6.145 3.417 5.414 7.561 15.77 5.477 22.255-.798 2.482-1.952 3.942-4.29 5.115-6.013 3.015-13.27-.582-18.942-2.748-8.755 1.672-17.053 4.255-25.376 7.412 2.389 15.317-2.934 31.398-7.383 45.874 7.254 3.714 13.795 8.252 21.376 11.439 3.868-.812 9.714-2.704 13.595-2.005 2.503.451 4.286 1.666 5.478 3.932 1.955 3.719 1.11 7.574-.514 11.167-2.969 6.572-7.853 18.614-15.456 20.64-2.876.767-6.732-.285-8.957-2.275-2.445-2.187-2.526-4.863-2.569-7.894-.032-2.238-.074-3.946-.761-6.113-5.494-3.691-12.085-7.15-18.254-9.543-.674-.262-3.492-1.56-4.234-1.499-2.478.202-16.306 13.763-20.014 16.472-5.149 3.762-10.788 6.163-16.615 8.659 1.656 8.725 3.613 17.313 5.769 25.927 3.434 2.298 7.706 4.793 9.502 8.671 1.109 2.395 1.144 5.033.191 7.49-1.526 3.935-5.47 6.435-9.231 7.918-5.882 2.321-15.621 3.792-21.412.429-1.98-1.149-3.141-3.677-3.278-5.904-.204-3.301 2.043-5.137 3.934-7.511.892-8.62-4.376-20.9-7.028-29.243l-1.48-.733c-13.794 1.564-29.944.468-43.661-1.908-3.828 9.066-8.272 17.851-12.695 26.635 1.214 3.092 2.907 6.709 2.998 10.072.078 2.925-.74 5.843-3.088 7.775-2.97 2.443-7.249 2.461-10.843 1.839-5.736-.991-14.34-4.402-17.363-9.777-1.253-2.229-1.992-4.711-1.141-7.24 1.506-4.478 6.805-6.111 10.741-7.839 4.369-9.76 7.641-20.196 11.275-30.259-11.056-7.082-19.388-15.117-27.273-25.598-8.968 3.864-17.82 7.822-27.32 10.195-1.741 4.037-3.887 11.115-7.184 14.019-1.212 1.067-2.489 1.54-4.068 1.377-3.76-.389-6.784-2.907-9.246-5.62-4.286-4.721-9.119-13.194-7.922-19.848.49-2.727 2.079-4.429 4.407-5.765 4.747-2.722 10.453-.679 15.375.461 9.008-3.376 17.561-8.746 25.82-13.613-4.974-13.504-6.938-25.885-7.83-40.249a1191 1191 0 0 1-23.626-5.559c-2.755 1.928-5.52 3.871-8.739 4.947-2.948.985-6.121.897-8.814-.8-3.35-2.111-4.822-5.88-5.362-9.634-.806-5.617.283-12.279 3.924-16.787 1.983-2.454 4.63-3.76 7.81-3.714 6.236.091 10.355 5.706 14.118 9.936 8.485.365 16.897.742 25.332 1.799 5.172-13.825 11.296-23.832 20.975-35.024-5.284-6.199-13.674-15.056-21.247-18.238-3.739-1.571-9.518-2.713-12.62-5.335-1.842-1.558-3.118-3.282-3.154-5.787-.057-3.919 2.64-7.837 5.152-10.627 3.81-4.23 11.376-9.787 17.429-9.382 2.602.173 4.687.957 6.297 3.106 2.734 3.651 2.423 7.137 1.747 11.418-.067.425-.144.848-.216 1.273 6.234 6.806 13.037 13.166 19.612 19.645 12.694-6.331 27.094-13.42 41.286-15.242l.011-24.422c-1.718-1.849-3.503-3.717-5.05-5.715-2.07-2.673-3.847-6.847-2.82-10.233 1.284-4.23 5.154-5.577 8.846-7.06"/><path fill="#FEFEFE" d="M597.654 710.049c3.431 1.613 6.932 3.014 9.792 5.555.995 3.645-.191 6.355-1.073 9.943l-.579.952c-4.102-4.018-6.361-11.072-8.14-16.45m15.082-72.998c-1.518 5.851-1.327 9.62-1.303 15.482.005 1.214-.236 3.543-1.085 4.471-2.341 2.557-9.963 6.457-14.613 11.304-.879.304-.296.212-1.725-.4 3.054-11.091 10.339-23.142 18.726-30.857m105.441 33.984c.777.609 1.43 1.03 1.974 1.922 3.959 6.484.449 18.164-2.042 24.648-5.203 2.763-10.202 5.549-15.095 8.845-.873-1.368-.684-.539.316-2.503 4.855-9.532 5.178-14.295 2.036-24.658zm-40.485 46.959c6.623-.088 13.894-.908 19.298 3.776 2.19 1.899 2.243 3.3 2.473 6.057-1.949 5.298-5.493 7.795-10.048 10.888-1.67.72-3.443 1.285-5.248 1.545-3.031.437-7.315-.528-9.601-2.683-2.348-2.214-3.57-4.847-3.526-8.101.074-5.318 3.021-8.075 6.652-11.482"/><path fill="#FEFEFE" d="M719.892 643.97c6.606 4.457 10.025 13.394 11.523 20.947 4.236 21.36 2.029 43.287-10.409 61.571a174 174 0 0 1-5.2 7.216c1.085-6.084 1.941-9.521-1.234-15.177l-1.618-.543c-2.11 1.459-2.837 4.077-3.348 6.509-.243 1.155-.215 1.277-.257 2.292-.033-4.093-1.445-7.807-2.836-11.593a181 181 0 0 0 5.931-2.31c7.192-2.978 12.783-8.245 15.582-15.601 2.879-7.563 3.394-22.331-1.027-29.389-1.459-2.329-4.317-4.542-5.198-7.123-1.812-5.316 1.006-10.093-1.909-16.799m-88.207 66.14c3.247-.036 6.309.067 9.276 1.55 4.262 2.131 7.726 6.037 9.276 10.544 1.265 3.677 1.128 7.805-.771 11.247-2.608 4.724-6.62 5.787-11.554 7.057-3.355-.508-6.83-1.183-9.991-2.443-4.226-1.685-8.189-5.492-9.89-9.734-1.238-3.089-1.185-6.376.371-9.344 2.741-5.229 7.985-7.199 13.283-8.877m5.498-78.969c2.149.094 4.305.212 6.42.633 4.338.862 8.588 2.814 10.847 6.824 1.722 3.057 1.748 6.751.824 10.062-2.323 8.326-8.08 12.355-15.051 16.57-1.929.034-3.559.085-5.382-.641-4.745-1.891-9.318-5.412-11.183-10.29-1.662-4.346-1.249-9.267.671-13.457 2.482-5.416 7.643-7.62 12.854-9.701m40.465 18.418c2.067-5.487 4.65-11.713 10.506-14.071 5.35-2.155 10.792.182 15.752 2.242 5.268 5.544 8.901 9.809 8.883 17.803-.009 3.818-1.526 7.084-4.339 9.637-3.145 2.853-8.423 3.616-12.474 3.107-5.806-.728-11.306-4.066-14.758-8.772-1.629-2.223-2.042-4.251-2.712-6.841-.268-1.04-.574-2.069-.858-3.105m-70.244 21.493c1.69-.204 3.4-.383 5.104-.363 6.348.075 12.829 1.615 17.346 6.354 2.742 2.877 4.241 6.652 3.843 10.642-.645 6.474-4.948 10.607-9.756 14.443-3.734 1.651-7.729 2.814-11.6 4.109-2.339-1.556-4.867-3.281-6.795-5.344-3.609-3.861-5.994-10.068-5.666-15.356.407-6.57 2.852-10.082 7.524-14.485m62.923.005c1.703-.075 3.461-.128 5.151.138 6.784 1.065 14.143 5.17 17.967 10.963 2.313 3.504 3.288 7.528 2.365 11.668-1.232 5.52-5.89 8.892-10.351 11.791-3.77.804-7.178 1.261-11.016.579-5.13-.911-9.998-3.798-12.937-8.148a16.68 16.68 0 0 1-2.387-13.121c1.507-6.652 5.758-10.257 11.208-13.87"/><path fill="#FEFEFE" d="M628.303 623.494c8.008-3.69 15.918-6.455 24.709-7.574 16.515-2.103 33.819.638 47.167 10.99-2.673-.826-5.415-1.684-8.171-2.184-5.826-1.056-13.169-.343-17.972 3.408-4.83 3.774-5.685 8.323-6.497 14.109.345 5.373.57 10.254 2.574 15.335l.216 2.947c-6.69 4.249-12.561 7.826-17.393 14.302-3.464 7.771-5.266 14.133-2.092 22.404 2.713 7.069 7.592 12.153 13.086 17.152-1.769 9.04-3.847 19.281 1.595 27.549 2.491 3.784 6.237 6.216 10.719 6.9 8.277 1.262 17.288-3.033 23.569-8.095 5.103-4.112 7.572-7.778 9.536-13.952-.112 1.577-.242 3.157-.508 4.717-1.074 6.289-5.124 11.103-10.379 14.531-18.093 11.805-44.265 7.999-63.866 3.372 2.985.062 6.08.208 9.035-.295 5.189-.885 10.181-4.345 13.064-8.724 3.419-5.192 4.04-11.863 2.804-17.841-2.085-10.088-8.495-16.304-16.844-21.561 3.828-16.439-1.131-15.245-1.155-26.726 2.957-.47 5.806-.869 8.529-2.189.592-.287 1.175-.593 1.763-.889a116 116 0 0 0 3.189-3.211c7.647-8.073 10.812-14.169 10.576-25.508-2.07-6.43-4.716-12.118-10.417-16.082-8.281-5.758-17.553-4.592-26.837-2.885"/><path fill="#C357A6" d="M759.141 196.319c8.673.174 18.854.426 25.828 6.341 2.075 1.76 3.548 4.121 3.493 6.93-.12 6.064-5.44 9.638-9.716 13.006-1.187 8.349-1.794 16.54-2.12 24.966 12.506 3.06 25.023 10.699 34.2 19.645l23.037-18.246c.755-3.749 1.265-7.053 3.74-10.086 1.58-1.938 3.97-3.335 6.505-3.354 5.558-.043 10.878 4.954 14.232 8.881 3.385 3.964 7.311 10.022 6.696 15.507-.247 2.199-1.246 4.692-3.462 5.584-2.954 1.187-6.501.624-9.654.847-9.455.667-16.643 8.601-23.507 14.444 8.732 13.776 14.035 28.625 19.47 43.887 7.756-.894 15.358-1.59 23.168-1.698 1.995-1.83 4.178-4.243 6.425-5.725 2.03-1.339 3.373-1.837 5.772-.885 3.605 1.431 6.063 6.347 7.32 9.724 1.983 5.326 4.053 15.447.847 20.678-1.303 2.127-3.15 3.271-5.613 3.577-4.881.604-10.319-3.048-13.978-5.807a763 763 0 0 1-22.217 1.752c-1.712 15.844-5.783 30.181-10.765 45.225l18.731 11.904c4.436-1.634 10.832-3.484 15.502-1.912 2.36.795 4.229 2.188 5.231 4.505 1.751 4.05.216 8.969-1.425 12.808-2.472 5.784-7.302 12.655-13.515 14.785-2.537.87-5.076.806-7.389-.691-3.701-2.395-3.786-6.4-4.266-10.346l-23.47-12.556c-13.93 15.706-16.699 19.761-34.372 32.217 3.341 8.082 7.161 15.973 10.875 23.888 5.824 1.76 9.742 3.15 12.981 8.482.187 1.65.571 2.596-.158 4.177-2.538 5.507-10.355 8.557-15.767 10.215-4.645 1.422-12.939 3.1-17.239-.182-1.342-1.024-2.216-2.332-2.455-3.98-.63-4.359 1.228-7.225 3.735-10.587-3.319-7.818-7.217-15.223-11.227-22.698-16.548 5.202-31.226 6.423-48.346 3.938-.448 4.76-1.338 9.885-.971 14.663.427 5.561 3.399 13.399 2.69 18.658-.288 2.136-2.115 4.552-3.264 6.343-2.831 1.074-5.674 1.718-8.702 1.876-6.016.315-15.698-.421-20.091-5.269-1.807-1.994-2.876-4.246-2.663-6.996.385-4.969 4.628-8.175 7.985-11.347 1.58-7.548 2.162-15.091 2.777-22.766-12.716-5.229-22.853-10.909-33.723-19.407-6.545 5.711-17.865 13.762-20.255 22.231-.922 3.269-1.941 7.317-4.454 9.791-1.92 1.889-4.003 3.047-6.773 2.943-4.141-.156-8.144-2.918-11.025-5.687-4.218-4.054-7.826-9.953-7.821-15.973.002-3.012 1.098-5.838 3.493-7.746 3.621-2.885 8.819-2.053 13.17-1.898 5.945-6.074 12.277-11.735 18.56-17.453-8.687-12.746-14.926-25.789-20.148-40.283-7.647 1.096-15.482 1.535-23.179 2.246-1.863 2.684-3.662 5.016-5.991 7.312-2.405.942-4.526 1.255-7.045.541-3.952-1.121-6.844-4.328-8.636-7.892-2.87-5.71-3.788-13.589-1.315-19.601 7.769-18.89 29.392 5.694 40.099-.871.299-.184 1.946-1.573 2.175-2.041 1.623-3.322 1.73-12.689 2.345-16.894 1.615-11.044 4.016-21.89 6.423-32.781-5.465-3.819-11.103-7.082-16.937-10.304-4.657.803-10.382 1.731-14.746-.572-2.395-1.263-3.767-3.11-4.561-5.668-1.05-3.381.524-7.959 2.012-10.969 2.387-4.829 7.184-10.832 12.663-12.289 8.389-2.231 14.76 8.967 20.322 13.855 3.115 2.739 7.099 4.679 10.743 6.625 11.777-10.801 23.518-20.334 36.913-29.077-3.153-7.353-7.556-14.292-11.526-21.237-2.42-1.134-4.924-2.249-7.231-3.603-2.177-1.277-3.974-3.49-4.363-6.038-.494-3.227 1.163-6.366 3.151-8.767 3.938-4.757 14.311-10.977 20.747-10.647 9.779.503 5.477 12.888 6.923 19.176 1.713 7.452 6.576 15.746 11.788 21.313.244.261.497.513.746.77 15.565-5.902 31.245-6.656 47.735-6.594.786-8.663 1.396-17.387 2.765-25.98-2.461-2.069-5.538-4.37-6.792-7.426-1.07-2.609-1.558-5.646-.111-8.221 2.069-3.681 5.157-4.432 8.971-5.206"/><path fill="#FEFEFE" d="M733.466 264.342c19.271-3.31 44.493 3.521 60.328 14.605a81.98 81.98 0 0 1 33.914 53.534c3.927 23.9-3.856 49.507-17.897 68.906-14.759 20.392-35.203 30.481-59.575 34.476-22.248 1.158-43.729-3.379-61.95-16.628a83.65 83.65 0 0 1-33.084-54.953 85.55 85.55 0 0 1 15.936-64.07c15.74-21.223 36.604-32.018 62.328-35.87"/><path fill="#C357A6" d="M768.789 278.293c2.081.318 4.228.652 6.171 1.516 3.458 1.539 6.436 4.628 7.608 8.244 1.184 3.65.488 7.651-1.287 10.99-2.964 5.575-7.225 6.973-13.012 8.621-1.892-.509-3.885-1.039-5.606-2.011-3.824-2.16-6.99-6.184-7.931-10.491a13.43 13.43 0 0 1 2.289-10.796c3.101-4.195 6.848-5.167 11.768-6.073m21.34 24.714c2.404.14 4.977.658 7.249 1.453 4.321 1.511 8.413 4.805 10.293 9.033 1.4 3.148 1.412 6.576.161 9.774-2.037 5.21-6.985 7.792-11.815 9.899-3.001.133-6.081.317-8.983-.61-3.753-1.2-7.092-3.998-8.819-7.548-1.631-3.353-1.635-7.283-.388-10.759 2.144-5.977 6.793-8.773 12.302-11.242m-49.93 94.058c3.08-.07 5.849-.065 8.706 1.238 4.25 1.938 7.736 5.519 9.339 9.927 1.448 3.983 1.228 8.405-.87 12.126-2.519 4.471-6.617 5.857-11.276 7.253-3.072.195-6.133.231-9.107-.712-3.758-1.19-7.008-3.899-8.724-7.454-1.807-3.744-1.683-7.988-.153-11.805 2.285-5.704 6.771-8.125 12.085-10.573m48.077-45.9c3.655-.18 7.021-.036 10.503 1.228a21.43 21.43 0 0 1 12.532 12.009 20.43 20.43 0 0 1-.561 16.908c-3.067 6.187-7.908 8.723-14.218 10.775-4.048.107-8.001.128-11.846-1.324a21.3 21.3 0 0 1-12.37-12.043c-1.94-4.947-1.913-10.45.323-15.301 3.164-6.863 8.895-9.729 15.637-12.252"/><path fill="#FEFEFE" d="M787.852 360.921c1.205-.049 2.466-.134 3.673-.036 3.353.272 6.075 1.168 8.307 3.821 1.829 2.174 2.564 4.933 2.329 7.743-.435 5.2-3.281 8.384-7.057 11.659-1.298.066-2.817.225-4.126.069a11.9 11.9 0 0 1-7.889-4.385c-2.046-2.545-2.674-5.814-2.202-8.99.718-4.829 3.242-7.017 6.965-9.881"/><path fill="#C357A6" d="M712.406 301.306c11.457-.723 22.842 1.691 32.273 8.487 10.445 7.527 17.075 19.085 18.947 31.768 1.743 11.804-1.132 22.822-8.264 32.364-8.755 11.713-20.084 17.687-34.359 19.783-10.981.744-21.737-1.474-31.029-7.534a46.38 46.38 0 0 1-20.17-30.626c-2.239-12.433.609-25.891 8.193-36.065 8.471-11.365 20.795-16.337 34.409-18.177"/><path fill="#FEFEFE" d="M712.843 314.312c7.007-.541 13.8.495 20.035 3.888 7.757 4.222 13.326 11.649 15.715 20.104 2.416 8.55 1.214 17.34-3.155 25.042-5.749 10.135-14.243 14.998-25.113 17.924-9.165-.005-16.991-1.231-24.662-6.734a33.42 33.42 0 0 1-13.601-21.862c-1.382-8.837 1.256-17.923 6.627-25.005 6.188-8.161 14.293-11.772 24.154-13.357"/><path fill="#5C2A7E" d="M780.587 825.794c.497-.045.993-.108 1.491-.134 2.604-.136 4.361-.144 6.541 1.48 7.547 5.622 14.282 13.3 21.077 19.873a4556 4556 0 0 0 35.821 34.166l147.089 140.331c17.974-14.21 35.534-29.852 51.444-46.343a286 286 0 0 1-6.06-.084c-6.08-.16-10.81-.468-15.11-5.231-1.77-1.969-1.23-1.952-1.09-4.416 8.93-7.025 40.07-5.559 51.71-4.346 7.95 17.737 13.42 38.019 19.5 56.53-7.64 8.26-17.32 15.06-25.71 22.59a7095 7095 0 0 1-77.42 68.15c-9.646-7.36-18.371-16.53-27.213-24.87-18.556-17.5-36.742-35.11-54.914-53.01-29.784-29.33-60.606-57.57-91.03-86.229-10.899-10.866-20.867-22.435-32.411-32.668-29.563 26.53-247.782 223.647-260.379 225.377-2.352-1.12-4.09-2.35-5.984-4.16-4.325-4.13-28.611-30.97-30.933-34.89-1.434-2.43-1.729-4.37-1.801-7.14 1.043-3.37 3.929-5.92 6.464-8.25 21.979-20.27 45.107-39.49 67.531-59.29l105.848-94.154a6660 6660 0 0 0 115.539-103.282"/><path fill="#FEFEFE" d="M783.718 842.04c17.557 14.848 33.652 32.303 50.337 48.176 52.675 50.114 103.968 102.127 157.962 150.804 25.183-18.61 44.993-44.084 71.393-61.279l13 34.879c-14.63 10.48-27.83 23.14-41.32 35.03l-45.991 39.72c-22.503-24.11-47.246-46.43-71.145-69.16L806.496 913.28c-6.949-7.092-13.837-15.195-21.986-20.894-22.604 18.711-43.773 39.038-65.741 58.462l-113.365 99.302c-26.505 23.29-53.085 48.72-81.802 69.13a871 871 0 0 1-21.827-25.69c23.037-19.25 44.644-39.7 67.126-59.51z"/><path fill="#5C2A7E" d="M1215.81 151.129c4.01-.199 8.32-.618 12.31-.016 9.61 1.454 18.46 7.502 24.19 15.209a37.88 37.88 0 0 1 7.17 29.315c-2.05 12.029-8.96 20.391-18.47 27.43l-.21 63.694c46.82 3.565 98.79 25.69 133.15 57.623 16.56-16.275 32.75-33 49.74-48.824-.6-2.167-1.3-4.349-1.59-6.584-1.22-9.109 2.62-20.039 8.43-27.013 6.64-7.974 16.98-13.56 27.39-14.133 10.33-.569 20.84 3.618 28.3 10.728 7.09 6.762 10.89 16.055 11.03 25.805.15 10.409-3.47 20.947-11.15 28.174-10.61 9.994-23.56 10.823-37.29 10.408a1694 1694 0 0 1-49.26 49.062c35.28 36.536 53.39 88.825 59.8 138.273a1385 1385 0 0 1 55.16.617c2.8-3.728 5.92-7.634 9.51-10.625 8.16-6.808 18.48-10.023 29.06-8.788 10.72 1.251 20.15 7.425 26.57 15.961 6.27 8.341 9.45 18.63 7.75 29.034-1.89 11.596-9.14 21.123-18.82 27.49-9.1 5.984-19.45 7.551-30.01 4.973-11.68-2.848-20.49-10.083-26.62-20.227-17.77.59-35.76-.152-53.56-.065-2.17 47.91-25.36 99.042-56.1 134.957 16.24 15.56 31.79 31.32 46.87 47.995 7.59.014 15.27-.274 22.59 2.092 8.92 2.887 16.29 8.985 20.36 17.49 4.46 9.311 5.41 20.81 1.92 30.582-3.67 10.296-11.91 18.513-21.83 22.93-9.09 4.052-19.61 4.779-28.97 1.157-9.05-3.507-17.13-10.891-21.04-19.819-4.34-9.904-3.81-19.446.27-29.229-16.06-15.019-31.3-31.402-46.82-47.036-44.8 36.781-78.24 48.05-134.68 58.277a2273 2273 0 0 1 .06 56.499c9.88 9.252 17.65 17.945 18.77 32.171.81 10.3-2.42 21.134-9.4 28.846-8.24 9.106-18.54 11.825-30.33 12.178a89 89 0 0 1-4.94-.759c-10.39-1.981-20.11-8.825-25.95-17.58a36.37 36.37 0 0 1-5.56-27.777c2.22-10.892 8.65-18.806 17.6-25.012a1452 1452 0 0 1 1.09-59.422c-49.98-1.278-101.52-26.012-139.21-57.779a2202 2202 0 0 0-48.14 47.137c.49 2.722.98 5.456 1.24 8.212 1.05 10.998-1.91 22.978-9.26 31.404-6.88 7.881-17.617 12.6-28.018 12.9-10.665.307-21.658-4.124-29.305-11.534-6.944-6.728-11.024-15.683-11.012-25.399.021-17.037 11.877-33.632 28.486-37.92 5.073-1.31 13.755-.341 17.686-3.321 18.483-14.008 34.543-32.325 50.773-48.836-6.9-8.048-12.57-17.244-18.05-26.3-21.404-35.375-30.052-67.874-37.914-107.973-17.157 1.733-34.548 1.236-51.775 1.197a62 62 0 0 1-4.755 7.043c-6.652 8.437-17.083 13.835-27.718 14.874-10.469 1.023-21.811-1.764-29.803-8.803-7.772-6.845-12.04-17.238-12.57-27.471a39.06 39.06 0 0 1 11.168-29.243c7.375-7.63 17.803-12.479 28.497-12.276 13.013.248 22.294 7.442 30.932 16.318l55.928.166a244.83 244.83 0 0 1 62.86-137.651c-17.03-16.677-34.21-32.854-50.561-50.236-7.549.851-13.98 1.52-21.449-.649a36.17 36.17 0 0 1-22.009-17.988c-5.033-9.43-6.465-20.219-3.041-30.426a38.05 38.05 0 0 1 20.403-22.605 35.84 35.84 0 0 1 28.205-.906c9.642 3.713 19.732 11.865 23.882 21.508 4.08 9.495 2.16 18.409-1.26 27.659 17.9 14.554 34.67 30.856 51.61 46.539 36.05-33.231 86.73-51.998 134.75-58.475a2110 2110 0 0 0-.53-63.228c-7.1-6.987-13.56-14.303-16.65-23.994a37.04 37.04 0 0 1 2.5-28.275c5.89-11.101 16.14-16.163 27.62-19.73"/><path fill="#FEFEFE" d="M1438.43 523.369c23.65-.758 47.47.258 71.14.489l-.16 12.3-71.39.065c-.05-4.29.21-8.57.41-12.854M1010.9 309.868c14.27 8.868 44.26 38.776 58.04 51.433l-9.19 7.912c-1.41 1.036-.56.699-2.64.717-17.41-18.665-36.74-35.584-53.46-54.878zm204.5-83.809 13.6-.113c-.81 24.258 1.21 48.846-.21 73.017l-14.7.326c2.53-23.999.74-49.062 1.31-73.23M928.796 521.286c23.385-.329 46.813-.069 70.203-.099a481 481 0 0 1-.249 15.293c-22.619.235-45.33-.405-67.955-.594zm500.554-212.639c2.98.834 7.25 6.18 9.51 8.445a1417 1417 0 0 0-55.52 53.974c-3.35-3.408-7.14-6.492-10.71-9.67 19.14-17.453 36.51-36.429 56.72-52.749M1379 675.795c8.1 5.093 49.69 51.632 58.93 61.869-2.72 2.486-5.63 4.798-8.46 7.169-6.8-1.526-51.6-53.389-58.35-62.251 2.52-2.367 5.24-4.55 7.88-6.787m-163.98 69.524 13.54-.119a2610 2610 0 0 1-.4 77.785l-14.1.149a2808 2808 0 0 1 .96-77.815m-155.32-69.732c4 2.384 7.36 5.011 10.84 8.092-19.54 21.34-41.35 41.896-62.96 61.146-3.44-.13-7.02-4.491-9.666-6.782 19.806-21.569 42.356-40.571 61.786-62.456m154.96 160.82c4.08-.397 8.1-.729 12.16.091 6.82 1.381 13.1 5.454 16.68 11.495a24.22 24.22 0 0 1 2.33 18.958c-2.7 9.231-9.02 13.81-17.12 17.947-5.45.278-10.23.227-15.31-2.002-6.83-2.992-12.58-8.794-15.08-15.858-2.08-5.901-1.71-12.77 1.28-18.305a26.2 26.2 0 0 1 15.06-12.326m240.89-92.181c3.36.146 6.77.524 9.99 1.558 6.71 2.158 12.53 7.11 15.33 13.602a23.57 23.57 0 0 1-.3 19.36c-3.96 8.633-10.92 13.268-19.46 16.604-6.16.027-11.38-.399-16.82-3.602-5.89-3.467-10.2-9.079-11.68-15.787a25.4 25.4 0 0 1 3.67-19.452c4.56-6.933 11.38-10.539 19.27-12.283m-.03-484.074c4.54.07 8.7.281 12.98 1.93a25.3 25.3 0 0 1 14.31 13.674c2.73 6.359 2.93 13.78.12 20.146-3.7 8.363-10.51 12.328-18.77 15.327-5.84.359-11.25-.035-16.48-2.895a26.13 26.13 0 0 1-12.65-15.843 24.7 24.7 0 0 1 2.46-19.296c4.13-7.077 10.35-10.821 18.03-13.043M974.504 745.035c5.023.098 9.342.582 13.949 2.725 6.273 2.918 11.338 7.955 13.617 14.574 2.22 6.458 1.49 13.347-1.65 19.367-3.878 7.438-10.214 11.907-17.974 14.574-5.033.126-9.72.051-14.475-1.83-6.51-2.575-11.727-7.602-14.251-14.158a24.58 24.58 0 0 1 .85-19.74c4.176-8.547 11.405-12.443 19.934-15.512m.557-485.762c4.158-.333 8.587-.917 12.664.201 6.597 1.809 12.445 5.977 15.865 11.944 3.35 5.84 4.31 13.102 2.27 19.558-3.08 9.749-10.038 14.039-18.659 18.203-4.915.934-9.302 1.24-14.106-.388-6.664-2.258-11.841-7.045-14.723-13.457a26.36 26.36 0 0 1-.457-20.688c3.406-8.377 9.125-12.099 17.146-15.373m246.089-96.098c4.97-.287 9.63.744 13.96 3.22 6.05 3.458 10.04 8.976 11.67 15.742 1.63 6.817.66 14.111-3.09 20.075-4.8 7.615-11.83 10.72-20.31 12.675a26.2 26.2 0 0 1-13.43-3.327 25.43 25.43 0 0 1-12.48-15.857c-1.81-6.585-1.12-13.718 2.46-19.595 4.98-8.173 12.41-10.866 21.22-12.933M887.605 507.082c5.424-.326 9.837-.262 14.863 2.04 6.445 2.951 11.202 8.204 13.431 14.944 2.18 6.59 1.904 14.115-1.264 20.343-4.053 7.969-10.51 11.147-18.504 13.999-5.562.644-10.558.298-15.741-2.025a24.57 24.57 0 0 1-13.365-14.662c-2.222-6.48-1.993-13.957 1.066-20.13 4.156-8.384 11.123-11.674 19.514-14.509m658.025-2.889c4.5.057 9.15.366 13.31 2.222a26.66 26.66 0 0 1 14.2 14.872c2.49 6.596 1.99 13.82-1.12 20.112-4.07 8.225-10.83 12.492-19.26 15.365-5.81.427-11.09.074-16.36-2.701-6.08-3.202-10.36-8.85-12.23-15.413-2.08-7.274-1.24-15.369 2.7-21.874 4.35-7.186 10.79-10.687 18.76-12.583m-337.49-181.784c54.9-3.043 105.21 13.325 147.04 49.517 40.57 35.102 65.16 86.841 68.9 140.195 3.85 54.982-17.28 111.392-53.48 152.53-34.76 39.503-87.17 63.492-139.35 66.838-.35.039-.69.088-1.03.118-46.25 4.007-99.94-14.83-135.69-43.758-42.8-34.64-73.04-84.229-78.56-139.677-5.22-52.415 12.23-107.281 45.8-147.777 37.2-44.868 88.11-72.608 146.37-77.986"/><path fill="#5C2A7E" d="M1204.89 358.393c.1-.013.2-.03.3-.038 45.95-3.982 87 6.285 122.89 35.896a168.8 168.8 0 0 1 61.17 115.74c4.02 45.18-8.97 88.363-38.38 123.09-27.83 32.857-68.55 57.151-111.94 60.855-1.02.165-2.04.312-3.06.433-41.33 4.859-85.83-8.949-118.43-34.43-35.71-27.917-59.62-67.014-64.81-112.394-5.33-46.625 7.69-88.396 36.78-124.927 29.27-36.753 68.87-58.877 115.48-64.225"/><path fill="#FEFEFE" d="M1208.33 371.384c.08-.011.16-.028.24-.034 40.38-3.043 78.54 7.76 110.34 33.079a153.47 153.47 0 0 1 56.44 103.461 154.38 154.38 0 0 1-34.05 115.382c-27.5 33.958-65.06 52.972-108.18 57.32-.33.047-.65.104-.98.141-38.28 4.361-78.5-10.017-108.55-33.269-32.49-25.147-52.6-61.14-57.45-101.978-4.95-41.611 7.67-81.703 33.66-114.321a163.46 163.46 0 0 1 108.53-59.781"/><path fill="#5C2A7E" d="M1187.29 615.18c4.79-.428 9.68-.703 14.28.958a29.5 29.5 0 0 1 16.98 15.603c2.87 6.366 3.3 13.704.79 20.261-3.47 9.032-10.07 13.303-18.57 16.813-5.16.426-9.81.404-14.76-1.348-7.42-2.625-13.7-7.935-16.93-15.174a26.04 26.04 0 0 1-.37-20.266c3.58-8.917 10.18-13.209 18.58-16.847"/><path fill="#FEFEFE" d="M1189.15 627.913c2.64-.023 5.61-.21 8.18.453 3.67.946 7.01 3.859 8.8 7.141 1.79 3.267 1.98 7.006.7 10.482-1.84 4.996-5.33 6.926-9.93 9.128-1.63.073-3.29.15-4.92.017-4.12-.338-8.27-2.413-10.7-5.81-1.92-2.683-2.35-5.986-1.78-9.175 1.07-5.951 5.01-8.884 9.65-12.236"/><path fill="#5C2A7E" d="M1207.8 386.158c4.86-.378 9.16-.21 13.79 1.496 7.16 2.641 12.84 7.905 15.73 15.012a26.8 26.8 0 0 1-.55 21.709c-4.01 8.285-10.39 11.944-18.83 14.74-6.6.454-12.2.583-18.24-2.508a26.54 26.54 0 0 1-13.74-16.96c-1.94-7.228-.98-15.334 3.1-21.671 4.56-7.073 10.79-9.984 18.74-11.818"/><path fill="#FEFEFE" d="M1211.14 399.146c2.31.4 4.8.748 6.95 1.699a13.77 13.77 0 0 1 7.41 8.24c1.18 3.652.6 7.59-1.37 10.859-2.78 4.618-6.4 5.826-11.39 7.163-2.11-.248-4.38-.443-6.39-1.162-3.37-1.203-6.14-4.04-7.38-7.378-1.37-3.72-.81-7.856 1.07-11.298 2.55-4.684 6.23-6.483 11.1-8.123"/><path fill="#5C2A7E" d="M1321.65 504.171c6.24-.116 11.77.674 17.12 4.098 6.61 4.233 11.06 10.984 12.7 18.629a27.7 27.7 0 0 1-4.25 21.786c-4.97 7.264-11.53 10.516-19.91 12.318-5.64-.114-10.25-.559-15.35-3.214-7-3.639-12.32-9.781-14.47-17.424a28.05 28.05 0 0 1 2.96-21.762c4.82-8.18 12.25-12.194 21.2-14.431"/><path fill="#FEFEFE" d="M1319.91 518.146c2.66-.263 5.33-.556 7.98-.039 3.82.745 7.29 3.266 9.31 6.565 2.27 3.715 2.75 8.099 1.5 12.257-1.72 5.714-5.29 8.719-10.32 11.551-2.34.337-4.4.411-6.71-.132a15.66 15.66 0 0 1-10.06-7.768c-2.05-3.829-2.4-8.58-1.08-12.705 1.63-5.105 4.89-7.232 9.38-9.729"/><path fill="#5C2A7E" d="M1172.51 447.279c19.4-1.265 36.1 1.139 52.97 11.325 17.08 10.317 28.68 26.33 33.34 45.727a78.7 78.7 0 0 1-9.37 60.443c-13.01 20.711-31.39 30.103-54.66 35.306-19.76 3.374-41.48-1.745-57.89-13.114a75.17 75.17 0 0 1-31.25-49.705c-3.44-20.555.66-41.314 13.06-58.225 13.13-17.906 32.05-28.307 53.8-31.757"/><path fill="#FEFEFE" d="M1172.43 461.136c16.12-1.103 29.82.505 44 8.819a61.8 61.8 0 0 1 29.25 39.051 64.56 64.56 0 0 1-7.76 49.154c-10.1 16.409-24.84 24.237-43.03 28.587-15.84 2.536-31.13.729-45.12-7.475-14.77-8.666-25.56-23.694-29.81-40.209a62.7 62.7 0 0 1 6.9-48.235c10.36-17.28 26.76-25 45.57-29.692"/></svg>