<svg xmlns="http://www.w3.org/2000/svg" style="display:block" viewBox="0 0 2048 2048"><path fill="#FDFCFB" d="M0 0h2048v2048H0z"/><path fill="#6A3C8D" d="M1306 1574.39c15.76-2.05 33.61-.91 49.41.58 59 5.55 114.77 39.37 151.94 84.82a218 218 0 0 1 21.27 31.02c10.71 18.93 39.46 82.12 36.51 102.13-.31 2.06.02 1.31-1.68 2.65-11.71-4.19-44.63-86.09-55.11-102.58-29.97-47.12-79.76-84.57-134.81-96.3-32.41-6.91-72.79-8.36-104.34 3.17-9.99 3.65-18.71 8.82-27.6 14.59-47.61 36.85-85.08 94.43-93.94 154.43-2.86 19.37-3.43 39.02-4.7 58.53a821 821 0 0 1-6.93 65.33c-1.56 10.05-8.2 56.43-15.02 61.4l-1.38-.75c-1.46-3.1-2.05-6.05-2.42-9.44-3.64-32.85 1.98-64.14 5.12-96.63 2.6-26.82 2.36-53.96 5.77-80.69 5.62-44.03 29.25-88.84 56.65-123.35 34.22-43.11 66.88-62.76 121.26-68.91"/><path fill="#6A3C8D" d="M260.76 597.53c40.821-100.791 113.71-198.85 192.657-272.96 86.259-80.973 198.479-142.09 310.19-179.763 29.961-10.104 60.249-17.978 90.91-25.561 76.457-18.909 156.473-30.515 235.413-27.937 139.99 4.573 261.37 33.301 386.46 97.502 14.76 7.574 49.3 23.859 60.43 35.749 9.9 2.933 19.97 5.471 29.17 10.252 15.83-14.97 32.53-30.275 50.7-42.383 38.84-25.875 92.51-42.45 139.3-40.922 63.14 2.061 114.51 27.986 156.98 73.876 36.34 39.258 58.54 81.326 70.67 133.394 4.71 20.218 7.87 40.793 6.95 61.614-2.25 50.829-26.73 98.403-64.18 132.438-14.94 13.575-31.46 25.188-50.06 33.148 14.56 65.77 26.76 133.817 9.82 200.571 3.9 11.428 4.61 24.743 6.11 36.711a1344 1344 0 0 1 6.71 60.839c13.04 143.962-2.37 288.912-51.93 424.942-9.34 25.62-21.33 49.36-31.78 74.41 34.9 71.89 71.73 145.44 94.98 222.04 2.39 7.85 7.71 21.24 5.63 29.16l-1.57.76c-7.95-3.4-20.53-32.02-25.01-41.08-7.76-15.68-14.27-32.11-21.33-48.12l-33.19-73.5c-20.78-45.51-43.56-89.69-66.34-134.19-18.83-36.79-37.49-76-63.37-108.46-65.55 17.92-128.27 43.03-189.51 72.34-18.99 9.09-37.5 19.13-56.36 28.47-14.27 7.06-43.36 18.69-54.2 29.17-6.02 5.82-10.92 15.12-15.65 22.12-17.44 25.83-34.77 52.25-50.34 79.25-13.39 23.21-24.25 47.02-34.11 71.89-4.28 10.8-7.75 22.29-12.43 32.87-1.26 2.86-2.59 5.04-5.02 7.02-1.69.29-2.08.74-3.64-.25-2.37-1.5-3.67-3.64-4.11-6.38-1.44-8.9 5.46-21.41 8.73-29.42 21.44-52.63 51.2-111.04 86.58-155.76a254 254 0 0 1 9.15-10.76c-52.66 26.62-99.6 62.23-150.34 91.97a611.5 611.5 0 0 1-100.38 46.33c-21.61 44.57-48.46 86.83-72 130.44l-75.506 143.11c-12.908 24.57-70.38 137.68-84.767 150h-1.524c-3.328-12.62 5.044-33.22 9.127-45.14-4.373-5.59-7.527-12.05-10.885-18.29-32.909-8.08-66.142-13.76-98.753-23.35-103.237-30.34-199.808-76.91-283.764-144.64-29.096-23.48-51.489-43.48-75.786-72.14-21.324 8.91-60.876 32.29-80.673 36.42-8.304 1.73-16.697 1.59-24.832-.92-11.858-3.66-22.551-12.32-28.238-23.41-7.453-14.54-12.828-44.27-17.475-61.22l-49.941-187.13a19813 19813 0 0 1-110.546-430.656L92.095 817.846C84.652 788.549 75.6 759.19 69.73 729.564c-1.772-8.945-.73-18.032 2.11-26.646 3.163-9.593 9.224-17.529 17.183-23.664 15.04-11.594 40.352-21.024 58.042-29.057 37.873-17.199 76.674-33.707 113.694-52.667"/><path fill="#FDFCFB" d="M780.41 1493.55c8.781 6.56 16.338 14.75 23.787 22.74-3.688 14.99-9.219 29.72-14.099 44.36l-1.33 2.09c-6.039-.65-12.885-9.36-17.026-13.5 11.156-16.09 9.267-37.07 8.668-55.69m-24.994-19.66c3.009.83 8.694 7.38 11.282 9.72-.038 16.76.576 34.76-4.869 50.77l-8.551-11.04-25.227-36.04c8.561-5.28 18.25-9.17 27.365-13.41M1807.05 378.926c.25.248.52.477.75.746 2.35 2.746 3.92 7.253 5.29 10.599 8.55 20.922 8 42.588 6.03 64.638l-7.68-12.504c-5.82-9.726-26.42-36.14-23.93-46.479 2.05-8.487 12.62-13.155 19.54-17m21.4-7.325c3.51.497 6.54 1.192 9.51 3.26 13.31 9.299 22.23 30.756 25.22 46.344 4.58 23.864-1.29 49.562-14.77 69.562l-7.19 8.588c-2.22-4.167-3.64-8.442-5.11-12.903 12.15-40.724 11.25-76.495-7.66-114.851"/><path fill="#FDFCFB" d="M1852.39 370.731c.26-.021.52-.052.78-.064 8.67-.398 16.67 1.995 23.16 7.895 12.57 11.435 17.48 33.396 18.21 49.758 1.55 34.461-8.47 73.891-31.97 99.81l-2.85 2.232-1.78-.236c-4.25-4.591-6.69-11.382-9.5-16.974 20.9-21.819 28.87-42.221 29.78-72.696.82-27.467-6.94-49.769-25.83-69.725m-168.55-187.665 1.66.31c-4.27 7.978-10.79 15.043-15.37 23.025-10.4 18.11-18.23 44.014-21.62 64.408-12.04-7.058-24.75-12.821-37.38-18.735-7.8-4.08-16.09-7.367-24.16-10.878a257.9 257.9 0 0 1 96.87-58.13m52.7-10.656c22.35-2.218 45.81.664 67.13 7.463a278 278 0 0 0-8.09 5.225c-35.65 24.083-72.4 71.622-80.79 114.518l-3.36 13.038c-15.27-14.777-36.19-26.495-54.8-36.682 8.56-39.076 20.85-68.464 47.76-98.171 10.71-2.882 21.08-4.606 32.15-5.391"/><path fill="#FDFCFB" d="M1816.55 184.013c45.49 15.291 77.71 45.437 105.8 83.15a120 120 0 0 0-5.35-.134c-49.4-.451-92.56 24.675-126.8 58.475-10.4 11.389-19.47 23.631-28.43 36.15-11.68-17.279-25.51-29.329-41.79-41.947.86-5.777 2.16-11.242 3.9-16.823 15.13-48.665 46.93-94.808 92.67-118.871"/><path fill="#FDFCFB" d="M1904.73 277.392c8.34-1.121 17.05-.071 25.37.785 5.99 10.6 12.49 20.988 17.5 32.102 18.37 40.69 28.32 91.695 18.82 135.793-12.65 58.757-48.85 90.776-97.08 121.85-2.47-6.433-4.71-12.969-7.03-19.454 16.24-16.061 26.18-30.81 34.1-52.226 4.75-14.01 9.01-28.238 11.25-42.891 4.11-26.866.78-50.503-15.7-72.658-8.99-12.079-21.34-18.863-36.17-20.944-31.15-4.368-53.98 11.065-77.57 29.08a339 339 0 0 1-10.45-18.296c5.44-8.415 10.93-16.845 17.14-24.719 28.64-36.33 73.84-62.755 119.82-68.422m-137.41 169.324c4.13 22.022.99 49.275-1.22 71.605-16.51 166.545-101.03 298.383-228.69 403.371-5.37-8.078-10.11-16.511-14.91-24.936-9.36-16.69-17.94-33.865-26.77-50.84a1244 1244 0 0 0 21.9-13.744c92.11-60.265 186.66-189.496 225.32-291.863 12.13-32.107 17.43-60.364 24.37-93.593"/><path fill="#FDFCFB" d="M1791.17 447.865c7.49 9.098 19.14 35.704 24.36 47.286 21.86 48.517 40.9 89.914 51.29 142.747 15.63 79.497 6.12 161.615-40.02 229.972-48.74 72.215-131.49 116.8-215.59 133.07a706 706 0 0 1-27.12 4.62l-10.41-21.772c22.87-6.426 45.73-13.585 67.38-23.466 58.76-26.818 112.69-73.041 146.61-128.068 52.74-85.555 50.15-197.876 28.61-292.693-7.02-30.917-17.74-60.885-25.11-91.696m-44.6-71.172c6.16 5.293 11.44 27.872 12.47 36.451 2.37 19.666-2.06 40.948-6.5 60.123-19.29 83.223-61.24 159.634-113.58 226.64-36.89 47.228-79.95 92.512-129.37 126.717-4.46 3.09-12.66 10.205-17.89 10.844l-1.6-1.924c-3.02-5.055-5.75-10.291-8.56-15.469 8.01-16.81 15.69-33.574 20.68-51.588 8.59-31.023 12.54-80.614-4.01-109.638 49.83-15.302 95.39-38.215 135.17-72.145 57.86-49.358 107.11-133.251 113.19-210.011"/><path fill="#FDFCFB" d="M1778.36 466.789c.63.875.81 1.047 1.26 2.192 3.43 8.717 6.93 31.337 9.6 42.044 23.28 93.354 32.99 198.872-8.68 288.493-42.89 92.259-116.81 130.476-207.45 163.71l-9.84 3.309c-7.28-11.326-14.73-22.541-20.42-34.767 13.01-13.296 28.4-24.576 41.84-37.559 104.17-100.62 175.49-219.154 190.86-365.254 2.16-20.59 2.5-41.479 2.83-62.168m-133.94 639.361c7.42 6.18 56.16 88.03 65.03 102.54-28.2 8.68-56.72 15.26-84.59 25.19-55.72 19.86-109.18 45.36-161.96 71.95-38.46 19.38-76.43 39.01-113.59 60.81-57.97 34.01-111.81 73.13-172.17 103.28a3188 3188 0 0 1-47.31 21.78c30.33-41.93 52.12-88.11 78.06-132.64 7.42-12.73 13.72-27.67 23.02-39 8.45-10.29 47.56-29.73 60.66-37.21 73-41.65 145.32-82.68 221.23-119.02 43.2-20.67 87.81-38.38 131.62-57.68m-817.224 329.84c7.696 4.33 68.434 57.04 72.969 64.28 7.1 11.35 8.921 31.27 12.294 44.32 5.792 22.41 12.066 44.68 17.706 67.14 9.723 38.71 25.824 114.81 46.575 145.92-10.868 23.22-23.018 45.78-35 68.43-8.079 15.28-15.751 32.17-26.32 45.9-12.808-19.72-14.464-44.92-29.25-63.23-11.013-13.64-23.897-25.01-36.906-36.65-22.391-20.02-57.558-48.72-75.116-71.14-9.755-12.45-17.194-26.15-23.987-40.38-8.9-17.37-15.286-36.67-21.892-55.02-3.907-10.85-7.136-23.11-13.587-32.71-9.067-13.48-23.049-22.37-35.305-32.66-21.541-18.09-32.618-42.75-43.862-67.93-2.407-5.39-5.205-13.12-2.17-18.83 1.097-2.07 2.412-3.17 4.557-3.96 6.785-2.5 17.474 3.48 23.373 6.83 30.108 17.06 53.7 42.76 73.746 70.6 8.252 11.46 15.969 23.96 25.945 34.03 8.898 8.98 19.706 15.44 31.093 20.77 8.661 4.05 35.959 15.87 44.519 17.45 2.142.39 5.232.12 7.159-.92 2.497-1.34 2.83-2.44 3.584-4.92-.849-2.25-1.558-3.48-3.722-4.72-5.394-3.1-12.146-4.97-17.91-7.35-8.628-3.57-17.001-7.87-25.282-12.17 5.153-13.73 17.982-37.9 18.484-51.6.138-3.76-.998-7.27-3.218-10.3-8.004-10.92-32.225-29.58-43.401-41.27 18.176-10.6 38.131-16.77 54.924-29.91"/><path fill="#C1ABD5" d="M645.428 1525.64c7.53 8 15.032 16.01 23.041 23.54 10.224 9.62 22.444 18.76 30.391 30.4 8.7 12.76 13.337 28.12 18.605 42.5 11.699 31.94 23.783 62.37 45.077 89.44 21.07 26.78 50.487 48.81 76.326 70.97 13.343 11.45 28.219 23.42 38.126 38.06 10.025 14.81 13.793 32.34 20.901 48.49-32.909-8.08-66.142-13.76-98.753-23.35-103.237-30.34-199.808-76.91-283.764-144.64-29.096-23.48-51.489-43.48-75.786-72.14 29.412-15.5 59.175-30.09 88.728-45.29 38.591-19.83 77.5-40.27 117.108-57.98"/><path fill="#FDFCFB" d="M567.955 486.213c4.703-.27 9.476.062 13.921 1.756 7.485 2.852 12.329 8.959 15.405 16.152 3.307 7.734 4.899 16.542 7.035 24.68a3900 3900 0 0 1 12.861 49.704l35.809 137.529a17848 17848 0 0 1 112.098 431.926l41.838 166.02c5.37 22.1 12.02 44.15 16.32 66.47 2.028 10.53 2.116 21.1-2.16 31.15a43.8 43.8 0 0 1-13.045 17.02c-15.49 12.51-73.417 37.2-94.662 46a2756 2756 0 0 1-25.771-24.55c20.099-11.26 99.824-41.84 109.475-54.31 3.322-4.29 2.101-10.59 1.518-15.65-1.594-13.85-6.076-27.64-9.567-41.12l-15.822-61.76-53.504-210.67a21811 21811 0 0 0-98.493-380.099l-27.593-105.265c-3.11-11.532-5.414-23.374-9.002-34.757-1.908-6.052-4.871-12.627-10.157-16.451-5.036-3.643-12.417-4.346-18.332-2.979-11.945 2.762-24.055 9.767-35.127 14.934-25.854 12.067-51.367 24.887-77.248 36.865l-206.521 96.931a4336 4336 0 0 1-53.155 24.827c-11.254 5.076-23.155 9.667-34.065 15.403-5.756 3.026-11.61 7.671-15.071 13.25-3.238 5.222-2.336 11.838-1.541 17.645 1.84 13.447 7.14 27.229 10.445 40.438 11.301 45.154 24.46 89.871 35.311 135.112a30108 30108 0 0 0 139.604 542.516l20.479 77.32c3.245 12.59 8.419 41.17 14.31 51.27 1.19 2.05 2.943 4.31 5.118 5.37 4.698 2.3 13.924-.81 18.674-2.48 9.031-3.17 17.854-7.93 26.512-12.02l50.152-23.87a8272 8272 0 0 0 165.641-79.37 820 820 0 0 0 14.157 32.65c-15.643 8.64-32.697 15.08-48.822 22.82l-117.678 56.73c-24.897 12.03-49.43 24.64-74.507 36.33-9.069 4.23-19.053 10.02-28.656 12.69-4.59 1.28-9.616.93-13.709-1.6-7.095-4.39-11.106-10.6-13.86-18.31-7.111-19.9-10.613-41.97-16.285-62.41l-52.538-196.97a25010 25010 0 0 1-99.116-386.613L136.52 850.483c-8.572-32.454-18.051-64.815-25.773-97.48-4.039-17.087-6.917-33.133 3.339-48.899 4.435-6.818 10.404-12.112 17.471-16.032 13.41-7.436 27.673-13.667 41.548-20.179l90.441-41.672A11308 11308 0 0 1 500.66 515.925c19.85-8.954 46.997-25.606 67.295-29.712"/><path fill="#C1ABD5" d="M1886.17 786.548c3.9 11.428 4.61 24.743 6.11 36.711a1344 1344 0 0 1 6.71 60.839c13.04 143.962-2.37 288.912-51.93 424.942-9.34 25.62-21.33 49.36-31.78 74.41-8.93-15.13-16.23-31.69-24.16-47.39-19.02-37.63-39.39-76.94-65.14-110.38 3.39-1.34 6.49-2.23 8.89-5.09.8-2.11.82-3.55.15-5.73-3.26-10.62-74.89-122.19-81.89-125.09-9.33-3.87-26.59 6.23-35.28 10.2-7.25-24.95-15.7-49.24-24.91-73.54 43.38-5.89 85.54-17.92 124.59-37.938 61.03-31.279 115.14-79.992 145.88-141.955 9.58-19.314 16.14-39.544 22.76-59.989"/><path fill="#FDFCFB" d="M1331.4 222.432c29.04-1.8 59.07-.405 88.02 2.269 108.29 10.003 207.94 45.959 291.13 117.093-52.97-5.944-95.54-25.841-145.01-43.559-43.19-15.47-88.3-27.207-134.07-31.479-17.62-1.645-97.84-3.508-108.12 5.021-1.08 2.736-.93 3.113-.33 6.028 1.82 1.804 2.29 1.697 4.96 1.689 14.12-.045 28.81-2.76 43.02-3.501 34.64-1.806 70.31 1.156 104.36 7.73 35.18 6.794 70.51 17.839 103.96 30.582 22.03 8.391 43.44 18.314 66.1 24.976 19.73 5.8 39.45 8.943 59.78 11.764-44.02 6.694-95.36-4.721-139.38-9.719-45.84-5.205-92.56-8.326-138.68-6.692a775.6 775.6 0 0 0-162.44 22.864c-6.58 1.64-21.99 4.28-26.14 9.446-.97 1.211-.53 2.322-.46 3.779l1.9 1.69c8.04 1.636 46.57-10.067 58.55-12.468 36.79-7.374 72.75-12.063 110.17-14.605a740.6 740.6 0 0 1 124.73 2.833c58.24 5.722 138.71 24.111 194.44 9.023 3.71 3.828 6.5 7.9 9.41 12.321-14.72 13.33-33.6 23.376-52.01 30.534-35.34 12.579-72.01 17.579-108.78 23.999-51.66 9.02-99.04 24.252-143.81 51.98-16.54 10.244-35.34 22.075-49.11 35.799-3.18 3.164-5.64 5.781-5.63 10.406l1.9 1.559c9.49.008 23.54-16.882 31.82-22.475 19.19-12.979 39.2-25.419 60.18-35.273 32.34-15.19 65.55-24.003 100.5-30.723 59.24-11.393 111.05-15.144 162.78-49.904-4.85 24.926-8.3 44.24-18.23 68.264-31.85 77.059-90.23 137.243-164.63 174.16-18.81 9.334-38.55 15.804-57.86 23.905-4.93-6.629-10.3-12.548-17.57-16.664-13.09-7.417-29.81-7.168-43.97-3.079-23.21 6.702-41.64 22.668-53.29 43.448-26.16-10.191-51.13-21.829-74.48-37.575-33.19-22.376-61.23-50.411-87.33-80.56-42.67-49.293-75.02-100.778-98.91-161.499-6.71-17.046-13.23-34.046-18.08-51.729-5.53-20.209-9.05-40.71-13.03-61.253 13.08-8.307 28.87-14.41 43.24-20.193 65-26.157 130.62-37.154 200.4-40.212"/><path fill="#FDFCFB" d="M1078.79 339.822c2.84 3.27 6.45 23.604 8.01 29.252 6.41 23.277 15.91 45.383 25.76 67.379 36.58 81.642 110.51 172.966 185.88 220.99 22.88 14.572 46.72 24.97 72 34.623-3.5 6.632-6.51 13.311-9.04 20.376-3.47 9.688-9.97 33.175-5.54 42.606 2.29 1.437 2.7 1.456 5.42 1.483 2.94-2.001 11.88-36.423 14.27-42.34 9.47-23.439 26.71-48.459 50.89-58.38 12.6-5.166 25.33-9.532 38.49-3.648 10.24 4.577 16.26 13.532 19.92 23.809 13.24 37.154 1.53 92.688-14.99 127.115-12.33 25.704-35.34 55.253-63.52 64.419-19.36 6.3-23.77-.219-38.92-7.841-2.52.184-2.4.137-4.14 1.969-.44 1.71-.9 3.279-.76 5.064.27 3.379 1.66 5.669 4.24 7.846 9.63 8.145 23.98 11.262 36.27 9.729 29.3-3.655 49.82-26.198 66.93-48.071 17.51 31.652 33.81 63.99 51.46 95.528 12.82 22.911 28.14 45.602 39.3 69.33 6.77 14.39 11.57 30.05 17.2 44.94 7.5 19.82 15.81 39.43 22.41 59.57a2014 2014 0 0 0-173.66 80.06c-51.94 26.4-103.53 53.99-152.33 85.91.72-18.52.11-36.26-2.12-54.67-2.66-15.68-6.43-31.43-12.55-46.15-12.68-30.46-34.41-44.95-63.93-57.14 44.08-18.63 89.73-40.13 124.84-73.42A197.53 197.53 0 0 0 1378.23 933c1.23-6.568 2.79-13.412 2.89-20.106.01-.498 0-.996 0-1.493.01-3.012.28-5.195-1.61-7.743-1.11-.495-1.7-1.16-2.92-.619-2.63 1.171-4.36 4.263-5.55 6.762-2.82 5.897-4.28 12.611-6.23 18.836-3.8 12.135-8.17 24.89-14.11 36.161-33.26 63.182-82.62 96.152-146.32 123.262-20.23 8.61-40.89 16.79-61.88 23.38-36.15 11.36-77.82 17.79-112.82-.77-39.547-20.97-19.09-62.42-34.193-95.84-7.836-17.341-26.384-27.476-31.789-45.533 1.716-8.041 3.277-16.055 4.571-24.174a156 156 0 0 0 8.197 2.136c21.745 4.928 46.154 3.006 65.284-9.758 2.71-1.806 4.28-3.406 4.89-6.729-.9-2.639-1.04-2.891-3.24-4.599-4.71-.854-13.16 4.228-17.88 5.945-16.23 5.893-39.745 7.893-55.655.1-8.45-4.138-11.547-10.007-14.547-18.421 1.586-11.92 7.518-22.827 6.758-35.079-2.52-40.634-62.584-60.473-64.258-97.146-.171-3.749.35-6.953 3.18-9.681 3.758-3.622 12.629-6.07 17.533-8.227 20.664-9.089 42.819-19.726 57.984-36.959 35.365-40.183 18.228-97.867 15.5-145.556-3.239-56.601 6.949-119.461 34.115-169.57 14.48-26.702 32.54-49.24 52.66-71.757"/><path fill="#6A3C8D" d="M939.717 798.387c8.397.515 18.955 7.469 26.179 11.821 6.44 3.88 14.412 8.557 16.357 16.278-.348 3.232-1.023 4.308-2.932 6.783-10.586-2.8-21.628-10.105-31.09-15.637-4.008-2.344-11.054-6.757-11.563-11.949-.328-3.356 1.253-4.814 3.049-7.296m112.343-162.86c2.26.031 3.88.356 6.03 1.075 3.02 5.942-4.25 23.23-5.13 30.671-1.42 12.131-.04 24.811.68 36.965 10.88-.246 22.05-1.312 32.57-4.173 7.85-2.135 16.4-6.741 24.51-6.976 2.31-.067 3.47-.001 5.13 1.702-.33 1.907-.04 1.252-1.22 3.109-7.51 11.875-29.18 17.683-42.22 19.938.49 4.31.17 8.319-.17 12.616-1.19 4.51-2.56 8.602-5.19 12.511-2.74 4.068-6.54 8.424-11.81 8.792-3.74.261-7.32-1.704-9.85-4.316-7.6-7.859-6.68-18.637-6.47-28.675-7.92-2.853-15.73-6.112-20.89-13.1-1.94-2.625-2.41-4.509-1.91-7.684l2.22-1.58c8.33-1.141 14.53 2.622 21.96 5.935-.3-23.377.6-45.741 11.76-66.81m8.83-99.097c4.04.035 8.06.251 12.06.858 24.01 3.64 43.82 22.428 57.43 41.401 4.57 6.373 14.05 20.472 12.8 28.45l-2.42 1.233c-7.31-1.986-20.75-16.201-27.84-21.216-16.87-9.66-39.36-19.528-59.29-13.366-7.17 2.216-13.91 6.595-21.28 8.088-2.96.599-6.19.442-8.61-1.577-3.61-3.01-4.86-8.559-5.24-12.998-.63-7.452.03-16.947 5.25-22.818 7.87-8.84 26.2-7.471 37.14-8.055m377.8 136.514c1.74-.09 3.56-.207 5.3.004 5.03.612 9.8 4.919 12.47 8.968 7.06 10.713 10.46 33.363 7.59 45.786-.83 3.625-1.97 5.86-5.14 7.844l-1.77-.612c-5.59-5.631-3.94-24.519-5.92-32.978-1.34-5.67-3.99-16.298-9.54-18.993-2.2-1.071-4.3-.55-6.43.376-9.13 3.959-14.96 14.803-18.65 23.352 3.67 1.944 7.49 3.823 10.43 6.836 13.86 14.221 14.34 36.28 14.16 54.824a72.9 72.9 0 0 1-3.99 21.609c-3.99 11.718-11.54 22.341-22.96 27.732-4.09 1.927-8.82 3.018-13.16 1.262-4.63-1.87-7.8-6.35-9.76-10.756-9.09-20.378 5.6-79.063 14.1-99.664 7.06-17.107 15.97-28.284 33.27-35.59"/><path fill="#FDFCFB" d="M1413.4 714.638c2.37 1.404 4.44 3.627 6.19 5.731 11.27 13.593 12.23 38.73 10.07 55.567-1.57 12.217-5.39 21.766-15.31 29.387-2.28.859-5.2 2.068-7.66 1.465-2.39-.587-4.16-2.624-5.19-4.757-6.42-13.333 7.02-71.917 11.9-87.393M559.68 540.005c3.017.577 5.288 1.025 7.757 3.047 2.709 2.218 4.237 6.504 5.136 9.743 2.642 9.512 4.073 19.468 6.661 29.068l65.948 252.935a17397 17397 0 0 1 80.514 313.552c9.907 40.23 21.098 80.12 31.259 120.27 4.786 18.91 8.781 38.03 13.319 57.01 4.902 20.49 12.197 40.87 15.197 61.75-9.504 8.27-24.64 13.21-36.095 18.52-24.748 11.48-50.324 22.19-74.149 35.5-11.936-4.88-24.203-10.52-37.405-10.07-6.922.24-13.877 2.35-18.481 7.78-6.908 8.16-5.096 18.61-4.001 28.32-47.653 24.24-96.724 46.46-145.15 69.14-30.18 14.14-60.071 29-90.149 43.38-4.597 2.19-9.408 4.09-14.086 6.11-5.849-13.11-8.122-28.42-11.846-42.31l-26.231-98.68a35567 35567 0 0 1-108.932-424.96c-6.314-25.517-13.396-50.815-19.806-76.302-7.867-31.282-15.044-62.759-23.447-93.904-5.709-21.158-11.075-42.442-17.001-63.535-3.474-12.364-7.942-24.742-10.698-37.26-.894-4.06-1.882-9.286-.388-13.301 2.952-7.934 63.871-32.936 75.286-38.036 113.187-50.57 223.93-106.49 336.788-157.767"/><path fill="#6A3C8D" d="M522.766 774.774c3.239.426 7.786 1.756 9.86 4.49 1.67 2.203 1.454 2.897 1.021 5.405-5.133 6.826-106.422 53.826-119.418 59.67-.465.109-.919.28-1.395.326-2.397.23-4.369-.183-6.174-1.879-1.93-1.814-2.201-3.806-2.167-6.286.56-1.409 1.067-2.681 2.284-3.671 9.324-7.59 24.011-12.872 34.883-18.082 25.729-12.329 56.607-25.859 81.106-39.973m104.862 372.176c1.194-.16 2.563-.42 3.779-.23 2.775.45 4.42 1.24 6.017 3.44.104 1.43.097 2.63-.527 3.98-1.731 3.73-6.275 6.96-9.701 9.02-9.2 5.56-20.613 9.81-30.421 14.52a2742 2742 0 0 1-87.429 40.47c-2.545.02-5.146.28-7.144-1.66-1.809-1.76-2.278-3.51-2.429-5.92 1.357-3.67 4.12-5.83 7.371-7.83 13.414-8.28 29.876-13.73 44.323-20.24 25.489-11.5 50.745-23.82 76.161-35.55m-44.637-192.045c1.792.867 3.65 2.017 4.861 3.662 1.638 2.225 1.402 4.036 1.139 6.621-1.465 2.46-3.482 3.474-5.881 4.805-15.254 8.467-31.86 15.231-47.597 22.815-25.833 12.452-51.447 25.592-77.773 36.972-3.73-1.11-4.664-1.95-6.832-5.09-.198-1.86-.588-2.8.218-4.58 1.18-2.6 2.655-3.7 4.99-5.15 12.47-7.78 27.12-13.3 40.391-19.752 28.592-13.907 57.075-28.168 86.484-40.303m100.752 379.915c1.765-.13 4.586-.41 6.257.13 1.707.57 2.735 1.26 3.529 2.84.879 1.74 1.593 4.41.714 6.3-3.503 7.52-117.084 58.04-134.862 66.07l-3.372.77c-3.089-.91-3.63-1.23-5.89-3.52-.493-1.87-1.145-3.02-.595-4.95.795-2.79 2.3-4.35 4.684-5.84 11.003-6.87 24.767-11.77 36.61-17.19 30.995-14.19 63.339-27.67 92.925-44.61M563.738 695.953c2.818.159 6.081.753 7.768 3.325 1.318 2.011 1.728 3.903.818 6.176-1.189 2.97-5.101 5.175-7.728 6.681-14.117 8.088-29.675 14.226-44.368 21.26-17.776 8.51-35.366 17.413-53.243 25.714-24.711 11.476-49.533 22.326-73.723 34.923-2.117-.218-3.927-.841-5.71-2.051-2.128-1.445-2.784-3.183-3.354-5.543 1.263-3.475 2.252-4.565 5.385-6.503 15.066-9.322 33.016-15.978 49.035-23.707 41.682-20.112 83.795-39.448 125.12-60.275m151.159 565.067c1.17-.05 2.912-.26 4.105-.02 1.912.4 4.926 2.39 5.968 4.14 1.374 2.31.838 3.05.079 5.41-2.683 2.71-5.347 4.72-8.735 6.5-27.448 14.38-56.693 26.5-84.72 39.73-28.798 13.6-57.756 29.01-87.28 40.82-.924.15-1.91.35-2.851.3-2.195-.12-3.913-2.06-5.011-3.78-1.494-2.33-1.134-4.36-.667-6.89 4.194-5.25 159.4-76.57 179.112-86.21m-42.846-194.07c2.064-.21 3.99-.15 5.977.51 2.514.84 2.843.98 4.047 3.18-.015 1.98-.1 3.23-1.056 5.03-1.939 3.64-7.06 7.32-10.568 9.33-6.752 3.86-15.021 6.49-22.137 9.85a3785 3785 0 0 1-67.461 31.08c-28.387 12.73-56.421 27.69-85.624 38.42-.669.14-1.578.37-2.25.36-2.131-.04-4.608-1.34-5.803-3.14-1.597-2.41-1.142-3.39-.525-5.96 2.638-3.22 5.727-5.32 9.367-7.27 16.821-9.04 35.556-16.07 53.023-23.95 41.176-18.58 82.756-36.95 123.01-57.44M618.84 875.82c.291.036.588.04.873.108 3.329.8 5.395 3.351 7.147 6.082.132 1.384.595 2.882-.058 4.181-1.677 3.34-6.513 5.527-9.71 7.289-11.732 6.468-24.341 11.77-36.467 17.485l-56.296 26.597c-26.621 12.361-53.534 26.607-81.099 36.652-3.454-.479-5.19-1.772-7.387-4.267-.351-1.611-.875-2.531-.245-4.14 1.037-2.648 2.805-3.992 5.139-5.434 16.722-10.332 36.691-17.623 54.518-26.062zm-184.369 274.31c2.738.02 5.746.51 8.351 1.37 2.658.87 4.423 2.45 5.585 4.99 5.758 12.58 8.509 27.51 12.574 40.76 5.747 18.74 16.487 47.26 19.568 65.68.421 2.52-.187 5.03-1.246 7.32-1.207 2.62-3.171 4.06-5.544 5.55-9.553 6.02-21.205 10.27-31.506 15.01-20.26 9.32-40.358 19.12-61.188 27.11-2.942.13-7.169 0-9.778-1.55-2.533-1.51-3.818-4.61-4.918-7.19-6.647-15.62-10.739-32.89-15.423-49.21a1423 1423 0 0 0-16.738-54.38 89 89 0 0 1 1.77-4.34c1.347-3.1 2.582-5.66 5.341-7.72 11.693-8.72 76.543-36.92 93.152-43.4"/><path fill="#FDFCFB" d="M435.068 1166.06c2.947 2.13 28.193 86.74 31.072 97.31-22.257 13.01-61.419 30.44-85.86 40.17-3.52-3.01-27.563-87.42-31.404-98.7 27.491-14.31 57.004-28.34 86.192-38.78"/><path fill="#6A3C8D" d="M489.041 1336.08c.376.01.753 0 1.128.03 3.788.34 9.551 1.86 11.635 5.4 3.713 6.29 5.098 17.77 7.262 24.98 7.681 25.62 16.62 51.22 23.141 77.13.718 2.86 2.406 7.89 1.156 10.64-1.511 3.34-5.265 5.39-8.334 7.12-11.054 6.23-23.387 10.92-34.967 16.15a1712 1712 0 0 0-58.603 27.38c-2.517.72-4.363.88-6.927.11-2.991-.9-5.395-3.66-6.599-6.39-7.219-16.35-10.989-36.11-15.771-53.37-4.328-15.62-9.888-31.51-13.196-47.33-.715-3.43-2.189-9.15-.656-12.33 2.068-4.29 7.733-7.97 11.667-10.32 14.867-8.91 74.115-35.48 89.064-39.2"/><path fill="#FDFCFB" d="M488.347 1350.87c.596.37 1.396.53 1.788 1.12 3.291 4.9 25.368 85.65 28.258 96.44-27.827 15.58-58.358 26.4-86.931 40.61-.172-.07-.367-.1-.515-.22-2.276-1.72-2.914-4.98-3.754-7.65-5.219-16.58-9.116-33.76-13.792-50.51-3.794-13.59-8.414-26.9-12.421-40.43a3353 3353 0 0 1 87.367-39.36"/><path fill="#6A3C8D" d="M333.595 778.965c6.146.168 12.029 1.237 16.298 6.067 4.681 5.296 28.858 91.389 31.29 103.362.962 4.741 1.457 9.38.867 14.203-10.32 11.551-82.503 42.286-101.031 49.353-2.841.602-6.006 1.327-8.912.952-2.867-.371-6.247-2.024-7.949-4.409-4.316-6.05-32.915-109.817-31.605-116.759 2.017-3.342 4.002-5.424 7.281-7.586 9.88-6.517 21.991-11.363 32.69-16.44z"/><path fill="#FDFCFB" d="M332.658 794.1c2.115.341 4.429.494 6.236 1.73 2.967 2.029 26.313 89.504 28.968 101.199-29.534 12.384-58.461 26.824-87.539 40.297l-3.365 1.312c-.449-.266-.995-.414-1.349-.799-2.071-2.259-26.229-89.53-30.312-101.512 26.221-15.407 62.927-25.295 87.361-42.227"/><path fill="#6A3C8D" d="M313.807 816.954c2-.012 4.186-.136 6.161.184 2.63.426 3.469 1.541 4.807 3.659.443 12.834-3.933 31.234-5.515 44.398-1.541 12.818-1.614 25.913-3.569 38.649-.494 3.218-1.127 5.994-2.763 8.831l-2.685.501c-8.129-2.587-14.704-12.466-20.271-18.749-3.929-3.835-9.898-8.342-12.336-13.24-1.523-3.058-1.18-5.065-.235-8.223 1.199-1.074 1.638-1.992 3.362-2.015 6.919-.091 17.243 12.129 21.959 16.602 2.983-18.41 2.117-55.935 11.085-70.597m72.551 146.069a71 71 0 0 1 3.901.904c4.465 1.202 8.875 3.462 11.075 7.731 7.244 14.059 11.264 34.252 16.023 49.742 4.994 16.26 11.457 32.99 14.967 49.6.823 3.9 2.583 12.55.566 15.98-4.927 8.35-89.13 44.97-103.441 51.8-2.506.49-5.301 1.09-7.819.41-2.912-.78-5.244-3.1-6.562-5.74-7.613-15.27-13.867-44.63-18.564-61.81-4.047-14.79-9.405-30.32-11.998-45.4-.725-4.22-1.554-10.04.141-14.08 3.401-8.12 90.567-45.791 101.711-49.137"/><path fill="#FDFCFB" d="M382.643 976.812c2.13-.108 3.413.038 5.414.781 7.476 11.678 28.505 87.287 31.763 103.077-29.272 13.88-59.448 26.53-88.223 41.34l-3.657 1.71c-4.134-3.35-27.05-91.9-30.039-104.52 28.571-13.07 57.4-26.911 84.742-42.388"/><path fill="#6A3C8D" d="M362.231 999.937c1.81-.111 4.502-.491 6.223.063 2.604.85 3.932 1.94 5.082 4.42 2.522 5.45-2.366 65.3-3.776 74.3-.552 3.53-1.501 7.16-3.18 10.34-1.523 2.88-3.055 4.08-6.125 4.98-9.314-2.44-18.76-15.2-26.099-21.6a296 296 0 0 1-7.118-5.84c-4.61-3.95-7.329-7.16-7.789-13.29.952-1.82.7-2.44 3.052-2.92 10.964-2.24 26.045 14.77 33.259 21.37.949-12.36 1.655-64.6 6.471-71.823"/><path fill="#C1ABD5" d="M260.76 597.53c40.821-100.791 113.71-198.85 192.657-272.96 86.259-80.973 198.479-142.09 310.19-179.763 29.961-10.104 60.249-17.978 90.91-25.561 76.457-18.909 156.473-30.515 235.413-27.937 139.99 4.573 261.37 33.301 386.46 97.502 14.76 7.574 49.3 23.859 60.43 35.749-14.35-3.72-28.55-8.362-43.1-11.238-82.1-16.217-189.35-16.907-271 .573a533 533 0 0 0-85.94 26.883c-17.74 7.113-37.75 14.494-54.03 24.472-4.94 3.025-8.33 5.691-9.75 11.499-3.28 13.437 1.8 29.964 3.51 43.426a313.05 313.05 0 0 0-103.815 211.398c-1.545 23.208-.253 47.057 2.069 70.179 4.353 43.362 14.901 88.704-22.322 121.269-7.924 6.933-17.1 12.341-26.577 16.859-14.581 6.951-47.752 14.738-48.918 34.65-1.446 24.685 20.163 45.271 35.685 61.847 11.746 12.545 30.455 27.502 29.615 46.216-.776 17.289-12.673 33.251.923 49.205 3.144 3.69 7.134 6.689 10.981 9.609-5.317 14.888-10.096 30.053-2.806 45.339 7.719 16.184 23.378 26.234 29.631 43.794 4.958 13.92 2.978 28.28 3.736 42.69 1.687 32.07 24.778 53.07 53.868 62.72 32.96 10.94 71.56 6.47 104.55-2.26 9.42-2.49 20.6-7.3 30.25-6.97 6.68.22 13.45 3.55 19.44 6.25 21.87 9.88 36.63 22.58 47.61 44.31 15.91 31.49 15.38 71.61 13.65 106.13-10.96 5.91-27.69 11.89-35.7 21.15-9.26 10.71-15.82 26.51-22.56 38.98a2234 2234 0 0 1-36.79 66.56 3049 3049 0 0 1-28.4 47.43c-6.01 9.78-23.18 32.98-25.74 42.68-.67 2.56 0 4.83 1.45 6.99 1.79 2.64 4 4.65 6.47 6.62-33.86 50.37-64.1 104.56-91.51 158.68-5.32 10.49-32.394 66.39-37.013 70.29-12.157-8.93-37.38-126.7-42.317-146.92-4.717-19.33-10.107-38.5-15.137-57.74-4.027-15.41-6.209-35.11-14.944-48.6-7.978-12.32-61.884-53.85-77.192-67.88 5.912-12.6 7.493-24.2 5.29-37.88-4.061-25.21-11.294-50.56-17.389-75.37a11081 11081 0 0 0-39.857-155l-83.407-329.344-56.922-218.248c-6.505-25.079-12.457-50.287-19.165-75.317-2.677-9.989-4.928-20.623-8.458-30.329-4.823-13.257-16.73-26.005-29.695-31.658-15.527-6.769-29.565-5.613-44.997.645-32.898 13.34-64.857 29.895-97.044 44.904a10580 10580 0 0 1-99.591 45.282c-27.614 12.666-54.914 25.882-82.702 38.195"/></svg>