<svg xmlns="http://www.w3.org/2000/svg" style="display:block" viewBox="0 0 2048 2048"><path fill="#FEFEFE" d="M0 0h2048v2048H0z"/><path fill="#7B3A90" d="M333.621 1034.72c4.94.53 17.632 9.79 24.405 12.18 6.894-1.97 13.312-4.38 19.886-7.24-13.289 13.23-26.897 25.95-39.668 39.71-4.146 4.64-8.253 9.24-12.786 13.51l-.251-.93c9.211-13.83 19.335-27.11 29.122-40.54-7.641-4.91-14.527-9.99-20.708-16.69m-113.947 180.5c17.908-1.07 34.615 9.7 48.197 20.37-9.068 1.98-18.464 3.11-27.618 4.76-9.958 2.96-19.63 6.79-30.184 4.14-4.189-1.05-9.057-3.18-10.957-7.37-1.321-2.91-.642-6.19.832-8.88 4.134-7.56 11.967-10.67 19.73-13.02m64.904-97.4c1.266 12.76.704 25.54 2.6 38.31 5.442 36.64 25.416 74.23 46.856 104.08 8.672 12.07 20.683 22.78 27.926 35.58-5.033-2.45-11.015-10.25-15.128-14.38a824 824 0 0 1-44.544-49.09c-4.538 6.35-11.085 12.47-19.23 13.66-3.05.45-4.228-.57-6.441-2.34l.562-.97c3.613-.88 7.185-1.68 10.095-4.14 12.739-10.75 2.231-35.03-.821-47.94-1.754-7.42-2.737-15.11-3.35-22.7-1.354-16.78-.542-33.39 1.475-50.07m22.035-234.392a175.6 175.6 0 0 1 34.88 4.186c39.7 8.845 91.465 37.053 113.835 71.986-6.611-6.41-14.17-11.622-21.761-16.787-36.667-21.672-72.241-40.489-114.934-47.502-16.281-2.674-32.897-3.299-49.286-5.242 12.257-4.478 24.316-5.789 37.266-6.641M284.749 916.5c9.105-.3 18.229-.621 27.317.186 32.414 2.877 94.358 30.538 115.193 55.343 7.188-3.141 14.253-6.308 21.835-8.409-18.214 11.622-36.245 23.182-55.488 33.07-14.245 7.28-29.305 15.06-44.766 19.33-16.34 4.52-28.719 3.41-43.523-5.06 9.844-1.43 18.67-2 28.205-5.29-2.787-3.64-6.054-7.458-8.096-11.566-8.261-16.617-4.347-34.966-17.476-51.267-8.051-9.995-28.696-12.138-34.344-23.146l.655-1.893c3.215-1.76 6.927-1.332 10.488-1.298"/><path fill="#FEFEFE" d="M362.261 953.989c15.981 3.33 37.837 12.335 53.352 18.38-10.599 10.089-25.351 16.424-38.271 23.01-12.928 6.051-23.108 9.591-37.505 10.171 8.928-6.377 20.551-11.439 25.997-21.493 6.053-11.174.007-17.905-3.049-28.221-.182-.613-.35-1.231-.524-1.847"/><path fill="#7B3A90" d="M955.566 1308.46c7.946 13.48 4.722 58.9 2.147 74.57-9.47 57.63-46.784 110.76-93.72 144.34-62.879 44.99-145.32 57.81-220.678 45.43-4.853-.77-9.595-2.2-14.337-3.47 86.367-1.14 184.211-32.6 248.562-91.51 52.321-47.89 74.909-99.29 78.026-169.36m98.134-390.091c17.18-.908 32.66 2.213 47.98 10.204 25.63 13.377 45.55 38.035 54.19 65.509 11.12 35.328 5.5 71.718-11.38 104.178-19.23 36.96-55.26 71.35-95.4 83.96 32.24-18.24 58.85-40.64 77.94-72.92 17.2-29.08 25.44-67.14 16.74-100.32-5.97-22.763-21.14-44.321-41.66-56.159-15.48-8.927-31.41-9.692-48.35-5.124-20.52 7.126-31.75 15.886-44.1 33.741 20-3.105 37.64-2.351 55.31 8.403a79 79 0 0 1 36.47 49.739c6.1 26.28-.68 55.24-14.83 77.81-3.69 5.88-7.98 11.7-13.27 16.24-7.98 6.84-18.62 11.72-27.47 17.45-9.05 5.85-17.72 12.84-27.22 17.9-4.65 2.48-9.61 4.46-14.78 5.53-8.039 1.67-18.832 1.98-25.898-2.91-6.341-4.38-9.207-12.36-10.252-19.7-3.183-22.38 23.752-32.95 34.77-47.89 2.25-3.05 2.95-6.18 2.01-9.93-1.47-5.91-7.328-12.08-11.036-16.9-11.968-15.54-20.741-32.12-22.972-51.9a99.16 99.16 0 0 1 21.136-72.402c15.832-19.851 36.842-31.554 62.072-34.509"/><path fill="#FEFEFE" d="M1030.27 998.397c6.08.299 12 .869 17.83 2.733 16.67 5.32 29.52 18.34 37.11 33.81a70.76 70.76 0 0 1 3.65 54.03c-11.67 33.72-45 46.35-74.61 60.62-4.86 2.44-10.48 5.47-15.791 6.74-2.762.65-6.077.76-8.419-1.1-1.756-1.39-2.998-4.13-2.957-6.37.205-11.23 22.527-22.13 29.157-30.86 19.15-25.23-16.724-51.9-20.643-81.41-1.143-8.61-.556-18.01 5.233-24.94 7.22-8.64 18.71-11.99 29.44-13.253"/><path fill="#7B3A90" d="M996.306 79.445a996 996 0 0 1 113.674 3.45c116.99 9.692 252.04 43.304 357.94 95.332a874.4 874.4 0 0 1 276.12 215.77 790.94 790.94 0 0 1 183.49 583.331c-9.9 115.292-49.49 224.542-107.37 324.152-19.74 33.97-41.64 67.47-66.43 97.99-26.66 32.82-56.21 64.72-87.44 93.25-14.97 13.69-30.91 26.51-46.42 39.58 9.47 29.77 23.52 59.24 37.34 87.19a1046.2 1046.2 0 0 0 202.38 282.63c19.95 19.88 40.42 39.53 62.38 57.19-3.9 2.63-8.03 4.62-12.25 6.67-28.24-25.93-56.91-50.49-83.45-78.29-14.83-15.55-28.48-32.23-42.21-48.76-73.42-88.41-136.73-188.62-174.4-297.72-53.43 41.29-111.17 80.55-170.11 113.52-57.84 32.35-118.24 60.05-175.07 94.19-86.06 51.7-163.43 124.93-206 217.03l-14.83.07c37.73-79.49 89.08-136.98 158.65-189.87 17.44-13.26 34.95-26.42 53.71-37.78 43.95-26.61 90.57-48.61 136.1-72.24 20.76-10.77 41.28-22.43 61.64-33.96 57.68-32.67 120.76-77.82 171.66-120.29 44.81-37.39 87.26-80.24 123.08-126.35 85.54-110.09 152.26-255.8 164.97-395.415-5.47 12.155-10.21 24.645-15.73 36.785-14 30.77-29.88 61.92-46.64 91.28-43.7 76.55-119.04 168.83-183.51 228.21-49.8 45.88-105.18 88.05-162 124.8-69.94 45.24-143.5 84.89-213.56 130-16 10.31-31.48 21.55-47.04 32.5-126.33 88.95-217.58 187.52-277.033 332.06-4.264.12-8.572-.34-12.827-.63 43.588-135.34 131.67-243.66 245.81-327.04 63.06-46.06 130.44-85.9 193.27-132.4 171.64-127.05 322.07-297.07 386.57-503.97 59.19-189.863 33.38-390.634-58.37-565.469-23.02-43.86-64.59-112.674-101.41-145.443-25.96-23.1-57.98-42.558-87.49-60.747-25.48-15.71-53-33.63-81.75-42.603 11.22 30.831 30.94 45.041 53.07 67.208 9.64 9.664 18.24 20.577 26.12 31.708 31.5 44.5 64.44 104.425 89.15 153.308 63.54 125.65 89.41 283.097 71.24 422.581-6.61 50.745-19.4 99.956-35.37 148.487-59.77 180.38-182.83 330.57-337.11 439.41-48.65 34.32-102.42 60.22-151.37 94.29-114.03 79.38-203.174 196-257.158 323.36-13.524 31.91-23.897 65.12-34.366 98.12l-12.813.2c4.48-19.65 10.791-38.77 17.302-57.82 50.621-148.07 157.655-293.9 288.845-380.71a1149 1149 0 0 1 56.01-34.79c11.85-6.87 24.15-13.09 35.81-20.28a1057 1057 0 0 0 152.08-115.75c15.85-14.3 32.32-28.8 46.16-45.1-45.86-4.68-92.82-17.48-133.97-38.42-72.72-37.01-108.42-100.26-132.77-174.82-9.6 19.75-19.75 38.54-32.16 56.7-15.16 22.18-32.3 42.98-49.25 63.8-13.72 16.85-27.39 35.34-44.16 49.23-9.79 8.12-21.29 15.15-33.96 17.43-16.8 3.02-32.76-1.39-46.529-11.24-29.128-20.84-44.187-57-50.111-91.2 11.851 30.86 25.092 59.21 55.065 76.44 12.845 7.39 29.395 11.5 43.915 7.11 8.28-2.5 15.67-7.63 22.03-13.38 12.63-11.41 23.2-25.71 33.85-38.95 25.33-31.51 51.83-64.54 70.93-100.32 22.18-41.56 29.64-92.03 15.69-137.493-9.99-32.598-31.25-61.881-61.94-77.797-27.14-14.073-63.37-15.066-92.21-5.908-38.855 12.337-57.961 32.378-76.201 67.912-20.84 1.661-42.609.024-63.373-1.951-82.257-7.827-160.775-34.113-225.554-86.699-43.257-35.115-79.9-75.914-124.895-109.586-82.276-61.572-167.861-95.96-272.139-80.944-18.061 52.006-49.618 109.864-42.03 166.36a84 84 0 0 1 4.878-7.515c10.816-14.672 33.813-21.714 51.066-24.078 85.024-11.65 162.874 48.396 226.662 96.531-12.715-5.017-24.862-12.344-37.404-17.96-35.63-15.953-73.501-27.992-112.264-33.105-17.572-2.318-35.028-3.655-52.756-2.242-18.442 1.47-48.032 11.332-64.306 9.121-3.692-.501-7.389-2.156-10.836-3.526 7.751 18.244 17.945 34.92 27.427 52.269 9.187 16.81 15.645 36.063 14.422 55.432-4.487 71.059-106.933 159.649-127.499 233.039-2.083 7.43-2.88 16.11 1.307 23.02 9.686 15.97 34.512 19.32 51.09 23.6 13.857 3.58 29.416 7.02 41.544 14.85 47.169 30.46 12.329 93.98 20.792 106.81.194.3.421.57.624.86 2.796 3.95 6.041 6.71 10.26 9.12 26.102 14.89 75.896 15.21 102.167.89 6.02-3.28 10.909-14.45 17.538-15.17 1.59-.17 3.185.06 4.504.96 2.045 1.39 3.098 3.25 3.489 5.7.607 3.8-.665 7.77-2.945 10.81-10.922 14.53-84.594 25.54-103.658 28.62a134 134 0 0 0-2.461 4.92c-2.472 5.13-4.9 10.35-6.118 15.95-.652 3-.934 6.13-.537 9.19 2.185 16.8 27.173 25.98 30.08 58.28 3.267 36.3-19.278 76.83-11.867 112.04 2.426 11.52 11.336 20.03 20.757 26.35 57.548 38.6 129.625 8.9 190.81-3.36 68.079-13.65 144.634-3.92 202.948 35.47 87.888 59.36 119.668 193.08 138.167 291-6.699.1-13.315-.12-20.003-.49-9.637-46.98-21.543-94.83-37.335-140.14-29.436-84.46-74.94-143.6-166.166-164.84-27.673-6.44-55.141-9.2-83.504-6.05-70.021 7.77-151.401 47.72-219.778 14.16-59.621-29.25-50.243-67.71-38.604-122.75 2.804-13.26 6.276-27.18 4.253-40.79-3.513-23.65-22.082-30.19-28.256-49.59-5.061-15.9 2.894-33.03 10.314-46.79-7.783-3.62-15.523-7.68-22.015-13.37-24.803-21.74-6.411-51.21-8.009-78.58-3.283-56.21-77.656-39.39-108.697-68.64-13.849-13.05-13.568-34.2-8.575-51.21 5.076-17.3 14.894-33.29 24.185-48.62 18.461-30.45 39.324-59.67 59-89.36 12.814-19.33 26.667-39.09 35.452-60.652 4.648-11.405 8.396-24.167 7.327-36.591-1.553-18.051-12.01-33.837-20.812-49.161-13.959-24.301-26.362-49.422-27.552-77.92-2.319-55.487 28.521-105.6 43.286-157.368 9.024-31.64 11.927-65.78 18.497-98.104 20.156-99.168 59.788-189.036 129.399-263.731 157.486-168.99 382.756-227.76 606.44-235.788"/><path fill="#FEFEFE" d="M906.606 102.494c1.154-.219 2.566-.069 3.747-.06-1.388 1.366-45.34 17.98-52.664 21.595-.811.486-1.777.54-2.698.717-.639-3.938 1.84-10.648 2.291-15.017l.125-1.275c16.224-3.118 32.752-4.56 49.199-5.96m165.574-3.98c27.29.256 55.86 1.771 82.58 7.467-6.24 3.771-12.69 7.446-18.68 11.604-10.39-3.332-25.58-5.812-35.54-.408-.26.137-.48.321-.72.481l-3.91 1.068c-6.12-.711-18.83-15.592-23.73-20.212m-8.78 253.904c4.9-.183 9.89.082 14.79.15-8.25 9.363-17.34 17.982-25.45 27.499-13.71 16.091-25.24 33.957-35.9 52.163a551 551 0 0 0-12.47-15.657c-8.824-10.775-19.31-20.66-29.061-30.601 1.91-6.15 4.027-12.043 6.541-17.973 26.86-7.887 53.52-13.85 81.55-15.581m235.05 87.575c1.92-1.216 2.4-1.912 4.75-1.423 19.02 3.971 83.62 58.149 100.96 72.803-24.26 7.772-48.62 18.295-70.11 31.994-7.31-6.302-13.66-9.972-22.97-12.596.41-31.099-3.91-60.924-12.63-90.778M984.54 732.641c6.015.662 12.511 2.98 18.37 4.57 22.63 6.141 44.48 14.533 66.9 21.333-23.05 16.799-51.1 29.93-77.53 40.465-18.825 7.193-37.529 12.303-57.342 15.878-2.257-9.122-5.212-16.88-9.877-25.053 21.39-17.902 40.361-36.941 59.479-57.193m230.32-445.495c.38.079.76.125 1.13.237 10.14 3.066 37.5 60.218 43.44 72.302-9.41 6.518-15.05 12.688-20.43 22.699-18.51-10.184-37.1-18.495-57.09-25.29a292.2 292.2 0 0 0-71.1-15.635c29.27-25.174 67.15-43.51 104.05-54.313m-38.77 408.637c3.45 1.844 7.17 9.609 9.32 13.11 19.79 32.286 39.01 71.694 50.99 107.669-4.35 2.078-8.36 4.732-12.44 7.301a2343 2343 0 0 1-36.48-22.747c-27.93-17.334-56.85-30.888-86.4-45.122 26.21-18.419 50.47-39.653 75.01-60.211M792.235 153.537c5.961 2.561 11.276 3.77 17.739 4.336.705 26.883-3.864 52.459-10.226 78.452-2.273-.838-4.564-1.646-6.917-2.232-10.954-2.73-23.375-.562-32.919 5.411-11.494 7.193-17.134 17.985-20.156 30.769-31.022.009-58.684 5.115-88.788 11.864 25.31-42.271 97.307-107.641 141.267-128.6M427.954 452.774c5.662 4.47 11.375 5.78 18.232 7.46 1.022 14.023.404 28.15 1.541 42.197 3.269 40.379 13.593 76.748 27.4 114.658a1130 1130 0 0 1-42.974-14.049c-15.484-5.257-30.637-12.135-45.768-18.341.975-5.198 2.128-10.495 2.464-15.779 1.006-15.796-5.012-27.925-15.184-39.42 13.763-26.785 34.928-53.595 54.289-76.726m436.592-80.457c21.284-1.793 39.361 2.624 59.551 8.729-49.822 33.886-94.54 77.094-134.209 122.259-8.884 9.726-17.543 19.673-26.283 29.529a66 66 0 0 1-1.674-6.826c-6.276-34.887 2.768-73.821 23.473-102.51 18.833-26.095 47.046-46.071 79.142-51.181M1087.4 765.163c6.88 2.887 13.78 7.358 20.56 10.699 37.35 18.4 68.85 37.592 104.4 59.22-2.9 5.499-5.31 11.037-7.63 16.797-24.74 1.092-48.82.75-73.51-1.178-44.3-6.756-87.7-19.329-127.2-40.904 29.57-11.94 56.67-27.376 83.38-44.634m81.48-656.336c11.78-.721 26.38 2.992 38.02 5.034 79.44 13.941 158.31 38.459 232.98 68.858 5.42 23.004 20.11 38.313 35.45 55.372-8.84 3.464-17.19 7.04-25.34 11.954a275 275 0 0 0-20.96-20.671c-54.95-47.899-137.02-78.271-209.41-84.582-18.81-1.64-37.39-1.135-56.19.157-5.2-9.939-9.72-17.279-19.55-23.234 8.57-3.956 16.77-8.277 25-12.888m118.94 1074.833c2.56 1.25 4.54 4.25 6.49 6.33a49.95 49.95 0 0 0 28.5 14.91c15.36 2.54 28.62-2.5 40.73-11.43 36.28 31.5 86.32 59.25 128.32 82.95-4.39 5.93-9.74 11.43-14.61 16.99-3.52 2.77-5.82 2.51-10.21 2.15-10.9-.9-21.88-3.23-32.62-5.23-64.05-11.92-126.79-38.44-169.9-88.82 8.2-5.32 15.69-11.73 23.3-17.85M1126.3 568.266c35.16-21.056 78.43-25.309 117.85-16.683 6.75 1.476 23.02 3.716 26.62 9.312a41.94 41.94 0 0 0 2.69 26.267c-31.83 22.97-62.58 57.458-92.47 83.941-19.15-28.063-38.95-54.865-60.7-80.963 1.2-2.908 2.28-5.879 3.4-8.818 1.41-4.106 1.86-8.777 2.61-13.056m523.72-15.421 1.51.521c5.83 11.606 8.47 30.561 11.39 43.381 19.42 85.221 24.72 159.797 17.42 246.761a722 722 0 0 0-20.99-25.566c-7.73-8.361-15.19-17.024-22.76-25.527 2.86-3.802 5.45-7.567 7.29-11.985a46.77 46.77 0 0 0-.21-36.358c-6.46-14.836-20.14-27.127-35.21-32.814 1.96-22.671 6.13-45.224 9.07-67.788a652 652 0 0 0 5.66-80.848c10.06-1.385 18.21-4.486 26.83-9.777m-461.6 130.501c11.78-10.127 22.92-21.503 34.35-32.07 19.71-18.221 40.38-36.554 58.65-56.173 5.63 4.862 11.05 8.145 18.15 10.524-1.16 74.594-11.92 139.879-39.29 209.621-1.8-.021-4.08.16-5.82-.245-.55-.13-1.08-.351-1.6-.586-3.32-1.504-9.9-24.496-11.62-29.217-12.98-35.675-31.99-70.195-52.82-101.854m-79.15-83.159c12.57 9.304 50.6 66.481 59.39 81.358-26.31 25.966-55.34 47.724-86.17 67.993-7.66-3.153-15.6-5.728-23.41-8.479-21.79-7.268-43.32-13.874-65.567-19.585 29.447-36.6 55.527-73.784 78.387-114.891 15.17 3.607 24.16 1.689 37.37-6.396"/><path fill="#FEFEFE" d="M1242.85 423.779c1.77 2.74 3.78 5.436 6.09 7.742 8.62 8.602 21.09 11.501 32.9 11.345 3.3 1.771 3.24 3.647 4.26 7.08 7.47 25.125 10.6 53.58 10.3 79.751-7.79 4.154-14.67 8.427-19.34 16.253l-3.23 4.399c-5.33.727-19.36-5.613-25.22-7.099-40.21-10.193-87.54-5.125-123.18 16.718-1.37-3.301-2.61-6.785-4.21-9.979-2.01-5.463-7.2-9.231-11.49-12.877 37.4-43.253 78.4-92.103 133.12-113.333m384.85 379.097c10.31 3.991 41.94 51.515 49.66 63.135-9.43 67.556-27.49 137.079-55.36 199.479-2.72 6.03-5.35 12.09-8.73 17.8-6.39-3.4-12.59-6.16-19.45-8.48-3.12-54.77-3.81-115.333-.07-169.968 2.1-30.67 7.05-61.08 8.81-91.777 9.62-2.226 16.76-4.958 25.14-10.189m-554.46-598.537c12.22 4.969 25.82 10.018 39.09 11.029 4.96.379 9.95-.65 14.9-.159 16.5 1.638 48.92 27.601 60.97 38.91 7.16 6.719 13.46 13.996 19.63 21.62-30.4 8.642-59.07 24.153-84.97 42.058-9.99 6.907-19.45 14.545-29.69 21.093-26.85-.092-58-.515-83.81 7.701-4.76.923-14.047 4.339-18.475 3.464l-.836-1.1c23.551-52.834 44.561-100.477 83.191-144.616m414.86 299.254c25.39-3.023 52.79-.587 78.16 1.583.02 9.54 1.19 18.492 5.34 27.228 8.17 17.195 22.31 24.836 39.36 30.631-2.15 48.542-7.8 97.24-12.19 145.63-7.23-.096-13.82.799-20.89 2.25l-7.42-16.205c-25.12-51.928-58.6-97.904-98.31-139.628-13.34-14.015-28.84-26.317-41.45-40.896l-1.05-1.231c19.34-4.534 38.74-7.022 58.45-9.362M955.047 378.871c4.339 2.19 8.438 6.59 12.151 9.766-12.732 40.361-26.081 80.349-47.86 116.883-19.914 33.408-50.024 66.262-89.215 75.87-15.798 3.872-27.54.599-41.101-7.56-10.754-7.803-16.512-17.314-22.138-29.096 15.871-16.086 30.328-33.386 45.747-49.874 41.677-44.565 87.924-87.777 142.416-115.989m-682.43 235.061c.808-15.789 5.786-32.591 9.334-47.963 16.731-72.495 44.013-138.74 88.541-198.749 27.659-37.274 59.186-68.702 95.28-97.739 9.205-7.405 20.862-18.512 32.873-20.301l-.476 1.176c-5.246 12.588-12.926 24.048-18.485 36.508-11.018 24.697-17.554 51.056-23.576 77.302-8.46-2.237-19.493 1.071-26.802 5.507-11.44 6.944-20.274 19.003-23.065 32.109-3.303 15.517 1.672 28.789 9.955 41.585a436 436 0 0 0-34.471 46.204c-6.797 10.639-12.855 21.963-20.03 32.318-13.34-4.663-25.788-5.576-38.992.55-12.295 5.704-22.558 16.42-26.761 29.404-3.932 12.146-1.122 21.708 2.194 33.564.211.755 1.389 3.768 1.313 4.52-.214 2.107-1.558 3.007-2.954 4.332-8.842 3.194-15.822 14.509-23.878 19.673"/><path fill="#FEFEFE" d="M1017.93 447.732c19.74 26.204 38.2 55.466 52.08 85.254-9.9 4.327-17 10.287-21 20.558-3 7.701-3.4 15.381-3.88 23.507-25.46 17.787-52.643 32.965-80.154 47.303-76.132 39.676-141.652 58.735-228.598 43.393-14.553-2.568-70.761-15.929-79.283-26.382.341-2.252.522-4.454.673-6.723 18.958-12.598 37.69-25.252 55.388-39.623 14.085 21.99 31.479 44.84 54.764 57.67 24.454 13.474 52.74 17.047 79.588 9.068 81.345-24.175 132.685-144.081 170.422-214.025"/><path fill="#FEFEFE" d="M972.963 394.797c14.62 12.573 26.846 29.701 40.007 43.948-8.57 17.155-18.424 33.835-27.392 50.814-20.726 39.235-40.299 79.203-69.795 112.826-22.35 25.477-54.775 53.248-90.251 55.269-29.163 1.662-54.712-10.357-76.118-29.46-11.868-11.332-21.626-24.071-30.539-37.807 14.47-12.491 28.102-25.759 42.237-38.605 13.388 16.989 16.992 30.496 40.411 37.154 19.82 5.635 40.9-.741 58.371-10.412 64.745-35.838 93.992-116.29 113.069-183.727m320.617 498.846c15.38 7.76 29.13 20.064 44.24 28.673 45.67 26.022 95.9 47.071 135.58 82.354-13.52 27.15-33.28 52.92-53.59 75.31-15.63 16.03-31.73 31.03-49.91 44.18-10.99-11.48-20.97-15.39-36.05-18.83 2.41-13.75-.99-30.64-3.21-44.45-8.83-54.81-22.97-107.302-46.39-157.723zm195.67-142.357a375 375 0 0 1 54.43 4.037c-.07 10.873 1.54 20.164 6.6 29.915 8.18 15.787 21.5 23.225 37.81 28.51-1.59 21.085-5.12 41.898-7.65 62.872-2.39 19.863-3.78 40.006-5.15 59.967-3.09 45.237-.99 91.073 1.12 136.313-6.28 1.12-11.91 2.37-17.88 4.69-1.64.95-3.03 1.98-4.96 2.14-1.73.13-4.72-4.66-5.82-6.18-22.02-30.24-36.14-45.88-63.83-71.04a725 725 0 0 0 5.98-13.415c32.87-76.289 29.6-161.463-.65-237.809m-394.88-398.127c42.88-2.375 103.79 22.062 142.44 40.21-.03 6.713-.21 13.353.95 19.99-50.17 21.045-97.94 64.786-129.85 108.751-2.24 3.05-4.54 6.047-6.44 9.322-7.56-1.081-15-2.136-22.62-.84-6.6-8.364-10.97-20.892-16.25-30.379-11.61-20.877-25.3-41.56-41-59.579 18.1-27.121 46.16-68.338 72.77-87.475m71.76-199.75a657 657 0 0 1 31.69-.631c83.97.638 186.89 42.404 245.68 102.296-4.72 4.533-8.88 9.206-12.99 14.311-8.58-2.166-17.23-4.097-25.85-6.132-59.01-10.717-124.41-9.313-182.06 8.103-21.02-29.107-52.99-52.492-85.04-68.006 5.56-2.914 10.87-6.441 15.43-10.781 11.8-11.244 13.01-23.837 13.14-39.16"/><path fill="#FEFEFE" d="M655.734 654.434c7.221 2.168 14.359 5.799 21.438 8.536 13.868 5.362 28.361 10.012 42.825 13.412 116.285 27.339 205.618-16.127 302.983-74.307 6.15-3.675 20.16-17.049 26.31-16.832l3.26 4.812c2.62 4.67 5.94 8.119 9.63 11.915-26.25 39.415-51.91 78.473-81.506 115.515-37.782-6.237-76.965-9.071-114.965-3.054-65.06 10.3-95.361 44.003-162.579 7.507-22.002-11.946-42.387-29.128-56.942-49.604l-.753-1.075c4.46-4.981 9.39-9.901 10.299-16.825m666.436-266.262c-.23-1.521-1.23-4.382-.17-5.554 6.84-7.517 57.48-8.616 68.04-8.26 78.77 2.655 136.74 40.806 189.01 96.627.27.969.58 1.791.53 2.802-6.97 4.522-9.92 16.106-12.19 23.675-29.51-7.002-73.92-4.72-104.13-.293-14.5 2.126-28.95 5.505-43.29 8.505-29.72-27.197-69.54-59.413-106.33-76.143 3.74-6.718 7.25-13.355 9.41-20.767 2.03-6.954 2.61-14.044-.88-20.592m-503.153-133.52a349.2 349.2 0 0 1 195.363-55.59c15.93.329 31.53 2.692 47.33 4.31a506 506 0 0 0-70.269 120.697c-2.931 7.16-7.425 16.327-8.581 23.94-.538 1.387-1.194 3.536-2.148 4.721-4.151 5.158-20.696 10.346-27.139 13.229a337.3 337.3 0 0 0-94.838-65.145c-10.618-4.977-22.702-8.48-32.906-13.846-1.515-.797-1.224-1.39-1.643-2.944 3.001-9.915-1.007-20.429-5.169-29.372m519.013 295.196c20.55-14.596 49.84-24.892 73.9-31.151 53 42.796 99.64 100.644 133.05 159.842 7.1 12.589 14.83 26.232 18.94 40.091-8.42 9.182-14.35 17.076-19.08 28.649-19.72-1.892-38.3-3.478-58.15-3.233-26.03-50.94-58.85-95.941-105.94-129.487a400 400 0 0 0-30.22-19.615c-4.27-2.495-10.09-4.567-13.92-7.515.93-1.612 1.73-3.156 2.37-4.909 3.96-10.805 3.8-22.185-.95-32.672"/><path fill="#FEFEFE" d="M1331.77 594.736c48.22 28.367 84.29 58.929 117.34 104.442 10.11 13.92 20.67 29.662 26.97 45.722-69.26 10.879-135.41 35.767-191.28 78.919-5.15-2.701-10.44-6.12-16.37-6.418 31.69-71.212 38.07-135.368 42.21-212.172 7.9-2.558 14.5-5.313 21.13-10.493M567.586 203.408c64.437-37.26 130.135-59.323 201.817-77.217 3.434 8.482 6.829 16.371 14.451 21.909-9.936 6.476-20.182 12.345-29.904 19.165-42.895 30.086-90.333 72.189-115.476 118.742-55.344 19.095-112.204 49.528-156.426 88.048-3.835-3.517-10.421-7.418-15.576-8.098 1.003-17.631 13.206-50.949 20.306-67.712 3-7.081 14.702-34.637 20.203-36.869l4.852 2.406c2.193 1.797 4.694 2.916 7.257 4.074 10.007 4.521 20.142 4.776 30.384.647 10.677-4.305 19.39-12.608 23.526-23.422 5.733-14.992.928-27.998-5.414-41.673m284.75-70.073c47.711-16.6 82.426-33.598 134.36-35.813 16.044-.685 32.054-.515 48.104-.243 8.15.138 17.48 1.18 25.51.153.56-.071 1.12-.155 1.67-.233 7.71 9.943 19.17 17.88 25.9 28.116-7.04 3.73-12.47 12.545-14.61 19.983-4.09 14.203-.82 28.628 5.67 41.544l-6.74 7.765c-72.306-14.14-141.972-4.937-209.433 24.344-17.659 7.665-34.598 17.034-51.577 26.079-2.193-1.452-3.653-3.685-5.251-5.736 9.956-16.068 11.663-62.862 11.919-82.288 15.483-4.111 25.869-9.689 34.478-23.671m-94.04 177.748c10.708 5.241 21.193 9.08 33.296 6.645 13.71-2.759 21.983-12.265 29.306-23.323 41.29 16.036 92.428 42.855 123.993 73.988-5.602 4.218-9.642 7.56-16.88 8.182-.497-.397-.968-.829-1.49-1.191-15.795-10.964-51.229-13.44-69.772-9.52-33.269 7.033-64.376 31.284-82.429 59.618-22.796 35.778-26.757 73.631-17.561 114.239-13.716 14.002-28.586 26.853-42.996 40.134a246.35 246.35 0 0 1-25.019-107.368c-.402-66.408 23.817-114.838 69.552-161.404m473.574-28.577c62.91-15.954 130.88-12.299 194.32-1.538-3 15.765-2.51 30.639 6.71 44.484a53.8 53.8 0 0 0 36.11 22.952c14.53 2.403 29.01-1.335 40.76-10.165 10.27-7.716 15.83-17.737 20.63-29.324 31.81 45.059 56.63 94.245 81.18 143.46-8.2 2.498-19.46 5.062-24.67 12.547-3.3.855-4.72-1.918-6.68-4.226-20.54-24.238-47.59-46.787-75.06-62.55-58.68-33.674-123.14-41.222-188.27-23.402-8.35-9.419-16.78-18.068-30.1-19.126-5.51-.437-10.72.54-16.06 1.739-8.69-28.039-24.23-49.984-38.87-74.851M495.536 633.434a647 647 0 0 0 88.706 12.875 156 156 0 0 0 1.766 5.211c3.933 10.885 10.924 20.63 21.807 25.353 11.093 4.815 20.881 2.505 31.621-1.549 2.169 3.456 4.375 6.888 6.912 10.089 31.523 39.786 84.162 68.463 135.739 59.902 25.659-4.259 50.108-13.922 76.106-17.67 37.591-5.419 73.635-3.19 111.182.989-11.744 13.24-24.128 25.261-37.291 37.076l-16.494 13.749c-8.649-5.851-17.676-10.737-28.099-12.483-14.715-2.464-31.173 2.438-43.156 11.157-14.009 10.192-19.653 24.61-22.192 41.029-41.275-5.804-81.449-10.399-121.219-23.871-64.086-21.711-132.21-59.331-175.123-112.657-12.188-15.144-21.701-31.82-30.265-49.2m984.854 376.036c23.48 18.54 48.77 51.98 66.16 76.16-4.43 5.16-8.47 10.46-11.24 16.71-5.23 11.76-5.82 24.22-1.11 36.29 6.3 16.09 18.67 23.56 33.62 30.27-18.02 35.42-43.66 69.81-69.88 99.59-7.35-3.5-14.4-7.82-21.49-11.84-37.35-20.52-71.97-45.01-107.65-68.17 3.73-4.99 6.9-10.34 8.88-16.27 4.58-13.7 2.84-28.84-3.49-41.66 45.45-29.12 79.7-74.95 106.2-121.08M623.946 305.134l2.119.604c-6.764 14.189-15.664 26.773-22.002 41.398-29.193 67.363-44.515 155.42-19.627 226.275 4.836 13.769 12.192 24.613 19.355 37.093-.922.219-1.128.221-2.094.722-8.894 4.61-13.242 14.583-16.48 23.462-13.118-1.371-26.317-1.78-39.434-3.349-19.155-2.291-37.828-6.23-56.679-10.282-23.189-48.884-32.709-105.867-31.656-159.666 10.893-1.487 20.305-4.042 29.006-11.202 10.728-8.829 16.729-21.864 17.756-35.596.957-12.796-2.99-22.19-11.267-31.705 5.677-6.589 14.143-12.174 21.206-17.32a488 488 0 0 1 109.797-60.434"/><path fill="#FEFEFE" d="M641.768 299.023c32.835-10.68 63.97-17.439 98.684-17.131 2.254 9.425 5.634 16.865 11.55 24.668-46.122 45.189-71.564 99.999-72.038 165.093-.295 40.521 10.597 77.201 27.74 113.512-17.576 13.409-35.153 26.714-53.695 38.781-6.811-9.335-15.562-18.042-27.477-20.033-4.228-.707-9.373-.55-13.369 1.134-1.783-.302-2.488-.348-3.723-1.731-24.703-27.664-29.611-86.45-28.098-122.303a360.1 360.1 0 0 1 40.105-150.836c5.372-10.485 11.514-23.11 20.321-31.154m831.982 453.376c1.78-.331 2.67-.285 4.38.274 3.78 4.754 6.03 10.937 7.94 16.656 5.22 15.63 10.44 31.99 13.54 48.17 11.3 58.902 4.76 125.46-22.03 179.399-31.23-23.36-64.52-42.788-98.73-61.398-27.06-15.334-55.81-30.097-80.87-48.55 2.64-7.314 5.11-14.714 5.66-22.524.98-14.07-3.96-24.244-12.84-34.636 55.92-37.725 115.34-67.894 182.95-77.391m210.67-403.693c7.42 3.282 14.61 12.809 20.12 18.755a880.6 880.6 0 0 1 102.85 138.001c65.94 108.159 106.1 242.745 109.88 369.441.65 21.808 2.46 47.639-2.83 68.891-10.47 42.044-30 82.816-49.41 121.336-28.36 56.27-56.66 98.77-94.92 148.34-24.74 32.05-50.56 63.65-78.8 92.7-72.4 74.45-159.26 136.04-247.78 189.74-20.01 12.58-40.78 24.16-61.4 35.73 12.41-10.61 26.07-19.64 38.78-29.87 31.06-24.99 62.19-50.58 91.67-77.4 23.27-21.16 45.25-44.08 66.76-67.03 121.38-129.53 205.62-273.97 237.13-450.131 21.85-122.171 6.71-255.883-35.16-372.366-22.09-61.465-59.77-132.888-96.89-186.137M296.495 594.259c2.531-.47 4.128-1.288 6.513-.144.66 1.598 1.34 4.241 2.555 5.418.416.191.836.376 1.249.574 4.028 1.923 7.457 5.5 11.17 7.999 10.397 6.997 25.173 7.995 36.924 4.357 10.847-3.358 19.713-10.377 26.802-19.08 29.926 17.608 65.001 26.766 98.198 36.159 11.89 21.994 23.07 44.966 38.616 64.667 44.848 56.835 127.143 101.147 196.128 121.623 34.693 10.297 72.893 18.205 109.214 18.258 5.006 16.683 13.015 30.447 29.146 38.827a59.23 59.23 0 0 0 45.448 3.589 54.55 54.55 0 0 0 32.462-29.146c2.279-4.911 3.507-10.23 4.834-15.456 19.419-5.37 38.661-10.986 57.642-17.762 15.884 8.017 31.734 16.192 48.334 22.655 50.44 19.635 107.99 28.231 161.95 23.002.34 15.597 5.9 29.735 17.44 40.525 9.72 9.085 22.08 13.399 35.33 12.74 4.98-.249 9.88-1.389 14.67-2.735 22.83 57.3 50.79 133.501 52.13 195.311-14.75 3.84-27.14 8.38-35.43 22.25-7.16 11.97-8.73 27.22-5.21 40.64a83 83 0 0 0 2.71 8.4 1578 1578 0 0 1-25.74 17.54c-23.67-35.49-48.67-88.59-56.9-130.61-2-10.23.12-21.53.52-31.87a238 238 0 0 0-.65-26.87c-5.12-63.926-45.26-121.806-110.47-134.542-37.72-7.365-82.43.706-114.401 22.242-19.527 13.153-32.795 29.509-43.831 50.059-76.905-1.581-150.763-15.405-218.28-53.531-48.289-27.269-81.291-65.758-122.215-101.409-67.535-58.834-139.689-107.685-228.911-125.338-32.123-6.355-65.828-8.19-97.861-.555.743-10.561 2.363-21.019 3.859-31.493l6.829-5.775-1.715-1.053c-1.418 1.268-2.573 2.27-4.314 3.059-.115-.266-.269-.519-.346-.798-.671-2.446.531-7.418 1.742-9.624.161-.293.379-.55.568-.826l-.587-1.604c8.056-5.164 15.036-16.479 23.878-19.673"/><path fill="#7B3A90" d="M296.495 594.259c2.531-.47 4.128-1.288 6.513-.144.66 1.598 1.34 4.241 2.555 5.418-7.919 9.711-18.537 17.448-28.294 25.245l-1.715-1.053c-1.418 1.268-2.573 2.27-4.314 3.059-.115-.266-.269-.519-.346-.798-.671-2.446.531-7.418 1.742-9.624.161-.293.379-.55.568-.826l-.587-1.604c8.056-5.164 15.036-16.479 23.878-19.673"/></svg>