<svg xmlns="http://www.w3.org/2000/svg" style="display:block" viewBox="0 0 2048 2048"><path fill="#FEFEFE" d="M0 0h2048v2048H0z"/><path fill="#5B326C" d="M1607.22 1355.2c2.36-.22 4.76-.46 7.13-.38 5.77.19 11.41 3.13 15.17 7.49a19.33 19.33 0 0 1 4.68 14.38c-.62 7.57-4.48 11.54-10.05 16.19 1.87 8.36 3.13 16.63 4.17 25.13 21.6-1.96 42.23.12 63.37 4.77 2.51-8.69 4.58-17.47 6.67-26.27-4.37-4.2-7.86-8.23-9.91-14.03-1.53-4.34-1.51-8.96.56-13.12 2.61-5.28 8-8.98 13.59-10.48 6.42-1.73 13.76-.84 19.37 2.82 4.48 2.93 7.33 7.39 8.24 12.65.91 5.3.38 12.28-3.06 16.65-4.44 5.65-11.4 7.56-18.21 8.11l-5.66 25.15c18.34 8.67 35.65 18.59 51.87 30.83l16.94-16.84c-.13-.26-.26-.52-.38-.77-2.67-5.47-3.64-12.46-1.39-18.28 1.66-4.3 5.09-7.36 9.24-9.22a24.3 24.3 0 0 1 19.45-.12c5.41 2.28 10.27 6.64 12.25 12.27 1.77 5.08.95 10.54-1.32 15.32-2.59 5.44-7.03 10.22-12.91 12.05-6.32 1.97-13.21.55-19.01-2.28-5 5.45-10.3 9.74-16.27 14.07 13.73 14.52 25.27 28.89 35.57 46.02 7.76-1.7 15.43-3.87 23.11-5.93 2.05-7.15 4.3-12.43 10.04-17.41 4.12-3.58 8.92-5.28 14.37-4.74 5.94.59 11.98 3.01 15.72 7.83 3.33 4.29 4.41 10.05 3.66 15.36a23.15 23.15 0 0 1-9.18 15.32c-4.26 3.19-9.75 4.94-15.07 4.04-6.81-1.14-10.37-4.42-14.43-9.73-7.4 2.2-14.74 4.7-22.1 7.07 9.77 23.16 15.24 44.45 15.66 69.65 7.23-.75 14.16-1.55 21.19-3.45 2.83-3.23 5.83-6.35 9.48-8.64 5.01-3.14 10.79-5.19 16.71-3.66 5.28 1.37 9.81 5.21 12.48 9.92a22.36 22.36 0 0 1 2.08 17.24c-1.53 5.34-4.91 10.02-9.88 12.62-5.05 2.64-12.05 3.55-17.46 1.5-7.26-2.75-11.62-9.54-14.46-16.38l-22 3.32c-.75 18.37-6.88 37.47-14.04 54.26l17.09 10.31c4.73-2.59 9.18-4.64 14.67-4.72 5.87-.08 11.53 1.98 15.56 6.33 4.08 4.42 6.32 10.27 5.94 16.31a20.85 20.85 0 0 1-7.06 14.36c-4.98 4.29-11.48 5.58-17.89 4.8-4.53-.55-8.59-2.41-11.32-6.15-4.49-6.15-5.72-13.1-4.56-20.45-6.43-2.7-12.62-6.12-18.82-9.29-10.21 18.66-24.8 32.77-40.13 47.15 3.94 7.36 8.73 13.33 14.19 19.59 4.94-1.56 10.8-2.51 15.91-1.16 5.15 1.36 9.54 5.35 11.97 10.02 2.8 5.36 3.17 12.15 1.21 17.85-1.77 5.16-5.69 9.19-10.68 11.34a23.1 23.1 0 0 1-18.91-.27c-4.8-2.26-8.54-6.18-10.18-11.26-2.16-6.67-.5-13 2.57-19.03-5.27-6.3-10.57-12.46-16.29-18.36-14.3 9.53-33.84 18.65-50.51 23.1 1.36 9.16 2.4 18.39 3.59 27.58.21.07.41.14.62.21.9.28 1.8.55 2.69.85 5.4 1.86 10.21 5.65 12.59 10.96 2.96 6.61 1.42 12.71-1.09 19.15-4.19 5.39-9.02 9.37-16.06 10.12a20.94 20.94 0 0 1-15.99-5.21c-4.06-3.56-6.57-8.55-6.76-13.97-.33-9.31 5.39-15.78 11.48-21.99-1.25-8.51-2.56-16.86-4.64-25.22-22.05 3.94-41.81 2.92-63.86.05a1658 1658 0 0 0-3.44 24.01c5.4 5.47 9.77 12.11 9.87 20.03a18.92 18.92 0 0 1-6 14.25c-6.91 6.54-14.41 6.54-23.26 6.13-3.21-2.45-6.21-4.84-8.63-8.12-3.21-4.35-6.35-9.78-5.37-15.41 1.88-10.78 12.53-14.06 20.3-19.47 3.42-7.38 3.63-16.04 4.43-24.04-18.68-5.66-36.08-12.03-51.34-24.51-4.82 6.15-10.21 11.54-15.76 17.02 1.94 5.25 3.52 11.07 2.09 16.63-1.85 7.16-7.73 11.28-13.68 14.94-3.66.15-7.65.46-11.27-.2-5.01-.92-10.06-4.85-12.74-9.09-3.15-5-4.01-11.33-2.48-17.03a19.87 19.87 0 0 1 9.84-12.36c7.03-3.79 14.11-2.92 21.49-.86 4.18-6.28 8.33-12.41 13.19-18.18-16.42-12.12-33.79-31.34-43.01-49.56-5.49 1.89-10.49 3.76-15.55 6.65-1.1 5.12-2.3 10.56-5.05 15.08-4.4 7.21-10.78 9.18-18.48 11.09-2.18-.54-4.38-1.1-6.48-1.91a22.28 22.28 0 0 1-12.6-12.1 20.36 20.36 0 0 1 .36-16.7 20.5 20.5 0 0 1 12.87-10.68c9.49-2.72 16.83.81 24.86 5.38 4.42-3.7 9.37-7 14.03-10.4-7.28-20.74-12.73-39.9-14.2-61.92l-19.65-1.74c-1.66 2.45-3.57 4.96-5.7 7.02-4.34 4.22-10.43 7.67-16.66 7.25-5.22-.35-10.17-3.54-13.46-7.47-4.23-5.06-6.3-11.57-5.46-18.13.66-5.2 3.18-10.17 7.5-13.26 4.74-3.39 11.39-4.43 17.06-3.45 8.61 1.48 13.86 8.01 18.44 14.85l18.27-.04c.75-21.66 7.52-41.82 15.05-61.91-4.05-3.55-8.58-6.68-12.87-9.94-3.8 2.89-7.87 5.35-12.48 6.69-5.72 1.65-11.88 1.39-17.01-1.85-4.56-2.87-7.61-7.72-8.66-12.96-1.15-5.72-.08-11.83 3.42-16.56 3.69-5.01 9.55-7.56 15.6-8.28 17.75-2.13 16.32 10 22.73 20.19 3.43 5.45 9.03 9.29 14.05 13.15 12.62-19.55 27.58-35.16 45.09-50.33-3.64-3.67-6.56-8.34-10.33-11.73-4.56-4.1-14.73-2.77-20.57-4.98-4.43-1.67-7.91-4.81-9.63-9.27-2.21-5.74-1.55-12.51 1.2-17.94 2.74-5.45 7.75-9.98 13.58-11.86 4.29-1.38 8.62-1.15 12.59 1.06 7.68 4.26 10.61 11.93 13.01 19.8-1.29 4.47-3.06 8.46-5.04 12.63 4.56 5.63 9.87 10.72 14.93 15.9 19.56-9.96 39.21-18.16 60.19-24.66l-5.03-23.02c-8.19-2.61-15.43-5.22-19.56-13.49a17.25 17.25 0 0 1-.87-13.68c2.63-7.26 8.37-10.7 14.97-13.96"/><path fill="#FEFEFE" d="M1610.05 1364.79c.27.01.54 0 .8.02 3.94.22 8.03 1.17 10.55 4.49 1.63 2.13 1.85 4.56 1.37 7.11-.78 4.24-4.39 6.67-7.73 8.85-1.28.02-2.26.06-3.56-.06-3.38-.3-6.36-1.8-8.22-4.7-1.53-2.38-1.62-4.75-1.01-7.43.96-4.25 4.35-6.22 7.8-8.28m-87.18 40.13c1.48.01 1.5-.02 3.16.14 3.9.38 7.33 1.9 9.7 5.1 1.56 2.1 2.19 4.39 1.59 6.99-.95 4.1-3.75 5.78-7.11 7.69-1.39.07-2.78.16-4.17.15-3.03-.03-5.73-.86-7.73-3.32-1.79-2.2-2.49-4.28-2.11-7.08.62-4.61 3.21-6.88 6.67-9.67m-6.02 333.95c4.34-.03 8.28.25 11.5 3.45 2.3 2.3 3.17 4.75 2.97 8.03-.27 4.34-3.1 7.13-6.16 9.83-4.36.16-7.58.06-10.91-3.05-2.38-2.23-3.5-5.06-3.36-8.32.21-4.85 2.52-6.93 5.96-9.94m177.08 43.86c1.16.07 2.44.09 3.58.34 3.5.77 6.69 2.51 8.57 5.69a9.6 9.6 0 0 1 .91 7.58c-1.31 4.45-4.41 5.97-8.23 7.96-.66 0-1.32.03-1.98.01-3.44-.11-6.8-.83-8.97-3.82-1.35-1.86-1.7-4.28-1.39-6.51.72-5.2 3.62-8.05 7.51-11.25m82.7-39.66c1.21-.19 2.13-.37 3.39-.39 3.39-.08 6.67.95 8.83 3.71 1.72 2.2 2.08 4.82 1.8 7.52-.45 4.38-3.37 7.39-6.62 9.99-4.37-.26-9.34-1.14-12.28-4.77-1.7-2.11-2.61-4.29-2.26-7.05.55-4.49 3.75-6.61 7.14-9.01m-315.37-80.18c3.46.13 7.36.34 9.97 2.97 2.26 2.29 3.31 4.87 3 8.11-.48 5.18-3.31 8.02-7.17 11.14-1.23 0-2.35.04-3.58-.12a11.39 11.39 0 0 1-8.14-5.11c-1.83-2.79-2.09-6.01-1.22-9.17 1.14-4.19 3.64-5.65 7.14-7.82m398.96-79.98c1 .16 1.46.2 2.51.53 3.24 1.03 6.86 3.37 8.21 6.65 1.1 2.69 1.21 5.23.12 7.93-1.75 4.34-5.19 5.66-9.31 7.21-1.13-.04-2.12-.04-3.26-.29-3.19-.69-6.12-2.51-7.46-5.59-.99-2.26-.86-4.7-.14-7 1.65-5.22 4.74-7.03 9.33-9.44m-397.12-104.79c1.42-.12 3-.32 4.43-.24 3.28.18 6.12 1.38 8.28 3.88 2.1 2.43 2.63 4.97 2.18 8.09-.64 4.4-3.93 6.68-7.37 8.94-.36.03-.71.07-1.07.08-4.17.17-8.17-.6-11.02-3.9-1.89-2.18-2.42-4.64-2.2-7.45.34-4.51 3.46-6.89 6.77-9.4m242.96-111.16c.4.01.81.01 1.21.04 4.07.29 7.98 1.42 10.7 4.67 1.96 2.34 2.73 5.19 2.17 8.2-.83 4.54-3.69 6.71-7.26 9.23-4.28-.08-8.6-1.19-11.56-4.5-2.08-2.33-2.92-5.43-2.37-8.53.79-4.53 3.65-6.55 7.11-9.11m127.72 304.09c.55.11 1.1.21 1.64.33 3.99.84 7.48 2.53 9.59 6.16 1.48 2.57 1.91 5.28.88 8.14-1.49 4.13-4.46 5.86-8.17 7.77-1.02-.06-2.05-.09-3.07-.22-3.09-.4-6.22-1.98-7.96-4.65-1.74-2.65-2.37-5.4-1.56-8.51 1.26-4.82 4.55-6.8 8.65-9.02M1438.96 1567c.97-.04 1.94-.09 2.91-.07 3.53.08 6.86 1.35 9.25 4.05 2.17 2.44 2.87 5.19 2.38 8.43-.64 4.26-3.93 6.68-7.23 8.92-1.28.19-1.4.25-2.85.25-3.53-.01-7.38-1.58-9.51-4.46-1.69-2.27-2.03-4.9-1.78-7.65.4-4.5 3.47-6.94 6.83-9.47m346.98-150.04c.51-.01 1.03-.03 1.54-.02 4.28.09 7.95 1.11 10.92 4.36 2.15 2.36 2.97 4.83 2.73 8.05-.32 4.32-3.41 6.96-6.64 9.37-3.71.59-7.52.99-10.78-1.28-2.28-1.58-3.18-3.69-3.53-6.36-.72-5.44 2.69-10.04 5.76-14.12m57.13 72.08c1.15.24 1.78.35 2.96.73 3.5 1.12 6.16 2.94 7.74 6.34 1.2 2.59 1.25 5.24.18 7.88-1.69 4.19-4.47 5.76-8.47 7.43-1.74-.16-3.84-.23-5.49-.77-2.83-.95-5.28-3.35-6.4-6.11-1.22-3.01-.84-5.85.48-8.74 1.7-3.72 5.4-5.42 9-6.76m-244.53 292.93a90 90 0 0 1 3.65-.15c3.9-.08 7 .4 9.8 3.35 2.07 2.19 3.09 4.78 2.58 7.84-.73 4.36-3.33 7.17-6.59 9.89-.33.03-.67.07-1.01.09-4.41.23-8.24-.15-11.47-3.55-1.96-2.08-2.7-4.51-2.71-7.31 0-4.4 2.76-7.35 5.75-10.16m38.21-351.59c.3-.05.59-.12.89-.16 35.58-4.22 79.24 12.33 106.62 34.24 32.7 26.16 54.81 63.84 59.17 105.66 4.25 40.75-8.21 79.35-34.25 110.94-26.8 32.52-63.22 51.32-104.94 55.49-.35.07-.7.17-1.06.22-32.17 4.34-74.23-7.26-100.11-26.64-34.3-25.7-58.98-65.52-64.91-108.16-5.27-37.84 6.39-80 29.47-110.32 26.81-35.22 65.61-55.53 109.12-61.27"/><path fill="#5B326C" d="M1633.63 1458.34c30.64-3.3 61.73 4.21 86.72 22.46a122.38 122.38 0 0 1 48.35 80.51c5.17 34.85-1.11 70.03-22.33 98.51-20.36 27.32-48.56 44.06-82.12 49.06-31.01 2.21-59.41-3.17-84.95-21.68-27.85-20.19-49.05-52.57-54.22-86.83-5-33.18 2.98-65.25 22.96-92.23 20.92-28.25 51.14-44.82 85.59-49.8"/><path fill="#FEFEFE" d="M1639.72 1467.39c.06 0 .12-.02.18-.02a116.55 116.55 0 0 1 80.06 25.65c22.91 18.5 37.19 48.34 40.19 77.33 3.33 32.16-4.71 63.37-25.27 88.57-18.94 23.21-45.27 37.06-75.01 40.18-31.39.78-56.3-6.38-81.38-25.67a113.2 113.2 0 0 1-42.53-75.01c-3.89-30.33 2.87-61.5 21.88-85.83a120.7 120.7 0 0 1 81.88-45.2"/><path fill="#5B326C" d="M1644.63 1498.26c1.67-.19 3.29-.28 4.97-.27 13.92.02 27.01 5.03 36.66 15.25 9.47 10.04 14.91 24.54 14.26 38.36-.71 14.94-8.31 26.28-19.16 35.87-.44 30.11-.01 60.23-.54 90.35l-24.75.62a1139 1139 0 0 1-35.32.5c-.5-29.58.09-59.22-.18-88.82-9.36-10.08-17.11-19.76-19.43-33.84-2.19-13.31 1.19-27.93 9.17-38.84 8.62-11.8 20.32-16.96 34.32-19.18"/><path fill="#FEFEFE" d="M1649.15 1507.32c.26 0 .53-.01.79 0 11.31.45 22.03 4.65 29.67 13.21 7.24 8.12 11.05 19.47 10.4 30.31-.82 13.69-8.34 22.61-17.92 31.4.18 28.68-.72 57.44-1.05 86.12-5.89.4-11.88.38-17.79.52l-22.97-.06c-.34-28.03.35-56.17-.91-84.18-9.42-8.52-17.11-16.92-19.36-29.98-1.83-10.6.86-21.2 7.19-29.85 7.93-10.84 19.05-15.66 31.95-17.49"/><path fill="#E1A7B9" d="M846.726 1745.71c-10.724 11.16-20.1 24.14-30.438 35.76-29.247 32.88-65.101 64.12-104.92 83.39-58.235 28.19-120.609 24.43-180.221 3.13-132.68-47.41-232.805-152.49-292.347-278.32-69.994-147.91-129.189-352.23-70.839-512.94 23.029-63.42 66.305-123.903 128.615-153.208-4.209 25.328-10.093 47.509-24.237 69.382-7.974 12.336-17.858 23.796-27.991 34.416-20.03 20.99-49.413 44.53-27.186 76.19 27.855 39.69 103.122 41.68 94.506 94.18-3.35 20.41-17.775 42.24-3.243 61.79 1.948 2.62 4.387 4.93 6.707 7.22-5.315 10.93-8.951 22.81-4.732 34.83 7.168 20.43 31.013 31.89 39.614 57.61 16.41 49.08-8.718 99.72 24.654 148.47 7.281 10.63 15.915 19.28 27.773 24.72 37.839 17.36 81.826 9.34 120.878 1.36 29.986-6.14 59.962-12.86 90.176-17.75 60.141-9.75 124.434-12.45 167.804 38.41 16.096 18.87 27.145 43.24 35.897 66.3 11.645 30.69 18.436 62.22 24.547 94.36 1.88 9.89 4.636 20.67 4.983 30.7m121.09-1577.899c29.374-17.427 72.504-33.232 105.034-45.273 156.09-57.783 303.32-73.601 465.82-32.185 124.63 31.765 251.07 102.194 318.08 215.381a324.63 324.63 0 0 1 36.52 247.934c-10.51 41.282-31.66 77.427-54.59 112.913-24.33 37.664-51.7 71.752-58.08 117.674-7.39 53.199 23.9 115.004 42.36 164.291 20.44 54.564 32.05 121.984 14.87 178.624-3.47 11.43-8.79 22.1-14.47 32.56a228.5 228.5 0 0 1-86.4 89.39c-88.35 52.02-180.14 57.15-278.96 72.02-19.65 2.96-55.38 5.8-72.56 11.75 15.64-32.96 47.07-72.2 71.33-99.81 27.63-31.46 58.06-60.75 84.21-93.43 15.52-19.39 29.92-40.91 40.86-63.2 27.08-55.2 41.8-128.345 45.91-189.463 4.29-63.908.91-131.237-12.65-193.941-22.6-104.507-76.35-207.614-146.93-287.729-22.72-25.789-49.02-49.658-75.51-71.489a722.16 722.16 0 0 0-358.67-159.655c-26.7-3.989-53.211-4.313-80.066-6.011 4.631-.183 9.255-.407 13.892-.351"/><path fill="#5B326C" d="M296.576 923.522c-1.117-14.62-20.519-48.811-27.192-64.201-9.131-21.056-17.761-42.199-25.34-63.862a1228.6 1228.6 0 0 1-67.551-394.904c-.125-10.554-1.767-45.803 2.712-53.905 2.318-4.192 8.369-6.241 12.669-7.401 10.865-2.931 22.493-3.747 33.517-6.171a1831 1831 0 0 0 102.458-25.222A1406.8 1406.8 0 0 0 732.703 118.5c8.929-6.083 27.696-21.533 37.714-22.903 3.191-.436 6.737 2.198 9.259 3.934 10.462 7.202 20.023 16.454 29.885 24.497 19.339 15.771 39.267 31.535 59.16 46.574 27.864-4.023 57.087-2.553 85.203-2.44 26.855 1.698 53.366 2.022 80.066 6.011a722.16 722.16 0 0 1 358.67 159.655c26.49 21.831 52.79 45.7 75.51 71.489 70.58 80.115 124.33 183.222 146.93 287.729 13.56 62.704 16.94 130.033 12.65 193.941-4.11 61.118-18.83 134.263-45.91 189.463-10.94 22.29-25.34 43.81-40.86 63.2-26.15 32.68-56.58 61.97-84.21 93.43-24.26 27.61-55.69 66.85-71.33 99.81-13.12 24.78-25.05 49.43-32.84 76.48-19.05 66.19-10.09 139.93 9.85 204.85a963.8 963.8 0 0 0 115.53 244.74c10.81 16.59 22.82 32.61 34.67 48.47 6.39 8.54 14.94 17.71 19.35 27.41-1.84 4.02-3.32 9-7.65 10.89-2.9 1.28-7.26.93-10.34.66-21.25-1.87-42.64-5.32-63.83-7.91-56.95-6.95-113.92-14.39-171.11-19.02a1112 1112 0 0 0-135.56-3.31c-74.36 3.43-152.88 19.98-220.613 51.29-11.761 5.44-36.63 22.75-47.632 19.52-2.81-1.81-3.499-5.46-4.187-8.54-1.925-8.63-1.643-17.84-2.194-26.66a1738 1738 0 0 0-3.231-42.28c-4.741-54.66-9.632-109.67-18.927-163.77-.347-10.03-3.103-20.81-4.983-30.7-6.111-32.14-12.902-63.67-24.547-94.36-8.752-23.06-19.801-47.43-35.897-66.3-43.37-50.86-107.663-48.16-167.804-38.41-30.214 4.89-60.19 11.61-90.176 17.75-39.052 7.98-83.039 16-120.878-1.36-11.858-5.44-20.492-14.09-27.773-24.72-33.372-48.75-8.244-99.39-24.654-148.47-8.601-25.72-32.446-37.18-39.614-57.61-4.219-12.02-.583-23.9 4.732-34.83-2.32-2.29-4.759-4.6-6.707-7.22-14.532-19.55-.107-41.38 3.243-61.79 8.616-52.5-66.651-54.49-94.506-94.18-22.227-31.66 7.156-55.2 27.186-76.19 10.133-10.62 20.017-22.08 27.991-34.416 14.144-21.873 20.028-44.054 24.237-69.382"/><path fill="#FEFEFE" d="M769.25 117.836c8.222 3.423 27.417 21.485 35.544 28.061a4139 4139 0 0 0 47.624 37.715c38.875 30.188 78.016 59.128 119.318 85.923 63.494 41.191 130.874 78.144 198.494 112.073 30.88 15.497 62.71 29.358 93.33 45.27-2.79 27.473-11.4 55.686-18.5 82.366-22.86 85.991-50.35 170.602-87.9 251.428-98.31 211.663-252.796 382.978-475.742 464.358-12.011 4.3-24.329 7.95-36.485 11.83-18.035-9.04-35.447-19.99-52.537-30.69-58.915-36.9-114.242-79.11-161.815-130.03-166.951-178.668-242.37-477.531-234.248-717.558a1329 1329 0 0 0 157.603-37.718c152.343-45.939 284.968-111.952 415.314-203.028"/><path fill="#5B326C" d="M761.592 193.815c1.294.121 2.473.224 3.7.687 7.489 2.832 33.856 25.576 42.497 31.98a1514 1514 0 0 0 63.524 44.895 2135 2135 0 0 0 227.207 133.278c23.7 12.165 47.79 23.524 71.69 35.282 9.8 4.816 20.4 9.135 29.68 14.843 2.88 1.766 5.23 3.442 6.82 6.487 1.55 12.951-4.85 29.599-8.06 42.192-20.88 81.815-48.35 164.828-84.39 241.369-87.55 185.945-230.735 350.692-428.292 421.672-11.502 4.18-23.017 8.04-34.865 11.13-16.731-7.14-32.889-17.81-48.252-27.49-51.162-32.26-98.749-68.28-140.813-111.92C335.85 907.297 278.017 724.838 257.543 547.614c-5.381-46.578-9.169-93.649-8.269-140.573 13.061-6.529 31.085-7.465 45.415-10.474a1319 1319 0 0 0 50.245-11.83 1265 1265 0 0 0 123.306-38.771A1357.5 1357.5 0 0 0 689.753 239.6c16.312-9.574 32.306-20.059 48.102-30.464 7.51-4.947 14.772-10.606 22.727-14.803.335-.176.673-.345 1.01-.518"/><path fill="#FEFEFE" d="M761.179 215.985c12.241 5.904 31.691 23.678 43.518 32.339a2280 2280 0 0 0 92.633 63.784 2556 2556 0 0 0 177.51 102.773 5291 5291 0 0 0 111.83 55.259c-22.14 86.904-48.52 171.957-85.08 254.062-82.24 184.712-223.538 347.408-415.359 420.938-10.478 4.43-21.753 7.31-32.717 10.26a721.6 721.6 0 0 1-167.929-122.07C327.208 878.982 273.233 635.554 270.614 422.093c37.254-9.423 74.925-16.511 111.934-27.194 126.844-36.614 271.478-101.232 378.631-178.914"/><path fill="#5B326C" d="M705.434 335.367c23.091-3.664 70.034 7.444 93.547 13.627 34.315 9.022 64.684 26.838 82.772 58.184 28.489 49.373 10.313 115.755-3.524 167.31 13.131 4.323 24.627 8.845 32.704 20.886 3.92 5.843 7.662 14.343 7.426 21.469-.48 14.452-4.26 29.202-6.925 43.382L897.9 731.602c-12.168 64.161-22.747 128.696-35.304 192.777-3.221 16.438-8.698 30.318-23.435 39.869a50.8 50.8 0 0 1-25.469 8.135c-18.094.768-79.592-14.805-101.467-19.466-.292-.044-.586-.076-.876-.132-43.539-8.425-86.885-18.232-130.414-26.831-22.971-4.538-63.625-10.095-83.933-17.886-8.698-3.336-19.035-10.616-24.404-18.247-11.687-16.609-13.215-33.708-9.784-53.29 11.135-63.549 25.155-126.857 37.83-190.14a4297 4297 0 0 1 15.478-73.223c2.652-12.485 4.381-26.54 8.623-38.56 3.389-9.605 9.535-18.356 18.045-24.067 12.339-8.281 25.535-8.822 39.587-6.285 10.243-43.645 11.736-86.975 40.704-123.921 21.281-27.141 48.48-40.862 82.353-44.968"/><path fill="#FEFEFE" d="M707.63 354.343c21.145-3.781 77.727 10.368 98.613 17.579 25.631 8.849 49.152 24.372 61.141 49.466 16.378 34.28 8.357 69.519 1.544 104.856-2.889 14.986-5.139 30.426-10.167 44.873l-19.296-5.395c7.921-33.129 21.423-78.712 16.642-112.254-3.402-23.877-16.104-40.149-34.982-54.278-18.97-12.098-61.538-20.89-84.466-24.546-23.324-3.72-49.075-.509-68.515 13.727-38.305 28.052-40.249 84.476-47.081 127.35l-19.529-5.991c.88-9.409 2.956-18.915 4.566-28.233 5.403-31.279 11.663-60.367 31.108-86.423 17.476-23.417 41.709-36.642 70.422-40.731"/><path fill="#FEFEFE" d="M706.398 393.129c25.104-1.867 48.919 5.238 73.255 10.487 19.238 4.149 38.495 12.128 49.319 29.6 16.006 25.838 6.849 58.779 1.054 86.28-3.062 14.529-5.94 29.141-9.601 43.534a1005 1005 0 0 0-36.213-9.53c-18.72-3.723-37.403-8.751-56.015-13.067-19.055-4.42-38.249-8.206-57.311-12.583-10.148-2.331-20.093-5.491-30.332-7.408 2.245-25.685 10.067-77.386 23.37-99.217 10.021-16.444 24.458-23.861 42.474-28.096M565.021 526.191c19.899-1.444 52.927 9.708 72.952 14.705a2988 2988 0 0 0 52.487 12.439l106.486 24.368c25.691 5.737 51.818 10.79 77.189 17.792 10.142 2.8 13.754 5.977 18.841 14.84a72.7 72.7 0 0 1-1.148 14.629c-2.877 16.057-7.318 31.871-10.506 47.891a10384 10384 0 0 0-24.387 128.562l-17.087 87.453c-2.702 14.156-3.736 31.496-9.173 44.688-2.856 6.927-10.448 9.6-16.914 12.022-16.185.64-34.38-7.283-50.376-10.439a6803 6803 0 0 1-188.477-38.295 1906 1906 0 0 0-41.99-8.72c-8.768-1.678-18.252-2.659-26.736-5.316-7.592-2.378-13.603-7.825-17.04-14.965-2.83-5.88-3.079-11.589-2.314-17.966 1.626-13.564 5.447-27.011 7.984-40.456 8.958-47.479 19.828-94.399 29.435-141.726 5.782-28.486 10.86-57.165 16.373-85.711 2.765-14.317 4.689-30.431 9.822-44.081 2.442-6.493 8.73-9.032 14.579-11.714"/><path fill="#5B326C" d="M801.233 887.075c4.043-.255 7.883-.347 11.759 1.004 6.473 2.257 11.905 6.604 14.638 12.998 2.579 6.034 2.212 13.251-.557 19.149-3.326 7.086-8.191 10.24-15.308 12.852-4.573.046-9.547.334-13.894-1.28a23.15 23.15 0 0 1-12.998-12.092 23.1 23.1 0 0 1-.327-17.93c3.135-7.702 9.282-11.695 16.687-14.701"/><path fill="#FEFEFE" d="M801.351 900.038a37 37 0 0 1 2.692-.196c4.158-.152 7.766.425 10.83 3.471 2.036 2.025 2.789 4.159 2.775 7.031-.022 4.499-2.977 7.435-6.04 10.289-.595.085-1.188.178-1.784.255-4.205.543-8.354.189-11.661-2.747-2.056-1.824-3.181-4.327-3.139-7.078.075-4.972 2.848-7.864 6.327-11.025"/><path fill="#5B326C" d="M514.222 825.19c4.517-.244 8.66-.016 12.874 1.824 5.809 2.537 10.186 7.416 12.466 13.286 2.458 6.328 2.355 13.752-.674 19.863-3.479 7.018-8.763 9.635-15.917 11.964-4.366.052-8.651-.14-12.793-1.673-5.738-2.124-10.703-6.492-13.123-12.161-2.548-5.969-2.132-12.886.515-18.747 3.423-7.577 9.054-11.661 16.652-14.356"/><path fill="#FEFEFE" d="M518.13 835.959c1.759.342 3.624.665 5.3 1.311 2.619 1.01 4.719 3.651 5.847 6.157 1.472 3.273 1.32 6.898-.127 10.148-1.94 4.354-4.782 5.573-8.975 7.239-1.144-.141-2.289-.287-3.42-.521-3.068-.633-6.042-2.571-7.507-5.419-1.586-3.08-1.827-6.182-.722-9.477 1.724-5.14 4.887-7.222 9.604-9.438"/><path fill="#5B326C" d="M575.662 537.179c3.818-.072 7.591.387 11.173 1.788 6.435 2.518 11.42 7.166 13.935 13.653a26.2 26.2 0 0 1-.807 20.564c-3.818 7.972-9.818 11.231-17.749 14.124-5.159.191-9.605.035-14.303-2.352a23.56 23.56 0 0 1-12.274-15.016c-1.974-7.24-.803-15.443 3.201-21.797 4.18-6.633 9.468-9.086 16.824-10.964"/><path fill="#FEFEFE" d="M575.138 549.956c1.658.055 3.328.09 4.969.36 3.015.497 6.27 2.589 7.784 5.297 1.699 3.039 2.057 6.103 1.186 9.478-1.336 5.176-4.575 7.568-8.92 10.282-1.247-.056-2.5-.115-3.738-.286-3.478-.481-6.21-2.436-8.249-5.233-1.955-2.683-2.263-6.327-1.535-9.477 1.232-5.328 4.073-7.556 8.503-10.421"/><path fill="#5B326C" d="M846.148 604.126c4.078-.232 7.926-.367 11.877.842 7.351 2.249 13.573 7.22 16.815 14.263a24.43 24.43 0 0 1 .494 19.523c-3.139 7.54-8.847 11.637-16.203 14.557-5.048.327-9.753.501-14.598-1.2a24.93 24.93 0 0 1-14.587-13.269c-2.788-6.256-3.013-13.727-.374-20.071 3.182-7.653 9.162-11.647 16.576-14.645"/><path fill="#FEFEFE" d="M849.176 616.827c4.325.433 9.358 1.297 12.016 5.211 1.79 2.636 2.384 5.339 1.645 8.465-1.218 5.153-4.396 7.566-8.61 10.389-1.115-.024-1.928-.008-2.996-.127-3.222-.359-6.279-2.221-8.171-4.844-2.013-2.79-2.472-6.274-1.822-9.606.966-4.961 3.906-6.966 7.938-9.488"/><path fill="#5B326C" d="M711.346 589.219c3.088.182 6.339.444 9.334 1.233 5.942 1.567 11.458 5.089 14.548 10.522a19.4 19.4 0 0 1 1.531 15.455c-2.418 7.536-7.578 11.236-14.211 14.903-.956 6.202-1.692 12.383-2.311 18.627 14.636 7.217 26.566 14.981 39.108 25.385 8.971-5.628 15.825-14.99 25.215-19.634 4.256-2.106 9.018-1.666 13.342.042 5.579 2.203 10.635 6.923 13.015 12.454 2.086 4.849 2.222 10.307.16 15.192-4.219 9.999-14.154 12.496-22.706 17.285-4.078 2.284-7.452 4.572-11.861 6.322 3.876 10.764 7.053 21.158 8.835 32.484 16.396 6.563 26.751 2.039 41.214 5.66 8.498 2.128 12.246 7.016 16.387 14.288.175 3.146.484 6.467.164 9.606-.628 6.164-4.515 13.053-9.46 16.773-14.916 11.224-24.939-.937-36.071-3.814-6.052-1.564-13.539-1.242-19.847-2.014-4.865 8.914-10.577 16.086-17.507 23.494 7.772 8.68 13.883 16.892 18.585 27.57a95 95 0 0 1-.507 2.003c-2.364 8.821-6.721 14.354-14.9 18.819-5.088 2.777-11.452 4.596-17.129 2.572-10.989-3.918-15.781-19.542-20.111-29.371-12.942 4.027-27.135 5.295-40.591 6.242l-3.027 13.33c1.477 2.782 2.939 5.555 3.791 8.603 1.77 6.336 1.067 13.28-2.49 18.889a23.3 23.3 0 0 1-14.831 10.365c-6.484 1.364-13.591.132-19.005-3.774-5.596-4.038-7.535-8.528-8.788-15.119.082-.821.167-1.642.284-2.459l.17-1.158c1.618-11.461 8.949-21.041 11.265-35.87-8.788-4.459-17.258-9.265-25.191-15.126-5.775 1.749-11.72 3.103-17.567 4.608-4.05 7.5-8.024 14.03-16.552 17.043-6.496 2.295-13.684 1.424-19.696-1.832a26.32 26.32 0 0 1-12.882-15.839c-1.432-5.034-1.104-10.492 1.538-15.075 5.739-9.957 17.415-12.166 27.625-14.67l9.648-11.876c-3.971-13.314-5.523-26.018-6.832-39.776l-16.483-3.31c-2.251 1.936-4.525 3.927-7.077 5.459-5.311 3.19-11.621 4.961-17.715 3.12-5.734-1.731-10.32-6.307-12.96-11.579-3.057-6.106-3.766-13.517-1.53-20.006 1.719-4.993 5.072-9.047 9.91-11.272 5.544-2.549 13.627-2.754 19.22-.233 6.284 2.833 9.09 7.86 11.306 14.07 6.374 1.932 12.949 3.379 19.391 5.09 5.915-13.819 13.399-24.943 22.725-36.609-.202-.281-.401-.563-.606-.842-.342-.464-.696-.919-1.033-1.386-7.873-10.913-22.479-18.132-24.132-32.46a22.92 22.92 0 0 1 5.114-17.274c4.911-5.987 12.197-9.249 19.832-9.862 6.685-.536 13.595 1.145 18.577 5.815 10.793 10.118 6.507 23.531 6.902 36.427 19.864-9.107 32.299-10.134 53.873-9.727 2.147-5.716 3.411-11.641 4.79-17.575-4.14-3.215-6.781-6.43-8.217-11.552-1.852-6.602-1.567-13.618 2.059-19.591 3.511-5.784 8.019-7.617 14.368-9.065"/><path fill="#FEFEFE" d="M710.882 600.983c.434-.013.867-.038 1.301-.039 4.175-.009 8.833.5 11.779 3.86 1.71 1.95 2.764 4.014 2.372 6.685-.608 4.142-3.558 6.81-6.745 9.132-1.737.14-1.538.166-3.483.109a12.03 12.03 0 0 1-8.869-4.304c-1.956-2.355-2.593-5.382-1.996-8.361.689-3.436 3.055-5.085 5.641-7.082M556.08 703.938c1.263.177 2.283.283 3.538.641 3.429.976 6.351 3.236 7.762 6.578 1.059 2.51.98 5.305-.018 7.81-1.619 4.066-4.524 5.656-8.358 7.329-1.249-.063-2.268-.078-3.524-.326-3.136-.619-5.768-2.145-7.377-5.016-1.587-2.832-1.662-6.009-.524-9.028 1.652-4.387 4.396-6.094 8.501-7.988m193.87 110.019c4.186 2.79 9.562 6.045 12.768 9.944 2.081 2.532 3.636 5.952 2.871 9.279-1.193 5.188-6.546 7.911-10.747 10.337-1.7-.067-3.365-.093-4.936-.861-6.682-3.265-9.685-13.682-12.172-20.145 4.415-2.609 8.304-5.206 12.216-8.554m38.258-148.995c2.919.274 6.395.576 8.787 2.482 2.269 1.807 3.525 4.326 3.725 7.215.767 11.086-14.412 11.883-20.152 19.653-.227.308-.448.622-.672.933l-1.215.411a664 664 0 0 1-10.657-12.564c7.284-5.675 13.65-11.645 20.184-18.13M663.7 826.624c2.486.287 4.849.498 7.208 1.401 1.792.687 2.259 2.019 2.856 3.743 2.685 7.742 4.146 28.22-.04 35.233-2.23 3.736-4.885 4.732-8.794 5.935-2.059-.461-4.222-.889-6.197-1.638-2.372-.9-4.396-3.049-5.13-5.476-1.942-6.419 2.652-14.957 5.116-20.75 2.575-6.055 3.741-12.02 4.981-18.448m-48.556-200.458c3.976-.17 8.861-.84 12.562.856 10.1 4.626 5.605 22.46 9.252 31.572.135.338.28.673.419 1.01-3.293 2.63-6.227 5.631-9.229 8.582-.219-.312-.435-.626-.658-.935l-1.127-1.535c-5.044-6.991-12.188-10.69-17.584-17.137-2.707-3.236-4.443-6.843-3.717-11.166.906-5.405 5.75-8.687 10.082-11.247m169.32 126.668c4.843.448 9.652 1.616 14.516 2.094 8.575.843 22.297-.954 29.461 4.411 2.244 1.68 3.253 3.557 3.512 6.369.397 4.307-2.168 8.973-4.707 12.218-11.176 3.653-19.955-3.564-30.341-6.803-4.804-1.497-10.46-1.792-15.461-2.378.841-5.34 1.932-10.618 3.02-15.911m-180.113 29.622c5.935 3.406 11.46 13.172 15.953 18.64-29.655 4.234-15.985 15.708-33.855 20.084-2.45-.483-4.87-.995-7.154-2.039-3.399-1.554-8.02-4.714-8.832-8.641-.519-2.506.579-5.256 2.034-7.26 5.288-7.283 12.518-7.888 20.706-8.994 3.541-4.217 6.928-8.223 11.148-11.79m78.834-126.076c22.334-.815 45.59 6.717 62.356 21.612 16.572 14.722 26.979 38.851 28.208 60.867 1.082 19.366-6.585 38.395-19.397 52.734a84.56 84.56 0 0 1-59.205 27.854c-21.192 1.419-41.697-4.646-58.276-17.885-17.603-14.055-29.013-33.138-31.356-55.705-2.203-21.208 5.315-41.659 18.734-57.964a87.17 87.17 0 0 1 58.936-31.513"/><path fill="#5B326C" d="M682.805 677.221c11.767-.75 23.313 1.213 33.729 6.936 14.102 7.749 23.739 20.891 27.96 36.277 4.516 16.463 2.048 33.508-6.588 48.185-9.617 16.344-23.816 26.537-42.016 31.397-12.056 1.572-24.01-.078-34.474-6.589-14.92-9.284-26.386-27.711-29.998-44.727-3.209-15.124-.012-30.464 8.426-43.31 10.052-15.302 25.284-24.358 42.961-28.169"/><path fill="#FEFEFE" d="M718.22 697.79c1.565 1.268 2.978 2.534 4.333 4.031 9.459 10.45 14.462 24.068 13.467 38.198-1.127 16.024-8.809 28.377-20.485 38.838-3.724 2.626-7.598 4.672-11.625 6.775a3824 3824 0 0 0 14.31-87.842m-42.456-7.794c.262.639.714 1.229.785 1.915.322 3.121-16.313 72.457-18.361 85.646l-7.282-8.48c-1.851-3.012-3.784-6.06-5.281-9.267-5.631-12.061-6.716-25.072-2.075-37.71 5.827-15.869 17.194-25.462 32.214-32.104m11.12-1.544c7.259 1.815 13.886 2.52 21.334 2.821-2.174 18.588-5.866 37.121-9.197 55.537-2.684 14.842-4.951 29.997-8.737 44.591-7.627-.174-15.062-2.464-22.411-4.353 1.666-16.998 6.14-33.43 9.839-50.058a782 782 0 0 0 9.172-48.538"/><path fill="#FEFEFE" d="M892.811 191.138c26.81-.717 54.003-.756 80.781.492a695.07 695.07 0 0 1 476.288 226.753c30.24 33.432 56.43 71.754 78.34 111.049 63.69 114.236 86.2 231.552 76.32 361.474-5.16 67.896-20.9 137.964-55.13 197.344-19.55 33.92-47.23 62.1-73.18 91.04-77.22 86.13-150.39 172.31-156.09 293.77-5.8 123.83 63.07 276.23 127.9 379.38 14.59 23.2 29.95 48.54 48.45 68.85-37.24-1.95-74.73-8.81-111.84-12.89-60.04-6.59-120.53-13.76-180.95-15.12-93.43-2.11-192.12 11.34-278.446 48.46-11.646 5-22.86 11.22-34.083 17.1a1964 1964 0 0 0-13.454-148.36c-7.798-64.4-16.698-127.51-36.828-189.42-11.395-35.04-31.469-73.99-60.304-97.65-9.347-7.67-19.491-13.31-30.223-18.8-87.986-39.1-184.787 6.12-274.253 15.42-23.407 2.43-54.966 1.47-73.854-14.66-38.541-32.9-15.423-111.02-32.587-156.52-3.408-9.04-8.133-17.84-14.014-25.52-7.147-9.32-24.447-20.2-24.69-32.69-.134-6.92 4.482-12.3 8.907-17.09 26.089 1.17 70.214-.53 93.394-12.93 2.025-1.08 2.96-2.29 3.554-4.51.804-3.01.592-7.11-1.252-9.72-2.08-2.95-5.732-3.53-9.073-3.39-9.015.37-18.706 3.4-27.652 5.09-16.549 3.14-49.231 6.1-65.525 1.72-16.809-4.52-1.643-37.32-.127-48.45 1.797-13.19.858-27.06-4.813-39.27-16.517-35.54-79.273-44.86-93.311-73.2-2.928-5.92-3.058-11.93.047-17.76 6.288-11.78 18.935-20.6 28.029-30.23 25.749-27.29 38.312-53.66 50.868-88.367 36.105 63.667 89.404 129.747 143.473 179.017a749 749 0 0 0 45.12 37.93c20.675 15.82 123.817 89.08 144.213 87.76 16.769-1.08 49.304-15.43 65.689-22.16 122.542-50.31 222.708-124.88 309.855-224.38 43.19-49.302 85.15-110.929 116.62-168.392 55.09-100.609 103.33-232.505 129.54-343.907 3.16-13.44 17.99-69.073 16.71-80.067-.86-7.411-14.31-11.346-20.18-13.993-129.4-58.321-258.53-127.88-372.239-213.203"/><path fill="#5B326C" d="M1210.28 993.098c2.97-.238 5.53.08 8.04 1.723 2.98 1.944 5.67 4.905 6.02 8.599.26 2.73-1.3 5.53-3.4 7.21-5.63 4.48-29.57 12.71-39.36 18.39-27.65 16.03-39.97 39.61-59.75 62.35l-.9 1.03c-3.57.36-6.07-.12-9.45-1.38-2.03-.76-3.85-1.79-4.62-3.91-1.68-4.6.93-9.61 3.09-13.6 11.57-21.32 41.5-51.63 62.14-64.28 11.64-7.14 25.14-12.374 38.19-16.132"/><path fill="#5B326C" d="M1190.56 909.401c6-.401 11.92-.2 17.91.329 28.52 2.515 57.77 15.569 76.32 37.745 18.8 22.488 23.34 51.224 20.87 79.695-5.33 61.23-42.72 147.29-90.08 186.86-20.03 16.73-42.29 27.99-67.6 34.28-6.04 1.5-13.5 3.38-19.71 2.54-2.96-.4-6.09-2.01-7.55-4.72-1.31-2.42-1.28-4.97-.61-7.57.77-3.01 3.13-5.83 5.88-7.24 6.42-3.3 16.17-4.04 23.31-5.97 10.86-2.93 20.72-7.12 30.74-12.19 26.56-15.28 46.7-38.29 61.7-64.72 24-42.27 53.02-112.88 39.45-161.122a74.34 74.34 0 0 0-35.63-44.485c-33.14-18.518-71.04-15.094-102.04 5.731-7.23 4.856-16.77 14.698-25.1 16.668-2.67.63-5.36.135-7.62-1.425-2.39-1.653-4.5-4.188-4.79-7.172-.33-3.387 1.53-6.637 3.59-9.172 11.22-13.83 39.04-28.632 55.94-33.711 8.25-2.476 16.48-3.54 25.02-4.351"/></svg>