<svg xmlns="http://www.w3.org/2000/svg" style="display:block" viewBox="0 0 2048 2048"><path fill="#FEFEFE" d="M0 0h2048v2048H0z"/><path fill="#2F1D69" d="M635.597 495.283c.344.071.693.126 1.034.214 3.181.824 4.36 1.825 5.963 4.521.077 3.164-1.034 4.898-2.554 7.53-.98-.1-2.657-.218-3.549-.558-2.459-.936-2.91-2.18-3.807-4.379.303-3.281 1.061-4.599 2.913-7.328M117.341 257.641c1.683.164 4.085.166 5.624.814 2.6 1.096 2.988 2.047 4.148 4.405-.14 3.425-1.122 4.868-3.053 7.513-1.411-.048-3.71.062-5.031-.533-2.625-1.182-3.043-2.304-4.164-4.732-.003-3.444.72-4.658 2.476-7.467m198.391-126.855c2.703-.134 6.221-.579 8.534 1.126 2.29 1.688 2.261 2.824 2.575 5.409-1.083 3.584-2.628 5.088-5.358 7.586-2.362-.358-5.173-.995-7.207-2.344-2.275-1.508-2.641-2.908-3.179-5.442.805-3.152 2.285-4.312 4.635-6.335m176.583 247.946c1.92-.093 4.529-.482 6.388-.103 1.438.294 2.396.936 3.065 2.209 3.337 6.358-3.228 18.714-5.63 25.035-2.51 1.214-2.896 1.641-5.6 1.208-.21-.307-.461-.589-.629-.92-2.472-4.878.18-22.1 2.406-27.429m-381.173 1.741c1.401.233 2.2.477 3.465 1.197 1.476.84 1.815 1.651 2.082 3.401 1.297 8.488-.385 28.473-5.532 35.111-1.492-.476-2.855-.887-4.014-2.018-3.651-3.56-3.443-15.135-3.041-19.918.638-7.595.924-12.492 7.04-17.773m9.892-98.108c1.343.815 2.482 1.811 3.695 2.804 2.67 6.468 3.378 38.913 1.728 46.205-.735 3.252-2.163 3.583-4.729 5.233-1.949-.74-2.57-1.3-4.056-2.686-4.134-9.587-2.287-28.161-1.675-38.704.338-5.83.517-8.794 5.037-12.852m513.27 237.254c1.254.103 2.966.119 4.206.473 3.016.861 3.357 1.521 5.057 3.992 1.211 9.188 2.314 45.595-1.827 52.45-1.024.117-3.171.537-4.271.327-1.842-.351-2.857-1.343-3.691-2.962-2.727-5.302-1.544-47.517.526-54.28M316.212 153.908c2.884.167 4.858.426 7.596 1.496 1.745 2.397 1.771 3.224 2.056 6.193.807 8.418 1.105 38.566-1.029 46.139-.473 1.678-1.499 2.861-2.604 4.159-2.527-.151-4.319-.622-6.676-1.537-1.409-1.447-1.829-2.561-2.091-4.509-.791-5.865-1.369-45.692.414-48.885.625-1.119 1.556-2.037 2.334-3.056m289.039 107.841c2.94.393 4.745.726 7.388 2.209 3.899 5.411 1.134 33.493.789 41.471-1.304 30.105 8.504 15.919 17.299 25.514.365 2.719-.043 3.843-1.232 6.293-6.078.817-11.648 1.037-17.219-1.989-4.836-2.626-7.507-7.415-8.743-12.627-1.89-7.974-1.805-47.634-.5-55.706.33-2.037 1.137-3.445 2.218-5.165m-94.906 358.794c2.453.292 6.761.065 8.227 2.479 4.377 7.212-4.327 59.514 2.986 67.827 2.32.281 4.442.45 6.559 1.537 1.56.801 1.35 1.403 1.869 2.944-.679 3.012-1.47 3.926-3.559 6.034-3.994.462-7.783.482-11.453-1.432-3.055-1.592-5.024-4.192-5.961-7.484-2.839-9.971-2.849-63.743 1.332-71.905m187.896-466.862c2.706-.113 5.102.18 7.755.603 2.395 1.775 2.181 1.817 2.764 4.779 4.742.35 8.429-6.258 14.241-5.822 2.425.182 4.898 2.257 6.288 4.176 1.517 2.093 1.734 3.213 1.206 5.668-3.375 2.07-7.757 2.217-11.619 2.764-1.467 1.226-2.945 2.461-4.3 3.812-4.793 4.778-4.725 9.253-4.648 15.655.157 7.426 2.591 19.066-2.407 24.977-2.665.976-2.899 1.076-5.632.381-1.238-1.089-2.296-2.03-3.041-3.531-3.553-7.159-3.31-46.07-.607-53.462m47.11 224.91c1.915.333 4.632.574 6.178 1.83 6.85 5.567 1.216 48.673 3.147 59.827.56 3.229 1.538 5.365 4.246 7.359 3.847.597 7.457.781 10.162 3.749.299 3.098-.561 4.688-1.926 7.337-5.326.74-9.511 1.133-14.152-2.014-5.591-3.79-8.358-10.644-9.423-17.074-1.478-8.923-2.343-55.288 1.768-61.014m-405.743 1.054c1.802.052 4.161-.091 5.884.385 2.264.626 3.568 1.679 4.404 3.872 4.307 11.299-3.1 47.401 1.766 57.324 2.927 5.969 9.05 5.827 14.561 7.584 1.611 2.559 1.229 3.029.9 6.091-4.141 2.251-7.611 3.49-12.412 3.255-4.06-.199-7.339-1.815-9.97-4.918-2.933-3.458-4.476-7.838-5.253-12.249-2.192-12.456-1.36-48.159.12-61.344m42.319 9.875c.898.082 2.199.161 3.036.428 2.61.832 3.122 1.762 4.429 3.953a144 144 0 0 0 .055 2.969c.316 8.77 8.875 3.198 13.936 8.004.153 2.733.195 2.876-1.295 5.154-3.756 1.891-8.504 1.261-12.621 1.211-.202 8.484-2.37 24.927 1.966 31.995 3.04 4.956 7.047 3.148 11.698 4.611 3.553 1.118 4.736 3.191 6.272 6.329.134.274.262.55.393.826-5.727 2.372-13.303 4.08-19.398 2.135-18.277-5.833-8.913-32.702-12.763-44.454-.67-2.046-6.63-2.076-8.359-5.345.787-2.679.881-3.23 2.907-5.097 2.076-.152 3.944-.382 5.964-.892.808-4.4 1.504-7.9 3.78-11.827m109.306-123.037c2.707.279 4.355.807 6.763 2.07 2.223 3.835.512 6.05 1.512 10.157 3.221 1.956 6.302 1.105 9.962 1.393 2.507.197 3.464.623 5.129 2.448-.007 2.92-.003 2.886-1.876 5.13-4.305 1.893-9 1.58-13.63 1.7-.112 9.229-.899 19.28.721 28.37.7 3.933 1.634 6.102 4.953 8.378 1.598.092 3.209.181 4.799.375 4.691.573 7.131 1.592 9.975 5.237-1.037 1.883-2.19 3.528-3.877 4.904-2.828 2.305-7.508 2.533-10.911 1.797-26.449-5.728-10.153-35.251-18.735-48.33-1.957-1.191-3.675-2.318-5.421-3.819-.384-2.363-.428-3.402.562-5.599 2.825-.945 4.941-1.385 6.655-4.028.533-3.946 1.507-6.695 3.419-10.183m-371.78 240.079c3.243.099 5.226.073 7.968 2.083 2.26 3.653 1.74 8.07 1.795 12.241 3.747.058 8.516-.326 12.141.631 2.424.641 3.771 1.5 5.064 3.589l-1.162 2.148c-4.669 3.05-9.431 3.214-14.845 4.169-.319 6.677-.744 13.466-.481 20.148.937 23.797 10.988 8.979 20.717 17.766-.049.388-.087.779-.146 1.166-.465 3.048-1.424 5.036-4.249 6.549-2.992 1.604-6.524 1.739-9.773.947-8.276-2.02-12.821-6.332-17.319-13.281-1.251-11.089-.313-22.909-.163-34.09-3.633-1.248-7.916-2.397-10.373-5.492l.139-1.075c2.209-2.313 5.452-2.829 8.429-3.702.955-2.087.856-1.324.966-3.373.199-3.677.373-6.842 1.292-10.424m665.9-118.292c2.327.632 3.611 1.472 5.5 2.956 1.99 3.356 1.904 6.917 2.164 10.72a239 239 0 0 1 6.397-.152c4.607-.035 7.239.189 10.733 3.598l.015 2.159c-.342.331-.662.686-1.026.993-4.481 3.769-10.883 2.527-16.336 2.274-.169 8.064-.57 16.241-.298 24.299.109 3.241.455 8.981 3.201 11.152 2.922 2.309 5.684 2.232 9.209 2.035 4.629-.259 7.325-.664 11.355 1.896-.651 1.625-1.155 2.976-2.496 4.165-3.982 3.531-9.031 4.715-14.226 4.507-30.352-1.214-13.108-40.153-19.27-47.291-.916-1.062-4.442-.564-6.384-2.746-.073-2.44-.04-3.734 1.112-5.909.576-.176 2.972-.875 3.428-1.165 1.366-.866 1.472-1.485 1.967-2.873 1.393-3.91 2.618-7.114 4.955-10.618m-538.71 132.887c7.294-.537 15.133-1.131 21.387 3.38 2.939 2.12 4.435 4.582 4.993 8.195-2.859 3.496-19.029-2.255-24.84-1.315-4.354.703-8.231 3.129-10.562 6.904-2.69 4.355-3.898 11.008-2.54 15.971 1.206 4.407 4.305 8.276 8.267 10.538 6.265 3.576 12.995 2.317 19.533.338.754-.394 1.838-1.013 2.655-1.185 2.657-.559 3.308.057 5.162 1.647.279 1.578.658 2.162-.054 3.715-1.497 3.263-4.629 5.573-7.898 6.9-7.176 2.911-15.73 1.263-22.516-1.932-7.152-3.366-13.092-8.609-15.747-16.231-2.49-7.146-1.591-15.306 1.983-21.925 4.595-8.511 11.288-12.202 20.177-15m9.68 124.048c8.239-.525 15.479-.568 22.489 4.334 2.598 1.816 4.19 3.366 4.806 6.498-5.066 4.68-18.969-3.134-29.002.059-3.585 1.14-6.79 3.358-8.426 6.833-2.33 4.952-2.189 14.698.12 19.61 1.556 3.311 4.213 5.102 7.508 6.43 8.73 3.516 14.605 2.387 22.935-1.389 1.347-.526 2.817-.101 4.235.049 1.6 1.763 1.707 1.753 1.853 4.109-2.027 4.092-5.027 6.651-9.208 8.511-7.267 3.233-15.807 2.295-22.922-.855-7.217-3.195-13.134-8.594-15.819-16.142a28.46 28.46 0 0 1 1.464-22.171c4.339-8.619 11.2-12.76 19.967-15.876m-126.879-15.322c2.538.36 4.058.601 6.289 1.98 2.154 3.582 1.181 8.759.975 12.819a269 269 0 0 1 3.054.001c6.507.055 12.179.094 17.036 4.994l-.169 1.917c-5.704 4.694-12.813 3.275-19.721 3.009-.078 8.971-2.185 25.897 3.272 33.397 4.194 5.767 9.256 1.657 14.876 2.6 2.387 2.205 2.462 2.82 3.346 5.994-2.022 1.904-4.046 3.925-6.67 4.962-4.96 1.962-10.269.347-14.86-1.893-19.15-9.341-6.919-28.776-11.74-43.859-2.554-.769-5.075-1.167-7.702-1.566-1.753-1.532-2.664-2.153-2.433-4.771.205-2.325.933-3.097 2.66-4.302a115 115 0 0 0 3.163-.062c9.012-.386 2.127-7.943 8.624-15.22m777.399-490.026c.461-.009.922-.033 1.383-.028 3.429.032 5.121.367 7.624 2.776 1.744 3.789 1.244 8.022 1.205 12.113 7.359-.372 12.582-1.082 19.132 2.823l.668 3.69c-7.018 4.373-12.406 3.416-20.374 2.905-.212 8.953-2.257 23.216.585 31.559 2.631 7.725 14.065 2.182 19.864 4.836-.538 3.703-.93 6.323-4.111 8.769-3.781 2.909-9.99 3.101-14.432 2.042-26.389-6.292-8.514-35.843-15.424-46.558-1.629-.339-3.329-.644-4.909-1.169-2.292-.761-3.391-1.155-4.451-3.427.922-2.549 3.666-3.675 5.918-4.82 6.634-3.372 2.82-9.098 7.322-15.511m-535.307 503.98c2.413.501 4.03.696 5.977 2.311.237 2.064.548 3.966 1.088 5.973a252 252 0 0 1 7.202-3.31c7.297-3.183 15.844-4.965 23.442-1.619 4.198 1.848 6.717 5.419 8.225 9.638 2.585 7.228 4.716 34.833.621 41.511-1.319 2.151-3.029 2.866-5.358 3.397l-2.013-1.344c-4.108-8.431-2.152-22.103-1.998-31.382-.83-4.585-2.03-8.928-6.061-11.746-3.416-2.388-8.798-3.469-12.87-2.599-17.821 3.806-5.249 35.118-12.484 45.673-2.598.99-2.948 1.046-5.671.51-1.745-1.903-2.496-3.206-2.698-5.861-.691-9.042-1.073-38.61.309-46.633.318-1.845 1.192-3.055 2.289-4.519M660.953 520.37c1.918.137 4.4.079 6.224.63 2.901.878 3.923 3.856 5.383 6.255 6.119-.736 10.78-4.541 16.598-6.129 5.23-1.428 10.937.429 15.407 3.183 5.093 3.137 7.923 9.875 9.227 15.442 2.226 9.505 3.349 27.476-1.826 35.914-2.333 1.305-2.242 1.428-4.826.856-5.226-5.299-3.076-22.291-3.127-29.771-.354-3.057-.785-5.968-2.279-8.713-1.903-3.498-4.885-5.92-8.787-6.789-4.261-.949-9.178-.579-12.854 1.927-12.427 8.472-6.949 27.422-9.827 39.699-.612 2.61-1.196 3.45-3.478 4.743-1.759-.516-2.834-.795-4.203-2.097-3.241-3.083-1.725-48.215-1.632-55.15M148.215 279.503c2.071.009 4.057.274 6.11.528 1.267 1.083 2.035 1.898 2.943 3.335.268.425.513.864.77 1.296 5.173.852 11.93-3.801 17.355-4.817 5.294-.992 10.81-.367 15.29 2.794 5.161 3.64 7.669 9.813 8.537 15.888 1.229 8.593 2.174 30.884-3.23 37.698-1.262 1.592-.598 1.071-2.88 1.321-.309-.285-.648-.541-.927-.855-6.296-7.089-4.338-23.898-4.227-32.941-.691-4.383-1.103-8.282-4.595-11.417-2.751-2.47-8.968-3.924-12.611-3.668-19.864 1.398-6.976 37.295-15.643 46.938l-2.137-.317.669 1.175-1.534.342c-1.454-.607-2.332-.623-3.174-2.072-3.389-5.833-2.499-47.981-.716-55.228m-8.763 100.498c2.499.367 4.282.827 6.547 1.952 2.414 3.191 2.681 6.651 2.364 10.529-.398 4.872-.389 9.736-.433 14.621 5.929-4.431 14.037-7.749 21.558-7.342 4.793.259 8.937 2.544 11.975 6.22 7.846 9.49 7.931 27.501 6.496 39.277-.446 3.663-1.331 8.509-4.607 10.714-1.332.896-1.75.461-3.194.194-5.714-6.069-3.283-23.232-3.299-31.554-.443-2.52-.769-5.438-1.845-7.77-1.638-3.548-5.944-6.11-9.603-7.043-3.632-.925-7.44.01-10.515 2.062-12.728 8.494-4.61 25.489-7.103 37.87-.506 2.51-1.478 4.637-3.81 5.916-1.397.765-1.672.236-3.032-.274-.718-1.081-1.384-2.078-1.839-3.303-2.682-7.23-2.686-65.678.34-72.069m135.111-227.75c6.135-.326 16.082-.805 20.749 3.843 2.46 2.45 2.694 5.271 2.305 8.506-4.981 7.071-16.022-4.905-26.265.453-2.078 1.087-2.928 2.781-3.466 4.907 3.275 6.623 19.387 8.639 25.908 12.728 3.404 2.134 6.251 5.005 7.04 9.072.811 4.178-.902 8.932-3.362 12.28-4.682 6.371-12.297 7.879-19.597 9.105-7.382-.762-15.649-1.231-20.596-7.499-2.008-2.543-2.149-4.412-1.706-7.517 6.808-7.631 14.286 3.983 25.603 2.377 4.289-.609 4.382-.368 7.044-3.897-7.475-9.831-29.735-11.131-33.001-23.81-.838-3.256.333-7.329 2.064-10.15 3.823-6.233 10.547-8.697 17.28-10.398m273.33 226.448c1.693.654 2.987 1.416 4.525 2.361 4.053 6.545 1.878 20.238 1.775 27.883a57 57 0 0 1 6.007-3.712c6.081-3.282 14.04-5.532 20.842-3.248 5.27 1.769 8.935 5.984 11.14 10.962 4.133 9.329 5.58 31.363 1.189 40.744-1.003 2.141-1.61 2.85-3.924 3.575-.301-.218-.632-.399-.904-.652-6.254-5.829-4.454-24.662-4.443-32.82-.398-2.039-.919-4.266-1.816-6.144-1.643-3.444-5.805-5.485-9.289-6.457-4.151-1.158-8.727-1.098-12.455 1.297-11.956 7.681-1.574 28.103-5.661 38.855-1.262 3.32-2.996 5.008-6.264 6.46-1.19-.223-2.022-.061-2.807-1.116-3.746-5.04-2.314-60.868-1.89-70.503.171-3.897 1.14-4.854 3.975-7.485m-49.81-226.457c4.061-.325 8.21.004 12.241.572 4.342.612 9.276 1.973 11.967 5.664 1.48 2.03 1.557 2.226 1.192 4.577-8.115 5.907-22.349-1.964-31.572 2.343-1.636 2.432-1.986 2.449-1.639 5.308 6.3 7.939 21.463 7.445 30.038 13.161 2.914 1.943 3.886 5.078 4.459 8.379.647 3.724-.279 7.309-2.462 10.376-4.81 6.758-12.005 8.925-19.778 10.203-7.074-.514-14.659-1.082-20.334-5.815-2.497-2.083-3.406-3.99-3.608-7.274 1.068-2.591 1.196-2.975 3.462-4.579 2.626-.131 3.317.48 5.549 1.702 5.499 3.01 14.154 6.359 20.339 3.479 2.254-1.05 2.577-2.27 3.294-4.395-2.312-5.646-16.825-8.572-22.381-11.41-4.663-2.382-9.329-6.051-10.787-11.314-1.081-3.907-.154-8.508 2.028-11.884 3.941-6.099 11.394-7.676 17.992-9.093m54.912-.008c6.494-.42 16.646-.153 22.123 3.65 2.213 1.537 2.88 2.732 3.197 5.31-6.054 10.987-21.326-2.881-30.384 2.74-1.291 2.52-1.167 3.31-1.066 6.185 4.111 6.628 17.769 7.727 24.859 11.421 4.331 2.257 9.378 5.811 10.544 10.885.766 3.336-.624 6.72-2.457 9.451-4.875 7.263-10.994 9.309-19.253 10.938-6.945.063-15.599-.848-21.224-5.255-2.554-2.001-3.78-3.942-4.147-7.225 4.326-8.588 19.594 4.293 28.416-.234 2.147-1.101 2.953-2.369 3.682-4.569-3.157-6.193-15.192-8.075-21.467-10.912-5.016-2.268-10.01-5.712-11.858-11.165-1.266-3.737-1.035-8.894 1.049-12.313 3.579-5.871 11.779-7.744 17.986-8.907M424.786 378.51c2.236.222 3.654.454 5.623 1.559 4.327 6.396 1.956 20.431 1.801 28.042 1.923-1.52 3.879-3.084 6.013-4.299 5.58-3.178 13.734-4.735 19.942-2.669 5.507 1.832 9.56 6.545 11.933 11.692 4.172 9.051 5.975 31.458 1.597 40.751-1.172 2.487-2.066 3.117-4.6 3.946-.9-.381-1.447-.553-2.257-1.195-4.539-3.603-2.779-28.65-2.842-34.455-.57-1.883-1.337-3.67-2.363-5.354-1.694-2.782-4.381-4.961-7.604-5.655-4.658-1.003-10.282-1.107-14.168 2.078-8.398 6.881-4.591 26.704-5.189 36.455-.187 3.043-.335 5.262-2.637 7.348-2.145.466-3.467.936-5.625.244-1.417-.454-1.788-.989-2.264-2.4-2.14-6.346-1.466-61.057-.165-69.459.402-2.598 1.43-4.424 2.805-6.629M302.262 619.506c2.719.238 4.006.329 6.292 1.991 4.54 7.22 2.254 20.069 2.109 28.379.52-.257 1.036-.521 1.559-.771 7.372-3.524 16.82-5.201 24.599-1.991 4.763 1.965 9.563 6.126 11.437 11.014 3.195 8.337 3.763 32.278.013 40.669-1.122 2.51-1.506 2.544-3.932 3.467l.349-.944c-1.969.056-1.681.483-2.829-.641-5.085-4.979-2.859-27.64-2.884-34.85-.766-3.226-1.765-6.565-4.797-8.362-3.512-2.083-11.07-3.312-15.076-2.455-16.703 3.574-4.387 34.496-10.784 45.271-2.416 1.278-2.628 1.198-5.36.837-2.419-1.937-2.71-2.804-3.145-5.874-1.455-10.265-1.511-61.47.136-71.01.325-1.88 1.241-3.2 2.313-4.73m527.031-239.91c2.644.12 4.32-.013 6.561 1.562 4.345 6.816 2.135 19.057 2.284 27.092 6.674-3.78 13.337-6.705 21.222-6.376 5.544.231 10.47 2.486 14.033 6.774 7.388 8.889 7.712 24.893 6.589 36.005-.531 5.262-1.33 10.553-5.65 14.032l-2.236-.671c-5.656-6.99-3.455-23.782-3.619-32.414-1.107-4.239-1.987-7.747-5.573-10.549-3.213-2.51-9.985-3.303-13.922-2.789-19.983 2.61-5.628 33.425-12.873 43.207-2.595.858-4.136 1.254-6.928 1.029-1.876-1.744-2.105-2.201-2.528-4.835-1.452-9.062-.871-58.076.4-67.459.254-1.873 1.16-3.115 2.24-4.608M371.348 153.251c2.359-.173 4.749-.347 7.11-.124 5.349.504 10.557 2.724 13.861 7.091 2.352 3.11 3.58 6.962 4.242 10.764.942 5.404 1.687 31.654.181 36.029-.818 2.377-2.333 3.544-4.728 4.295-2.346.735-4.093.044-6.096-1.096-3.71-5.067-1.944-13.521-1.638-19.562.358-7.071 1.649-17.378-3.842-22.871-3.604-3.607-7.8-3.169-12.434-2.942l-1.493.085a20.3 20.3 0 0 0-5.042 2.605c-10.708 7.545-4.136 27.183-6.701 38.148-.742 3.172-2.018 4.339-4.707 6.003-1.262.055-2.818.523-3.852-.342-2.484-2.077-3.084-6.58-3.39-9.621-.914-9.052-1.139-32.119-.068-40.802.247-2.002 1.279-4.081 2.771-5.446 1.913-1.75 3.763-2.169 6.251-2.275 2.23 1.046 2.324 1.574 3.595 3.734 4.602.494 11.059-2.878 15.98-3.673m-181.08-.437c2.097.017 6.231-.057 7.887 1.195 7.068 5.343 3.032 26.736 4.748 35.297.729 3.634 2.164 7.334 5.651 9.176 3.609 1.907 9.498 1.676 13.215.22 14.967-5.864 1.663-32.694 8.079-42.94 1.229-1.963 3.281-2.97 5.596-2.925 1.78.035 3.074.794 4.236 2.02 3.511 3.703 2.609 10.15 2.58 14.893.111 9.585 2.369 30.98-1.333 38.833-1.18 2.503-3.025 3.688-5.542 4.301-2.419-.588-3.49-2.146-5.069-3.931l-.717-.823c-2.097-.134-1.358-.276-3.263.289-7.792 2.313-14.407 4.974-22.441 1.739-5.781-2.329-9.92-7.6-12.305-13.205-3.812-8.96-4.887-34.845-1.322-44.139m482.026 490.978c1.728-.037 3.467.04 5.196.072 11.576 6.676 4.988 30.866 15.517 41.526 2.22 2.248 6.574 4.119 9.786 3.76 14.633-1.636 7.468-34.949 12.838-43.455 2.459-1.606 2.921-1.627 5.88-1.719 2.461 1.462 3.034 1.742 4.032 4.592 3.935 11.24-6.542 49.396-11.427 60.512-1.888 3.168-4.325 6.3-7.181 8.642-6.413 5.256-15.618 7.105-23.72 6.051-3.521-.458-6.209-1.239-8.414-4.214-.482-2.714-.582-3.187.39-5.737 3.063-1.289 4.942-.702 8.232-.34 5.026.552 9.857 1.27 14.559-1.099 6.918-3.487 8.88-10.55 11.024-17.371-3.729 1.224-8.025 2.682-11.975 2.468-5.295-.287-10.409-3.11-13.865-7.057-9.347-10.673-11.629-33.054-10.872-46.631M536.909 520.823c3.679.076 5.538-.298 8.718 1.653 4.931 7.492 2.142 18.122 3.03 26.762.548 5.34 2.322 10.198 6.719 13.531 3.461 2.624 7.831 3.384 12.047 2.504 19.251-4.017 7.906-32.583 15.317-43.761l2.056-.403c3.035 1.91 4.881 3.793 5.716 7.366 3.772 16.122-5.396 45.721-14.259 59.55-5.291 6.918-10.303 11.694-19.081 13.5-5.342 1.099-16.484 1.155-20.888-2.731-2.173-1.916-2.204-2.869-2.686-5.576 3.217-8.006 15.486 2.398 26.022-2.865 5.914-2.954 9.629-9.199 11.827-15.198-4.029-1.892-9.371.172-13.865-.262-6.048-.586-11.791-5.352-15.075-10.18-7.642-11.235-8.244-30.983-5.598-43.89m414.966-390.108c2.722.159 4.466.527 7.042 1.588 4.856 5.895 2.51 18.867 2.561 26.364 4.191-2.384 8.299-4.599 13.029-5.756 6.09-1.489 12.77-1.415 18.175 2.103 5.401 3.517 8.398 9.626 9.718 15.766 2.04 9.505 3.46 30.797-2.29 38.829-1.57 2.195-1.821 2.28-4.334 2.658-.338-.338-.69-.663-1.015-1.013-6.167-6.642-4.008-24.82-3.866-33.504-.495-3.162-.971-6.657-3.138-9.182-2.573-2.997-6.151-4.621-10.045-5.107-3.973-.497-8.099.471-11.168 3.117-8.646 7.452-4.332 29.804-4.679 40.368-1.243 2.159-1.804 2.969-4.408 3.711-2.65.754-4.436.273-6.738-1.013-.908-1.168-1.44-2.145-1.668-3.629-1.548-10.064-1.359-61.333.266-70.078.377-2.028 1.425-3.546 2.558-5.222M693.559 400.238c4.618-.415 9.411-.852 13.964.291 8.419 2.112 12.953 7.972 17.333 14.959.709 9.1 2.56 33.183-.88 40.992-.876.402-1.609.808-2.605.921-2.719.309-4.738-1.132-6.79-2.632-.248-.182-.491-.37-.737-.555-5.728.382-10.483 3.454-16.028 4.484-6.12 1.137-12.825-2.213-17.714-5.564-2.642-4.231-4.127-9.025-4.075-14.041.218-21.049 31.836-10.044 39.099-17.055-.515-2.794-1.577-5.236-3.294-7.509-6.578-8.712-17.828-1.692-26.401-2.439-2.519-1.613-3.333-1.821-4.568-4.63.143-.337.243-.695.429-1.01 2.242-3.817 8.312-5.034 12.267-6.212"/><path fill="#FEFEFE" d="M692.652 433.271c5.35-.869 12.789-1.515 17.862.667 2.473 1.064 3.073 1.777 3.936 4.261-1.044 4.469-5.095 6.957-8.688 9.356-.425.114-.847.244-1.277.343-5.154 1.184-11.934 1.566-16.257-2.176-1.911-1.654-1.735-2.967-1.803-5.246 1.463-3.455 3.307-4.922 6.227-7.205"/><path fill="#2F1D69" d="M293.493 400.307c4.593-.221 9.755.114 13.909 2.221 6.021 3.056 9.932 8.965 11.728 15.335 2.537 8.999 3.611 28.654-.981 36.767-2.292 1.782-3.277 2.217-6.187 2.308-3.014-2.279-1.585-4.282-3.844-6.72-3.946 2.254-8.146 4.803-12.528 6.072-7.631 2.208-13.801.325-20.47-3.556-2.417-2.769-4.362-5.583-5.173-9.218-.916-4.107-.404-8.128 1.988-11.642 7.692-11.302 22.825-7.746 34.284-9.832.307-.76.693-1.561.707-2.405.045-2.629-.861-4.838-2.863-6.559-6.162-5.299-19.82-2.25-27.076-.963l-1.36-.955c-1.054-2.7-1.127-2.527-.04-5.198 5.296-4.057 11.49-4.832 17.906-5.655"/><path fill="#FEFEFE" d="M296.688 431.362c1.292-.11 2.588-.226 3.883-.281 3.37-.145 4.583.271 7.06 2.567.477 2.731.451 4.044-1.061 6.469-3.213 5.155-7.617 6.503-13.246 7.656-2.844-.014-6.982.019-9.424-1.69-2.493-1.745-2.591-2.598-3.189-5.377.513-1.537.959-2.929 1.98-4.215 3.603-4.54 8.709-4.588 13.997-5.129"/><path fill="#2F1D69" d="M185.793 519.257c3.189-.242 6.506.598 9.431 1.849 7.734 3.309 14.98 11.268 17.993 19.086 1.233 3.198 1.531 6.363-.054 9.508-2.969 5.894-34.223 1.473-42.391 4.022-.818.888-1.766 1.294-1.517 2.617.691 3.66 5.907 7.554 9.012 9.141 7.355 3.761 15.136 2.204 22.562-.287l1.901-.137c2.638 1.344 2.719 1.317 3.944 3.994-.233.929-.326 1.56-.881 2.416-1.966 3.034-7.24 4.917-10.547 5.782-8.662 2.264-16.569.343-24.016-4.353-6.682-4.213-11.953-10.275-13.516-18.195-1.498-7.594.414-15.753 4.747-22.121 5.753-8.453 13.702-11.584 23.332-13.322"/><path fill="#FEFEFE" d="M183.548 528.99c2.421-.012 5.082.315 7.41.983 4.481 1.287 8.418 4.769 10.681 8.749.116 2.781-.006 2.841-1.614 5.138-3.429 1.942-7.706 1.238-11.525 1.106l-19.496-.024c.623-2.165 1.228-4.396 2.104-6.474 2.346-5.567 7.134-7.504 12.44-9.478"/><path fill="#2F1D69" d="M554.215 279.266c3.079-.059 6.354.012 9.369.66 6.044 1.298 10.938 4.964 14.056 10.301 6.277 10.742 6.069 34.701 2.839 46.658-1.85 1.637-1.809 1.571-4.289 1.602-2.578-1.61-3.589-3.335-5.087-5.876l-.575-.994c-4.985 2.561-10.052 5.305-15.658 6.174-8.214 1.274-15.201-2.562-21.47-7.451-.528-1.036-1.05-2.079-1.472-3.163-1.508-3.876-1.846-9.58.216-13.338 6.837-12.462 25.58-6.532 36.227-10.754 2.014-.798 1.891-.834 2.728-2.958-1.591-3.191-4.285-5.422-7.269-7.337-8.711-5.59-18.419-1.547-27.692.372l-1.779-2.46c-.148-1.539-.627-2.594.272-3.963 3.583-5.456 13.571-6.536 19.584-7.473"/><path fill="#FEFEFE" d="M550.811 313.094c5.318-.365 12.538-1.536 16.952 2.215 2.093 1.778 2.235 2.37 2.519 4.913-2.145 4.046-5.371 5.987-9.518 7.65-.301.068-.601.145-.904.202-6.237 1.17-10.229 1.185-15.476-2.523-.816-1.574-1.601-2.257-1.271-4.103.758-4.241 4.366-6.198 7.698-8.354"/><path fill="#2F1D69" d="M237.602 279.21c7.561-.565 13.843-.086 20.197 4.381 6.037 4.243 11.209 11.57 12.294 18.972.5 3.415-.46 5.116-2.447 7.793-8.157 4.408-32.484 2.167-42.938 2.254 2.544 4.887 4.99 9.476 9.777 12.529 7.029 4.483 14.759 2.782 22.3.942.285-.135.556-.305.856-.403 2.189-.712 3.541-.719 5.643.12.918 1.931.853 2.127.51 4.255-2.302 3.107-5.108 5.072-8.75 6.436-7.94 2.976-17.642 1.542-25.149-2.021-6.884-3.268-12.141-8.904-14.46-16.212-2.611-8.229-1.784-17.69 2.483-25.225 4.568-8.066 11.018-11.503 19.684-13.821"/><path fill="#FEFEFE" d="M235.926 289.157c2.822-.337 5.888-.672 8.711-.209 4.322.708 9.805 4.908 11.945 8.699 1.177 2.085 1.209 3.356.718 5.62-2.704 2.034-3.743 1.664-7.05 1.74-6.356.073-18.15 1.678-23.353-2.24-1.157-.871-.962-1.848-1.192-3.169 1.666-4.63 6.316-7.773 10.221-10.441"/><path fill="#2F1D69" d="M635.844 399.149c6.68-.343 12.23 1.031 17.615 5.132 5.465 4.161 12.466 12.111 12.936 19.339.17 2.609-.171 4.657-2.098 6.566-6.877 6.813-32.756 3.921-42.569 3.872 2.625 4.882 5.506 9.677 10.421 12.565 7.274 4.275 15.135 1.861 22.598-.364 1.947-.653 2.805-.54 4.774-.004 1.005 2.419 1.042 2.434.322 4.944-3.134 3.416-6.598 5.617-11.113 6.846-7.518 2.046-16.464.843-23.204-3.049-6.848-3.955-11.36-10.504-13.275-18.124-2.052-8.165-1.176-17.207 3.251-24.464 4.9-8.033 11.526-11.056 20.342-13.259"/><path fill="#FEFEFE" d="M635.035 408.996c3.455.175 6.86.536 10.074 1.917 6.082 2.615 8.398 8.339 10.86 13.987l-14.719.573c-4.434.2-14.312 1.521-18.065-.39-.943-1.998-1.252-2.471-.296-4.695 2.237-5.202 7.11-9.207 12.146-11.392"/><path fill="#2F1D69" d="M438.472 280.198c6.938-.46 13.805-.389 19.963 3.283 5.832 3.477 9.57 8.927 11.216 15.45 1.087 4.306 2.483 9.347.084 13.344-8.635 4.956-25.963-.066-36.139 1.502-2.587.399-3.444.883-4.877 3.009.401 3.153 2.782 6.187 5.357 8.008 5.937 4.197 15.397 2.899 22.18 1.974 1.441-.48 3.121-1.181 4.621-1.36 2.735-.326 3.331.021 5.479 1.458l.082 2.338c-2.239 3.579-5.686 5.785-9.612 7.251-7.18 2.681-16.128 2.82-23.125-.487-7.679-3.63-14.047-10.148-16.694-18.294a28.72 28.72 0 0 1 1.752-22.205c4.338-8.344 10.983-12.55 19.713-15.271"/><path fill="#FEFEFE" d="M438.846 290.153c3.423-.038 7.015-.223 10.244 1.101 3.655 1.498 8.901 5.058 10.19 8.967.561 1.701-.213 2.397-.893 3.922-3.151 2.112-7.008 1.47-10.637 1.331-4.138.12-8.286.261-12.426.256-3.195-.005-4.75-.333-7.022-2.581-.182-1.426-.248-2.565.277-3.939 1.964-5.138 5.481-6.9 10.267-9.057"/><path fill="#2F1D69" d="M226.864 400.119c8.631-.554 15.563.745 22.238 6.528 4.77 4.132 10.387 12.14 10.446 18.72.02 2.188-.552 4.341-2.298 5.784-4.643 3.837-34.918 1.931-42.591 1.869.175.311.354.62.525.933 2.689 4.919 4.914 8.557 9.933 11.355 6.054 3.375 12.644 2.629 19.117 1.008 3.385-1.126 4.506-1.964 7.998-.946 1.365 2.256 1.322 2.199.887 4.807-2.186 2.975-4.528 4.783-8.031 6.074-8.036 2.962-18.965 1.508-26.614-1.997-6.897-3.161-12.022-8.783-14.279-16.053-2.508-8.079-1.842-16.999 2.467-24.345 4.812-8.205 11.31-11.415 20.202-13.737"/><path fill="#FEFEFE" d="M231.653 409.277c1.26.17 2.605.309 3.84.642 4.671 1.259 8.682 4.464 11.248 8.507.031 2.822.012 2.764-1.79 4.946-4.306 2.348-9.313 1.6-14.084 1.47-3.547.12-9.42.986-12.642-.628-2.316-1.16-2.463-1.938-3.093-4.223.48-1.215.485-1.412 1.368-2.618 3.368-4.601 9.808-7.101 15.153-8.096"/><path fill="#2F1D69" d="M192.93 644.217c5.768-.29 11.397.343 16.493 3.244 6.87 3.91 13.228 11.114 14.873 19.013.548 2.634.334 5.483-1.484 7.605-5.356 6.253-36.346 3.323-45.272 3.773 3.304 4.947 6.443 9.489 11.95 12.191 7.608 3.733 15.206 1.757 22.754-.889l1.739-.882c.701.465 1.669 1.06 2.23 1.669 1.784 1.94 1.792 2.845 1.713 5.278-2.426 2.868-4.869 3.84-8.426 4.768-8.321 2.172-21.233 2.596-28.801-2.163-6.341-3.988-11.626-10.977-13.292-18.302a28.53 28.53 0 0 1 4.07-22.101c5.209-7.775 12.495-11.439 21.453-13.204"/><path fill="#FEFEFE" d="M190.89 654.265c3.043-.269 6.177-.486 9.198.118 3.815.761 9.724 4.791 11.259 8.452.97 2.313.522 3.201-.485 5.223-2.897 2.105-5.314 1.8-8.711 1.734-6.721.007-17.857 2.191-23.028-2.384l.051-2.185c3.151-5.647 5.851-8.115 11.716-10.958"/><path fill="#2F1D69" d="M359.438 287.743c7.04-5.176 13.106-9.508 22.31-8.265a22.28 22.28 0 0 1 14.998 8.846c6.353 8.756 5.424 34.774 3.95 45.642-1.749 2.25-2.414 2.406-5.103 3.472-10.518-2.389-1.084-35.16-9.771-45.263-2.496-2.903-5.606-3.697-9.28-3.975-3.814-.288-7.43.573-10.227 3.309-6.901 6.751-5.52 19.309-5.342 27.991.141 5.444 1.429 12.718-2.558 16.975-2.782.617-3.157.539-5.856-.409-4.678-6.324-1.261-23.499-1.733-31.742-.279-4.86-1.201-10.601-5.467-13.644-3.08-2.198-7.262-2.375-10.851-1.594-18.87 4.105-7.414 34.69-15.248 48.148l-1.838.467c-.989-1.057-1.121-1.104-1.964-2.547-4.913-8.409-4.773-43.814-2.208-53.345 1.625-1.76 2.158-2.44 4.807-2.239 2.055.157 3.443 1.337 4.789 2.736.194.202 1.216 1.355 1.484 1.534.468.313.937.771 1.501.778.998.013 11.541-4.843 14.015-5.394 8.244-.134 13.537 3.318 19.592 8.519m79.484-135.378c5.508.33 10.159 1.042 14.866 4.163 6.593 4.373 13.241 12.509 14.482 20.524.378 2.443-.052 4.968-1.73 6.869-5.381 6.097-35.512 3.168-44.026 3.097 2.347 4.971 4.632 9.763 9.678 12.51 8.062 4.388 18.001-.943 25.778-3.509.745.753 2.076 1.901 2.63 2.863 1.374 2.387 1.009 3.044.317 5.526-3.818 3.805-12.323 7.044-17.589 8.039-6.588 1.245-13.62-.365-19.117-4.152-7.294-5.024-12.08-13.101-13.445-21.807-1.278-8.155.424-17.215 5.623-23.77 5.885-7.421 13.613-9.296 22.533-10.353"/><path fill="#FEFEFE" d="M431.671 164.182c3.124-.28 6.415-.701 9.528-.153 3.906.687 9.607 3.685 11.792 7.076 1.27 1.972 1.036 2.416.574 4.56-2.991 1.867-4.401 1.667-7.863 1.835-5.995.203-13.977 1.262-19.7-.793-2.26-.812-2.28-1.146-3.194-3.217 1.179-4.086 5.467-7.059 8.863-9.308"/><path fill="#2F1D69" d="M287.383 502.708c1.019-.037 2.039-.1 3.058-.076 1.796.042 3.906.461 5.036 1.96 1.969 2.611 2.079 5.712 1.853 8.854-.344 4.77-.403 9.523-.483 14.304 6.322-4.467 12.853-8.197 20.935-6.87 6.763 1.111 10.747 4.728 14.662 10.084a80 80 0 0 1 4.157-4.096c5.113-4.682 11.646-7.169 18.671-6.623 5.321.413 9.814 3.03 13.167 7.134 8.076 9.886 7.815 27.118 6.687 39.242-.36 3.878-.71 8.095-3.888 10.704-2.222.18-3.259.336-5.064-1.344-5.653-5.264-2.178-20.82-2.482-28.133-.213-5.131-1.007-11.231-5.209-14.747-3.463-2.898-7.445-2.868-11.722-2.561l-1.132.092c-21.466 8.578-4.713 36.716-14.648 46.968-2.311.483-2.281.552-4.345-.57-5.123-9.058-1.639-24.183-3.108-34.502-.608-4.265-1.906-9.661-5.89-12.061-3.827-2.306-8.858-.821-12.674.74-14.904 6.096-4.795 32.158-9.843 44.558-1.954 1.778-1.866 1.72-4.511 1.749-.226-.267-.483-.51-.678-.801-5.117-7.637-3.604-62.484-2.549-74.005m577.309-306.972c2.577-8.077 9.903-36.902 15.325-41.547.986-.845 4.218-.688 5.418-.319 2.775.852 3.059 1.828 4.25 4.217.217 4.612-1.57 8.433-3.17 12.669-3.788 9.318-8.134 34.725-16.925 39.171-2.146 1.086-4.469 1.723-6.811.821-9.285-3.576-15.072-29.59-18.016-38.418-3.171 9.697-5.852 20.414-10.408 29.536-1.919 3.841-4.792 8.448-9.339 9.41-1.808.383-5.383.081-6.733-1.242-2.057-2.016-16.718-46.319-16.814-50.098-.076-2.947 1.065-3.831 3.024-5.841 1.697.151 3.973.194 5.493 1.091 6.653 3.925 12.374 31.84 14.848 39.682 4.91-11.746 8.102-32.462 18.502-40.201 1.451-.23 2.26-.672 3.637.048 7.401 3.872 14.496 31.828 17.719 41.021M456.307 645.175c5.13-.343 9.797-.498 14.758 1.065 7.559 2.382 13.8 7.404 17.309 14.562 3.343 6.82 3.913 15.191 1.271 22.34-3.52 9.526-10.599 14.409-19.495 18.259-6.223.838-11.707.908-17.611-1.493a28.58 28.58 0 0 1-15.915-15.94 29.26 29.26 0 0 1 .392-22.439c3.889-8.854 10.583-13.049 19.291-16.354"/><path fill="#FEFEFE" d="M456.111 655.153c3.108-.38 6.375-.636 9.482-.091 4.844.85 9.254 4.492 11.672 8.681a19.14 19.14 0 0 1 1.655 15.308c-1.814 5.817-5.131 8.918-10.32 11.815-2.609.561-5.456.95-8.133.715-4.413-.389-8.639-2.99-11.225-6.544-3.132-4.304-4.049-9.877-3.147-15.055 1.196-6.868 4.496-10.872 10.016-14.829"/><path fill="#2F1D69" d="M416.717 520.318c5.091.047 9.857.45 14.456 2.768 6.988 3.521 11.748 9.441 14.014 16.905a31.05 31.05 0 0 1-2.839 24.313c-4.82 8.289-11.541 11.647-20.507 13.87-6.237-.088-11.825-.975-17.249-4.26a29.1 29.1 0 0 1-13.464-18.775c-1.698-7.674-.386-15.923 4.047-22.463 5.153-7.601 12.778-10.866 21.542-12.358"/><path fill="#FEFEFE" d="M412.854 531.099c3.041-.439 6.183-.798 9.229-.16 4.423.927 8.312 4.409 10.482 8.267 2.533 4.502 3.042 10.079 1.65 15.027-1.718 6.112-5.258 9.777-10.624 12.899-2.349.45-4.598.767-6.996.504-4.555-.498-8.829-3.241-11.469-6.936-3.317-4.642-4.201-10.704-2.934-16.214 1.49-6.483 5.205-9.961 10.662-13.387"/><path fill="#2F1D69" d="M555.344 645.157c6.743-.461 12.854-.897 19.295 1.712a29.08 29.08 0 0 1 16.21 15.929c2.878 6.962 3.172 15.132.21 22.122-3.18 7.508-9.431 12.168-16.781 15.108-6.49 1.436-13.638 1.5-19.9-.912a27.74 27.74 0 0 1-16.109-15.957c-2.968-7.746-2.719-17.533 1.021-24.981 3.569-7.107 8.77-10.435 16.054-13.021"/><path fill="#FEFEFE" d="M556.792 655.114c2.228-.195 4.504-.421 6.742-.354 5.307.158 10.553 3.182 13.866 7.237a17.1 17.1 0 0 1 3.7 13.147c-.926 6.613-4.741 10.645-9.902 14.445-2.679.728-5.422 1.353-8.223 1.13-4.299-.342-8.473-2.922-11.163-6.21-3.34-4.081-4.592-9.45-4.055-14.636.712-6.872 3.72-10.668 9.035-14.759"/><path fill="#2F1D69" d="M759.613 153.126c6.375-.492 12.093-.448 17.938 2.521 7.066 3.59 11.95 9.848 14.046 17.466 2.376 8.632 1.533 18.58-3.26 26.263-4.412 7.071-10.289 10.175-18.169 12.096-5.977.073-11.579.177-17.09-2.534-7.293-3.586-12.612-9.966-15.149-17.659-2.431-7.368-2.155-15.661 1.393-22.626 4.419-8.675 11.477-12.538 20.291-15.527"/><path fill="#FEFEFE" d="M760.793 164.139c2.621.052 5.495.024 8.009.827 4.42 1.412 7.823 5.039 9.853 9.116a19.7 19.7 0 0 1 .974 15.354c-1.986 5.641-5.318 7.96-10.582 10.348-2.664.052-5.625.196-8.189-.63-4.35-1.402-7.879-4.997-9.841-9.05a19.65 19.65 0 0 1-.724-15.091c1.956-5.489 5.449-8.314 10.5-10.874"/><path fill="#2F1D69" d="M645.828 650.893c.53-1.308 1.059-2.87 1.835-4.074 1.454-2.256 2.833-2.912 5.304-3.662l2.1 1.167c1.425 2.411 2.117 4.538 2.434 7.339 1.075 9.502 1.284 47.125-.89 55.582-.794 3.088-2.335 5.816-4.45 8.191-5.802 6.514-14.546 9.285-23.05 9.525-5.427.154-14.873-.505-18.573-5.234-1.892-2.419-1.051-3.867-.45-6.592 1.157-1 1.914-1.475 3.249-2.143 5.905 2.789 11.588 4.017 18.153 3.797 4.422-.149 9.712-1.274 12.771-4.753 3.341-3.8 3.054-8.624 2.753-13.347-.107-1.683.219-1.007-1.021-2.105-1.436 1.017-2.891 2.03-4.43 2.887-5.98 3.33-12.669 4.511-19.256 2.343-7.433-2.446-13.542-8.796-17.018-15.668a28.07 28.07 0 0 1-1.304-22.233c3.376-9.052 9.898-13.801 18.27-17.724 9.712-1.146 15.712 1.436 23.573 6.704"/><path fill="#FEFEFE" d="M625.975 654.011c2.344.019 4.736.006 7.067.274 4.657.537 8.491 3.6 11.027 7.406a18.83 18.83 0 0 1 2.482 15.068c-1.744 6.763-5.518 9.866-11.333 13.232-3.026.331-6.344.659-9.298-.278-4.306-1.367-8.009-5.084-9.981-9.068a20.2 20.2 0 0 1-.862-15.659c2.096-5.769 5.549-8.352 10.898-10.975"/><path fill="#2F1D69" d="M645.424 152.296c8.631.157 11.679 2.372 18.811 6.699 4.152.129 4.775-3.53 8.8-4.673 2.588.989 3.227 1.148 4.945 3.27 2.349 11.029 1.465 49.827-2.692 59.438-2.478 5.73-6.676 10.011-12.564 12.188-8.727 3.227-23.403 2.018-31.849-2.123-4.82-2.363-8.368-5.24-10.095-10.405.423-2.946.943-3.224 2.984-5.46.578-.173 1.152-.357 1.732-.52 4.781-1.341 8.339 2.005 12.329 4.272 5.307 3.015 10.641 4.591 16.674 2.683 4.507-1.426 7.926-4.585 10.093-8.737 1.58-3.029 3.094-7.303 2.002-10.666-4.458-.325-10.716 4.645-15.33 5.989-5.967 1.738-11.76.795-17.101-2.271a28.07 28.07 0 0 1-13.48-17.974c-1.645-7.258-.063-13.266 4.058-19.334 5.352-7.878 11.459-10.767 20.683-12.376"/><path fill="#FEFEFE" d="M642.854 164.154c3.931-.308 8.113-.91 11.815.791 5.646 2.595 7.201 8.846 9.036 14.232-2.468 6.497-4.606 9.671-10.435 13.56-2.159.589-4.501 1.078-6.751.821-3.35-.384-6.602-2.017-8.754-4.622-2.886-3.496-3.75-8.002-3.044-12.423.919-5.753 3.642-8.921 8.133-12.359"/><path fill="#2F1D69" d="M484.694 520.223c.55.027 1.1.039 1.648.079 6.313.469 13.762 2.337 17.838 7.594 1.081 1.395 2.073 2.443 3.38 3.637 3.668-4.098 1.602-7.111 8.072-10.341 1.548.405 2.068.121 2.896 1.68 2.977 5.602 1.688 53.86-.23 60.969-1.856 6.881-5.825 12.858-12.238 16.223-9.503 4.986-25.753 4.202-35.847.736-3.556-1.222-5.868-2.725-7.529-6.227.249-3.662 1.015-3.888 3.418-6.51l1.916-.186c6.032 3.075 13.627 6.063 20.48 6.176 5.225.087 13.096-1.812 16.385-6.298 3.033-4.136 5.138-13.664 4.136-18.659l-1.022-.48c-3.816 3.719-8.088 7.291-13.344 8.679-6.77 1.786-13.975.399-19.979-3.074a30.18 30.18 0 0 1-14.384-19.812c-1.636-7.589-.571-16.008 3.972-22.436 5.021-7.102 12.109-10.287 20.432-11.75"/><path fill="#FEFEFE" d="M481.861 531.053a102 102 0 0 1 5.332-.19c8.647-.013 13.953 6.452 19.663 12.073l.098 10.37c-3.286 6.514-5.942 9.51-12.222 13.32-2.955.667-5.875 1.23-8.909.686-4.512-.808-8.758-3.832-11.286-7.615-3.038-4.544-3.96-10.021-2.919-15.346 1.259-6.439 4.941-9.855 10.243-13.298"/><path fill="#2F1D69" d="M117.92 136.077c14.558-.258 38.916-3.47 50.413 7.445 3.753 3.563 5.697 8.721 5.556 13.873-.192 7.019-5.337 11.061-10.142 15.358 4.382 3.433 9.325 6.923 11.645 12.162 2.296 5.186.662 10.392-1.162 15.429a69 69 0 0 1-3.116 3.259c-11.856 11.412-39.602 7.597-54.87 7.388-.514-12.781-1.957-62.696-.063-71.531.29-1.348.966-2.279 1.739-3.383"/><path fill="#FEFEFE" d="M130.481 147.491c7.577-.505 17.137-1.415 24.166 1.924 2.399 1.14 4.343 2.979 5.003 5.634.994 3.996-.747 7.189-2.639 10.528-8.395 3.607-18.007 2.599-26.981 2.526-.072-6.904.059-13.718.451-20.612m.08 31.412c8.432-.333 17.763-1.219 25.625 2.523 2.665 1.268 5.04 3.395 5.8 6.355.984 3.83-.37 6.915-2.257 10.143-9.317 3.285-19.835 2.176-29.591 2.006-.103-7.044.042-13.992.423-21.027"/><path fill="#AB5EC1" d="M1114.4 1743.48c2.19 19.84.67 41.35.66 61.38l-.03 121a2752 2752 0 0 0 54.68.1c8.31-.01 18.19-.99 26.28.66 6.58 1.87 15.55.81 22.45.7a654 654 0 0 1 .26-18.74c.28 5.99.41 11.92.31 17.92l51.26-.1c9.2-.03 20.98-1.27 29.85.71 5.25 2.08 19.42 1.62 24.96.07 17.7-3.18 40.46-1.06 58.63-1.04 4.84.01 16.52 1.4 19.81-1.88l.73 2.24c9.96 2.79 45.49.84 58.44.8l146.11-.45 248.93.24 73.98-.15c12.31-.04 25.63.85 37.82-.58 2.02.86 2.31 1.3 3.66 3.06.44 2.85.56 2.99-.8 5.5-2.72 1.83-5.47 1.8-8.62 1.94-16.54.72-33.33.13-49.88.18l-98.69.11a18348 18348 0 0 0-328.01-.51c-109.14 1.54-218.47.62-327.64.48l-498.402.39-312.775-.22-108.928.12c-16.068.02-33.567 1.63-49.475.2-5.632-.51-11.276-1.67-14.972-6.23l.207-1.62c2.77-2.8 7.587-3.32 11.327-3.66 13.783-1.27 28.779-.14 42.655-.09 33.867.12 67.886.93 101.738.14 15.837 1.64 32.783.58 48.728.6l93.873.12 4.164-6.74.823 1.7-2.29 4.62c4.9 1.48 23.998 1.94 28.282-.08.337-.16.629-.4.944-.6 17.937-.64 44.229-1.98 61.554.17 7.226 1.1 15.129.49 22.455.45-.06-9.48-.135-18.93.324-28.41.801 9.19.474 18.48.401 27.7l51.579.11c9.275 0 19.147-.79 28.31.46 6.529.91 16.255 1.63 22.657-.07 16.966-.76 34.115-.31 51.107-.3 9.45 0 19.901-.94 29.186.52 6.965 1.15 18.162 1.78 24.999-.11 13.07-1.59 69.045-1.88 82.187.03 6.28 1.41 17.616 1.84 23.793-.06 13.869-2.49 72.383-2.29 85.058.2 6.2 1.24 15.851 1.57 21.971-.03 12.44-1.55 69-1.9 81.04 0 7.07 1.42 15.12.67 22.35.59z"/><path fill="#F3EAF1" d="M352.419 1925.5c-13.669-10.74-26.119-22.96-38.674-34.96-104.54-99.87-180.906-242.06-198.289-386.42a644.95 644.95 0 0 1 72.103-387.33c15.859-29.47 33.687-58.42 54.513-84.67 59.557-75.06 143.377-145.94 236.622-173.334 20.124-5.913 41.684-9.315 62.52-11.631 80.096-8.905 155.009-6.66 229.819-43.407 60.093-29.518 111.25-74.216 158.599-120.893 29.984-29.559 59.011-59.883 92.718-85.298 29.81-22.472 60.96-44.842 94.38-61.659 35.72-17.976 75.19-33.773 113.83-44.104 172.74-46.189 375.86-16.358 517.35 97.01 94.51 75.734 152.27 169.943 165.66 291.506 7.06 63.997-1.63 128.61-19.64 190.19-24.77 84.76-54.8 146.58-57 237.79-2.91 120.7 70.3 224.65 98.31 338.38a376.2 376.2 0 0 1 10.62 104.84c-.8 24.74-3.33 49.65-9.55 73.66-9.11 35.18-21.11 68.46-44.07 97.26a148 148 0 0 1-3.42 4.13c17.31-.96 65.72-2.93 80.71-.2-12.19 1.43-25.51.54-37.82.58l-73.98.15-248.93-.24-146.11.45c-12.95.04-48.48 1.99-58.44-.8l-.73-2.24c-3.29 3.28-14.97 1.89-19.81 1.88-18.17-.02-40.93-2.14-58.63 1.04-5.54 1.55-19.71 2.01-24.96-.07-8.87-1.98-20.65-.74-29.85-.71l-51.26.1c.1-6-.03-11.93-.31-17.92a654 654 0 0 0-.26 18.74c-6.9.11-15.87 1.17-22.45-.7-8.09-1.65-17.97-.67-26.28-.66a2752 2752 0 0 1-54.68-.1l.03-121c.01-20.03 1.53-41.54-.66-61.38l.02 183.54c-7.23.08-15.28.83-22.35-.59-12.04-1.9-68.6-1.55-81.04 0-6.12 1.6-15.771 1.27-21.971.03-12.675-2.49-71.189-2.69-85.058-.2-6.177 1.9-17.513 1.47-23.793.06-13.142-1.91-69.117-1.62-82.187-.03-6.837 1.89-18.034 1.26-24.999.11-9.285-1.46-19.736-.52-29.186-.52-16.992-.01-34.141-.46-51.107.3-6.402 1.7-16.128.98-22.657.07-9.163-1.25-19.035-.46-28.31-.46l-51.579-.11c.073-9.22.4-18.51-.401-27.7-.459 9.48-.384 18.93-.324 28.41-7.326.04-15.229.65-22.455-.45-17.325-2.15-43.617-.81-61.554-.17-.315.2-.607.44-.944.6-4.284 2.02-23.382 1.56-28.282.08l2.29-4.62-.823-1.7-4.164 6.74-93.873-.12c-15.945-.02-32.891 1.04-48.728-.6 7.159-.69 14.308-.64 21.494-.65"/><path fill="#FEFEFE" d="M1537.46 854.542c6.11.908 12.58.624 18.76 1.013-.66 11.552.94 22.889.5 34.393-5.7-1.24-12.91-2.833-16.82-7.528-5.84-7.027-2.98-19.422-2.44-27.878M592.747 1040.15c2.672-.12 5.478-.32 8.089.37 4.856 1.3 9.361 5.04 11.557 9.55 1.756 3.6 2.024 7.56.694 11.35-1.788 5.1-5.981 8.08-10.577 10.45-2.785.15-5.706.39-8.462-.14-4.411-.83-8.474-3.74-10.88-7.51a14.3 14.3 0 0 1-1.858-10.96c1.504-6.41 6.042-9.95 11.437-13.11"/><path fill="#F3EAF1" d="M592.746 1045.84c.895-.07 1.789-.15 2.686-.16 3.639-.06 6.741.99 9.208 3.68 2.16 2.36 2.924 4.86 2.764 8.07-.225 4.51-2.94 6.85-6.181 9.48-4.26.04-7.752.14-11.123-2.92-1.765-1.6-2.749-3.62-2.91-6-.354-5.2 2.325-8.41 5.556-12.15"/><path fill="#2F1D69" d="M1881.61 1856.22c1.88 2.67 3.07 3.7 3.28 7-4.47 4.97-40.52 30.44-46.64 33.41-13.72 10.55-29.56 20.73-46.08 26.22-2.91 1.84-6.09 3.92-9.66 2.76-2.4-.78-2.7-1.49-3.61-3.6.57-9.85 11.87-21.87 17.72-29.75 2.23 4.35 3.16 9.2 1.49 13.97-1.75 4.99-5.2 8.24-8.94 11.76 13.69-1.93 33.02-17.94 45.02-25.36 7.7-7.65 44.76-31.66 47.42-36.41"/><path fill="#FEFEFE" d="M1687.11 604.165c3.95.181 7.71.336 11.29 2.181a17.66 17.66 0 0 1 8.72 10.583c1.49 5.07.7 10.588-1.89 15.161-3.4 6.009-8.05 8.224-14.47 9.953-2.83-.038-5.57-.172-8.26-1.15-4.34-1.578-8.24-5.277-10.14-9.469-2.17-4.803-2.06-10.156-.02-14.974 2.88-6.82 8.13-9.773 14.77-12.285"/><path fill="#F3EAF1" d="M1684.98 609.992c1.72-.06 3.44-.119 5.15-.004 3.86.259 7.2 1.708 9.71 4.724 2.18 2.614 2.82 5.839 2.29 9.158-.93 5.833-4.74 9.055-9.29 12.331-1.76.367-3.58.842-5.39.629a11.65 11.65 0 0 1-8.4-5.284c-2.35-3.654-2.62-8.426-1.5-12.539 1.24-4.54 3.52-6.62 7.43-9.015"/><path fill="#FEFEFE" d="M693.507 1019.03c3.742-.08 7.342.21 10.906 1.46 5.429 1.9 9.939 6.43 12.077 11.74 2.21 5.48 1.909 11.93-.603 17.26-3.074 6.52-8.201 10.06-14.769 12.49-3.344.1-6.781.29-10.045-.57-7.561-2-11.107-7.44-14.835-13.8-.366-5.46-.755-10.66 1.458-15.83 3.027-7.07 9.049-10 15.811-12.75"/><path fill="#F3EAF1" d="M693.259 1024.98c3.392-.16 6.583-.25 9.755 1.16 3.583 1.59 6.36 5.13 7.703 8.74a16.72 16.72 0 0 1-.66 13.22c-2.149 4.45-5.54 6.37-9.996 8.04-2.094.04-4.227.01-6.287-.42-3.798-.78-7.466-3.4-9.542-6.66-2.405-3.78-2.7-8.34-1.48-12.58 1.698-5.91 5.362-8.61 10.507-11.5"/><path fill="#FEFEFE" d="M279.941 1098.39c5.083.36 9.917 1.18 14.474 3.59a24.73 24.73 0 0 1 12.523 15.55 29.77 29.77 0 0 1-3.672 23.66c-5.574 8.79-12.812 11.91-22.49 14.06-6.219-.63-11.611-1.52-16.872-5.09a27.63 27.63 0 0 1-11.959-18.66 28.37 28.37 0 0 1 5.5-21.81c5.846-7.6 13.359-10.14 22.496-11.3"/><path fill="#F3EAF1" d="M276.532 1106.32c3.708-.32 7.63-.23 11.148 1.1 5.058 1.9 9.223 5.6 11.381 10.59 2.178 5.04 2.06 10.87-.047 15.91-2.825 6.77-7.975 10.61-14.577 13.31-5.449 1.03-10.329.84-15.222-2.01-5.271-3.07-8.637-8.28-9.817-14.21-1.173-5.89.02-12.2 3.617-17.05 3.504-4.73 7.875-6.63 13.517-7.64"/><path fill="#FEFEFE" d="M1659.26 956.568a33 33 0 0 1-2-1.37c-10.65-7.74-69.95-77.798-69.95-87.178 0-2.375 2.12-5.168 3.8-6.729 2.87-2.675 10.9-6.947 14.89-6.129 10.58 2.169 56.32 72.747 66.48 86.435-4.39 4.989-8.7 10.094-13.22 14.971m-921.693 4.566c6.34.023 11.965.383 16.933 4.78 3.891 3.444 6.034 8.467 6.206 13.628.178 5.343-1.683 10.56-5.46 14.39a17.83 17.83 0 0 1-13.72 5.306c-7.942-.382-14.364-4.931-19.64-10.47-78.77 3.363-157.969.934-236.811 1.732-9.403.296-29.721 2.758-37.56-1.954 3.409-3.598 9.609-4.261 14.337-4.659 8.494-.715 17.568-.023 26.149-.134a2391 2391 0 0 1 64.379-.326c56.006.412 112.412 1.03 168.387-.624.032-.291.06-.582.095-.872.058-.484.129-.966.187-1.449.396-3.349.904-6.08 2.494-9.113 3.068-5.854 7.985-8.266 14.024-10.235"/><path fill="#F3EAF1" d="M740.328 966.121c2.026.382 3.822.781 5.665 1.741 3.839 1.999 7.159 5.67 8.193 9.939a12.5 12.5 0 0 1-1.476 9.438c-2.486 4-6.187 4.913-10.446 6.117-2.078-.268-4.229-.525-6.188-1.301-3.691-1.461-6.504-4.192-7.818-7.965-1.228-3.529-.791-7.309 1.084-10.521 2.551-4.369 6.252-6.229 10.986-7.448"/><path fill="#FEFEFE" d="M881.655 904.326c3.92-.32 8.431-.001 12.153 1.32 5.062 1.797 9.124 5.451 11.227 10.423 2.358 5.575 2.074 12.031-.454 17.493a21.44 21.44 0 0 1-13.353 11.539c-8.159 2.494-15.985-.166-23.087-4.193-2.096-3.803-3.26-7.501-4.47-11.642-14.768 1.184-29.877.636-44.687.647l-72.696.006-251.038-.849c-7.629-.053-40.305 1.624-44.034-.562l-.29-2.535 1.428-1.777c3.606-1.717 7.037-2.195 11.013-2.285 25.533-.581 51.279.22 76.836.224l165.87-.1 99.471.041c18.986.016 38.434-.857 57.339.753.887-3.227 1.847-6.258 3.629-9.121 3.656-5.87 8.672-7.823 15.143-9.382"/><path fill="#F3EAF1" d="M879.743 910.093c2.677-.249 5.488-.533 8.152-.028 4.323.82 8.389 4.218 10.529 7.985 1.904 3.35 2.424 7.354 1.248 11.04-1.713 5.373-5.472 8.28-10.384 10.605-2.302.202-4.673.43-6.973.106-4.322-.609-8.658-3.187-11.162-6.771-2.21-3.163-2.922-7.016-2.114-10.778 1.324-6.173 5.601-9.076 10.704-12.159"/><path fill="#46237F" d="M1672.48 941.597c10.34-10.535 22.78-19.651 38.29-19.573 6.57.033 15.36 2.314 20.16 7.097 1.51 1.511 2.66 3.395 3.9 5.124 1.32 1.836 2.88 4.938 5.38 5.191 5.67.572 9.64-2.415 14.87 2.028 2.97 2.523 3.99 6.258 4.09 10.003.12 4.071-.17 8.21-.36 12.279 5.03 3.473 8.4 6.48 9.68 12.685 1.34 6.485-1.25 13.112-4.83 18.445-5.56 8.284-13.41 13.104-21.79 18.064-.09 4.62.18 9.54-.58 14.09-12.48-1.15-34.47 4.91-43.97 12.76-4.83 3.99-12.38 14.35-18.25 15.65 1.08-3.06 16.05-16.36 19.42-21.1-3.78-.27-9.61-.23-12.36-2.93-16.07-10.02-9.68-13.11-19.11-22.39-2.42-2.39-4.93-.11-7.46-3.23.41-4.73 4.49-10.599 7.34-14.304-5.9-4.948-11.9-12.08-12.8-20.009-.74-6.463 1.28-9.952 5.16-14.909 4.52-4.877 8.83-9.982 13.22-14.971"/><path fill="#FEFEFE" d="M1666.9 991.486c.11-.293.23-.585.35-.879 3.12-8.074 5.2-27.443 13.95-30.821 5.12-1.972 10.83 1.15 15.2 3.562 5.04 2.784 13.86 5.149 17.82 8.766 5.04 4.596 1.95 17.03 9.35 20.323 4.81-4.047 7.32-11.549 14.15-12.408 3.19.608 5.72 2.564 7.41 5.351 1.58 2.592 2.32 6.569 1.14 9.413-5.44 13.097-15.62 5.557-10.47 28.487-16.55 3.12-32.59 10.71-49.67 8.13-16.07-10.02-9.68-13.11-19.11-22.39-2.42-2.39-4.93-.11-7.46-3.23.41-4.73 4.49-10.599 7.34-14.304"/><path fill="#9452AD" d="m589.412 1497.95 79.891-.22c-1.124 40.62-1.378 82.16.14 122.75 2.922-4.04 5.612-8 9.382-11.31-15.194 24.67-32.265 48.43-48.14 72.7-14.302 21.87-27.791 45.61-44.021 66.01 1.323-3.21 2.525-6.11 2.89-9.6 2.293-21.88.345-54.48.266-77.45zm102.545-144.04c26.911-1.19 54.096-.8 81.026-.39l.227 90.49c.054 16.3-1.092 33.55.711 49.71.171 1.53-.14.92 1.084 1.9l5.011-2c-25.664 21.84-47.796 44.26-68.929 70.6-5.985 7.46-22.527 34.68-27.294 37.89.905-5.85 7.21-9.79 7.908-16.15.895-8.17.207-17.11.18-25.35l-.05-46.94zm-218.63 185.15c3.893 1.54 5.734 4.32 8.207 7.56 13.687.37 71.144 3.91 80.442-.65l3.591.72c3.419 6.52 1.215 204.23 1.348 230.72 4.518-7.46 10.082-19.7 16.715-25.16-5.115 9.76-11.226 19.01-16.828 28.5-28.188 47.75-60.826 92.94-88.289 141.08l-.823-1.7 6.073-11.29c-1.526-18.7-.617-37.99-.611-56.76-7.152-1.76-14.363-1.3-21.605-3.28 6.099.33 14.955 3.39 20.288.01 2.934-4.66 1.672-45.62.281-53.64l-2.785-1.55.066-.52 2.741-.42c2.982-7.76.907-72.18.825-85.55l.174-25.13.158-7.13c-.12-5.22.329-10.5.571-15.72l-.436-4.42c.312-29.93-.834-59.78.288-89.7-.633-10.97-5.222-16.78-10.391-25.97m538.453-352.45 79.98.39c-.19 48.61-.74 97.43.59 146.03 5.56-5.61 11.06-11.87 17.47-16.49-22.48 27.42-50.44 53.99-83.17 68.42-13.12 5.78-26.942 9.79-40.469 14.48-20.451 7.1-40.838 14.13-61.466 20.71-12.587 4.02-25.501 7.42-37.82 12.21-33.404 12.97-62.702 31.29-92.632 50.68 1.472-1.9 2.853-3.73 3.199-6.17 1.547-10.94.532-23.31.542-34.42l.012-67.43 82.293-.06c-.086 19.18-.907 38.83.959 57.92a2391 2391 0 0 1 22.684-7.83c.604-47.48.105-95.03.104-142.52 28.369-.5 56.817-.17 85.194-.11a7570 7570 0 0 0 .577 114.43 720 720 0 0 1 21.193-7.07 18034 18034 0 0 0 .76-203.17m313.31-323.739 77.99.021-.04 84.117c-.02 11.901-2.04 27.64.76 38.993-12.27 12.053-23.54 25.338-34.99 38.158a4804 4804 0 0 0-64.26 73.5 7207 7207 0 0 1-129.08 146.81c-20.38 22.78-41.85 50.08-64 70.52 1.42-2.36 2.42-4.46 2.67-7.24.8-8.97.18-18.45.18-27.47l.01-54.75-.3-183.54a6626 6626 0 0 1 81.02-.36l-.19 178.64a2866 2866 0 0 0 22.52-25.02l.5-260.363 81.14.488c1.53 55.064-1.44 110.335.6 165.385a699 699 0 0 0 25.3-29.63 12863 12863 0 0 0 .17-208.259"/><path fill="#AB5EC1" d="M167.05 1421.55c50.151 3.55 140.531 21.73 186.751 40.01 6.397 2.53 12.983 5.95 18.729 9.75 10.246 6.77 32.718 27.88 44 28.62-1.802 6.48-13.813 16.61-18.701 21.76 6.596 5.27 12.841 10.67 18.903 16.55 8.608-9.03 19.02-18.31 26.311-28.34 12.859 3.94 20.516 20.97 30.284 29.16 5.169 9.19 9.758 15 10.391 25.97-1.122 29.92.024 59.77-.288 89.7l.436 4.42c-.242 5.22-.691 10.5-.571 15.72l-.158 7.13-.174 25.13c.082 13.37 2.157 77.79-.825 85.55l-2.741.42-.066.52 2.785 1.55c1.391 8.02 2.653 48.98-.281 53.64-5.333 3.38-14.189.32-20.288-.01-2.255-2.05-4.17-.18-5.91-1.31-1.384-.9-.795-2.1-2.77-2.7l-.931 1.46c-18.988-3.88-36.631-11.33-54.018-19.62-50.195-23.95-79.588-55.05-111.202-99.85-6.662-9.44-12.644-19.37-19.479-28.68 1.291-.39 1.744-.35 2.69-1.36-5.323-6.13-11.305-12.2-15.839-18.93 6.863-1.51 47.808 7.3 57.9 8.66 18.387 2.48 36.92 3.98 55.262 6.82-7.138-8.63-22.479-13.09-31.817-19.68-11.376-8.04-21.837-17.56-31.855-27.21-57.493-55.41-105.253-152.29-136.528-224.85"/><path fill="#FEFEFE" d="M443.043 1509.9c12.859 3.94 20.516 20.97 30.284 29.16 5.169 9.19 9.758 15 10.391 25.97-6.264-7.77-11.108-16.99-17.153-25.02-5.383-7.16-21.705-23.02-23.522-30.11m-104.956 148.34c14.659 3.07 28.639 9.26 43.172 12.98 33.979 8.69 67.567 6.94 102.036 3.65l-.158 7.13c-49.306.98-101.806 4.62-145.05-23.76m87.983-47.3c-47.455-44.33-97.717-87.2-152.367-122.44-12.466-8.04-25.301-15.86-38.417-22.8-9.163-4.86-18.946-9.05-27.774-14.46-2.247-1.38-5.209-2.96-6.367-5.36.394-.04.785-.15 1.182-.14 7.756.31 20.583 8.22 27.469 11.83 49.517 25.98 92.7 58.27 135.56 93.94 15.539 12.94 31.286 25.59 45.743 39.75-4.105-23.55-18.978-54.6-28.053-77.24-2.616-6.53-6.924-14.49-8.254-21.32-.431-2.21-.149-2.53 1.009-4.3.609-.01 1.253-.24 1.827-.03.273.09 3.318 6.93 3.596 7.54 13.849 30.16 24.308 60.82 34.874 92.21 1.334 3.96 2.937 8.26 5.448 11.63 11.41 15.29 45.843 40.32 61.884 54.98l.436 4.42c-10.236-2.92-43.923-35.64-53.644-44.24-14.478 5.79-29.544 9.56-44.682 13.18-14.333 3.42-71.19 15.15-81.409 8.89l-.054-1.42c2.35-1.32 42.516-5.14 50.597-6.56 24.389-4.29 47.751-10.77 71.396-18.06m11.982 92.72a505 505 0 0 0 44.911 3.47c.082 13.37 2.157 77.79-.825 85.55l-2.741.42c-11.161-4.84-24.314-7.77-35.996-11.45 1.569-25.86.208-52.69-5.349-77.99"/><path fill="#FEFEFE" d="M461.547 1848.8c-2.255-2.05-4.17-.18-5.91-1.31-1.384-.9-.795-2.1-2.77-2.7l-.931 1.46c-18.988-3.88-36.631-11.33-54.018-19.62-50.195-23.95-79.588-55.05-111.202-99.85-6.662-9.44-12.644-19.37-19.479-28.68 1.291-.39 1.744-.35 2.69-1.36-5.323-6.13-11.305-12.2-15.839-18.93 6.863-1.51 47.808 7.3 57.9 8.66 18.387 2.48 36.92 3.98 55.262 6.82 4.034.05 7.68.76 11.621 1.59.682 11.3 12.5 57.63 7.139 63.78-1.561 1.8-3.389 3.38-5.14 4.99 1.959-.5 4.447-1.48 6.417-1.62 4.897-.36 21.834 8.21 27.51 10.12.479.16.941.37 1.411.55-8.982-4.51-18.148-8.27-27.465-12.01.359-21.92-5.638-44.71-10.057-66.17 19.106 3.42 38.463 7.22 57.799 8.98 3.556 12.67 9.92 65.67 3.636 77.23-1.49 2.74-4.183 4.98-6.43 7.09l-.273 1.24c3.013-2.13 5.567-4.43 8.173-7.04a367 367 0 0 0 37.74 11.6l2.785 1.55c1.391 8.02 2.653 48.98-.281 53.64-5.333 3.38-14.189.32-20.288-.01"/><path fill="#46237F" d="M1273.76 674.664c46.24-9.455 92.29-20.526 138.72-28.969-5.83 30.57-10.93 61.299-16.37 91.942-2.47 13.904-4.32 28.362-7.67 42.055-16.1-15.512-32.06-32.699-50.29-45.695-14.92 13.882-29.09 28.572-43.75 42.728a15805 15805 0 0 0-154.75 151.677 2939 2939 0 0 1-49.59 47.79c-10.92 10.298-24.29 20.943-33.28 32.898-14.11 18.77-27.85 51.36-38.93 72.89-22.853 44.39-46.719 88.29-68.763 133.09-81.237-10.2-162.087-22.68-243.373-32.53-17.9 21.29-33.552 44.46-50.65 66.39l-105.742 135.04c-25.377 33.05-50.217 67.88-78.845 98.23 10.195 15.54 18.551 32.33 27.33 48.7 21.113.81 42.114.95 63.235.92.135 4.53-.272 9.81.934 14.15-9.298 4.56-66.755 1.02-80.442.65-2.473-3.24-4.314-6.02-8.207-7.56-9.768-8.19-17.425-25.22-30.284-29.16-7.291 10.03-17.703 19.31-26.311 28.34-6.062-5.88-12.307-11.28-18.903-16.55 4.888-5.15 16.899-15.28 18.701-21.76-14.069-12.51-33.909-22.64-45.357-36.81-32.11-39.74-51.844-123.34-63.014-174.1-3.992-18.14-8.318-36.43-10.577-54.88 89.389 24.33 169.426 67.21 221.734 146.3 19.639-23.16 37.41-47.99 55.998-71.99a5930 5930 0 0 0 118.668-155.38c14.339 2.9 29.307 4.03 43.819 6.09l94.825 13.5a4404 4404 0 0 1 61.55 9.31c13.031 2.02 26.329 4.57 39.507 5.31 19.119-38.47 39.977-75.99 59.454-114.25 10.463-20.57 24.683-54.37 37.033-72.18 7.57-10.914 19.43-19.467 28.72-28.977 38.63-39.546 79.17-77.101 118.65-115.782l90.06-88.921c17.09-17.103 33.82-36.331 52.44-51.677-14.55-14.27-30.45-27.993-46.28-40.829"/><path fill="#FEFEFE" d="M332.803 1348.72c26.073 5.01 52.875 7.28 79.082 11.85 1.389 2 1.375 2.6 1.592 5.06-12.027-.8-24.03-3.12-35.958-4.82-14.176-2.02-28.399-3.69-42.514-6.11-2.149-1.9-1.784-3.26-2.202-5.98m30.202 88.25c13.055 1.55 26.24 4.54 39.205 6.82 16.516 2.89 33.168 5.27 49.593 8.62 1.649 1.67 1.168 2.56 1.31 4.83-10.916-.2-80.729-11.68-88.084-15.58-1.506-.8-1.597-3.1-2.024-4.69"/><path fill="#FEFEFE" d="M325.68 1265.55c.247.07.5.13.743.21 8.768 3.06 17.915 12.49 24.939 18.62a457.9 457.9 0 0 1 106.607 136.75c3.495 6.83 9.269 16.31 6.811 23.95-.98-.19-1.752-.62-2.648-1.05a427.7 427.7 0 0 0-65.342-106.58 397.4 397.4 0 0 0-40.765-41.74c-8.899-7.9-18.999-15.34-27.262-23.83-2.276-2.33-2.419-3.21-3.083-6.33"/><path fill="#46237F" d="M1679.07 1055.44c5.87-1.3 13.42-11.66 18.25-15.65 9.5-7.85 31.49-13.91 43.97-12.76l1.04 1.47c6.22 8.73 13.67 18.57 21.51 25.89 5.57 5.21 12.04 9.41 17.7 14.53 12.49 11.3 17.75 28.04 20.2 44.2 1.06 7.06 2.63 15.21 2.31 22.29 3.02 18.67 7.39 77.53 4.9 95.2-.88 6.24-3.6 12.91-6.59 18.43l.41 2.39c7.1 12.84 10.65 36.72 14.28 51.5-2.78 2.52-5.45 5.34-8.98 6.74-2.23 1.68-5.68 3.17-5.85 6.23-.25 4.67 1.33 10.1 1.86 14.79.9 7.91-.75 16.99-2.39 24.73-5.93 28.03-21.63 49.97-31.8 76.11-7.5 19.24-12.81 39.4-19.09 59.07-14.76 46.23-29.6 91.94-40.33 139.36-3.7 16.36-8.19 33.55-8.1 50.39 7.42-14.76 12.41-48.46 16.66-66.13 7.08-29.5 15.41-59.41 25.44-88.05 9.05 26.1 18.13 52.32 28.33 77.99 15.09 37.98 31.83 75.4 47.55 113.12l21.36 50.51c4.29 10.13 9.26 20.36 12.26 30.95l-10.35 6.19c2.84 4.94 6.01 9.53 9.3 14.18l.66.75c5.41 5.94 12.86 10.41 17.59 16.8 4.33 5.84 5.74 14.37 10.44 19.56-2.66 4.75-39.72 28.76-47.42 36.41-12 7.42-31.33 23.43-45.02 25.36 3.74-3.52 7.19-6.77 8.94-11.76 1.67-4.77.74-9.62-1.49-13.97 13.7-18.92 12.87-38.82 22.42-54.91.93-1.57.17-3.75-.06-5.57l-1.41-1.97c-2.53-2.56-3.82-4.58-7.33-5.55-2.09.74-4.09 1.46-6.09 2.44l-101.78-146.64c-9.51 36.75-16.2 74.39-23.03 111.72-3.35 18.25-7.53 45.96-12.96 63.01-.56 1.76-.81 2.36-2.24 3.44a305 305 0 0 1-5.7-.47c-4.98 4.41-6.16 17.5-7.6 24.18 4.41 14.55 5.4 26.84 4.67 42-15.28.18-108.54 2.6-116.4-.82l-1.13-1.99c1.49-5.34 11.72-10.85 16.44-13.54 19.15-10.95 48.71-19.62 59.16-40.58 2.31-3.59 2.65-7.98 3.39-12.12-4.54-1.33-9.48-1.89-14.14-2.73.22-12.6 1.96-25.48 3.09-38.04a5604 5604 0 0 1 6.92-72.84 16270 16270 0 0 0 17.12-182.04c2.39-25.47 6.89-51.44 7.26-76.98.17-11.62-4.08-23.2-6.39-34.55-3.59-17.66-6.86-35.61-9.46-53.44-6.68-45.96-8.32-99.2-8.36-145.85-36.07-1.56-72.79-2.45-108.69-6.28-7.52-19.35-10.84-41.47-16.01-61.64-4.1-15.95-9.69-31.67-13.31-47.7-.65-2.92-.93-5.35-.78-8.34.73-.65.87-.84 1.9-1.3 8.2-3.66 79.79-.91 88.46 3.65 2.67 1.4 3.63 2.92 4.81 5.61 4.38 10.03 6.55 21.84 9.42 32.42a3946 3946 0 0 0 17 61.82c4.34-.6 8.66-1.4 12.98-2.11 2.89-35.08 3.13-68.24 14.82-102.07 10.41-30.11 26.3-52.81 55.46-67.04"/><path fill="#E841C3" d="M1598.23 1235.84c11.04.34 33.57-.85 43.32 2.65 1.87 2.07 1.97 1.85 1.83 4.61-10.64 2.46-25.06 5.17-35.65 1.86-5.05-1.58-7.11-4.63-9.5-9.12"/><path fill="#FEFEFE" d="M1650.91 1354.3c.89.57 1.56 1.23 2.33 1.96.48 11.33-2.12 23.98-3.44 35.3-2.11 17.93-3.6 36.19-6.8 53.94-.58.04-1.12-.29-1.66-.48-2.22-11.45 4.89-79.89 9.57-90.72m190.54 451.8c3.61 4.54 6.99 9.3 10.44 13.96 1.62 2.58 2.83 3.54 2.13 6.79-1.33 6.17-8.36 12.27-13.8 14.8-4.19 1.95-9.23 2.77-13.61.92-4.73-2-5.92-6.4-7.63-10.79l-1.41-1.97c-1.08-2.22-1.95-4.52-2.87-6.82 4.15-6.59 19.76-13.02 26.75-16.89m-224.48 48.79c12.62.92 25.32 2.01 37.97 2.4-2 8.38-4.22 16.77-5.77 25.25-8.69 2.17-17.27 4.31-26.23 4.93-3.87-1.64-8.6-3.07-10.32-7.34-1.64-4.06-.01-9.09.96-13.12 2.31-3.59 2.65-7.98 3.39-12.12m16.41-649.92c11.38.36 25.49 7.63 37.46 9.8.16 4.71.58 9.65.35 14.34-.16 3.14-1.23 6.9-3.82 8.89-5.18 3.98-13.85 2.85-19.99 2.71-.36-.35-.73-.69-1.09-1.05-.6-.6-1.18-1.23-1.81-1.82-4.38-4.13-9.63-3.04-15.23-2.9-9.96-.01-22.17.73-31.53-3.12l-.49-1.27c6.43-5 41.04-8.26 51.76-10.37-4.83-5.54-11.71-8.95-15.61-15.21"/><path fill="#E841C3" d="M1615.33 1248.72c10.26.62 43.9-4.59 53.49-7.97 5.37 2.73 10.87 5.03 16.49 7.2 36.69 14.15 75.44 19.99 112.28 3.84 2.64-1.16 2.57-1.39 5.18-.36 7.1 12.84 10.65 36.72 14.28 51.5-2.78 2.52-5.45 5.34-8.98 6.74-12.13 4.66-24.38 9.63-37.15 12.24-41.01 8.37-118.96 4.02-154.89-19.46-1.67-17.53-.58-36.1-.7-53.73"/><path fill="#E841C3" d="M1679.07 1055.44c5.87-1.3 13.42-11.66 18.25-15.65 9.5-7.85 31.49-13.91 43.97-12.76l1.04 1.47c6.22 8.73 13.67 18.57 21.51 25.89 5.57 5.21 12.04 9.41 17.7 14.53 12.49 11.3 17.75 28.04 20.2 44.2 1.06 7.06 2.63 15.21 2.31 22.29-1.86 7.63-.01 17.78.55 25.65 1.8 25.63 5.96 55.94-.47 81.03a76 76 0 0 1-3.12 3.33c-12.31 12.21-34.49 13.75-50.9 13.32-18.28-.48-64.64-7.23-77.23-20.47 2.88-6.13 1.68-15.84 1.62-22.6 25.67 2.33 52.83.1 77.9-5.5-.79-23.4-17.17-65.13-10.7-85.2 2.24-6.96 7.8-11.72 10.53-18.43.12-.29.22-.58.33-.86-2.87 2.6-6.01 5.23-8.44 8.27-15.03 18.83 2.62 69.71 5.7 93.27-21.44 6.41-57.87 8.57-80.19 4.3-12.78-2.45-24.32-6.86-36.75-10.32-2 1.36-1.64 1.54-2.29 3.74 1.49 6.15 9.31 10.19 14.2 13.61-10.79 2.4-21.91 3.97-32.81 5.9 1.56-46.91 6.23-106.86 38.18-143.92 8.12-9.42 19-15.07 27.58-23.71z"/><path fill="#FEFEFE" d="M1492.55 855.97c-.41-5.921-2.38-18.301.15-23.561 1.07.099 2.02.173 3.06.468l.54-.52-6.69-3.764c-14.58-8.053-29.14-35.769-33.55-51.72-9.08-32.813-3.48-68.715 13.22-98.18 15.32-27.033 40.47-44.689 70.24-52.712 30.63-8.253 61.41-3.404 88.66 12.549a116.73 116.73 0 0 1 54.19 72.142c7.4 28.344 2.87 65.589-12.2 90.85-13.81 23.155-40.43 45.189-66.97 51.442-6.87 1.619-13.96 1.923-20.99 2.307.39 8.513 1.46 18.816-4.84 25.598-4.76 5.126-11.53 6.616-18.05 8.249-.86-10.547-2.74-23.485-.84-33.84 4.85-1.856 11.54-.191 15.73-2.766-8.27-4.55-31.32 2.902-42.96-2.807l-1.38.255.02.914 4.44 1.912c1.66 8.593.01 17.976-.96 26.593-12.4 16.262-28.04 31.102-42.06 46.084l-64.42 69.25c-8.22 8.667-14.39 19.297-22.93 27.577a10596 10596 0 0 0-160.45 183.28c-14.46 16.77-28.36 33.99-42.97 50.61a1949 1949 0 0 1-54.6 59.75c-12.74 13.48-27.21 26.94-37.95 42.02-7.7 3.66-15.87 14.18-22.69 19.85a213 213 0 0 1-43.31 28.19c-38.36 19.22-80.936 28.68-121.421 42.18a431 431 0 0 0-104.024 50.85c-6.324 4.31-17.732 10.83-21.75 17l2.389.54c2.685 8.42.707 91.73.684 109.11l.153 300.62c-6.837 1.89-18.034 1.26-24.999.11-9.285-1.46-19.736-.52-29.186-.52-16.992-.01-34.141-.46-51.107.3-6.402 1.7-16.128.98-22.657.07-9.163-1.25-19.035-.46-28.31-.46l-51.579-.11c.073-9.22.4-18.51-.401-27.7-.459 9.48-.384 18.93-.324 28.41-7.326.04-15.229.65-22.455-.45-17.325-2.15-43.617-.81-61.554-.17-.315.2-.607.44-.944.6-4.284 2.02-23.382 1.56-28.282.08l2.29-4.62c27.463-48.14 60.101-93.33 88.289-141.08 5.602-9.49 11.713-18.74 16.828-28.5 1.661-1.47 2.562-2.16 3.034-4.37 16.23-20.4 29.719-44.14 44.021-66.01 15.875-24.27 32.946-48.03 48.14-72.7 2.409-.97 3.983-4.84 4.968-7.06 4.767-3.21 21.309-30.43 27.294-37.89 21.133-26.34 43.265-48.76 68.929-70.6 2.883-.45 12.177-8.26 14.247-10.58 29.93-19.39 59.228-37.71 92.632-50.68 12.319-4.79 25.233-8.19 37.82-12.21 20.628-6.58 41.015-13.61 61.466-20.71 13.527-4.69 27.349-8.7 40.469-14.48 32.73-14.43 60.69-41 83.17-68.42l1.65-1.55c22.15-20.44 43.62-47.74 64-70.52a7207 7207 0 0 0 129.08-146.81 4804 4804 0 0 1 64.26-73.5c11.45-12.82 22.72-26.105 34.99-38.158 13.2-15.976 28.49-30.312 42.49-45.603 20.07-21.919 42.5-48.085 63.34-68.603-5.11-4.138-9.69-8.458-14.25-13.202 3.7-2.041 9.79-4.636 12.61-7.579-5.12.551-10.59 3.171-15.44 4.955"/><path fill="#9452AD" d="M505.449 1925.77c8.094-16.5 20.112-32.48 29.833-48.16 10.711-17.29 20.332-37.01 33.079-52.75-3.979 15.92-1.44 80.33-1.358 101.08-17.325-2.15-43.617-.81-61.554-.17M1578.23 753.775c30.22-.859 60.71.098 90.96.207-5.26 23.546-11.48 40.913-28.85 58.084-18.75 16.128-38.39 22.823-62.06 28.419-.52-28.871-.05-57.829-.05-86.71"/><path fill="#D8AEDC" d="M1469.94 752.632c31.03-.303 62.08.838 93.13.643-.05 29.467.55 59.181-.86 88.608-19.48 1.29-44.87-9.112-59.65-21.582-21.66-18.281-30.29-40.101-32.62-67.669"/><path fill="#9452AD" d="M1579.06 639.6c22.99 1.087 44.69 11.603 61.18 27.4a94.88 94.88 0 0 1 29.88 67.882l-91.4.124c.49-31.788.26-63.613.34-95.406m-23.62.714c2.42-.367 3.69-.589 5.96.45 1.72 10.262.66 21.833.66 32.297l-.04 62.577a6665 6665 0 0 1-85.27-.452c-2.01.062-3.56-.113-5.51-.601-1.11-1.571-1.81-2.874-2.07-4.783-1.87-13.813 9.97-38.716 18.14-49.967 16.65-22.936 40.44-35.193 68.13-39.521M794.795 1516.02l2.389.54c2.685 8.42.707 91.73.684 109.11l.153 300.62c-6.837 1.89-18.034 1.26-24.999.11-9.285-1.46-19.736-.52-29.186-.52-16.992-.01-34.141-.46-51.107.3-6.402 1.7-16.128.98-22.657.07-9.163-1.25-19.035-.46-28.31-.46l-51.579-.11c.073-9.22.4-18.51-.401-27.7-.459 9.48-.384 18.93-.324 28.41-7.326.04-15.229.65-22.455-.45-.082-20.75-2.621-85.16 1.358-101.08.354-3.23 13.094-20.87 15.879-24.14 5.534-11.89 13.894-23.48 20.973-34.51a2636 2636 0 0 1 45.46-68.72c32.42-47.83 63.109-98.73 100.991-142.51 12.319-14.24 27.59-28.23 43.131-38.96"/><path fill="#F3EAF1" d="m584.24 1800.72 4.173-4.16.566.4-1.158 1.52 1.336-.51c1.113 23.9.617 47.99.581 71.92-.013 9.25-.582 18.88.044 28.09-.459 9.48-.384 18.93-.324 28.41-7.326.04-15.229.65-22.455-.45-.082-20.75-2.621-85.16 1.358-101.08.354-3.23 13.094-20.87 15.879-24.14m108.395-163.07.094 288.53c-6.402 1.7-16.128.98-22.657.07l-.457-177.23c-.237-23.41 1.239-52.6-1.252-75.25 7.722-12.3 16.209-24.05 24.272-36.12m102.16-121.63 2.389.54c2.685 8.42.707 91.73.684 109.11l.153 300.62c-6.837 1.89-18.034 1.26-24.999.11l.198-390.26c6.881-6.91 15.54-12.47 21.575-20.12"/><path fill="#9452AD" d="M1107.99 1357.95c1.7-1.22 4.08-3.72 6.14-3.45 2.15 11.41.69 25.68.67 37.38l-.44 82.9.04 268.7.02 183.54c-7.23.08-15.28.83-22.35-.59-12.04-1.9-68.6-1.55-81.04 0-6.12 1.6-15.771 1.27-21.971.03-12.675-2.49-71.189-2.69-85.058-.2-6.177 1.9-17.513 1.47-23.793.06-13.142-1.91-69.117-1.62-82.187-.03l-.153-300.62c.023-17.38 2.001-100.69-.684-109.11l-2.389-.54c4.018-6.17 15.426-12.69 21.75-17a431 431 0 0 1 104.024-50.85c40.485-13.5 83.061-22.96 121.421-42.18a213 213 0 0 0 43.31-28.19c6.82-5.67 14.99-16.19 22.69-19.85"/><path fill="#F3EAF1" d="M880.784 1465.08c7.795-2.6 15.403-5.24 22.877-8.66l.34 469.84c-6.177 1.9-17.513 1.47-23.793.06a31228 31228 0 0 1 .317-325.21c.219-45.33-.652-90.71.259-136.03m108.354-36.14 21.922-7.9-.03 505.39c-6.12 1.6-15.771 1.27-21.971.03z"/><path fill="#FEFEFE" d="M1107.99 1357.95c1.7-1.22 4.08-3.72 6.14-3.45 2.15 11.41.69 25.68.67 37.38l-.44 82.9.04 268.7.02 183.54c-7.23.08-15.28.83-22.35-.59l-.11-551.97c4.85-4.65 12.99-10.65 16.03-16.51"/><path fill="#9452AD" d="M1403.96 1022.29c-1.27 15.64-.79 31.46-.77 47.15l.1 72.73.6 245.09.05 344.96-.39 107.85c-.22 28-.91 56.2-.03 84.19-3.29 3.28-14.97 1.89-19.81 1.88-18.17-.02-40.93-2.14-58.63 1.04-5.54 1.55-19.71 2.01-24.96-.07-8.87-1.98-20.65-.74-29.85-.71l-51.26.1c.1-6-.03-11.93-.31-17.92a654 654 0 0 0-.26 18.74c-6.9.11-15.87 1.17-22.45-.7-8.09-1.65-17.97-.67-26.28-.66a2752 2752 0 0 1-54.68-.1l.03-121c.01-20.03 1.53-41.54-.66-61.38l-.04-268.7.44-82.9c.02-11.7 1.48-25.97-.67-37.38-2.06-.27-4.44 2.23-6.14 3.45 10.74-15.08 25.21-28.54 37.95-42.02a1949 1949 0 0 0 54.6-59.75c14.61-16.62 28.51-33.84 42.97-50.61a10596 10596 0 0 1 160.45-183.28"/><path fill="#F3EAF1" d="M1216.82 1240.45c2.32 27.7 1.42 55.99 1.43 83.79l-.01 130.14.52 294.84a13492 13492 0 0 0-.06 159.36 654 654 0 0 0-.26 18.74c-6.9.11-15.87 1.17-22.45-.7l-.4-482.03c-.37-59.93.71-119.97-.37-179.88a925 925 0 0 0 21.6-24.26m83.4-97.8c8.08-9.39 16-19.08 24.58-28.01l.14 242.89.06 394.38c.02 58.4-.55 116.87.08 175.27-5.54 1.55-19.71 2.01-24.96-.07l.6-455.06c-.36-109.72-1.9-219.7-.5-329.4"/></svg>