<svg xmlns="http://www.w3.org/2000/svg" style="display:block" viewBox="0 0 2048 2048"><path fill="#FEFEFE" d="M0 0h2048v2048H0z"/><path fill="#8B5BA0" d="M750.063 596.835c4.879 3.655 13.533 21.626 17.101 27.683a241 241 0 0 0-32.373 36.055 440.57 440.57 0 0 0-80.284 322.166c12.264 81.651 44.463 159.021 97.853 222.361 13.071 15.51 27.073 30.97 43.434 43.04-3.972 9.95-9.398 19.64-14.032 29.34l-1.309.01c-22.286-18.18-40.945-39.04-59.239-61.15-11.666-14.1-21.405-29.28-30.964-44.84a481.5 481.5 0 0 1-68.851-296.768c7.863-81.895 38.901-159.365 85.481-226.864 12.427-18.009 26.274-37.062 43.183-51.033"/><path fill="#8B5BA0" d="M682.115 462.705c3.663 2.282 13.118 21.068 15.975 25.851-24.745 22.321-47.369 45.074-67.252 71.935a612.54 612.54 0 0 0-112.58 456.569A587.07 587.07 0 0 0 654.9 1315.6c21.32 24.41 43.279 46.26 69.411 65.56-4.296 9.86-10.483 19.51-15.739 28.93l-.655.26a618.5 618.5 0 0 1-75.798-73.56 628.24 628.24 0 0 1-149.511-456.557c10.996-159.138 78.149-312.022 199.507-417.528"/><path fill="#8B5BA0" d="M617.03 329.899c4.151 2.986 12.272 20.571 15.29 25.918-41.737 29.296-84.87 80.534-114.743 121.933a767.06 767.06 0 0 0-134.702 574.4 732.7 732.7 0 0 0 177.189 374.51c29.411 33 60.419 62.91 96.276 88.78-5.942 9.47-10.845 19.08-15.518 29.22l-1.282.11c-6.992-2.77-15.336-11.53-21.165-16.52-45.895-39.28-89.368-84.52-125.293-133.22-123.013-166.77-172.594-383.98-141.595-588.265a778.95 778.95 0 0 1 186.969-402.648c23.597-26.417 50.024-53.188 78.574-74.218"/><path fill="#8B5BA0" d="M552.689 193.798c4.613 3.738 13.309 20.011 17.519 25.721-44.968 32.054-100.542 90.952-134.925 134.715a936.86 936.86 0 0 0-196.881 539.913 1074 1074 0 0 0 7.732 164.763c5.803 48.44 17.19 96.52 31.424 143.11 55.101 180.38 159.824 328.26 307.766 444.7l-13.151 28.59c-11.002-6.35-21.416-15.77-31.292-23.72-63.684-51.29-127.783-122.68-173.271-190.29a943.36 943.36 0 0 1-142.542-716.306 946.1 946.1 0 0 1 235.331-467.161c25.296-27.29 61.702-63.49 92.29-84.035"/><path fill="#8B5BA0" d="M488.416 65.763c4.918 3.72 14.695 19.927 19.236 25.63-53.662 44.298-99.043 86.897-144.346 140.111a1087.65 1087.65 0 0 0-252.585 778.776 1068.28 1068.28 0 0 0 295.45 665.12c17.551 18.27 35.913 36.74 54.79 53.61 18.689 16.7 38.307 32.29 57.393 48.53-4.411 9.72-9.535 19.13-14.452 28.6-6.72-1.72-17.119-12.53-22.673-17.12a1125 1125 0 0 1-148.083-147.27 1100.95 1100.95 0 0 1-250.35-817.901 1109.78 1109.78 0 0 1 405.62-758.086"/><path fill="#5A286C" d="M1311.52 267.417c59.21-3.725 123.2 3.109 180.12 19.9 105.62 31.155 221.73 95.208 275.87 195.161 15.15 27.953 28.43 62.966 18.94 94.785 34.72 61.748 52.56 126.2 34.06 196.768-5.47 20.875-16.75 40.12-19.32 61.639 18.71 42.122 96.43 97.191 127.45 136.842 8.24 10.519 14.64 22.594 12.59 36.418-3.21 21.67-29.89 35.57-45.45 47.78-20.03 15.72-26.93 45.12-17.49 68.73 4.51 11.27 17.16 22.82 15.21 35.65-1.77 11.64-14.36 19.22-23.18 25.56 4.22 7.58 8.2 14.85 8.56 23.76.66 16.38-10.34 29.94-20.51 41.5-1.77 11.97-3.2 24.8-1.31 36.85 5.59 35.69 28.29 50.38 22.64 92.73-4.56 34.12-27.18 59.63-59.55 70.46-22.77 7.63-47.13 8.58-70.89 10.26-52.47 3.71-125.71 6.17-168.62 39.44-44.7 34.66-92.42 180.75-103.61 236.31-7.88 39.13-12.85 80.23-9.48 120.11a334.4 334.4 0 0 0 9.62 55.7c2.76 10.74 18.17 50.97 16.31 58.39-.7 2.74-1.75 3.38-3.89 4.89-11.83 2.19-32.01-14.93-41.96-21.56-24.63-15.5-48.46-32.47-72.61-48.73-59.61-40.16-118.81-80.62-179.99-118.4-22.29-13.77-44.29-28.46-67.04-41.45-74.45-42.47-165.688-81.01-253.166-69.67a226 226 0 0 0 18.389-18.16c17.276-19.52 29.4-42.27 40.452-65.68 8.174-17.32 16.034-34.92 22.063-53.12 31.256-94.33 47.492-238.32 6.56-331.56-14.152-32.23-40.107-59.97-60.486-88.4-11.065-15.44-20.879-31.55-30.74-47.77-44.011-72.38-69.449-143.832-74.553-228.711-8.214-136.589 35.584-285.516 127.438-388.657 102.633-115.238 233.653-178.57 387.573-187.765"/><path fill="#FEFEFE" d="M1330.95 285.49c80.5-1.497 154.92 15.172 228.9 45.926 71.91 29.897 143.22 80.753 187.8 145.3 8.46 12.244 16.6 24.996 22.23 38.817 10.34 25.401 11.16 43.203.43 68.546 37.27 50.795 52.01 131.108 37.18 191.945-4.44 18.211-16.71 41.249-16.81 59.216-.16 30.654 67.79 91.839 91.8 112.842 9.75 8.53 20.6 16.272 29.75 25.425 7.49 7.496 15.68 17.89 15.46 28.953-.58 29.36-33.02 37.46-50.19 55.05-12.83 13.12-16.74 30.83-16.49 48.62.31 21.74 7.05 34.7 22.53 49.83-2.69 4.49-5.72 8.43-9.9 11.65-11.63 8.97-80.33 40.44-93.94 43.47-7.77 1.73-12.14.55-19.67-.36l.14 2.7c12.95 19.08 93.25-26.08 102-23.54 4.82 5.63 6.62 11.98 5.93 19.34-1.24 13.35-8.9 27.11-18.95 35.78-15.43 3.09-34.77.73-47.97-8.64-5.47-3.88-10.05-8.94-15.84-12.34l-1.84.49-.09-1.14c.26.82.33 1.23.96 1.95 2.22 2.58 6.66 5.15 9.37 7.51 17.91 15.58 26.91 19.12 50.65 21.35-1.08 13.25-3.3 27.7-1.05 40.86 5.68 33.3 26.5 50.81 19.08 88.73a69.53 69.53 0 0 1-17.45 34.54c-31.65 34.03-83.79 26.76-125.81 29.39-46.82 2.93-104.24 7.57-143.92 34.62a126.2 126.2 0 0 0-29.68 28.72c-30.63 40.56-65.31 124.64-80.12 173.85-7.13 23.71-12.28 48.04-16.88 72.35-10.22 63.99-8.89 107.78 6.24 171.34-29.97-19.49-59.32-40.11-88.96-60.12a6364 6364 0 0 0-163.46-106.52c-58.06-35.79-116.88-70.71-181.9-92.47-29.783-9.97-59.013-15.16-90.139-18.64 17.165-23.69 28.608-50.22 39.118-77.34a679 679 0 0 0 34.111-121.79c3.2-18.29 4.68-36.71 6.01-55.22 4.45-62.19 3.01-127.89-23.982-185.38-15.516-33.05-42.985-60.47-64.885-89.37-68.233-90.04-101.524-178.623-107.114-291.5-6.349-128.209 44.244-274.117 130.693-369.341C1048.16 346.48 1177.98 292.769 1330.95 285.49"/><path fill="#5A286C" d="M1750.55 1179.92c.05 1.96.25 1.36-.43 2.96-4.64 10.94-8.94 22.11-11.18 33.84-.62 3.28-.06 13.23-1.8 15.16-3.87-7.58-3.55-20.43-1.88-28.63 2.02-9.87 6.83-17.81 15.29-23.33m114.78-148.72c5.99.02 10.22 1.71 14.97 5.22l-.1 1.49c-9.82 5.68-21.73 3.96-31.63 11.33-3.3 2.46-6.66 5.85-7.35 10.05-.31 2.27-.71 3.89-1.73 5.95-2.54.93-2.2.53-4.52-.47-1.45-1.79-2.32-3.05-2.77-5.35-.91-4.61.21-8.92 2.86-12.77 6.65-9.63 19.3-13.48 30.27-15.45m-60.56-36.123c-.29 2.533-2.65 5.783-3.91 8.093-5.61 10.29-9.76 21.18-8.79 33.15 1.11 13.76 10.59 28.9 21.2 37.69 5.24 4.33 11.53 7.24 16.66 11.75l-.31.64-6.18-.79c-10.44-4.07-20.45-8.91-28.8-16.55-8.33-7.62-14.4-17.7-14.65-29.21-.42-18.83 12.66-32.23 24.78-44.773m-122.88-277.719c18.68-1.456 39.39-.125 55.29 10.914 14.28 9.919 19.8 23.464 22.84 39.812-8.15-6.986-15.71-14.235-25.52-18.893-34.01-16.146-76.68-9.954-110.75 2.314-21.73 8.087-50.08 21.799-65.99 38.578-.38.403-.74.826-1.11 1.238l.74-1.943.22 1.554.44-.245-.61-1.564c32.85-36.736 74.68-65.352 124.45-71.765m-397.61 513.462c4.57 5.52 10.32 23.3 13.82 30.72 6.5 13.83 13.82 27.53 22.24 40.3 42.99 65.23 138.07 109.29 212.13 126.8 21.09 4.98 42.8 5.34 63.87 9.75l1.1.24c-16.29 1.14-32.91-.08-49.15-1.56-68.2-6.19-135.26-28.53-189.21-71.73-38.79-31.05-69.12-85-74.8-134.52m430.8-425.155c5.3 13.144 4.99 27.321 9.89 40.082 14.48-5.723 32.28-8.66 47.73-9.584-16.6 8.747-33.91 14.903-50.22 24.522 3.07 18.98 5.36 33.248-.75 51.973 10.91.421 22.57 1.776 33.18-1.256-2.61 4.315-8.9 6.757-13.6 8.01-26.3 7.015-64.79-.615-89.98-9.362-7.18-2.492-14.53-7.646-22.02-8.616-14.5-1.88-37.12 3.988-52.55 4.79 14.02-4.608 28.42-7.994 42.5-12.396 33.68-10.525 67.72-25.189 96.94-45.077-.62-14.367-1.29-28.701-1.12-43.086"/><path fill="#FEFEFE" d="M1712.11 864.915c.17.154.38.276.52.46 4.19 5.618-1.08 37.176-3.34 44.986a331 331 0 0 1-52.64-9.497c-5.22-1.36-10.49-2.567-15.73-3.842 25.01-9.358 47.98-18.68 71.19-32.107"/><path fill="#5A286C" d="M1150.91 910.163c14.92-1.385 27.88 2.394 39.37 12.058 15.42 12.968 26.79 35.461 27.96 55.601.39 6.703-.72 14.95-5.65 19.972-2.15 2.199-4.98 3.416-8.1 3.196-7.55-.54-12.52-6.994-16.9-12.393-3.75 2.958-7.25 5.942-10.13 9.796-5.43 7.277-7.97 15.717-6.56 24.767 3.19 20.54 23.32 33.64 38.56 45.13 3.74-4.81 9.05-8.12 13.93-11.69-9.07-3.96-21.67-9.51-25.43-19.36-1.67-4.38-3.23-12.95-.5-17.22 1.43-2.25 2.83-2.19 5.22-2.62 3.43 1.11 7.93 6.69 9.64 9.88.32.59.61 1.21.92 1.81 6.42 2.73 13.49 3.25 20.15 5.37 1.96 2.1 4.03 4.2 5.77 6.5 5.36 7.05 7.77 17.23 6.52 25.98-.82 5.65-3.17 9.07-7.58 12.53-3.49.73-6.85-.33-10.24-1.2-6.72-1.73-12.23.23-18.91.02-10.93-.35-29.28-16.75-36.6-24.49-10.2-10.79-17.38-23.88-16.72-39.16.51-11.54 4.82-24.7 13.57-32.55 4.65-4.182 10.71-6.97 17.08-6.525 9.4.657 14.56 6.553 20.54 12.969-.77-3.494-1.55-6.994-2.8-10.354a39.93 39.93 0 0 0-21.31-22.682c-12.46-5.548-24.22-3.983-36.52.647l-1.82.243.41-1.882c2.76-3.241 6.91-7.263 11.02-8.619 14.34-4.731 28.87-1.156 41.72 5.665-4.14-5.834-8.32-11.815-13.23-17.037-7.66-8.143-17.42-15.138-29.04-15.221-8.8-.063-16.91 4.218-22.91 10.473-16.11 16.793-21.74 48.498-21.52 70.913.64 63.29 75.64 89.82 114.65 128.26-10.92-4.24-21.19-10-31.3-15.87-34.39-20-77.78-46.62-88.32-87.61-7.23-28.107-2.43-65.667 12.44-90.693 7.69-12.956 18.08-20.831 32.62-24.604"/><path fill="#5A286C" d="M1320.04 323.413c28.43-2.912 62.28-.411 90.66 3.562 119.7 16.758 238.1 75.197 311.81 172.802-24.21 16.075-46.03 37.128-68.5 55.585l-141.75 117.185a4433 4433 0 0 1-88.39 70.53c-18.13 13.936-37.31 26.78-54.27 42.158-10.31 9.351-19.93 21.095-26.38 33.465-25.22 48.382-8.36 108.953-30.16 147.525-5.6 9.901-14.19 18.165-25.48 20.918-32.68 7.974-37.42-23.503-48.71-45.147-10.63-20.376-24.59-39.667-44.76-51.532-13.17-7.749-27.77-10.611-42.73-6.66-22.43 5.929-41.03 26.321-52.3 45.743-19.05 32.799-33.31 89.133-22.96 126.553 12.47 45.1 35.42 45.65 62.96 74.14 20.72 21.43 26.85 37.7 55.01 53.75a76.76 76.76 0 0 0 46.38 6.93c9.93-1.62 19.85-5.77 25.73-14.32 14.68-21.37-.1-58.27-4.13-81-.35-1.99-1.33-5.14-.16-6.81 12.5 20.59 21.94 47.45 21.19 71.72-.37 11.81-5.26 25.43-14.11 33.39-12.44 11.18-30.36 13.83-46.51 12.86-41.52-2.47-65.56-31.35-91.24-60.4-1.98 4.09-3.96 8.21-6.22 12.15-18.24 31.69-42.48 45.11-76.61 54.31a64 64 0 0 1-5.8-4.42c-8.1-6.94-15.52-14.97-23.01-22.57-22.988-23.31-42.897-46.71-61.874-73.4-56.37-79.27-94.921-160.453-102.374-258.483-9.773-128.552 19.744-260.635 105.138-359.935a485.05 485.05 0 0 1 284.18-161.957c24.95-4.617 50.09-6.751 75.37-8.642"/><path fill="#FEFEFE" d="M1369.17 565.536c2.92 2.598 5.85 5.747 7.29 9.402l-1.47 1.091c-3.04.016-5.92.319-8.71-1.08-.55-3.273 1.55-6.391 2.89-9.413m-299.41 262.831c.99.295 1.8.364 2.55 1.07 2.21 2.067 4.11 9.673 5.54 12.833 4.76 10.497 9.23 19.303 16.72 28.223 3.03 3.604 10.74 10.217 10.76 14.793-.28-.133-.57-.257-.85-.399-14.99-7.591-30.05-22.896-34.75-39.322-1.57-5.475-2.86-12.035.03-17.198m-26.2 14.417c3.68 13.31 4.39 25.139 11.22 37.696 3.07 5.661 6.93 11.322 11.27 16.086 5.1 5.588 19.84 16.749 21.98 22.906l-2.52.613c-13.83-7.764-26.95-19.412-35.83-32.603-6.29-9.334-15.68-28.018-11.94-39.383 1.05-3.202 3.11-3.73 5.82-5.315m-38.11 15.447c1.39.203 3.25-.027 4.11 1.208 3.23 4.689 6.37 27.569 11.62 37.324 7.52 13.977 21.08 23.74 34.06 32.203 3.86 2.516 9.12 5.058 12.28 8.381.29.306.57.623.86.934-1.5-.054-2.99-.121-4.48-.291-15.95-1.82-32.57-15.342-42.13-27.567-11.58-14.806-18.6-33.284-16.32-52.192m-23.069 3.47c1.787 2.588 1.435 6.667 1.708 9.804 1.235 14.18 3.654 27.247 10.029 40.103 14.382 29.01 38.322 39.749 67.662 49.738l-.11 1.015-2.47 1.21a58 58 0 0 1-7.57-1.061c-23.8-4.848-45.74-17.906-59.15-38.439-7.946-12.167-19.081-42.346-15.19-56.669.955-3.515 2.181-3.986 5.091-5.701"/><path fill="#FEFEFE" d="M955.227 871.628c2.702 4.356 1.774 20.843 2.811 27.113a97.8 97.8 0 0 0 14.354 36.68c13.032 19.902 33.828 34.389 55.808 42.916 6.04 2.342 19.43 4.323 23.56 9.124l-1.57 1.216c-22.71-1.535-43.27-9.815-61.032-24.091-21.39-17.193-36.291-42.685-38.826-70.252-.743-8.069-.412-16.209 4.895-22.706m531.943-262.756c4.59 3.986 9.74 9.269 12.98 14.433 5.08 8.125 6.52 17.039 4.12 26.343-3 11.615-11.33 20.67-21.43 26.733a68.8 68.8 0 0 1-52.68 7.971c-1.95-1.137-3.63-1.696-4.64-3.828-1.4-2.943-1.41-7.41-2.11-10.659-2.14-9.896-5.78-17.423-11.4-25.765l7.12-9.378c12.41 2.783 26.67 3.596 38.97-.196 14.09-4.346 22.42-12.92 29.07-25.654m-297.46 177.523c2.01-.294 4.24-.278 6.28-.332 15.34-.403 40.72 5.159 51.73 16.192 4.79 4.805 6.69 10.868 6.69 17.561-.01 27.395-22.38 53.95-40.88 71.831-9.32-6.347-18.72-12.988-29.1-17.492-18.56-8.046-33.8-8.654-52.75-1.316 10.19-9.104 16.89-7.988 29.32-11.145l-9.01-8.855c10.9-8.18 29.34-16.964 43.25-16.817 2.98.031 4.77.657 6.8 2.805 2.76 6.286-2.16 16.287-4.25 22.603 6.77-5.94 13.94-13.051 18.17-21.088 1.97-3.726 3.79-8.683 1.94-12.812-1.59-3.527-5.46-5.31-8.98-6.241-18.29-4.839-39.34 6.162-54.91 14.794-10.73 5.951-32.99 19.553-40.74 28.459-1.36 1.562-1.96 3.706-2.49 5.667-.09.361-.17.725-.26 1.088-3.23-2.171-5.82-6.94-8.1-10.115 6.92-7.178 14.89-13.135 22.84-19.099 21.59-14.989 48.77-31.949 75.79-33.03 8.5-.34 17.87.894 24.25 7.076a20.17 20.17 0 0 1 5.96 15.485c-1.03 20.46-23.47 32.177-36.63 44.575l.15 1.14c.58.288 1.11.694 1.74.864 2.58.704 6.51-.595 8.84-1.639 14.55-6.503 28.5-22.058 33.87-37.018 2.66-7.398 3.4-15.211-.32-22.373-4.53-8.71-11.82-14.555-21.2-17.339-44.98-13.344-93.59 26.799-130.32 47.615-2.1-3.413-3.99-6.965-5.92-10.473 35.27-19.094 66.94-45.942 108.24-50.571"/><path fill="#5A286C" d="M1180.62 848.189c2.28-.231 4.63-.519 6.92-.249 2.77.328 5.77 1.286 7.25 3.863 1.08 1.869 1.05 4.151.48 6.169-1.21 4.254-3.56 6.58-7.33 8.643l-2.29-.852c-6.98-1.536-12.97-2.262-18.53-7.045-.45-1.434-1.1-2.059-.29-3.481 2.42-4.219 9.43-5.637 13.79-7.048"/><path fill="#FEFEFE" d="M1195.62 760.412a84 84 0 0 1 6.86-.332c21.64-.047 48.45 5.637 64.14 21.674 9.04 9.238 12.46 21.145 11.98 33.834-1.27 33.703-21.53 71.107-45.87 93.762l-9.5-10.817c11.69-14.378 24.06-28.612 31.65-45.704 6.89-15.511 11.44-35.487 4.89-51.769-3.59-8.936-12.25-14.195-20.75-17.848-66.88-28.732-128.23 27.509-186.78 51.292-22.77 9.461-49.67 14-74.274 13.759-20.999-.206-42.159-5.491-57.145-21.065-14.734-15.313-22.105-36.987-21.815-57.974 18.416 4.765 27.077 2.355 43.569-6.669 7.195 5.673 14.507 11.156 21.786 16.716 8.237 6.292 17.585 14.153 18.727 25.177 1.009 9.726-3.132 16.557-8.892 23.798l.332.945c5.713-1.323 10.693-9.823 14.381-14.19 2.601 4.827 5.107 9.218 8.578 13.495 75.313-4.656 121.303-60.851 198.133-68.084"/><path fill="#FEFEFE" d="M1204.27 409.311c6.34-16.589 9.15-37.324 27.38-45.3 33.17-14.515 142.78-18.6 176.18-4.151 15.55 6.727 25.72 25.252 31.49 40.463 6.72 17.746 7.56 34.308 4.93 52.943 8.99-26.397 4.38-42.518-7.61-66.85l-2.23-4.51c29.56-8.086 55.94-9.508 83.42 6.281 12.73 7.311 22.98 16.319 32.04 27.819 4.7 5.974 9.15 12.24 14.92 17.253 9.72 8.457 23.34 11.26 32.43 20.554 5.94 6.067 9.89 13.896 12.07 22.053 4.35 16.375 3.05 35.627-5.74 50.323-4.29 7.164-9.83 12.811-16.84 17.313 5.9 10.839 10.1 19.299 6.58 31.884-4.86 17.36-19.29 31.471-34.85 39.736-12.04 6.39-26.72 10.097-40.11 6.163-11.7-3.436-19.53-10.753-26.84-20.035-.3-13.017-1.96-21.294-11.92-30.589-4.09-3.824-7.77-5.956-13.2-7.276l-.33.657c8.44 9.897 16.02 16.715 15.03 30.568-.71 9.933-4.98 18.538-12.7 24.891-12.69 10.455-29.15 11.311-44.73 9.505l-1.4-.173c1.77-10.743 1.81-21.036-4.64-30.369-13.8-19.988-33.75-16.595-43.09-44.544 9.1-36.4 11.01-76.283-9.14-109.584-6-9.921-13.71-18.354-23.76-24.24 7.01 10.593 14.44 21.04 19.88 32.563 12.78 27.117 11.02 58.812 5.28 87.434-2.71 13.484-6.12 28.357-18.21 36.547-19.29 13.066-51.45 21.413-74.6 16.489-12.31-2.618-21.37-9.392-28.12-19.919-5.1-7.944-8.42-16.907-13.07-25.101-11.77-20.772-32.19-36.258-54.69-43.474 15.86 11.701 31.1 23.423 41.71 40.418 9.79 15.68 14.15 35.633 28.52 48.089-10.68 9.631-15.5 20.542-16.33 34.924-.56 9.71 1.19 18.643 5.52 27.394l3.99-1.236c-3.53-16.534-2.48-32.791 6.7-47.453 2.02-3.215 4.59-6.135 7.22-8.863.38.185.77.375 1.15.556 23.7 11.141 53.82 4.478 77.18-4.131 20.79-7.659 35.83-14.62 57.88-4.371 8.58 3.985 18.11 10.033 21.62 19.227 2.52 6.582 1.38 13.824-1.79 19.974-5.9 11.453-17.8 18.035-29.77 21.509-13.13 3.812-30.12 4.344-42.23-2.706-7.51-4.378-14.1-11.063-20.38-17.031 8.03 13.269 17.51 25.025 33.36 28.983 23.98 5.984 41.59-8.748 52.6-7.536 2.68.295 4.41 2.429 5.72 4.58 5.28 8.676 5.05 24.076 2.51 33.391-4.37 15.981-16.13 28.12-30.34 35.954-12.33 6.797-27.26 11.731-41.33 7.897-13.95-3.799-24.98-14.517-39.3-18.415-61.75-16.817-145.14.893-200.74 30.623-13.09 6.999-26.19 14.47-38.62 22.58-11.9 7.766-20.95 16.842-34.68 21.582l-2.82.999c7.58-1.172 15.32-2.192 22.64-4.539 24.8-7.95 49.65-28.563 74.59-39.745 47.31-21.206 154.64-43.878 197.87-10.927 12.38 9.431 19.5 24.912 21.21 40.153.69 6.146.21 12.263-.87 18.334-2.15 12.094-6.57 23.952-9.93 35.759-4.18 14.689-7.37 29.82-13.52 43.859a87.6 87.6 0 0 1-12.73 20.805 71.23 71.23 0 0 1-48.46 25.72c-5.66.498-15.7-.696-20.27-3.971l-.26-1.906c28.74-24.496 51.16-61.562 54.15-99.894 1.14-14.739-1.67-29.297-11.76-40.672-15.3-17.245-40.39-24.772-62.74-25.629-35.32-1.354-72.77 10.368-103.86 26.435-36.3 18.758-68.95 41.391-110.61 47-4.094-11.481-7.736-26.609-15.2-36.328-23.768-30.947-53.745-26.964-46.468-77.721-6.152 12.521-11.114 25.349-6.092 39.287 1.565 4.341 3.724 7.062 6.888 10.33-6.996 3.516-13.611 6.663-21.144 8.859-11.386-3.409-18.737-8.491-24.431-19.367-15.893-30.352-7.455-70.205 2.744-100.865 21.032-63.229 41.222-100.948 88.223-149.005-2.744 11.109-5.506 24.375 1.041 34.741 3.677 5.82 9.713 9.017 16.369 10.167 6.15 1.062 18.94 1.461 24.38-1.762-9.64-9.691-34.236.272-34.705-31.773-.204-13.887 7.229-25.322 16.735-34.732 37.65-37.284 132.98-92.967 186.86-93.508 2.99-.03 5.33.121 7.53 2.215 1.93 8.21.38 17.892.66 26.418"/><path fill="#5A286C" d="M1432.63 472.039c-.14.536-.26 1.076-.42 1.608-1.06 3.662-3.7 7.261-5.74 10.462 3.76-4.55 7.14-10.116 12.87-12.12-7.77 11.933-16.45 19.196-19.58 33.945-1.82 8.575-.87 21.793 4.35 29.243.62.885 1.28 1.742 1.88 2.647l.66 1.024 1.04 1.57c-1.93-.46-3-.457-4.55-1.781-5.48-4.671-7.67-17.437-7.99-24.182-.75-15.717 7-31 17.48-42.416m46.72.809c7.22.238 39.87 13.737 45.38 18.93 9 8.496 10.69 19.702 10.93 31.45-6.71-6.62-6.41-20.493-15.86-28.478-12-10.131-28.71-10.357-40.45-21.902M997.741 692.943c1.01 1.465-.583 22.744 5.359 33.113 7.12 12.436 17.87 14.54 30.5 17.876l.39 1.254-3.23 1.176c-9.34.835-16.95.223-25.01-5.189a33.52 33.52 0 0 1-14.094-21.477c-1.887-9.72.776-18.616 6.085-26.753m477.669-168.757c11.86-.715 21.6.359 32.17 6.408 10.72 6.143 21.12 16.132 24.05 28.448 2.94 12.357-1.03 21.793-7.59 31.942 2.02-10.485 3.77-20.689-.61-30.929-5.35-12.505-17.33-18.323-29.22-23.018-6.77-1.894-13.73-2.841-20.71-1.618-21.91 3.834-29.46 23.756-40.63 39.874-2.99 1.429-6.21 2.476-9.32 3.621 6.3-10.858 10.88-22.947 17.86-33.346 8.45-12.582 19.45-18.522 34-21.382"/><path fill="#5A286C" d="M950.594 598.94c.023 1.44.121.762-.387 2.319-2.825 8.653-5.718 19.26-4.391 28.388 1.187 8.162 4.231 22.34 11.47 27.133 15.588 10.321 37.582-22.613 47.604-31.444 8.88-7.823 20.12-14.826 31.96-16.783 6.02-.993 11.8.094 16.67 3.877 31.42 24.426-14.26 98.946-10.33 125.179 1.23 8.214 10.69 14.347 16.76 19.14l-.61 1.16c-3.46.862-6.75-1.149-9.69-2.775-4.41-2.441-12.61-7.704-13.79-13.014-.1-.448-.16-.905-.24-1.358-2.5-29.343 14.6-56.732 18.42-85.478 1.23-9.248 2.91-23.109-3.42-30.804-2.62-3.195-6.37-4.591-10.44-4.711-35.63-1.055-39.78 30.177-63.748 43.135-21.268 11.499-30.354.95-53.597 22.441l.655-1.403c6.555-13.96 13.996-16.868 28.055-21.912-6.704-10.144-11.429-20.569-11.834-32.925-.373-11.354 3.219-21.763 10.883-30.165m433.376 85.55c-6.14 9.29-10.56 15.45-22.12 17.627-16.54 3.114-58.45 1.336-72.33-8.828-16.65-12.196-10.43-32.68-41.07-29.143-22.08 2.548-44.13 18.27-62.29 30.332-4.22 2.807-9.78 7.649-14.54 9.142.12-1.798.61-2.989 1.23-4.661-.84-2.491-1.41-2.97-3.81-4.085-9.95-4.617-20.13-8.7-24.9-19.575-4.35-9.92-3.29-20.995.77-30.801 5.05-12.199 14.25-22.439 26.58-27.514 13.79-5.678 28.04-5.209 42.32-2.096-19.87 2.595-38.54 3.61-51.96 21.13-6.45 8.423-10.33 20.24-8.79 30.868.98 6.763 4.44 12.123 10.01 16.045 4.84 3.415 10.91 5.612 16.32 7.981 15.97-13.286 36.92-31.709 58.11-35.452l3.99-1.236c9.67-2.74 23.22-2.965 32.12 2.024 11.14 6.24 12.8 17.752 21.31 25.791 10.73 10.123 57.98 15.928 71.72 12.032 6.1-1.73 12.11-6.104 17.33-9.581m-132.26-312.623c15.77 1.966 29.58 6.98 39.57 20.153 4.91 6.471 7.4 13.241 10.09 20.797 10.9-15.114 23.94-32.858 43.61-36.403 12.2-2.198 23.9 2.893 33.55 10.024 36.07 26.653 20.35 58.65 66.09 72.867 8.41 2.613 17.78 4.442 26.56 3.018 10.78-1.748 24.55-7.81 30.79-16.966 3.24-4.746 4.47-10.335 3.17-15.95-3.76-16.17-15.81-24.469-28.42-33.459 13.5 4.939 26.95 10.886 33.23 24.868 3.48 7.749 4.49 17.939 1.3 25.94a98 98 0 0 1-2.07 4.73c23.58 5.802 46.47 16.426 59.47 37.883 8.62 14.234 11.94 31.503 7.45 47.725-3.17 11.449-13.72 27.094-24.27 32.501-4.72 2.422-11.62 4.086-16.85 2.816a33.5 33.5 0 0 1 4.98-1.366c7.73-1.534 15.83-11.687 19.78-18.134 7.68-12.546 11.54-27.004 7.93-41.545-4.37-17.584-16.55-31.759-32.08-40.625-10.31-5.886-21.69-10.34-32.56-15.101-10.47 9.624-20.8 15.909-35.62 15.404-9.24-.314-19.69-3.592-28.07.945-5.73 2.004-9.11 7.57-12.87 12.12 2.04-3.201 4.68-6.8 5.74-10.462.16-.532.28-1.072.42-1.608 1.6-2.314 3.17-4.468 5.09-6.534-8.29-3.924-17.96-7.756-24.16-14.758-8.6-9.695-11.83-23.321-17.95-34.551-9.13-16.747-28.78-39.978-50.19-32.831-15.11 5.045-29.29 20.002-35.73 34.326-6.77 15.045-5.46 35.169.68 50.329 5.28 13.067 15.45 21.594 25.22 31.259-16.06-7.931-29.09-19.272-35-36.728-3.15-9.28-3.87-19.282-4.96-28.964-3.63-32.151-15.97-46.606-43.92-61.72"/><path fill="#5A286C" d="M1165.85 413.41c13.13-.515 25.52.552 37.42 6.542 19.09 9.599 32.71 30.698 39.31 50.41 9.98 7.418 18.77 15.793 25.56 26.258 8.94 13.779 12.81 33.096 27.87 41.857 14.19 8.25 29.91 3.478 44.55-.488-8.3 6.072-17.91 10.445-28.33 10.731-42.92 1.177-42.34-43.816-66.95-66.416-16.2-14.888-40.97-21.185-62.55-20.023-24.52 1.319-50.43 12.366-66.7 31.01-11.09 12.699-18.14 29.108-16.64 46.185 1.69 19.237 13.31 31.773 27.43 43.303 5.1-5.26 10.56-9.723 17.44-12.426 15.79-6.2 31.98-1.923 46.73 4.698-8.48-.232-17.16-.857-25.63-.406-10.38.553-21.6 2.874-28.62 11.171-6.81 8.043-9.71 18.742-15.01 27.73-4.27 7.231-10.57 13.35-15.28 20.323-13.73 20.293-13.49 44.429-11.58 67.882.19 11.304 1.43 22.453 2.71 33.67a103 103 0 0 1-2.75-5.31c-15.85-33.219-11.6-59.922-.1-93.193-3.19-.021-6.51.224-9.68-.088-2.57-.253-3.98-.761-5.69-2.649 1.24-3.181 17.72-9.267 21.66-12.613 10.31-8.762 17.17-20.614 23.03-32.621-12.14-8.086-21.15-17.134-30.37-28.417-17.78 1.888-33.31 7.853-49.76-3.702a32.62 32.62 0 0 1-13.55-21.834c-2.17-13.456 2.71-25.311 10.25-36.076-3.96 9.249-6.95 18.54-5.79 28.772.93 8.224 4.76 15.135 11.28 20.255 13.96 10.975 29.31 8.5 45.45 6.228-3.32-9.956-3.62-20.713-2.21-31.06 3.23-23.551 16.81-39.218 35.07-53.246-6.56-2.455-13.21-4.897-19.53-7.932-13.57-6.514-19.97-15.551-24.86-29.33 19.45 19.075 25.56 24.261 53.43 30.092 37.53-14.97 60.69-11.812 97.71 2.141-3.58-7.409-7.64-14.303-12.62-20.867-16.66-21.944-35.18-26.151-61.08-29.672z"/></svg>