<svg xmlns="http://www.w3.org/2000/svg" style="display:block" viewBox="0 0 2048 2048"><path fill="#FEFEFE" d="M0 0h2048v2048H0z"/><path fill="#C28AD2" d="M1022.91 84.736c6.58 4.835 12.91 13.233 18.73 19.209 19.46 19.978 39.03 39.83 57.69 60.564 31.05-21.589 60.25-45.754 91.55-66.956 19.84 32.116 39.31 64.532 60.83 95.568 18.65-9.064 37.12-19.243 55.12-29.546 14.58-8.343 29.17-17.333 44.62-23.98a3348 3348 0 0 0 44.48 106.623c20.37-7.933 41.13-14.755 61.76-21.961 14.08-4.922 28.01-10.379 42.26-14.815a3533 3533 0 0 1 22.74 110.625c17.06-3.372 34.68-5.342 51.89-7.98 20.38-3.125 40.67-6.882 61.06-9.893l.72 108.624c35.91-.695 71.96.207 107.86 1.202-1.18 19.043-5.37 38.208-8.46 57.015-3 18.24-5.22 36.573-8.04 54.833 35.9 8.794 72.62 13.576 108.61 21.737-9.7 35.845-23.62 70.924-34.44 106.519 19.3 9.276 39.37 17.388 59.37 25.04 15.33 5.869 30.87 11.23 45.6 18.538-4.51 11.972-11.91 23.46-18.14 34.647-11.86 21.278-24.1 42.397-35.46 63.943a986 986 0 0 0 53.27 35.742c14.43 9.137 29.86 17.781 43.22 28.377-21.99 29.916-45.78 58.47-67.48 88.553 10.46 8.422 19.8 18.54 29.77 27.599 17.41 15.834 36.42 30.997 51.6 49.027-25.41 27.4-58.15 51.89-81.48 79.94 21.17 29.11 45.05 56.44 64.48 86.78-29.08 22.28-62.35 42.93-94.58 60.43 8.33 15.84 52.76 88.75 50.66 101.31-7.76 5.17-19.19 8.19-27.93 11.62a6714 6714 0 0 0-69.73 27.24c4.29 13.4 32.68 96.11 31.64 102.26-9.1 8.51-52.57 14.77-66.86 18.37a624 624 0 0 0-39.28 11.24c5.24 37.31 8.5 74.88 13.89 112.14a1965 1965 0 0 0-106.52 3.28 4094 4094 0 0 0-5.02 109.34 1943 1943 0 0 0-108.2-19.07c-5.46 16.66-8.99 33.82-13.03 50.85a1754 1754 0 0 1-14.53 57.02c-10.34-3.29-20.42-7.5-30.64-11.13a6737 6737 0 0 1-68.95-24.41c-7.94 13.79-13.68 29.17-20.05 43.71a5018 5018 0 0 1-27.41 60.88c-13.24-6.18-25.67-13.83-38.41-20.95-18.71-10.47-37.88-20.74-57.26-29.93-24.11 28.7-41.24 63.55-62.8 94.18-29.69-23.85-62.09-44.39-91.42-68.67-24.29 25.86-47.62 52.55-71.99 78.35l-3.52 3.25c-.7-.06-1.47.11-2.12-.18-9.78-4.32-58.253-64.69-76.959-78.12-13.433 7.55-25.977 18.42-38.288 27.75-16.686 12.65-33.845 24.88-49.742 38.51-22.18-29.82-41.956-62.18-62.042-93.48-13.986 6.32-89.412 51.65-99.765 50.14-9.917-10.17-35.576-83.16-42.888-101.26-24.707 5.39-49.75 14.04-73.754 22.06-8.027 2.68-15.994 6.44-24.171 8.54-2.752.7-6.036 1.26-8.693-.1-2.832-1.45-4.22-4.91-4.981-7.8-2.453-9.34-3.281-19.72-4.891-29.31-3.919-23.32-7.717-46.8-12.953-69.87-17.6 2.68-101.098 20.84-111.423 15.53-1.399-10.93-.137-22.67-.272-33.72a2767 2767 0 0 0-1.849-72.2c-15.532-1.22-98.881-1.03-105.373-4.94-3.571-14.61 12.147-90.87 15.304-109.45-15.54-2.86-30.864-7.08-46.407-10.06-16.883-3.23-34.339-5.21-51.003-9.34-3.733-.92-8.275-2.04-11.191-4.67 2.47-11.27 7.617-22.47 11.517-33.37 8.379-23.41 16.999-46.88 24.42-70.61-21.412-9.69-43.132-19.4-65.042-27.91-13.721-5.33-29.377-9.19-42.169-16.34 5.68-16.03 15.013-31.37 23.166-46.26 9.877-18.04 19.545-36.25 30.517-53.66-30.031-20.86-66.079-38.94-93.88-61.86 7.364-12.77 17.88-24.13 26.931-35.75a2108 2108 0 0 0 40.001-53.84c-13.605-13.76-74.185-65.33-79.41-77.74 1.85-6.65 70.787-67.775 79.505-75.396-12.322-18.965-26.971-37.529-41.017-55.28-8.329-10.525-17.731-20.843-24.468-32.472 10.396-9.552 24.421-17.099 36.257-24.897 18.485-12.18 36.71-24.969 55.705-36.332-14.842-34.6-35.731-65.548-52.024-99.292 12.078-6.802 26.258-11.074 39.172-16.102a5518 5518 0 0 0 65.79-26.376c-4.242-14.145-7.793-28.413-12.409-42.462-5.752-17.503-18.481-48.272-20.201-65.384 9.304-6.21 86.179-18.122 104.41-23.565l1.388-.421c-1.593-22.9-6.354-46.93-10.41-69.527-1.464-8.158-5.996-23.652-5.314-31.489.172-1.981 1.061-4.632 2.372-6.186.401-.476 1.488-1.561 2.177-1.862 4.095-1.79 90.904-3.594 103.061-4.373a2148 2148 0 0 0 .706-63.453c-.09-12.38-1.445-25.758-.226-38.045.276-2.779 1.533-4.66 3.809-6.286 2.05-1.465 3.711-1.817 6.196-1.657 9.609.619 19.975 3.749 29.463 5.689 23.584 4.822 49.027 10.672 73.002 12.133l1.456.082c4.339-19.073 14.678-95.476 21.384-105.311 6.676-.887 92.925 28.365 106.177 32.876 7.131-16.36 34.535-97.68 43.973-103.854 10.369 1.673 22.091 9.868 31.425 14.887 12.793 6.879 25.729 13.462 38.577 20.234 8.711 4.592 17.358 9.849 26.547 13.412.368.143.74.277 1.11.415 22.632-29.833 42.032-62.717 63.754-93.31 9.442 5.843 18.279 13.259 27.169 19.923 20.817 15.604 41.222 31.761 62.36 46.929 14.692-15.196 28.678-31.127 43.015-46.661 10.549-11.427 21.609-22.345 31.729-34.161"/><path fill="#FEFEFE" d="M1023.61 103.683c26.3 24.698 48.02 54.302 75.07 78.203 15.93-13.55 33.82-25.213 50.66-37.634 12.42-9.161 24.69-19.855 37.92-27.727 14.48 20.696 27.68 42.886 40.95 64.399 5.83 9.443 10.92 20.014 18.07 28.495 31.67-11.361 66.32-36.063 98.28-50.68 15.32 33.897 28.07 68.765 43.6 102.613 34-11.124 67.77-23.735 102.09-33.768 5.19 21.322 9.21 42.807 13.13 64.39 2.5 13.792 4.14 28.651 8.78 41.88a6747 6747 0 0 0 109.75-17.253c.24 35.771-.1 71.968 1.76 107.677 13.94 1.596 29.08.046 43.14-.178a2230 2230 0 0 1 62.99.245c-3.29 24.012-7.9 47.93-11.73 71.874-1.78 11.153-4.68 23.47-4.39 34.772 2.47 3.141 7.18 4.413 10.87 5.504 11.83 3.5 24.96 4.943 37.13 7.273 18.99 3.638 37.87 7.909 56.83 11.703-5.52 22.1-12.54 43.746-19.88 65.302-4.37 12.823-9.57 25.761-12.74 38.915l103.28 42.114c-18.2 32.397-35.59 65.285-53.63 97.778 32.2 19.867 65 39.95 95.52 62.32-10.11 14.107-21.22 27.463-31.84 41.183-11.77 15.211-22.59 30.732-36.12 44.501 27.34 24.913 54.02 50.338 82.38 74.136-15.59 15.83-31.71 31.13-47.46 46.8-11.39 11.35-22.35 23.1-34.07 34.11 23.03 27.38 46.63 56.6 65.4 87.05-30.96 19.42-62.69 37.6-93.87 56.66 8.85 16.84 17.39 33.87 26.47 50.59 8.56 15.75 18.72 31.05 24.52 48.09-32.46 13.97-67.13 23.96-98.74 39.75 5.34 10.33 8.85 21.8 12.71 32.75 7.96 22.57 15.12 45.39 22.9 68.02-14.13 2.54-28.04 6.98-41.93 10.65-21.36 5.64-43.01 10.81-63.8 18.35 1.07 14.5 3.49 29.02 5.15 43.47a1780 1780 0 0 1 5.97 64.29l-102.84 3.99c-.19 15.18-1.42 30.5-2.18 45.66-.98 19.75-1.43 39.9-4.59 59.43-16.52-1.24-33.38-5.28-49.69-8.16-17.88-3.16-35.84-5.56-53.75-8.54-10.4 34.12-18.43 69.27-27.96 103.69-32.6-8.79-64.67-21.39-96.55-32.51-17.23 32.96-31.54 67.5-47.24 101.2-12.49-5.49-24.69-12.8-36.89-19-18.84-9.59-38.21-18.61-56.52-29.17-20.69 24-43.83 62.9-61.56 90.31-30.87-20.2-59.22-44.12-89.48-65.21-24.01 19.82-52.62 55.52-74.55 79.51-5.97-2.26-65.623-67.5-77.331-78.63-10.013 6.03-19.446 14.05-28.785 21.13a5957 5957 0 0 1-58.483 44.56 3236 3236 0 0 1-60.662-90.25c-15.739 6.31-30.802 15.62-45.652 23.83a807 807 0 0 1-52.018 26.69c-15.13-33.89-28.065-69.12-42.093-103.5-35.414 11.11-70.979 22.83-105.985 35.17-2.518-17.53-6.616-35.08-9.68-52.56-3.177-18.13-5.096-38.23-10.76-55.68-36.348 5.34-73.229 12.12-109.25 19.38-.284-36.07.12-72.17-1.091-108.22-35.372-2.88-71.153-1.09-106.624-3.55 5.282-35.8 12.824-71.3 18.02-107.06-35.231-9.01-71.305-14.6-106.653-23.6 10.28-34.82 25.258-68.37 34.705-103.38-13.767-7.56-29.706-12.69-44.358-18.39-20.627-8.03-41.23-16.51-62.19-23.61 9.977-16.63 18.194-34.37 27.488-51.4 8.709-15.95 18.642-31.3 26.524-47.69-10.201-7.24-21.116-13.49-31.648-20.24-20.034-12.85-39.915-25.82-60.27-38.16 8.7-15.2 19.506-28.82 30.045-42.74 11.752-15.52 23.414-31.05 35.559-46.28-27.692-24.4-53.862-50.45-80.217-76.28 7.924-8.35 16.958-15.92 25.366-23.795l54.292-50.833c-7.395-12.232-16.676-23.569-25.271-34.982a1575 1575 0 0 1-37.711-51.341c10.171-8.812 21.933-15.906 33.096-23.386a5206 5206 0 0 1 56.6-37.529c-15.527-32.399-34.521-63.414-49.784-95.929 32.04-17.803 69.612-25.944 101.772-43.65-11.033-34.803-23.48-69.765-32.767-105.035 34.527-6.673 70.07-12.677 103.916-22.137-2.869-13.076-3.444-27.353-5.37-40.67-3.198-22.12-7.472-44.18-10.128-66.356 11.421-.763 98.887-1.79 103.446-5.639 6.486-5.474 3.478-91.002 3.18-105.206 36.526 6.772 73.431 11.829 110.061 18.083 9.009-34.039 14.667-69.715 21.249-104.323 35.138 10.053 69.99 20.69 104.933 31.401 6.879-13.575 11.724-28.718 17.152-42.96a1055 1055 0 0 1 24.293-59.451c33.014 14.792 64.056 34.58 96.78 49.958 8.303-10.097 15.428-21.668 22.664-32.583 13.305-20.07 26.256-40.033 41.17-58.973 29.377 20.539 56.769 44.805 87.239 63.56 25.867-24.608 49.566-51.505 73.911-77.581"/><path fill="#5B2F81" d="M988.585 242.425c.404-.041.807-.095 1.212-.122 23.423-1.545 47.243-.627 70.663.416a769.1 769.1 0 0 1 386.09 121.74c28.44 18.055 56.07 37.162 81.56 59.258 167.73 145.428 261.76 330.008 277.07 551.763 13.47 195.11-52.21 403.54-181.31 551.36-120.87 138.4-277.26 234.09-459.32 266.31-33.17 5.87-66.73 8.44-100.3 10.68l-2.97.17a776.1 776.1 0 0 1-364.085-68.22c-15.151-6.89-29.887-14.99-44.606-22.76-51.125-26.99-100.896-59.94-144.014-98.58a783.55 783.55 0 0 1-265.045-553.3 783.87 783.87 0 0 1 200.629-563.206 781.96 781.96 0 0 1 544.426-255.509"/><path fill="#FEFEFE" d="m998.072 264.446.275-.01c208.843-4.742 401.853 67.524 553.763 211.29 146.84 138.969 226.38 331.596 231.61 532.764a743.55 743.55 0 0 1-205.19 533.48c-137.02 143.88-327.03 235.22-527 240.13a301 301 0 0 1-3.39.16 759.5 759.5 0 0 1-457.154-133.85c-27.832-19.02-54.621-39.16-79.419-62.04a762.17 762.17 0 0 1-246.092-534.19 756.1 756.1 0 0 1 163.72-501.564c15.786-20.108 33.305-38.944 50.687-57.675 24.837-26.767 52.218-49.686 81.145-71.855a759.52 759.52 0 0 1 437.045-156.64"/><path fill="#5B2F81" d="M365.497 866.917c1.306-.113 2.712-.286 4.03-.224 3.393.16 6.228 1.296 8.528 3.83 2.197 2.423 2.861 5.197 2.606 8.393-.341 4.258-3.218 7.217-6.187 9.937-4.461-.071-9.099-1.21-12.296-4.522-2.017-2.09-3.169-5.039-2.758-7.956.578-4.102 3.13-6.819 6.077-9.458m388.559-463.983c3.11 1.682 32.095 66.394 41.705 77.385l-13.263 7.974c-.867.258-1.836.156-2.738.163-12.184-26.663-26.968-52.449-38.499-79.38zm400.484-44.376 16.16 3.354a2857 2857 0 0 1-18.37 87.152l-14.79-2.989a7637 7637 0 0 1 17-87.517M494.382 603.052c20.496 14.519 41.285 29.633 60.476 45.856 4.788-8.363 10.203-16.038 15.99-23.741 4.01 3.109 7.671 6.826 11.402 10.269l-6.728 10.026c-5.79 8.568-12.025 16.596-19.323 23.936-20.058-21.308-47.624-35.165-69.82-54.296 2.504-4.107 5.318-8.058 8.003-12.05M347.502 944.67c5.116.155 9.829.908 14.825 1.889-1.453 11.997-2.07 24.175-2.391 36.248 26.757 1.94 53.603 3.645 80.295 6.32-.288 5.034-.82 9.835-1.621 14.803-31.868-1.47-64.016-2.96-95.752-6.172.335-17.619 2.828-35.55 4.644-53.088m722.438-596.877c22.69.942 45.84 4.732 68.35 7.803-.29 4.832-1.03 9.554-1.77 14.33a2651 2651 0 0 1-27.16-3.386c-1.62 15.226-4.29 30.382-6.65 45.509-.95 9.496-2.64 19.491-4.9 28.758-4.55-.443-8.85-1.281-13.31-2.274 2.68-24.656 5.03-49.405 8.5-73.962l-23.91-2.768c.05-4.667.52-9.355.85-14.01m-342.879 68.12c3.137 1.699 4.909 8.83 6.152 12.104-8.216 4.253-16.388 8.494-24.335 13.241 12.896 21.273 26.476 43.096 37.541 65.355-4.824 3.358-9.845 6.047-15.044 8.764-3.89-8.466-8.303-16.681-12.617-24.936a613 613 0 0 0-22.514-40.3c-8.469 4.024-16.531 9.404-24.538 14.27-3.225-4.374-5.749-8.53-8.142-13.409 19.866-12.887 42.003-25.232 63.497-35.089m166.422-56.593 1.445.257c2.297 3.53 2.888 8.844 3.836 12.942a1582 1582 0 0 1-32.96 6.988c1.288 8.159 3.184 16.152 5.066 24.188a1363 1363 0 0 0 32.284-7.576c1.67 4.2 2.72 8.612 3.899 12.969l-33.107 6.521 3.879 17.952c1.618 6.555 2.776 13.207 4.01 19.843-4.635 1.309-9.453 1.824-14.213 2.505-9.477-27.483-13.577-57.602-21.514-85.714 15.285-4.719 31.6-8.198 47.375-10.875m-550.602 665.13 13.056.13.068 32.47 25.789.28a2691 2691 0 0 1-.572-31.09l14.806-.35-.042 32.28a695 695 0 0 0 29.264.2l13.815-.22 1.108 15.02-98.212-.13c.22-10.55-1.993-40.67.92-48.59m684.939-678.263c6.3-.282 22.22.429 26.54 5.459 1.95 2.268 1.9 3.28 2 6.101-1.51 4.123-5.01 6.651-8.18 9.532-2.88-2.327-5.68-4.24-9.26-5.349a23.03 23.03 0 0 0-18.02 1.918c-6.29 3.589-10.2 9.942-11.92 16.843-2.34 9.381-1.28 23.132 3.9 31.377 2.82 4.479 7.06 7.295 12.22 8.404 8.18 1.762 15.89-.901 22.74-5.167l1.36-.858 1.53 1.085 7.73 8.68c-5.56 5.029-12.07 9.083-19.31 11.183-9.24 2.677-18.94 1.605-27.23-3.346-10.12-6.052-16.98-16.738-19.614-28.1-2.895-12.488-.963-27.733 6.022-38.623 6.742-10.504 17.472-16.662 29.492-19.139M589.741 508.908c1.458-.048 2.703.137 4.14.35 3.046 2.766 3.924 6.765 5.236 10.554-7.022 2.511-16.962 6.957-20.244 14.077-1.405 3.048-1.535 7.222-.334 10.336 4.511 11.703 35.61-4.746 52.421 3.853 4.464 2.283 7.632 5.905 9.155 10.698 2.144 6.745 2.157 17.305-1.189 23.681-4.717 8.993-15.855 15.526-25.289 18.53-3.186.178-5.796.447-8.848-.74-2.707-3.829-2.506-9.127-3.121-13.772 3.381-.152 6.951-.212 10.211-1.188 5.305-1.587 10.519-5.12 13.142-10.096 1.791-3.398 1.766-6.69.647-10.295-8.646-9.24-33.186 3.139-46.891-1.061-5.845-1.791-10.609-5.572-13.285-11.11-2.655-5.494-4.523-14.581-2.195-20.466 4.599-11.622 15.369-18.891 26.444-23.351M397.87 882.464c3.373.627 5.946.993 8.709 3.112 5.75 8.714-2.178 32.401-4.063 42.81a449 449 0 0 1 26.788 5.467l8.544-39.607c4.659.836 9.27 2.209 13.853 3.392-2.249 9.389-7.623 44.874-11.19 50.928l-2.533.024c-30.605-3.689-60.891-9.636-91.537-13.014.968-5.879 2.263-11.736 3.425-17.581l38.691 8.701c2.609-14.826 6.084-29.529 9.313-44.232m14.66 286.976c.624-.06 1.204.36 1.794.57 4.242 11.45 5.944 24.4 9.207 36.25a1205 1205 0 0 1 39.751-10.37l4.802 13.46c-28.691 9.57-58.763 16.69-88.013 24.48-2.595.73-4.85 1.68-7.518.78-6.211-11.45-11.818-40.82-14.286-54.42l16.187-1.43c3.333 12.6 5.775 25.57 8.564 38.31 7.92-3.12 16.162-5.35 24.324-7.74-.646-12.63-4.768-25.07-4.889-37.65 2.745-1.75 6.861-1.82 10.077-2.24m395.781-789.175c7.791-.419 15.087.709 22.613 2.616-1.286 5.491-3.377 10.747-5.303 16.04-3.969-1.832-9.82-4.722-14.198-4.754-4.221-.031-10.104 2.329-12.744 5.729-1.644 2.118-2.205 4.016-1.783 6.7 1.93 12.27 33.704 10.011 44.675 18.083 4.784 3.521 8.137 8.875 8.733 14.841.735 7.344-1.907 15.402-6.739 20.963-6.706 7.718-16.165 10.347-25.985 10.91-9.312-.795-17.022-3.781-24.847-8.765 2.537-3.911 4.68-8.081 6.916-12.169 3.226 1.53 6.473 3.075 9.945 3.967 6.655 1.709 13.523 1.435 19.407-2.392 3.761-2.446 5.316-5.962 6.163-10.209-3.27-12.747-32.911-8.631-43.487-15.327-5.88-3.722-9.094-9.233-10.25-16.012-1.16-6.796.995-12.752 4.928-18.269 5.704-8.001 12.686-10.332 21.956-11.952M630.522 473.73c29.062 16.226 56.094 37.467 87.236 49.748-4.733 3.583-9.777 6.831-14.683 10.176l-16.386-9.852c-3.501 1.843-6.77 4.142-10.074 6.313-5.409 4.18-11.068 8.011-16.691 11.896 1.886 4.643 6.348 12.58 4.657 17.602-1.4 4.159-7.072 6.752-10.608 8.886-8.205-29.916-20.868-58.948-28.44-88.906.975-3.035 2.588-3.834 4.989-5.863"/><path fill="#FEFEFE" d="M644.882 497.569c10.329 5.302 20.528 12.956 30.564 19.026l-6.43 4.257-13.275 8.303c-3.031-10.626-7.253-21.133-10.859-31.586"/><path fill="#5B2F81" d="M425.424 709.703c17.957 7.859 35.707 16.403 53.393 24.858 6.069 2.902 14.054 5.692 19.506 9.551 1.48 1.047 3.284 2.975 3.822 4.775.354 1.185.794 2.796-.044 3.865-5.977 7.629-52.218 13.885-64.294 16.119 15.598 8.489 32.092 15.365 47.739 23.895-1.668 3.84-3.257 9.161-6.297 12.05-17.044-8.372-34.108-17.443-50.67-26.728-5.041-2.826-22.475-11.674-23.844-16.563 7.102-4.643 55.047-11.904 67.842-14.254-17.511-8.81-35.732-15.787-52.695-25.733 1.55-4.108 3.547-7.933 5.542-11.835m519.051-359.642.218.027.394-.455c3.372 2.812 38.877 73.65 44.493 84.144-5.664 1.287-11.445 2.235-17.155 3.31-1.479-4.145-3.163-11.48-6.53-14.397-2.605-2.257-4.976-1.541-8.137-1.408-7.409.861-14.919 1.303-22.354 1.943-.453 6.431-1.984 12.746-3.281 19.048-5.212.622-10.393 1.461-15.58 2.262 1.887-16.091 6.154-32.116 9.417-47.996 2.889-14.063 4.907-29.308 9.499-42.889 2.537-2.442 5.705-2.814 9.016-3.589"/><path fill="#FEFEFE" d="M944.246 376.667c4.642 5.871 9.482 17.649 11.945 24.801.874 2.537 1.762 4.196.595 6.738l-2.605.408c-5.162.428-10.323 1.172-15.467 1.789 2.346-11.158 3.87-22.461 5.532-33.736"/><path fill="#5B2F81" d="M462.341 653.744c29.716 7.01 59.213 15.375 88.74 23.165l-8.189 13.815c-5.979-1.245-11.931-2.705-17.887-4.061-6.074 9.034-12.159 17.236-20.213 24.611l-.787.855c.442 2.193.784 2.617 2.182 4.274 2.736 3.245 5.945 6.569 8.194 10.141 1.511 2.399 1.68 3.509 1.006 6.192-4.215 3.589-10.007 4.559-15.235 6.112-9.644-23.595-32.538-47.899-45.384-72.347 2.079-4.449 4.967-8.597 7.573-12.757"/><path fill="#FEFEFE" d="M473.484 672.569c12.345 1.51 25.67 6.227 37.801 9.32l-8.309 9.736-8.628 11.061c-7.174-9.853-13.833-20.147-20.864-30.117"/><path fill="#5B2F81" d="M438.204 1090.99c.113.06.241.1.34.18 2.548 2.14 3.02 11.83 3.741 15.42-15.022 9.69-31.149 22.62-48.436 27.52-2.159-6.7-3.591-13.09-8.723-18.21-2.696-2.69-6.339-4.88-10.301-4.49-3.03.3-5.656 2.42-7.454 4.76-6.215 8.08-4.106 18.15-2.968 27.43 27.102-4.78 54.484-9.37 82.011-10.76l3.292 14.02-11.86 1.41c-28.355 3.01-57.255 7.6-85.171 13.44-2.74-14.09-8.1-32.79-3.108-46.58a27.73 27.73 0 0 1 15.395-16.34c6.932-2.99 15.208-3.59 22.253-.64 7.92 3.32 10.87 8.54 14.116 15.98a1444 1444 0 0 1 36.873-23.14m853.306-692.616c4.61 1.15 8.89 3.861 13.08 6.067 4.62 23.615 7.19 47.456 9.84 71.347 10-16.979 16.16-35.894 26.8-52.627 5.11 1.712 9.54 3.944 14.26 6.51a2515 2515 0 0 1-23.8 47.514c-4.49 8.788-8.74 18.262-14.12 26.52-1.39 2.123-1.4 2.721-3.93 3.279-3.78-1.894-7.44-4.031-11.13-6.095-2.75-9.583-3.23-20.548-4.29-30.453a2631 2631 0 0 0-4.84-43.002c-10.36 18.174-19.19 38.141-27.83 57.191-5.24-1.803-9.87-3.524-14.6-6.491 12.67-27.001 26.86-53.281 40.56-79.76M415.841 1239.29c5.411.75 10.108 2.12 14.907 4.8 12.03 6.7 15.538 19.64 19.293 31.85 11.504-3.97 23.001-7.79 33.661-13.73 2.846 4.87 4.894 10.06 7.063 15.25-11.444 4.76-23.391 8.71-35.01 13.06-18.341 7.18-36.983 13.49-55.252 20.88-4.287-10.22-9.502-20.87-12.106-31.63-2.176-9-2.228-18.86 3.041-26.87 5.549-8.42 14.982-11.68 24.403-13.61"/><path fill="#FEFEFE" d="M411.868 1258.08c3.303-.43 6.604-.77 9.807.41 8.671 3.18 12.259 13.11 15.873 20.8l-13.98 5.67c-4.717 2.21-9.611 4.09-14.429 6.07-2.879-6.72-7.547-15.15-5.904-22.64 1.12-5.11 4.485-7.56 8.633-10.31"/><path fill="#5B2F81" d="M1555.6 1179.03c7.35 2.35 14.29 5.16 21.1 8.81-2.99 12.2-8.08 24.35-12.32 36.19 32.58 14.07 66.68 24.18 98.7 39.63l-8.12 20.26c-7.2-2.34-14.24-5.21-21.3-7.95a1365 1365 0 0 0-79.23-30.17c-2.72 6.43-4.84 13.16-7.12 19.76-7.68-3.72-15.12-7.64-22.49-11.94 10.63-24.82 21.39-49.22 30.78-74.59M407.947 793.225c12.898-.707 25.965 3.171 37.205 9.399 10.399 5.763 20.107 14.559 23.179 26.439 2.152 8.319 1.1 17.884-3.47 25.233-6.002 9.653-15.667 14.158-26.274 16.675-14.434.618-27.15-.176-40.128-7.168-10.098-5.44-18.767-13.847-21.885-25.159-2.5-9.071-1.457-19.236 3.5-27.308 6.3-10.256 16.52-15.492 27.873-18.111"/><path fill="#FEFEFE" d="M410.553 808.234a56.8 56.8 0 0 1 26.105 5.487c7.735 3.756 14.51 9.77 17.057 18.215 1.367 4.535 1.318 9.362-1.155 13.514-3.838 6.444-10.499 9.739-17.442 11.578-9.715.21-18.158-1.235-26.95-5.723-7.853-4.009-14.942-10.127-17.445-18.873-1.236-4.319-1.184-8.741 1.11-12.703 3.659-6.32 11.942-9.99 18.72-11.495"/><path fill="#5B2F81" d="M1212.54 373.114c8.43-.72 16.85.314 24.57 3.909 8.84 4.111 15.38 11.424 18.65 20.583 4.84 13.583 2.95 29.56-3.66 42.26-6.73 12.935-16.6 19.873-30.22 24.013-7.1 1.604-14.13.692-20.9-1.995-9.82-3.901-17.09-12.33-20.8-22.086-5-13.129-2.86-27.505 2.75-40.056 6.28-14.064 15.68-21.189 29.61-26.628"/><path fill="#FEFEFE" d="M1217.67 389.047c3.41-.187 6.68-.147 9.91 1.096 5.72 2.201 9.7 6.195 11.87 11.915 3.63 9.565 1.78 20.866-2.7 29.819-4.32 8.621-9.96 13.965-19.03 17.106-4.18.219-7.92.253-11.78-1.594-5.05-2.413-8.69-6.653-10.53-11.914-3.33-9.498-1.36-21.761 3.15-30.55 4.48-8.721 9.9-12.954 19.11-15.878"/><path fill="#5B2F81" d="m1683.49 849.267 1.35.143c4.41 5.971 13.49 63.804 15.25 74.052-14.26 3.386-29.91 4.451-44.49 6.34a6346 6346 0 0 1-82.07 10.289c-4.4-22.47-9.04-44.751-14.38-67.018 4.87-.741 9.81-.969 14.73-1.315l9.48-.007c3.99 14.779 7.17 29.845 10.65 44.754 9.44-2.024 19.05-3.499 28.55-5.206-1.55-13.542-4.7-27.074-7.92-40.308 7.24-1.599 14.58-2.89 21.85-4.326a593 593 0 0 1 7.95 40.697 939 939 0 0 0 29.14-3.552c-2.74-16.841-6.25-33.612-9.44-50.376 6.3-1.797 12.93-2.863 19.35-4.167m-26.36-106.21 1.1.2c-.13 1.058-.11.463.02 1.787l1.29.481c4.92 24.14 12.73 48.368 19.43 72.107-41.3 10.639-83.39 17.819-124.45 29.698-7.4-22.758-15.73-47.208-20.16-70.673a1280 1280 0 0 0 19.34-3.279l1.3-.057c4.67 4.596 11.42 36.852 13.75 45.577 10.19-2.323 20.13-4.829 30.1-7.975-5.14-13.228-8.43-27-11.88-40.738 6.58-2.316 13.25-4.319 19.92-6.352 4.75 14.418 8.36 29.223 12.81 43.745 10.69-1.845 20.52-4.301 30.65-8.225a4709 4709 0 0 1-14-49.143c6.87-2.534 13.85-4.802 20.78-7.153m-411.32 807.063c3.23 4.13 21.98 61.31 25.12 71.17 4.67 14.61 6.99 31.76-.7 45.83-6.06 11.09-17.36 17.73-29.19 21.19-10.84 3.17-22.13 3.5-32.17-2.27-25.42-14.61-35.98-65.19-42.67-91.99l-4.16-15.11c7.28-4.01 14.65-6.05 22.67-7.93 6.58 21.87 17.96 82.87 37.42 93.9 4.87 2.76 10.28 3.18 15.64 1.69 4.59-1.28 8.3-4.28 10.49-8.52 2.32-4.5 2.73-9.7 2.27-14.67-1.96-20.85-18.48-63.56-25.77-85.22 6.79-3.19 13.98-5.55 21.05-8.07m49.65-26.45c1.06.22 94.35 76.82 105.16 85.06l-21.9 12.96c-7.38-5.48-14.52-11.33-21.83-16.9l-9.24 4.73a607 607 0 0 0-27.67 15.35c1.97 8.04 4.47 16.02 6.74 23.99-7.37 4.44-15.17 7.92-23.03 11.4a3992 3992 0 0 0-15.4-76.02c-3.39-15.78-8.06-32.14-9.85-48.15 5.88-3.86 11.42-8.18 17.02-12.42"/><path fill="#FEFEFE" d="M1303.83 1559c13.5 8.43 26.48 21.8 37.81 32.99l-7.9 3.44c-6.7 2.4-12.52 5.76-18.35 9.79-3.74-15.27-8.56-30.85-11.56-46.22"/><path fill="#5B2F81" d="M1109.63 1587.3c4.7-.65 10.47-.82 15.17-.33 12.24 1.26 19.36 8.3 26.72 17.3-5.31 5.77-11.1 10.54-17.72 14.72-4.61-5.77-8.9-9.74-16.6-10.66-6.52-.78-14.11 2.08-19.11 6.17-7.1 5.8-10 14.43-10.93 23.28-1.55 14.76 2.06 34.55 11.87 46 5.14 6.01 12.37 9.92 20.33 10.33 9.27.48 16.96-3.8 23.75-9.7-.21-6.27-1.05-12.6-1.66-18.86-7.93.54-15.39 1.74-23.18 3.35-1.21-7.31-1.67-14.38-3.81-21.53 5.89-1.24 11.85-2.23 17.77-3.32a543 543 0 0 0 30.01-6.79c3.14 17.05 9.01 45.27-1.22 60.8-6.77 10.28-20.01 14.27-31.52 16.45-13.54 2.56-27.75 1.54-39.24-6.76-14.93-10.8-23.82-33.51-26.53-51.18-2.62-17.09-1.25-37.41 9.58-51.62 8.77-11.5 22.69-15.53 36.32-17.65m328.89-189.76c15.01 13.54 37.68 20.18 55.8 29.06a1147 1147 0 0 1 59.35 31.12c-2.9 6.56-6.93 12.56-10.73 18.64-7.94-4.46-15.8-9.15-24.33-12.42-10.3 9.16-20.92 18.3-29.85 28.82 3.01 8.54 10.1 17.87 14.95 25.64a961 961 0 0 1-17.4 20.17c-7.39-11.2-13.05-23.95-19.6-35.73a3257 3257 0 0 1-45.5-82.86c7.56-6.48 12.97-13.47 17.31-22.44"/><path fill="#FEFEFE" d="M1450.57 1430.97c16.63 5.74 33.23 15.85 48.84 23.95-3.61 3.46-7.44 6.75-11.15 10.11-4.2 3.23-7.98 7.17-11.83 10.8-8.92-14.78-16.69-30.18-25.86-44.86"/><path fill="#5B2F81" d="M1450.88 511.29c12.59 6.16 24.31 17.867 35.26 26.738 14.93-3.904 29.9-10.822 44.51-16.033-3.64 15.501-8.95 30.687-14.16 45.713 9.43 12.46 18.9 24.698 27.97 37.447l-43.6-.108c-8.16 2.606-20.98 26.615-29.52 33.286a1852 1852 0 0 1-14.85-40.617 1040 1040 0 0 1-41.95-12.324c11.39-10.134 24.99-18.868 37.41-27.773-.61-15.448-1.37-30.865-1.07-46.329m250.43 581 .87.14c2.14 4.76-1.09 18.04-1.64 23.75-13.61 3.42-27.72 5.42-41.62 7.31-2.71 15.92-4.31 32.01-7.14 47.91 10.26 7.25 20.99 14.51 30.23 23.04-1.03 5.97-2.53 11.87-3.89 17.77-16.57-5.54-32.34-17.91-46.83-27.43-19.79-13.76-44.99-26.59-62.62-42.37 1.34-9.22 2.25-18.8 4.97-27.73 15.47-4.72 32.65-6.24 48.65-8.76 26.44-4.17 52.76-8.39 79.02-13.63"/><path fill="#FEFEFE" d="M1627.31 1127.26c.58-.09 1.16-.2 1.75-.27 2.08-.22 3.98-.49 5.58.87-.77 10.32-2.66 20.61-4.21 30.83-5.41-3.37-10.65-7.12-15.93-10.7l-20.03-14.44c10.97-1.98 21.9-4.19 32.84-6.29"/><path fill="#5B2F81" d="m597.495 1406.92 1.404 1.56c-.368 15.04-3.91 31-6.601 45.83 13.166 10.14 26.515 20.63 38.347 32.31a1594 1594 0 0 1-48.959 5.6 3695 3695 0 0 0-17.3 46.89c-8.171-15.1-15.702-30.64-23.526-45.93-16.176-.4-32.45-1.76-48.592-2.95 11.154-12.05 22.704-23.28 35.228-33.91-4.852-15.69-10.722-31.84-13.452-48.04 14.901 7.27 29.118 15.74 43.573 23.84 12.931-8.92 26.111-17.62 39.878-25.2m791.135 63.33c8 .47 14.67 2.26 21.4 6.82 7.99 5.41 14.08 13.7 15.81 23.3 1.83 10.16-1.4 17.8-7.26 25.83 21.26 5.78 42.89 12.72 64.75 15.58-6.37 6.97-13.62 13.26-20.5 19.72-22.04-1.88-44.32-10.97-64.78-18.96 4.29 6.23 9.08 12.11 13.76 18.05 4.82 6.21 16.22 16.52 16.37 24.32-2.44 6.89-12.59 11.33-18.65 14.98-5.55-10.6-13.81-20.5-21.08-29.98-17.67-23.05-36.77-44.89-53.83-68.42 14.77-12.59 34.49-28.16 54.01-31.24"/><path fill="#FEFEFE" d="M1383.47 1490.03a72 72 0 0 1 4.88.35c4.5.52 9.24 2.68 11.99 6.4 2.39 3.22 2.82 7.39 2.14 11.25-1.65 9.47-8.95 14.64-16.11 20.02-7.75-7.57-14.89-16.22-21.4-24.85 6.01-4.72 12.03-9.1 18.5-13.17"/><path fill="#5B2F81" d="m1703.7 957.497 1.85.21c2.18 6.238 1.31 13.944 2.4 20.577l.19 1.096c-13.32 9.06-27.57 17.039-41.38 25.32-16.5 9.89-32.9 20.24-50.08 28.91 28.09 5.92 61.47 6.41 90.47 9.72l-.14 21.83c-35.5-.7-71.86-5.34-107.25-8.51l-20.55-1.93.53-24.46c8.67-6.11 18.56-11.1 27.72-16.5 17.17-10.12 34.33-20.821 52.36-29.341l-80.88 4.927-.09-21.259c41.96-1.687 83.14-5.987 124.85-10.59M794.712 1568.31c15 7.81 27.147 23.67 40.945 33.7 16.191-5.68 32.14-11.31 48.601-16.21-6.33 15.6-13.555 30.92-20.076 46.46 10.43 13.13 21.995 25.52 31.461 39.38-16.644-.65-33.26-1.94-49.893-2.82-.332-.05-.663-.17-.995-.13-3.407.38-24.065 37.4-29.148 43.1-4.483-16.97-8.22-34.68-14.464-51.08-15.577-4.44-31.247-8.38-46.637-13.47 13.422-10.72 28.037-19.25 42.759-28.02-1.363-16.98-2.48-33.87-2.553-50.91m718.098-291.44c13.63 7.61 26.63 17.24 39.86 25.6a5040 5040 0 0 0 71.53 43.89c-2.01 6.58-4.94 13.03-7.49 19.43-16.03.99-32.14 3.43-48.16 4.88-19.72 1.78-39.28 2.49-59.07 2.9 24.68 13.49 48.54 28.04 72.32 43.04-2.47 4.82-7.14 16.63-11.86 18.82-1.36.63-2.85-.69-4.07-1.29-33.7-21.77-68.25-43.47-103.21-63.14l7.65-14.76c37.99-2.51 75.88-6.99 113.95-8.56-15.47-9.72-31.5-18.99-47.6-27.65-11.88-6.39-24.23-12.22-35.6-19.48 4.62-7.63 8.75-15.27 11.75-23.68m-502.17-773.429c92.97-3.248 191.07 21.577 271.87 67.537 31.29 17.797 65.34 43.504 92.29 67.327 18.19 16.076 34.31 34.407 49.73 53.117a513.4 513.4 0 0 1 118.13 299.518c8.9 143.91-42.66 278.24-137.58 385.52-67.67 76.48-164.62 131.42-263.64 154.5-33.66 7.85-68.29 11.84-102.74 13.95-102.351 2.59-194.134-17.64-282.3-70.97-27.339-16.54-53.069-34.88-76.866-56.26-110.801-99.53-167.906-222.57-175.852-370.96-7.066-131.973 42.794-271.451 131.198-369.404a523.42 523.42 0 0 1 285.424-164.142c29.845-5.856 60.01-8.177 90.336-9.733"/><path fill="#FEFEFE" d="M997.426 517.412c.321-.04.641-.089.962-.121 20.772-2.059 43.532-.535 64.332 1.142a508.66 508.66 0 0 1 288.67 118.664 494.54 494.54 0 0 1 175.29 333.786c9.01 102.487-7.98 195.507-55.92 286.697a548 548 0 0 1-62.67 94.09 508.75 508.75 0 0 1-285.81 168.67c-23.87 4.92-47.95 7.47-72.2 9.53-136.592 7.93-255.1-31.65-359.396-120.47a501.93 501.93 0 0 1-171.963-342.66c-10.37-130.9 29.293-266.372 115.133-366.652 17.266-20.172 35.511-39.947 55.431-57.522a519.83 519.83 0 0 1 236.087-116.518c23.863-4.664 47.841-6.743 72.054-8.636"/><path fill="#5B2F81" d="M851.978 939.17c3.736-.465 7.732-.872 11.448-.141 6.615 1.302 12.782 5.366 16.456 11.029a22.2 22.2 0 0 1 3.05 17.281c-2.067 8.486-7.441 13.085-14.739 17.242-4.478 1.065-8.841 1.759-13.392.633-6.496-1.607-11.984-6.138-15.072-12.034a25 25 0 0 1-1.663-19.428c2.468-7.362 7.237-11.142 13.912-14.582"/><path fill="#5B2F81" d="M1032.35 657.424c36.96-1.335 75.35 3.052 110.49 14.781 52.82 17.632 102.59 52.182 127.62 103.091 43.91 89.274 25.02 209.178-34.63 287.414a1030 1030 0 0 1-28.68 35.24c-15.09 17.65-36.35 37.47-43.61 59.96-3.98 12.31-1.3 22.11 4.18 33.24a1581 1581 0 0 0-20.15 12.47 63 63 0 0 1-1.05-4.52c-2.98-14.5-6.31-30.99-2.34-45.64 5.44-20.09 38.78-52.83 52.64-69.54 11.43-13.79 22.64-28.24 32.4-43.26 39.76-61.201 57.83-136.221 42.27-208.389-10.82-50.187-37.32-90.534-80.67-118.353-65.8-42.222-151.05-47.277-225.893-30.794-62.75 13.819-120.946 51.017-155.579 105.61-17.876 28.178-32.891 62.371-25.251 96.221l.235.87c4.398 16.728 15.917 33.554 16.341 50.927 1.003 41.103-68.038 75.468-67.674 89.698.266 10.43 25.612 18.11 32.499 25.3 9.265 9.66 1.446 49.67 1.375 63.95 24.964 2.62 52.913 2.79 68.324-20.2 3.145-4.7 6.077-10.8 11.399-13.26 3.25-.21 4.71-.27 7.716 1.27 1.857 2.31 2.542 4.09 2.504 7.04-.114 8.89-6.049 21.22-12.725 27.02-19.797 17.19-54.472 17.52-79.077 16.23-.996 14.52-1.932 29.46-.046 43.95 10.809 82.98 103.316 43.3 147.334 78.64 19.787 15.89 23.249 43.32 27.493 66.69 2.072 11.42 4.407 22.88 5.7 34.41-5.406 2.86-10.854 5.12-16.554 7.33-5.907-26.03-5.8-55.4-17.964-79.69-3.125-6.24-7.005-11.67-12.899-15.57-10.814-7.17-24.98-9.22-37.548-11.15-32.424-4.98-72.503-7.77-96.256-33.29-31.807-34.18-14.108-118.89-12.613-163-9.266-4.31-18.914-8.48-26.822-15.1-5.757-4.82-11.276-11.62-11.753-19.44-1-16.36 23.978-32.937 34.895-42.486 7.864-6.878 15.71-13.968 22.682-21.755 4.962-5.542 9.58-11.994 10.753-19.506 2.456-15.733-17.404-47.257-18.71-71.747-2.422-45.42 27.997-96.261 57.682-128.585 54.799-59.67 133.419-82.406 211.962-86.077m446.61 485.756.49.79c-18.35 80.64-64.05 155.66-121.45 214.38-74.51 76.24-178.89 124.63-284.13 138.4-22.75 2.98-45.54 3.65-68.47 3.91l-.87-1c19.08-15.3 40.43-28.63 60.16-43.25 42.37-31.39 84.23-63.56 126.19-95.5a13056 13056 0 0 1 170.69-130.29 3750 3750 0 0 1 117.39-87.44"/><path fill="#5B2F81" d="m1118.33 697.833 1.32.412c9 12.908 14.38 31.319 20.23 45.943 19.32-1.27 38.99-3.06 58.35-2.748-1 19.247-2.36 38.499-2.16 57.78 18.07 6.074 35.95 15.93 53.2 24.104-12.17 16.071-27.01 30.321-40.37 45.41 10.26 15.059 21.12 28.948 27.74 46.211-17.09 6.041-33.54 13.722-50.82 19.219-.9 19.173-2.81 38.376-4.74 57.472-19.07-3.512-37.92-8.184-56.79-12.621-12.25 14.893-22.43 31.325-34.14 46.635-14.3-12.64-25.2-28.775-38.47-42.473-19.09 4.909-37.55 11.899-56.701 16.679-2.992-17.897-4.685-36.028-7.356-53.981a1970 1970 0 0 0-55.618-12.93 1501 1501 0 0 0 24.273-52.75c-12.63-13.711-28.201-25.869-41.713-38.835 14.92-11.646 30.762-22.086 44.676-34.993-6.267-15.807-9.096-34.615-12.823-51.208a3086 3086 0 0 1 58.662-3.124c4.93-17.78 10.65-35.377 16.08-53.011 16.63 9.99 33.29 19.485 48.55 31.534 15-12.316 32.36-22.157 48.62-32.725"/><path fill="#FEFEFE" d="M1111.41 717.849c7.45 6.356 15.26 31.511 21.58 41.52 16.64-.143 33.44-2.614 50.08-3.647-1.02 17.452-.81 34.886-.42 52.352 14.2 7.298 29.31 13.289 43.96 19.617-9.91 13.186-22.49 24.905-34.1 36.567 6.98 14.86 16.13 28.514 23.66 43.092-14.68 6.295-29.74 11.697-44.22 18.471a1540 1540 0 0 1-3.3 49.238c-16.75-3.771-34.32-6.853-50.6-12.309-10.63 12.663-19.52 27.123-29.35 40.46-11.08-11.113-19.94-24.316-31.66-34.884-17.1 1.287-34.62 8.42-50.96 13.508-2-16.459-3.89-32.828-6.575-49.198-15.395-3.994-31.598-6.065-47.283-8.739 6.53-15.731 13.875-31.144 20.991-46.618-10.564-13.161-25.434-22.669-37.326-34.667 14.06-10.279 29.178-18.164 41.766-30.478a4010 4010 0 0 1-13.686-44.622 4045 4045 0 0 1 50.073-2.571c6.4-14.342 9.88-29.867 15.78-44.45a925 925 0 0 1 41.8 25.632 3208 3208 0 0 1 39.79-28.274"/><path fill="#5B2F81" d="M1072.7 753.401c24.2-3.005 52.5 4.921 71.84 19.586 24.28 18.404 38.81 44.062 42.66 74.323 3.06 24.068-4.23 54.621-19.31 73.824a109.98 109.98 0 0 1-73.44 41.776c-28.95 1.367-53.17-2.744-76.42-21.062-21.477-16.915-36.502-42.739-39.551-70.011-3.363-30.087 3.247-57.73 22.381-81.441 18.29-22.678 43.29-33.982 71.84-36.995"/><path fill="#FEFEFE" d="M1072 766.38c21.65-1.651 44.86 3.544 62.64 16.354 19.78 14.254 34.12 35.965 37.72 60.194 3.55 23.911-.67 48.663-15.29 68.295-14.86 19.957-38.64 34.189-63.15 37.697-24.92 1.012-47.97-2.662-68.09-18.549-18.83-14.862-31.578-38.619-34.342-62.352a92.28 92.28 0 0 1 19.442-67.984A90.48 90.48 0 0 1 1072 766.38"/><path fill="#5B2F81" d="M1104.95 802.718c3.92 2.781 7.54 4.98 11.93 6.951-5.14 10.087-10.31 20.217-16.26 29.855-9.64 15.621-30.59 44.188-35.2 61.472-.38 1.395-.6 2.302-1.25 3.655-.16.348-.36.68-.54 1.02-5.5-2.261-10.43-4.614-15.46-7.812 8.79-21.55 42.09-76.995 56.78-95.141m-60.13-3.493c3.13.081 6.15.537 9.11 1.609 6.62 2.395 11.95 6.818 14.61 13.416 3.05 7.562 2.18 15.989-1.08 23.331-4.74 10.719-12.93 18.101-23.73 22.328-5.2-.158-9.53-1.032-14-3.849-6.59-4.151-10.74-10.597-12.18-18.243-1.67-8.863.74-17.515 5.88-24.822 5.3-7.545 12.43-11.997 21.39-13.77"/><path fill="#FEFEFE" d="M1046.67 811.646c1.36.441 3 .878 4.23 1.613 2.28 1.367 3.87 3.514 4.6 6.063 1.38 4.805-.11 9.808-2.35 14.089-3.07 5.862-6.93 9.484-13.19 11.572-3.19-.903-5.81-2.075-7.79-4.797-1.87-2.553-2.33-5.743-1.66-8.787 1.92-8.666 8.96-15.231 16.16-19.753"/><path fill="#5B2F81" d="M1120.49 852.284c3.93.362 7.38.797 10.82 2.876 6.67 4.04 10.64 10.345 12.19 17.918a34.53 34.53 0 0 1-5.5 26.781c-5.7 8.14-12.59 11.637-22.15 13.41-5.13-.516-9.62-1.277-14.03-4.171-5.74-3.77-9.26-9.796-10.3-16.533-1.48-9.565 1.99-19.851 7.64-27.521 5.73-7.761 11.93-11.35 21.33-12.76"/><path fill="#FEFEFE" d="M1118.16 866.898c1.51-.053 3.34-.229 4.82.065a9.44 9.44 0 0 1 5.96 3.938c1.78 2.656 1.96 5.932 1.36 8.971-1.64 8.158-5.66 12.698-12.37 17.213-3.52.254-7.67.565-10.33-2.241-1.87-1.978-2.45-4.669-2.22-7.304.75-8.622 6.36-15.44 12.78-20.642"/><path fill="#5B2F81" d="M1492.56 958.837c2.16 12.48 2.16 25.733 2.53 38.366 1.26 43.697-1.72 76.677-9.15 119.737-31.13 21.64-61.22 44.8-91.68 67.36-140.4 103.94-275.77 214.8-418.451 315.59a661.4 661.4 0 0 1-110.18-22.63c-9.516-3.21-18.922-6.71-27.833-11.37 37.481-30.1 76.088-58.53 114.146-87.88l238.778-185.15 172.65-135a4216 4216 0 0 1 82.68-63.96c15.41-11.783 30.49-24.112 46.51-35.063"/></svg>