<svg xmlns="http://www.w3.org/2000/svg" style="display:block" viewBox="0 0 2048 2048"><defs><linearGradient id="a" x1="919.171" x2="1340.26" y1="2159.72" y2="278.743" gradientUnits="userSpaceOnUse"><stop class="stop0" offset="0" stop-color="#4C275C"/><stop class="stop1" offset="1" stop-color="#743172"/></linearGradient></defs><path fill="#FEFEFE" d="M0 0h2048v2048H0z"/><path fill="#8B3982" d="m1890.86 1287.12 4 2.96c-8.64 3.16-17.37 5.6-26.24 8.01l-.47-2.77 2.14-1.77c6.77-2.71 13.85-3.54 20.57-6.43"/><path fill="#F7E7EF" d="M1466.65 1514.51c7.7-.28 10.54 2.4 17.43 4.42 6.39 1.88 13.28 2.91 19.29-.57 1.63-.95 3.13-1.8 4.97-2.31 2.61-.72 5.93-1.31 8.33-.06-3.48 2.42-8.6 3.54-12.58 5.26-3.31.37-6.8 1.83-10.09 2.56-7.92 1.76-17.3 2.55-25.39 2.18-4.16-.19-7.07-.36-10.06-3.59l.53-.94c3.53.15 6.34.22 9.73-.85.41-2.71-.85-3.8-2.16-6.1"/><path fill="#C96D9E" d="M1795.62 841.114c.36.146.72.289 1.08.439 8.7 3.64 15.92 9.586 24.28 13.776 25.99 13.036 52.96 6.122 79.45-1.327l2.8 1.19c-6.43 2.092-12.85 4.262-19.31 6.281-20.81 6.507-43.91 8.202-63.34-3.308-8.22-4.87-15.44-10.851-24.01-15.268l-1.55-.792z"/><path fill="#AF4F9A" d="M1215.32 701.022c2.02-.339 2.16-.643 4.12.243 1.33 3.013 1.55 4.437 4.34 6.296 6.23.034 9.04-1.565 14.01 3.519.94.965.67.409.65 1.882-4.55-1.142-10.03-3.918-14.6-3.997 1.48 2.383 2.28 4.113 5.15 4.896 3.8 1.036 7.62 1.075 11.41 2.395l1.26 1.982c-4.74 1.075-8.95-2.47-13.7-1.76.94 2.15 2.05 2.918 3.92 4.278 2.98.539 7.53.173 9.87 1.796-2.1 2.529-4.79.207-6.47 3.246 1.99 2.824 4.43 4.079 7.39 5.776l1.29-1.441-.61-1.283c-.55-1.206-1-2.348-1.41-3.603l2.27.197c1.88 3.181.23 7.088 1.74 9.502 3.12 4.975 8.98 5.618 11.27 11.697-19.23-11.018-35.7-23.556-41.9-45.621"/><path fill="#8B3982" d="M1570.47 1390.59c.96-1.19 1.77-1.88 2.97-2.8l2.61.59c17.1 9.23 55.13-6.01 84.19 14.42l-.65 1.03c-5.52-1.13-9.3 3.26-14.58 2.23 2.88-.91 5.77-1.53 8.05-3.6-1.72-2.59-7.53-4.85-10.65-5.74-4.36-1.25-7.41.78-10.92 3l-1.04.67-1.21-.67 4.16-3.62-.47-.95c-13.21-3.31-27.99-1.06-41.28.67 1.69 1.83 4.81 3.33 6.96 4.67l-.69 5.18c-8.24-6.63-17.93-10.7-27.45-15.08"/><path fill="#AF4F9A" d="M1215.32 701.022c-1.96-6.986-2.42-14.088-2.39-21.31.02-5.709-.05-13.972 4.14-18.098l2.81.542-1.17 2.148c.67 1.936.99 3.103 2.62 4.401 3.28.888 6.32 1.446 9.16 3.4-.65 2.13-.04 1.439-1.41 2.395-3.07.113-7.94-.29-10.17 1.823 1.58 3.796 5.57 6.986 8.45 9.889l-.85.303a188 188 0 0 1-7.09-5.054l-.92.429c1.01 3.164 3.41 6.451 6.37 8.122 2.03 1.142 4.81 1.203 7.08 1.401.84 2.283.15 3.161-.45 5.456-1.89-4.387-8.75-6.21-13.12-8.17l-.46 1.13c5.68 4.725 12.64 8.87 17.17 14.718-3.68-.492-15.17-10.479-16.89-9.542.9 3.304 2.97 4.954 5.99 6.65.71.399 1.45.746 2.18 1.11 1.13.565.64.256 1.65 1.077l-1.07 1.011c-2.9-.8-4.98-1.973-7.51-3.588-1.96-.886-2.1-.582-4.12-.243"/><path fill="#C96D9E" d="M1799.85 833.762c39.73-5.374 61.51-14.862 96.86 12.214 2.86 2.191 5.65 4.385 7.9 7.221l-.4 1.485-.98.51-2.8-1.19a180 180 0 0 0-3.89-3.364c-33.6-28.177-60.13-17.721-99.53-14.289z"/><path fill="#F8EFF1" d="m1455.76 1494.38 1.06.98-2.19 2.33-2.03.08c-1.93 3.21-2.78 7.12-2.09 10.84.46 2.47.67 1.18-.32 3.37-1.94.17-3.8.33-5.7.77 2.61 2.82 5.47 5.35 8.31 7.93l-.52 1.04c-3.26-.39-5.95-2.16-8.79-3.71-5.23-3.52-15.65-11.87-16.96-18.08l1.27-1.81c7.16-2.75 20.16-3.47 27.96-3.74"/><path fill="#F7E7EF" d="M1598.61 1400.49c-2.15-1.34-5.27-2.84-6.96-4.67 13.29-1.73 28.07-3.98 41.28-.67l.47.95-4.16 3.62 1.21.67 1.04-.67c3.51-2.22 6.56-4.25 10.92-3 3.12.89 8.93 3.15 10.65 5.74-2.28 2.07-5.17 2.69-8.05 3.6 5.28 1.03 9.06-3.36 14.58-2.23l-3.61 3.52c-2.75 1.14-6.26 2.95-9.27 2.8-2.3-.11-4.78-1.1-6.34-2.69l2.54-2.27-.68-.52a89 89 0 0 1-6.45-.21c-9.36-.64-12.78-.41-19.03-7.79-1.02.81-2.09 1.51-3.18 2.23-3.15.24-4.83-.65-7.54-2.03-1.52-.77-.6-.56-2.6-.43l-.31 1.56 1.86 1.98-1.32 3.49c-2.65-1.39-1.68-4.72-4.59-6l-.82.96 1.23 2.8z"/><path fill="#8B3982" d="m1706.86 320.353 1 6.634c-22.12 29.048-37 60.385-50.2 94.158-1.5-12.226 12.13-32.328 16.73-44.106 1.45-3.714 6.38-9.501 5.98-12.987-3.93 7.195-14.37 32.345-19.05 36.172-.33.269-.68.516-1.01.774 9.62-28.5 28.64-56.809 46.55-80.645"/><path fill="#AF4F9A" d="M1219.88 662.156c17.23 8.265 32.88 26.872 39.05 44.879 4.24 12.38 5.27 28.111 3.29 41.02-.92-3.722-.69-8.22-.8-12.046l-1.35-.889c-1.54-7.223-.19-18.366-4.87-24.251-1.92-.284-2.36-.289-3.94-1.537.23-.633.47-1.261.69-1.899.87-2.547.98-4.457-.33-6.917-2.02-3.78-3.55-4.897-7.7-5.98-1.66-.435-2.67-.487-4.04-1.541 1.68-1.006 2.8-1.756 4-3.318-.08-.285-.13-.585-.25-.856-1.24-2.709-4.79-4.441-7.41-5.42-2.53.758-2.63 2.014-3.94 4.179l-1.25-1.061c-.2-1.377-.32-3.148-.85-4.427-.72-1.723-1.61-2.473-3.24-3.299-.41-.203-.83-.353-1.25-.53l4.89-.278c.85 1.556 1.57 2.458 2.93 3.599l3.08-1.382c-1.24-1.45-2.23-2.054-3.96-2.762-2.33-.949-2.13-1.065-3.55-2.94 1.37-.956.76-.265 1.41-2.395-2.84-1.954-5.88-2.512-9.16-3.4-1.63-1.298-1.95-2.465-2.62-4.401z"/><path fill="#C96D9E" d="M1887.02 761.729c5.68 1.896 13.89.116 19.78-.518 28.74-3.092 49.64 3.297 73.8 19.193-19.63 10.104-38.03 18.65-60.55 11.551-14.48-4.564-27.48-14.642-38.06-25.279l1.19-.874c9.23 9.19 22.83 18.061 35.28 21.996 20.42 6.453 38.78 1.096 57.17-8.376-16.33-8.118-33.2-15.747-51.74-16.338-12.46-.396-27.59 4.595-39.29-.027zm81.33-127.534.42 1.494c5.53 19.919 5.42 43.328-5.28 61.603-7.9 13.494-23.31 25.264-38.54 29.181 13.96-8.604 27.85-17.217 36.39-31.739 10.06-17.127 9.68-37.341 4.69-55.938-13.7 8.066-28.77 18.841-35.35 33.841-5.04 11.489-5.97 29.324-1.49 41.13-2.58 1.467-2.65 1.731-3.94 4.427-1.08-12.891-2.98-26.701.08-39.452 5.32-22.18 25.24-33.189 43.02-44.547"/><path fill="#8B3982" d="m1628.67 271.891 2.21-4.01c4.26 20.483 7.05 41.104 9.57 61.864 2.6 22.566 6.53 48.779 5.36 71.294-7.09 9.194.15 39.313-4.48 44.682-.05-37.596-2.65-74.644-4.52-112.145-3.14-20.419-2.83-41.61-8.14-61.685"/><path fill="#C96D9E" d="M1803.96 1049.2c2.05-1.28 4.05-1.93 6.32-2.7l.68 1.09c18.66-1.85 34.69 1.52 49.41 13.74 9.51 7.89 17.6 17.59 24.82 27.57-23.51 2.22-53.46 4.83-72.98-11.32-7.29-6.03-15.91-15.61-21.42-23.26l2.21-.83c4.1 4.9 9.09 8.3 14.26 11.98 1.16 2.81 2.21 5.67 4.65 7.62 18.88 15.14 44.63 14.7 67.39 12.57a92 92 0 0 0-1.5-1.97c-14.91-18.84-29-30.26-53.41-33.01-6.5-.74-13.03-.51-19.51-1.35zm-104.91-107.384c48.96 1.281 56.04-61.054 128.17-7.527-31.83 12.181-56.08 23.577-89.7 8.855-2.48-1.085-5.65-2.449-7.03-4.853 6.8.678 14.05 4.706 20.92 6.284 24.9 5.721 48.32-.726 70.75-11.954-19.09-10.595-38.57-20.12-61-13.808-19.67 5.536-30.97 19.372-53.09 24.223-2.91.639-6.05 1.612-9.05 1.332l.43-.527-1.13-.911zm144.01-272.753c2.95 2.182 5.7 4.451 8.12 7.232 15.68 18.027 17.47 49.221 7.31 70.354-3.06 6.362-9.01 11.113-11.55 17.775-2.48 6.494-2.12 16.318-2.7 23.286l-1.61.796c-1.33-6.998.53-16.864.85-24.124 8.82-12.136 15.21-24.511 16.98-39.62 2.22-18.901-3.49-37.278-15.23-52.119-12.07 19.808-21 41.57-13.78 64.887 3.08 9.98 7.37 19.668 8.7 30.088l.18 1.486c-4.44-10.238-9.49-20.622-12.56-31.364-7.29-25.57 3-46.863 15.29-68.677"/><path fill="#AF4F9A" d="M1929.19 713.767c10.28-14.104 10.74-33.208 20.66-46.844-14.63 47.568-22.37 64.453-62.83 94.806l-2.42 1.328-1.42 2.745-1.19.874c-6.95 4.781-13.47 10.337-20.23 15.405-21.53 16.127-43.19 32.263-61.91 51.681l-2.84 2.587-2.68 2.702c.92 1.798.4 1.182 1.29 2.063l-.6.991-3.83-.534-4.51-4.289c7.92-8.87 16.51-17.332 25.85-24.704 9.36-7.387 22.84-14.827 30.1-24.072l1.61-.796c16.71-13.797 74.04-52.492 81.01-69.516 1.29-2.696 1.36-2.96 3.94-4.427m-122.03-400.68c12.11 8.642 22.05 23.706 25.93 38.007 2.07 7.61 5.44 25.842 1.39 32.796-.52-2.23-.67-4.346-.82-6.621-1.97-.072-6.29 4.539-8.29 5.973l-1.9-.356-.36-1.848c.4.062.78.202 1.18.188 2.23-.077 8.58-8.786 9.83-10.602l-.4-.691a352 352 0 0 1-8.08 5.318c.26-4.333 6.12-8.545 8.02-12.532l-.61-.861c-5.1-.101-10.59 2.742-15.33 4.514 2.44-5.416 11.31-14.916 11.66-19.319.2-2.482-.71-3.399-2.15-5.152l-10.55 5.524-1.13-1.472 1.77-.355.19-1.39-2.02.216c-2.89-4.267-4.35-20.389-5.37-26.291-1.81 2.536-3.32 4.581-4.13 7.661 1.11 3.168 2.14 5.487 1.34 8.893-.8 1.031-1.9 2.27-2.54 3.437-1.3 2.404-1.12 2.945-.6 5.51 2.36 2.66 4.79 4.859 5.5 8.476-1.7-.518-5.4-5.04-6.87-6.451l-.48 1.044c.77 2.717 1.4 4.093 3.33 6.191 2.89 3.133 4.21 4.406 4.15 8.825-.45-.216-1.86-.864-2.18-1.179-1.35-1.319-2.68-3.593-3.87-5.143l-1.81-.23c-.79 6.091 8.13 9.671 9.09 16.33l-1.36 1.239c-3.82-.082-7.02-2.954-10.08-5.035a122 122 0 0 0 1 5.413c.75 3.567 1.39 4.45 4.39 6.402.93.6 1.89 1.145 2.77 1.805 2.26 1.703 4.02 2.865 4.32 5.701l-1.1.648-8.11-5.505c1.99 3.425 5.05 5.96 8.13 8.392.79 2.725 1.92 4.115.53 6.718l-2.16.222c-6.35-7.079-10.92-14.332-13.59-23.522-5.93-20.494 1.22-42.999 11.37-60.888"/><path fill="#F7E7EF" d="M1829.66 352.484c1.14.472 1.56 1.052 2.39 1.939l-.12 2.151c-2.06 2.91-4.45 4.27-7.47 6.085l-1.8-1.164c1.16-3.73 4.33-6.295 7-9.011m-10.18-22.944c1.19.836 1.73 1.606 2.59 2.765-1.13 1.884-.7 1.333-1.9 2.808-.24.304-.5.601-.75.901 1.63.745.79.478 2.99.815.58.089 1.16.164 1.74.246 1.05 2.159.18 2.834-.54 5.03-2.41.964-3.65 1.487-6.31 1.169l-1.29-1.648c-.12-4.266 1.92-8.183 3.47-12.086"/><path fill="#AF4F9A" d="M1861.93 1294.5c2.06-1.15 5.24-2.61 6.62-4.56 6.32-8.9 1.32-19.93 16.31-31.64 5.95-4.64 24.74-14.19 32.02-12.18 2.89.8 3.23 1.56 4.81 3.93.44 2.91.36 5.06-.49 7.91-3.98 13.37-14.32 25.43-26.34 32.12l-4-2.96c-6.72 2.89-13.8 3.72-20.57 6.43l-2.14 1.77c-2.94.29-3.56.37-6.22-.82"/><path fill="#F8EFF1" d="M1870.29 1293.55c1.6-3.21 2.98-4.96 6.26-6.49 2.06-.97 3.86-1.99 5.77-3.25 1.73-1.14 2.12-1.6 4.21-1.8l-.26 3.84 1.11.21c.79-3.25.87-5.17 3.15-7.67l2.48.22c2.15 1.42 3.39 2.03 4.67 4.37l-.97 1.81c-2.28-.08-3.89-1.41-5.83-2.54.21.62.41 1.25.62 1.87.22.61.46 1.22.69 1.82l-1.33 1.18c-6.72 2.89-13.8 3.72-20.57 6.43m19.59-33.63c2.77 4.74 2.46 6.5 1.26 11.86-.41 1.81-.25 1.02-.5 3.22-4.59 5.1-12.3 8.95-18.33 12.15 1.71-6.45 5.25-16.5 10.89-20.59 1.39 1.17 1.21 1.72 1.64 3.42-2.44 3.44-4.57 7.06-6.76 10.67l.48.12c2.85-3.39 5.93-6.57 7.63-10.7-.08-1.25-.25-2.63-.21-3.89.12-3.46 1.54-3.97 3.9-6.26"/><path fill="#F7E7EF" d="m1889.88 1259.92 1.6-.9c2.91-1.67 4.74-3.72 8.16-4 .42.44.83.89 1.25 1.33 1.74 1.8 3.46 2.45 5.76 3.37-1.29-2.72-5.01-4.49-4.26-7.26l2.58-.99c1.74 2.77-1.06 2.36 2.47 4.79 2.46.44 3.58-.02 5.85-.99l2.33 2.69c-1.76 2.24-3.54.66-5.22 2.06.98 1.07 1.76 1.97 2.98 2.77l-1.54-.33-.02.92-1.34.34c-9.02 2.36-12.27 6.95-19.84 11.28.25-2.2.09-1.41.5-3.22 1.2-5.36 1.51-7.12-1.26-11.86"/><path fill="#FEFEFE" d="M1884.6 763.057c11.7 4.622 26.83-.369 39.29.027 18.54.591 35.41 8.22 51.74 16.338-18.39 9.472-36.75 14.829-57.17 8.376-12.45-3.935-26.05-12.806-35.28-21.996z"/><path fill="#AF4F9A" d="m1604.98 1399.98-1.86-1.98.31-1.56c2-.13 1.08-.34 2.6.43 2.71 1.38 4.39 2.27 7.54 2.03 1.09-.72 2.16-1.42 3.18-2.23 6.25 7.38 9.67 7.15 19.03 7.79a89 89 0 0 0 6.45.21l.68.52-2.54 2.27c1.56 1.59 4.04 2.58 6.34 2.69 3.01.15 6.52-1.66 9.27-2.8l3.61-3.52.65-1.03c8.76 6.21 19.32 15.8 21.29 26.88-.43 1.54-.31 2.69-1.75 3.62-2.01 1.3-4.88 1.68-7.27 1.7-.28.05-.57.12-.85.16-22.27 3.17-46.24-8-63.56-20.99-3.56-2.64-6.85-5.59-10.18-8.5l.69-5.18.87.74-1.23-2.8.82-.96c2.91 1.28 1.94 4.61 4.59 6z"/><path fill="#F8EFF1" d="M1619.52 1403.27c.31.13.62.23.91.38 3.74 1.93 4.23 8.62 5.63 12.41l-.19-9.34.91-.92c2.07 1.12 2.18 1.05 3.06 3.2.34 2.29 1.13 5.75.79 8.03-.39 2.59-.81 3.09-2.85 4.33-2.74-.81-3.94-1.79-5.67-4.09-3.18-4.21-3.48-9-2.59-14"/><path fill="#AF4F9A" d="m1598.61 1400.49.87.74-1.23-2.8.82-.96c2.91 1.28 1.94 4.61 4.59 6l1.32-3.49c3.36.75 3.63.9 6 3.38.98 2.78.6 4.37.11 7.19-.37.31-.74.62-1.1.95-1.53 1.4-1.02.77-1.89 2.67-3.56-2.64-6.85-5.59-10.18-8.5z"/><path fill="#8B3982" d="M1660.24 1402.8c8.76 6.21 19.32 15.8 21.29 26.88-.43 1.54-.31 2.69-1.75 3.62-2.01 1.3-4.88 1.68-7.27 1.7l-6.64-2.08a148 148 0 0 0 2.21-.28c2.66-.38 2.83-.09 4.42-2.18.2-4.57-2-7.25-4.96-10.47l-.68-.73.23-.53c.98-.05 2.32-.52 3.28-.76l-.1-1.19c-3.86-3.7-9.3-3.05-14.27-3.14l-.56-.7c1.84-1.27 1.02-1.02 3-1.33 1.73-.27 3.33-.61 5.02-1.05l-.03-.96c-2.47-2.13-4.36-2.09-7.45-2.25l3.61-3.52z"/><path fill="#FEFEFE" d="M1631.4 1406.96c1.5.51 2.86.84 4.07 1.93 1.09.98.79 4.22.88 5.71 1.71-.41 1.5-3.08 3.47-4.63 2.4-.03 3.1-.22 4.98 1.51 5.58 5.16 6.8 10.06 7.73 17.21-6.91.59-3.21-3.24-6.57-5.66.23 2.03.25 2.39-.53 4.39-.3.1-.59.25-.9.3-3.78.69-8.3-2.23-11.4-4.07-2.1-3.58-1.39-12.18-1.73-16.69m172.56-357.76.92.13c6.48.84 13.01.61 19.51 1.35 24.41 2.75 38.5 14.17 53.41 33.01a92 92 0 0 1 1.5 1.97c-22.76 2.13-48.51 2.57-67.39-12.57-2.44-1.95-3.49-4.81-4.65-7.62-5.17-3.68-10.16-7.08-14.26-11.98 3.6-1.54 7.31-2.87 10.96-4.29"/><path fill="#AF4F9A" d="M1804.74 1256.63c5.55-6.67 19.7-22.24 28.8-22.33 2.03-.02 3.09.49 4.81 1.44 3.42 4.31 3.39 8.77 2.72 14.05-2 15.87-11.45 34.65-24.73 44.02-.23.16-.49.27-.74.4l-2.46-1.68c-6.05 4.28-12.3 9.02-19.31 11.51l-1.43-.4-.24-3.59a938 938 0 0 1-.89-11.58c-.69-9.58 7.51-24.69 13.47-31.84"/><path fill="#F7E7EF" d="m1808.66 1259.07 2.04-.61.62 2.33.79-.07 1.08-2.4-.95 1.42 1.42-.65-.96-.38c1.57-3 4.04-9.78 6.73-11.45l-.77.1 1.6 1.09-.9-1.14-.65 2.56 1.72.48c-.36 3.3-1.6 8.14.11 11.1 5.21 1.19 4.81-4.4 11.65.6l.23 1.48c-4.25 1.23-8.14 2.37-12.06 4.5 3.23-.94 6.76-2.39 10.13-1.8-.48 1.95-2.01 2.87-3.69 3.85-5.06 2.97-9.88 5.24-15.76 4.38 1.07 2.07.31 1.5 2.43 2.24 2.69.95 5.5.9 8.31 1.04 2.05.1 1.16-.02 3.08.42-.95 2.27-1.39 2.56-3.38 4.07-.47-.13-.94-.26-1.42-.38-1.38-.36-2.68-.6-4.09-.79-1.5 1.37-1.18.64-1.52 1.83l-2.94 2.52-2.14-.81c-4.41-6.25-1.13-11.97-3.42-18.17-.16-.41-.33-.81-.5-1.22z"/><path fill="#FEFEFE" d="M1791.27 1288.47c-.69-9.58 7.51-24.69 13.47-31.84 1.29.86 2.54 1.73 3.92 2.44l-3.21 6.14c.17.41.34.81.5 1.22 2.29 6.2-.99 11.92 3.42 18.17l2.14.81 2.94-2.52 4.01 1.17.71 1.39c-2.54 2.97-6.94 3.49-10.41 5.06l.76 1.23 3.74-.58-.12 1.37c-6.05 4.28-12.3 9.02-19.31 11.51l-1.43-.4-.24-3.59a938 938 0 0 1-.89-11.58"/><path fill="#AF4F9A" d="M1791.27 1288.47c-.69-9.58 7.51-24.69 13.47-31.84 1.29.86 2.54 1.73 3.92 2.44l-3.21 6.14c-5.15 8.51-9.85 17.59-9.85 27.69 0 2.71.51 6.2-.88 8.52l-1.42-3.04-1.14 1.67a938 938 0 0 1-.89-11.58"/><path fill="#C96D9E" d="m1805.25 966.008 4.69-7.226c6.06 24.905 4.49 46.748-9.02 68.808-5.06 8.27-11.4 16.38-19.24 22.17-1.55 1.69-3.05 3-3.85 5.18l-1.28 1.51c-2.7-4.94-3.51-14.55-3.85-20.27-1.79-29.45 14.24-49.294 32.55-70.172"/><path fill="#FEFEFE" d="m1806.93 967.751 1.54-.029c4.03 9.969 1.69 34.018-2.49 43.848-6.07 14.27-15.66 25.31-25.21 37.14-1.9.81-.99.84-2.72.18-.99-2.47-1.3-4.77-1.55-7.41-2.92-30.91 11.79-51.059 30.43-73.729"/><path fill="#AF4F9A" d="M1694.87 1315.96c.32-11.13 5.33-22.28 11.39-31.45 5.06-7.65 20.87-27.39 30.47-27.97 2.38-.14 4.05.17 5.72 1.98 2.44 2.66 1.99 7.27 2.07 10.61-.27 15.96-4.7 29.83-16.52 41.13-11.72 11.2-29.95 18.09-38.77 31.63l-1.71-.94c.19-.26.38-.51.57-.77.3-.44.59-.88.9-1.31 5.05-7.21 5.1-14.4 5.88-22.91"/><path fill="#FEFEFE" d="M1702.44 1322.26c-.29-3.34-.72-6.28.37-9.53l2.15.51c1.41 1.1 2.03 2.2 3.87 2.08 2.18-.14 2.76-.13 4.77.87l.12.8a146 146 0 0 0-11.28 5.27"/><path fill="#F7E7EF" d="M1712.46 1292c1.72-2.82 1.13-7.35 1.86-10.69l.96-.02 1.77 3.26 1.28.24 2.11 1.32c-.8 3.14-2.18 5.69-3.22 8.69-.82.92-1.48 1.56-1.97 2.71-.98 1.11-2.08 2.11-3.15 3.14l-1.36-.52c-.16-3.08.69-5.3 1.72-8.13m4.76 2.8c3.35-3.83 9.25-8.72 14.56-9.02 1.3-.07 2.93.34 4.17.58l1.11 1.31c-.91 2.76-1.34 5.16-4.09 6.74-3.74 2.15-11.72 1.75-15.75.39"/><path fill="#F8EFF1" d="m1718.33 1284.79-1.14-4.83c.78-2.52.39-2.92 2.69-4.45 2.67 1.79 2.97 5.44 5.46 6.41l1.04-1.33c-1.08-1.13-2.48-2.38-3.31-3.69-1.51-2.41-1.44-2.82-.67-5.33l1.64-.86c1.78 1.2 2.31 2.01 3.05 3.95.6 1.57 1.03 2.65 2.14 3.95 1.26-1.38 1.05-1.5 1.32-3.24-1.84-2.15-3.71-4-4.48-6.79 2.18-2.54 5.99-5.7 8.96-7.27 2.32-1.22 2.72-1.12 5.1-.5.84 2.42.5 2.64-.38 5.11l-6.59 3.63-.1 3.18c.52.37 1.05.72 1.56 1.1.54.39 1.07.8 1.6 1.2-1.51 3.73-7.36 10-11.13 11.52-1.99.8-1.27.6-3.46.49l-1.19-.93zm-20.87 33.48c.67-4.06.87-8.97 2.55-12.72 1.49.93 2.08 3.2 2.82 4.8l1.38-.5-.11.62c-.12-.3-.21-.61-.34-.9-.85-1.82-.91-2.63-.66-4.62.69-5.55 3.18-15.44 7.66-18.88l1.19.69.51 5.24c-1.03 2.83-1.88 5.05-1.72 8.13l1.36.52c1.07-1.03 2.17-2.03 3.15-3.14 5.11-.86 11.15.87 15.69-.3-.7 2.64-1.02 2.96-3.01 4.88-3.63.89-5.31.49-8.65-1.04l.72-.76-.09 1.71c1.32 1.29 2.64 2.51 3.82 3.93-2.7 3.47-7.13 7.28-11.67 7.92-1.34.18-2.71-.09-4.02-.24l-1.79-.2c-.43-.05-.86-.11-1.29-.17l-2.15-.51c-1.09 3.25-.66 6.19-.37 9.53-.15 2.79-1.35 3.65-3.03 5.83l-1.48-.12c-1.71-3.12-.87-6.33-.47-9.7"/><path fill="#FEFEFE" d="M1797.01 836.349c39.4-3.432 65.93-13.888 99.53 14.289a180 180 0 0 1 3.89 3.364c-26.49 7.449-53.46 14.363-79.45 1.327-8.36-4.19-15.58-10.136-24.28-13.776-.36-.15-.72-.293-1.08-.439-.89-.881-.37-.265-1.29-2.063zm112.1-582.928c6.03 13.289 9.61 29.218 4.36 43.433-.24.639-.5 1.269-.75 1.904-6.18 15.132-18.67 22.723-28.89 34.567-3.19 3.691-5.67 8.199-8.16 12.381l-2.2-4.583c1.03-2.65 2.93-5.465 4.3-7.99-4.55-16.614-7.04-31.665-1.42-48.369 8.43-14.508 17.56-24.029 32.76-31.343"/><path fill="#8B3982" d="m1876.35 284.764 3.15 1.869c-.41 2.763-.75 4.121 1.05 6.438 1.21 1.557 2.77 2.957 4.19 4.333l.14 1.94c-3.3-1.287-5.95-4.875-8.35-7.413l-.63 1.292c1.13 2.621 6.77 10.194 6.62 12.235-1.79-1.634-3.39-3.302-5.01-5.098l-1.12.076c.67 4.554 6.86 12.402 4.68 16.011-2.05.174-2.28.12-4.06-.644-.73 2.397-.77 1.224.1 3.523l2.45-.319c.65 3.653-.87 7.803.65 11.133 3.02-.718 15.9-11.882 17.76-14.736.33-.506.54-1.078.81-1.616-3.16 1.263-7.03 3.468-10.43 3.29l-.03-1.608c5.47-2.144 15.44-4.735 18.41-10.094-4.82-.206-12.4 6.034-16.17 4.124l.31-2.071c3.96-.889 8.29-1.621 12.03-3.193 4.12-1.732 5.97-4.192 7.66-8.214l2.16 2.736c-6.18 15.132-18.67 22.723-28.89 34.567-3.19 3.691-5.67 8.199-8.16 12.381l-2.2-4.583c1.03-2.65 2.93-5.465 4.3-7.99-4.55-16.614-7.04-31.665-1.42-48.369"/><path fill="#AF4F9A" d="M1909.11 253.421c6.03 13.289 9.61 29.218 4.36 43.433-.24.639-.5 1.269-.75 1.904l-2.16-2.736c-1.69 4.022-3.54 6.482-7.66 8.214-3.74 1.572-8.07 2.304-12.03 3.193.65-3.894 3.45-14.282 5.67-17.177.84-1.091 1.05-1.768 1.42-3.094 2.04-7.317 11.1-19.533 9.85-26.739l-1.78-.678c-7.2 4.081-7.32 13.909-13.26 18.271-1.36-1.565-.6-1.059-2.12-1.733-.95 2.658-.43 2.425.7 4.836-.45 2.581-1.41 4.65-2.51 6.994l-1.07.214c-1-3.316-1.71-6.685-4.79-8.538l-1.13 1.294c.08 4.683 3.67 8.868 4.73 13.494-2.95-2.844-4.64-5.892-6.57-9.451l-.51 1.511-3.15-1.869c8.43-14.508 17.56-24.029 32.76-31.343"/><path fill="#F7E7EF" d="M1897.96 287.158c1.59-.933 2.45-.966 3.12-2.735 1.48-3.881 3.44-8.864 7.13-11.16l2.38.176c1.12 2.44.54 2.388-.33 4.787-2.46 2.047-5.09 3.771-7.75 5.539l.67.345 1.12-.467c2.72-1.111 4.62-2.001 7.63-1.59l.52 1.06c-1.43.879-2.84 1.727-4.31 2.545l4.01 2.047-.36.869c-3.29.212-6.63.242-9.83 1.132l.05-.747 1.66 2.1c.48-.067.95-.165 1.43-.201 2.64-.198 3.19-.09 5.33 1.294a254 254 0 0 1 .13 3.87c-1.69 4.022-3.54 6.482-7.66 8.214-3.74 1.572-8.07 2.304-12.03 3.193.65-3.894 3.45-14.282 5.67-17.177.84-1.091 1.05-1.768 1.42-3.094"/><path fill="#F8EFF1" d="M1274.56 813.098c21.05-9.465 48.9-3.578 69.67 4.053 2.5.92 4.57 1.922 5.96 4.305-3.18 6.684-19.75 13.227-26.63 15.68-3.29 1.173-8.6 3.744-12.07 3.027-10.94 4.04-24.71 4.734-35.9 1.051-2.46.336-5.4-1.274-7.73-2.123-4.74-1.204-10.95-3.021-14.43-6.558-.93-2.637-1.27-3.194.02-5.883 2.6-5.44 15.65-11.981 21.11-13.552"/><path fill="#FEFEFE" d="M1323.23 822.192c2.4.123 3.81.396 5.97 1.49.38 2.772-.35 3.452-1.61 5.886-1.72-.035-3.39-.2-5.1-.364l-.9-1.506z"/><path fill="#F7E7EF" d="m1275.59 841.214 5.46-2.235c14.05 2.547 11.22-8.967 20.36-12.257.84.725 1.32 1.074 2.03 2.013 1.58 2.086 1.68 3.845 1.44 6.313-1.55 1.409-3.17 2.657-4.83 3.93l-.02.545c4.11-.3 7.7-1.221 11.46.64-10.94 4.04-24.71 4.734-35.9 1.051m-7.73-2.123c-4.74-1.204-10.95-3.021-14.43-6.558-.93-2.637-1.27-3.194.02-5.883 2.6-5.44 15.65-11.981 21.11-13.552.46.244.91.501 1.38.732 2.24 1.118.92.601 2.81.934 3.26.572 9.69 4.798 11.76 7.364-3.79 5.049-13.15 2.82-17.99 6.406 2.29.387 5.22.245 6.75 2.023-.42 2.586-.24 3.95-2.52 5.604-2.26 1.643-6.16 2.44-8.89 2.93"/><path fill="#AF4F9A" d="M1646.88 1276.9c3.52-.03 4.81.2 7.4 2.45.49 1.35.84 2.56.77 4.02-1.47 28.99-10.83 46.01-33.51 63.72-6.77 5.29-14.11 10.27-20.22 16.33-.25.24-.48.49-.72.73l-1.63 4.89-.86.36c.83-12.49 1.04-27.48 4.2-39.48 6.15-23.36 24.12-41.48 44.57-53.02"/><path fill="#FEFEFE" d="M1618.82 1335.87c-1.02-2.38-1.36-2.35-.42-4.72 4.22-1.99 9.26.62 13.75.63l1.25-.86c-2.26 2.65-4.32 5.23-8.1 5.4-2.14.1-4.37-.12-6.48-.45"/><path fill="#F8EFF1" d="M1625.2 1320.18c2.03 1.89 3.63 3.58 6.37 4.4 2.92-.68 3.1-.98 5.17-3.2l2.79.29c.05 2.13.45 1.44-.95 2.82-2.67 2.65-8.25 4.76-12.04 4.53-1.89-.12-3.8-.54-5.64-.97 1.58-2.52 2.9-5.24 4.3-7.87"/><path fill="#FEFEFE" d="M1618.33 1330.09c-1.65 2.16-2.89 4.3-5.59 5.19l-1.28-1.48c-.93-8.24 1.26-18.09 5.73-25.14l1.58 1.82-.29-2.09c1.02 2.93.41 5.08-.2 8.01l-.27 1.25c-1.21 2.63-2.54 5.77-1.72 8.72.38 1.35 1.27 2.57 2.04 3.72"/><path fill="#FEFEFE" d="M1603.3 1348.61c1.29-10.91 4.48-20.8 8.15-31.12-.36 6.15-.64 12.31-1.43 18.43-.19 1.45-.36.76.53 2 2.3-.93 4.43-1.89 6.94-2.05.44-.03.89 0 1.33 0 1.56.35 3.09.82 4.63 1.23l.83 1.75c-1.79 3.57-8.04 8.41-11.75 9.89l-.83-2.13-1.13.27c-.62 1.96-1.19 4.07-2.07 5.93-1.17 2.46-2.32 2.86-4.79 3.63-1.23-2.4-.55-5.16-.41-7.83"/><path fill="#F7E7EF" d="m1641.96 1285.64 4.59 4.06c1.68-.52.84-.08 2.39-1.54l1.89.49c-1.32 5.31-9.46 9.68-11.89 14.93 2.82-2.18 7.37-6.9 10.8-7.09-.05 2.65-1.28 3.17-3.09 4.85a96 96 0 0 1-2.52 2.22l.49 1.2 3.69-1.03.83.72c-1.47 2.27-2.28 2.49-4.94 2.98-1.91.35-4.64 1.09-6.28.04-1.45-.93-.89-.6-2.71-1.26l-2.43 2.26c3.83 2.18 8.74-.07 12.92 1.86-.92 2-1.01 1.86-3.03 2.51-1.89.6-3.86.68-5.82.93-1.68.21-1.02.05-2.59.82 2.95 1.15 7.56.69 9.88 2.33-1.76 1.53-3.45 1.82-5.62 2.45-1.56.45-.96.25-2.63 1.15l.85.86c-2.07 2.22-2.25 2.52-5.17 3.2-2.74-.82-4.34-2.51-6.37-4.4-1.4 2.63-2.72 5.35-4.3 7.87l-2.57 2.04c-.77-1.15-1.66-2.37-2.04-3.72-.82-2.95.51-6.09 1.72-8.72l1.42-1.3c.17-3.32.09-5.79 2.15-8.6.2-2.82-.08-4.74 1.55-7.09l2.65.16c.48-2.55.25-3.71 2.2-5.58 1.88.96 1.2.22 1.93 2.49.72 2.27 1.07 4.47 1.42 6.83l1.32-.93c.27-2.08.16-3.09-.6-4.99-.96-2.39-.98-4.14.14-6.55 1.05-2.25 2.31-3.45 4.35-4.88l.98.6-1.76 7.62c1.96-3.37 3.92-6.63 6.2-9.79"/><path fill="#F8EFF1" d="M1621.58 1307.75c.2-2.82-.08-4.74 1.55-7.09l2.65.16c1.86 2.79 3.32 4.87 2.72 8.42-.53 3.13-2.14 4.38-3.97 6.66-.38.48-.68 1.31-.92 1.89a338 338 0 0 1-2.03-10.04"/><path fill="#8B3982" d="m1501.95 1427.66 1.23-.97c2.36 2.25 3.31 3.73 6.78 3.8 8.35.18 16.91-1.57 25.3-1.68 16.85-.21 35.54 9.43 47.79 20.52 4.29 3.89 11.61 10 12.17 16.09.21 2.31-.85 4.46-2.57 5.96-5.7 4.97-17.92 2.69-24.77 1.41-20.84-3.89-46.76-15.32-58.89-33.31-2.55-3.79-4.78-7.85-7.04-11.82"/><path fill="#F8EFF1" d="m1552.7 1450.34 3.18 1.84c1.37 4.09.46 10.02.54 14.37-1.89-.81-3.52-1.73-5.25-2.84-2.1-4.61.02-8.87 1.53-13.37"/><path fill="#F7E7EF" d="M1558.5 1451.19c2.07.49 2.85.91 4.33 2.44.53 2.12.36 3.08-.43 5.04-.66 1.67-1.15 3.07-1.44 4.86l1.03.29.42-.89c1.83-3.78 2.92-6.38 7.05-7.8l.75 1.68c1.14.8 7.26-3.62 10.72-3.32 1.9 1.37 2.98 1.58 3.73 3.87l-3.76 2.89c-1.82 2.85-2.49 6.2-3.38 9.43l-1.36.46-1.59-.84-1-4.04-2.2 3.65c-2.75-1.04-1.33-4.62-3.32-6.84-.21 2.41-.77 3.84-1.89 5.97l-1.89.46c-1.65-.94-2.82-1.63-4.04-3.13-3.63-4.48-2.45-8.76-1.73-14.18m-45.78-18.91a143.7 143.7 0 0 1 31.6 1.46c3.46.55 8.31 1.01 10.49 4.02-.9 2.34-.36 1.5-1.97 3.45-.37.45-.77.89-1.16 1.34l1.82.19c1.16-1.04 2.16-2.04 3.17-3.24.33-.38.64-.77.96-1.16 2.28.44 3.57.6 5.25 2.27-5.35 4.02-7.05 5.96-13.98 5.94.15.27.35.52.44.81.88 3.08.35 9.62-.88 12.49-.74 1.72-.28 1.09-2.31 1.88l-2.24-1.4c-1.72-3.13-2.13-5.69-2.57-9.23l-.16-1.36c-1.04 3.41-2.09 6.44-3.79 9.59-.75-1.39-.99-2.35-1.05-3.94-.24-5.62.28-7.28 3.65-11.64 1.84-2.38 2.86-3.17 5.56-4.41.28-.13.56-.25.84-.38l.01-1.05c-3.96-.38-6.74 2.82-9.89 5.15-1.04-1.88-.31-1.22-2.07-2.1l-.78 1.22c.43 1.78.87 3.56 1.22 5.35.73 3.63.54 5.27-1.5 8.34l-1.55-.32c-3.21-4.9-3.25-8.29-2.25-13.96.08-.48.18-.96.27-1.44l-.8-.56c-1.42 2.47-1.85 3.92-1.99 6.77-.07 1.35-.18 2.68-.29 4.03-3.89-2.69-8.13-6.04-10.87-9.91-.3-2.61-.12-2.51 1.44-4.68l-.29-.83c-2.11.59-2.49 1.09-4.61.31z"/><path fill="#8B3982" d="m1660.5 1357.62 1.77-1.77 2.43.21c.31.1.62.21.93.31 34.46 11.05 65.79-1.02 94.31 26.75 3.95 3.84 8.68 8.06 11.18 13.05 1.18 2.34 1.3 3.88.86 6.5-2.21 3.19-5.08 4.18-8.77 4.76-16.17 2.54-40.62-3.73-53.6-13.76-10.26-7.93-17.01-20.27-27.68-27.41-6.09-4.07-14.73-4.91-21.43-8.64"/><path fill="#F8EFF1" d="M1708.72 1372.52c9.46 4.82 19.66 8.17 29.03 13.12 4.81 2.54 6 9.6 7.49 14.42l.98.05c.66-3.24-2.64-6.03-2.25-9.86l1.52-.44c1.21.67 2.23 1.27 3.27 2.2.27.23.52.48.77.72l1.46-.88c-.56-2.57-4.43-2.47-5.92-5.3 3.33.43 6.58.59 9.54-1.16 1.63-.97 1.96-1.13 3.84-1.12-.54 2.19-.1 1.36-1.58 3.23-.36.45-.74.88-1.11 1.32l.14.98c2.05-.97 3.2-1.6 5.49-1.29l.6 1.69c-1.82.92-2.61 1.31-3.96 2.9.49.3.93.72 1.48.92 2.4.84 4.47.1 6.75 1.83 2.02 1.54 3.48 3.51 3.94 5.94-1.83 1.87-1.78 1.52-4.27 1.81-3.41.4-4.79.46-7.5-1.81-1.31-1.1-2.24-1.75-3.77-2.5.1 2.02.14 3.27-.38 5.25l-1.28-.37c-1.9-2.03-1.88-3.6-2.45-6.28-.99 2.12-.99 3.07-1.08 5.32l-.03.91-.49-.15c-3.3-.87-7.36-1.4-9.55-4.32-2.42-3.24-1.38-6.6-1.12-10.37l-1.77 1.97c-.96 2.9-.03 5.15.75 7.98l.38 1.34-1.07 1.64-1.32-.67c-1.36-2.47-1.95-3.95-2.1-6.79-.12-2.44-.4-4.45-.96-6.82-1.13 3.82-.52 7.88-.61 11.83h-1.86c-4.36-4.24-.64-11-1.48-16.56l-.69-.27c-.49 4.6-.35 10.75-2.57 14.8l-.78-.3c-.39-3.38-.76-6.68-1.56-10-.63 2.25-1.3 6.92-3.17 8.08l-2.14-1.73c.6-2.41 1.03-4.65 1.31-7.12-.44.78-.53 1.08-1.31 1.73-1.87 1.55-3.78 1.86-6.06 1.55-1.68-2.94-.6-7.29-.23-10.58-2.09 3.89-4.4 7.61-6.74 11.35.8-6.14 2.05-12.46 4.42-18.19"/><path fill="#C96D9E" d="M1770.27 751.623c1.32.157 2.43.304 3.5 1.174 5.5 4.445 7.1 18.671 7.48 25.508 1.66 29.978-17.25 53.087-36.14 74.086l-2.43 2.619-1.62-1.059c-3.21-7.085-2.39-17.512-1.79-25.15 2.29-28.91 7.92-57.609 31-77.178"/><path fill="#FEFEFE" d="M1751.58 782.632c2.72-6.008 10.61-21.097 15.64-24.585.95 3.157.33 6.885.11 10.161 1.16-4.847 1.79-11.494 5.02-15.337 4.8 5.454 5.78 26.03 5.36 33.685-1.47 27.316-20.47 45.906-35.62 66.607-.98-17.279.91-33.684 3.7-50.717 1.6-6.779 3.45-13.251 5.79-19.814"/><path fill="#F7E7EF" d="M1510.48 1357.11c1.04-3.6 2.33-7.31 4.05-10.65 5.04-9.8 26.88-37.49 37.21-39.17 2.65-.43 3.29.44 5.03 2.09 2.76 7.54.86 17.72.08 25.54-4.86 18.48-11.96 34.56-25.29 48.65-9.84 10.41-13.88 11.71-20.13 25.49-3.46-17.26-5.88-34.81-.95-51.95"/><path fill="#F8EFF1" d="M1528.67 1353.74c.76-2.58 1.3-6.68 3.46-8.18 3.65 2.84 13.78-1.98 18.7-2.1-2.07 4.52-5.94 7.69-10.61 9.28-3.86 1.31-7.17 2.16-11.14 1.1-.14-.04-.27-.07-.41-.1"/><path fill="#AF4F9A" d="M1510.48 1357.11c1.04-3.6 2.33-7.31 4.05-10.65 5.04-9.8 26.88-37.49 37.21-39.17 2.65-.43 3.29.44 5.03 2.09 2.76 7.54.86 17.72.08 25.54-.51-.92-1.15-1.64-1.82-2.45l-1.86 1.09-3.38-3.04c-1.58.97-4.43 3.37-6.25 3.07l-1.56.88c-1.31-2.33-1.5-4.45-1.81-7.05l-1.84-2.05-2 .01c-1.09 2.62-.34 4.44.85 7.06 1.51 3.35 5.06 5.2 5.28 8.81-2.18 1.58-3.53 1.81-6.18 2.08-3.13-1.62-5.34-4.82-6.37-8.27-.1-.31-.14-.63-.2-.94l-1.47-.95c-.55 2.17-.62 3.94-.56 6.17l-1.19.76-1.07-1.74c-7.46 11.89-9.48 19.95-9.79 33.86l-2.24-9.14-1.23.42c-.27-2.43-.67-4.16-1.68-6.39"/><path fill="#F8EFF1" d="m1531.94 1328.44 1.75.86c2.79 3.71 6.15 8.09 5.62 12.74-.31-.01-.62 0-.93-.03-2.17-.27-3.92-1.47-5.18-3.25-2.31-3.28-2.11-6.61-1.26-10.32"/><path fill="#8B3982" d="m1553.17 1333.56 1.86-1.09c.67.81 1.31 1.53 1.82 2.45-4.86 18.48-11.96 34.56-25.29 48.65-9.84 10.41-13.88 11.71-20.13 25.49-3.46-17.26-5.88-34.81-.95-51.95 1.01 2.23 1.41 3.96 1.68 6.39l1.23-.42 2.24 9.14.57 2.31 4.47 3.53c.73-2.43.82-4.62 2.88-6.18 1.88.27 3.41.71 5.22-.02.31-.12.59-.31.88-.47.72-.85.27-.5 1.52-1 3.91-1.58 6.54-3.5 9.73-6.22-2.61 1.62-6.09 2.02-9.1 1.56-2.46-.38-4.58-1.22-6.09-3.27l1.05-3.03-1.16-.46-.27.98.77-.65c.96 1.72 1.51 3.08 3.27 4.12 1.53.91 3.98.78 5.65.3 3.93-1.14 7.31-3.76 9.11-7.43l-.64-1.74c-5.44-1.27-9.66 3.48-14.68 1.76l-.14-2.57c.14.03.27.06.41.1 3.97 1.06 7.28.21 11.14-1.1 4.67-1.59 8.54-4.76 10.61-9.28-.57-.38-1.12-.77-1.7-1.12-1.82-1.1-2.57-1.26-3.77-3.17-1.06-1.69-.63-1.65-.12-3.37 2.72-1.69 4.84-1.93 7.93-2.24"/><path fill="#FEFEFE" d="M1529.65 1371.39c2.7-.4 5.22-.85 7.96-.73-2 2.42-4.27 2.68-7.2 3.7.49 1.79.04.85 1.74 2.6-2.11 2.29-3.43 3.17-6.3 4.37-2.64-.18-3.03-.51-4.84-2.65-.15-.18-.23-.41-.34-.62.73-2.43.82-4.62 2.88-6.18 1.88.27 3.41.71 5.22-.02.31-.12.59-.31.88-.47"/><path fill="#FEFEFE" d="m1512.16 1363.5 1.23-.42 2.24 9.14.57 2.31c.07.14.15.28.22.42 1.69 3.47 3.49 5.42 6.4 7.97l1.01.86c-.79 3.54-7.82 9.49-10.6 12.68-1.15-11.03-1.2-21.89-1.07-32.96"/><path fill="#8B3982" d="M1736.61 414.617c24.34 19.411 42.67 43.408 40.98 76.188-.55 10.719-3.28 19.568 2.39 29.382l-1.02 2.711c-2.57-1.913-4.63-4.873-7.05-7.062-9.51-8.595-19.75-16.545-26.9-27.357-13.67-20.672-13.23-50.407-8.4-73.862"/><path fill="#FEFEFE" d="M1739.38 421.424c.55.368 1.11.732 1.64 1.136 7.23 5.513 31.67 75.561 32.72 86.844-.46-.33-.95-.626-1.38-.991-13.29-11.261-32.11-68.609-32.98-86.989"/><path fill="#C96D9E" d="M1661.46 1103.77c-.04-.12-.08-.24-.1-.36-1.4-7.52-.54-16.78.42-24.34 3.96-31 17.75-51.21 35.6-75.9 2.87 13.44 6.07 27.13 6.42 40.91.64 25.05-11.11 42.41-27.74 59.93-4.97 4.85-9.7 9.62-13.98 15.11.06-5.19.05-10.19-.62-15.35"/><path fill="#FEFEFE" d="M1695.35 1010.11c6.09 25.45 9.6 49.01-4.81 72.34-4.12 6.67-9.4 13.05-14.89 18.63-2.47 2.62-6.28 8.11-9.68 8.78-1.59-3.18-1.17-6.62-1.13-10.09-2.27-35.61 10.8-61.36 30.51-89.66"/><path fill="#B477B5" d="M832.538 1586.53c6.398 4.93 28.922 44.29 35.333 54.24-16.215 5.44-32.188 12.5-48.122 18.77a1404 1404 0 0 0-27.79 11.78c10.66-29.76 24.983-57.39 40.579-84.79"/><path fill="#AF4F9A" d="M1848.83 487.139c9.09-.863 44.04-3.953 50.95.374-.03 1.257.04 1.274-.39 2.689-2.92 9.609-27.1 34.997-37.02 40.348-22.1 11.918-51.38 8.294-74.51 1.839 16.1-3.005 31.17-7.926 46.94-12.25 6.64 2.741 16.78 9.91 23.8 8.942l.04-.963c-2.09-2.641-6.7-5.217-9.93-6.148-2.66-.764-5.29-1.563-7.93-2.374l-.4-1.044 4.29-1.443c14.02-7.383 23.12-4.867 38.05-5.393-4.07-1.368-10.67-3.486-14.88-2.215-1.96.595-.7.649-2.86-.017 3.72-3.369 10.55-5.206 15.12-7.774 6.95-3.9 13.04-8.922 19.02-14.133-15.74 3.743-30.65 10.873-45.72 16.656-19.62 7.532-42.73 13.465-60.09 25.357 15.73-23.643 26.86-35.739 55.52-42.451"/><path fill="#F7E7EF" d="M1832.22 522.225c4.79 1.257 11.33 3.349 15.13 6.518 1.63 1.352 1.17 1.613 1.3 3.586l-4.61.26c-4.58-2.267-9.74-5.475-11.82-10.364m12.45-5.116c6.17-1.18 12.8.348 18.11 3.775 1.9 1.226 3 2.411 4.08 4.428l-.53 2.089-2.9.073-1.08-1.024.37-.463c-5.83-2.699-12.85-5.19-18.05-8.878"/><path fill="#AF4F9A" d="m1319.23 696.86 1.3-3.611c1.55-.713 1.66-1.172 3.39-.606 10.32 3.363 22.68 22.633 26.85 32.23a124 124 0 0 1 1.69 4.104c7.48 20.188 2.98 43.026 2.45 63.924-15.79-12.5-30.52-25.175-37.22-44.708-5.69-16.569-6.4-35.384 1.54-51.333"/><path fill="#F8EFF1" d="m1320.27 698.193 2.22-1.228c1.21 1.318 2.2 2.674 3.21 4.154-.12 2.696-1.97 4.738-3.45 6.886l.59 1.323c1.61-.402 1.44-.713 2.35-2.007 1.32 1.724 1.7 2.759 2.38 4.776l1.26-.149.49-4.251 3.29-2.339c2.14 1.143 3.18 3.047 4.5 5.001l-.32.723c-2.53-.438-4.08-1.203-6.46-.079l-.4 1.517 3.32 1.828c-.37 3.273-.87 6.524-1.36 9.781 1.82 4.683 3.21 11.77 6.02 15.615 2.32 6.075 9.36 33.298 12.27 35.892l1-.737c-1-2.552-2.83-5.795-3.26-8.425-.66-3.996 1.56-6.799 4.03-9.678l1.18.706c-1.46 9.554.32 18.995-1.58 28.719-3.74-5.483-6.7-11.258-10.85-16.491a444 444 0 0 1-5.22-1.608c-1.57-.478-3.36-.868-4.81-1.638-1.85-.972-2.87-1.902-3.42-3.923 3.19.061 9.08 2.169 11.49 4.34.28.244.49.546.73.819-.51-14.808-12.13-10.731-18.94-19.879 3.07-.826 8.62 2.155 11.33 3.641 1.48.812.53.549 2.68.45l.13-1.949-1.69-1.768c-2.06.497-3.25.137-5.18-.583-3.7-1.376-7.56-2.925-9.17-6.596 3.73-.368 10.02 3.294 13.71 4.725l.79-.634c-3.22-4.78-14.93-8.023-20.58-11.193 6.08.273 13.3 4.296 19.08 3.484-2.99-3.587-8.32-2.287-12.09-4.471-2.2-1.278-2.51-1.942-3.13-4.199l1.14-.644 6.68 4.008c-1.28-3.217-6.13-4.647-7.84-8.309l1.02-.43c2.66 1.075 4.71 2.214 7.05 3.893 1.59 1.137 2.64 1.882 4.45 2.664-3.79-4.44-10.69-7.363-12.29-12.649l.67-.245c2.47 2.088 4.8 4.202 7.67 5.74l.08-1.188c-2.96-2.765-6.28-5.713-7.32-9.745 3.67 1.574 4.98 6.138 8.64 7.033-.42-1.769-.08-1.165-1.2-2.588-2.07-2.623-5.04-5.473-6.45-8.531-1.36-2.969.55-6.682 1.56-9.564"/><path fill="#8B3982" d="M1791.27 1288.47a938 938 0 0 0 .89 11.58l.24 3.59 1.43.4c7.01-2.49 13.26-7.23 19.31-11.51l2.46 1.68c-9.17 7.92-20.28 11.73-28.79 20.59 15.77-4.33 31.78-7.74 47.56-12.06 9.19-2.52 18.28-6.24 27.56-8.24 2.66 1.19 3.28 1.11 6.22.82l.47 2.77c-13.87 3.84-27.44 8.59-41.4 12.14-24.4 6.22-48.99 11.1-73 18.88 7.74 1.89 15.47 3.85 23.45 4.43 25.78 1.87 44.68-3.95 66.92 13.26 4.61 3.57 10.11 7.91 13.08 12.99 1.08 1.83.9 2.25.96 4.25-5.12 5.4-18.36 6.23-25.54 6.41-36.3.93-38.92-21.47-63.44-32.63-7.34-3.34-16.02-4.22-23.96-5.12 18.61-15.45 81.05-20.66 106.93-31.45 3.27-1.37 6.68-2.34 10.06-3.4h-.03l-.93-.97c-4.7-.45-21.52 6.87-26.97 8.44-4.73 1.38-9.57 1.73-14.35 2.84l-36.33 8.44c-12.76 2.83-26.01 9.97-39.18 9.58-.67-.02-1.33-.05-2-.08 10.41-3.26 37.24-7.26 44.49-14.94 3.89-4.12 3.25-16.8 3.89-22.69"/><path fill="#F7E7EF" d="M1782.06 1336.47c17.37-.79 34.1-1.16 50.22 6.1 3.33 1.5 7.64 3.28 9.07 6.91-1.1.62-2.21 1.17-3.35 1.72l1.29 1.06 4.59-1.26c3.24 1.37 7.81 7.69 10.2 10.58-.67 1.77-1.87 3.06-3.67 3.83-2.15.91-4.99 1.11-7.17.13-2.48-1.11-2.95-2.28-3.92-4.58.51-2.52.61-3.01 2.3-4.92l1.18.53c-.28 2.11-.31 3.31.39 5.34l1.1-.34c1.1-2.4 1.28-3.46.88-6.07-2.12-1.61-2.61-1.18-5.3-1-3.48 3.28.91 7.81-1.05 12.21l-1.43-.29c-2.07-3.07-2.53-6.35-3.27-9.93-.4 3.35 1.13 7.89 1.52 11.3l-2.15.26c-2.54-2.67-2.98-7.46-3.89-11.07l-.41.39c0 1.05.03 2.1-.05 3.15-.14 1.91-.43 3.52-.37 5.47.02.53.06 1.06.09 1.59l-2.06.07c-2.05-2.43-1.98-6.45-1.84-9.54.1-2.19.19-2.27-.82-4.39l-1.59-.04c1.94 3.34 1.23 8.5 1.29 12.32l-1.07.51c-1.72-2.49-3.46-4.87-5.39-7.21l-.42 1.27c.99 1.77 1.61 2.81 1.59 4.86l-1.42-.05c-3.14-3.06-3.08-3.22-3.51-7.61-1.02 1.84-1.22 2.98-3.1 4.01-2.47-1.06-4.24-1.79-6.23-3.68.22-3.93 3.19-5.21 4.4-8.92-1.9.79-1.36.29-2.61 1.79-2.69 3.23-5.24 6.26-8.24 9.23 1.86-4.69 3.45-10.89 7.84-13.68 3.17-.3 4.24.37 6.9 1.88-.4 3.3-2.83 6.37-4.56 9.21l.31.5c2.83-2.05 4.5-6.04 6.2-9.05 4.14.76 8.23 1.97 12.3 3.03l10.04-3.19c-6.75.6-12.94-.43-19.59-1.47l-1.39-1.36-.59.67c-1.13-.7-.58-.18-1.35-1.82l1.81-2.67c-7.52-.67-16.18-3.89-23.41-3.57-3.28.15-8.89.64-11.74-.99zm-367.57-420.307c-2.72 1.228-5.57 1.711-8.53 2.094-19.87 2.573-46.58-2.233-62.42-15.314-2.48-2.046-3.12-3.643-3.49-6.764 8.1-7.563 23.34-12.832 34.28-14.753 26.25-4.608 49.64 7.376 70.74 21.981l1.35 1.587c-.61 1.929-.02 1.332-1.55 2.138-7.09 3.739-22.55 10.576-30.38 9.031"/><path fill="#F8EFF1" d="M1414.49 916.163c-2.44-1.363-5.27-1.39-7.51-2.665.18-2.47 2.46-2.494 3.11-4.968-1.71-.913-.99-.758-2.86-.89-4.96-.35-10.39-.561-15.09-2.347-1.55-.589-2.18-.664-2.82-2.251 2.28-1.833 39.78.695 45.57 1.349 3.56.402 5.72.428 9.2-.657.33-.103.66-.218.98-.327l1.35 1.587c-.61 1.929-.02 1.332-1.55 2.138-7.09 3.739-22.55 10.576-30.38 9.031"/><path fill="#8B3982" d="M1854.32 1022.39c2.62-10.4 6.19-20.68 12.72-29.326 12.91-17.11 32.09-19.392 51.78-21.863-5.48 16.782-11.98 35.189-28.35 44.309-9.17 7.53-21.61 6.76-32.83 6.89-12.91 8.61-28.56 17.19-43.43 22.01l-3.93 2.09c-2.27.77-4.27 1.42-6.32 2.7-3.65 1.42-7.36 2.75-10.96 4.29l-2.21.83-6.63 3.16c-71.87 37.67-137.33 80.49-196.5 136.36a1697 1697 0 0 0-46.33 46.39c-7.57 7.86-14.94 16.45-23.02 23.78.06-.19.12-.38.17-.58 2.18-7.76 22.88-26.64 29.79-33.56 32.12-32.15 67.53-68.13 104.39-94.44 24.15-17.22 49.54-33.08 74.66-48.85 8.85-5.56 18.3-9.91 26.73-16.01-21.06 8.73-52.23 28.68-71.57 42.03-8.55 5.91-17.27 13.47-26.28 18.49l-1.43-.77c7.23-11.38 108.1-69.2 121.78-73.87l1.28-1.51 1.43-.19c9.48-5.97 21.24-10.72 31.82-14.41 14.06-6.61 28.86-12.07 43.24-17.95"/><path fill="#FEFEFE" d="M1915.12 973.257c-4.97 16.454-13.49 29.283-24.65 42.253-3.5.5-6.79 1.12-10.21 2.06-7.23 2.01-15.29 2.59-22.77 3.14-1.05-2.69-.68-3.93.44-6.58 4.84-11.49 13.26-24.116 23.74-30.987 10.52-6.291 21.63-7.654 33.45-9.886"/><path fill="#AF4F9A" d="M1820.63 599.413c12.85-3.557 27.81-3.72 41.13-4.684-4.84 7.451-9.47 15.232-15.17 22.058-9.98 18.46-25.68 27.084-45.12 32.881-7.92 2.359-16.56 4.55-24.78 5.472-6.11.685-15.78-1.304-21.27.707-5.33 1.948-10.47 7.198-15.53 10.053l-1.34-.905c3.78-3.443 8.63-5.662 12.37-9.244 6.45-6.184 9.19-16.162 14.1-23.621 11.73-17.79 35.32-28.772 55.61-32.717"/><path fill="#F7E7EF" d="m1797.77 609.415 1.63.959c-.1 5.626-2.57 12.213-4.7 17.375l-1.92-.96c-.54-1.236-.9-2.331-.9-3.697.01-5.264 2.12-10.104 5.89-13.677"/><path fill="#FEFEFE" d="m1856.49 597.598-1.08 1.101c-8.34 8.498-17.69 14.651-28.38 19.731-1.89.897-1.19.482-2.81 2.042l.71 1.024c6.56.744 12.7-1.527 18.34-4.648.15-.084.3-.164.46-.246-.03.182-.03.375-.1.545-1.28 3.093-4.28 4.2-6.99 5.946l-.06 2.291-4.14.237c-1.22-.718-2.1-1.007-3.56-1.135-4.41-.39-12.33-.27-15.76 2.723l.52 1.184c7.45 2.403 16.89.964 24.34-.955-5.2 3.392-10.67 6.445-16.02 9.6-6.37-.595-19.88-3.352-24.93.09l.84.857c6.13-.614 13.76-.927 19.51 1.566l.08 1.035c-6.23 3.203-16.86-2.523-24.43-.105 4.88 1.896 10.05.573 14.61 2.474-7.27 2.142-15.37-.784-22.24 1.735-2.81 1.034-5.28 2.93-7.97 4.235-3.84 1.86-10.69 4.202-14.86 2.696l-.43-2.133c2.62-5.156 65.55-39.561 73.79-43.82 6.84-4.153 12.67-6.355 20.56-8.07"/><path fill="#B477B5" d="M1695.88 500.671c3.29 1.678 5.81 3.926 8.44 6.462 22.2 21.443 37.53 50.216 32.16 81.896-1.81 10.7-5.92 20.322-5.62 31.35l.05 1.433c-8.25-14.187-23.31-20.392-33.67-40.459-12.43-24.067-9.38-55.597-1.36-80.682"/><path fill="#F7E7EF" d="M1688.09 543.236c5.73.999 11.28 2.484 16.85 4.135l-3.91 4.866c-4.41-2.86-8.67-5.939-12.94-9.001"/><path fill="#FEFEFE" d="m1704.94 547.371 1.17-.298c-.3-.224-.59-.442-.88-.67-4.63-3.673-8.08-8.236-11.72-12.845l.09-1.369c2.53.131 5 .351 7.52.661-1.91-3.909-8.35-2.519-6.56-7.82 1.88.601 3.53 1.225 5.26 2.172.63-3.536-3.67-5.426-2.97-8.389.35-1.507.33-2.89.36-4.421.02-1.518.2-3.007.37-4.513 1.95.389 2.22 1.375 3.23 2.986 3.48 5.562 7.52 14.21 8.95 20.644.64 2.887.39 5.998 1.2 8.839 1.04 3.686 3.47 7.076 4.75 10.755 2.8 8.041 10.68 34.711 9.09 42.251-.55 2.645-1.71 3.241-3.74 4.699l-2.56.077-1.6-1.543c.22-1.826.55-2.941 1.44-4.553-5.74-5.02-13.73-5.779-17.37-12.615l.19-1.112c.25.237.49.479.73.713 4.04 3.83 7.14 4.685 12.61 4.628l.8-.718c-1.75-.566-3.45-.973-5.21-1.449-2.44-.656-3.77-1.917-5.58-3.565l-.14-1.578c3.79-.795 7.36 1.444 10.73-.091l-.01-1.162c-2.76-.608-5.02-.318-7.79-.181-1.78.088-1.1.134-2.88-.582l-.22-1.834c2.29-1.899 5.86-1.481 8.71-1.6-7.87-3.711-13.94-5.705-19.57-12.743l-.23-1.545c6.2 1.534 12.12 8.301 18.3 7.96-1.47-1.494-2.39-1.981-4.27-2.686-5.16-1.933-10.83-7.695-14.2-11.955l.69-.782c3.08 1.468 11.37 6.881 14.09 6.896-1.91-2.827-3.78-4.064-6.69-5.796z"/><path fill="#8B3982" d="M1110.14 662.111c1.39-1.697 1.58-2.179 3.95-2.294 14.24-.694 32.73 8.064 42.71 18.06 13.51 13.517 17.87 30.128 26.66 46.314 25.13 9.195 50.78 16.648 75.8 26.26 1.26-4.87.8-10.318.81-15.331l1.35.889c.11 3.826-.12 8.324.8 12.046l4.84 3.673c-3.75-.146-6.61-.317-10.17 1.114l-.28.863c3.9 1.169 8.08 2.017 10.35 5.619-25.02 19.34-51.94 34.051-84.46 29.824-8.53-1.109-16.53-3.517-24.54-6.597 12.51-17.175 28.75-28.896 50.21-31.972 12.69-1.82 13.2 3.104 22.69 4.664 1.86.305 1.86-.21 3.15-1.355 1.34 1.19 2.1 2.288 3.02 3.832 2.8.666 6.65.961 8.58 3.246l-.25 2.197-.96.688a172 172 0 0 0-7.22-2.538c-.25.18-.49.369-.75.54-3 2.015-7.4.356-10.8-.1-3.31-.446-7.57-3.961-10.36-5.791 5.33 1.802 12.53 5.207 18.07 4.949l.74-1.194c-3.14-4.551-12.06-5.926-17.36-6.981-4.64-.921-9.48-.866-14.19-.952 6.37 3.802 17.03 8.24 22.07 13.445-.46-.062-.91-.112-1.36-.187-14.03-2.341-18.33-16.998-36.34-5.098-1.54 1.021-3 2.192-4.43 3.362l-.11 1.588c1.32.915 2.64 1.807 3.9 2.798-3.97-.017-7.84-1.482-11.48.055 1.3 1.886 2.44 3.12 4.83 3.528 5.51.938 9.73-3.611 15.31-1.82 1.22.39 2.43.75 3.65 1.157 4.02-2.615 8.39-1.198 13.1-.907l1.82 1.194c-3.22 2.62-9.58-.096-10.17 5.139l2.08 2.965c-1.21 3.053-2.63 5.599-4.4 8.358 12.72-1.64 26.92-6.705 37.75-13.509 7.61-1.837 17.65-10.752 23.86-15.631-22.29-9.997-45.91-17.678-69.04-25.472-18.34-6.176-36.59-11.067-53.12-21.427l-1.19-.802c-17.54-11.955-25.15-28.009-29.12-48.409"/><path fill="#FEFEFE" d="M1152.43 678.003c.45.653.88 1.318 1.32 1.98.21.322.43.639.64.962 1.71 2.623 2.36 4.335 2.8 7.43l3.91-.358c1.02 1.492 1.34 1.257 1.13 2.764-.33 2.458-1.89 4.57-3.15 6.652.23 4.212 2.28 6.216 5.33 8.967 1.04.941 1.69 1.806 3.05 2.141l-.65-.983c-2.61-4.067-4.5-7.323-3.5-12.268l1.54-.76c6.49 3.992 11.34 22.361 15.1 29.746l-12.34-3.708 1.86-2.544c-2.84-4.278-8.58-6.992-12.3-10.621-2.83-2.764-4.01-4.123-3.98-8.116-.48-1.298-.87-2.533-1.11-3.901-.36-2.066-.94-2.869.32-4.62 2.15 1.123 3.04 2.376 4.56 4.196l-.03 1.474 1.09.013c-1.08-2.11-2.3-3.922-3.66-5.852l.09-.871-.79-.021c-.48-2.038.33-2.599 1.24-4.415l-.72-1.135c-2.68.531-4.14.657-6.87.015l-.83-1.735c1.78-1.135 3.54-2.219 5.12-3.633.29-.256.56-.532.83-.799"/><path fill="#F8EFF1" d="M1198.57 770.612c4.02-2.615 8.39-1.198 13.1-.907l1.82 1.194c-3.22 2.62-9.58-.096-10.17 5.139l2.08 2.965c-1.21 3.053-2.63 5.599-4.4 8.358-.22.074-.43.169-.64.222-6.42 1.567-23.51-.541-29.34-4.111.87-.931 1.38-1.064 1.44-2.375-2.59.671-5.12 1.427-7.83 1.226-2.12-.157-1.33.22-2.65-1.28.94-2.067 4.35-1.995 6.53-3.355.05-2.888.11-4.192 1.68-6.743 6.43-3.217 3.43 3.133 7.4 3.461 8.31.686 6.45-6.584 19.43-2.608z"/><path fill="#AF4F9A" d="M1110.14 662.111c6.99-.355 23.39 1.365 28.23 6.558 2.19 2.339 1.79 4.375 2.11 7.237.08.706.29 1.359.48 2.033l1.52.525.97-.549c2.45-1.354 4.02-2.339 6.92-2.118l2.06 2.206c-.27.267-.54.543-.83.799-1.58 1.414-3.34 2.498-5.12 3.633l.83 1.735c2.73.642 4.19.516 6.87-.015l.72 1.135c-.91 1.816-1.72 2.377-1.24 4.415l.79.021-.09.871c1.36 1.93 2.58 3.742 3.66 5.852l-1.09-.013.03-1.474c-1.52-1.82-2.41-3.073-4.56-4.196-1.26 1.751-.68 2.554-.32 4.62.24 1.368.63 2.603 1.11 3.901-.03 3.993 1.15 5.352 3.98 8.116 3.72 3.629 9.46 6.343 12.3 10.621l-1.86 2.544c-5.9-2.009-17.2-9.928-20.27-10.085l1.39.354.57 2.734c-2.68-.653-4.82-2.567-7.02-4.157l-1.83 1.908-1.19-.802c-17.54-11.955-25.15-28.009-29.12-48.409"/><path fill="#F7E7EF" d="m1142.28 709.414-.55-.789 2.87.621.41-1.071c-2.76-2.929-6.95-4.46-10.21-6.96.16-2.59 5.06-5.11 7.2-7.004-3.45-1.117-6.99 2.939-10.9 1.929-.11-6.323 6.07-3.452 9.16-7.599l-.74-3.595.82-1.131c3.39.128 5.34.536 8.35 2.125 2.39 3.851-.84 7.274.16 11.654l4.34 1.693c-.03 3.993 1.15 5.352 3.98 8.116 3.72 3.629 9.46 6.343 12.3 10.621l-1.86 2.544c-5.9-2.009-17.2-9.928-20.27-10.085l1.39.354.57 2.734c-2.68-.653-4.82-2.567-7.02-4.157"/><path fill="#51275D" d="m1873.47 341.123 2.2 4.583c-9.1 14.978-19.74 38.374-29.14 51.36-4.06 11.362-11.36 20.876-14.78 32.67 12.01-5.928 16.38-13.154 24.43-23.353 12.32-15.613 32.46-21.766 51.55-23.501 6.2-.563 16.74-2.584 22.6-.944 1.47.412 1.46.487 2.57 1.16.86 3.046.46 4.758-1.03 7.563-9.56 17.91-26.52 33.054-46.17 38.516-14.81 4.115-27.32 3.198-41.36-3.231-4.78 3.182-9.96 7.452-15.28 9.474-33.07 62.917-60.39 132.749-83.62 199.957-2.9 8.38-9.31 21.248-9.33 29.948 1.65.454.84.528 2.44-.33l1.34.905c-4.13 3.473-6.16 6.23-8.14 11.272-9.74 24.828-15.81 52.29-23.21 77.968a4836 4836 0 0 0-20.37 70.887c-15.86 58.807-30.85 118.874-52.25 175.943-6.09 16.23-14.29 31.19-23.5 45.85 4.99-17.98 12.2-35.65 18.11-53.379a3942 3942 0 0 0 32.6-104.174c15.81-54.18 29.36-109.015 45.21-163.219 5.38-18.365 10.43-36.945 16.72-55.02 11.28-32.403 21.3-65.334 34.23-97.124 4.01-9.881 19.89-43.596 19.67-52.006l1.02-2.711c2.34-1.309 2.53-1.881 3.78-4.258 5.96-11.266 10.21-23.946 15.51-35.607 9.44-20.764 19.66-41.244 29.59-61.781-6.52-7.046-12.46-14.457-19.48-21.044l2.16-.222c1.39-2.603.26-3.993-.53-6.718 2.51-.234 4.66-.518 6.66 1.296 2.42 2.19-1.64 5.818-1.41 8.711.66.146 1.32.242 1.96.436 2.55.776 3.13 3.486 4.08 5.771 1.86 4.473 4.3 6.628 7.88 9.728 7.99-17.44 16.79-35.755 28.23-51.225 4.79-8.188 9.97-16.148 15.06-24.151"/><path fill="#F7E7EF" d="M1890.87 408.767c1.04 2.483 2.29 3.157 4.34 4.793l.97.769-.84.856c-4.49.178-8.23-.508-12.6-1.388-2.94 1.369-5.15 3.973-7.56 6.128-2.77 2.473-6.24 5.286-10.25 4.456-2.85-.588-7.2-3.236-8.53-5.853 3.18-4.918 12.4-4.032 15.88-8.28 2.42-2.964 3.2-11.414 5.1-15.337 1.79-3.708 4.54-3.846 8.13-5.053l.02 1.413c.01 3.655.34 7.918-2.18 10.909-.82.98-1.6.889-2.78 1.154l-1.57-2.152c-.87 2.05-1.55 2.406-.84 4.603 3.42 1.177 4.94-.063 8.16-1.56 2.78 1.252 2.92 1.904 4.55 4.542"/><path fill="#F8EFF1" d="m1885.51 389.858 5.55-1.537c.09 1.851-.13 3.446-.45 5.269 2.33-1.617 3.36-3.91 4.7-6.32 3.61-2.305 11.82-1.625 16.19-1.84.05.325.1.652.17.976.25 1.29.06.806.7 1.791 1.31-1.047 2.37-2.137 3.48-3.399l3.44-.495c-.56 2.794-6.13 5.774-7.77 8.763 1.91-1.154 3.82-2.287 5.7-3.47 3.81-2.389 8.47-4.401 13.02-4.245l.83 1.153c-1.73 3.56-8.56 5.152-9.43 7.446-.36.959.18 2.092-.12 3.074-1.61 5.32-13.86 11.556-18.6 13.266-4.56 1.644-6.01 1.331-10.22-.666l-1.83-.857c-1.63-2.638-1.77-3.29-4.55-4.542-3.22 1.497-4.74 2.737-8.16 1.56-.71-2.197-.03-2.553.84-4.603l1.57 2.152c1.18-.265 1.96-.174 2.78-1.154 2.52-2.991 2.19-7.254 2.18-10.909z"/><path fill="#51275D" d="M870.151 1644.6c.898.2 1.946 1.12 2.56 1.69 5.871 5.47 9.825 13.67 15.651 19.53 15.141 15.21 32.852 28.27 49.811 41.37-34.603 10.64-70.17 19.09-105.442 27.23a794 794 0 0 0-34.794 8.76c-10.588-17.31-20.222-35.33-27.152-54.45a4413 4413 0 0 1 58.15-23.8c11.957-4.73 25.671-8.75 36.696-15.23 2.631-1.55 3.094-2.49 4.52-5.1"/><path fill="#8B3982" d="M1114.66 463.974a95.93 95.93 0 0 1 61.55 40.138c12.34 17.955 14.73 36.898 21.14 57.048 22.39 10.748 45.32 20.296 67.53 31.421l-.51-1.012c-4.31-8.373-10.17-15.842-15.06-23.872-11.92-19.553-18.91-43.49-11.93-66.016 2.21-7.162 5.55-13.52 9.71-19.727 16.74 11.687 25.3 33.469 28.74 52.936 3.37 19.042 3.18 42.442-6.28 59.722.92 2.075.24 1.269 1.91 2.507l-1.89.821c-1.91-.856-3.43-1.602-5.14-2.762-8.2-5.598-36.86-19.649-46.14-21.544 9.1 8.63 45.21 17.879 50 27.959-1.69-.868-3.56-2.023-5.35-2.601-4.24-1.366-25.42 12.086-31.45 14.492-24.41 9.741-51.64 14.877-76.6 3.988-3.66-1.596-9.11-3.533-10.67-7.454.7-1.345 1.37-2.168 2.63-3.036 26.48-18.162 60.48-24.913 91.98-19.678-.48-.398-.96-.807-1.45-1.193-7.07-5.55-17.27-9.149-25.49-12.938-15.47-7.13-32.55-13.223-47.26-21.627-26.12-14.932-44.87-40.356-49.38-70.354a81 81 0 0 1-.59-17.218"/><path fill="#FEFEFE" d="M1238.83 587.304c7.1 2.882 14.05 5.81 20.84 9.365-31.3 16.842-58.04 28.825-94.36 22.988-6.81-2.578-13.1-5.05-19.18-9.15 25.3-19.272 60.5-25.937 91.7-22.149.35-.329.87-.586 1-1.054m8.61-101.952c.57.345 1.18.647 1.72 1.033 9.17 6.485 15.37 20.234 17.43 30.771l.28 1.46 1.74-.418c2.74 2.211 3.42 10.209 4.1 13.784 3.37 17.755 5.04 45.623-5.56 61.18-6.32-5.097-24.78-44.075-27.28-53.488-5.2-19.562-2.68-36.884 7.57-54.322m-130.53-18.646c9.26 3.091 18.22 6.744 26.69 11.634 31.96 18.44 41.75 48.688 50.54 82.312-.51.015-1.02.075-1.53.044-12.53-.758-38.65-19.197-47.74-28.086a93.5 93.5 0 0 1-27.96-65.904"/><path fill="#B477B5" d="M1525.8 305.538c22.14 24.512 56.11 38.149 75.47 62.6 14.85 18.747 19.16 44.407 15.49 67.623-1.94 12.333-5.65 24.418-7.06 36.827l-.12 1.157c-1.29.603-2.23.864-3.13 2.004-4.31-4.431-21.74-9.436-28.58-12.509-16.31-7.328-34-21.199-44.82-35.472-27.21-35.872-13.01-81.732-7.25-122.23"/><path fill="#51275D" d="M791.376 1516.89c2.931 4.66 5.006 9.07 6.937 14.21-11.502 11.53-23.371 23.09-31.523 37.35-19.987 34.97-7.982 73.78 1.714 110.01-19.377 12.01-38.337 24.61-58.108 35.99-78.64 45.27-201.656 104.07-292.659 105.51l-10.285-.78 1.004-23.37c76.386-.7 192.725-48.45 261.735-82.35 28.191-13.84 55.681-29.45 83.376-44.27-9.468-45.91-18.978-77.97 11.214-118.83 8.202-11.11 18.864-20.44 25.943-32.34.221-.38.435-.76.652-1.13"/><path fill="#B477B5" d="M1536.72 60.537c21.4 17.868 46.16 31.262 66.98 50.011 35.16 31.65 42.26 66.136 33.45 111.489-2.96 15.244-7.15 30.198-6.27 45.844l-2.21 4.01-2.98-13.984c-7.74-8.084-16.87-14.985-25.36-22.272-78.8-67.656-56.29-80.934-63.61-175.098m170.14 259.816c.04-.339.07-.677.1-1.017.89-11.667-1.4-24.345-2.1-36.045-1.83-30.317 7.62-58.464 30.87-78.734 29-25.275 80.68-34.993 116.45-52.144-9.41 53.304-22.69 106.42-69.58 139.197-13 9.087-26.72 15.489-41.48 21.158-10.57 4.061-24.22 7.441-33.26 14.219z"/><path fill="#51275D" d="M1147.97 1671.42c21.99-.84 45.02 1.86 65.05 11.43 34.2 16.35 95.08 78.57 125.14 107.2 13.45 12.81 27.34 24.89 41.12 37.31-16.96-6.06-32.32-9.82-50.31-11.13-14.67-.01-31.53 1.45-45.67-3.03-34.87-11.05-107.67-67.64-138.77-91.09-19.09-14.4-38.55-28.53-57.09-43.62 19.29-4.66 40.72-6.09 60.53-7.07m-385.212 21.4c3.022 2.2 5.384 10.47 6.973 14.16 5.327 12.39 10.865 24.2 18.125 35.62-8.559 3.81-16.558 9.59-24.437 14.66-15.538 9.99-30.935 20.42-46.868 29.76-75.101 44.06-170.601 88.21-257.645 98.9-7.729 1.33-15.818 1.59-23.64 2.24-1.403-19.56-1.91-38.42-1.167-58.01 116.851-18.49 229.394-75 328.659-137.33m-102.313-656.06c12.632 19.13 45.546 42.22 63.155 60.31-28.294.37-54.288 5.45-77.844 21.81-137.196 95.24-177.451 473.28-206.027 633.56-1.972 11.44-3.797 22.94-6.166 34.31-8.351.12-16.604-.42-24.928-.99 1.927-20.97 6.286-42.2 9.367-63.08l14.552-103.47c30.783-213.85 69.383-422.82 227.891-582.45m-22.691-153.956c-22.463-22.666-34.826-69.36-34.813-100.468.015-37.36 13.683-76.631 40.384-103.327 33.686-33.68 81.926-50.658 129.044-50.242 19.456.172 70.257 6.056 84.073 19.921 4.675 4.693 5.294 13.493 5.025 19.718-1.29 29.967-19.968 52.583-41.436 71.504-15.713 13.849-34.031 25.224-48.429 40.48-9.188 9.735-15.271 21.449-23.537 31.824-24.432 30.666-59.931 51.578-99.849 50.782 11.1-32.558 28.724-72.061 49.977-99.015 8.213-10.416 18.071-19.768 28.031-28.514 9.27-8.14 20.948-13.441 29.987-21.45l-.575-.753c-16.094 3.784-46.336 31.866-57.952 44.959a194 194 0 0 0-19.322 26.124c-14.563 23.337-39.427 71.706-40.608 98.457"/><path fill="#F7E7EF" d="M712.998 754.611a234 234 0 0 0 3.62 3.496c.02 4.293-2.675 6.011-4.162 9.869-2.168-2.135-4.315-3.768-4.849-6.917.755-3.088 3.06-4.522 5.391-6.448"/><path fill="#F8EFF1" d="M765.935 709.295c10.532-4.266 26.317-4.214 37.2-.735-1.969 1.733-3.926 3.4-6.013 4.996-8.335-7.544-22.864 1.123-31.187-4.261m-62.455 7.989c4.748 7.992 4.974 14.976 2.519 23.913-.927 3.377-2.241 6.061-4.612 8.618-1.517.491-1.833.995-3.355.263-1.421-.683-2.252-1.429-3.368-2.507 2.035-.067 1.238-.222 3.187.448.46.158.911.339 1.367.508 1.783-1.116 1.833-1.79 2.779-3.604l-2.012-.672c1.148-4.297 2.436-12.187.589-16.244-.167-3.435 1.684-7.587 2.906-10.723m55.384-.954c9.774-.747 19.928 1.6 29.518-1.051 2.848-.787 4.59-1.038 7.538-.807-8.098 4.85-19.268 11.218-29.037 8.749-3.897-.984-6.061-3.601-8.019-6.891"/><path fill="#F7E7EF" d="m755.636 713.264 10.299-3.969c8.323 5.384 22.852-3.283 31.187 4.261l-1.202.916c-2.948-.231-4.69.02-7.538.807-9.59 2.651-19.744.304-29.518 1.051l-.386-1.447-2.267-.866z"/><path fill="#F8EFF1" d="M744.317 730.254c11.378-.53 18.305 3.508 28.926 6.572-4.8 2.614-9.731 5.026-14.599 7.514-4.454 1.682-8.381 2.911-13.223 2.658-4.823-.252-9.405-1.896-12.631-5.538-.313-1.527-.872-2.537-.198-4.03 2.012-4.455 7.498-5.662 11.725-7.176"/><path fill="#F7E7EF" d="M695.397 701.337a147 147 0 0 0 8.083 15.947c-1.222 3.136-3.073 7.288-2.906 10.723 1.847 4.057.559 11.947-.589 16.244l2.012.672c-.946 1.814-.996 2.488-2.779 3.604-.456-.169-.907-.35-1.367-.508-1.949-.67-1.152-.515-3.187-.448-2.483-2.6-4.662-5.535-5.991-8.907-4.904-12.436 1.77-26.035 6.724-37.327"/><path fill="#F8EFF1" d="M700.574 728.007c1.847 4.057.559 11.947-.589 16.244-.382-.524-.82-1.012-1.147-1.572-2.648-4.548.066-10.284 1.736-14.672m12.424 26.604c8.873-3.098 16.979-2.704 25.493 1.371a108 108 0 0 1 13.335 7.703c-13.032 4.355-23.657 12.074-37.407 5.299a82 82 0 0 1-1.963-1.008c1.487-3.858 4.182-5.576 4.162-9.869a234 234 0 0 1-3.62-3.496"/><path fill="#F7E7EF" d="M760.26 668.741c.566 4.404.995 8.834 1.485 13.247 1.285 8.279 1.316 15.84-3.69 22.947-2.479 3.519-5.774 5.756-9.367 8.011-3.334-6.964-5.242-11.491-4.645-19.43l1.455-3.172c2.957-8.295 9.086-15.037 14.762-21.603m37.488 4.652c3.754-.657 8.051-.49 11.884-.699-7.258 9.306-14.862 19.398-26.397 23.38-3.578.197-7.145.154-10.493-1.33-2.325-1.031-2.928-1.892-3.7-4.224.481-2.237 1.192-3.778 2.72-5.519 7.117-8.107 15.759-10.622 25.986-11.608"/><path fill="#F8EFF1" d="M700.707 780.257c12.898-.293 25.893 4.997 38.532 7.457-5.433 2.916-11.338 5.209-16.993 7.676-2.774 1.056-5.779 2.16-8.732 2.521-6.424.787-16.534-1.46-21.415-5.904-1.929-1.757-2.214-2.807-2.305-5.327 2.478-4.097 6.555-5.148 10.913-6.423"/><path fill="#F7E7EF" d="M726.735 683.354c2.316 5.38 4.936 10.777 6.963 16.263.646 3.645 1.063 7.139.84 10.854-.347 5.769-1.413 12.764-6.509 16.376-1.968 1.395-4.476 1.942-6.807 1.209-2.97-.935-4.944-3.585-5.953-6.407-3.178-8.884 1.132-18.945 5.179-26.817 2.009-3.872 3.927-7.805 6.287-11.478"/><path fill="#F8EFF1" d="M689.096 808.128c10.04-1.061 20.668 1.832 30.536 3.607a134.6 134.6 0 0 1-20.672 14.561c-10.987 3.163-19.34-.226-29.701-3.839 5.858-8.667 9.581-11.945 19.837-14.329"/><path fill="#F7E7EF" d="M640.676 762.042c2.618 3.357 5.116 6.814 7.659 10.228 3.547 4.699 6.08 9.222 8.533 14.57 3.904 8.818 3.329 19.435 3.712 28.95-7.164-1.987-11.999-4.031-16.332-10.369-8.582-12.552-6.305-29.378-3.572-43.379"/><path fill="#F8EFF1" d="m656.868 786.84-4.438.212c-1.756-1.164-2.901-2.441-3.722-4.421-1.241-2.989-1.686-7.376-.373-10.361 3.547 4.699 6.08 9.222 8.533 14.57"/><path fill="#F7E7EF" d="M665.607 769c-1.246-2.95-2.22-5.802-2.498-9.017-.758-8.791 2.002-23.774 7.714-30.735l1.211.606.583 2.714c4.436 8.978 9.436 18.085 12.742 27.541-1.107 5.883-1.52 15.719-6.621 19.497-3.746.151-5.9-1.56-8.589-4.067-2.091-1.951-3.306-3.995-4.542-6.539"/><path fill="#B477B5" d="M1531.17 993.801c11.22 20.299 23.81 84.019 19.27 106.829-.23-1.9-.28-4.02-.89-5.84l-.66.45 1.11.92c-.46.11-.96.14-1.39.34-.34.15-1.47 1.16-1.78 1.43l.4-.28c-20.92 30.57-42.14 59.06-68.11 85.61-109.4 111.89-246.44 193.35-350.94 310.42-18.23 20.42-37.39 42.74-50.23 67.03-35.59.58-67.51 13.45-100.629 25.2-22.528-24.38-37.729-56.47-48.702-87.63 20.067-37.64 62.708-70.43 96.341-96.03 68.12-51.83 140.74-97.43 213.76-142 45.32-27.67 94.24-55.22 136.64-87.17 43.62-32.87 84.36-72.45 117.08-116.25 14.13-18.91 30.89-40.58 38.73-63.029"/><path fill="#51275D" d="M765.117 609.428c16.58-.686 33.582.832 49.887 3.814 40.178 7.345 72.502 24.001 96.056 58.312 15.654 22.803 32.308 56.376 29.259 84.845-.399 3.733-4.417 5.164-4.538 7.581-.146 2.914 1.607 6.238 2.86 8.803 10.597 21.678 33.795 26.522 47.682 41.943 2.974 3.303 4.802 6.805 4.245 11.362-1.176 9.623-16.251 13.535-22.559 19.248-2.08 1.884-2.236 3.135-2.316 5.813 2.907 5.673 9.246 8.01 13.156 12.842 1.577 1.948 2.167 4.073 1.537 6.549-1.412 5.551-11.649 10.684-16.198 13.543 5.343 1.364 12.923 2.834 16.048 7.925 3.367 5.485-7.794 13.314-6.929 21.18 1.325 12.054 14.166 20.617 11.835 33.859-5.983 33.988-89.13 18.253-112.89 35.818-23.921 17.685-42.372 70.255-49.789 99.125-4.684 18.22-7.67 36.71-10.433 55.31-48.17-36.55-86.796-76.82-127.288-121.36 10.61-21.865 18.838-44.62 27.065-67.449-7.567-5.85-16.064-10.687-23.996-16.048-17.866-12.077-31.471-26.007-44.291-43.266.809-6.362 1.984-12.712 3.003-19.045 24.827-.313 45.258-6.183 67.298-17.471 6.543 15.363 16.669 28.568 29.081 39.689 7.44 6.666 24.314 20.188 34.732 19.124 2.47-.253 4.955-1.373 6.348-3.519 1.359-2.096 1.275-2.955.68-5.152-4.701-3.118-11.717-3.223-17.1-5.001-21.662-7.156-36.639-28.145-46.345-47.778l-.745-1.526c9.391-7.632 17.838-16.291 26.431-24.793 1.916 4.003 3.409 10.302 6.883 13.219 2.172 1.823 2.584 1.93 5.252 1.804 1.111-.937 1.321-1.016 2.272-2.36 5.703-8.066 4.141-25.558 3.315-34.806 13.127-21.483 35.146-34.641 54.224-50.156 7.655-6.225 14.511-13.032 21.324-20.142 16.427-18.449 29.9-42.481 29.524-67.884-.114-7.711-2.168-15.962-8.115-21.298-17.949-16.108-79.107-22.701-102.465-21.387-46.033 2.589-95.213 23.437-125.94 58.478a152.9 152.9 0 0 0-37.712 113.539c4.608 61.249 34.136 100.734 79.312 139.324-25.721-6.051-52.118-13.322-74.176-28.429-22.314-15.283-39.956-41.116-44.746-67.861-5.16-28.808 4.528-49.303 20.749-72.355-4.159 3.022-8.469 6.014-12.16 9.606-11.923 11.605-17.356 26.737-17.659 43.155-.535 29.014 12.336 57.646 32.563 78.151 21.54 21.837 58.949 40.472 89.866 40.812-2.549.865-5.121 1.759-7.73 2.427-22.496 5.76-54.684-5.292-74.024-16.623a120.5 120.5 0 0 1-55.232-74.028c-5.257-20.163-4.187-42.271 6.596-60.517 11.36-19.223 29.618-29.251 50.593-34.761-.966-29.823 23.192-66.665 42.56-87.655 35.189-38.139 82.589-52.347 133.14-54.53"/><path fill="#FEFEFE" d="M906.09 763.089c.762.558.299.123.908 1.673-1.706 4.485-6.707 8.245-10.756 10.573-5.65 3.249-9.894 4.328-16.223 2.549-1.738-1.452-2.384-1.568-3.094-3.795 4.561-5.731 21.663-8.695 29.165-11"/><path fill="#51275D" d="M677.159 1021.86c8.79 5.53 43.95 46.25 55.626 57.49a1144 1144 0 0 0 48.685 43.74c9.714 8.33 24.281 17.47 31.593 27.84 4.732 6.71 6.009 16.62 8.778 24.35 11.133 31.08 20.633 62.19 28.521 94.3 4.881 19.87 8.426 40.13 13.938 59.83a1878 1878 0 0 0 50.62 158.12c12.171 32.26 25.272 67.94 47.452 94.76 16.666 20.15 39.148 35.08 59.168 51.66 61.75 51.15 123.43 101.29 189.79 146.5 19.64 13.38 40.76 29.42 62.99 38.12 23.1 9.03 47.2 3.47 71.07 6.88 19.04 2.71 38.49 11.47 56.52 18 14.82 5.37 30.21 10.13 44.57 16.62.22.58.56 1.13.64 1.74.35 2.64-1 3.93-2.53 5.73-17.95 8.04-58.24-9.18-78.96-9.53-3.21-.05-4.99.35-7.28 2.58l.13 2.69c9.88 15.69 75.81 52.28 93.87 65.06 2.06 1.46 2.8 2.32 3.17 4.78l-1.48 1.5c-3.34.92-6.36 1.02-9.81.82-15.86-.92-31.94-3.41-47.83-4.75-14.99-1.26-53.07-1.78-65.27-5.83-7.34-2.43-14.58-8.99-20.2-14.13-9.35-8.53-18.48-17.59-28.8-24.96-17.93-12.79-40.46-21.67-60.34-31.11-88.8-42.15-173.35-82.4-255.181-138.06-25.295-17.21-51.865-35.77-73.195-57.81-12.964-13.39-22.161-31.12-32.454-46.58a1668 1668 0 0 1-141.609-259.96c-5.864-11.43-10.249-24.17-14.847-36.15-7.113-18.54-14.379-37.08-19.465-56.3-7.57-28.61-12.219-62.7 3.587-89.47 6.935-11.74 17.972-22.47 31.527-25.74 11.136-2.69 23.548.15 33.996 4.35 71.554 28.73 78.182 148.68 90.949 156.19l2.488-.77c.642-.87 1.178-1.49 1.522-2.58 3.656-11.65-25.432-84.08-31.52-97.32-13.595-29.56-31.847-52.27-63.073-63.48-14.723-5.29-31.224-7.89-45.771-.56-16.057 8.09-29.28 25.61-34.967 42.42-5.584 16.5-5.448 34.38-2.968 51.44 4.175 28.71 14.59 56.66 25.106 83.58a1557 1557 0 0 0 58.093 128.44c11.088 21.88 23.083 43.3 34.032 65.25-9.231 4.9-30.333 34.11-36.441 43.85-23.516 37.47-16.628 68.26-7.577 108.63-60.221 37.12-154.317 79.51-221.368 100.58-26.679 8.39-53.973 14.65-81.316 20.42 11.151-47.27 16.914-96.66 24.692-144.6a2818 2818 0 0 1 28.708-155.5c21.982-106.86 49.815-230.51 115.817-319.69 21.863-29.55 52.978-54.64 90.596-58.5 13.508-1.39 27.167-.16 40.604-2.31l1.649-.28c-24.733-25.15-51.736-48.24-77.764-72.04 3.534-3.86 7.447-7.01 11.519-10.25"/><path fill="#B477B5" d="M336.638 1922.24c-1.428-2.75-19.938-17.27-24.266-21.44-17.181-16.57-33.563-34.89-48.972-53.1-83.116-98.23-136.819-222.79-166.32-347.17a943.7 943.7 0 0 1-22.593-168.62c-11.515-230.08 55.759-437.302 175.839-631.594 155.303-251.28 393.753-485.572 668.738-600.471 40.593-16.961 82.356-34.104 125.286-44.22l1.37 1.43-.83-.032 2.28-1.447c-22.39 6.534-45.37 16.531-66.781 25.884a1163.3 1163.3 0 0 0-282.641 178.852c-27.618 23.491-55.097 48.378-79.375 75.333-2.121 14.467-3.582 29.052-6.114 43.451-19.735 112.249-53.127 222.88-93.256 329.407-6.439 17.094-13.8 33.813-20.548 50.784-13.713 34.49-27.234 68.804-41.968 102.884-113.171 261.769-258.219 474.989-195.41 775.149a713.7 713.7 0 0 0 120.832 269.55c6.162 8.29 12.751 16.21 19.129 24.33l-26.259-4.89c-12.479-2.26-25.957-1.11-38.141-4.07"/><path fill="#F2BAC4" d="M618.373 335.645c-2.121 14.467-3.582 29.052-6.114 43.451-19.735 112.249-53.127 222.88-93.256 329.407-6.439 17.094-13.8 33.813-20.548 50.784-13.713 34.49-27.234 68.804-41.968 102.884-113.171 261.769-258.219 474.989-195.41 775.149a713.7 713.7 0 0 0 120.832 269.55c6.162 8.29 12.751 16.21 19.129 24.33l-26.259-4.89a766 766 0 0 1-10.658-10.65c-118.953-121.6-185.517-290.54-202.919-458.18a1001 1001 0 0 1-4.248-113.41 799.7 799.7 0 0 1 29.581-198.34c57.622-212.203 183.751-392.716 291.798-581.131 11.283-19.675 22.78-39.315 33.125-59.503 30.359-59.241 58.514-122.198 106.915-169.451"/><path fill="url(#a)" d="M1166.66 149.675c5.42 2.651 10.27 5.638 14.96 9.453 19.46 15.834 32.09 41.375 31.08 66.662-.42 10.562-2.74 21.189-1.51 31.755l.18 1.403c31.01 12.744 59.57 32.5 88.45 49.384 10.79-33.419 23.31-64.045 6.5-97.99-3.76-7.576-11.45-20.812-19.71-23.382-.3-.092-.6-.168-.9-.252l-.63-1.175 2.17-2.155 1.67.309c6.72 4.956 13.4 14.307 17.67 21.529 13.22 22.369 13.25 47.941 5.82 72.29-3.18 10.438-7.41 20.544-10.08 31.135l-.34 1.358c36.91 21.709 72.06 51.308 103.41 80.364-8.89-16.682-17.79-33.11-21.73-51.784-7.35-34.781-1.23-65.605 18.13-95.21 4.84 4.595 8.47 10.323 11.61 16.177 14.8 27.64 19.48 65.841 8.5 95.557-4.38 11.845-11.5 22.699-14.97 34.843l-.39 1.403c15.46 14.109 29.31 30.518 43.31 46.072 61.7 68.533 118.84 144.809 154.11 230.723 8.98 21.878 17.59 45.47 23.78 68.258 4.83 17.831 8.31 36.063 12.88 53.982.7-40.197-2.27-80.755-3.06-120.983-.55-28.069 1.86-57.414-1.78-85.17-4.37-33.295-16.9-77.276-29.34-108.482.9-1.14 1.84-1.401 3.13-2.004 14.16 28.494 21.01 59.481 28.95 90.084.59-39.397 2.64-78.698 2.8-118.108 4.63-5.369-2.61-35.488 4.48-44.682.92 11.275 1.14 22.623 1.56 33.926 3.63-11.054 6.93-24.045 12.94-33.967.33-.258.68-.505 1.01-.774 4.68-3.827 15.12-28.977 19.05-36.172.4 3.486-4.53 9.273-5.98 12.987-4.6 11.778-18.23 31.88-16.73 44.106-2.84 10.381-7.95 20.603-9.84 31.125-2.23 12.387-1.24 26.728-1.5 39.389l-1.25 84.343c-.98 89.942 4.78 179.929 1.47 269.793-1.19 32.21-2.45 64.187-8.02 95.998-8.08 46.081-21.17 83.497-36.22 127.237.19-.24.38-.48.57-.73 5.69-7.41 10.2-15.97 15.24-23.84 10.7-16.75 21.59-33.52 33.03-49.769 12.23-17.387 24.64-35.256 37.92-51.844 29.92-37.373 63.49-72.055 97.62-105.565l4.51 4.289c-32.94 30.274-64.03 65.456-92.14 100.245l-.73 1.114 1.13.911-.43.527c-9.03 4.847-20.45 24.975-26.49 33.827-22.2 32.485-43.77 65.075-63.57 99.095-25.96 44.61-49.26 90.64-74.47 135.62-11.47 20.47-26.64 40.33-35.51 62.02 12.09-12.84 23.49-26.32 35.67-39.05a903 903 0 0 1 83.89-78.11c11.28-9.3 23.55-20.16 36.23-27.45l1.43.77c9.01-5.02 17.73-12.58 26.28-18.49 19.34-13.35 50.51-33.3 71.57-42.03-8.43 6.1-17.88 10.45-26.73 16.01-25.12 15.77-50.51 31.63-74.66 48.85-36.86 26.31-72.27 62.29-104.39 94.44-6.91 6.92-27.61 25.8-29.79 33.56-.05.2-.11.39-.17.58l-.66.86c-9.06 11.63-20.56 21.46-29.03 33.51-13.24 18.84-24.48 39.95-35.45 60.2a1048.7 1048.7 0 0 0-80.74 186.17l.62-.7c10.32-11.82 18.59-25.49 28.7-37.54 23.83-28.39 58.77-60.16 89.71-80.56 35.73-23.55 74.42-41.01 114.46-55.89 11.3-4.2 76.39-23.75 81.6-29.11l1.71.94c18.01-3.36 35.64-11.55 53.66-15.79.67.03 1.33.06 2 .08 13.17.39 26.42-6.75 39.18-9.58l36.33-8.44c4.78-1.11 9.62-1.46 14.35-2.84 5.45-1.57 22.27-8.89 26.97-8.44l.93.97h.03c-3.38 1.06-6.79 2.03-10.06 3.4-25.88 10.79-88.32 16-106.93 31.45-27.16 7.29-54.27 14.55-80.99 23.36l-2.43-.21-1.77 1.77c-13.58 7.51-31.06 11.73-45.85 16.89-12.88 4.5-25.63 9.72-38.6 13.87l-2.61-.59c-1.2.92-2.01 1.61-2.97 2.8-6.91 4.88-15.32 8.33-22.91 12.07-15.18 7.49-30.17 14.76-44.38 24.03l-1.23.97c-41.55 23.04-109.61 93.38-132.18 135.5-5.3 9.9-8.23 20.94-11.3 31.68-11.3 39.46-21.41 82.32-23.75 123.42a4428 4428 0 0 0 139.86 132.52c20.44 18.66 43.81 42.77 66.76 57.84 6.54 4.29 11.49 6.52 19.44 6.57a81.8 81.8 0 0 0 26.68-4.53c13.26-4.53 47.17-25.66 59.04-13.42 2.29 2.36 4.13 5.22 4.07 8.63-.08 5.05-4.64 9.71-8.34 12.64-2.98 2.36-6.18 4.51-9.3 6.69l-.01.59 2.63.14-.26.6c.26.13.52.25.78.38 2.85 1.44 5.45 3.15 6.13 6.55.58 2.83-.7 7.36-2.64 9.5-1.66 1.85-4.7 3.01-6.95 4.02.08 2.75 1.21 4.21 2.53 6.55-.41 4.43-2.91 8.15-4.99 12.01 48.92 2.34 107.91-1.77 154.65-17.23 10.54-3.48 38.28-18.88 47.62-14.48.7 2.36 1.17 3.41-.26 5.72-4.1 6.61-18.86 11.18-25.82 13.72-9.23 3.37-18.39 7.3-27.8 10.12-24 7.2-49.84 10.93-74.77 13.25-81.03 7.55-161.79-10.2-241.87-20.03-72.97-8.96-157.76-14-231.3-12.59-110.22 2.12-219.56 23.24-328.506 38.29-72.582 10.02-134.956 18.07-208.469 13.76-66.972-3.92-132.897-16.93-198.257-31.57-61.83-13.86-122.018-30.05-185.806-30.57-45.856-.37-93.322 6.89-137.164 20.29-13.857 4.23-27.796 8.99-41.213 14.47-7.923 3.24-16.288 7.89-24.532 10.04-2.095.55-3.473.42-5.55-.29-2.306-2.01-2.674-1.92-3.086-4.9 5.641-10.94 42.663-22.36 55.097-26.36a513.3 513.3 0 0 1 183.524-24.94c12.184 2.96 25.662 1.81 38.141 4.07l26.259 4.89 51.918 10.56c-7.917-15.52-12.005-28.31-14.493-45.51 18.228.03 36.296-3.5 54.05-7.35 79.275-17.21 154.01-52.14 224.096-92.26 14.03-8.04 27.478-17.02 40.995-25.88 8.174-5.35 16.482-11.55 25.44-15.5 13.291-5.86 50.16-12.67 65.934-16.45 33.098-7.94 65.892-17.1 98.998-24.94 47.063 33.98 98.814 63.41 150.164 90.38a1241 1241 0 0 0 38.06 19.43c10.07 4.86 21.29 9.13 30.48 15.43-19.28 10-39.65 18.52-59.22 28.06l-88.94 42.5c-27.659 13.41-55.093 27.45-82.959 40.42-16.774 7.8-34.015 14.57-50.797 22.38 32.42-3.32 64.618-10.15 96.845-14.99 86.911-13.05 173.721-25.42 261.791-26.59-23.6-23.17-60.8-61.23-74.52-91.22 15.35 6.02 30.34 13.84 45.34 20.73 19.27 8.84 39.85 17.05 57.89 28.22a169 169 0 0 1 22.84 17.21c10.2 9.09 19.87 21.31 33.15 25.85 15.06 5.14 40.48 4.78 56.91 6.03 19.94 1.53 39.63 3.46 59.48 5.74 4.73.54 11.46.7 15.15-2.87 1.88-1.81 2.91-4.37 2.96-6.98.08-3.96-1.94-7.39-4.76-10.02-7.75-7.21-17.9-12.21-26.96-17.57-18.13-10.74-37.29-22.63-51.99-37.83 17.48 3.6 37.23 9.31 55.14 9.07 5.8-.08 12.91-.95 17.04-5.54 2.43-2.71 3.37-6.61 2.98-10.19-.46-4.27-3.3-7.54-6.76-9.81-15.89-10.4-40.53-10.08-58.87-25.06-9.46-7.73-18.03-17.18-27-25.53-40.13-37.41-78.9-79.42-123.42-111.64-51.72-37.45-100.96-28.11-159.71-18.51-31.77-26.26-63.11-53.03-95.114-79.02 14.682-3.51 29.174-9.29 43.574-13.9 17.21-5.52 34.65-10.18 52.07-15.01l-.87-2.33c12.84-24.29 32-46.61 50.23-67.03 104.5-117.07 241.54-198.53 350.94-310.42 25.97-26.55 47.19-55.04 68.11-85.61l-.4.28c.31-.27 1.44-1.28 1.78-1.43.43-.2.93-.23 1.39-.34l-1.11-.92.66-.45c.61 1.82.66 3.94.89 5.84 4.54-22.81-8.05-86.53-19.27-106.829-16.77-47.071-63.71-98.337-101.61-130.747-12.72-10.874-26.77-20.372-40.36-30.125-18.3-13.137-36.58-26.512-55.93-38.081-21.53-12.866-44.68-22.914-66.31-35.524-2.27-3.602-6.45-4.45-10.35-5.619l.28-.863c3.56-1.431 6.42-1.26 10.17-1.114 1.05-.139 1.96.022 2.97.309 12.46 3.519 44.39 21.656 56.48 28.584 66.78 38.284 133.84 87.771 179.37 150.674 11.09 15.333 20.36 31.577 29.06 48.349-4.69-27.127-17.19-55.417-28.71-80.375-37.7-81.675-81.25-161.42-145.52-225.394-8.12-8.09-19.11-21.253-30.05-25.281l-.97.724c-.1 1.896.77 4.147 1.23 6.003-1.89-.729-2.46-1.359-3.6-3.014l1.6-3.074-.64-1.367c-9.28-4.818-38.63-5.639-48.98-3.962.19.603.36 1.208.55 1.807.75 2.323 1.79 3.334 3.54 4.967-1.24 2.172-1.99 2.046-4.19 3.051 14.21 4.466 30.86 7.213 45.76 5.421 3.97-.479 9.29-2.974 12.99-2.851.58.019 1.16.183 1.73.275l.38-.439-.46 1.196c-3.74 2.612-8.63 2.949-13.09 3.345-14.81 1.317-48.2-.486-59.52-10.713-1.66-1.503-1.74-1.545-1.78-3.852.91-.954.88-1.033 2.2-1.824 13.16-7.897 48.07-.866 61.96 2.048-19.8-16.198-40.1-30.223-61.08-44.742-4.79-10.08-40.9-19.329-50-27.959 9.28 1.895 37.94 15.946 46.14 21.544 1.71 1.16 3.23 1.906 5.14 2.762l1.89-.821c.6.173 1.19.334 1.78.518 15.68 4.903 41.74 25.591 54.81 36.588 6.41 5.387 13.33 12.816 20.81 16.441l1.38-.76c1.77-9.497-6.91-24.773-9.34-34.279-8.4-32.798-5.09-76.593 23.2-98.705 14.87 22.939 19.99 45.882 14.14 72.769-4.92 22.633-16.1 42.664-25.51 63.573 73.4 61.38 133.89 170.596 169.7 258.44 7.93 19.455 13.27 39.723 20.81 59.269 3.9-5.845 15.12-38.384 18.85-47.678 25.2-62.795 40.61-129.817 36.84-197.839-1.12-20.282-5.85-40.111-7.16-60.292l-.07-1.195c-6.4-20.276-18.03-39.987-28.64-58.325-34.31-59.291-73.74-113.452-120.88-163.213-15.04 2.032-29.11 7.512-43.66 11.524-29.76 8.206-62.85 8.771-93.05 2.573-9.97-2.045-29.29-7.713-35.08-16.477l.52-2.134c8.55-8.585 25.15-14.273 36.37-18.312 47.81-17.212 78.67 2.556 120.94 22.361l11.22-3.694c-30.59-34.857-63.63-65.387-100.8-93.155-15.18 5.908-30.33 12.034-45.67 17.499-36.94 13.157-70.46 14.184-106.19-2.871 54.67-54.643 86.54-15.955 148.1-17.367-11.4-7.32-22.06-15.808-33.49-23.141-26.73-17.144-54.42-32.818-81.87-48.777-2.66 2.566-5.43 4.662-8.44 6.804.44-2.411 5.11-6.109 6.94-7.998a581 581 0 0 0-12.23-4.914c-23.15-8.989-53.81-2.87-76.02 7.056-9.92 4.435-29.2 13.36-33.22 24.037.89.865 1.68 1.42 2.85 1.842 6.17 2.218 13.44 3.375 19.92 4.332 33.36 4.926 56.89-7.987 86.28-21.433l.35.569c-29.53 20.015-61.35 28.43-96.57 21.497-4.97-.979-12.55-2.255-15.51-6.666.76-4.337 6.22-7.946 9.66-10.615 25.13-19.492 57.05-29.338 88.8-25.49-19.05-9.903-63.08-25.554-84.28-31.482-4.5-1.257-9.57-1.146-14.21-1.398-11.05-.598-20.38-3.17-30.11-8.484-17.73-9.683-29.26-24.522-34.97-43.836 11.58-.502 23-1.088 34.27 2.092 25.51 7.195 37.88 26.943 50.14 48.736 11.32 4.186 23.28 7.117 34.78 10.846 21.17 6.865 41.63 14.371 62.18 22.922a508 508 0 0 1-1-10.374c-12.05-9.602-27.66-24.916-35.56-37.972-11.14-18.389-11.97-40.459-6.91-60.856"/><path fill="#F8EFF1" d="M1264.12 647.039c4.99-1.429 10.08-2.249 15.18-3.135.19.603.36 1.208.55 1.807.75 2.323 1.79 3.334 3.54 4.967-1.24 2.172-1.99 2.046-4.19 3.051-5.41-1.475-10.15-4.091-15.08-6.69"/><path fill="#FEFEFE" d="M1037.17 189.053c-1.96-3.062-5.17-7.103-4.38-10.9 5.21-4.301 17.37-1.494 24.04-.87 23.77 8.074 39.44 18.734 50.81 42.019.53 1.081 1.03 2.172 1.55 3.26l1.62 3.402c-4.63-3.154-9.24-6.779-14.47-8.844 2.65 3.282 6.58 5.674 9.97 8.153-22.2-.916-43.46-5.535-59.15-22.69-3.72-4.073-7.18-8.78-9.99-13.53"/><path fill="#F8EFF1" d="M1037.17 189.053c-1.96-3.062-5.17-7.103-4.38-10.9 5.21-4.301 17.37-1.494 24.04-.87l-1.55 1.363c.23 3.324 1.55 9.664.21 12.535-2.56-1.102-4.12-2.868-6.02-4.82l-1.89.167-1.95 2.462c-1.15-1.556-1.95-2.987-2.84-4.697-1.81-1.062-1-.967-2.25-.952-2.13 1.82-2.42 3.183-3.37 5.712"/><path fill="#FEFEFE" d="M1168.12 152.52c10.04 5.245 18.67 13.344 25.37 22.41 15.68 21.217 18.75 44.257 14.94 69.866-10.69-5.837-22.58-21.105-29.66-31.102-13.13-18.525-14.39-39.447-10.65-61.174m195.42 367.644c4.19 4.456 6.51 11.604 8.7 17.247 15.39 39.663-2.94 72.271-18.64 108.146l-1.25.04c-1.5-8.575-4.46-16.544-6.85-24.877-5.19-18.097-6.74-35.972-4.33-54.671 2.31-17.944 7.44-34.409 22.37-45.885"/><path fill="#F2BAC4" d="M1561.91 1071.45c12.34-13.21 43.67-78.336 51.83-97.628 5.41-12.79 9.86-28.52 17.43-40.015-1.97 16.898-6.35 33.147-10.7 49.552-10.37 39.081-23.62 74.781-39.51 111.901-8.61 20.11-17.34 40.7-28.59 59.5 1.73-15.18 4.8-30.15 6.7-45.3 1.58-12.6 2.05-25.34 2.84-38.01"/><path fill="#FEFEFE" d="M1251.4 332.494c20.77-3.222 58.23 16.664 81.78 10.98.31-.077.63-.164.94-.246l.58.683c-1.69 1.521-1.03 1.25-2.91 1.91-19.41 6.787-38.07 14.619-57.87 20.615-28.93 6.687-55.65 4.39-83.11-6.666 17.29-18.201 35.54-26.619 60.59-27.276m150.22-85.02c8.87 5.656 15.71 27.625 18.39 37.426 10.2 37.361 4.65 65.645-14.28 98.526l-1.59-.365c-8.63-13.525-14.44-29.199-17.73-44.867-6.72-32.019-2.83-63.041 15.21-90.72m-67.94 167.915c29.56-5.083 66.04 15.671 92.08 27.794-19.94 6.458-38.98 12.17-59.99 14.09a88 88 0 0 1-8.75.882c-25.58 1.337-64.98-.396-85.11-18.618a137.8 137.8 0 0 1 61.77-24.148"/><path fill="#B477B5" d="M1591.7 663.969c8.03 10.349 12.09 27.035 16.61 39.349 28.81 78.529 32.42 145.525 23.45 228.147-.16 1.516-.04.952-.59 2.342-7.57 11.495-12.02 27.225-17.43 40.015-8.16 19.292-39.49 84.418-51.83 97.628-.22-23.67-3.2-46.58-9.44-69.44-2.74-10.044-6.53-19.795-8.97-29.918l-.26-1.119c3.9-5.845 15.12-38.384 18.85-47.678 25.2-62.795 40.61-129.817 36.84-197.839-1.12-20.282-5.85-40.111-7.16-60.292z"/><path fill="#FEFEFE" d="M1227.61 1622.65c44.41-70.03 95.81-133.5 151.41-194.96 10.27-11.36 21.23-22.03 31.57-33.31 5.55-6.06 20.57-27.43 26.98-29.39-45.65 87.95-81.54 181.14-100.9 278.52-4.49 22.6-4.87 45.79-9.19 68.31-32.63-30.07-65.05-61.67-99.87-89.17"/><path fill="#F2BAC4" d="M1077.95 1560.71c12.84-24.29 32-46.61 50.23-67.03 104.5-117.07 241.54-198.53 350.94-310.42 25.97-26.55 47.19-55.04 68.11-85.61l-.4.28c.31-.27 1.44-1.28 1.78-1.43.43-.2.93-.23 1.39-.34l-1.11-.92.66-.45c.61 1.82.66 3.94.89 5.84-3.19 23.36-7.91 64.32-16 85.84-4.54 12.08-12.84 24.39-19.29 35.53a1874 1874 0 0 0-30.85 54.62c-11.74 21.65-22.37 43.87-33.93 65.62-3.77 7.1-7.73 16.59-12.8 22.75-6.41 1.96-21.43 23.33-26.98 29.39-10.34 11.28-21.3 21.95-31.57 33.31-55.6 61.46-107 124.93-151.41 194.96-20.63-16.7-39.06-35.44-61.86-49.47-28.65-17.63-54.95-17.82-86.93-10.14z"/></svg>