<svg xmlns="http://www.w3.org/2000/svg" style="display:block" viewBox="0 0 2048 2048"><defs><linearGradient id="a" x1="508.559" x2="1796.06" y1="1576.95" y2="420.867" gradientUnits="userSpaceOnUse"><stop class="stop0" offset="0" stop-color="#E13671"/><stop class="stop1" offset="1" stop-color="#2D2388"/></linearGradient><linearGradient id="b" x1="1069.72" x2="1019.47" y1="970.015" y2="953.405" gradientUnits="userSpaceOnUse"><stop class="stop0" offset="0" stop-color="#87186B"/><stop class="stop1" offset="1" stop-color="#681B78"/></linearGradient></defs><path fill="#FEFEFE" d="M0 0h2048v2048H0z"/><path fill="url(#a)" d="M702.387 152.682c12.538-4.47 26.408-2.258 38.654-6.436 8.384-2.861 16.656-7.415 24.809-10.959a347 347 0 0 1 34.225-12.419 531 531 0 0 1 142.871-22.261c22.115-.288 44.593 1.552 66.634.264 19.53-1.142 38.86-5.159 58.43-6.55 61.76-4.392 133.27 1.495 189.85 28.24 4.96 2.346 10.11 5.382 15.37 6.966 10.77 3.245 23.67 2.217 34.86 3.045 14 1.036 28.38 3.677 41.92 7.333a202 202 0 0 1 44.83 18.377c8.33 4.584 16.64 10.389 25.56 13.708 10.21 3.797 21.65 5.033 32.32 7.082a221.4 221.4 0 0 1 33.92 9.313 304 304 0 0 1 70.38 37.261c13.17 9.454 25.59 20.069 39.18 28.908 16.87 10.967 35.68 17.836 53.03 27.857 34.13 19.721 71.82 53.775 97.76 83.798 9.57 11.071 19.18 23.312 26.2 36.196 6.18 11.366 10.43 24.155 18.73 34.207 9.01 10.927 19.81 20.391 29.1 31.109 32.34 37.273 58.55 79.13 75.09 125.774a352 352 0 0 1 15.05 57.181c1.34 8.036.59 16.838 2.82 24.635 2.3 8.03 9.16 17.112 13.14 24.653a292.4 292.4 0 0 1 18.22 41.244c7.41 21.537 10.24 43.269 10.95 65.924.27 8.645-.5 18.113 1.05 26.601 2.41 13.169 10.92 24.903 15.02 37.637 15.81 49.072 13.35 97.261-3.14 145.51 18.86 61.65 16.71 115.05-14.01 172.8-20.74 38.96-54.95 67.84-97.24 80.59-8.65 2.61-17.55 4.4-26.44 6.01-.42 17.42-1.35 34.46-4.12 51.69-11.55 71.65-47.3 156.34-99.89 206.75-57.9 55.51-123.36 76.45-202.41 74.46a309 309 0 0 1-13.24-.54c-7.6-.27-15.32-1.46-22.88-2.27 3.25 4.67 6.32 9.46 8.19 14.87 9.8 28.36-.43 58.98-13.17 84.59 9.18 14.93 16.87 31.01 25.03 46.53l40.75 76.89c20.46 38.3 43.57 75.5 62.86 114.38 1.02 2.08 1.7 4.05 1.66 6.41-.04 1.73 0 1.18-1.41 2.39l.29-.87c-.43.36-.8.81-1.29 1.09-4.57 2.7-118.67 1.59-129.6.01-10.89-15.09-19.85-35.95-29.44-52.48-42.67-73.59-94.24-174.21-157.18-230.36-20.05-17.88-44.13-35.67-67.64-48.63-22.3-12.3-46.4-20.96-65.87-37.92-30.59-26.67-29.02-64.26-62.45-82.04-25.68-13.66-55.73-7.21-83.56-8.05a167.9 167.9 0 0 1-51.556-9.43c-11.933-4.27-23.487-9.87-33.352-17.91l-1.081-.9c-36.24 25.35-63.984 42.13-108.187 51.6-51.155 10.97-112.413 4.67-155.282-27.57-13.99-10.52-26.157-26.3-39.31-35.35-10.322-7.09-23.499-10-34.228-17-38.941-25.39-59.502-63.9-68.772-108.37a432 432 0 0 1-13.909 2.98c-52.442 9.91-97.424-.08-140.906-30.12-52.411-.24-89.13-4.68-133.7-35.04-16.854-11.48-33.649-27.62-45.455-44.35-5.343-7.58-9.721-16.06-15.564-23.25-10.672-13.13-25.355-23.51-36.633-36.47-33.405-38.4-56.841-91.8-65.925-141.88a419.1 419.1 0 0 1 16.996-211.117c5.454-15.832 13.931-30.309 19.359-45.921 3.473-9.99 1.489-31.504 2.627-43.021 1.898-19.191 7.537-39.107 13.911-57.194 22.704-64.428 65.536-121.169 111.987-170.378 14.416-15.272 31.707-29.213 44.69-45.627 9.082-11.48 13.66-26.877 22.212-39.17 30.067-43.223 72.157-79.707 116.992-106.779 11.924-7.2 25.766-11.856 37.178-19.433 6.191-4.109 11.895-10.591 17.354-15.67 7.894-7.344 16.036-14.166 24.697-20.587 55.481-41.134 133.789-80.508 202.084-92.541"/><path fill="#862B7C" d="m724.212 1068.97-1.776-1.59.18-2.06c3.398-5.24 10.03-17.75 15.432-20.09l1.692 1.65c-1.003 2.26-5.078 9.87-4.324 11.87-1.747 1.76-3.317 3.74-5.053 5.48-.127.12-.302.19-.453.28z"/><path fill="#631D76" d="M624.976 460.182c1.202-1.041 1.565-2.001 3.285-1.74 2.286.348 5.245 2.173 6.347 4.268.131.25.187.532.281.798-6.681 6.302-9.558 15.961-14.382 23.591l-.689-.804c.086-1.841.343-2.607 1.269-4.242 1.811-3.199 3.932-6.676 5.153-10.151.687-1.954 1.083-3.378.275-5.337l-1.949-.277c-4.312 5.423-6.589 13.792-10.112 19.943l-1.874-.377c3.644-8.77 8.762-16.868 12.396-25.672M1055.52 734.88c6.17-2.244 10.92-3.197 17.38-1.718l1.48 1.752-.29 1.309c-1.67 5.874-2.88 23.432.08 28.877.22.998.13.274-.57 2.114-3 1.022-5.78 1.351-8.75-.108-1.57-.774-1.28-1.486-1.69-3.05 2.53-7.317 1.57-18.865.94-26.687-1.61-2.134-5.89-2.072-8.58-2.489"/><path fill="#A82373" d="M382.498 567.784c1.374-1.291.982-1.092 2.203-1.816 7.683-4.553 14.55-11.507 22.394-15.474 4.233-2.141 9.242-2.282 13.483-4.457 11.281-5.788 21.954-12.89 33.108-18.94 38.611-20.943 77.507-41.441 115.798-62.942l1.123 1.275c-13.354 9.561-29.983 16.558-44.425 24.531-36.304 20.041-72.769 39.688-108.866 60.1-10.636 6.014-23.236 11.235-33.062 18.262z"/><path fill="#FEFEFE" d="M1327.81 1521.91c12.06 10.54 23.14 22.13 35.52 32.33 21.27 17.54 44.43 33.02 66.92 48.96-3.73-.25-7.38-1.65-10.9-2.86-37.98-12.99-73.78-41.92-91.54-78.43m611.11-664.183c.43.39.91.731 1.29 1.172 14.35 16.607 18.6 62.975 19 84.007l-8.37-9.313a930 930 0 0 1-30.7-33.205c5.21-14.907 11.62-28.635 18.78-42.661"/><path fill="#A82373" d="m702.789 702.768 1.496 2.267c-1.619 1.176-1.735 1.001-3.616 1.247-7.193.939-11.847 7.574-18.778 9.735-2.103.656-2.107.729-3.06 2.749-1.396 2.959-2.512 6.094-3.705 9.141l.742 1.338 2.565.275c1.336 2.164-.523 3.2 1.132 4.428.39 2.519.248 3.767 1.893 5.824l.383-2.637.419 2.148c1.692-1.539 3.466-3.855 5.708-4.302 2.202 5.924-1.219 12.239.634 16.806l1.374.109.364 1.584-2.405 2.415.166 1.778 1.626.218c2.01 5.285.632 17.938-1.731 23.022-.952 2.048-1.318 2.027-3.057 3.23l-5.696-1.192-.81.868.621 1.457-.141.932-1.631 1.11c2.768 6.048 16.466 10.7 22.476 12.944 3.253 1.214 3.927 1.217 7.284.015 2.836-1.015 3.856-.745 6.627.3 4.912 1.851 11.438-.446 15.859-2.714 10.531-5.405 22-14.114 26.003-25.633 3.284-9.448-7.107-30.455 3.117-35.935 3.326-1.783 7.001-3.037 10.535-4.337l1.827.743c-4.348 2.713-9.321 4.285-14.1 6.087-3.451 6.781-.059 19.816.828 27.304-1.638 11.126-6.767 19.853-15.78 26.676a52.9 52.9 0 0 1-28.732 10.582c-2.801-.365-5.438-.092-8.245.087-.376-.037-.755-.056-1.128-.113-13.285-1.998-25.937-10.709-33.829-21.229l2.378-.694c.058-1.005.148-1.806-.01-2.832-.454-2.959-1.784-4.098-3.941-5.841l-3.058 1.42c-1.369-2.96-2.431-6.471-3.153-9.661-2.74-12.107-1.084-24.855 5.596-35.372l2.151 1.35 2.379-.897c2.087-2.423 2.634-3.801 3.372-6.916l-1.658-2.565c5.698-5.878 11.462-10.155 19.137-13.103 3.369-1.294 6.638-2.007 9.572-4.216"/><path fill="#FEFEFE" d="M1706.85 1393.14c17.24-.35 52.63 14.35 70.04 20.62-2.56 6.66-7.12 22.51-12.46 26.69-1.31 1.02-3.17.33-4.73.18-19.68-2.77-42.16-6.35-60.52-13.9-5-2.06-11.16-5.26-13.07-10.74-1.26-3.59-.25-7.45 1.56-10.65 4.14-7.34 11.44-10.15 19.18-12.2m205.88-486.491c.26.056.54.075.79.168 3.86 1.408 43.22 45.488 46.78 51.329-42.41 5.294-84.61 16.352-126.52 24.75l-42.2 9.206c39.42-29.837 81.67-55.795 121.15-85.453m-56.43-55.782c5.16.407 43.3 41.902 51.14 49.086-22.15 17.186-46.89 30.904-70.36 46.202-10.96 7.424-23.9 11.008-36.11 15.914 7.85-33.615 17.79-66.728 26.43-100.155 10.81-2.038 19.44-5.453 28.9-11.047M442.873 404.298c6.432-13.544 12.804-27.153 17.964-41.244 7.72-21.084 16.912-65.522 31.82-80.137 35.949-35.24 84.588-63.069 130.855-82.049 6.318-2.591 15.634-7.825 22.365-7.716a2596 2596 0 0 1-62.837 69.174c-15.483 16.216-31.864 31.68-46.98 48.226-9.479 8.001-18.236 17.274-27.157 25.908-22.785 22.049-44.705 44.355-66.03 67.838M1895.3 691.602c6.37 6.378 12.13 17.966 16.2 26.062 14.32 28.492 20.83 58.939 21.93 90.643.56 16.287.36 32.563 2.52 48.742-9.56 9.972-15.71 25.14-20.86 37.778a497 497 0 0 0-15.29-16.467 2549 2549 0 0 1-34.48-34.766c13.48-13.23 20.15-29.222 20.57-48.07.53-23.289-10.55-38.835-25.87-55.1 14.01-15.337 24.76-31.016 35.28-48.822M450.362 310.889c.559.159.936.69 1.379 1.067-17.516 36.999-37.861 72.984-57.686 108.799-20.38 36.818-39.955 72.998-63.34 108.073l-5.169-16.815c-6.38-17.772-11.996-36.791-20.786-53.533 4.629-10.955 8.954-22.455 15.169-32.619 6.639-10.859 15.345-20.713 23.752-30.245 30.788-34.903 65.416-63.095 106.681-84.727m1183.358-8.857c28.15 10.609 83.1 62.083 100.55 87.184-12.99 17.371-28.84 33.745-43.49 49.723a771 771 0 0 0-32.25 36.858c-10.35-8.616-19.31-12.263-32.61-14.074l4.57-98.829c.85-20.157.55-40.867 3.23-60.862"/><path fill="#FEFEFE" d="M1711.03 1353.12c23.06-1.41 56.9 13.57 79.59 20.51a1063 1063 0 0 1-10.34 32.4c-22.3-8.35-58.54-26.5-81.64-20.32-7.52 2.01-13.92 6.23-17.63 13.21-3.68 6.93-4.39 14.52-1.71 21.92 8.7 23.98 60.41 19.61 80.43 29.22.37 2.74-.71 3.97-1.86 6.4-4.86 8.85-10.39 17.13-16.02 25.48-26.52-6.31-56.57-7.78-82.9-.02.09-5.11.14-9.7-1.68-14.59-8.74-23.45-29.41-21.51-48.08-30.91-3-1.51-5.89-3.68-6.85-7.05-.89-3.12-.36-5.88 1.27-8.62 8.47-14.24 70.46-51.43 87.51-60.02 6.51-3.28 12.87-5.71 19.91-7.61M207.681 1200.09a12042 12042 0 0 1 207.387 55.72c35.34 9.62 70.804 20.53 106.694 27.87-.065 5.41 1.473 14.09-.689 18.93-.619 1.39-2.009 1.35-3.342 1.79-38.184 9.39-78.832 8.03-114.264-10.2-10.594-5.46-19.983-12.76-30.299-18.68-35.507 3.39-66.923-.14-99.704-14.89-22.902-10.31-56.586-36.32-65.783-60.54m873.979-341.132c2.69-.647 4.51-1.388 7.26-.671 11.08 19.136 20.11 39.747 30.42 59.351 11.5 21.864 25 43.791 34.87 66.364-27.67 31.398-74.08 67.028-114.08 80.108 1.17-15.52 4.53-31.34 6.62-46.79 6.98-51.474 15.83-103.241 20.94-154.882 4.58-.756 9.85-1.288 13.97-3.48M771.01 732.701c22.512-7.398 44.796-19.938 66.526-29.592 44.174-19.625 88.618-38.341 132.557-58.532 1.547 10.431 4.241 19.928 8.61 29.545 2.165 4.768 5.921 10.011 6.87 15.13l-2.87 4.063c-25.495 26.74-51.036 53.65-77.084 79.842-32.502-6.967-65.417-12.084-98.198-17.553-13.777-2.299-28.045-3.966-41.641-7.071-3.012-.688-4.78-.903-7.081-3.03l-1.789-6.715c4.779-1.802 9.752-3.374 14.1-6.087m253 372.369 1.25 1.44c-2.4 22.74-5.79 45.41-8.64 68.1-2.6 20.77-4.62 41.81-8.18 62.42-15.473-.24-24.16 2.88-36.298 12.48-23.836-17.35-45.712-38.46-68.587-57.18-17.364-14.37-43.761-32.55-58.663-48.21 22.439-11.68 53.493-13.29 78.311-17.3 33.866-5.47 68.311-10.44 100.807-21.75m931.94-15.24 1.48.55c.21 1.29.31 1.58.3 3.07 0 10.35-2.25 22.14-4.46 32.19-7.77 35.37-21.92 62.43-47.37 88.16-18.83-17.76-39.55-33.77-57.76-52.1 12.93 20.64 34.81 40.93 51.92 58.23-19.71 17.7-45.98 27.57-72.09 30.06-32.77 4.99-70.59-1.92-101.22-13.84 14.16-13.08 34.43-24.28 50.62-35.12a4190 4190 0 0 1 178.58-111.2m-354.96-241.432c1.19.058.49-.108 1.88 1.043.85 13.347-.49 27.445-.72 40.863a3095 3095 0 0 1-3.23 102.3c-10.79.238-19.39 2.664-29.42 6.484-25.49-17.189-50.13-36.273-74.92-54.5-19.25-12.977-36.62-28.68-56.22-41.274 2.1-8.843 3.21-17.693 3.9-26.743 17.45-3.46 35.16-5.893 52.66-9.116a3984 3984 0 0 1 106.07-19.057m138.73-452.828c12.52 8.686 54.41 100.799 62.69 119.701 3.22 7.343 5.56 14.981 8.85 22.292.76-10.979-15.25-56.579-20.13-67.739 30.26 32.534 54.22 67.38 72.8 107.713l3.63 8.727c-41.28-15.166-82.91-28.847-124.7-42.492-23.81-7.771-47.22-16.134-71.39-22.795 1.89-15.237-1.01-25.195-7.9-38.696 25.51-28.688 51.71-57.124 76.15-86.711M297.706 465.819c4.393 4.39 22.149 58.469 25.106 67.138-4.3 1.118-8.668 2.296-12.849 3.8-14.569 5.243-26.513 16.691-32.965 30.666-8.667 18.773-6.129 36.332.676 55.12-17.696 10.464-34.543 23.2-51.476 34.904-24.858 17.183-50.039 33.985-73.726 52.773l-18.888 15.833c3.203-17.853 6.978-35.407 12.857-52.61 20.637-60.392 61.96-118.116 105.552-164.081 14.475-15.263 30.177-29.376 45.713-43.543M1775.71 1004.14c1.43-.16.52-.16 2.7.5 1.1 11.07-21.08 78.8-25.92 96.81-7.94 29.53-15.22 59.22-23.34 88.71-3.52 12.79-6.66 25.89-11.13 38.38a3941 3941 0 0 0-28.47-52.95 2961 2961 0 0 1-36.28-61.5c-7.36-12.72-15.34-25.51-21.83-38.69a115 115 0 0 0 3.59-3.59c9.63-10.17 12.59-23.15 12.18-36.75 43.06-7.97 85.98-20.26 128.5-30.92m-802.877 320.14c6.94 4.67 13.911 8.8 22.139 10.74 16.358 3.87 31.128-1.43 44.778-10.07 16.24 11.52 33.82 23.95 47.83 38.09-16.52 5.36-32.36 13.02-48.84 18.63a354.7 354.7 0 0 1-157.989 16.7c11.031 4.35 53.174 14.45 58.618 20.07-5.393 11.42-19.013 22.4-28.588 30.3-43.938 36.26-101.812 52.01-158.142 46.53 6.284-5.61 13.431-10.46 20.101-15.62l44.767-34.63zM821.429 141.437c4.642-1.92 9.607-3.233 14.405-4.722-.802 36.956-.774 73.918-1.944 110.866-.392 12.379.511 26.648-1.273 38.779-.248 1.687-.815 2.223-1.993 3.357-12.411-.645-25.652 6.729-34.713 14.773-11.352 10.08-21.088 26.625-22.122 42.033-.666 9.92 1.081 20.788 3.51 30.384-.865 1.595-1.027 1.683-2.505 2.559-12.2.379-58.823 16.963-72.511 21.496-4.705-12.797-10.065-21.521-20.435-30.525 12.087-23.972 26.529-47.141 40.124-70.305a3023 3023 0 0 1 99.457-158.695m540.981 27.94c18.93 8.863 36.86 18.884 53.52 31.613 12.99 9.922 25.25 21.352 38.99 30.188a1371 1371 0 0 0-32.97-34.851c70.54 13.523 99.07 29.265 154.72 74.583-19.12 5.887-141.9 49.094-148.81 48.258-.55-2.146-1.09-3.266-2.45-5.076-12.45-16.612-33.06-27.98-53.46-30.837-3.02-.342-7.32-.303-9.81-2.053-1.2-14.031-.23-28.675-.19-42.784.07-23.004-.24-46.047.46-69.041"/><path fill="#FEFEFE" d="m844.165 134.158 1.967-.16c8.921-.794 18.101-3.261 26.922-4.913a342 342 0 0 1 38.924-5.128c35.054-2.651 70.102-.21 105.152-2.438-29.309 19.95-65.636 42.377-101.537 45.809-1.667.159-2.09-.365-3.06 1.178l2.006.368.446-.884c.517.192 1.006.49 1.55.578 2.562.415 6.882-.552 9.602-.815 26.786-2.595 50.851-10.619 76.053-19.498-15.636 14.202-29.473 30.151-43.66 45.766l-59.767 65.474c-8.747 9.417-26.323 23.611-32.36 33.346-7.301.198-15.634-4.102-23.566-4.569l.21 2.193c-1.769 1.76-2.97 2.521-5.582 2.492-2.52-.028-4.81-.569-6.47-2.537-.171-.202-.247-.468-.371-.703 1.178-1.134 1.745-1.67 1.993-3.357 1.784-12.131.881-26.4 1.273-38.779 1.17-36.948 1.142-73.91 1.944-110.866 2.549-1.706 5.377-2.006 8.331-2.557"/><path fill="#631D76" d="M835.834 136.715c2.549-1.706 5.377-2.006 8.331-2.557-.894 33.301-.848 66.603-1.649 99.899-.306 12.761-2.643 39.324-1.094 50.729.211 1.547.424 2.347 1.415 3.486l.21 2.193c-1.769 1.76-2.97 2.521-5.582 2.492-2.52-.028-4.81-.569-6.47-2.537-.171-.202-.247-.468-.371-.703 1.178-1.134 1.745-1.67 1.993-3.357 1.784-12.131.881-26.4 1.273-38.779 1.17-36.948 1.142-73.91 1.944-110.866"/><path fill="#FEFEFE" d="M871.744 298.973c36.084-35.803 69.973-73.913 104.502-111.201 11.778-12.719 23.016-29.638 36.644-40.238 7.31-5.686 18.48-8.796 26.81-13.4.68 28.528 4.11 57.035 6.4 85.474 1.15 14.327.78 30.064 3.64 44.032.17 3.393 1.29 8.359-1.09 11.088-8.52 9.792-11.41 7.091-16.3 21.241a1681 1681 0 0 0-103.166 27.656c-4.846 1.418-27.21 9.555-30.758 6.749-.502-.397-.918-.892-1.376-1.337-.048-1.031-.006-1.341-.382-2.452-3.247-9.602-15.692-23.608-24.924-27.612m-189.193 157.94c11.185 4.644 113.537 171.249 130.682 195.808-10.317 18.229-24.055 32.708-38.657 47.471-7.791 7.624-16.724 14.108-25.31 20.803-.35-.45-.694-.906-1.05-1.351-9.442-11.804-22.41-14.828-36.685-16.14-6.444-22.712-9.898-47.418-14.674-70.612l-33.486-167.075c6.742-2.575 12.996-5.15 19.18-8.904M327.057 1105.95c28.32 24.26 56.881 48.41 84.817 73.09 36.995 32.7 73.038 65.45 112.403 95.33-12.362-2.21-24.809-6.66-36.928-10.03a4098 4098 0 0 0-77.572-21.07l-138.422-37.08c-25.981-6.89-55.185-11.47-79.49-22.87 6.977-10.51 16.237-20.03 24.479-29.6 12.146-14.11 24.097-28.5 36.749-42.15 10.247 6.09 19.965 10.03 32.048 10.39 16.205.47 30.084-4.88 41.916-16.01m1242.803-22.92 2.99 1.38c2.04-1.32 1.77-1.27 2.71-3.28l.62.17-.86.99 2.05.56c.49 2.06.64 1.18-.01 2.68l1.17.06c17.56 2.83 28.87 3.16 45.54-4.93a9806 9806 0 0 1 59.39 103.95c8.84 15.44 17.35 31.27 26.91 46.27-29.7-.28-59.38-.89-89.07.55-25.06 1.21-49.9 4.11-74.78 7.23-14.99 2.18-29.91 5.45-44.75 8.49 11.78-14.54 21.36-28.82 28.43-46.19-1.08-1.35-.34-.81-2.44-1.27-1.1 1.74-2.09 3.18-3.6 4.6-1.64 1.54-1.31 1.17-3.34 1.13-5.9-5.44-5.32-11.97-6.95-19.32-1-4.49-3.15-5.31-6.8-7.64l.23-1.66-2.04-.81 1.9-.77c-1.73.9-1.41.44-2.35 1.8-1.75 2.53-3.3 4.82-5.33 7.15l-1.83-.28c4.64-9.37 13.82-19.31 19.99-28.04 17.2-24.37 33.69-49.43 52.22-72.82"/><path fill="#631D76" d="m1569.86 1083.03 2.99 1.38c2.04-1.32 1.77-1.27 2.71-3.28l.62.17-.86.99 2.05.56c.49 2.06.64 1.18-.01 2.68l1.17.06c-1.04 5.57-3.69 10.57-6.11 15.65-9.26 19.5-18.44 38.73-26.43 58.8-5.25 13.2-9.5 28.29-15.79 40.92-1.08-1.35-.34-.81-2.44-1.27-1.1 1.74-2.09 3.18-3.6 4.6-1.64 1.54-1.31 1.17-3.34 1.13-5.9-5.44-5.32-11.97-6.95-19.32-1-4.49-3.15-5.31-6.8-7.64l.23-1.66-2.04-.81 1.9-.77c-1.73.9-1.41.44-2.35 1.8-1.75 2.53-3.3 4.82-5.33 7.15l-1.83-.28c4.64-9.37 13.82-19.31 19.99-28.04 17.2-24.37 33.69-49.43 52.22-72.82"/><path fill="#FEFEFE" d="M860.931 414.898c5.587-1.879 10.825-4.282 16.159-6.768 28.4 24.664 53.42 54.894 79.631 81.984 15.121 15.627 44.689 42.252 56.179 58.794-4.37 3.32-8.71 6.916-12.67 10.708-21.876 20.959-30.011 46.506-30.702 76.149-59.94 24.731-119.457 51.609-178.365 78.686 7.88-7.604 17.041-14.054 25.201-21.404 23.541-21.203 43.906-46.986 56.281-76.29 23.426-55.47 18.473-126.637-4.175-181.848-2.222-6.739-5.01-13.377-7.539-20.011m-251.15 30.369c4.469 5.733 9.29 10.66 15.195 14.915-3.634 8.804-8.752 16.902-12.396 25.672-17.04 27.109-31.182 56.394-46.394 84.544-15.181 28.094-31.698 55.537-47.41 83.342-43.448-18.206-86.833-37.407-130.896-54.053 1.764-10.965.019-20.968-3.626-31.364 9.826-7.027 22.426-12.248 33.062-18.262 36.097-20.412 72.562-40.059 108.866-60.1 14.442-7.973 31.071-14.97 44.425-24.531 13.356-5.277 25.971-14.081 39.174-20.163m544.129 247.05c20.19 14.036 39.42 29.831 58.88 44.87L1288 794.5c16.11 12.412 45.46 31.65 58.6 45.38-3.9 4.439-10.36 10.272-12.02 16.075 1.45 5.753.24 10.859-1.78 16.331l-1.51 1.362c-.83-1.543-1.36-2.724-1.88-4.42-23.01-4.457-45.79-10.081-68.69-15.065a8317 8317 0 0 0-92.7-19.618c-14.64-3.162-41.17-11.495-55-11.599l-1.81-.508c-.27-.963-.6-1.919-.58-2.941.05-2.285.72-4.138 2.38-5.659l1.28.423c.4-1.881.74-3.836.79-5.761.24-11.209-6.38-23.405-14.28-30.989-6.48-6.221-17.33-12.508-26.63-12.411-2.96-5.445-1.75-23.003-.08-28.877 3.09.306 6.3-.063 9.38-.453 29.03-3.667 52.89-20.786 70.44-43.453"/><path fill="#631D76" d="m1113.02 822.946-1.81-.508c-.27-.963-.6-1.919-.58-2.941.05-2.285.72-4.138 2.38-5.659l1.28.423c5.35 3.502 50.34 10.621 59.86 12.523a3655 3655 0 0 1 62.21 12.756c13.2 2.938 87.76 21.554 94.5 20.99 2.29-1.497 2.49-2.086 3.72-4.575 1.45 5.753.24 10.859-1.78 16.331l-1.51 1.362c-.83-1.543-1.36-2.724-1.88-4.42-23.01-4.457-45.79-10.081-68.69-15.065a8317 8317 0 0 0-92.7-19.618c-14.64-3.162-41.17-11.495-55-11.599"/><path fill="#FEFEFE" d="M634.889 463.508c5.989 3.259 13.126 3.08 19.786 3.374l31.818 157.746c5.228 25.96 9.605 52.527 16.296 78.14-2.934 2.209-6.203 2.922-9.572 4.216-7.675 2.948-13.439 7.225-19.137 13.103-17.452-7.94-35.311-14.95-52.922-22.523l-93.153-40.521c6.544-14.526 15.833-28.444 23.55-42.449 23.194-42.094 48.313-84.123 68.952-127.495 4.824-7.63 7.701-17.289 14.382-23.591M1310.7 302.139l-2.76.728c-2.97-.693-5.41-2.858-7.78-4.704-8.79-6.821-17.01-14.555-25.67-21.577a3300 3300 0 0 0-65.35-50.962c-37.99-28.585-76.77-57.952-116.65-83.768-10.54-6.827-21.94-12.121-32.59-18.744l.38-1.244c1.25-.856 1.19-.89 2.85-1.577 7.25-3 18.22-2.894 26.15-3.43 53.93-3.647 113.92 5.662 163.18 28.433-22.19 3.755-58.91 8.322-78.5 17.214 44.9-4.455 98.87-12.493 143.22-6.082 12.72 1.838 24.8 5.403 36.96 9.404a3275 3275 0 0 0-.15 76.553c.04 11.653.76 23.735-.09 35.335-.24 3.346-.44 4.098-2.98 6.31-10.8-1.772-27.97 7.616-36.54 13.903-1.72 1.261-2.85 2.187-3.68 4.208m358.88 226.478c47.63 14.466 95.08 30.748 142.21 46.805 19.57 6.667 39 14.278 58.78 20.248 11.1 22.878 18.25 51.445 20.03 76.891 1.31 18.803-14.32 36.604-25.85 50.06l-12.16 13.08c-1.64-.778-3.32-1.494-4.99-2.212-20.58-8.865-39.53-7.529-60.07.63-9.07-13.719-17.43-27.916-26.45-41.675-19.02-29.018-38.89-57.572-58.4-86.27-14.01-20.607-27.6-42.075-43.08-61.599 3.77-5.065 6.83-10.493 9.98-15.958m-621.42-401.006c19.15 8.107 38.1 20.706 55.37 32.245 22.18 14.821 190.45 137.347 195.18 149.145.46 1.161-.17 2.383-.73 3.41-.57 1.07-1.77 2.296-2.52 3.2-4.91 4.902-8.19 10.956-11.4 17.038l1.66 1.357c.08 2.779-.06 3.227-1.4 5.675-1.88.895-1.06.868-2.33.73-12.7-4.953-47.81-9.289-62.7-12.047-45.18-8.367-90.3-17.852-135.62-25.421-1.91-.32-2.74-.34-4.53.354-.68-.328-1.37-.602-1.91-1.155-1.51-1.522-1.71-3.17-1.67-5.182 1.51-2.631 1.77-2.576 4.6-3.766-3.66-7.166-8.69-13.287-16.13-16.761-.07-.033-1.99-.875-2.14-.967-2.76-1.692-2.37-2.553-2.9-5.631l-7.91-90.408c-1.38-17.01-3.55-34.78-2.92-51.816"/><path fill="#631D76" d="M1080.16 293.194c23.58 5.227 47.34 8.989 71.06 13.475l75.69 14.983c18.96 3.606 38.47 6.154 57.15 10.997l1.66 1.357c.08 2.779-.06 3.227-1.4 5.675-1.88.895-1.06.868-2.33.73-12.7-4.953-47.81-9.289-62.7-12.047-45.18-8.367-90.3-17.852-135.62-25.421-1.91-.32-2.74-.34-4.53.354-.68-.328-1.37-.602-1.91-1.155-1.51-1.522-1.71-3.17-1.67-5.182 1.51-2.631 1.77-2.576 4.6-3.766"/><path fill="#FEFEFE" d="M740.432 397.34c14.178-3.183 27.852-8.958 41.764-13.148 11.963 17.451 28.015 30.086 49.254 33.899 6.868 1.233 12.962.792 19.812.129 1.243 5.233 2.218 10.84 3.863 15.943 14.765 73.894 4.307 147.691-37.634 211.084-22.788-35.832-44.582-72.204-67.934-107.715l-34.633-52.251c-7.859-11.622-16.219-22.939-23.5-34.936 9.358-13.627 12.744-24.46 12.52-40.978 11.941-4.604 24.467-7.606 36.488-12.027m628.798 49.332c.62 0 1.25.036 1.87.001 23.46-1.332 43.47-18.475 57.95-35.379a1579 1579 0 0 0 85.74 46.606c14.58 7.528 51.82 24.455 62.11 33.155-.07.082-.14.161-.2.248-6.75 9.765-4.11 25.776-2.22 36.77-16.41 8.087-32.39 17.181-48.64 25.601l-133.57 68.527c-5.71-4.975-10.89-7.552-18.05-9.696a4972 4972 0 0 0-3.51-101.562c-.82-21.291-2.2-42.978-1.48-64.271m581.51 522.645 5.61-.592c5.49 18.494-66.82 121.945-75.66 151.025a3143 3143 0 0 0 63.49-95.78c7.57 17.65 12.16 35.3 12.85 54.57-39.36 25.67-80.4 49.31-120.47 73.93a5299 5299 0 0 0-107.77 69.87c19.34-73.77 40.98-147.03 60.16-220.85a5325 5325 0 0 1 161.79-32.173"/><path fill="#FEFEFE" d="M1585.29 276.911c13.18 7.031 26.77 13.469 39.85 20.643-2.57 54.469-4.26 109.102-7.9 163.505-14.75 3.691-27.3 8.433-36.2 21.717l1.33 1.215c-.72 3.141-1.1 4.49-3.41 6.908l-2.06.156c-10.29-8.7-47.53-25.627-62.11-33.155a1579 1579 0 0 1-85.74-46.606c.33-2.584 2.08-5.107 3.43-7.271 3.77-5.21 6.36-12.004 8-18.224 4.88-18.492 2.95-41.732-6.81-58.407 14.52-7.316 37.27-12.692 53.52-17.912z"/><path fill="#631D76" d="M1429.05 411.294c.33-2.584 2.08-5.107 3.43-7.271 30.42 16.777 61.29 32.633 91.89 49.066 18.39 9.878 37.37 21.962 56.67 29.687l1.33 1.215c-.72 3.141-1.1 4.49-3.41 6.908l-2.06.156c-10.29-8.7-47.53-25.627-62.11-33.155a1579 1579 0 0 1-85.74-46.606"/><path fill="#FEFEFE" d="M1035.85 1100.95c52.58-19.22 94.12-54.96 128.41-98.35 10.88 24.09 21.34 49.14 34.39 72.12l3.75 9.32c-17.21 12.8-29.5 27.94-32.78 49.73a59.16 59.16 0 0 0 11.25 44.51c5.7 7.62 13.31 13.96 21.6 18.59 2.37 1.32 6.35 2.47 6.72 5.22l-1.3 2.04c-10.36 1.86-22.04 8.97-31.8 13.22-40.86 17.79-81.05 36.95-121.43 55.79a142 142 0 0 0-3.3-6.69c-7.78-14.86-19.06-22.69-34.75-27.66 6.27-45.84 10.8-92.36 19.24-137.84m-201.231 47.84c6.966 1.67 115.504 94.74 130.68 107.8-5.645 10.23-8.064 19.14-8.734 30.67l-188.273 26.39a8911 8911 0 0 1-114.795 15.73c3.593-11.91 10.035-23.32 16.45-33.91 38.295-63.22 104.073-106.92 164.672-146.68m337.721-507.82c36.18-.238 72.76.889 108.96 1.59 18.3.354 36.85 1.271 55.12.412 7.07-1.521 9.8-1.447 16.52 1.576 1.32-1.18.98-.464 1.18-2.078 1.08 1.882 1.57 3.269 1.95 5.407 2.86 3.471 7.07 5.4 11.53 5.903 4.74.533 11-.939 14.43 2.848.35.393.67.822 1 1.234-1.26.636-3.4 1.152-3.87 2.568-1.13 3.383 5.05 157.113 7.32 162.24.39.867.67.994 1.36 1.642l-.52 2.875c-5.09 2.102-12.35.523-17.6-.793-5.96 1.457-11.46 3.872-16.63 7.193l1.2 1.858c-.85 2.28-1.37 3.282-3.82 4.341-1.29.561-2.57.443-3.87.094-13.14-13.73-42.49-32.968-58.6-45.38l-75.21-57.313c-19.46-15.039-38.69-30.834-58.88-44.87-.07-.316-.16-.626-.19-.946-.22-2.519 1.07-4.752 2.72-6.546 1.5-1.638.67-1.246 2.75-1.326l.05 1.971c7.87-13.833 11.6-28.766 13.1-44.5"/><path fill="#631D76" d="M1336.42 642.972c7.07-1.521 9.8-1.447 16.52 1.576 1.32-1.18.98-.464 1.18-2.078 1.08 1.882 1.57 3.269 1.95 5.407 2.86 3.471 7.07 5.4 11.53 5.903 4.74.533 11-.939 14.43 2.848.35.393.67.822 1 1.234-1.26.636-3.4 1.152-3.87 2.568-1.13 3.383 5.05 157.113 7.32 162.24.39.867.67.994 1.36 1.642l-.52 2.875c-5.09 2.102-12.35.523-17.6-.793 2.61-.614 4.68-1.17 7.01-2.599 2.62-16.076-.83-38.121-1.69-54.789l-5.2-108.975c-6.24-1.642-10.21-2.766-14.52-7.705-2.16-2.473-4.34-5.218-6.8-7.394-2.99-2.655-8.29-1.974-12.1-1.96m-182.51 49.345c-.07-.316-.16-.626-.19-.946-.22-2.519 1.07-4.752 2.72-6.546 1.5-1.638.67-1.246 2.75-1.326l.05 1.971c9.32 7.849 19.49 14.863 29.2 22.244 25.05 19.049 50.6 37.623 75.46 56.883l59.91 47.023c9.41 7.327 19.01 15.982 29.28 21.967l1.2 1.858c-.85 2.28-1.37 3.282-3.82 4.341-1.29.561-2.57.443-3.87.094-13.14-13.73-42.49-32.968-58.6-45.38l-75.21-57.313c-19.46-15.039-38.69-30.834-58.88-44.87"/><path fill="#FEFEFE" d="M1395.97 629.461c61.28-30.122 121.14-63.032 182.33-93.34 4.09 5.929 8.91 11.202 13.68 16.582 1.83.984 2 1.403 4.15 1.222l2.46 2.512-.17 1.152-2.32 1.121-.47 1.369 1 1.079c-14.46 21.013-27.12 43.336-40.75 64.897a6475 6475 0 0 1-91.62 142.637c-7.35 11.099-42.95 61.708-44.05 68.546l-1.8 1.089c-2.41-.093-4.51-.815-6.26-2.541-1.98-1.949-2.33-3.153-2.24-5.831-7.02-4.043-14.17-4.969-22.07-5.643-.69-.648-.97-.775-1.36-1.642-2.27-5.127-8.45-158.857-7.32-162.24.47-1.416 2.61-1.932 3.87-2.568 2.95-1.07 5.83-3.421 7.88-5.788 5.48-6.343 5.5-14.755 5.06-22.613"/><path fill="#631D76" d="M1591.98 552.703c1.83.984 2 1.403 4.15 1.222l2.46 2.512-.17 1.152-2.32 1.121-.47 1.369 1 1.079c-14.46 21.013-27.12 43.336-40.75 64.897a6475 6475 0 0 1-91.62 142.637c-7.35 11.099-42.95 61.708-44.05 68.546l-1.8 1.089c-2.41-.093-4.51-.815-6.26-2.541-1.98-1.949-2.33-3.153-2.24-5.831l2.55-.281c7.53-6.144 30.38-43.427 36.75-53.178a18161 18161 0 0 0 102.32-158.929c13.61-21.299 25.77-44.41 40.45-64.864"/><path fill="#FEFEFE" d="m1752.99 819.317 3.1-.525c.55.273 1.21.389 1.65.819.34.341 8.34 16.754 12.09 21.19 13.14 15.547 29.84 19.725 49.25 21.403-5.75 22.628-12.49 44.972-18.67 67.481-3.43 12.476-6.02 25.165-9.96 37.493a2030 2030 0 0 0-126.17 39.512l-26.06 9.25c-8.47-11.36-17.69-17.695-31.32-21.636.48-24.929 2.1-49.87 2.73-74.806.62-24.398.02-49.032 2.41-73.331 46.78-10.04 93.98-17.769 140.95-26.85m-156.36-258.159c3.19-2.316 3.96-2.554 7.84-1.765 3.3.671 6.28 1.795 9.66 2.215l-7.12 191.894c-1.14 28.636-1.33 57.391-3.37 85.979a7468 7468 0 0 0-110.28 19.758c-17.4 3.142-35.01 5.579-52.33 9.033-3.76-11.328-9.03-25.174-20.41-30.854-.13-.066-.27-.12-.41-.18 1.1-6.838 36.7-57.447 44.05-68.546a6475 6475 0 0 0 91.62-142.637c13.63-21.561 26.29-43.884 40.75-64.897m57.18-10.368c6.84 4.557 115.06 168.435 127.59 188.378-4 3.954-7.92 8.301-11.35 12.755-13.91 18.055-17.72 36.114-14.95 58.462-11.65 1.72-23.31 4.327-34.89 6.525-36 7.021-72.35 12.046-108.03 20.665 1.61-22.53 1.85-45.36 2.79-67.951 2.91-69.122 4.57-138.312 8.13-207.4 11.61-2.02 20.83-4.765 30.71-11.434M1304 425.143c9.46 12.31 31.62 19.995 46.54 21.755 3.18.374 6.65.703 9.83.472a10724 10724 0 0 0 5.82 164.487c-1.9 1.047-3.81 2.102-5.63 3.29-7.95 5.197-10.58 11.634-12.26 20.678-19.65-1.381-39.6-1.2-59.3-1.559l-116.26-1.523c-2.41-24.367-7.52-38.811-19.25-60.066 19.09-17.37 36.47-36.07 54.61-54.374 17.46-17.628 35.46-34.667 53.1-52.12 14.01-13.867 27.83-28.21 42.8-41.04M729.91 1064.51c20.774 22.69 50.482 37.2 72.867 58.35-10.397 10.28-28.961 21.72-41.335 32.74-54.098 48.19-93.443 104.75-113.091 174.87-30.623 4.99-61.513 8.54-92.171 13.45-.711-3.19-1.216-6.4-1.656-9.63-12.431-91.35 64.661-185.04 116.784-253.53 5.146.69 10.288 1.31 15.487 1.3 13.465-.03 27.585-3.28 37.417-13.09zM487.034 934.98c2.213 3.983-2.095 21.132-2.8 26.52-2.255 17.239-2.958 35.271-1.516 52.61 1.828 21.96 7.914 44.2 18.436 63.61 15.012 27.7 37.254 45.86 67.265 54.86-24.862 44.65-37.564 79.84-44.918 130.67-18.486-15.19-36.36-31.31-54.5-46.93L333.767 1098c7.987-16.16 10.226-27.95 7.982-45.84 23.587-15.15 44.825-34.69 66.384-52.591z"/><path fill="#FEFEFE" d="M508.481 918.208c24.631-24.315 53.23-45.687 79.809-67.872 26.871-22.428 52.791-46.165 79.719-68.437l2.015.196c7.892 10.52 20.544 19.231 33.829 21.229.373.057.752.076 1.128.113l-8.843 117.578c-1.212 15.111-.751 32.372-3.772 47.094-1.147-.408-2.142-.75-3.369-.834-13.804-.952-30.914 7.061-40.468 16.598-15.071 15.042-18.212 33.357-18.104 53.787-11.09 15.04-20.95 31.28-31.287 46.86-18.469-2.52-33.229-8.72-46.335-22.23-35.72-36.8-45.148-94.841-44.322-144.082M130.176 772.491c3.698 3.601 24.851 49.169 28.609 56.571l100.354 196.258c-9.834 10.21-18.665 20.18-21.999 34.4-3.727 15.89.736 30.17 8.783 43.68a1394 1394 0 0 1-40.711 48.1c-6.876 8.07-14.244 15.71-21.507 23.43-10.367-10.44-21.131-20.87-30.425-32.3-23.418-28.78-39.663-64.81-50.305-100.26-25.316-84.334-14.506-192.089 27.201-269.879m427.796 579.949 257.544-36.07a7903 7903 0 0 1 84.351-12.19c19.283-2.81 38.881-6.38 58.342-7.37 1.944 7.35 4.172 14.19 7.952 20.84-45.494 36.96-92.886 71.89-139.182 107.86-20.147 15.65-40.125 31.59-60.469 46.98-9.749 7.37-19.518 15.38-30.001 21.64-23.854-6.13-45.953-16.36-64.538-32.68-6.621-5.82-12.868-13.04-19.922-18.17l-2.625.17c-3.493-2.03-5.398-4.5-7.855-7.67 1.372-2.32 3.542-1.63 5.854-2.75l-3.671.09-.678-1.86c-33.533-9.48-58-27.49-75.309-58.24-3.727-6.62-6.832-13.59-9.793-20.58"/><path fill="#A82373" d="M643.074 1431.26c22.323 2.72 44.222 1.66 66.592 1.99-11.298 3.36-22.471 6.28-34.248 7.39-6.713.63-17.566-.61-23.369 2.64l-2.625.17c-3.493-2.03-5.398-4.5-7.855-7.67 1.372-2.32 3.542-1.63 5.854-2.75l-3.671.09z"/><path fill="#FEFEFE" d="M283.099 628.947c15.384 10.676 18.662 17.358 39.087 20.54-5.473 40.58-9.158 81.461-13.357 122.192a10769 10769 0 0 0-23.2 242.271c-5.978 1.64-11.721 3.78-17.524 5.95-11.677-20.536-21.654-42.091-31.93-63.346a8587 8587 0 0 1-53.625-104.992c-11.162-21.907-48.745-89.787-51.451-109.219 6.183-11.569 129.793-97.523 152-113.396M1043.9 857.545c7.67-4.089 21.82 1.947 31.12.372.94-.16 1.89-.251 2.84-.373.41-.053.81-.123 1.22-.166 1.39-.147.92-.107 2.48.298l.1 1.282c-4.12 2.192-9.39 2.724-13.97 3.48-5.11 51.641-13.96 103.408-20.94 154.882-2.09 15.45-5.45 31.27-6.62 46.79l.31 2.95c-1.48 1.78-2.61 2.51-5.05 2.55-1.79.02-3.32-.19-4.98-.82-10.91-.57-27.17 6.31-38.435 8.16-49.967 8.22-140.243 12.58-181.195 40.87-.758 2.78-1.383 4.13-3.291 6.4l-1.897.6c-.923-.57-2.132-1.11-2.815-1.96-22.385-21.15-52.093-35.66-72.867-58.35.151-.09.326-.16.453-.28 1.736-1.74 3.306-3.72 5.053-5.48-.754-2 3.321-9.61 4.324-11.87 3.696-6.24 4.09-15.17 5.002-22.23 22.649-8.3 48.307-10.12 71.799-15.91 53.113-13.086 110.19-46.23 152.519-80.567 17.346-14.071 33.79-29.927 49.18-46.1 6.38-6.706 16-20.432 22.76-25.099z"/><path fill="#A82373" d="M735.416 1058.75c15.216 11.7 30.086 23.82 45.222 35.61 10.026 7.82 20.595 15.07 30.142 23.46-.758 2.78-1.383 4.13-3.291 6.4l-1.897.6c-.923-.57-2.132-1.11-2.815-1.96-22.385-21.15-52.093-35.66-72.867-58.35.151-.09.326-.16.453-.28 1.736-1.74 3.306-3.72 5.053-5.48"/><path fill="url(#b)" d="M1043.9 857.545c7.67-4.089 21.82 1.947 31.12.372.94-.16 1.89-.251 2.84-.373.41-.053.81-.123 1.22-.166 1.39-.147.92-.107 2.48.298l.1 1.282c-4.12 2.192-9.39 2.724-13.97 3.48-5.11 51.641-13.96 103.408-20.94 154.882-2.09 15.45-5.45 31.27-6.62 46.79l.31 2.95c-1.48 1.78-2.61 2.51-5.05 2.55-1.79.02-3.32-.19-4.98-.82 3.4-18.35 4.98-37.39 7.61-55.9a10577 10577 0 0 1 21.66-149.353c-5.39-1.685-10.56-3.863-15.78-5.992"/><path fill="#FEFEFE" d="M385.673 607.04c41.97 19.851 85.49 37 128.703 53.96-18.171 34.146-37.988 67.403-57.158 100.996l-104.127 182.79a1149 1149 0 0 0-41.019 73.154l-16.434-3.25 20.646-220.482c4.764-48.049 10.971-96.104 14.952-144.206 9.58-.778 18.579-2.37 27.199-6.849 15.535-8.071 22.068-20.137 27.238-36.113m137.801 57.524c32.884 16.273 67.69 30.096 101.506 44.411 13.254 5.611 26.993 10.837 39.873 17.239 1.493.742 2.159 1.474 2.983 2.901-6.68 10.517-8.336 23.265-5.596 35.372.722 3.19 1.784 6.701 3.153 9.661-10.958 5.727-24.215 19.749-34.147 27.882a8394 8394 0 0 0-123.652 103.658c1.484-13.802 2.716-27.977 5.769-41.521 1.758-7.799 6.344-17.363 6.704-25.117.069-1.485-.21-.544.578-2.062l-.295 1.962.624-1.808-.313-.161c-1.072 1.995-2.092 4.02-3.178 6.007-12.55 22.967-16.669 48.662-24.26 73.34-7.894 8.023-17.48 14.725-26.124 21.964a2335 2335 0 0 1-58.691 48.51c-23.61 18.988-46.128 39.468-70.36 57.628-5.408-7.64-11.383-14.36-18.093-20.89 13.365-24.965 28.146-48.925 42.03-73.572 53.613-95.173 109.32-189.458 161.489-285.404M1049.74 263.64l.36.948c1.64 4.387 1.64 9.223 3.39 13.382l2.5.34 1.51-1.317c.12-2.337.25-4.659.45-6.99l1.04-.168c.53 3.078.14 3.939 2.9 5.631.15.092 2.07.934 2.14.967 7.44 3.474 12.47 9.595 16.13 16.761-2.83 1.19-3.09 1.135-4.6 3.766-.04 2.012.16 3.66 1.67 5.182.54.553 1.23.827 1.91 1.155-1.47 6.634-4.52 10.699-10.26 14.334-2.4 1.517-4.87 2.881-7.23 4.466-2.32-1.454-2.93-2.11-5.72-2.318l-2.85 2.541c-.16 17.799 2.17 35.879 3.17 53.669l5.42 102.944c.81 13.015 4.6 42.265 2.54 53.18-15.07-.943-30.25 5.395-43.36 12.204l1.53 1.19c-1.15 2.368-2.37 3.964-4.87 5.08-.89.397-1.62.42-2.54.52-1.11-.804-1.61-.863-2.07-2.199-11.49-16.542-41.058-43.167-56.179-58.794-26.211-27.09-51.231-57.32-79.631-81.984-5.334 2.486-10.572 4.889-16.159 6.768 2.529 6.634 5.317 13.272 7.539 20.011-4.491-1.055-7.125-16.763-10.979-20.753-2.07-.074-2.936.118-4.728 1.161-.925 4.724 2.687 9.594 3.378 14.466.336 2.372.344 2.546-1.016 4.38-1.645-5.103-2.62-10.71-3.863-15.943-6.85.663-12.944 1.104-19.812-.129-21.239-3.813-37.291-16.448-49.254-33.899-13.912 4.19-27.586 9.965-41.764 13.148 4.255-6.304 26.399-9.448 33.951-12.23 2.442-.9 7.061-2.462 8.109-4.733l-1.125-1.415c-2.155 1.455-3.115 1.93-5.733 1.904l-.84-1.4c1.478-.876 1.64-.964 2.505-2.559-2.429-9.596-4.176-20.464-3.51-30.384 1.034-15.408 10.77-31.953 22.122-42.033 9.061-8.044 22.302-15.418 34.713-14.773.124.235.2.501.371.703 1.66 1.968 3.95 2.509 6.47 2.537 2.612.029 3.813-.732 5.582-2.492l-.21-2.193c7.932.467 16.265 4.767 23.566 4.569l-.847 2.248-1.064.456c.548 1.803.655 2.429 2.027 3.793 2.025.259 3.236-.007 5.225-.365 9.232 4.004 21.677 18.01 24.924 27.612.376 1.111.334 1.421.382 2.452.458.445.874.94 1.376 1.337 3.548 2.806 25.912-5.331 30.758-6.749a1681 1681 0 0 1 103.166-27.656c4.89-14.15 7.78-11.449 16.3-21.241 2.38-2.729 1.26-7.695 1.09-11.088"/><path fill="#631D76" d="m877.09 408.13.054-2.127c1.991-2.603 3.299-2.797 6.291-3.989 37.538 37.296 73.624 76.114 110.703 113.876 9.032 9.199 17.402 19.648 26.712 28.427l1.53 1.19c-1.15 2.368-2.37 3.964-4.87 5.08-.89.397-1.62.42-2.54.52-1.11-.804-1.61-.863-2.07-2.199-11.49-16.542-41.058-43.167-56.179-58.794-26.211-27.09-51.231-57.32-79.631-81.984"/><path fill="#5C2C8B" d="m1049.74 263.64.36.948c1.64 4.387 1.64 9.223 3.39 13.382l2.5.34 1.51-1.317c.12-2.337.25-4.659.45-6.99l1.04-.168c.53 3.078.14 3.939 2.9 5.631.15.092 2.07.934 2.14.967 7.44 3.474 12.47 9.595 16.13 16.761-2.83 1.19-3.09 1.135-4.6 3.766-.04 2.012.16 3.66 1.67 5.182.54.553 1.23.827 1.91 1.155-1.47 6.634-4.52 10.699-10.26 14.334-2.4 1.517-4.87 2.881-7.23 4.466-2.32-1.454-2.93-2.11-5.72-2.318l-2.85 2.541c-10.22-3.057-15.86-6.849-20.85-16.573-.17-.342-.32-.695-.48-1.043l-91.49 24.068c-12.61 3.337-27.582 5.627-39.415 10.628 4.907 11.171 2.213 27.982-2.035 39.073-3.307 8.629-8.721 17.116-15.375 23.541-2.992 1.192-4.3 1.386-6.291 3.989l-.054 2.127c-5.334 2.486-10.572 4.889-16.159 6.768 2.529 6.634 5.317 13.272 7.539 20.011-4.491-1.055-7.125-16.763-10.979-20.753-2.07-.074-2.936.118-4.728 1.161-.925 4.724 2.687 9.594 3.378 14.466.336 2.372.344 2.546-1.016 4.38-1.645-5.103-2.62-10.71-3.863-15.943-6.85.663-12.944 1.104-19.812-.129-21.239-3.813-37.291-16.448-49.254-33.899-13.912 4.19-27.586 9.965-41.764 13.148 4.255-6.304 26.399-9.448 33.951-12.23 2.442-.9 7.061-2.462 8.109-4.733l-1.125-1.415c-2.155 1.455-3.115 1.93-5.733 1.904l-.84-1.4c1.478-.876 1.64-.964 2.505-2.559-2.429-9.596-4.176-20.464-3.51-30.384 1.034-15.408 10.77-31.953 22.122-42.033 9.061-8.044 22.302-15.418 34.713-14.773.124.235.2.501.371.703 1.66 1.968 3.95 2.509 6.47 2.537 2.612.029 3.813-.732 5.582-2.492l-.21-2.193c7.932.467 16.265 4.767 23.566 4.569l-.847 2.248-1.064.456c.548 1.803.655 2.429 2.027 3.793 2.025.259 3.236-.007 5.225-.365 9.232 4.004 21.677 18.01 24.924 27.612.376 1.111.334 1.421.382 2.452.458.445.874.94 1.376 1.337 3.548 2.806 25.912-5.331 30.758-6.749a1681 1681 0 0 1 103.166-27.656c4.89-14.15 7.78-11.449 16.3-21.241 2.38-2.729 1.26-7.695 1.09-11.088"/><path fill="#FEFEFE" d="M1113.02 822.946c13.83.104 40.36 8.437 55 11.599a8317 8317 0 0 1 92.7 19.618c22.9 4.984 45.68 10.608 68.69 15.065-1.25 16.781 1.85 35.007 13.24 48.094 3.04 3.5 6.62 6.645 10.36 9.371 2.56-.004 4.6-.453 6.62 1.57.6.6 1.3 1.918 1.73 2.678 9.82 4.648 19.04 6.22 29.8 5.942-.61 19.405-3.36 37.605-8.2 56.369-23.28 56.208-50.46 77.398-99.1 109.838-5.67-6.91-10.63-12.37-18.24-17.26l-2.99.77c-2.81-1.01-3.01-1.71-4.79-4.16-22.21-10.73-28.17-1.95-47.46-3.23l-3.15-4.2c-.34-5.75-27.93-63.48-32.6-69.99a23 23 0 0 1-4.1-3.76c-1.88-2.169-3.13-4.825-2.65-7.76 1.01-6.177 8.74-15.633 12.01-21.296 8.22-14.232 19.18-37.235 20.18-53.621-.71 1.644-1.21 2.529-2.34 3.983l-1.21-1.139.71-1.857-1.16-.356c.4 4.053-4.62 13.681-6.95 17.161-5.95 8.857-18.21 37.305-26.81 41.158-2.18-.653-3.47-1.676-4.86-3.489-5.67-7.403-9.86-17.524-14.33-25.816-10.96-20.302-21.84-40.635-32.31-61.164-5.24-10.28-9.82-21.335-15.58-31.292-.75-1.298-.45-.385-.26-2.679a168 168 0 0 0 4.67-4.414c6.73-6.662 13.33-15.984 13.38-25.733"/><path fill="#631D76" d="M1174.63 1005.02a23 23 0 0 1-4.1-3.76c-1.88-2.169-3.13-4.825-2.65-7.76 1.01-6.177 8.74-15.633 12.01-21.296 8.22-14.232 19.18-37.235 20.18-53.621-.71 1.644-1.21 2.529-2.34 3.983l-1.21-1.139.71-1.857-1.16-.356c.4 4.053-4.62 13.681-6.95 17.161-5.95 8.857-18.21 37.305-26.81 41.158-2.18-.653-3.47-1.676-4.86-3.489-5.67-7.403-9.86-17.524-14.33-25.816-10.96-20.302-21.84-40.635-32.31-61.164-5.24-10.28-9.82-21.335-15.58-31.292-.75-1.298-.45-.385-.26-2.679.99.822 1.87 1.499 2.57 2.604 8.35 13.126 17.04 33.677 24.68 48.419 12.66 24.419 26.73 48.349 38.64 73.103 23.04-29.756 35.72-60.506 46.89-96.02-3.59 42.99-15.83 76.75-38.82 113.131 1.98 3.478 4.22 6.97 5.7 10.69m178.38-78.327c2.56-.004 4.6-.453 6.62 1.57.6.6 1.3 1.918 1.73 2.678-7.45 9.799-13.41 21.407-19.85 31.944-12.85 21.025-25.98 41.815-38.5 63.045-11.78 19.96-23.07 41.7-37.39 59.9l-2.99.77c-2.81-1.01-3.01-1.71-4.79-4.16a3198 3198 0 0 0 73.82-120.921c6.75-11.533 15.94-22.636 21.35-34.826"/><path fill="#FEFEFE" d="M1361.36 930.941c9.82 4.648 19.04 6.22 29.8 5.942-.61 19.405-3.36 37.605-8.2 56.369-23.28 56.208-50.46 77.398-99.1 109.838-5.67-6.91-10.63-12.37-18.24-17.26 14.32-18.2 25.61-39.94 37.39-59.9 12.52-21.23 25.65-42.02 38.5-63.045 6.44-10.537 12.4-22.145 19.85-31.944M694.334 176.257c9.042-2.24 18.076-4.454 27.332-5.625 8.04-1.018 17.262-.666 24.992-2.941 9.548-2.81 18.642-7.948 27.783-11.892a276 276 0 0 1 37.306-12.9c-23.254 30.9-43.21 63.562-63.261 96.573-12.173 20.041-24.741 39.927-36.512 60.203-12.845 22.127-24.982 44.524-38.394 66.336-16.397-4.19-31.591-4.017-46.383 5.148-12.483 7.734-21.022 20.83-24.133 35.081-2.413 11.053-.769 21.221 2.223 31.944-23.071 8.473-45.703 23.296-67.419 34.918-14.297 7.651-44.614 22.178-55.998 31.241-7.144 1.804-15.952 7.954-22.609 11.524-26.627 14.281-52.521 30.115-79.288 44.035-3.302-3.703-6.859-7.223-10.291-10.809 13.098-22.296 29.775-43.296 45.191-64.029 13.086-17.6 25.937-35.36 39.606-52.516 30.599-38.406 62.85-75.383 94.064-113.265l-1.502-.454c2.885-5.014 10.388-9.69 11.577-15.06.608-2.743.046-3.78-1.187-6.072-9.78-5.307-13.305 12.082-21.371 12.855 15.116-16.546 31.497-32.01 46.98-48.226a2596 2596 0 0 0 62.837-69.174l1.482-2.503c5.492-3.642 10.405-4.031 16.887-4.28 8.454-5.172 20.537-7.411 30.088-10.112"/><path fill="#631D76" d="m645.877 193.152 1.482-2.503c5.492-3.642 10.405-4.031 16.887-4.28-19.19 23.374-40.504 45.365-60.246 68.34l-40.883 47.842c-4.222 4.929-9.486 12.947-14.574 16.732l-1.502-.454c2.885-5.014 10.388-9.69 11.577-15.06.608-2.743.046-3.78-1.187-6.072-9.78-5.307-13.305 12.082-21.371 12.855 15.116-16.546 31.497-32.01 46.98-48.226a2596 2596 0 0 0 62.837-69.174"/><path fill="#FEFEFE" d="m982.703 693.315 1.514.943 3.222-2.769c1.62 1.867 1.33 1.831 1.607 4.114-1.773 2.394-2.482 2.596-2.219 5.517 1.779-1.582 3.549-3.149 5.254-4.813 15.909 18.004 38.739 35.624 63.439 38.573 2.69.417 6.97.355 8.58 2.489.63 7.822 1.59 19.37-.94 26.687-22.44 4.985-29.39 11.822-42.06 29.744l1.39.42c.32 4.294-1.67 9.125-2.85 13.247l-.81.495-.28-.211c-2.67 4.465-1.57 10.343-.38 15.248 1.46 6.017 3.75 11.75 6.24 17.396-48.233 44.849-102.387 74.993-163.111 99.428a693 693 0 0 1-37.219 13.752c-13.739 4.652-89.532 26.687-95.155 31.922.265.455.402 1.93.497 2.474l-1.308 1.624c-4.316-.089-6.986-3.309-9.989-6.263-2.64-2.598-6.429-5.146-6.443-8.933-.355-.328-.69-.679-1.065-.984-2.819-2.291-5.908-3.32-9.526-3.155l-1.395.977c-2.884.324-4.283.672-6.899-.856l-.431-2.272c3.021-14.722 2.56-31.983 3.772-47.094l8.843-117.578c2.807-.179 5.444-.452 8.245-.087a52.9 52.9 0 0 0 28.732-10.582c9.013-6.823 14.142-15.55 15.78-26.676-.887-7.488-4.279-20.523-.828-27.304l1.789 6.715c2.301 2.127 4.069 2.342 7.081 3.03 13.596 3.105 27.864 4.772 41.641 7.071 32.781 5.469 65.696 10.586 98.198 17.553 26.048-26.192 51.589-53.102 77.084-79.842"/><path fill="#A82373" d="M704.981 803.437c2.807-.179 5.444-.452 8.245-.087-3.051 55.678-8.186 111.287-12.135 166.91l-1.395.977c-2.884.324-4.283.672-6.899-.856l-.431-2.272c3.021-14.722 2.56-31.983 3.772-47.094z"/><path fill="#862B7C" d="m982.703 693.315 1.514.943 3.222-2.769c1.62 1.867 1.33 1.831 1.607 4.114-1.773 2.394-2.482 2.596-2.219 5.517-10.923 12.779-23.253 24.564-34.885 36.71-11.899 12.424-23.346 25.298-35.493 37.48 34.435 7.899 70.157 10.56 104.651 18.49l1.39.42c.32 4.294-1.67 9.125-2.85 13.247l-.81.495-.28-.211c-.19-1.364-.17-4.553-1.27-5.358-3.67-2.709-94.445-18.081-108.389-19.878-42.169 48.19-88.146 93.65-132.714 139.648-18.063 18.643-38.772 37.082-54.907 57.35 2.431 2.049 4.886 4.431 7.655 5.984.265.455.402 1.93.497 2.474l-1.308 1.624c-4.316-.089-6.986-3.309-9.989-6.263-2.64-2.598-6.429-5.146-6.443-8.933 10.342-6.455 46.192-46.916 56.406-57.661l81.444-84.348c16.766-17.294 32.981-34.982 50.23-51.817-21.416-3.109-42.441-8.124-63.758-11.764-25.665-4.382-51.559-7.501-76.862-13.778a329 329 0 0 1-1.404 11.061c-.887-7.488-4.279-20.523-.828-27.304l1.789 6.715c2.301 2.127 4.069 2.342 7.081 3.03 13.596 3.105 27.864 4.772 41.641 7.071 32.781 5.469 65.696 10.586 98.198 17.553 26.048-26.192 51.589-53.102 77.084-79.842"/><path fill="#FEFEFE" d="M986.827 701.12c1.779-1.582 3.549-3.149 5.254-4.813 15.909 18.004 38.739 35.624 63.439 38.573 2.69.417 6.97.355 8.58 2.489.63 7.822 1.59 19.37-.94 26.687-22.44 4.985-29.39 11.822-42.06 29.744-34.494-7.93-70.216-10.591-104.651-18.49 12.147-12.182 23.594-25.056 35.493-37.48 11.632-12.146 23.962-23.931 34.885-36.71m-77.936 81.395c13.944 1.797 104.719 17.169 108.389 19.878 1.1.805 1.08 3.994 1.27 5.358-2.67 4.465-1.57 10.343-.38 15.248 1.46 6.017 3.75 11.75 6.24 17.396-48.233 44.849-102.387 74.993-163.111 99.428a693 693 0 0 1-37.219 13.752c-13.739 4.652-89.532 26.687-95.155 31.922-2.769-1.553-5.224-3.935-7.655-5.984 16.135-20.268 36.844-38.707 54.907-57.35 44.568-45.998 90.545-91.458 132.714-139.648m463.059-499.26c20.4 2.857 41.01 14.225 53.46 30.837 1.36 1.81 1.9 2.93 2.45 5.076.04 3.148.38 5.274 2.64 7.568 1.13.393 2.01 1.028 3.17.656 9.76 16.675 11.69 39.915 6.81 58.407-1.64 6.22-4.23 13.014-8 18.224-1.35 2.164-3.1 4.687-3.43 7.271-14.48 16.904-34.49 34.047-57.95 35.379-.62.035-1.25-.001-1.87-.001-2.47-.973-4.01-2.054-6.65-.916-.71.307-1.6 1.108-2.21 1.614-3.18.231-6.65-.098-9.83-.472-14.92-1.76-37.08-9.445-46.54-21.755-.98-3.377-3.07-5.912-5.51-8.345l-1.46.065-.56 2.435c-14.42 17.198-33.18 32.138-49.19 47.982-33.44 33.082-66.09 67.024-100.39 99.219-17.41-16.896-40.08-34.528-65.67-34.952-1.27-.021-2.23.199-3.45.486-2.11 2.069-4.55 3.452-7.55 3.703-1.62.136-3.48-.086-4.62-1.27-1.15-1.205-.77-.693-1.39-2.353 2.06-10.915-1.73-40.165-2.54-53.18l-5.42-102.944c-1-17.79-3.33-35.87-3.17-53.669l2.85-2.541c2.79.208 3.4.864 5.72 2.318 2.36-1.585 4.83-2.949 7.23-4.466 5.74-3.635 8.79-7.7 10.26-14.334 1.79-.694 2.62-.674 4.53-.354 45.32 7.569 90.44 17.054 135.62 25.421 14.89 2.758 50 7.094 62.7 12.047 1.27.138.45.165 2.33-.73 1.34-2.448 1.48-2.896 1.4-5.675l-1.66-1.357c3.21-6.082 6.49-12.136 11.4-17.038l.68.514c3.54-.225 5.59-.985 8.23-3.411 3.21-2.957 6.04-6.066 6.33-10.575.83-2.021 1.96-2.947 3.68-4.208 8.57-6.287 25.74-15.675 36.54-13.903 1.57 1.997 3.66 3.261 6.27 3.371 3.65.154 8.12-1.883 11.71-2.635 1.39-.289 1.97-.65 3.05-1.509"/><path fill="#631D76" d="m1053.08 322.32 2.85-2.541c2.79.208 3.4.864 5.72 2.318a9973 9973 0 0 1 7.42 138.448c.35 7.263 2.25 68.332 3.97 69.726 1.4 1.134 3.02 1.342 4.73 1.762-2.11 2.069-4.55 3.452-7.55 3.703-1.62.136-3.48-.086-4.62-1.27-1.15-1.205-.77-.693-1.39-2.353 2.06-10.915-1.73-40.165-2.54-53.18l-5.42-102.944c-1-17.79-3.33-35.87-3.17-53.669"/><path fill="#5C2C8B" d="M1371.95 283.255c20.4 2.857 41.01 14.225 53.46 30.837 1.36 1.81 1.9 2.93 2.45 5.076.04 3.148.38 5.274 2.64 7.568 1.13.393 2.01 1.028 3.17.656 9.76 16.675 11.69 39.915 6.81 58.407-1.64 6.22-4.23 13.014-8 18.224-1.35 2.164-3.1 4.687-3.43 7.271-14.48 16.904-34.49 34.047-57.95 35.379-.62.035-1.25-.001-1.87-.001-2.47-.973-4.01-2.054-6.65-.916-.71.307-1.6 1.108-2.21 1.614-3.18.231-6.65-.098-9.83-.472-14.92-1.76-37.08-9.445-46.54-21.755-.98-3.377-3.07-5.912-5.51-8.345l-1.46.065-.56 2.435-8.73-13.617c-13.34 5.854-25.78 15.402-38.78 22.277-40.35 21.343-96.55 43.623-142.24 45.68 55.71-14.231 138.14-42.219 172.73-90.808-2.01-13.794-3.28-29.32 2.54-42.419 1.27.138.45.165 2.33-.73 1.34-2.448 1.48-2.896 1.4-5.675l-1.66-1.357c3.21-6.082 6.49-12.136 11.4-17.038l.68.514c3.54-.225 5.59-.985 8.23-3.411 3.21-2.957 6.04-6.066 6.33-10.575.83-2.021 1.96-2.947 3.68-4.208 8.57-6.287 25.74-15.675 36.54-13.903 1.57 1.997 3.66 3.261 6.27 3.371 3.65.154 8.12-1.883 11.71-2.635 1.39-.289 1.97-.65 3.05-1.509"/><path fill="#FEFEFE" d="M1403 934.615c13.46-5.881 22.63-12.73 30.66-25.366a2843 2843 0 0 0 81.01 61.086c15.88 11.61 31.63 23.771 48.07 34.565-9.72 10.58-16.16 22.6-15.85 37.38.15 6.62 1.92 13.18 4.39 19.28-27.4 18.11-53.02 38.45-79.51 57.81-9.12 6.66-32.65 21.77-38.99 29.09-29.31 18.64-56.93 40.17-85.83 59.48-51.62 34.48-103.54 70.09-157.05 101.58-30.34 17.86-61.58 33.64-92.75 49.93l.14 1.55c-2.14 2.12-3.96 2.54-6.77 3.24l-2.94-1.2c-14.01-14.14-31.59-26.57-47.83-38.09-.28-3.57-.16-6.2 1.98-9.22 1.47-2.07 2.19-2.71 4.68-3.02l1.69 2.34c6.43-8.69 6.9-21.99 7.84-32.32 11.93-6.6 25.21-11.79 37.62-17.49 24.37-11.2 48.73-22.51 73.27-33.34 13.34-5.89 27.74-11.16 40.39-18.37.8-4.75 13.29-6.52 16.96-9.89-2.03-1.5-9.04-2.19-11.52-1.45-2.04.6-2.25 1.77-4.77 1.94l1.3-2.04c-.37-2.75-4.35-3.9-6.72-5.22-8.29-4.63-15.9-10.97-21.6-18.59a59.16 59.16 0 0 1-11.25-44.51c3.28-21.79 15.57-36.93 32.78-49.73l-3.75-9.32c2.78 1.14 4.12 3.27 5.16 6.18.35.97.27 2.04.57 3.03.11.36.36.66.54.99l3.04-.66.97-1.82-.33-.81c-.93-2.36-1.39-4.03-1.37-6.62l3.15 4.2c19.29 1.28 25.25-7.5 47.46 3.23 1.78 2.45 1.98 3.15 4.79 4.16l2.99-.77c7.61 4.89 12.57 10.35 18.24 17.26 48.64-32.44 75.82-53.63 99.1-109.838l2.08-.156a205 205 0 0 0 5.89-30.492c.88-7.49.92-16.333 2.99-23.547.44-1.549 1.32-2.404 2.45-3.492l1.77.005c5.92 6.43 2.97 33.068 2.6 41.923-.46 10.991-1.37 22.025-2.38 32.977l1.64.07c3.63-25.096 3.01-50.634 3-75.925"/><path fill="#862B7C" d="M1039.75 1324.95c-.28-3.57-.16-6.2 1.98-9.22 1.47-2.07 2.19-2.71 4.68-3.02l1.69 2.34-.28 2.4c9.45 9.06 20.03 17.11 30.05 25.54 6.4 5.38 12.61 11.5 19.28 16.46l.14 1.55c-2.14 2.12-3.96 2.54-6.77 3.24l-2.94-1.2c-14.01-14.14-31.59-26.57-47.83-38.09m343.21-331.698 2.08-.156a205 205 0 0 0 5.89-30.492c.88-7.49.92-16.333 2.99-23.547.44-1.549 1.32-2.404 2.45-3.492l1.77.005c5.92 6.43 2.97 33.068 2.6 41.923-.46 10.991-1.37 22.025-2.38 32.977l1.64.07c-9.49 56.98-38.27 89.98-84.42 122.79-6.92 4.93-14.3 10.02-21.96 13.72-2.72 18.29-9.02 34.09-24.61 45.37-18.45 13.36-32.96 8.07-49.69 16.08-3.77 1.81-8.04 4.1-12.1 5.03.8-4.75 13.29-6.52 16.96-9.89-2.03-1.5-9.04-2.19-11.52-1.45-2.04.6-2.25 1.77-4.77 1.94l1.3-2.04c-.37-2.75-4.35-3.9-6.72-5.22-8.29-4.63-15.9-10.97-21.6-18.59a59.16 59.16 0 0 1-11.25-44.51c3.28-21.79 15.57-36.93 32.78-49.73l-3.75-9.32c2.78 1.14 4.12 3.27 5.16 6.18.35.97.27 2.04.57 3.03.11.36.36.66.54.99l3.04-.66.97-1.82-.33-.81c-.93-2.36-1.39-4.03-1.37-6.62l3.15 4.2c19.29 1.28 25.25-7.5 47.46 3.23 1.78 2.45 1.98 3.15 4.79 4.16l2.99-.77c7.61 4.89 12.57 10.35 18.24 17.26 48.64-32.44 75.82-53.63 99.1-109.838"/><path fill="#FEFEFE" d="m1551.28 1061.56 3.18-.23c2.61 2.3 3.43 2.87 4.66 6.23-.85 2.09-.15 1.29-2.09 2.42 3.46 4.3 11.46 8.24 12.83 13.05-18.53 23.39-35.02 48.45-52.22 72.82-6.17 8.73-15.35 18.67-19.99 28.04-14.9 16.87-52.1 72.09-68.47 80.21-7.61 3.78-16.53 5.76-24.65 8.28a652 652 0 0 0-37.47 12.52c11.04-26.65 16.83-51.36 13.22-80.2-16.63 30.27-31.38 74.12-56.05 97.95-8.52 8.24-22.74 11.66-33.58 15.99-17.59 7.01-78.34 29.32-86 46.73-3.61 8.2-2.28 16.94.96 25 4.01 9.96 9.21 19.68 13.75 29.42 12.25 26.27 23.35 51.65 42.05 74.18 12.45 14.98 28.01 27.6 39.3 43.52 7.36 10.38 12.2 22.49 17.93 33.83 16.02 31.68 38.28 58.66 71.78 72.78 28.29 11.93 56.8 9.5 84.74-1.8-2.23 25.71-8.43 38.51-21.75 60.45 29.31 55.83 60.79 110.42 89.93 166.36 10.04 19.29 21.34 38.41 29.86 58.4a1417 1417 0 0 1-75.3-.16c-56.3-88.42-115.01-219.1-196.15-285.08a462 462 0 0 0-65.79-44.15c-19.52-10.74-42.96-19.63-59.57-34.64-9.89-8.94-14.73-19.99-20.26-31.76-11.3-24-26.22-43.25-50.45-55.1-25.22-12.33-51.71-7.94-78.61-7.63-27.752.32-56.446-5.56-80.529-19.61 4.627-5.47 9.237-10.56 14.576-15.35a288 288 0 0 0 16.715-.57c25.868-1.49 50.998-6.72 75.758-14.21 67.77-20.5 114.16-53.96 169.77-96.76 41.73-32.12 82.1-66.02 123.34-98.76 20.04-15.9 40.79-31.23 61.43-46.33 8.79-6.43 21.88-13.6 29-21.6 4.36-9.23 24.38-15.08 26.94-22.57-.68-.3-1.36-1.2-2.04-.91-4.76 2.07-5.54 9.73-13.29 10.62-.95-1.08-1.24-1.44-2.61-2-4.01 3.45-8.42 6.24-12.84 9.11l-.51-1.59c6.34-7.32 29.87-22.43 38.99-29.09 26.49-19.36 52.11-39.7 79.51-57.81"/><path fill="#631D76" d="m1551.28 1061.56 3.18-.23c2.61 2.3 3.43 2.87 4.66 6.23-.85 2.09-.15 1.29-2.09 2.42-.86-.11-1.72-.45-2.57-.32-6.26.94-100.86 76.9-117.33 86.14 4.36-9.23 24.38-15.08 26.94-22.57-.68-.3-1.36-1.2-2.04-.91-4.76 2.07-5.54 9.73-13.29 10.62-.95-1.08-1.24-1.44-2.61-2-4.01 3.45-8.42 6.24-12.84 9.11l-.51-1.59c6.34-7.32 29.87-22.43 38.99-29.09 26.49-19.36 52.11-39.7 79.51-57.81"/><path fill="#FEFEFE" d="M1515.63 1294.1c45.74-1.76 91.53-8.6 137.3-11.37 51.18-3.09 102.51-2.02 153.51-7.96-.71 32.04-4.38 60.62-13.98 91.43-22.64-8.08-57.17-24.32-81.12-22.04-7.09.68-14.28 3.51-20.69 6.51-18.53 8.69-90.2 52.27-96.55 69.53-.59 1.6-1.1 3.25-1.58 4.88 1.76 7.88 3.3 13.93 10.46 18.7 15.57 10.36 40.52 4.8 46.31 28.04 4.13 16.6-12.31 37.7-5.36 43.25 2.66-.38 3.54-1.11 5.14-3.32 4.19-5.79 6.56-14.93 8.28-21.81 25.91-4.54 51.62-6.52 77.5-.18-7.53 10.6-15.23 20.92-24.43 30.17-34.52 34.71-84.22 58.29-132.25 66.47-20.8 3.53-41.48 3.39-62.46 2.31-5.66-2.26-20.7-2.72-27.72-3.89-10.05-1.67-19.79-4.23-29.58-6.99 13.21-5.72 36.86-14.02 48.17-21.46l-1.34-.64c6.64-5.05 28.31 1.38 34.87-2.34 2.1-1.19 2.6-2.17 3.32-4.28-.26-.12-.5-.25-.76-.34-5.27-1.78-28.6-2.36-34.47-1.69-1.97.23-3.87 1.09-5.58 2.07-.32.19-.61.4-.92.6l-2.51-.98c-5.06 1.62-10.29 4.78-15.14 7.11-12.67 6.07-25.2 12.37-38.72 16.36-12.91-3.56-24.69-9.41-36.3-16.02-42.22-24.05-81.94-63.82-94.78-112-6.52-24.47-4.37-51.25 8.54-73.25 28.83-49.13 99.84-64.5 152.21-72.01 12.49-1.8 27.26-1.14 39.3-4.47.45-.13.89-.26 1.33-.39"/><path fill="#631D76" d="M1535.72 1312.85c.44-.03.87-.12 1.31-.1 2.33.09 3.71.63 5.33 2.24-.02.29-.01.58-.08.86-1.82 7.56-23.16 17.83-29.87 21.54-.75-.21-1.45-.35-2.14-.77-2.45-1.46-2.9-2-3.41-4.61 4.02-7.91 20.87-14.74 28.86-19.16m122.64 18.16c.48.04.98 0 1.44.13 2.49.69 3.12 1.39 4.13 3.53-2.83 6.54-24.69 13.89-32.03 18.99l-1.46 1.03c-2.75.06-2.8.09-4.99-1.55-.19-1.86-.53-2.51.3-4.27 4.44-9.44 23.5-14.96 32.61-17.86m-159.17 217.76c3.12-1.38 6.81-3.33 10.23-3.62 7.87-.67 16.73.72 24.66 1.07 10.54.47 21.05-.07 31.54-1.04 9.01-.84 20.06-5.21 27.79-5.13l2.42 1.21c.64 2.28.95 3.19-.59 5.34-5.2 7.25-43.79 8.63-52.24 8.75-10.97.16-26.2-2.22-36.42 1.02l-1.34-.64c6.64-5.05 28.31 1.38 34.87-2.34 2.1-1.19 2.6-2.17 3.32-4.28-.26-.12-.5-.25-.76-.34-5.27-1.78-28.6-2.36-34.47-1.69-1.97.23-3.87 1.09-5.58 2.07-.32.19-.61.4-.92.6zm-39.2-226.75c1 .11 1.3.1 2.39.45 2.7.86 4.05 1.52 5.1 4.08-3.79 6.96-17.58 8.76-24.26 12.85-5.98 3.67-10.57 12.63-14.62 18.22-12.08 16.7-39.64 22.44-58.33 28.8-1.87.47-2.78.44-4.63-.09-1.66-2.12-1.69-3.41-1.82-6.06.28-.28.54-.59.85-.84 9.27-7.61 35.81-10.69 48.84-18.79 3.49-2.17 5.4-5.22 7.81-8.44 12.53-16.76 18.23-23.33 38.67-30.18"/><path fill="#862B7C" d="M1356.95 1490.61c17.55 8.1 33.1 18.35 51.43 25.17 19.23-9.19 36.37-16.43 58.1-12.8 11.38 1.9 35.95 9.12 42.65 18.61.57 3.1.25 3.35-1.14 6.24-8.48-1.74-15.99-6.07-23.94-9.37-29.89-12.41-47.22-4.73-75.2 6.71-12.96-3.98-45.42-15.77-53.96-26.54-.55-2.97.89-5.36 2.06-8.02"/><path fill="#631D76" d="M1486.21 1386.35c11.28-12.33 23.46-25.08 36.93-35.01 21.68-16 80.02-43.23 106.45-50.52 11.02-3.04 22.9-4.53 34.3-4.99 16.43-.67 33.55.35 49.56 4.22 11.32 2.74 21.52 6.22 33.25 7.73 7.9 1.02 33.02-.68 37.51 3.2-.33 2.28-.31 2.82-2.35 4.25-14.78 10.38-68.41-6.62-85.56-9.37-13.38-2.14-26.68-2.73-40.17-1.28-32.2 3.46-63.27 19.17-91.58 34.18-24.84 13.17-48.83 26.98-67.51 48.55 17.35 3.95 28.99 7.38 39.9 22.25 10.49-12.01 54.4-49.28 70.64-51.97l2 .79c.63 2.08.95 2.56-.1 4.62-6.25 12.25-69.59 40.5-64.59 57.57 1.74 5.95 6.56 10.39 5.84 17.1l-1.27 1.26c-3.04-.11-5.09-1.48-7.19-3.57-3.88-3.88-5.82-9.66-8.61-14.32a50.98 50.98 0 0 0-41.06-25.13c-12.66-.73-25.72 3.31-37.8 6.61-6.38 3.59-14.44 5.68-21.18 8.85-12.72 5.99-24.25 13.74-35.73 21.78 27.71 11.31 57.16 19.47 85.92 27.66 21.7 6.17 43.4 12.83 65.49 17.46a413 413 0 0 0 34.29 5.78c8.56 1.06 20.24-.23 28.1 3.15l.72 2.31c-.47 1.39-.4 2.21-1.71 3.05-14.18 9.08-108.86-16.28-128.75-21.78-20.5-5.68-139.37-41.95-145.15-52.14l.68-2.16c.81-.53 1.26-.91 2.29-1.15 8.41-1.97 38.56 11.11 47.54 14.95 17.7-18.05 44.84-30.9 68.99-37.41 9.75-2.97 19.87-4.78 29.91-6.52"/></svg>