<svg xmlns="http://www.w3.org/2000/svg" style="display:block" viewBox="0 0 2048 2048"><path fill="#FEFEFE" d="M0 0h2048v2048H0z"/><path fill="#71247B" d="M1009.27 55.43c23.83-1.605 48.44-.13 72.23 1.259 163.06 9.51 325.44 70.575 460.17 161.9 145.82 98.841 244.09 228.966 277.44 404.087 35.59 186.87-3.73 390.634-110.79 548.354-38.76 57.09-87.41 106.26-126.03 163.32-46.44 68.61-71.27 147.62-55.05 230.53 17.04 87.06 77.56 161.61 144.64 216.54 10.33 8.46 20.58 17.34 31.65 24.81-36.79-1.1-74.08 1.3-110.85 2.73a1682.1 1682.1 0 0 0-468.43 80.8c-35.07 11.43-69.5 25.16-103.97 38.28-56.504 22-110.562 49.16-164.905 75.9 1.413-13.91 1.798-28.09 2.534-42.06 4.651-88.27-2.58-176.16-35.531-258.85-24.751-62.11-69.676-109.13-131.036-135.56-39.077 18.14-100.502 34.07-143.209 41.66-45.839 8.16-109.777 12.35-149.213-15.48-12.678-8.95-22.469-20.52-29.021-34.61-22.495-48.35 7.24-86.24-3.735-129.59-5.921-23.39-36.003-28.39-40.051-56.49-2.261-15.7 4.163-28.33 13.484-40.22-7.083-2.7-13.257-5.89-18.851-11.11-29.96-27.97 5.949-60.44 4.428-90.52-1.066-21.08-41.042-33.77-56.947-41.62-10.519-5.19-21.017-10.93-29.866-18.72-14.032-12.36-20.94-29.09-21.999-47.57-2.119-36.95 29.223-61.9 53.025-85.03 7.548-7.33 14.599-15.28 21.595-23.14 30.873-34.68 81.041-94.365 81.215-142.076.057-15.491-5.195-29.439-11.059-43.538-13.009-31.281-24.113-61.3-25.974-95.651-1.763-32.554 3.296-65.044 9.322-96.928A733.86 733.86 0 0 1 522.573 282.43c38.14-42.354 83.384-79.62 131.047-110.711 109.236-71.256 225.472-109.34 355.65-116.288"/><path fill="#FEFEFE" d="m442.257 1331.26.981.06.159.85c-9.628 4.83-19.712 9.65-28.827 15.38-17.034 10.7-33.038 23.05-51.233 31.83-3.255 1.57-6.91 3.79-10.412 2.56-2.171-3.48-4.213-6.77-5.204-10.8-1.557-6.33-1.306-12.63 2.222-18.25 14.594-23.26 65.419-15.7 90.655-21.26z"/><path fill="#FEFEFE" d="M1019.27 76.433a255 255 0 0 1 2.85-.135c204.01-8.526 448.89 91.584 597.74 229.266 53.98 49.928 100.38 108.388 132.63 174.763 76 156.414 74.98 354.19 19.97 516.871-12.82 37.902-29.85 75.092-48.83 110.282-24.53 45.47-56.31 87.15-89.09 126.92-12.63 15.32-26.15 29.94-38.34 45.59-55.83 71.69-96.75 151.19-92.98 244.52 2.42 59.65 15.77 99.5 47.56 150.59 28.66 46.1 56.6 75.46 96.12 111.81-63.04-.25-126.09 5.07-188.69 11.78 8.81-7.96 19.42-14.48 29.02-21.5 26.18-19.14 50.98-43.5 56.95-76.61-25.41-24.34-99.15-46.75-132.84-60.31-29.71-11.95-58.77-25.68-88.79-36.83-13.98-53.72-22.25-127.13-54.65-172.05-18.49-25.65-36.28-36.36-67.14-41.23a337 337 0 0 0-3.68 4.27c-63.63 74.82-74.6 234.67-66.9 329.18 28.26 7.48 58.93 5.54 86.94-2.08 34.98-9.53 60.75-23.74 79.04-55.68-9.5-4.76-21.55-6.93-30.1-13.13-9.7-7.04-16.32-23.05-21.73-33.65-25.09-49.12-48.1-102.36-57.52-156.99 8.2 15.16 12.53 33.65 19.07 49.75 16.56 40.8 40.54 94.94 63.94 131.77 44.4 21.11 93.62 27.58 142.02 32.21 17.07 1.63 34.4 2.49 51.3 5.48 14.26 2.52 26.58 10.83 40.1 15.57 9.34 3.26 19.59 3.65 29.2 6.15-13.21 2.84-24.47.48-37.45-1.84 5.5 5.89 8.32 11.9 8.61 20.08.43 12.43-6.33 24.32-14.59 33.18-34.69 37.22-135.7 73.99-185.69 75.43 21.66-6.18 43.26-11.77 64.56-19.2 30.72-10.72 97.94-39.72 117.1-65.05 6.38-8.44 10.1-19.56 8.43-30.18-1.29-8.19-6.27-13.87-13.04-18.32-26.55-17.46-69.49-9.79-98.81-3.76-80.26 19.42-133.03 47.8-197.8 98.01a350.7 350.7 0 0 1 45.86-44.74c14.96-12.28 30.2-23.6 43.71-37.54-47.84 23.83-88.13 37.34-142.06 25.15 3.71 26.48 10.39 51.05 27.56 72.15 18.93 23.28 40.29 28.81 68.95 31.68-18.11 5.23-36.54 9.37-54.64 14.66-56.85 16.65-114.28 35.86-169.05 58.39-25.327 10.42-50.835 21.41-75.507 33.31-16.184 7.81-32.806 18.21-49.836 23.77-.033-17.84 1.334-35.68 1.174-53.53-.527-58.87-6.868-117.45-22.592-174.28-17.121-61.88-48.418-120.87-100.607-160.11-11.964-9-24.883-16.19-37.877-23.55 77.085-35.14 168.208-51.15 226.284-117.9 49.763-57.2 60.811-151.74 55.451-224.85-2.605 18.62-3.81 37.25-7.46 55.75-10.127 51.33-35.461 102.89-69.095 142.7a308.6 308.6 0 0 1-76.95 65.77c-26.072 15.84-54.816 27.1-82.885 38.81-75.319 31.43-170.082 68.88-251.263 75.61-34.648 2.87-79.524 3.72-107.476-20.37-40.92-35.25-12.524-86.54-16.085-130.81-2.001-24.88-12.948-39.41-31.441-55.17 24.659-9.99 45.151-27.63 68.168-40.66 20.383-11.53 42.169-18.81 63.431-28.36a451 451 0 0 1-38.807 5.11c-28.719 2.28-93.019 3.72-114.11-15.33-3.725-3.37-6.236-7.36-6.652-12.43-1.416-17.22 17.982-44.63 16.752-67.67-2.092-39.2-68.51-48.75-93.01-71.32-9.368-8.62-16.01-20.29-16.336-33.22-.878-34.88 36.643-57.64 57.715-80.37 39.684-42.795 95.667-106.765 97.621-168.052.471-14.775-2.86-29.421-8.035-43.19-13.847-36.836-26.938-62.281-28.527-103.55-1.308-34.01 4.544-68.58 11.624-101.731a700.15 700.15 0 0 1 170.749-330.421A680 680 0 0 1 1019.27 76.433"/><path fill="#6B1A69" d="M526.959 933.909c2.358-.494 4.777-.792 7.158-1.164l6.639 19.548c-5.433-5.535-9.747-11.786-13.797-18.384"/><path fill="#71247B" d="M288.046 1151.17c7.965.75 16.294 1.96 23.816 4.78 12.024 4.53 23.837 13.11 29.042 25.04l-.511 1.21-2.855-.12c-13.849-6.15-38.403-12.65-49.276-19.09-2.913-1.73-4.159-3.14-4.955-6.41 1.062-2.96 2.273-3.67 4.739-5.41m116.687-19.63c1.337.69 2.308 1.32 3.372 2.45 5.724 6.1 7.433 16.78 6.601 24.77-1.084 10.41-6.603 19.49-14.977 25.69-12.343 9.14-26.424 9.53-40.962 7.37-.863-.13-1.728-.26-2.585-.43-2.547-.5-5.442-.89-6.937-3.05 10.117-1.44 18.939-1.45 28.722-5.16 11.394-4.32 22.827-11.85 27.733-23.43 4.079-9.62 2.71-18.82-.967-28.21m1078.697 505.6a26 26 0 0 1 2.05.06c6.09.42 40.78 27.83 45.31 33 2.16 2.46 3.99 4.94 3.85 8.34l-1.94 1.19c-7.66-.1-14.08-3.1-20.95-6.13-20.36-9.86-41.24-17.57-61.86-26.7 10.87-3.93 22.35-6.94 33.54-9.76M628.321 903.393c-23.855 12.929-67.386 25.397-94.204 29.352-2.381.372-4.8.67-7.158 1.164l-12.27 1.239c.423 7.712.619 15.221.192 22.936-2.432-7.614-4.555-15.334-6.764-23.014-2.946-.385-6.825-1.261-9.581.144-5.711 2.91-8.313 11.317-10.569 16.865l-.628-.46 1.525.382-2.603-1.141c-.043-5.777 3.822-11.143 2.555-16.762-1.598-1.928-2.625-2.966-5.229-3.314-7.938-1.06-18.473 12.664-24.216 17.571 2.611-5.38 6.447-10.374 8.562-15.947 1.263-3.327.499-4.547-.802-7.576-2.146.3-1.498-.064-3.073 1.057-10.185 7.247-20.333 12.033-32.555 14.763 11.941-6.142 20.756-13 30.984-21.47 4.983 1.977 10.545 2.762 15.784 3.86 11.985 1.004 23.881 2.423 35.938 2.159 39.25-.859 76.131-14.013 114.112-21.808m673.139 763.237c27.83 6.4 54.44 14.36 83.01 17.19a377 377 0 0 0-44.71 10.82c-21.15 6.56-42.07 13.95-61.84 23.99 13.83-16.1 20.33-31.09 23.54-52"/><path fill="#71247B" d="M454.889 832.877c50.795 6.819 134.726 44.288 180.783 69.5-35.413-9.966-70.803-23.331-105.4-35.933-14.48-5.342-29.389-9.842-44.044-14.708-6.511 19-10.164 46.404-23.557 61.509-9.006 10.157-29.72 14.931-43.106 15.433l-1.05-1.163c7.387-2.033 15.606-3.791 22.452-7.243 30.778-15.523 27.536-48.494 36.5-77.207-7.645-3.121-15.407-6.062-22.578-10.188m737.191 372.303c.99.38.48.05 1.27 1.3a193 193 0 0 0-2.48 9.45c-7.36 32.05-1.75 56.01 15.82 83.63-9.6.18-18.06-1.87-26.85-5.55-.87-.47-1.75-.93-2.6-1.43-11.62-6.81-19.76-16.88-22.96-30.11a46.9 46.9 0 0 1 6.17-36.4c7.56-11.95 18.29-17.69 31.63-20.89"/><path fill="#71247B" d="M1273.33 1157.39c15.28-1.26 33.74-1.22 46.16 8.83l-.01 1.14c-8.37-.07-15.48 2.08-23.06 5.42-37.59 16.57-67.57 50.02-82.46 87.83-3.74 10.21-5.07 20.29-6.44 30.99-7.14-12.79-12.4-28.17-13.92-42.77-2.04-19.67 3.14-41.42 15.75-56.88a93.46 93.46 0 0 1 63.98-34.56"/><path fill="#71247B" d="M1214.36 1304.7c-2.62-3.2-3.77-5.24-3.3-9.47.63-5.65 2.65-11.28 4.17-16.74 9.7-34.8 29.11-60.85 57.86-82.56 15.1-11.41 32.68-21.74 51.34-25.89 11.16 6.5 17.44 15.16 26.16 24.35-29.84 5.16-54.87 28.84-71.65 52.78-10.51 14.99-35.14 64.28-53.34 66.85-1.73.24-2.51-.01-4.04-.94-1.06-.66-2.29-2.03-3.15-2.87 8.5-8.69 15.84-26.8 22.22-37.7 22.45-38.31 54.76-76.17 99.4-87.8-2.21-2.48-4.73-4.72-7.13-7.01-40 13.81-73.39 47.67-94.05 83.92-7.86 13.79-14.01 29.58-23.75 42.14-.24.32-.5.63-.74.94M492.451 735.4l1.326-.168c18.401-2.167 38.395.478 56.52 3.556 78.997 13.419 125.67 50.265 185.843 98.998-15.12-6.302-29.456-16.482-43.797-24.455a523 523 0 0 0-69.101-31.776c-28.356-10.154-59.087-18.143-89.335-18.216-37.24-.091-71.027 13.283-98.609 38.253-8.361 7.569-15.623 16.142-23.616 24.072-8.755-9.492-18.936-25.876-20.699-38.868-.875-6.444 1.559-11.647 5.663-16.509 20.557-24.348 66.101-32.174 95.805-34.887m56.166-255.025c1.718 1.414 2.149 2.085 2.86 4.289 6.356 19.714 6.282 39.947 15.238 60.633 18.275 42.208 52.489 77.942 87.221 107.401 63.054 53.481 135.483 91.985 207.328 132.002 48.684 27.117 97.29 55.395 143.756 86.184a1153 1153 0 0 1 131.51 102.796c39.85 36.43 77.41 75.57 118.19 110.98 16.62 14.43 34.75 29.31 53.98 40.02 73.85 41.15 177.29 55.04 260.23 40.24 8.84-1.58 17.8-3.36 26.4-5.96 9.8-2.96 34.38-14.48 43.01-14.01 2.77.15 3.13.69 4.89 2.59.42 3.02.28 3.04-1.29 5.69-11.62 6.1-24.89 9.91-37.51 13.46-52.63 14.84-105.32 17.49-159.47 10.78-51.66-6.4-104.48-21.51-149.15-48.73-37.02-22.57-69.19-54.12-100.23-84.09a6420 6420 0 0 0-65.34-62.587c-30.86-29.027-65.76-56.274-100.12-81.073-55.279-39.89-114.898-73.681-174.315-106.952-95.868-53.684-201.019-107.105-269.754-195.777-26.513-34.204-43.002-74.138-37.434-117.886"/><path fill="#71247B" d="m1351.9 1202.25 1.52.83c14.09 22 12.81 35.68 11.42 60.54 5.94 10.66 12.44 21.17 16.42 32.74-5.1 3.79-13.12 5.11-17.3 9.68-1.68 1.84-2.48 2.92-2.48 5.5 1.78 1.26 3.03 2.29 4.33 4.03-.04 2.57-.06 2.5-1.77 4.43-1.76.37-2.88.41-4.28 1.59l4.02 2.56c-4.42 6.84-2.99 12.11-3.58 19.71-.29 3.74-2.43 7.46-5.44 9.69-9.37 6.94-27.19-1.57-37.93-2.57-5.36-.5-10.29.29-14.48 3.89-13.31 11.44-20.28 48.64-21.82 65.79 6.95 12.82 16.73 24.51 24.35 37.05 28.32 46.6 38.51 90.08 38.49 144.45a304 304 0 0 1-5.52-2.41c-3.78-1.7-6.75-2.82-8.34-7-13.49-51.08-17.88-103.08-43.83-150.32-18.36-33.42-39.7-50.12-75.94-60.54 9.89-22.89 25.03-34.55 20.13-62.16 20.28-13.58 29.3-27.32 42.37-47.48 20.71-31.95 40-61.55 79.66-70M1005.61 152.435c16.52-1.123 33.59-.401 50.13.191 94.89 3.396 197.41 25.174 284.07 64.373 29.65 13.416 59.56 27.698 87.58 44.276 131.56 77.844 239.65 195.654 293.64 339.587 44.5 118.655 57.42 262.858 3.66 380.74-28.38 62.238-76.6 117.658-142.21 141.768-72.95 26.81-157.88 21.53-227.98-11.09-29.8-13.43-64.35-35.2-88.56-56.95-32.79-29.46-60.76-64.6-91.72-95.957-17.11-17.33-34.54-35.032-52.71-51.231-20.6-18.367-46.6-38.313-69.03-54.705-34.41-25.149-69.019-50.613-106.1-71.75-74.052-42.211-153.121-76.084-223.201-125.092-20.863-14.59-40.551-31.077-59.527-48.031-48.014-42.898-89.753-111.219-93.033-176.32-2.566-50.938 16.777-99.102 51.05-136.475 68.388-74.574 185.976-115.872 283.234-132.991a745 745 0 0 1 100.707-10.343"/><path fill="#BC62A6" d="M849.893 682.689c32.522 2.72 64.496 18.41 85.851 43.393 1.645 1.925 3.103 3.974 4.481 6.097.612 6.834 27.749 45.761 33.715 52.626-19.706-10.243-38.649-22.127-58.127-32.827-21.243-11.669-43.058-22.189-64.185-34.121-.783-3.694-1.162-8.674-3.794-11.502-2.028-7.464.496-16.292 2.059-23.666m325.567 259.035c12.28 3.992 44.83 17.883 55.81 16.815 53.26 14.48 89.44 27.819 118.08 77.611a108 108 0 0 1 2.55 4.68c-16.24 9.73-34.78 15.73-53.9 11.18-1.31-.31-1.38-.39-2.44-.84-5.25-4.88-18.84-3.71-25.74-9.37-17.39-14.28-32.8-33.67-48.22-50.211-15.33-16.454-32.06-32.349-46.14-49.865"/><path fill="#FEFEFE" d="M666.081 593.636c-45.442-45.988-85.289-102.527-84.891-170.018.311-52.861 21.137-95.201 58.721-131.705 60.378-58.641 163.283-97.291 244.416-113.881a755.2 755.2 0 0 1 162.723-14.939 767.12 767.12 0 0 1 532.25 232.226c72.01 75.016 121.71 163.132 149.77 263.043 14.1 50.189 22.29 103.051 21.15 155.263-1.21 55.342-15.25 139.883-47.01 185.484l-1.05 1.551c-1.47 2.14-3.19 3.99-4.97 5.87l.46.97c.37 8.58-22.28 34.93-28.87 42.18-36.5 40.14-87.26 73.87-142.87 76.12-5.75.24-12.46.79-18.09-.5-1.73-.76-3.33-1.91-4.93-2.9-11.54 2.51-23.19 5.44-35.02 6.08-38.66 2.12-85.9-14-119.9-31.41-7.39-3.78-15.69-7.69-21.85-13.26-3.11-2.63-5.75-5.2-8.28-8.39-16.6-7.87-31.14-18.05-45.12-29.86 7.39 2.53 15.03 4.9 22.84 5.61 1.06.45 1.13.53 2.44.84 19.12 4.55 37.66-1.45 53.9-11.18a108 108 0 0 0-2.55-4.68c-28.64-49.792-64.82-63.131-118.08-77.611-19.04-6.111-49.25-13.506-64.94-24.771-10.3-7.398-19.22-17.278-28.24-26.172-6.27-5.98-13.24-11.362-19.91-16.904 18.41-1.833 36.1-4.853 53.93-9.882l-.2-1.062c-18.38 4.066-36.8 7.912-55.67 8.775-2.28-1.282-5.91-2.856-6.98-5.397-.16-.384-.2-.809-.3-1.213-4.69-1.395-8.38-5.171-12.09-8.251 1.19-.929 2.36-1.854 3.5-2.84 6.55-5.646 29.84-25.571 30.37-32.527-7.4 7.963-23.73 27.872-33.24 31.394-2.54.94-3.49.627-5.85-.514.8-8.777 11.75-22.961 15.57-31.829l.35-.826-1.08-.406c-5.87 9.856-11.71 19.939-16.94 30.154-3.78-3.183-7.06-6.824-10.66-10.015-.21-.19-.53-.221-.79-.331l-1.41 1.152c-3.33-.949-5.6-3.502-8.1-5.766a975 975 0 0 1-4.88-36.81l-1.25-.321c-2.12 5.959 2.94 28.344 4.12 35.803-8.63-6.537-18.29-12.348-26.23-19.703l-1.38-1.297c-5.91-5.467-9.43-13.288-13.24-20.307l-1.39-.043c2.4 6.035 6.12 11.979 9.16 17.747-20.35-13.989-48.443-29.661-63.423-49.352-10.854-14.266-19.212-30.38-29.852-44.846-1.378-2.123-2.836-4.172-4.481-6.097-21.355-24.983-53.329-40.673-85.851-43.393-1.563 7.374-4.087 16.202-2.059 23.666-.034 3.886.807 7.63 1.519 11.432-9.21-4.532-37.566-17.076-42.717-23.74l-1.851.338-3.052-2.598c-10.347-4.328-19.484-11.126-29.648-15.848-2.596-22.266-3.133-43.862-3.25-66.23 10.518-2.948 20.699-6.57 30.956-10.298-29.567-29.004-60.25-34.379-100.936-35.134-13.531-.251-27.037.296-40.446-1.786 2.393 10.38 4.464 20.985 7.672 31.145"/><path fill="#6B1A69" d="M1502.89 1122.4c23.62-5.82 48.55-11.24 73-8.33-22.13 6.42-45.75 4.87-68.07 11.23-1.73-.76-3.33-1.91-4.93-2.9"/><path fill="#71247B" d="M1445.38 547.766c-3.58 11.946-5.92 24.197-9.14 36.236-9.65 36.039-24.21 71.888-49.28 100.063.11-15.389-1.39-29.984-6.11-44.683-20.49-3.333-59.53-7.385-76.96 6.028-1.94 1.495-4.24 3.904-4.65 6.385l-2.24.133c6.86-17.572 14.45-29.855 12.59-49.224 13.46-23.626 47.33-36.396 72.07-43.156 21.1-5.768 42.49-7.231 63.72-11.782m-489.855-168.17a88 88 0 0 1 3.175 2.511c27.953 23.173 61.35 68.057 73.58 101.851 4.19 11.595 5.82 22.902 6.92 35.142-20.61-4.292-37.39-16.401-57.736-22.019-.465.014-.931.006-1.395.042-13.009 1.015-37.839 33.244-46.056 43.768a81.5 81.5 0 0 1-8.054-14.026c-20.68-46.712 13.188-104.015 29.566-147.269m349.135 63.267c.44.854.67 1.208.96 2.236 2.61 9.083 3.42 19.675 4.23 29.076 3.64 42.29-3.47 80.576-21.44 119.05-.37-.028-.73-.061-1.1-.083l-1.82-.098c-2.96-.172-5.8-.376-8.71.365-16.76 4.276-26.25 20.417-34.43 34.182 2.4-10.045 3.98-20.506 3.04-30.836-2.8-36.11-18.94-53.619-41.4-79.987 17.26-20.453 36.7-37.301 59.95-50.651 13.57-7.787 27.6-14.69 40.72-23.254m161.98 409.707c27.97 6.073 70.18 34.924 92.85 53.93-7.92 5.171-15.12 11.908-22.49 17.863-20.32 16.424-40.19 30.6-64.49 40.757-43.29 15.804-52.31-5.292-90.44-17.792 42.02-23.229 62.62-53.492 84.57-94.758M1364.5 741.504c.26-.212.52-.421.78-.637 8.04-6.807 13.71-16.05 21.59-22.97 19.27-16.933 52.06-18.057 76.14-16.333 23.54 1.685 46.9 6.362 69.97 11.155l-.84 1.069c-7.3 9.367-13.08 20.016-19.53 29.976-20.26 31.285-43.23 54.945-76.93 71.4-10.9-6.229-22.12-13.707-34.97-14.549 7.26-11.097 13.33-22.612 10.18-36.369-1.6-6.992-5.21-13.131-11.38-16.987-12.32-7.689-23.59-1.916-36.48-3.544zm34.23 247.28c12.27 3.886 24.77 5.496 37.29 8.271 37.52 8.315 72.69 38.335 95.28 68.395 7.9 10.52 14.22 22.03 21.29 33.1l-46.85 10.72c-21.42 4.7-43.53 7.96-65.33 3.87-20.13-3.78-36.82-13.07-48.37-30.2 14.61-7.6 31.97-18.86 44.12-29.92a154.3 154.3 0 0 0-37.43-64.236M788.406 447.402c.811.193 1.627.371 2.422.622 10.965 3.459 21.489 10.163 31.689 15.446 48.553 25.15 75.484 47.305 102.024 95.861-10.461-.606-24.7-2.832-34.178 2.404-7.985 4.412-10.453 12.51-13.028 20.629-1.106 14.716.469 25.213 5.077 39.201-5.752-4.747-11.339-9.681-17.079-14.433-15.542-12.864-30.849-14.158-49.978-12.259-26.093-42.631-33.34-98.29-26.949-147.471"/><path fill="#71247B" d="M1056.56 519.771c4.31-54.31 43.47-100.536 78.85-139.215 20.21 44.935 37.13 86.473 37.98 136.625-8.98 3.24-16.31 6.815-24.06 12.367-2.51-4.091-4.94-7.543-9.92-8.568-6.76-1.393-15.51 1.41-21.03 5.259-15.42 10.728-22.86 35.647-25.61 53.314a281 281 0 0 0-2.1 18.499c-.1 1.147 0 .688-.35 1.628-.07 6.345-1.01 12.369-2.03 18.614 21.04-37.555 50.67-73.696 91.78-89.944l3.81.274.06 1.219c.09 1.409-.09.904.31 1.722l-1.21.851c-10.47 7.273-22.42 12.165-32.76 19.893-32.02 23.92-53.66 60.412-65.92 97.966-3.47 10.647-5.33 21.679-8.66 32.33l-.15-1.45c-1.16-11.884 1.13-23.871-.47-35.671-5.98-44.174-36.08-84.157-69.36-111.963a250 250 0 0 0-23.398-17.321c-8.03 9.883-16.172 19.661-22.725 30.619-18.54 31.003-24.647 68.896-20.856 104.491 1.725 16.2 5.326 32.553 11.522 47.649 3.399 8.281 7.674 16.369 10.486 24.858l-.96-1.207c-8.916-11.326-15.437-24.31-24.328-35.669-25.887-33.073-69.427-60.554-111.512-65.858-7.063-.89-17.219-.605-23.745-2.792 2.473-.607 4.454.067 6.852-1.099-6.512.119-14.182-1.22-20.451.033-2.235 2.286-1.856 3.359-2.146 6.469-.642-2.594-.421-4.892-.323-7.537 1.735-1.738 4.179-1.381 6.578-1.624-2.457-.821-6.225-.57-8.875-.694 6.619-1.365 14.355-1.124 21.143-1.11 51.624.11 95.18 25.646 130.679 61.249a231 231 0 0 1-3.331-25.614c-4.496-59.002 13.372-95.479 50.807-139.131 33.813 16.516 66.613 48.871 83.983 82.235 6.6 12.696 10.91 26.222 16.6 39.307 3.08-13.63 4.03-27.563 6.45-41.304 1.63-28.673.82-50.262-14.42-75.851-5.74 2.001-11.53 3.919-17.19 6.151"/><path fill="#BC62A6" d="M614.365 377.34c1.565.927 1.307.617 2.309 1.617 6.057 6.043 12.225 12.415 19.517 16.991 5.574 3.499 12.651 5.588 18.87 7.77 29.324 10.292 61.493 13.927 88.808 29.418 10.637 6.033 21.269 14.429 26.065 26.013 5.786 13.977 3.472 33.523 4.958 48.619 1.998 20.305 4.751 40.293 10.125 60.019-15.671-5.919-31.101-11.402-47.64-14.45-20.563-3.789-59.388-1.994-74.804-12.242-34.155-22.706-36.053-91.871-41.176-129.044-1.601-11.621-4.548-23.244-7.032-34.711m861.125-14.425.78 1.062c-19.22 42.692-8.16 93.995-19.93 139.037-2.82 10.785-7.06 22.849-16.63 29.431-10.82 7.439-59.84 14.121-76.89 19.657-17.62 5.717-32.65 15.092-48.46 24.451 2.94-19.632 8.48-38.72 9.88-58.616 1.26-17.955-4.57-48.118-.23-63.316 13.93-48.798 113.9-44.563 151.48-91.706m-432.23-152.223c10.02 42.758 28.78 63.594 54.5 97.325 8.23 10.79 16.84 21.938 21.04 35.02 11.99 37.323-21.43 59.706-40.24 86.691-11.16 16.003-19.75 33.742-28.66 51.055-.38.688-1.38 1.644-1.91 2.248-5.69-5.957-10.63-24.577-16.31-33.248-7.09-10.808-14.25-21.986-22.43-31.981-11.945-14.585-24.831-26.906-34.134-43.604.217-47.219 29.934-69.737 50.584-107.971 9.81-18.155 14.49-35.373 17.56-55.535m228.21 34.045c.42 5.429-.69 10.996-.81 16.45a179.7 179.7 0 0 0 4.06 41.805c6.46 29.963 21.26 59.011 25.27 89.233 1.8 13.593-.12 26.248-8.91 37.241-10.79 13.502-28.79 22.214-43.14 31.435-12.13 7.797-23.43 15.571-34.52 24.797-3.77 3.14-19.61 19.393-23.05 19.811l-1.14.14c-3.51-20.947-6.82-41.21-13.51-61.463-4.63-14.026-11.05-27.406-15.8-41.371-2.51-7.365-4.17-15.156-3.08-22.95 5.39-38.614 63.09-69.276 88.73-95.708 11.35-11.702 18.84-24.882 25.9-39.42m-454.533.964c4.094 3.363 9.625 16.01 13.15 21.094a146 146 0 0 0 17.137 20.284c20.677 20.682 48.213 34.136 67.544 55.956 10.291 11.615 20.259 29.72 19.884 45.623-.361 15.332-11.472 31.798-16.123 46.487a277.4 277.4 0 0 0-13.327 70.476l-.835.618c-29.508-30.926-63.41-50.745-101.069-70.022-19.519-33.51-11.447-61.813-1.031-96.661 9.024-30.187 18.893-62.173 14.67-93.855m811.183 291.377.41.423-.03 1.136c-28.95 36.228-33.31 83.127-57.47 121.571-7.01 11.144-19.46 31.173-32.15 36.352-9.88 4.034-62.03-6.769-78.37-7.811-16.98-1.083-33.4-.523-50.02 3.289l-10.43 3.02c13.23-17.89 23.98-35.746 31.85-56.697 7.06-18.798 14.13-53.974 25.47-68.738 14.69-19.113 79.28-14.113 101.85-14.59 11.37-.24 22.85-1.014 34.01-3.298 13.04-2.671 23.72-7.531 34.88-14.657m-178.05 447.836c42.21-10.137 53.61-17.685 87.35-45.063 10.47-8.5 21.24-18.044 34.09-22.71 53.45 6.483 84.47 61.265 131.7 81.968l-1.05 1.551c-1.47 2.14-3.19 3.99-4.97 5.87l.46.97c-35.92 32.75-96.5 52.76-140.02 75-27.43-46.55-62.15-70.93-107.56-97.586m101.04-258.629c50.17-2.884 96.36 42.954 147.13 36.35 7.66-.997 15.43-4.615 22.86-6.826-11.17 6.38-22.42 12.644-32.21 21.082-16.12 13.905-28.55 31.36-42.33 47.438a225 225 0 0 1-41.57 38.165c-3.73 2.394-7.5 4.753-11.37 6.913-9.31 5.206-27.93 13.668-38.79 10.312-23-7.112-42.89-21.549-64.61-31.765-9.05-4.254-20.74-6.728-29.05-11.817-4.44-2.721-8.8-6.951-12.8-10.325 30.63-14.355 53.61-42.14 73.15-68.983 6.27-8.621 12.56-19.199 20.59-26.201 2.63-2.288 5.74-3.298 9-4.343"/><path fill="#FEFEFE" d="M982.322 516.2a250 250 0 0 1 23.398 17.321c33.28 27.806 63.38 67.789 69.36 111.963 1.6 11.8-.69 23.787.47 35.671l.15 1.45c3.33-10.651 5.19-21.683 8.66-32.33 12.26-37.554 33.9-74.046 65.92-97.966 10.34-7.728 22.29-12.62 32.76-19.893l1.21-.851c-.4-.818-.22-.313-.31-1.722l-.06-1.219-3.81-.274c3.74-2.084 7.46-4.294 11.37-6.074 2.16 2.675 4.51 5.276 6.18 8.291 12.32 12.51 23.17 52.049 26.17 69.15a170 170 0 0 1 2.51 31.608c-.25 21.525-4.3 41.664-10.78 62.11 24.99-20.43 49.12-35.834 81.48-41.507l2.24-.133c22.63-3.111 47.04-5.314 69.4.788 9.23 28.307 6.5 61.39-4.14 88.921l-1.47 2.211c-.29.392-.58.78-.86 1.174-4.28 6.005-6.99 13.902-10.57 20.424-8.47 15.391-22.97 28.619-36.56 39.468 41.15.078 76.62 7.775 112.91 28.163 8.86 4.978 16.95 10.834 25.52 16.232-3.74 6.806-7.64 15.382-13.06 21.022-25.09 38.898-61.79 64.973-106.98 74.721l-12.67 2.668c50.16 21.606 80.8 49.742 101.36 101.133-2.95 2.67-5.85 5.44-8.94 7.96-25.2 17.82-54.12 32.47-86.12 27.3-.32-.05-.63-.12-.94-.17-3.11-2.63-5.75-5.2-8.28-8.39-16.6-7.87-31.14-18.05-45.12-29.86 7.39 2.53 15.03 4.9 22.84 5.61 1.06.45 1.13.53 2.44.84 19.12 4.55 37.66-1.45 53.9-11.18a108 108 0 0 0-2.55-4.68c-28.64-49.792-64.82-63.131-118.08-77.611-19.04-6.111-49.25-13.506-64.94-24.771-10.3-7.398-19.22-17.278-28.24-26.172-6.27-5.98-13.24-11.362-19.91-16.904 18.41-1.833 36.1-4.853 53.93-9.882l-.2-1.062c-18.38 4.066-36.8 7.912-55.67 8.775-2.28-1.282-5.91-2.856-6.98-5.397-.16-.384-.2-.809-.3-1.213-4.69-1.395-8.38-5.171-12.09-8.251 1.19-.929 2.36-1.854 3.5-2.84 6.55-5.646 29.84-25.571 30.37-32.527-7.4 7.963-23.73 27.872-33.24 31.394-2.54.94-3.49.627-5.85-.514.8-8.777 11.75-22.961 15.57-31.829l.35-.826-1.08-.406c-5.87 9.856-11.71 19.939-16.94 30.154-3.78-3.183-7.06-6.824-10.66-10.015-.21-.19-.53-.221-.79-.331l-1.41 1.152c-3.33-.949-5.6-3.502-8.1-5.766a975 975 0 0 1-4.88-36.81l-1.25-.321c-2.12 5.959 2.94 28.344 4.12 35.803-8.63-6.537-18.29-12.348-26.23-19.703l-1.38-1.297c-5.91-5.467-9.43-13.288-13.24-20.307l-1.39-.043c2.4 6.035 6.12 11.979 9.16 17.747-20.35-13.989-48.443-29.661-63.423-49.352-10.854-14.266-19.212-30.38-29.852-44.846-1.378-2.123-2.836-4.172-4.481-6.097-21.355-24.983-53.329-40.673-85.851-43.393-1.563 7.374-4.087 16.202-2.059 23.666-.034 3.886.807 7.63 1.519 11.432-9.21-4.532-37.566-17.076-42.717-23.74l-1.851.338-3.052-2.598c-11.771-24.029-19.066-51.156-19.894-77.948 2.65.124 6.418-.127 8.875.694-2.399.243-4.843-.114-6.578 1.624-.098 2.645-.319 4.943.323 7.537.29-3.11-.089-4.183 2.146-6.469 6.269-1.253 13.939.086 20.451-.033-2.398 1.166-4.379.492-6.852 1.099 6.526 2.187 16.682 1.902 23.745 2.792 42.085 5.304 85.625 32.785 111.512 65.858 8.891 11.359 15.412 24.343 24.328 35.669l.96 1.207c-2.812-8.489-7.087-16.577-10.486-24.858-6.196-15.096-9.797-31.449-11.522-47.649-3.791-35.595 2.316-73.488 20.856-104.491 6.553-10.958 14.695-20.736 22.725-30.619"/><path fill="#6B1A69" d="M801.733 691.787c-11.771-24.029-19.066-51.156-19.894-77.948 2.65.124 6.418-.127 8.875.694-2.399.243-4.843-.114-6.578 1.624-.098 2.645-.319 4.943.323 7.537.29-3.11-.089-4.183 2.146-6.469 6.269-1.253 13.939.086 20.451-.033-2.398 1.166-4.379.492-6.852 1.099l-14.02.211c2.893 27.294 11.701 49.989 20.452 75.545l-1.851.338zm516.107 383.633.98.19c36.87 6.87 66.1-3.69 96.26-24.37l-1.9 5.44c-25.2 17.82-54.12 32.47-86.12 27.3-.32-.05-.63-.12-.94-.17-3.11-2.63-5.75-5.2-8.28-8.39"/><path fill="#71247B" d="m1435.39 868.874 1.93.321c3.36-4.475 6.53-9.038 9.67-13.671-2.48 4.741-5 9.339-7.87 13.858l.46.71.83.106c-25.09 38.898-61.79 64.973-106.98 74.721l-12.67 2.668c50.16 21.606 80.8 49.742 101.36 101.133-2.95 2.67-5.85 5.44-8.94 7.96l1.9-5.44c.15-.49.35-.95.44-1.45.86-4.77-4.51-12.8-6.84-16.84-31.58-54.692-69.33-72.952-128.17-88.719a1629 1629 0 0 0 23.26-1.905c40.32-3.954 80.77-19.475 109.93-48.147 7.87-7.729 14.7-16.78 21.69-25.305"/><path fill="#6B1A69" d="M1191.44 522.276c2.16 2.675 4.51 5.276 6.18 8.291 12.32 12.51 23.17 52.049 26.17 69.15a170 170 0 0 1 2.51 31.608c-.25 21.525-4.3 41.664-10.78 62.11 24.99-20.43 49.12-35.834 81.48-41.507l2.24-.133c22.63-3.111 47.04-5.314 69.4.788 9.23 28.307 6.5 61.39-4.14 88.921l-1.47 2.211c-.29.392-.58.78-.86 1.174-4.28 6.005-6.99 13.902-10.57 20.424-8.47 15.391-22.97 28.619-36.56 39.468 41.15.078 76.62 7.775 112.91 28.163 8.86 4.978 16.95 10.834 25.52 16.232-3.74 6.806-7.64 15.382-13.06 21.022l-.83-.106-.46-.71c2.87-4.519 5.39-9.117 7.87-13.858-3.14 4.633-6.31 9.196-9.67 13.671l-1.93-.321c3.76-6.264 7.99-12.332 11.98-18.46-36.09-23.967-82.3-39.309-125.76-37.97-14.59.449-28.72 3.206-43.15 4.987 23.32-10.551 43.52-24.269 59.78-44.302 29.8-36.723 32.7-72.044 28.17-116.872a180.7 180.7 0 0 0-46.14-.775c-59.05 6.512-99.11 35.681-135.41 80.872 8.13-17.22 18.43-32.352 24.93-50.544a178.94 178.94 0 0 0-.91-120.496c-4.75-12.624-11.42-24.345-17.23-36.481-2.55.809-4.95 1.651-7.4 2.732-.4-.818-.22-.313-.31-1.722l-.06-1.219-3.81-.274c3.74-2.084 7.46-4.294 11.37-6.074"/><path fill="#BC62A6" d="M1171.91 879.748c13.9-5.334 28.86-8.349 43.01-13.108 42.35-14.246 93.03-38.299 137.41-18.804a73.9 73.9 0 0 1 23.11 15.864c-10.79 22.925-28.09 39.598-52.02 48.262-43.57 15.773-95.9 8.768-140.81 2.603-14.85-2.038-29.87-3.785-44.52-6.969-6.27-5.98-13.24-11.362-19.91-16.904 18.41-1.833 36.1-4.853 53.93-9.882zm-179.824-291.36c29.674 17.443 47.634 48.377 56.124 81.004 9.54 36.623 10.79 74.816 13.24 112.363.68 10.398 2.84 22.439 2.26 32.743l-1.25-.321c-2.12 5.959 2.94 28.344 4.12 35.803-8.63-6.537-18.29-12.348-26.23-19.703l-1.38-1.297c-5.91-5.467-9.43-13.288-13.24-20.307l-1.39-.043c-7.04-10.752-11.56-23.15-17.03-34.743-21.19-44.921-42.605-95.232-32.276-145.897 2.889-14.169 8.133-28.107 17.052-39.602m138.654 249.907c9.69-12.213 20.34-23.787 30.47-35.646 25.56-29.929 52.04-64.309 86.38-84.427 16.66-9.763 37.06-15.723 56.16-18.006a326 326 0 0 1 10.47-1.041c5.61 17.573 4.34 33.827-4.19 50.272-24.49 47.243-94.71 81.504-140.48 104.937-18.33 9.386-37.53 20.447-57.16 26.657-1.14.362-2.25.659-3.43.872-4.69-1.395-8.38-5.171-12.09-8.251 1.19-.929 2.36-1.854 3.5-2.84 6.55-5.646 29.84-25.571 30.37-32.527m-52.64 17.627c1.47-19.404 6.68-39.056 9.12-58.467 5.28-41.963 3.88-83.468 18.22-124.065 11.63-32.962 34.55-61.996 66.52-77.347 5.73 10.016 9.61 22.21 11.69 33.526 7.99 43.365-8.04 89.255-29 126.682-7.24 12.936-15.63 25.186-23.16 37.95-8.16 13.839-14.82 29.127-23.92 42.319l-1.08-.406c-5.87 9.856-11.71 19.939-16.94 30.154-3.78-3.183-7.06-6.824-10.66-10.015-.21-.19-.53-.221-.79-.331"/></svg>