<svg xmlns="http://www.w3.org/2000/svg" style="display:block" viewBox="0 0 2048 2048"><path fill="#F3EAEB" d="M0 0h2048v2048H0z"/><path fill="#6F469D" d="M1141.52 606.36c3.19-.468 6.74-.27 9.97-.358-3.52 12.23-8.03 24.108-12.42 36.045-17.38 3.03-33.45 8.502-45.32 22.239-11.23 13.003-17.5 31.291-16.03 48.448 1.6 18.771 9.77 35.701 24.37 47.723 14.16 11.654 32.04 17.445 50.36 15.527 15.36-1.609 33.3-9.941 43.71-21.427 5.27-5.821 9.31-12.833 14.3-18.948 12.91-2.336 25.28-6.268 37.83-10.042-3.87 14.086-9.08 27.142-17.09 39.404-16.83 22.626-42.5 39.783-70.61 43.808-28.18 4.035-55.28-3.715-77.85-20.875-21.34-16.228-35.33-41.374-38.88-67.906-3.49-26.087 4.91-52.869 20.88-73.578 18.68-24.216 47.11-36.066 76.78-40.06"/><path fill="#6F469D" d="M1136.77 487.415c53.67-3.439 103.33 14.124 147.37 43.857l-24.99 23.033c-4.74-2.762-9.4-5.655-14.21-8.279-45.02-24.558-97.34-32.37-146.86-17.733a194.9 194.9 0 0 0-116.065 94.752 183.68 183.68 0 0 0-14.482 140.284 181.9 181.9 0 0 0 90.057 107.158c44.28 23.356 97.85 31.121 146.15 15.947a185.33 185.33 0 0 0 109.7-92.128c23.93-45.969 24.99-97.54 9.68-146.408-4.5-13.085-9.88-25.426-17.24-37.155 7.25-8.403 15.44-15.848 23.52-23.442 19.17 30.659 32.66 62.596 36.62 98.795 6.15 56.225-10.25 115.33-45.82 159.448a220.15 220.15 0 0 1-148.69 81.069 228.74 228.74 0 0 1-167.14-50.99c-42.546-35.087-72.062-86.666-77.16-142.011-5.305-57.589 13.776-121.173 51.037-165.587 40.113-47.807 96.933-75.158 158.523-80.61"/><path fill="#6F469D" d="M1132.18 379.42c83.2-5.336 161.67 26.393 226.93 75.978-7.96 8.375-15.91 16.715-24.21 24.761a437 437 0 0 0-24.93-18.175 293.33 293.33 0 0 0-219.71-43.02c-76.21 14.958-143.379 62.931-186.456 126.869A298.3 298.3 0 0 0 858.5 772.672c15.411 76.737 65.765 143.079 130.234 185.915 61.536 40.885 146.136 54.723 218.186 40.056a303.95 303.95 0 0 0 191.24-130.693c41.61-62.684 54.35-143.079 39.61-216.188-6.1-28.995-18.08-57.844-32.82-83.421-6.71-11.642-14.35-22.713-21-34.393 6.61-7.994 14.54-15.153 21.88-22.475 40.13 40.65 66.58 116.956 71.3 173.593 6.95 83.38-21.3 172.572-75.97 236.31-55.91 65.188-139.81 108.944-225.68 115.384-90.53 6.79-176.705-20.66-245.263-80.232-63.17-54.888-104.911-133.73-110.612-217.624a333.48 333.48 0 0 1 83.544-247.684 329.56 329.56 0 0 1 229.031-111.8"/><path fill="#6F469D" d="M1633.65 68.856c3.43 5.401 24.49 116.821 30.03 135.748 46.94 3.682 93.84 9.995 140.81 12.846l-179.2 181.082c-37.62-3.58-75.73-4.318-113.47-6.685l29.61-30.428a4559 4559 0 0 1 71.25 3.501c22.77-22.466 44.43-46.044 66.85-68.867 14.21-14.471 38.64-37.1 49.79-52.398a5146 5146 0 0 0-76.33-6.865c-15.51 14.455-30.1 30.177-44.93 45.331l-68.67 69.943c-15.99 16.303-32.88 31.744-49.04 47.892l-122.99 123.109c-29.76 29.043-57.97 59.525-87.17 89.113-18.83 19.076-39.28 37.128-57.07 57.121 14.42 10.017 29.93 18.406 44.16 28.654-45.72 11.428-90.69 26.477-135.83 40.086 11.33-30.371 21.03-60.819 29.89-91.996 3.68-12.965 7.95-26.034 10.47-39.281 8.85 12.92 17.83 25.919 27.63 38.136a32568 32568 0 0 0 288.55-290.437c-9.28-37.002-15.66-74.655-25.46-111.522 16.53-19.366 35.42-36.48 53.08-54.762 38.98-40.353 77.43-80.545 118.04-119.321"/><path fill="#F3EAEB" d="M1613.58 135.77c3.54 3.445 13.76 66.102 15.34 76.208-35.3 39.258-75.12 79.281-113.16 116.12-4.57-25.547-10.58-50.941-15.95-76.338z"/><path fill="#6F469D" d="M1138.35 278.446c92.88-4.293 202.64 31.215 274.49 90.314 16.1-14.539 29.8-31.191 47.05-44.597 2.24 8.258 3.84 16.781 5.7 25.136-17.15 20.003-39.05 41.096-58.93 58.584-11.63-11.236-25.56-20.785-39.08-29.644a391.25 391.25 0 0 0-192.38-64.763 391.4 391.4 0 0 0-287.282 97.898 406.84 406.84 0 0 0-136.292 280.185c-6.049 97.745 32.33 203.896 97.055 276.927a398.67 398.67 0 0 0 274.339 136.344 404.07 404.07 0 0 0 291.89-103.22 399.68 399.68 0 0 0 121.52-211.668c5.15-25.007 7.06-50.248 8.44-75.695 1.54-92.556-28.67-182.989-89.08-253.514l25.9-23.729c12.96 16.914 25.84 33.763 37 51.946 37.32 60.813 56.14 131.191 59.42 202.131 4.97 107.444-32.9 220.349-105.96 300.029-80.43 87.74-188.8 142.91-308.53 147.54a426.36 426.36 0 0 1-307.793-114.44 429.1 429.1 0 0 1-137.904-303.211c-4.127-115.144 43.206-225.767 121.056-309.404 76.926-82.643 187.401-129.005 299.371-133.149"/><path fill="#6F469D" d="M1094.62 84.437c30.65-1.871 62.32-.14 92.87 2.63 82.74 7.5 160.11 25.096 235.41 61.01 23.63 11.271 47.23 24.079 67.78 40.438-9.25 7.482-16.8 14.952-24.06 24.389-17.36-10.766-34.59-21.955-52.74-31.347-32.21-16.673-68.27-28.99-103.16-38.68-167.14-46.423-370.406-23.173-530.165 40.521-33.116 13.204-65.31 29.617-96.295 47.169-165.627 93.823-279.274 254.687-262.561 450.73 5.385 63.154 28.922 118.705 5.995 182.292-29.656 82.25-137.656 121.797-155.956 190.051-16.787 62.62 64.549 53.8 86.394 93.81 18.091 33.13-15.683 69.34-24.275 100.17-1.317 4.73-3.084 11.62.149 15.98 9.06 12.21 68.569 16.83 85.904 20.12a221 221 0 0 0-17.545 6.25c-19.914 7.96-47.746 21.34-56.317 42.72-9.327 23.25 19.081 40.08 30.709 56.11 5.705 7.86 9.06 16.76 11.052 26.21 10.604 50.3-11.638 105.81 9.085 154.9 7.109 16.84 20.112 29.91 37.168 36.57 16.807 6.56 35.04 5.78 52.287 1.34 22.784-5.86 45.108-17.15 66.69-26.5 33.77-14.64 67.574-29.31 102.446-41.18a1977 1977 0 0 1 98.608-30.38c60.932-16.63 122.858-31.28 180.924-56.6 51.759-22.57 97.873-59.63 122.353-111.48 13.58-28.77 21.58-60.36 29.68-90.98 2.32-8.8 4.84-17.61 6.72-26.52 2.04-9.7 3.03-21.04 6.77-30.2.11-.26.22-.52.33-.77 8.84 57.8 12 97.98-10.43 154.37-56.18 141.22-224.024 163.32-351.714 201.02-21.742 6.42-44.028 12.42-64.868 21.42a565 565 0 0 1 40.795 30.09c97.101 79.28 142.366 209.51 154.613 330.94 18.673-.36 37.517-2.19 56.188-3.12 51.99-2.6 104.096-5.63 156.126-7a5102 5102 0 0 1 494.11 11.18c-11.93-22.31-27.83-42.99-40.79-64.82a727 727 0 0 1-81.78-194.65c-43.49-172.65 3.11-317.23 91.84-465.89 22.29-37.78 47.53-73.47 71.49-110.18 91.92-140.814 169.48-273.912 159.1-448.155-4.94-82.89-31.53-156.519-72.8-228.066-9.27-16.068-19.02-35.457-33-47.856 9.99-6.919 18.53-16.276 27.13-24.801l.52.685c8.22 10.93 15.25 23.167 22.63 34.686 44.35 69.217 75.11 143.898 86.57 225.666 6.93 49.513 5.28 97.625-1.64 147.013-14.26 101.897-56.63 192.902-109.69 280.018-34.23 56.2-73.02 109.42-107.93 165.14-52.57 83.94-99.08 180.42-112.78 279.44-4.05 29.24-5.94 59.16-4.18 88.66 1.34 22.23 5.06 44.21 9.45 66.03 21.47 106.88 70.02 199.38 131.34 288.39 10.78 15.65 21.4 31.51 32.85 46.68-44.88-4.12-90.36-5.8-135.37-8.29a5055 5055 0 0 0-421.86-6.68c-82.23 2.26-164.241 7.95-246.387 11.89-4.837-23.11-6.402-47.63-10.11-71.02-7.84-49.46-22.414-99.64-43.113-145.27-31.077-68.5-87.368-137.36-159.172-164.55-45.774 13.54-86.684 42.48-133.329 53.58-29.683 7.06-64.424 6.05-90.91-10.59-55.194-34.69-50.218-104.87-48.122-161.61.577-15.61 2.38-34.03-1.736-49.18-5.957-21.92-37.078-31.57-43.705-63.47-4.458-21.46 4.856-39.17 16.33-56.36-5.838-3.58-11.551-6.99-16.302-12-29.164-30.8 4.001-72.46 14.908-103.5 1.541-4.39 3.702-9.96 3.572-14.62-.396-14.28-36.717-25.98-47.512-31.47-8.691-4.43-17.27-9.71-24.528-16.26-14.225-12.84-20.292-28.74-21.165-47.66-3.449-74.825 90.668-129.281 135.357-178.433 32.642-35.903 37.567-82.267 30.51-128.798-2.369-15.621-6.223-31.004-8.788-46.597a460 460 0 0 1-5.112-51.581c-6.34-132.953 41.313-250.911 130.223-348.584C636.874 188.124 822.514 116.602 994.691 92.675c33.279-4.624 66.409-6.685 99.929-8.238"/></svg>