<svg xmlns="http://www.w3.org/2000/svg" style="display:block" viewBox="0 0 2048 2048"><defs><linearGradient id="a" x1="209.188" x2="2151.63" y1="2072.68" y2="489.842" gradientUnits="userSpaceOnUse"><stop class="stop0" offset="0" stop-color="#4D3987"/><stop class="stop1" offset="1" stop-color="#BE318E"/></linearGradient></defs><path fill="#FEFEFE" d="M0 0h2048v2048H0z"/><path fill="#AB2C8C" d="m1758.65 172.357 116.14-41.583a6231 6231 0 0 0 15.78 126.423c-11.55-6.472-43.01-29.341-52.41-32.102l-.41-1.316c3.13-.399 4.21 2.098 7.15 1.959-.36-2.81-.93-5.468-1.61-8.217l.92.163c1.85-2.438 4.11-4.639 6.31-6.757 2.82-2.704 3.65-2.601 7.49-2.506 2.46.061 4.28.132 6.67-.615 3.73-8.3-8.15-20.188-5.44-29.193l1.15 1.03c2.43.172 1.32.509 3.29-1.188 1.23-3.827.34-8.255-.66-12.07-1.64-1.52-3.19-2.663-3.99-4.809l.97-1.191c2.27.983 1.87.98 2.96 2.987l.9.111c2.07-5.279 4.5-10.391 6.89-15.534l-2.01-1.88 1.11-1.586-.42-1.411-2.01.407c-1.65 1.693-3.37 3.161-5.18 4.669-7.24-4.23-12.47-1.718-20.26-.451-2.09 2.474-1.61 5.753-2.02 8.964-.63.336-1.25.691-1.9.998-2.56 1.212-3.49 1.798-5.18 4.136l.25 1.42c3.97 1.054 2.24-1.413 5.85-2.797 2.63 1.006 2.9 1.018 4.44 3.343l-.87 3.011-.39-.622c-2.41-1.036-5.89.761-8.43 1.568-2.09 4.413-3.66 8.767-8.2 11.082-2.51 1.282-4.05 2.697-5.97 4.737 3.89 1.959 8.48 3.332 12.84 3.505.41.016.82.019 1.23.042 2.21.124 4.72-.237 6.22 1.438-4.28 4.942-13.69 6.589-19.29 10.315-2.66 1.772-4.46 4.512-7.22 6.211-1.49.924-1.88 1.645-2.85 3.093l-1.49.008c-.22-2.808-.07-3.037-2.3-4.947-13.86-11.868-32.14-21.875-48.05-30.845"/><path fill="#683889" d="M414.731 1450.24c15.508 6.42 30.549 17.39 45.237 25.68a8849 8849 0 0 1 103.863 58.6c.785 28.83.16 57.85.187 86.69l.208 167.99c.035 17.29 1.79 118.54-.444 125.19-49.709.56-99.425-.37-149.139-.11l.13-315.62a8605 8605 0 0 0-.535-89.12c-.179-19.68-.987-39.67.493-59.3"/><path fill="#FEFEFE" d="M437.055 1487.42c16.923 10.45 33.794 20.79 51.098 30.61 17.679 10.03 35.771 19.44 52.862 30.46l.034 342.7-103.235.4c-1.958-48.06-.692-96.75-.706-144.86z"/><path fill="#683889" d="M185.94 1315.53c14.799 7.17 28.965 15.97 43.441 23.81 33.299 18.01 67.68 36.22 99.533 56.66-1.762 62.56.073 125.41.083 188.01l-.663 330.92c-23.206-.78-46.542-.48-69.766-.59-24.291-.11-48.68-.62-72.955.35a16201 16201 0 0 1 .029-226.41z"/><path fill="#FEFEFE" d="M208.044 1352.49a6893 6893 0 0 0 98.609 55.76c-.825 51.9-.039 103.88.159 155.78v184.94c.013 46.85.818 93.97-.867 140.78-4.156 3.28-84.168 1.62-97.89 1.56z"/><path fill="#AB2C8C" d="M455.632 238.411c.325-.044.649-.102.976-.131 76.377-6.905 169.108 25.034 227.518 73.8 67.307 56.196 112.719 138.646 120.232 226.451a335.6 335.6 0 0 1-79.849 246.491c-41.668 49.5-100.262 88.341-162.729 105.817-22.27 6.23-44.962 9.485-67.95 11.47-81.931 7.852-164.669-22.803-227.493-74.372-14.462-11.872-28.279-24.335-40.563-38.498-43.384-50.017-73.921-118.342-80.158-184.315a329.1 329.1 0 0 1 74.442-241.857c61.299-74.355 139.81-115.615 235.574-124.856"/><path fill="#FEFEFE" d="M461.017 248.426c76.94-5.365 159.835 24.855 218.626 73.606 66.132 54.837 107.966 137.634 115.362 222.99 7.054 81.397-23.668 169.466-76.479 231.574-59.219 69.644-138.447 108.79-229.281 116.083a320 320 0 0 1-222.749-78.172c-63.437-55.849-106.341-137.078-111.516-222.02-5.265-86.409 26.688-171.249 83.602-235.749a318.48 318.48 0 0 1 222.435-108.312"/><path fill="#AB2C8C" d="M475.882 488.036c4.452.117 8.844.64 12.228 3.86 9.465 9.008 5.708 52.242 5.727 65.927 13.544-.028 51.982-3.903 61.63 3.575 2.715 2.104 4.129 4.926 4.315 8.34.209 3.818-.944 7.54-3.664 10.291-8.214 8.308-49.42 4.748-62.406 4.783-.098 14.425 3.765 48.085-2.851 59.598-2.425 4.219-5.815 5.053-10.213 6.321-4.243-.391-7.82-.854-10.987-3.962-8.322-8.166-5.137-48.513-5.633-61.765-13.997-.001-54.319 2.539-64.162-5.761-2.129-1.795-3.111-3.902-3.13-6.7-.027-3.938 3.178-8.77 5.838-11.446 1.601-1.61 3.268-2.832 5.504-3.354 11.201-2.617 44.238-.342 57.942-.232-.131-14.728-2.754-48.812 1.524-60.992 1.594-4.538 4.158-6.406 8.338-8.483m-11.074-163.595c.699.179 1.254.716 1.864 1.101a7030 7030 0 0 1-.219 86.453c-32.266 5.942-65.848 17.049-90.858 39.117a151.26 151.26 0 0 0-51.954 106.226l-86.753-.424-1.147-.202-.79-1.668c.165-7.435 1.816-15.027 3.126-22.341a253.9 253.9 0 0 1 53.513-117.504c44.145-53.106 104.718-84.387 173.218-90.758"/><path fill="#FEFEFE" d="m453.475 336.384 1.207-.028c1.849 2.058.909 53.49.922 61.358-26.176 4.493-49.312 12.122-71.796 26.47-49.439 31.548-65.463 68.077-77.393 122.994l-55.665-.226c-2.127-.149-1.066.145-3.133-1.045-.074-.455-.159-.908-.22-1.364-.77-5.689 1.609-13.806 2.774-19.393 7.408-35.542 21.509-66.19 43.274-95.262 38.763-51.777 96.264-84.49 160.03-93.504"/><path fill="#AB2C8C" d="M630.337 576.748c29.25-.223 58.597-.616 87.835.29-.847 28.426-7.773 57.239-18.873 83.347a254.54 254.54 0 0 1-141.066 138.78c-24.237 8.756-47.859 13.956-73.662 15.14l-.449-89.923c31.921-.45 62.603-12.94 87.401-32.798 36.7-29.387 53.823-68.785 58.814-114.836"/><path fill="#FEFEFE" d="M645.941 586.688a3303 3303 0 0 1 60.927.019 239.5 239.5 0 0 1-23.619 84.3c-28.182 57.99-79.547 100.905-140.029 122.068-16.169 5.019-32.431 8.241-49.112 10.947a5853 5853 0 0 1 .072-61.88c28.198-5.674 53.843-15.322 77.841-31.403 43.441-29.11 64.101-74.087 73.92-124.051"/><path fill="#AB2C8C" d="M483.557 323.667c59.989 2.346 119.663 29.35 162.931 70.57 43.474 41.415 70.139 104.499 71.42 164.212l-88.198-.377a150.12 150.12 0 0 0-37.225-91.555c-27.926-32.208-64.837-51.044-107.294-54.109-.253-29.589-1.514-59.154-1.634-88.741"/><path fill="#FEFEFE" d="M491.782 339.862a219.56 219.56 0 0 1 123.043 48.876c52.427 42.664 79.22 92.612 86.237 159.258-9.455.199-18.943.051-28.401.066-6.763-34.378-15.003-64.348-35.289-93.614-35.468-51.168-84.897-76.816-144.964-87.742z"/><path fill="#AB2C8C" d="m233.21 575.273 89.682-.062a146.25 146.25 0 0 0 30.457 90.277c28.616 37.012 66.246 53.89 111.674 59.694a2315 2315 0 0 0 .803 88.948c-60.551-.839-122.03-28.502-163.917-71.82-42.919-44.386-69.652-104.885-68.699-167.037"/><path fill="url(#a)" d="m1809 208.149 1.49-.008c.97-1.448 1.36-2.169 2.85-3.093 2.76-1.699 4.56-4.439 7.22-6.211 5.6-3.726 15.01-5.373 19.29-10.315-1.5-1.675-4.01-1.314-6.22-1.438-.41-.023-.82-.026-1.23-.042-4.36-.173-8.95-1.546-12.84-3.505 1.92-2.04 3.46-3.455 5.97-4.737 4.54-2.315 6.11-6.669 8.2-11.082 2.54-.807 6.02-2.604 8.43-1.568l.39.622.87-3.011c-1.54-2.325-1.81-2.337-4.44-3.343-3.61 1.384-1.88 3.851-5.85 2.797l-.25-1.42c1.69-2.338 2.62-2.924 5.18-4.136.65-.307 1.27-.662 1.9-.998.41-3.211-.07-6.49 2.02-8.964 7.79-1.267 13.02-3.779 20.26.451 1.81-1.508 3.53-2.976 5.18-4.669l2.01-.407.42 1.411-1.11 1.586 2.01 1.88c-2.39 5.143-4.82 10.255-6.89 15.534l-.9-.111c-1.09-2.007-.69-2.004-2.96-2.987l-.97 1.191c.8 2.146 2.35 3.289 3.99 4.809 1 3.815 1.89 8.243.66 12.07-1.97 1.697-.86 1.36-3.29 1.188l-1.15-1.03c-2.71 9.005 9.17 20.893 5.44 29.193-2.39.747-4.21.676-6.67.615-3.84-.095-4.67-.198-7.49 2.506-2.2 2.118-4.46 4.319-6.31 6.757l-.92-.163c.68 2.749 1.25 5.407 1.61 8.217-2.94.139-4.02-2.358-7.15-1.959l.41 1.316c-6.31 16.781-30.48 49.959-41.21 66.781-35.9 56.316-72.29 112.491-107.23 169.4-11.83 19.273-26.29 38.279-36.25 58.548 94.47 91.83 139.05 186.627 127.14 319.954-3.81 42.704-10.77 84.819 7.04 125.527 14.95 34.171 52.56 57.845 81.43 79.865 11.74 8.96 24.08 18.15 32.13 30.78 6.37 10 8.94 20.79 6.04 32.45-6.99 28.02-38.45 41.92-61.06 55.32-7.78 4.62-17.8 10.94-19.81 20.48-2.49 11.81 9.9 25.51 16.27 34.64 6.77 9.71 12.86 20.12 10.26 32.46-3.24 15.42-15.61 24.4-27.84 32.67a129 129 0 0 1 1.33 2.61c1.93 3.92 3.47 7.9 4.37 12.2 8.01 38.1-23.73 42.33-33.06 68.62-4.17 11.75-1.22 26.17-.27 38.35 1.91 24.66 3.37 49.54-4.95 73.29-34.12 97.51-177.08 29.27-247.28 34.31a80 80 0 0 0-29.32 8.09c-34.44 16.77-59.24 54.55-71.45 89.75-22.67 65.32-8.66 142.5 20.74 203.31 51.54 31.47 95.51 69.87 132.62 117.74 4.83 6.24 13.02 14.07 15.89 21.38 1.02 2.59.84 3.8-.11 6.34-4.48 3.29-10.09 4.16-15.55 4.41-15.69.7-31.73-.1-47.45-.18l-85.81-.15-293.99.6-1053.839.31c-1.071-40.49.03-81.19-.149-121.72a29201 29201 0 0 1-.075-331.37l-.198-227.61c-.325-56-1.808-112.24-.072-168.23l22.618.21.942 826.16 471.148.15a1288 1288 0 0 1 13.957-57.75c3.701-13.88 8.629-28.13 10.309-42.41 2.56-21.75.451-46.31.558-68.39l.135-118.19c.011-25.38-.389-50.89.798-76.25a3070 3070 0 0 1 122.586 68.37c24.622-19.99 47.114-39.48 74.739-55.73 24.49-14.41 51.273-25.23 76.855-37.6 6.226-16.02 15.054-31.03 21.537-46.99 24.467-60.23 30.032-127.28 11.548-190-5.539-18.79-13.782-36.93-21.394-54.95-9.199 5.82-19.399 9.82-30.329 10.55-14.538.97-28.528-3.43-39.266-13.41-14.065-13.08-16.629-28.33-17.267-46.5-37.172-16.93-74.792-32.63-111.539-50.51-6.25 5.56-12.432 10.89-19.84 14.85-16.262 8.71-30.783 6.85-47.657 1.83-14.504 15.52-26.534 34.75-39.361 51.76a2093 2093 0 0 1-57.579 71.67c7.072 13.11 11.636 25.36 8.739 40.63-2.76 14.54-11.835 27.08-24.071 35.2a55.6 55.6 0 0 1-42.077 8.21c-14.208-3.04-27.738-12.01-35.508-24.38-7.561-12.03-8.907-27.8-5.31-41.39a54.4 54.4 0 0 1 26.147-33.63c17.975-9.98 34.134-7.21 52.718-1.61 8.811-13.01 18.823-25.38 28.348-37.89 21.773-28.58 44.19-56.67 66.219-85.06-7.519-11.8-11.651-24.28-10.814-38.4.85-14.35 7.135-27.19 18.091-36.52a56.86 56.86 0 0 1 41.546-13.27 55.24 55.24 0 0 1 38.289 19.73c10.135 12.31 13.453 27.52 11.97 43.07 14.182 6.98 29.155 12.73 43.582 19.26 22.281 10.07 44.624 21.2 67.741 29.2 5.123-5.28 9.936-9.49 16.242-13.28-12.557-20.84-26.596-40.62-38.676-61.81-44.457-77.99-68.661-160.805-65.523-250.97 4.379-125.838 63.566-243.849 155.164-329.188C1022.78 428.29 1190.82 367.141 1340.91 373.267c75.61 3.086 174.88 27.237 237.05 72.308 19.05 13.81 34.68 30.568 50.49 47.807 26.77-40.872 52.14-82.698 78.24-123.998 13.01-20.601 27.26-40.419 40.04-61.172l44.29-71.495c5.85-9.34 10.89-20.21 17.98-28.568"/><path fill="#AB2C8C" d="M1403.33 913.381c-.2 1.242.08.726-.84 1.556-.43-2.943 1.1-5.922 2.43-8.481 7.52-14.478 17.6-28.251 26.39-42.005 15.37-24.055 30.35-48.106 45.1-72.505 4.35-7.187 10.13-13.511 14.85-20.471 11.82-17.449 23.13-35.347 34.48-53.108 3.47-5.431 14.93-26.001 18.05-28.577.65-.532 1.62-.407 2.44-.611-32.78 54.828-69.47 107.576-103.89 161.397-13.25 20.706-27.28 41.189-39.01 62.805"/><path fill="#FEFEFE" d="M509.67 1302.26c6.607-.28 13.128.74 19.144 3.58 8.113 3.82 13.985 10.67 16.885 19.12 2.581 7.51 2.364 15.51-1.226 22.66-5.023 10.01-13.778 15.21-23.97 18.69-7.09.65-14.255-.25-20.736-3.31a31.6 31.6 0 0 1-16.784-18.96 31.38 31.38 0 0 1 2.553-24.76c5.365-9.66 13.845-14.29 24.134-17.02m162.954-206.07c7.292-.63 13.912-.27 20.698 2.77a32.07 32.07 0 0 1 17.227 18.46c3.02 8.23 2.649 17.19-1.284 25.05-4.749 9.49-13.128 15.19-22.992 18.44-7.285 1.13-14.629.68-21.424-2.37a31.13 31.13 0 0 1-16.79-18.48 34.1 34.1 0 0 1 2.241-27c4.89-9.06 12.726-13.95 22.324-16.87m216.357 89.1c6.876.33 13.777 2.05 19.701 5.62 7.738 4.68 12.979 12.22 15.003 21 1.967 8.53.587 17.39-4.218 24.74-6.007 9.2-14.546 12.99-24.794 15.42-7.91.2-14.699-.51-21.683-4.7-7.482-4.48-12.585-12.01-14.51-20.47a33.8 33.8 0 0 1 4.988-26.63c6.197-9.04 15.049-13.02 25.513-14.98m465.699-278.934c6.72-.017 13.44 1.156 19.43 4.318 7.71 4.07 13.79 11.071 16.33 19.456 2.75 9.116 1.28 18.948-3.58 27.093-5.68 9.524-13.92 14.239-24.42 16.809-8.13.118-15.01-1.005-22.1-5.379-8.06-4.975-13.95-13.019-15.76-22.366-1.75-9.045.31-18.923 5.8-26.361 6-8.132 14.58-11.933 24.3-13.57m-238.78-72.179c7.47-.43 14.09-.427 20.99 2.866a33.06 33.06 0 0 1 16.75 19.015 35.16 35.16 0 0 1-1.71 27.409c-4.95 9.666-13.53 15.022-23.67 18.029-7.47.544-14.47.154-21.33-3.133a35.37 35.37 0 0 1-18.17-20.841c-2.78-8.531-1.66-17.749 2.59-25.598 5.42-10.006 13.97-14.815 24.55-17.747M658.435 1617.48a2285 2285 0 0 1 83.337 46.74c-18.722 20.92-36.586 41.17-52.509 64.35-11.571 17.1-21.034 35.17-31.402 52.97a9892 9892 0 0 0 .574-164.06m88.217 74.25c2.405 10.94.458 43.76.417 57.63l-.105 142.77a4784 4784 0 0 0-97.694-.01c-.443-10.24 3.413-22.78 5.769-32.77 15.132-64.2 49.701-117.64 91.613-167.62"/><path fill="#FEFEFE" d="M885.071 1165.17c-65.25-87.14-110.039-192.114-105.77-302.555 4.566-118.119 60.162-232.62 146.316-312.732 111.903-104.056 267.743-158.436 419.873-152.702 72.68 2.739 156 24.825 215.97 67.023 19.04 13.395 35.67 29.462 51.48 46.453-2.24 12.922-3.57 29.913-11.04 40.907-4.09 6.017-6.98 6.985-14.03 8.192 1.26-2.78 2.2-3.981 1.36-7.187-1.28-4.897-7.45-10.421-11.17-13.759-25.03-22.499-55.66-36.857-86.52-49.529-18.58-7.627-38.25-12.899-57.75-17.599-99.67-24.025-210.31-19.721-305.47 20.131-96.46 40.398-185.77 116.89-226.076 215.172-31.867 77.703-36.245 163.344-3.48 241.634 13.053 31.188 30.537 59.101 51.74 85.361 5.767 7.14 11.344 14.53 18.486 20.37 8.509-12.75 16.501-25.85 25.173-38.48 10.087-14.7 78.257-108.922 85.037-113.761l.68 1.467-.89-.532-.3.509 1.48-.429-1.77 1.012c-20.75 34.927-45.11 67.686-65.65 102.774-6.29 7.84-11.48 17.55-17.007 26.02-12.822 19.64-25.594 39.18-37.975 59.11-15.894 25.57-33.208 50.42-47.997 76.66-8.148-2.59-16.214-3.18-24.7-3.53m30.043 413.91c1.429-.23 2.84-.44 4.283-.13 8.359 1.79 25.248 12.09 33.663 16.12l90.63 42.85a28822 28822 0 0 1 272.83 128.23l75.41 36.56c22.56 10.82 45.82 20.98 67.03 34.35a475.7 475.7 0 0 1 117.27 104.18l-283.48-.13-658.159.95c3.21-8.88 4.932-17.88 6.641-27.13 43.027.46 86.108.02 129.14-.02l-.371-245.6c39.756-39.31 92.624-71.39 145.113-90.23"/><path fill="#683889" d="M1007.42 1757.8c17.8 7 36.33 20.34 53.09 29.97 25.98 14.94 52.81 28.76 78.31 44.48a5031 5031 0 0 0-.45 82.53 8729 8729 0 0 1-130.98-.95c-.53-51.91-1.3-104.15.03-156.03"/><path fill="#FEFEFE" d="M1030.28 1796.32c26.96 18.04 56.62 32.71 84.9 48.61-.36 15.37 1.23 31.52-.58 46.74l-84.43-.24a6206 6206 0 0 1 .11-95.11"/><path fill="#683889" d="M834.112 1673.46c16.481 7.76 32.378 17.6 48.293 26.5a3041 3041 0 0 1 78.624 44.77l-.014 169.6-127.606-.38c-.836-42.09-.258-84.25-.148-126.34.1-38.02-.386-76.16.851-114.15"/><path fill="#FEFEFE" d="M855.855 1710.55c10.598 5.22 20.69 12.19 30.936 18.13 16.864 9.77 33.942 18.98 50.387 29.46a5167 5167 0 0 1 .345 133.68c-26.955 1.48-54.666.29-81.711.55zm113.135-656.2c-7.142-5.84-12.719-13.23-18.486-20.37-21.203-26.26-38.687-54.173-51.74-85.361-32.765-78.29-28.387-163.931 3.48-241.634 40.306-98.282 129.616-174.774 226.076-215.172 95.16-39.852 205.8-44.156 305.47-20.131 19.5 4.7 39.17 9.972 57.75 17.599 30.86 12.672 61.49 27.03 86.52 49.529 3.72 3.338 9.89 8.862 11.17 13.759.84 3.206-.1 4.407-1.36 7.187l-.48.337c-25.47 33.836-46.54 71.431-68.96 107.335l-90.25 143.016c-16.65 26.903-32.29 54.983-50.98 80.532-12.05-5.891-24.11-6.902-37.01-2.615-11.43 3.798-19.12 10.597-26.54 19.688-1.34 1.639-3.12 4.682-4.65 5.899-1.79 1.419-5.01-.031-6.96-.51-.43.088-.86.193-1.3.264-2.89.469-112.01-39.44-123.79-44.26-2.72-5.025-2.57-11.745-4.29-17.234-5.29-16.837-18.68-31.33-35.74-36.346-2.96-.869-5.93-1.326-8.96-1.806-.55-.088-1.1-.204-1.66-.286-3.76-.554-20.49.657-23.19 3.288-.47.453-.8 1.031-1.2 1.542-2.83 3.566-5.86 4.316-10.07 5.365-7.1 1.768-14.69 13.406-18.14 19.561-5.31 9.45-7.7 23.866-4.53 34.346 1.66 5.478 5.29 11.617 2.35 17.171-3.56 6.709-8.72 12.996-13.17 19.16-11.41 15.815-23.46 31.093-35.01 46.79l-33.78 46.597c-5.766 8.08-11.267 16.93-17.61 24.54-1.969 2.36-3.114 3.79-6.062 4.74-17.56-12.05-53.477-80.412-62.389-102.656-4.45-11.107-6.599-22.865-10.283-34.19-6.201-19.065-10.233-108.832-1.492-125.613.295-.565.621-1.112.932-1.668-.495-2.347-1.808-3.97-3.83-5.259-1.129-.72-1.409-.792-2.529-1.267-5.31 4.918-7.817 42.757-8.105 50.535-2.955 79.858 21.886 151.561 71.954 213.628 4.495 5.57 8.751 11.77 13.551 17.03 1.107 1.21 2.246 2.19 3.507 3.23 1.784-.11 1.236.29 2.127-.75 8.898-10.42 15.393-24.09 23.178-35.42 11.861-17.274 25.321-33.653 37.751-50.529 9.02-12.232 39.32-57.896 48.68-64.624l1.62.198c.43 2.055 1.02 4.02.02 6.007-1.66 3.268-4.56 6.445-6.6 9.544-6.12 9.348-12.22 18.691-18.47 27.952-8.31 12.297-15.67 25.137-23.79 37.549-2.91 4.458-14.18 23.483-17.36 26.043l-1.61.3c20.54-35.088 44.9-67.847 65.65-102.774l1.77-1.012-1.48.429.3-.509.89.532-.68-1.467c-6.78 4.839-74.95 99.061-85.037 113.761-8.672 12.63-16.664 25.73-25.173 38.48"/><path fill="#AB2C8C" d="M968.99 1054.35c-7.142-5.84-12.719-13.23-18.486-20.37-21.203-26.26-38.687-54.173-51.74-85.361-32.765-78.29-28.387-163.931 3.48-241.634 40.306-98.282 129.616-174.774 226.076-215.172 95.16-39.852 205.8-44.156 305.47-20.131 19.5 4.7 39.17 9.972 57.75 17.599 30.86 12.672 61.49 27.03 86.52 49.529 3.72 3.338 9.89 8.862 11.17 13.759.84 3.206-.1 4.407-1.36 7.187l-.48.337c-.5-.24-1-.47-1.5-.72-8.28-4.184-17.53-15.803-25.16-21.982-10.25-8.3-23.53-15.389-35.23-21.388-99.21-50.892-232.41-62.8-339.29-31.322-83.06 24.461-155.64 66.445-212.748 132.147-16.95 19.501-32.203 39.535-44.623 62.306-39.098 71.687-53.146 156.944-29.716 236.207 11.215 37.944 40.68 92.289 68.134 120.779 32.773-49.741 71.563-95.347 104.553-144.893-5.5-15.634-8.09-30.838-.68-46.49 6.43-13.567 18.46-24.867 32.67-29.834a55.54 55.54 0 0 1 42.96 3.091c13.76 7.027 24.03 20.51 28.29 35.266 1.43 4.958 2.04 10.218 2.44 15.35 17.39 4.342 34.44 12.339 51.39 18.301 24.32 8.553 49.86 15.416 73.16 26.527-.43.088-.86.193-1.3.264-2.89.469-112.01-39.44-123.79-44.26-2.72-5.025-2.57-11.745-4.29-17.234-5.29-16.837-18.68-31.33-35.74-36.346-2.96-.869-5.93-1.326-8.96-1.806-.55-.088-1.1-.204-1.66-.286-3.76-.554-20.49.657-23.19 3.288-.47.453-.8 1.031-1.2 1.542-2.83 3.566-5.86 4.316-10.07 5.365-7.1 1.768-14.69 13.406-18.14 19.561-5.31 9.45-7.7 23.866-4.53 34.346 1.66 5.478 5.29 11.617 2.35 17.171-3.56 6.709-8.72 12.996-13.17 19.16-11.41 15.815-23.46 31.093-35.01 46.79l-33.78 46.597c-5.766 8.08-11.267 16.93-17.61 24.54-1.969 2.36-3.114 3.79-6.062 4.74-17.56-12.05-53.477-80.412-62.389-102.656-4.45-11.107-6.599-22.865-10.283-34.19-6.201-19.065-10.233-108.832-1.492-125.613.295-.565.621-1.112.932-1.668-.495-2.347-1.808-3.97-3.83-5.259-1.129-.72-1.409-.792-2.529-1.267-5.31 4.918-7.817 42.757-8.105 50.535-2.955 79.858 21.886 151.561 71.954 213.628 4.495 5.57 8.751 11.77 13.551 17.03 1.107 1.21 2.246 2.19 3.507 3.23 1.784-.11 1.236.29 2.127-.75 8.898-10.42 15.393-24.09 23.178-35.42 11.861-17.274 25.321-33.653 37.751-50.529 9.02-12.232 39.32-57.896 48.68-64.624l1.62.198c.43 2.055 1.02 4.02.02 6.007-1.66 3.268-4.56 6.445-6.6 9.544-6.12 9.348-12.22 18.691-18.47 27.952-8.31 12.297-15.67 25.137-23.79 37.549-2.91 4.458-14.18 23.483-17.36 26.043l-1.61.3c20.54-35.088 44.9-67.847 65.65-102.774l1.77-1.012-1.48.429.3-.509.89.532-.68-1.467c-6.78 4.839-74.95 99.061-85.037 113.761-8.672 12.63-16.664 25.73-25.173 38.48"/><path fill="#AB2C8C" d="M1239.27 521.411c46.63-2.118 97.39 13.617 134.51 41.835 33.15 25.198 61.73 63.895 67.08 106.086 3.65 28.835-3.3 56.957-21.15 80.007-23.59 30.472-59.18 42.814-96.19 47.576-51.67 1.473-105.56-14.766-144.93-49.291-30.68-26.904-56.42-68.64-58.96-110.124a103.58 103.58 0 0 1 26.75-75.57c23.49-26.127 58.46-38.657 92.89-40.519"/><path fill="#FEFEFE" d="M1235.95 533.407c48.28-4.169 98.62 13.31 136.34 43.071 29.64 23.388 52.03 59.131 56.08 97.045 2.84 26.579-4.39 51.253-21.39 71.86-20.07 24.329-49.11 36.728-80.1 39.766-47.43 4.408-99.13-14.247-136.12-43.481-29.31-23.173-53.81-58.53-57.94-96.4-2.65-24.251 2.88-50.112 18.38-69.329 21-26.044 52.2-39.124 84.75-42.532"/><path fill="#AB2C8C" d="M1366.86 650.774c1.62-.029 3.43-.028 4.96.567 2.32.9 4.22 2.508 5.28 4.747l-.85 2.064c-4.39 3.426-10.27 4.828-15.49 6.62 7.65 3.027 28.49 8.843 31.95 15.802-.4 2.784-.2 2.768-2.36 4.51-5.29.482-10.96-2.297-15.91-4.015-11.16-3.742-35.96-10.189-43.61-19.501l1.07-1.074c4.54-.247 8.45.643 12.84 1.597 7.73-2.989 14.9-7.286 22.12-11.317"/><path fill="#AB2C8C" d="M1171.93 582.163c16.94-22.305 45.77-29.918 71.97-34.515 3.2 9.504 22.49 79.109 22.57 85.205.03 2.214-.61 2.56-2.01 4.125-2.59.772-3.1.874-5.72.277-7.31-8.971-21.71-63.01-26.37-77.515-18.34 6.488-34.46 13.161-49.65 25.491l2.67 2.374c6.57 5.811 27.55 26.903 29.68 34.318.46 1.612.19 1.255-.75 2.908-7.52 2.722-42.52-5.971-51.82-7.695-3.06 15.427-2.05 31.721.95 47.066 10.35.837 51.46 5.736 57.93 10.852 1.31 1.037.93 1.687 1.01 3.201-5.08 7.486-30.58 17.587-39.65 20.636.4.588.79 1.18 1.21 1.75 18.14 24.468 56.09 49.466 86.42 53.927-6.71-13.798-6.93-29.016-10.82-43.608-6.59 3.183-36.4 19.662-41.9 18.959-2.26-1.567-4.55-2.79-5.72-5.391 8.88-8.215 43.61-25.559 55.58-28.879 3.53 10.402 13.88 48.59 12.26 58.017-2.39 1.929-3.95 1.579-6.96 1.794.5.34.96.78 1.52 1.02 11.82 5.04 46.46-.276 58.96-3.211-4.3-13.916-15.23-34.481-15.92-48.047.57-1.21.58-2.327 2.04-2.638 6.02-1.28 45.51 19.809 53.76 23.76 5.25-4.985 9.7-10.075 13.27-16.406 10.96-19.395 14.53-40.712 8.55-62.303-4.96-17.925-24.48-46.274-40.6-55.469l-2 .644-.76 1.615c-.32.673-.69 1.327-.99 2.012-.22.514-.35 1.072-.63 1.56-1.57 2.778-33.78 24.665-37.59 25.637-6.39-3.675-16.68-57.569-20.06-68.492 34.13 5.965 66.71 23.094 89.84 48.973 17.44 19.506 29.17 44.829 27.57 71.404-1.6 26.318-14.92 49.163-34.42 66.298-12.44-9.422-28.07-14.868-41.52-22.927 5.61 13.788 10.05 28.303 14.96 42.369-36.44 12.12-81.6 9.094-115.97-7.873-35.11-17.331-66-47.181-78.52-84.966-7-21.115-7.48-44.066 2.62-64.247 13.29 2.912 26.65 4.863 40.1 6.797-9.27-9.079-17.78-18.047-25.09-28.807"/><path fill="#FEFEFE" d="M1167.5 675.637c9.25.919 22.37 2.064 30.6 6.226l.35 1.25-3.71 1.488c-5.33 1.397-9.95 4.097-15.25 5.432-4.2-2.075-8.78-10.37-11.99-14.396m141.28-106.28c14.03 4.429 28.15 9.519 40.07 18.386-3.87 1.448-7.57 3.241-11.31 5.001-6.91 4.371-13.62 9.148-20.4 13.735-2.49-12.471-5.17-24.809-8.36-37.122m330.79-27.222c63.86 49.675 107.83 137.551 117.85 216.971a283 283 0 0 1 1.58 58.309c-4.12 57.831-19.65 116.926 14.07 169.554 10.59 16.541 25.22 30.811 39.98 43.681 15.85 13.81 62.85 46.12 69.93 62.92 2.86 6.76-.46 14.2-4.69 19.58-19.9 25.33-79.76 34.68-76.72 72.75 2.16 27.12 25.84 44.15 27.56 56.76.54 4.04-1.2 7-3.66 10.03-17.63 21.68-64.72 18.06-71.85 26.45 1.02 2.94 2.97 4.15 5.72 5.53 9.95 4.99 45.79 11.17 49.35 20.4 1.57 4.08-1.16 9.49-3.21 12.92-10.02 16.71-26.28 25.45-32.06 45.44-10.02 34.65 13.13 75.99-7.33 116.48-6.87 13.62-16.42 20.83-31.37 24.18-69.9 15.65-147.22-27.48-210.53-10.32-17.93 4.86-33.4 14.57-47.26 26.73-12.69 11.13-24.24 23.7-33.38 37.93-36.51 56.8-41.85 125.64-27.32 190.35 3.43 15.25 8 31.33 15.21 45.27-37.2-15.1-73.44-33.69-109.55-51.23a5237 5237 0 0 0-109.15-51.34 18763 18763 0 0 1-170.54-80.26c-35.66-16.81-73.022-32.69-107.301-52.08 8.77-20.92 19.069-40.48 26.466-62.07a311.7 311.7 0 0 0-7.339-219.51c-4.458-10.92-9.328-22.57-16.183-32.22 7.326-10.28 10.281-22.81 8.008-35.31-1.463-8.05-4.982-14.62-9.153-21.52 35.836-62.26 76.012-122.61 114.582-183.24 18.09-28.429 37.58-56.878 53.35-86.614 15.35 3.931 29.56 5.635 44.03-2.584 6.95-3.941 12.66-9.392 17.79-15.443 45.77 15.039 90.67 32.514 136.48 47.348 4.42 16.649 12.56 30.665 27.72 39.617 12.79 7.556 27.32 9.546 41.65 5.507a55.7 55.7 0 0 0 33.76-26.972c7.4-13.736 7.81-29.951 2.87-44.591-1.12-3.335-2.84-5.966-5.6-8.157 11.73-21.616 25.76-42.099 39.01-62.805 34.42-53.821 71.11-106.569 103.89-161.397 22.39-34.324 43.69-69.517 65.71-104.115 8.95-14.061 17.31-29.908 27.63-42.929"/></svg>