<svg xmlns="http://www.w3.org/2000/svg" style="display:block" viewBox="0 0 2048 2048"><defs><linearGradient id="a" x1="874.619" x2="704.695" y1="543.137" y2="683.69" gradientUnits="userSpaceOnUse"><stop class="stop0" offset="0" stop-color="#E6C2D7"/><stop class="stop1" offset="1" stop-color="#F5E5EE"/></linearGradient></defs><path fill="#FEFEFE" d="M0 0h2048v2048H0z"/><path fill="#552F61" d="M1495.5 176.212c7.09-.506 12.95-.332 19.49 2.979 6.16 3.121 10.96 8.224 14.43 14.141 9.3 15.883 19.15 58.813 25.66 78.809 9.56-.025 18.95.242 28.5.959 3.68 4.004 6.31 7.712 8.65 12.638 17.89 6.118 33.63 15.331 47.4 28.319 51.58 48.612 81.96 153.214 98.66 220.875 3.79 15.353 10.31 33.305 10.53 49 .1 6.845-1.73 14.117-6.73 19.067-3.48 3.447-7.94 4.999-12.8 4.851-10.06-.308-17.61-5.594-22.12-14.437-7.23-14.174-9.47-39.584-13.18-55.754-13.67-59.512-34.89-142.887-76.26-188.927 14.19 47.201 32.13 93.358 46.82 140.458l79.95 264.566c21.01 70.111 43.2 140.039 63.16 210.442 13.83 48.772 25.91 97.962 38.49 147.062 3.48 14.2 7.45 28.66 9.74 43.08 3.37 21.2 4.57 42.33 8.69 63.55 10.09 52 23.89 104.15 31.63 156.52.87 5.87 1.16 11.98-2.5 16.94-2.23.91-3.87 1.43-6.17.17-14.39-7.85-88.97-151.87-101.86-175.32-8.79-16.01-19.91-31.04-27.01-47.88-21.78-51.58-39.03-105.52-57.68-158.3l-121.7-354.142-83.11-231.257-21.61-59.322c-4.34-11.902-9.32-23.891-12.51-36.155 6.13-13.655 17.5-22.704 28.86-31.894-4.82-14.455-8.75-29.263-13.33-43.802-3.84-12.164-10.38-25.824-11.39-38.492-.48-6.108.89-12.27 3.54-17.765 5.26-10.905 14.63-17.176 25.76-20.979"/><path fill="#FEFEFE" d="M1713.99 718.036c.14.137.32.244.43.412 1.28 2.02 1.63 3.483 1.31 5.806-10.16 12.574-67.02 25.331-83.46 28.136-1.34-1.822-1.87-3.929-1.53-6.131 10.23-4.184 22-6.078 32.66-9.144 17.5-5.036 34.04-11.504 50.59-19.079m-22.97-77.178c.22.085.47.106.66.254.83.681 1.49 1.548 2.29 2.275l.97.882c.22 2.233 0 2.56-1 4.596-18.28 14.407-64 24.598-87.64 29.919-2.08-2.484-3-6.128-4.13-9.175 30.19-5.288 61.45-15.098 88.85-28.751m14.76 50.045c2.96 2.512 3.99 7.404 5.25 10.988-26.84 13.184-54.95 21.466-84.07 27.856-1.54.044-.6.142-2.72-.817-1.4-2.586-2.45-4.212-2.05-7.274 7.45-5.086 24.76-7.424 34.15-10.328 16.86-5.217 34.21-11.476 49.44-20.425m-6.6-24.994 1.15.462c1.08 2.923 1.35 6.016 1.77 9.086-26.6 15.515-57.2 22.576-86.98 29.027l-4.83-11.06c30.59-3.536 60.74-15.643 88.89-27.515m135.98 474.241c3.07 4.46 4.03 13.16 5.29 18.57-13.76 8.42-42.34 20.12-58.64 16.54-4-5.65-6.83-11.74-9.44-18.12 21.54.15 45.22-3.71 62.79-16.99m-277.84-849.753c6.69-.857 13.93-.52 20.7-.689 2.85 8.388 6.56 16.51 10.07 24.639-30.96-2.967-60.05 4.298-86.5 20.774-5.03 3.508-9.71 7.929-14.46 11.841-2.63-4.534-4.74-9.328-6.95-14.075 1.48-2.426 3-4.881 4.82-7.071 17.62-21.212 45.49-32.666 72.32-35.419m45.43 18.194c10.01 2.474 20.97 12.133 28.15 19.342 45.64 45.838 74.4 145.224 90 207.577 4.38 17.501 11.18 37.391 11.08 55.454-2.63.641-3.94 1.129-6.57.118-7.18-7.628-13.54-46.792-16.23-58.668-10.32-45.637-22.19-90.053-41.42-132.833-8.49-18.906-18.08-36.914-30.79-53.396-8.01-10.397-30.66-27.646-34.22-37.594m-106.87-115.385c4.08-.278 9.88-1.079 13.64.994 2.82 1.557 4.09 3.645 5.46 6.462 4.2 8.644 6.66 18.613 9.61 27.776a2061 2061 0 0 0 15.33 46.63c-7.04 1.995-13.94 4.489-20.85 6.878l-13.35 5.442-13.61-41.875c-3.05-9.211-6.91-18.664-8.86-28.142-.65-3.172-.56-5.856.14-9.014 1.63-7.358 6.27-11.431 12.49-15.151m343.95 986.864c.98.86 31.22 151.13 33.84 164.73-5.23-11.83-11.66-23.09-17.99-34.35-21.66-39.65-42.44-79.85-65.54-118.69 18.3-1.29 32.75-5 49.69-11.69m-118.82-438.138c5.26 3.546 20.27 59.635 23.59 70.534 24.7 81.095 49.35 161.778 70.28 243.964 5.59 21.97 12.5 43.85 17.04 66.05-17.41 14.18-42.7 19.24-64.63 19.57-2.31-4.08-3.97-8.48-5.75-12.81-12.43-30.95-22.9-63.01-34.31-94.37a6386 6386 0 0 1-89.98-265.759c30.81-8.209 54.3-13.431 83.76-27.179m-154.37-412.577c8.07-1.534 17.88-.236 26.1.198 37.45 96.437 65.94 196.232 94.88 295.457-24.96 11.685-48.47 19.674-75.33 25.541a1344 1344 0 0 0-16.07 2.88l-73.01-202.639c-10.23-28.349-19.7-57.034-30.82-85.049 21.21-21.506 44.47-32.052 74.25-36.388"/><path fill="#552F61" d="M1294.61 76.369c6.56-.45 12.95-.593 19.5.113 26.76 2.885 53.42 17.546 70.05 38.77 5.65 7.217 10 15.754 13.26 24.301 9 23.665 14.25 49.674 21.37 74.027l51.9 181.991a25601 25601 0 0 1 120.71 431.785l100.68 390.564c16.85 63.7 35.35 126.89 51.93 190.69 4.07 15.67 9.93 31.24 13.34 46.97a96.5 96.5 0 0 1 1.27 33.88c-2.89 21.84-14.34 44.44-32.1 57.97-4.76 14.31-9.49 28.7-16.63 42.03-14.38 26.86-36.74 55.6-64.09 70.18-17.53 9.34-37.1 13.57-56 19.22-33.86 10.1-67.94 19.43-101.69 29.87A36276 36276 0 0 1 1114 1819.92a17963 17963 0 0 0-201.256 59.01c-32.416 9.91-65.252 18.6-97.859 27.86L715.101 1936c-21.623 6.29-43.429 11.96-65.035 18.29-15.635 4.57-32.321 11.03-48.498 13.13-13.669 1.78-30.264 1.22-42.567-5.72-6.337-3.58-12.268-8.98-15.506-15.58-4.171-8.49-3.9-19.85-6.347-29.07a4697 4697 0 0 0-26.564-92.78c-.153-.69-.84-3.35-1.42-3.76-.953-.67-6.207-.92-7.564-1.11-19.622-2.75-36.593-8.87-49.574-24.56-9.069-10.96-14.109-24.95-12.527-39.26 2.523-22.83 17.841-40.32 35.31-53.79a1827 1827 0 0 0-28.489-100.03c-4.221-.2-8.526-.53-12.693-1.26-17.923-3.14-37.186-12.77-47.48-28.19-7.783-11.65-10.046-25.6-7.128-39.22 4.047-18.87 18.546-36.22 34.365-46.62-9.267-31.93-17.618-67.72-28.216-98.79-21.366-1.53-42.95-6.47-57.505-23.57a49.55 49.55 0 0 1-11.801-37.53c2.368-22.36 18.355-40.28 35.008-53.87-8.749-33.19-19.37-65.97-28.975-98.94-20.855-1.34-40.953-4.8-56.276-20.32-8.981-9.1-14.317-21.14-14.145-34 .339-25.22 20.366-44.26 36.989-60.75-8.309-32-18.131-63.464-28.068-94.979-.717.024-1.434.053-2.152.056-20.184.087-40.368-5.29-54.952-19.948-10.017-10.067-15.532-22.994-15.137-37.264.744-26.947 18.993-45.215 37.485-62.329a1200 1200 0 0 0-26.286-93.386c-19.27.156-38.492-4.425-52.863-18.075a48.78 48.78 0 0 1-15.353-35.664c.103-13.859 6.393-31.75 14.87-42.747 5.049-6.55 12.083-12.34 18.009-18.15-2.051-12.177-6.109-24.481-9.426-36.402-9.265-33.304-20.387-66.106-29.389-99.459-5.518-20.448-4.446-35.347 6.566-53.753 12.381-20.696 53.284-46.902 75.762-55.933 12.393-4.98 25.547-7.913 38.406-11.429a3793 3793 0 0 0 57.384-16.186 24213 24213 0 0 1 284.856-80.894l361.81-103.345 129.875-37.191c27.02-7.925 53.91-17.107 81.26-23.769-.2-4.798-.74-9.099 1.68-13.421 3.17-2.059 6.62-3.279 10.19-4.484 14.44-4.876 29.52-8.19 44.13-12.587 7.75-2.33 18.4-7.855 26.21-8.399 4.69-.327 9.29 3.834 12.84 6.445 12.65-3.626 25.34-7.5 38.44-9.038"/><path fill="#FEFEFE" d="M503.43 1230.42c20.998-2.31 58.557 4.1 76.783 14.54 3.792 2.17 5.994 5.77 7.233 9.82-.357 2.38-.311 3.65-2.592 5.05-5.478 3.38-15.031-2.28-20.441-4.07-42.492-13.99-103.039-1.93-141.989 17.8-22.438 11.36-41.748 25.83-49.779 50.48-2.312 17.07 3.325 32.19 8.011 48.37-12.575-2.24-25.816-4.9-35.776-13.5a35.43 35.43 0 0 1-12.221-24.91c-.818-13.05 5.648-25.65 14.052-35.26 32.786-37.46 107.086-64.9 156.719-68.32M318.732 588.432c22.93-1.814 53.997 1.068 74.51 12.132 4.381 2.363 9.508 5.468 10.942 10.533-.812 2.376-1.489 3.206-3.786 4.358-7.194 3.607-18.943-2.218-26.421-4.203-45.471-12.07-106.34 5.071-145.736 28.289-20.198 11.904-37.212 26.86-43.219 50.226-1.003 15.556 5.565 31.531 10.412 46.109-12.272-.549-23.868-3.33-33.733-11.099-7.709-6.072-13.26-15.029-14.235-24.889-1.408-14.241 6.296-28.801 15.389-39.324 7.42-8.586 16.438-15.676 25.472-22.476a250.1 250.1 0 0 1 130.405-49.656M626.614 1653.39c10.582-1.47 22.418-.21 32.871 1.68 14.855 2.69 41.853 8.43 50.99 21.7.429 2.62.505 2.55-.903 4.79-.83.46-2.827 1.91-3.651 2.01-6.894.88-29.184-6.02-38.013-7.32-48.762-7.2-107.724 9.32-146.802 38.83-15.113 11.41-23.542 23.41-26.263 42.39 2.227 16.01 6.666 30.61 11.455 45.99-12-.64-23.676-4.01-33.471-11.18-9.032-6.62-15.37-16.93-16.655-28.12-1.429-12.45 4.408-24.6 11.918-34.19 31.292-39.95 108.509-70.79 158.524-76.58m-59.93-210.99c.906-.13 1.823-.18 2.738-.23 21.07-1.23 63.682 2.49 79.713 17.68 2.341 2.22 3.197 3.8 3.285 7-2.872 3.23-6.086 3.89-10.321 3.39-9.043-1.07-18.046-4.71-27.241-6.06-37.854-5.57-73.062 1.63-108.422 15.13-29.352 11.21-59.733 27.52-73.09 57.37-2.081 16.1 5.349 34.57 9.753 49.86-12.061-1.6-22.869-4.49-32.436-12.42-8.131-6.75-15.066-17.23-15.99-27.95-.985-11.43 4.411-22.36 11.481-31.01 32.462-39.71 110.782-68.07 160.53-72.76M447.74 1013.43c20.994-1.54 59.56 1.75 76.141 15.83 3.059 2.6 5.163 5.06 5.544 9.17-1.338 2.56-2.029 2.82-4.538 4.34-7.581-.1-15.448-4.79-22.823-6.63-44.894-11.22-118.344 9.22-157.248 33.11-18.276 11.23-31.876 23.75-37.055 45.19.205 15.32 5.591 29.58 9.649 44.21-13.325-2.08-26.451-4.38-37.177-13.29-6.882-5.71-10.927-13.46-11.66-22.37-1.096-13.32 5.643-26.15 14.109-35.98 34.888-40.52 112.098-69.61 165.058-73.58m-79.099-208.017c11.245-1.676 24.64-.801 35.954.261 12.161 1.142 47.038 6.396 54.24 16.597 1.65 2.339 1.167 4.502.836 7.14-5.768 7.261-16.477 1.694-23.899-.389-42.864-12.032-111.314 3.224-150.504 23.497-18.943 9.799-33.606 23.004-40.162 43.735-2.452 15.837 6.346 35.615 10.304 51.146-12.624-.823-25.739-3.553-36.112-11.237-8.026-5.946-12.767-14.37-13.949-24.278-1.699-14.234 4.125-27.51 13.005-38.291 32.61-39.589 100.345-63.656 150.287-68.181m868.669-40.652 1.38-2.16c28.74-6.836 65.07-3.073 94.36-.269 9.05 29.06 16.18 58.28 24.17 87.613 8.98 32.985 18.67 65.653 25.88 99.102-14.13-16.321-28.24-32.073-43.89-46.948-40.52-38.51-95.75-77.598-101.9-137.338"/><path fill="#FEFEFE" d="M271.145 637.016c3.357 3.536 43.029 145.968 46.905 161.097-24.098 5.296-47.638 17.785-68.975 29.79-2.373 1.372-4.285 2.701-7.119 2.757-.527-.678-.738-.893-1.158-1.764-5.934-12.304-12.303-40.671-16.504-55.13-6.167-21.229-18.103-53.518-21.103-74.437-.787-5.484-.719-10.505 1.255-15.74 8.677-23.014 45.743-37.398 66.699-46.573m61.445 214.255c6.61 12.531 12.395 37.315 16.618 51.794a6010 6010 0 0 1 30.569 108.055c-25.791 7.12-51.62 21.7-74.033 35.99-1.801.87-.812.66-2.995.48-4.761-7.78-7.73-28.12-10.569-37.83-7.314-24.995-15.355-49.789-22.573-74.828-3.375-11.709-7.365-23.651-9.352-35.671a92 92 0 0 1 2.457-5.77c11.568-24.27 46.662-34.197 69.878-42.22m126.078 424.799c3.02 2.48 43.19 147.47 47.087 163.25-25.282 8.76-49.438 18.51-72.478 32.23-1.789 1.08-3.312 1.81-5.313 2.41-.251-.29-.562-.53-.752-.86-2.999-5.23-3.789-15.05-5.528-21.17-3.001-10.55-6.849-20.87-9.984-31.39-4.312-14.47-7.919-29.14-12.188-43.62-3.568-12.11-8.579-25.26-10.289-37.75-.929-6.79-.25-13.31 2.699-19.54 10.762-22.74 44.462-35.21 66.746-43.56m61.328 216.01c1.504-.37.573-.26 2.811.1 4.451 7.09 11.191 37.39 14.077 47.39a7795 7795 0 0 1 32.029 110.02c-26.925 8.38-50.2 20.41-73.419 36.19l-6.045 4.06c-8.409-25.8-15.082-52.72-22.54-78.85-5.377-18.84-12.79-38.97-15.842-58.27-.959-6.07-1.351-13.26 1.341-18.95 10.58-22.4 45.772-34.59 67.588-41.69m60.906 209.91c6.413 6.31 41.547 141.3 47.612 159.74-25.824 9.59-55.467 22.41-73.512 43.84-.822 1.1-1.764 2.01-2.728 2.99-.627-.74-.904-.99-1.377-1.97-5.893-12.16-10.529-36.37-14.372-50.28-7.989-28.93-20.537-63.36-24.619-92.52-.816-5.83-.611-11.66 1.685-17.16 8.196-19.61 48.06-36.62 67.311-44.64m-183.741-638.95c4.729 4.74 42.541 143.81 47.894 162.04-26.687 7.85-52.515 19.16-75.461 34.9-2.159 1.27-1.009.92-3.433 1.11-.932-1.1-1.08-1.19-1.889-2.65-5.892-10.68-9.945-31.54-13.287-43.65l-16.767-59.78c-2.948-10.87-7.315-22.03-9.168-33.1-.733-4.38-.592-8.29 1.093-12.43 9.473-23.33 49.508-37.88 71.018-46.44M206.018 408.75l1.072.488c3.394 6.212 11.669 41.159 14.379 50.724l36.196 124.493c-26.203 8.668-49.13 19.53-71.492 35.768l-6.109 4.348c-9.731-23.989-15.55-50.44-22.74-75.314-5.959-20.616-14.187-42.604-17.588-63.709-.878-5.451-.827-10.51.381-15.912 6.655-29.759 41.997-46.305 65.901-60.886m956.402 381.095c11.01-13.524 49.61-21.951 66.5-25.401.14 40.729 21.78 67.062 49.56 94.645 33.01 32.781 69.03 60.685 97.67 97.889 5.54 7.199 11.63 14.791 15.2 23.207 4.42 10.4 6.42 22.425 9.4 33.355l21.03 78.6c-21.06-36.01-45.37-71.29-76.81-99.07-57.28-50.604-140.21-83.398-170.99-158.621-5.85-14.293-7.76-29.726-11.56-44.604m381 380.405c33.45-15.73 72.85-52.94 98.36-79.64 9.45 38.87 20.63 77.22 31.19 115.79l43.98 163.81a4243 4243 0 0 0 14.04 52.27c4.59 16.6 10.6 34.07 11.94 51.27 1.1 14.13-2.73 29.39-10.09 41.47-20.44 33.55-53.97 37.78-87.97 49.2-5.88-27.64-13.84-54.69-20.74-82.06l-47.02-181.83-22.73-87.45c-3.59-14-6.1-29.24-10.96-42.83"/><path fill="#754985" d="M1524.46 644.885c7.09 22.292 12.06 45.2 18.36 67.721a8429 8429 0 0 1 55.38 206.952l30.85 122.582c3.98 15.95 10.22 32.27 12.73 48.47-25.51 26.7-64.91 63.91-98.36 79.64a133 133 0 0 1-6.99-25.28c-16.36-66.81-35-132.97-52.86-199.379-12.12-45.057-23.08-90.597-36.09-135.388-4.01-9.257-6.13-23.878-8.96-34.222-11.11-40.734-21.16-81.776-31.93-122.609 39.41-3.629 78.19-8.021 117.87-8.487"/><path fill="#FEFEFE" d="m1447.48 810.203 1.64-.43c27.64 16.534 57.63 57.798 72.17 86.335 10.06 19.755 18.01 41.47 23.42 62.944 12.67 50.248 14.73 105.028 2.13 155.488-2.51 10.05-5.31 21.34-10.41 30.43-16.36-66.81-35-132.97-52.86-199.379-12.12-45.057-23.08-90.597-36.09-135.388M1260.3 100.212c30.18-7.983 56.83-13.056 85.32 3.431 14.44 8.353 27.95 21.683 35.13 36.871 5.38 11.388 8.1 25.475 11.52 37.672a4422 4422 0 0 0 18.63 65.189c12.87 43.55 24.41 87.384 36.89 131.029 11.33 39.64 23.65 79.056 34.49 118.825a9554 9554 0 0 0 28.04 101.714c4.59 16.457 8.43 33.873 14.14 49.942-39.68.466-78.46 4.858-117.87 8.487-5.64-18.245-9.58-37.247-14.53-55.721L1356.4 464.1l-2.57-10.861a5480 5480 0 0 0-15.28-57.724l-3.37-12.49c-5.36-18.104-10.56-36.144-14.84-54.54l-2.76-11.017c-3.79-18.865-10.03-38.13-15.39-56.64l-3.04-12.467-28.41-106.497c-3.54-13.834-7.73-27.626-10.44-41.652"/><path fill="#CD9CC8" d="M1299.15 248.361c10.65-3.249 41.08-15.399 50.24-11.053 1.23 2.265 1.27 2.502 1.03 5.067-9.19 10.712-35.07 12.694-48.23 18.453zm18.43 69.107c9.56-4.42 42.22-16.903 51.34-13.37 1.69.656 1.84 1.193 2.92 2.548-.43 3.008-1.43 4.562-3.91 6.387-7.98 5.877-36.91 13.234-47.59 15.452zm17.6 65.557c8.6-2.465 42.25-13.089 48.68-13.4 1.94-.093 4.14.125 5.89 1.055 2.13 1.125 2.49 2.289 3.2 4.363-1.22 3.296-2.39 4.438-5.58 5.986-14.85 7.219-33 9.659-48.82 14.486zm18.65 70.214c8.19-3.62 47.94-19.433 55.79-15.892 2.33 1.047 3.52 1.922 4.7 4.164-.28 2.549-.36 2.985-2.57 4.674-8.96 6.855-42.82 14.138-55.35 17.915z"/><path fill="#FEFEFE" d="M1704.88 1561.11c-.32 1.76-.69 3.3-1.36 4.97-13.72 34.15-40.56 69.13-75.17 83.83-21.43 9.11-45.37 14.15-67.74 20.59-34.25 9.86-68.23 20.29-102.59 29.87a6621 6621 0 0 0-108.56 32.38l-123.42 35.7-438.456 128.62L659.3 1934.3c-17.626 5.06-35.107 11.35-52.972 15.46-11.732 2.7-25.746 3.62-37.037-1.26-4.335-1.87-8.256-4.85-9.979-9.39-2.272-5.99.24-10.95 2.846-16.32 13.961-19.37 38.598-31.55 60.247-40.06 18.677-7.35 37.925-12.49 57.177-18.05l78.131-22.32 208.763-59.7 589.314-172.59c2.23 8.21 4.17 21.06 9.4 27.66 9.68.69 83.16-20.65 91.26-27.1 2.18-8.22-4.21-22.7-6.6-30.76 18.44-6.47 36.98-10.98 55.03-18.76"/><path fill="#FEFEFE" d="m1239.51 97.044 1.28-.1c.54.463 1.21.802 1.61 1.388 2.66 3.944 21.67 81.492 24.44 92.026l70.21 264.95 228.89 865.192 72.37 280.77c-7.86 1.76-15.67 4.82-23.37 7.22a1294 1294 0 0 1-37.67 11.07l-1.27.23c-3.69-3.24-15.29-50.61-17.33-58.31-14.92-56.41-28.03-113.33-42.09-169.95l-58.6-228.61-175.11-655.877a26343 26343 0 0 0-85.47-321.857c-6.52-23.457-11.65-47.151-18.66-70.496 20.09-6.331 40.52-11.822 60.77-17.646M222.309 402.771c55.936-13.999 111.287-30.672 166.674-46.71l228.013-65.284 330.609-94.054c72.935-20.799 146.555-40.403 218.705-63.813 15.87 46.276 24.96 95.084 38.3 142.139l3.9 12.674c4.24 18.585 9.4 37.01 14.22 55.456 1.28 4.824 2.63 9.64 3.79 14.495 4.86 18.642 8.84 38.206 15.08 56.399l3.5 13.557c4.49 17.203 8.81 34.468 13.54 51.605 1.47 4.948 3.08 9.888 4.17 14.936 15.13 56.859 31.33 113.75 44.98 170.971 5.3 21.207 11.32 42.234 16.8 63.396 2.88 11.096 4.89 22.959 8.46 33.794-29.29-2.804-65.62-6.567-94.36.269l-1.38 2.16-.56-.928c-3-.915-4.82-.076-7.83.611-16.89 3.45-55.49 11.877-66.5 25.401-2.4 1.582-5.41 3.201-6.2 6.186-.96 3.605.04 7.431-.15 11.086 9.05 58.168 53.33 98.773 98.49 131.806 21.27 15.555 43.62 29.904 64.45 46.021 37.23 28.806 66.76 64.946 90.05 105.726 8.06 14.1 17.42 28.54 23.24 43.73 8.11 21.17 11.25 44.36 18.05 65.99 3.38 8.52 6.66 20.21 7.85 29.29 7.23 41.19 21.1 82.58 31.23 123.28l36.69 144.32a3087 3087 0 0 0 25.57 97.11 16023 16023 0 0 0-437.5 127.12l-469.872 135.92c-16.131-53.28-29.685-107.24-45.532-160.6 29.879-10.19 60.316-5.87 90.724-1.11.367.45.729.91 1.102 1.35 6.267 7.56 14.998 11.96 24.795 12.68 9.348.68 19.461-1.54 26.495-8.03 6.449-5.95 9.638-14.84 9.963-23.47.492-13.07-5.928-28.28-14.99-37.66-6.037-6.26-13.998-10.18-22.789-10.02-11.644.21-20.361 6.86-28.115 14.81-32.434-10.93-68.369-9.85-101.056-.13-14.088-53.23-33.061-105.51-45.429-159.14 24.118-7.86 63.561-12.93 87.504-2.65 11.011 4.73 13.806 11.02 27.38 12.96 9.681 1.39 19.706.41 27.577-5.89 6.949-5.57 10.658-14.13 11.442-22.86 1.214-13.51-4.03-28.29-12.948-38.48-5.735-6.55-13.543-11.32-22.428-11.55-12.495-.33-21.148 7.76-29.454 15.88-37.238-8.79-69.488-9.94-106.401 1.1a6075 6075 0 0 1-46.656-163.61c30.832-5.9 60.217-6.62 90.683 1.58 6.335 6.82 13.371 10.92 22.637 12.51 9.95 1.7 21.604.69 29.898-5.51 6.866-5.14 10.7-13.12 11.519-21.56 1.302-13.43-3.485-27.58-12.199-37.81-6.078-7.14-14.422-12.83-24.048-13.23-12.25-.52-20.948 6.96-29.369 14.69-9.539-1.83-18.933-4.45-28.521-6.01-25.971-4.22-50.994-.16-76.365 5.46l-45.787-163.54c18.568-6.89 65.417-12.4 83.597-4.55 11.651 5.03 19.531 13.06 32.952 14.76a36.7 36.7 0 0 0 27.534-7.62c6.45-5.05 10.386-12.09 11.327-20.23 1.47-12.71-3.132-26.29-10.992-36.23-6.11-7.729-14.531-13.635-24.546-14.568-12.569-1.172-21.406 5.218-30.426 12.908-38.969-7.898-68.808-6.526-107.274 3.31-13.734-52.97-31.896-104.786-46.042-157.679 28.501-7.486 56.832-8.449 85.802-3.511 7.166 7.152 15.074 11.366 25.248 12.617 10.381 1.277 22.32-.815 30.491-7.71 6.057-5.111 9.381-12.573 10.027-20.394 1.084-13.107-4.836-27.209-13.489-36.873-6.449-7.204-15.366-12.265-25.177-12.532-12.695-.346-22.255 7.027-31.117 15.111-31.515-7.417-64.431-5.548-96.118-.124-8.669-23.073-14.628-47.65-21.438-71.331-8.817-30.66-18.295-61.044-25.533-92.139 26.491-6.883 61.412-12.516 87.721-1.809 6.617 2.694 12.237 9.115 18.61 11.217 9.439 3.114 26.808.915 35.193-4.13 6.882-4.14 11.551-10.939 13.452-18.696 2.769-11.306-.875-23.506-6.978-33.102-5.69-8.945-14.508-16.72-25.109-18.946-13.408-2.817-23.773 4.371-34.39 11.338-36.51-8.007-67.431-5.852-103.506 3.179-18.024-58.76-33.671-118.23-51.46-177.085"/><path fill="#CD9CC8" d="M1258.64 479.235c1.47 4.948 3.08 9.888 4.17 14.936-90.21 24.741-179.52 53.049-269.486 78.724-4.706 1.343-12.162 3.582-16.437.275-2.207-1.707-2.334-3.05-2.685-5.572.996-2.801 2.417-4.254 5.187-5.259 7.957-2.888 16.8-4.463 24.981-6.749l50.92-14.563a8940 8940 0 0 0 162.02-47.788c7.86-2.425 35.25-9.109 40.58-13.271.28-.215.5-.489.75-.733m-17.04-65.162 3.5 13.557c-20.54 1.938-62.74 16.85-84.51 23.245l-153.58 44.169c-12.436 3.583-35.694 13.349-47.764 12.783-3.265-.153-4.815-1.165-6.893-3.572-.196-1.691-.676-2.692.213-4.254 1.93-3.391 5.873-4.992 9.361-6.32 4.756-1.812 9.874-2.667 14.73-4.181 19.589-6.106 39.433-11.048 59.133-16.746l147.93-42.919c19.23-5.51 38.79-9.878 57.88-15.762m-36.99-139.024 3.9 12.674-172.55 50.49c-35.14 10.514-70.233 22.394-105.758 31.388-2.888.731-7.216 1.934-10.2 1.111-2.861-.79-3.242-1.485-4.817-3.8-.115-1.665-.529-2.911.283-4.445 1.622-3.068 4.924-4.694 8.06-5.854 6.814-2.52 14.327-3.877 21.346-5.832a3536 3536 0 0 0 39.544-11.564L1143 292.936c19.9-5.783 41.45-10.154 60.72-17.536zm18.12 68.13c1.28 4.824 2.63 9.64 3.79 14.495-70.28 18.992-140.03 40.235-210.03 60.242-22.563 6.448-45.287 15.567-68.118 20.584-4.315.948-7.912 1.469-12.042-.417-1.936-2.432-2.007-2.836-2.352-5.943 1.232-3.533 3.355-5.158 6.682-6.583 5.27-2.258 11.346-3.084 16.857-4.693l48.623-14.028c52.6-15.387 105.22-31.103 158.01-45.832 8.5-2.373 54-13.275 57.99-17.077.23-.219.39-.499.59-.748"/><path fill="#552F61" d="M719.467 421.39c44.438-6.969 101.503 13.156 137.21 38.711 44.565 31.895 76.598 81.143 85.281 135.414a193.68 193.68 0 0 1-34.959 145.152c-38.122 51.839-87.882 79.581-151.025 89.075a204.58 204.58 0 0 1-152.014-43.377 201.26 201.26 0 0 1-73.763-136.903c-5.703-54.292 13.234-109.129 47.637-151.063 35.68-43.492 85.497-71.409 141.633-77.009"/><path fill="#FEFEFE" d="M724.625 428.423c51.629-3.038 104.578 16.428 143.407 50.292 39.724 34.645 65.238 81.924 68.814 134.784 3.513 51.918-14.239 100.549-48.43 139.49-33.947 38.662-85.473 66.418-137.173 69.879a122 122 0 0 1-3.331.331 198.5 198.5 0 0 1-144.739-46.058c-39.644-33.82-62.488-83.412-66.422-134.969-4.114-53.931 16.444-104.898 51.636-145.291 35.038-40.218 83.014-64.64 136.238-68.458"/><path fill="#552F61" d="M798.437 483.151c13.111-.47 24.892 1.351 36.699 7.344a73.54 73.54 0 0 1 36.614 43.064c15.037 45.917-10.301 93.636-40.766 126.754-15.698 17.064-34.577 31.17-44.92 52.512-5.461 11.268-8.618 25.398-9.6 37.824-.498 6.308 2.107 24.356.003 28.456-1.612.811-3.527 1.619-5.386 1.062-1.607-.481-18.792-26.249-21.781-29.731-17.325-20.185-37.744-28.496-62.786-35.723-20.805-6.606-41.712-10.725-60.833-21.833-25.615-14.881-43.595-35.61-51.058-64.649a85.47 85.47 0 0 1 9.799-66.881c9.133-15.086 22.258-24.93 39.5-29.012 34.588-8.188 75.362 13.318 103.826 31.024 3.501-15.017 8.77-28.845 17.244-41.806 12.9-19.729 30.143-33.557 53.445-38.405"/><path fill="#EACCDD" d="M747.929 616.237c2.595-1.13 6.025-2.332 8.204-4.098 2.75-2.228 6.01-10.51 9.304-10.705l.263 1.487-1.039.715.974 1.48-1.186 20.067a776 776 0 0 0-15.904 5.59c-.174-4.623 1.524-10.591-.616-14.536"/><path fill="#FEFEFE" d="M715.076 628.732c11.306-3.135 22.07-7.937 32.853-12.495 2.14 3.945.442 9.913.616 14.536-10.922 4.287-21.571 9.06-32.885 12.265-.329-4.754-.406-9.543-.584-14.306"/><path fill="#EACCDD" d="M718.176 567.377c.503.327 1.05.595 1.51.98 6.179 5.186 19.073 34.4 19.848 42.336l-8.041 3.28-15.744 6.001c.214-17.447.333-35.271 2.427-52.597"/><path fill="#FEFEFE" d="M775.102 582.849a20.8 20.8 0 0 1 4.135 4.996c13.17 22.214-9.248 82.12-16.08 106.871-4.448-16.232 17.338-83.969 11.653-95.682-1.976-1.287-3.54-2.052-4.63-4.223.086-4.319 2.904-8.244 4.922-11.962"/><path fill="url(#a)" d="M731.926 572.226c8.572-28.099 20.907-60.659 48.461-75.481 12.854-6.915 27.203-8.216 41.151-3.927a66.44 66.44 0 0 1 39.275 32.919c11.103 21.56 9.184 48.515 1.81 70.951-18.403 55.992-68.84 75.768-85.441 117.677-6.124 15.46-7.46 32.102-9.351 48.471-10.427-13.958-19.675-26.014-33.772-36.461.205-.27.367-.58.617-.809.532-.486 1.272-.695 1.839-1.141 4.374-3.445 7.103-5.58 12.719-6.929 1.576-.379 1.793-1.075 2.847-2.261 2.27 2.007 2.46 2.299 5.434 2.657 6.003-2.336 8.428-7.874 10.869-13.494 9.366-21.564 22.027-72.939 22.609-96.192.199-7.946-.727-16.057-3.687-23.484-1.597-4.005-4.061-8.41-8.473-9.766-2.899-.891-5.381-.027-8.095.907-8.999 9.052-13.291 22.25-22.489 31.855-5.033-11.68-9.523-24.811-16.323-35.492"/><path fill="#EACCDD" d="M734.059 726.375c-9.893-5.113-19.595-10.686-30.13-14.414-32.567-11.525-68.78-16.115-95.552-40.06-17.453-15.61-28.2-39.04-29.502-62.339-1.087-19.47 4.897-39.345 18.239-53.839 10.26-11.147 23.824-17.509 39.007-18.022 23.011-.777 56.42 9.5 73.429 25.386 1.03 29.077-5.719 60.508-2.228 89.204.524 4.314 1.134 9.168 4.773 11.985 10.293.356 35.961-11.439 46.816-15.509-2.236 21.246-2.773 45.907-6.83 66.468-1.054 1.186-1.271 1.882-2.847 2.261-5.616 1.349-8.345 3.484-12.719 6.929-.567.446-1.307.655-1.839 1.141-.25.229-.412.539-.617.809"/><path fill="#754985" d="M1307.79 665.142c5.3 21.207 11.32 42.234 16.8 63.396 2.88 11.096 4.89 22.959 8.46 33.794-29.29-2.804-65.62-6.567-94.36.269l-1.38 2.16-.56-.928c-3-.915-4.82-.076-7.83.611-16.89 3.45-55.49 11.877-66.5 25.401-2.4 1.582-5.41 3.201-6.2 6.186-.96 3.605.04 7.431-.15 11.086 9.05 58.168 53.33 98.773 98.49 131.806 21.27 15.555 43.62 29.904 64.45 46.021 37.23 28.806 66.76 64.946 90.05 105.726 8.06 14.1 17.42 28.54 23.24 43.73 8.11 21.17 11.25 44.36 18.05 65.99 3.38 8.52 6.66 20.21 7.85 29.29-4 2.31-7.66 4.85-11.17 7.86-66.13 56.62-118.14 110.15-152.53 191.48-11.03 26.07-19.78 52.51-25.31 80.28-3.95 19.84-6.02 40.37-8.01 60.49-3.4 34.33-2.35 68.79-5.05 103.07-8.38-8.15-15.54-18.32-23.18-27.22a512 512 0 0 0-40.67-42.62c-97.33-91.45-229.645-163.6-358.363-198.55a589.4 589.4 0 0 1-9.874-229.55A610.97 610.97 0 0 1 1187.1 706.247c27.04-11.795 55.32-22.752 83.86-30.333 6.34-1.685 32.24-6.511 36.23-10.061.23-.206.4-.474.6-.711"/><path fill="#FEFEFE" d="M1116.08 1051.86a75 75 0 0 1 3.11.18c5.2.45 9.22 2.36 12.48 6.52 4.4 5.63 5.28 13.32 4.52 20.22-1.07 9.76-5.55 17.53-13.1 23.67-1.59.73-3.21 1.21-4.97 1.35a11.27 11.27 0 0 1-8.78-3.08c-5.53-5.23-5.13-17.1-4.57-24.14.82-10.33 3.36-17.93 11.31-24.72m-8.2-53.614c4.66-.457 9.48-.588 14.15-.524 21.92.301 41.68 10.608 56.58 26.288 6.11 6.42 15.62 16.69 15.37 26.02-1.19 2.3-1.81 3.36-4.5 4.23-2.85.91-4.07-.11-6.47-1.41-14.44-21.69-36.7-42.23-64.83-40.54-6.25.37-15.51 4.57-21.09 1.02-2.27-1.44-2.52-2.15-3.12-4.57.39-1.48.85-2.66 1.76-3.9 3.53-4.83 6.37-5.721 12.15-6.614"/><path fill="#FEFEFE" d="M1167.37 1378.01c-28.33 4.96-59.2 5.8-87.77 2.09-18.33-2.38-38.91-8.66-50.37-24.24-19.99-27.17 1.52-37.3.12-57.97-.96-14.23-13.42-21.99-16.51-34.68-1.42-5.82 4.1-11.34 3.11-15.75-1.53-6.84-7.18-10.71-6.61-18.51.84-11.57 14.33-17.49 15.69-29.54 2.31-20.45-23.34-31.97-34.27-45.96-5.85-7.49-9.369-15.74-7.953-25.37 2.302-15.66 32.723-24.62 46.073-35.14 51.47-40.59 28.93-69.27 35.43-123.417 5.17-42.97 19.9-80.972 48.88-113.758 8.86-10.021 20-18.592 27.78-29.454 5.93-8.272 4.33-19.846 13.49-27.041l1.61 7.847c9.05 58.168 53.33 98.773 98.49 131.806 21.27 15.555 43.62 29.904 64.45 46.021 37.23 28.806 66.76 64.946 90.05 105.726 8.06 14.1 17.42 28.54 23.24 43.73 8.11 21.17 11.25 44.36 18.05 65.99-8.05 16.13-12.58 23.36-28.78 32.22-.09-7.37.09-14.79-.35-22.14-4.61-77.5-128.12-154.29-181.78-202.37-45.6-40.86-94.22-96.138-97.71-160.135a300 300 0 0 0-10.96 10.472c-33.02 33.851-50.91 79.653-52.8 126.657-.62 15.266 1.09 30.376 1.2 45.606.28 35.94-28.73 68.01-58.35 84.95-5.81 3.33-17.73 6.37-21.819 11-1.42 1.61-1.494 3.95-1.369 6.04.867 14.48 14.358 23.06 24.228 31.62 9.17 7.96 17.47 18.09 18.03 30.78.62 14.33-6.84 24.46-15.98 34.49.17.24.33.48.5.72l.86 1.18c21.45 29.87 71.54 7 83.69 13.77 1.64 1.87 2.48 3.59 2.27 6.19-.13 1.65-.61 3.16-1.91 4.19-8.22 6.54-43.67 6.88-54.4 5.85-8.59-.82-16.61-3.02-25.04-4.37l-1.57 1.32c-.78 6.74 13.89 24 15.46 37.03 1.91 15.86-11.34 29.25-7.18 44.19 2.14 7.68 8.09 13.33 14.82 17.21 28.68 16.54 93.04 11.98 123.94 3.81 13.34 30.85 29.62 60.59 43.28 91.39 18.64 42.05 32.13 88.89 33.54 135.03.19 6.1 1.16 15.78-1.28 21.41-.89 2.04-1.21 2.13-3.17 2.81-3.66-2.93-10.74-50.19-12.35-58.11-8.31-40.94-22.35-79.83-40.22-117.58-9.11-19.25-19.58-37.94-27.78-57.61"/></svg>