<svg xmlns="http://www.w3.org/2000/svg" style="display:block" viewBox="0 0 2048 2048"><path fill="#FEFEFE" d="M0 0h2048v2048H0z"/><path fill="#F4E5EB" d="M1835.95 1213.61c43.59-14.41 85.98-33.03 128.38-50.59-.21 3.09-.04 7.78-1.26 10.61-4.1 9.54-25.07 33.16-32.52 42.9-21.01 27.46-41.42 55.54-62.91 82.62-13.47 16.97-27.95 33.18-41.81 49.83-10.88 13.06-21.12 26.61-31.94 39.7-5.88 7.13-18.88 14.84-20.91 23.54-.81-29.46 4.83-58.92 3.37-88.6 15.3-7.05 54.82-16.47 64.11-28.75 1.58-2.1 2.35-4.49 2.32-7.12-.06-5.12-1.38-10.28-1.71-15.41-1.24-19.1-1.89-39.94-5.12-58.73"/><path fill="#BD6EB9" d="M1843.71 714.717a1130.8 1130.8 0 0 1 114.34 375.123c2.9 23.68 7.17 49.38 6.28 73.18-42.4 17.56-84.79 36.18-128.38 50.59-13.63-117.17-19.72-237.59-59.96-349.562 9.13-5.814 19.54-9.644 28.7-15.439 28.8-18.212 32.84-65.32 35.14-96.024.9-12.027.89-25.051 3.62-36.794.08-.359.17-.716.26-1.074"/><path fill="#7D2F84" d="M1610.99 147.86c-.07-16.061 3.53-30.04 15.15-41.911 13.22-13.51 33.5-19.8 52.08-19.68 28.35.183 55.2 9.375 75.29 29.769 18.35 18.618 27.05 44.068 26.58 69.947-.39 21.804-8.02 42.106-23.89 57.36-14.03 13.477-29.29 17.414-48.07 19.926-.39 29.545-3.41 54.237-25.64 75.783a209 209 0 0 1-8.56 7.721c19.01 14.274 37.11 33.616 48.92 54.292 3.62 6.34 5.85 15.13 10.4 20.633 8.9 10.761 21.17 18.957 30.96 28.959 18.89 19.317 45.2 47.663 55.14 72.661 4.86 12.225 7.34 25.918 10.18 38.736 3.3 14.907 6.86 29.908 8.97 45.042a526 526 0 0 1 4.72 61.714c.15 12.64-1.99 34.438.49 45.905-.09.358-.18.715-.26 1.074-2.73 11.743-2.72 24.767-3.62 36.794-2.3 30.704-6.34 77.812-35.14 96.024-9.16 5.795-19.57 9.625-28.7 15.439 40.24 111.972 46.33 232.392 59.96 349.562 3.23 18.79 3.88 39.63 5.12 58.73.33 5.13 1.65 10.29 1.71 15.41.03 2.63-.74 5.02-2.32 7.12-9.29 12.28-48.81 21.7-64.11 28.75 1.46 29.68-4.18 59.14-3.37 88.6-3.32 21.19-2.5 43.74-4.11 65.19a4999 4999 0 0 1-17.3 171.56c-1.43 12.43-4.1 47.33-8.09 57.41-.69 1.75-1.98 2.71-3.44 3.8-.5.37-1.02.73-1.52 1.09-3.96 8.52-7.81 53.13-7.66 64.13 2.04 3.12 4.58 6.55 5.75 10.11 4.54 13.89-.92 37.71-.89 52.92l-.91 1.23c-4.42 6.04-6.89 12.54-10.19 19.19-8.7 17.51-24.66 21.75-42.81 24.66-21.01 3.37-78.99 8.95-95.83-2.5-3.32-2.25-5.63-5.4-6.22-9.42-1.25-8.63 5.29-19.2 10.54-25.72 7.76-9.64 18.18-17.78 27.5-25.92-34.75 7.06-190.98 20.51-214.81 3.89-2.63-1.84-4.97-4.36-5.54-7.64-.66-3.77 1.46-7.33 3.9-10.01 16.91-18.63 59.29-27.65 83.05-37.15a251.8 251.8 0 0 0 44.62-23.25c7.4-4.93 15.38-10.18 20.77-17.36 1.34-8.34 3.38-17.58 2.46-26.01l-1.04-.68c-2.1-1.39-4.62-2.6-5.21-5.23-2.15-9.45-2.76-19.92-4.08-29.56-1.86-13.57-4.32-27.01-6.49-40.53-8.25-34.18-13.02-70.15-19.33-104.81-7.31-40.12-15.63-80.02-23.45-120.04-5.57-28.51-10.5-57.21-16.69-85.59a1679 1679 0 0 0-39.56 13.8c-8.32 3.02-17.36 7.3-26.11 8.65-2.47.38-5.1.88-7.07-1.04-10.51-10.26-.92-149.84-.11-171.28 1.72-6.59 1.41-14.68 1.83-21.5.93-14.99 1.73-30.03 3.16-44.97 1.85-19.46 4.5-38.84 6.55-58.28 4.36-41.33 8.6-83.267 16.9-124.033-8.55-1.11-19.36-1.703-26.87-6.134-3.15-1.864-5.14-4.533-7.27-7.439-18.85-25.709-152.97-244.57-154.04-254.087-1.66-14.763 25.31-17.728 27.69-22.442 1.74-3.456-2.71-12.168 2.37-19.02 2.42-3.267 6.91-6.415 11.07-6.59 11.04-.465 18.26 17.49 25.6 23.958 8.59 7.561 19.96 10.835 28.89 18.736 13.52 1.534 27.68 3.477 40.9 6.693 15.26-7.314 13.55-14.082 32.97-18.844 16.99 6.778 29.19 12.518 41.03 26.904 7.85-18.174 11.43-38.871 16.58-57.983 10.92-40.528 32.97-105.74 60.46-137.125 10.68-12.2 25.44-19.859 36.91-31.331-5.99 1.334-12.11 1.935-18.21 2.66-9.35-4.62-18.65-7.603-27.53-13.425-18.92-12.413-37.55-32.076-42.17-54.872-8.24-4.617-14.73-11.036-19.71-19.077-2.73-4.395-5.01-9.709-3.48-14.939 1.66-5.647 8.5-8.611 13.29-11.245l2.26-2.055c-1.53-10.897-8.08-30.716-12.99-40.601-8.79-2.497-15.18-8.897-19.65-16.752-5.13-9.011-7.44-20.401-4.42-30.503 4.15-13.898 16.37-18.442 26.18-27.247 20.5-18.394 27.14-30.006 54.07-43.608 30.87-15.592 61.72-19.262 95.51-13.099"/><path fill="#FEFEFE" d="M1523.08 514.443c2.41.741 4.58 1.637 6.88 2.674-.75 4.876-12.63 19.304-16.05 24.273-.82 1.031-.24.368-1.92 1.815-.09-8.267 7.55-21.031 11.09-28.762m-41.59-186.899c6.01.421 10.57 1.469 14.68 6.204 2.7 3.108 4.89 6.824 6.88 10.421-3.37 2.238-6.58 4.936-10.69 5.385-1.98-1.213-2.05-1.377-2.57-3.753-1.44-6.47.64-11.338-5.95-15.46-.57-.357-1.16-.683-1.74-1.025z"/><path fill="#BD6EB9" d="M1483.8 361.199c-6.35-4.73-15-12.397-18.04-19.733-1.29-3.107-1.02-4.989.34-7.965 4.38-4.225 9.67-4.777 15.39-5.957l.61 1.772c-4.62 5.147-5.43 10.768-6.96 17.291z"/><path fill="#FEFEFE" d="m1626.03 858.166 1.42 1.175c1.51 7.64 4.16 18.743 1.89 26.339-.62 2.078-.69 2.15-2.64 3.263l-2.97-2.707c-5.44-7.676-8.33-15.382-11.14-24.285 4.54-.985 8.99-2.456 13.44-3.785m-226.39-85.668c11.31 4.878 21.27 13.192 31.79 19.548 10.98 6.626 22.65 11.92 33.23 19.216l-2.64-.288c-.76.817-1.62 1.627-2.26 2.537-15.37-4.002-50.1-28.638-60.12-41.013m153.54 84.246 19.97.249c-.51 12.248.82 25.002 1.45 37.265-5.38-5.19-15.56-28.88-21.42-37.514m105.52-685.887c1.44.132 2.84.268 4.26.555 14.11 2.842 26.66 12.523 34.69 24.281 9.29 13.599 12.62 27.759 9.58 43.973l-.36.449-.86-.442c-5.29-30.221-26.05-48.634-47.31-68.816m14.22-64.625c10.88-.587 19.95-.613 30.27 3.447-8.51.385-16.6.451-24.86 2.863-16.08 4.702-25.93 15.636-33.65 29.757-2.12 4.923-3.54 9.9-4.97 15.05l-7.67-3.982c2.09-8.948 3.8-17.76 8.68-25.701 7.19-11.716 19.07-18.57 32.2-21.434"/><path fill="#FEFEFE" d="M1672.07 149.29c14.24-1.336 27.36 1.668 38.82 10.619 15.53 12.133 20.8 28.578 22.79 47.422l-10.18-18.808c-3.84-6.035-8.83-11.207-14.4-15.667-10.96-8.778-28.58-16.473-42.84-13.859-4.99.915-9.16 4.428-14.2 4.987l-1.3-1.546c.17-1.864-.04-2.652 1.1-4.218 4.02-5.51 13.85-7.803 20.21-8.93m-262.21 495.857c12.1 3.903 25.52 9.729 33.19 20.244 7.23 9.919 12.41 22.101 18.42 32.868 8.94 16.027 19.42 32.143 26.95 48.842 1.18 2.616 2.25 4.925 1.84 7.846-2.64.665-3.63-.067-6.12-.885-10.51-18.277-20.06-37.046-29.91-55.681-4.9-9.264-9.45-19.348-15.43-27.917-1.93-2.775-4.23-5.625-7.01-7.599-7.26-5.15-25.24-5.942-34.33-7.52 3.82-4.235 7.61-7.19 12.4-10.198m186.89-470.118.61.562-.1 1.494c-3.91 5.505-9.32 9.66-14.92 13.36-29.8 19.719-68.99 31.346-104.69 24.181-.88-.479-1.86-1.389-2.65-2.012 1.7-2.917 6.33-2.935 9.45-3.32 10.5-1.294 21.2-2.137 31.6-4.046 28.21-5.18 55.3-17.427 80.7-30.219m-64.42 144.137c6.67-.499 12.39 1.381 18.57 3.533a56.05 56.05 0 0 1 11.02 25.114c.89 5.339.86 11.489-2.72 15.915-3.42 4.222-9.39 4.01-14.34 4.447-5.18-.101-9.21-.763-13.86-3.226-8.25-4.368-15.26-12.17-17.58-21.336-1.36-5.384-1.05-10.905 1.95-15.689 4.26-6.794 9.72-7.251 16.96-8.758"/><path fill="#7D2F84" d="M1531.48 322.586c3.01.156 5.28.528 7.65 2.547.21 2.93-1.37 4.704-2.75 7.239 1.18 3.733 5.19 4.335 6.52 8.029-.43 3.538-1.73 5.665-3.6 8.66-4.98.122-8.47.023-12.22-3.679-2.42-2.389-3.44-5.495-3.34-8.854.18-6.523 3.22-9.594 7.74-13.942"/><path fill="#FEFEFE" d="M1507.31 554.636c2.4 5.92-7.99 62.712-9.23 74.937-3.52 34.802-2.27 69.207-3.05 104.044-3.48-5.841-6.51-11.931-9.62-17.973a962 962 0 0 0-18.88-35.15c4.27-16.577 10.34-32.733 15.31-49.123 6.36-20.973 15.56-58.013 25.47-76.735m217.97 1254.014c1.44 4.43.81 9.77-.16 14.25-2.57 11.89-12.77 35.31-23.3 41.67-21.89 13.21-86.19 12.9-110.73 6.07 2.6-13.06 14.22-22.76 23.02-32.06 21.37 4.28 39.27 6.31 61.03 2.79 22.45-3.64 37.01-14.39 50.14-32.72m-124.82-104.14c1.05-.32 1.83-.08 2.89.07 5.38 11.54-.52 40.5 9.7 54.43-5.07 4.46-9.89 8.34-16.23 10.95-20.81 8.59-54.55 5.1-77.23 4.93-4.75-.09-9.54-.79-14.26-1.31 20.14-11.07 38.25-20.92 54.13-37.93 2.2-10.03 3.29-20.18 4.49-30.37 12.35.98 24.22.33 36.51-.77m-15.3-1269.661c3.73 5.262 6.22 12.706 8.91 18.634-7.27 17.761-15.52 34.847-23.37 52.325a4758 4758 0 0 0-38.62 89.592c-7.67 18.643-15.91 37.541-21.44 56.953.22-5.178.73-10.326 1.2-15.485 4.69-28.309 9.89-58.141 11.12-86.847 6.43-7.723 30.08-30.999 30.27-39.753.05-2.241-.65-3.755-2.12-5.362-5.26-5.751-17.4-4.381-24.35-4.406 19.12-22.135 43.85-40.586 58.4-65.651m-115.21-186.867c8.27 5.359 15.31 12.813 24.04 17.478 31.04 16.585 73.87 22.989 109.02 24.072l-32.84 22.347-10.05 7.062c-4.87-4.998-10.24-8.63-17.3-9.532-11.18-1.428-21.91 3.893-30.37 10.741l-5.14 13.761c-8.59-9.618-14.95-11.759-27.13-15.238-8.11-25.976-13.97-43.001-10.23-70.691"/><path fill="#7D2F84" d="M1519.18 286.144a142 142 0 0 1 7.21-.309c6.41-.072 17.39 2.466 21.75 7.472 1.07 1.226.63 1.756.49 3.226-3.54 3.226-7.12 2.965-11.66 3.329-6.19 2.005-15.96 6.763-22.32 4.387-1.41-1.18-2.57-2.059-3.16-3.894-.94-2.916-.43-7.797 1.12-10.448 1.45-2.476 4-3.002 6.57-3.763"/><path fill="#FEFEFE" d="M1686.5 1715.22c13.03 2.42 24.19 2.25 37.28.16-5.24 27.93-5.8 47.32.24 75.08-3.11 6.55-7.68 13.07-12.06 18.89-12.06 15.99-25.69 19.9-44.73 22.46-15.24 1.66-28.18 1.3-43.18-1.98 24.26-21.17 46.84-52.07 56.31-83.1 3.13-10.27 4.53-20.92 6.14-31.51m-69.02 55.69 1.54.31c4 7.71 1.21 26.58.55 35.19-36.29 12.29-164.98 16.2-206.41 11.26l-3.53-1.08-.38-1.86c4.82-6.59 16.47-12.33 23.84-15.9 14.68-7.1 32-13.41 48.28-15.26 9.94-1.13 20.33.06 30.31.44 21.9.84 65.44 2.31 85.48-3.36 7.5-2.12 13.74-5.69 20.32-9.74m-182.07-711.26c1.84 4.23 7.4 64.87 8.9 75.86 7.15 52.52 18.71 104.22 28.31 156.3-8.33 3.93-16.59 7.63-25.22 10.85a1437 1437 0 0 0-26.4 9.17c-2.54-33.14 1.2-76.74 3.18-110.68 2.73-46.97 4.68-94.9 11.23-141.5m249.35-687.251c6.87 2.459 13.67 15.7 17.08 21.791 17.89 31.994 24.56 70.261 14.43 105.818-10.6-2.022-20.6-5.7-31.08-7.904-4.15-.872-7.21-1.169-10.9 1.19-.43.862-1.13 1.636-1.3 2.588-1.25 7.208 20.15 44.435 22.86 55.777.08.334.15.671.22 1.006-7.44 10.467-16.62 19.962-24.53 30.132-21.23 27.312-38.54 54.514-52.96 85.95-5.65 15.788-11.7 31.879-18.53 47.19 3.75-32.418 10.22-62.615 20.46-93.668 13.63-41.323 30.31-81.665 44.84-122.702 8.53-24.101 17.78-48.88 21.33-74.297 2.58-18.478 2.05-34.661-1.92-52.871m-220.1 438.863c2.2-2.275 3.35-3.447 3.75-6.756-1.22-4.822-4.67-6.959-8.75-9.365-8.3-4.889-55.23-29.659-57.82-35.086 1.55-1.343 1.79-1.476 3.81-1.198 11 1.509 50.81 33.644 61.73 28.397.55-1.057 1.23-1.675.87-2.915-3.86-13.172-62.88-34.706-63.8-41.063 2.72-1.685 5.43-1.085 8.48-.369 21.27 4.985 84.27 35.29 101.81 24.028 1.55-.998 3.07-2.677 3.19-4.578.55-8.334-11.55-14.092-9.06-22.025 5.14-3.063 15.32-1.99 21.29-2.146 15.51 14.875 24.27 49.756 38.61 65.553 10.85 11.95 38.19 2.696 45.06 12.197 5.59 7.736 7.59 20.015 10.7 29.098-11.53.426-23.18 1.13-34.71.575-38.13-1.834-97.62-13.121-130.06-32.098.64-.91 1.5-1.72 2.26-2.537z"/><path fill="#FEFEFE" d="M1633.62 1453.54c4.69 9.9 6.23 35.02 7.85 46.72 4.51 32.56 10.1 64.94 13.57 97.64a5925 5925 0 0 0 7.84 76.15c1.22 11.22 1.44 23.76 4.69 34.58 2.37 1.66 4.99 3.1 7.47 4.62-6.16 36.11-10.65 48.92-31.82 78.76l-12.11 16.39c1.5-13.97 3.36-31.86-2.69-44.81-2.23-4.76-6.67-7.99-8.21-13.11-3.78-12.56-3.97-28.77-4.14-41.89-.14-11.19 2.22-23 3.41-34.18a1506 1506 0 0 0 5.65-63.06c2.11-29.98 4.23-60.09 5.49-90.12.94-22.39.82-45.43 3-67.69m-57.33-913.109c15.96 12.082 30.13 14.792 49.9 14.598a501.3 501.3 0 0 0-47.18 169.731c-1.76 20.574-.88 41.279-2.83 61.757l-5.16-11.477c-3.14-6.001-31.03-45.854-35.42-48.263-3.76-2.064-14.37 2.016-18.43 3.115-.41-8.074-3.69-16.495-2.65-24.535 4.29-33.103 20.33-64.853 32.9-95.362 9.56-23.205 18.68-46.628 28.87-69.564m163.67-86.783c13.5 7.482 37.48 39.681 46.31 53.182-9.97 4.634-19.75 10.238-28.04 17.512-30.02 26.309-41.88 79.043-44.61 116.95-1.7 23.721-.4 47.44-.85 71.18-.3 15.88-1.99 31.859-3.15 47.705-8.43 3.631-17.79 6.151-26.51 9.137l-68.32 22.684c-4.94 1.351-9.76 3.523-14.53 5.383 12.75-56.729 21.53-98.985 50.35-151.469 6.57-11.97 14.59-23.563 22.76-34.496 7.61-10.176 38.64-44.349 40.79-53.553 2.27-9.789-16.18-37.958-21.27-47.982 13.12 3.436 25.49 7.572 39.18 7.654 9.94-20.339 9.04-41.781 7.89-63.887m-111.62-173.762c3.54-.431 7.6-.252 10.94 1.104 4.01 1.624 7.77 5.004 9.43 9.029 4.44 10.783.78 21.921-3.47 32.135-1.5 3.617-2.84 6.195-6.64 7.747-5.15-.507-8.5-5.175-11.87-8.705l-1.47.219c-.55 1.82-.83 2.145-.45 4.116.85 4.374 4.02 10.101 7.99 12.396 4.16 2.409 8.62 1.284 13.02.302 3.54 5.982 7.13 11.945 11.22 17.567 6.27 8.605 15.46 17.82 19.46 27.66 14.51 35.78-30.79 126.384-46.72 161.246a60 60 0 0 1-3.28.121c-16.5.267-34.54-2.723-46.77-14.606 2.75-8.43 7.02-16.637 10.56-24.775 6.83-15.684 13.39-31.981 17.47-48.61-3.62-11.63-8.85-22.41-14.72-33.046 5.75-2.876 11.25-6.039 16.76-9.351 11.08-7.821 20.07-20.463 24.95-33.064 1.7-4.402 4.15-11.228 1.52-15.731-1.23-2.109-2.65-2.96-4.89-3.674-6.71 3.001-10.92 16.008-14.68 22.29-12.5 20.876-43.8 36.205-66.37 42.111a69 69 0 0 1-4.94-2.025c-24.56-11.203-48.62-32.389-58.28-57.953 5.57-5.816 11.42-11.274 17.34-16.73 3.99 5.412 8.67 9.247 13.17 14.106 1.43 1.548 3.55 3.211 3.48 5.356-2.99 1.355-6.64 2.486-8.48 5.334.54 2.163.62 1.787 2.29 3.006 2.12-.34 2.81-1.288 4.23-2.795 1.41-1.501 1.6-1.955 3.6-2.615l1.47 4.892c1.39 1.158 1.87 1.3 3.76 1.502s1.28.437 2.36-.499c-.42-1.572-.6-2.537-.61-4.2 8.42 1.168 17.21 2.631 25.58.471 5.1-1.315 10.03-3.856 12.61-8.643 5.51-10.208-.03-26.726-2.89-37.11 13.17-9.258 26.97-18.201 39.53-28.259 8.16-6.538 15.28-14.166 23.79-20.319"/><path fill="#7D2F84" d="M1633.26 288.658c2.27.459 2.7.534 4.4 2.061-.47 3.124-4.46 5.977-6.74 8.11 2.05 2.67 5.94 5.541 6.59 8.848a135 135 0 0 1-3.33 3.616l.94 4.463c.6.79.24.209.59 1.964l-1.67.5c-1.48-.739-2.56-1.521-3.72-2.707-3.55-3.642-6.43-7.372-6.19-12.687.31-6.819 4.41-9.985 9.13-14.168"/><path fill="#FEFEFE" d="M1268.65 658.197c25.18 4.329 50.51 9.115 75.87 12.254 26.72 3.307 54.06 5 80.49 10.066 8.31 23.02 21.95 45.388 34.44 66.35-14.39-5.387-41.9-18.474-57.19-16.037-3.79.604-7.03 2.205-9.14 5.517-1.06 1.661-.93 2.929-.62 4.781 1.36 8.145-2.84 13.856-1.25 19.22.85 2.869 1.21 5.685 1.6 8.647-.39.68-1 1.695-1.29 2.392-1.17 2.782-.4 4.333.89 6.914 10.13 20.218 54.58 44.342 74.85 52.861 20.01 8.413 41.5 14.486 62.26 20.783 2.7 4.897 5.7 9.679 8.55 14.492 10.87 19.535 21.68 39.65 30.28 60.302-50.8-14.544-102.56-21.629-154.09-32.752a8089 8089 0 0 1-109.95-178.266c-11.61-19.376-24.78-37.731-35.7-57.524m480.88 675.013c.93-.17 2.02.13 2.96.26 3.21 7.77-1.22 52.74-1.87 63.9a9864 9864 0 0 1-10.64 168.06c-3.46 43.62-8.8 87.51-10.39 131.2-15.58 3.11-32.48 1.36-48.24.29.82-12.2-.15-24.93-.46-37.17-5.64-76.35-14.45-151.48-27.64-226.92-4.71-26.92-9.2-53.83-15.55-80.43 38.39-2.92 74.31-10.93 111.83-19.19m42.99-814.277 2.19.373c1.99 2.761 3.09 5.678 4.14 8.898 23.09 71.052 26.27 150.537 19.38 224.401-2.16 23.18-4.1 47.941-15.55 68.782-5.6 10.194-22.8 16.541-32.76 21.547-39.08 19.644-78.47 36.749-120.94 47.749-1.36-31.724-6.59-58.433-23.35-85.916.1-.694.85-1.123 1.32-1.636 26.69-7.149 83.54-30.541 107.75-26.742 12.02 1.884 18.22 8.173 27.12 10.326l1.01-1.347-.4-2.527c-7.28-9.907-26.75-14.108-37.98-17.674 4.65-2.995 9.38-6.14 14.74-7.704 14.31-4.178 26.7 4.344 38.67 10.992-3.98-6.805-8.04-11.898-15.2-15.7-11.62-6.175-22.82-4.096-34.72-.391-.86-13.329-.77-26.714-1.37-40.059-1.82-40.206-6.72-89.972 5.68-128.621 12.44-38.791 25.65-46.909 60.27-64.751m-336.46 403.875c39.98 7.786 79.7 17.043 119.75 24.393 1.61 51.34 5.17 102.759 6.26 154.079-7.52-23.63-44.8-126.272-59.25-139.069l-1.32.347c-2.23 6.407 24.15 77.422 28.06 89.752 6.95 21.9 13.16 44.02 20.5 65.79 3.62 10.72 10.03 22.71 11.95 33.72 3.42 19.62 3.37 40.95 4.87 60.84a3862 3862 0 0 0 8.73 90.36c1.45 13.85 1.6 30.69 6.01 43.8 1.58 4.7 6.31 6.01 10.45 7.84a3625 3625 0 0 1-1.04 136.09c-.37 65.45-8.8 130.61-8.01 196.12-13.24-.05-26.51.99-39.78 1.11-.75-14.2-3.08-28.69-4.77-42.82-7.11-59.24-19-117.77-30.26-176.32l-36.49-193.2c-13.33-70.39-27.04-140.59-32.91-212.11-3.98-48.43-3.64-92.365-2.75-140.722"/><path fill="#FEFEFE" d="m1753.57 872.894 1.7.553c7.6 12.484 10.75 31.428 14.47 45.577 24.82 94.396 34.7 192.236 43.82 289.186 2.33 24.73 3.9 49.45 6.58 74.17-51.04 27.97-126.44 42.95-184.3 47.42l-14.77.23c-1.94-10.67-2.69-21.88-3.86-32.67a3035 3035 0 0 1-7.27-79.93 3878 3878 0 0 1-11.62-333.061c7.29 11.558 13.96 23.55 25.44 31.479 13.64-1.841 26.85-6.36 39.95-10.448 30.63-9.564 60.01-20.758 89.86-32.506"/><path fill="#BD6EB9" d="M226.111 462.81c101.825-150.984 234.462-248.506 408.934-300.868 43.041-12.917 86.409-21.07 130.992-26.697a950.76 950.76 0 0 1 416.223 40.235c33.25 10.656 67.03 22.759 98.64 37.665a1765 1765 0 0 1 136.49 73.485c17.34 10.575 34.1 25.298 51.75 34.64.3.155.59.303.89.455-4.79 2.634-11.63 5.598-13.29 11.245-1.53 5.23.75 10.544 3.48 14.939 4.98 8.041 11.47 14.46 19.71 19.077 4.62 22.796 23.25 42.459 42.17 54.872 8.88 5.822 18.18 8.805 27.53 13.425 6.1-.725 12.22-1.326 18.21-2.66-11.47 11.472-26.23 19.131-36.91 31.331-27.49 31.385-49.54 96.597-60.46 137.125-5.15 19.112-8.73 39.809-16.58 57.983-11.84-14.386-24.04-20.126-41.03-26.904-19.42 4.762-17.71 11.53-32.97 18.844-13.22-3.216-27.38-5.159-40.9-6.693-8.93-7.901-20.3-11.175-28.89-18.736-7.34-6.468-14.56-24.423-25.6-23.958-4.16.175-8.65 3.323-11.07 6.59-5.08 6.852-.63 15.564-2.37 19.02-2.38 4.714-29.35 7.679-27.69 22.442 1.07 9.517 135.19 228.378 154.04 254.087 2.13 2.906 4.12 5.575 7.27 7.439 7.51 4.431 18.32 5.024 26.87 6.134-8.3 40.766-12.54 82.703-16.9 124.033-2.05 19.44-4.7 38.82-6.55 58.28-1.43 14.94-2.23 29.98-3.16 44.97-.42 6.82-.11 14.91-1.83 21.5.08-3.21-.02-6.14-.48-9.32-5.68-7.64-48.92-37.37-59.43-45.68-33.15-26.21-65.74-53.52-98.03-80.78-13.68-11.54-26.53-24.06-40.05-35.807-210.541-182.994-392.035-373.678-661.803-470.978-62.894-22.685-129.399-40.465-195.524-50.485-26.866-4.07-54.338-7.229-81.524-8.118-8.501-.278-33.002.862-38.923-1.581-.417-.171-.823-.367-1.235-.551"/><path fill="#7D2F84" d="M296.333 1572.26c-.63-.36-1.571-.87-2.186-1.33-15.697-11.87-41.533-53-51.965-70.53a1019.7 1019.7 0 0 1-137.445-380.39c-18.65-125.353-16.51-273.196 12.053-397.129 10.994-47.702 27.041-94.923 45.64-140.164 12.802-31.141 27.536-60.018 44.537-89.029 6.081-10.378 11.996-21.194 19.144-30.878.412.184.818.38 1.235.551 5.921 2.443 30.422 1.303 38.923 1.581 27.186.889 54.658 4.048 81.524 8.118 66.125 10.02 132.63 27.8 195.524 50.485 269.768 97.3 451.262 287.984 661.803 470.978 13.52 11.747 26.37 24.267 40.05 35.807 32.29 27.26 64.88 54.57 98.03 80.78 10.51 8.31 53.75 38.04 59.43 45.68.46 3.18.56 6.11.48 9.32-.81 21.44-10.4 161.02.11 171.28 1.97 1.92 4.6 1.42 7.07 1.04 8.75-1.35 17.79-5.63 26.11-8.65a1679 1679 0 0 1 39.56-13.8c6.19 28.38 11.12 57.08 16.69 85.59 7.82 40.02 16.14 79.92 23.45 120.04 6.31 34.66 11.08 70.63 19.33 104.81-22.85 9.13-45.09 19.85-67.76 29.44-40.15 17-80.14 32.46-121.33 46.82-21.8 7.59-55.47 20.09-78.12 19.55 4.72 15.79 7.77 34.11 15.2 48.77 7.27 14.35 19.09 25.96 29.67 37.85 20.38 22.89 42.81 47.52 56.22 75.15 6.58 13.54 12.08 30.16 6.52 45-1.89 5.04-5.29 9.22-10.31 11.35-12.65 5.39-34.96-1.65-47.17-6.74-13.95-5.82-27.28-13.64-39.65-22.3-21.56-15.09-64.83-51.84-74-76.12-6.99-18.49 4.55-40.18 12.2-56.62-3.68-8.08-8.14-15.92-12.19-23.83-19.14 6.2-39.23 10.22-58.65 15.58-16.1 4.45-31.75 10.34-47.99 14.31a441 441 0 0 0-.8 36.31c24.4 37.86 64.55 54.99 101.23 77.88 9.07 5.65 18.45 11.26 26.46 18.37 4.94 4.38 10.55 10.09 10.67 17.08.07 4.11-1.75 8.14-4.61 11.02-12.52 12.6-42.34 10.97-58.9 10.51-49.33-1.38-97.71-13.18-143.28-31.91-7.64-3.14-19.1-6.8-24.62-13.18-7.563-8.74-2.82-40.64-.09-51.18 4.72-18.16 11.99-28.37 14.12-48.38-19.274 4.84-38.385 12.03-57.293 18.2a3169 3169 0 0 1-105.867 33.27c-21.308 6.18-45.559 15.6-67.954 13.82-28.078-2.23-56.576-9.35-83.877-16-122.775-29.89-231.525-85.01-322.122-173.81-30.626-30.02-55.703-65.29-83.484-97.87a1293 1293 0 0 1-1.32-16.5"/><path fill="#FEFEFE" d="M880.095 1347.73c5.026.89 13.005 1.28 16.97 4.27l-.661 1.36-4.473 1.37c-5.005.46-14.26 2.17-18.187-.97.974-2.99 3.872-4.35 6.351-6.03m-90.5 76.31 19.935-.04c-5.945 4.49-12.362 8.31-18.687 12.23l-12.89 8.13c5.315-6.35 8.545-12.74 11.642-20.32m99.499-104.58c8.563-.68 16.664-.97 25.192.27 9.115 1.32 24.062 4.08 29.779 11.73.219 3.19-.793 3.83-2.559 6.41-8.346-3.08-52.63-15.5-54.184-17.25zm-208.425 37.99c2.436-.35 2.253-.85 4.364.72-.078 15.76 3.015 37.77 7.729 52.7-2.971-2.67-6.129-5.16-9.215-7.7-6.156-4.03-12.208-7.99-18.799-11.28a745 745 0 0 1 2.462-32.57 672 672 0 0 1 13.459-1.87m220.486-114.55c3.169 2 15.761 27.36 18.997 33.02-.26-.04-.52-.08-.781-.11l-1.306-.15c-8.737-1.11-17.526-.76-26.315-.66-5.923-.24-11.056 1.26-16.601 3.07a845 845 0 0 1-.485-20.6c10.808-2.85 18.427-6.87 26.491-14.57M625.481 964.743c10.058 2.192 20.797 3.224 31.017 4.442-7.474 19.901-13.237 29.237-31.855 40.875-6.944 4.08-14.242 7.49-21.49 10.99 14.62-16.01 19.2-35.389 22.328-56.307M1022.34 1304.8c5.51 2.34 11.04 4.98 16.7 6.95 9.05 3.15 20.44 5.05 28.24 10.56l.24 1.73c-.44.36-.78.87-1.3 1.09-3.4 1.41-13.06.6-17.14.85-8.82.55-17.32 2.21-25.96 4.02-9.35 1.92-30.063 11.69-38.374 7.53l-.093-.61c2.813-8.57 29.737-26.06 37.687-32.12m-85.118 51.53c.207.81.141.24-.54 1.64-17.074 10.55-35.292 17.43-53.301 26.02-11.924 5.68-24.914 15.03-37.995 17.33-10.179 1.79-21.139.4-31.435.22-8.966-.16-17.992.21-26.962.34 14.871-4.13 30.424-5.17 45.192-9.69 13.858-6.89 25.795-20.85 36.689-31.68 11.063 1 21.614 1.67 32.745 1.14-15.774 5.72-29.698 3.44-44.53 12.96 28.836 2.34 53.427-9.54 80.137-18.28m-161.698 51.74 1.054.14.921 1.45c-.231 4.52-.143 9.63-1.395 13.99-4.714 16.43-22.099 30.38-36.466 38.36-2.741-5.11-5.941-10.01-8.978-14.95-5.691-8.53-12.262-15.48-19.612-22.6 22.062-3.34 43.114-10.15 64.476-16.39m213.447 102.94c3.589 3.74 5.794 42.03 6.12 49.26-31.821 8.57-64.249 15.96-95.836 25.2-2.27.92-1.223.9-3.096.53 4.474-5.94 32.238-25.25 39.985-31.48 17.693-14.25 34.563-30.05 52.827-43.51m-216.062-478.48c13.743 7.2 25.813 15.24 38.421 24.23 6.06 4.32 12.525 8.18 18.202 13.01 16.438 13.98 25.139 35.73 31.361 55.84 1.418 4.58 3.206 9.29 3.409 14.11l-4.651 3.15c-7.824-9.43-14.872-20.65-23.939-28.87-4.089-3.7-8.751-6.74-14.497-6.21-6.469.59-10.015 6.37-13.697 11.02l-4.3-2.77c-4.452-11.29-5.691-24.08-9.068-35.78-4.793-16.6-13.302-32.43-21.241-47.73"/><path fill="#6E2975" d="M803.218 1116.04c5.142-6.59 9.182-11.44 16.921-15.11l.885-.43c21.169 5.92 29.378 24.15 43.278 39.22l-4.651 3.15c-7.824-9.43-14.872-20.65-23.939-28.87-4.089-3.7-8.751-6.74-14.497-6.21-6.469.59-10.015 6.37-13.697 11.02z"/><path fill="#FEFEFE" d="M539.2 1310.2c-.705-1.21-.233-.56-1.8-1.95l-1.347-1.17.344-.41c2.177.79 4.091 1.61 6.457 1.42.422-.03.834-.14 1.251-.21 5.02 2.11 11.369 5.04 15.583 8.46 9.321 4.69 18.126 10.52 27.591 14.86-.86 1.89-1.817 3.16-1.61 5.26 1.078 1.71.885.76.427 2.87l-4.139 2.53-1.12.66c-3.824 2.32-6.106 4.33-7.224 8.81.367 2.94 1.422 4.16 3.147 6.46 13.858 2.58 30.474-1.88 44.519-3.01 10.095-.81 20.364-.55 30.489-.54-4.51 10.04-4.832 22.56-2.922 33.27-34.75-13.2-71.341-18.62-107.57-26.1-.968-10.4-7.809-43.04-4.996-50.93z"/><path fill="#6E2975" d="M539.2 1310.2c-.705-1.21-.233-.56-1.8-1.95l-1.347-1.17.344-.41c2.177.79 4.091 1.61 6.457 1.42.422-.03.834-.14 1.251-.21 5.02 2.11 11.369 5.04 15.583 8.46 9.321 4.69 18.126 10.52 27.591 14.86-.86 1.89-1.817 3.16-1.61 5.26a711 711 0 0 1-26.783-15.15c-6.792-2.97-13.943-6.39-19.686-11.11"/><path fill="#FEFEFE" d="M1221 1812.33c7.71 3.78 21.58 18.71 28.67 24.95 12.79 11.27 26.41 22.58 40.99 31.45 9.44 5.75 22.08 11.9 33.31 8.86 6.99-1.89 10.31-5.29 13.8-11.43 9.96 14.36 17.89 28.42 21.78 45.54-.39 3.17-.68 5.04-2.7 7.66-4.13 2.64-7.91 2.71-12.68 1.79-12.52-2.41-26.21-9.06-37.09-15.62-21.58-13.01-70.62-51.86-82.94-71.89-4.11-6.68-4.84-13.8-3.14-21.31m-688.444-570.81 1.132-.6c3.94 1.02 11.498 10.14 14.894 13.26l-10.782-11.97 1.017-1.63c18.768 18.97 41.268 46.82 63.387 60.44l-3.752.64.237 1.12c1.942.45 2.332.13 3.572 1.8l-.35.79c5.685 1.87 11.367-.97 16.398-3.52a186 186 0 0 0 4.762-2.51l-.696 33.36c-8.769-.38-17.133.42-25.734 2.17l-9.362-3.67c-9.465-4.34-18.27-10.17-27.591-14.86-4.214-3.42-10.563-6.35-15.583-8.46-2.561-2.26-6.209-3.32-9.366-4.58-2.272-17-4.406-44.96-2.183-61.78"/><path fill="#6E2975" d="m532.556 1241.52 1.132-.6c3.94 1.02 11.498 10.14 14.894 13.26l-10.782-11.97 1.017-1.63c18.768 18.97 41.268 46.82 63.387 60.44l-3.752.64.237 1.12c1.942.45 2.332.13 3.572 1.8l-.35.79c-15.951-3.3-55.393-49.44-69.355-63.85"/><path fill="#FEFEFE" d="M770.501 1296.02c16.929-.32 34.24 10.89 47.5 20.2-9.148 9.09-20.202 17.98-31.279 24.61-16.358-.21-32.456 1.63-48.739 2.82-11.223.82-31.936 4.25-41.725-.69-2.579-1.31-4.861-4.11-7.05-6-5.77-.68-12.286 1.85-18.165 2.45l-1.285.13c-2.429-.37-5.321-1.98-7.71-2.8-6.972-2.39-13.52-2.24-20.792-1.96-.164-9.03-1.601-20.66.821-29.28.833-2.97 2.441-5.27 5.34-6.51 14.835-6.34 39.436 15.5 52.779 21.25 4.55 1.96 9.788 4.01 14.808 3.93 15.49-.27 39.41-21.67 55.497-28.15m265.559 475.55c13.95 2.36 28.67 1.91 42.8 2.26-1.71 17.08-.57 34.99-.46 52.17 14.21 24.83 35.97 40.8 59.58 56.08-1.08 1.77-5.83 2.61-7.97 3.26-33.13 5.71-74.44-22.61-102.77-37.73 9.05-31.12 8.56-44.35 8.82-76.04"/><path fill="#FEFEFE" d="M1020.12 1861.18c34.74 15.2 64.81 42.55 105.5 38.8 8.13-.75 16.35-2.94 21.76-9.33 22.88 11.33 46.41 24.7 66.07 41l.88 1.51c-.77.45-1.04.66-2.02.89-5.68 1.29-13.45.69-19.28.77-53.53.73-127.59-15.81-175.8-39.52-.29-11.36 1.22-22.89 2.89-34.12m-25.49-278.95c3.707 3.1 4.239 20.45 4.718 25.22-18.582 4.34-37.057 10.34-55.422 15.56a4613 4613 0 0 1-134.937 37.58l-1.421-.94a1562 1562 0 0 0-9.085-27.59c20.875-6.96 43.677-10.7 65.085-16a9428 9428 0 0 0 131.062-33.83"/><path fill="#F4E5EB" d="M1119.39 1599.32c7.68 12.75 12.31 28.69 17.65 42.63a4259 4259 0 0 0 26.57 66.6c3.19 7.94 5.55 16.4 9.04 24.17 2.48 5.52 5.43 5.34 10.61 7.29-7.96 3.22-16.81 5.09-25.08 7.4-17.34 3.81-34.51 9.39-51.44 14.69 2.19-14.32 2.44-29.1 3.4-43.55 1.18-17.75 3.31-35.42 4.41-53.18 1.36-21.95 1.66-44.28 4.84-66.05"/><path fill="#FEFEFE" d="M1249.8 1723.17c4.62 6.02 16.58 47.93 23.23 60.47 7.94 14.98 54.53 63.88 55.32 74.55-1.7 2.16-2.8 2.92-5.46 3.72-8.61 2.59-17.98-1.99-25.4-5.98-26.89-14.49-51.14-39.03-72.44-60.61.75-2.6 1.52-5.21 2.14-7.85 3.83-16.41-6.56-37.5-15.12-51.44 12.79-4.14 25.45-7.23 37.73-12.86m-717.883-492.2c.213-12.12-.455-55.35 4.347-63.94 2.666-1.61 5.116-2.58 8.245-1.92 6.016 1.26 10.152 7.15 13.075 12.09 12.485 21.11 19.2 60.58 45.923 67.67.45.12.904.23 1.356.34 9.053-2.62 17.067-6.29 25.227-10.98-2.899 19.37-4.714 39.18-6.45 58.69-7.082 3.08-14.045 5.84-21.436 8.1-22.119-13.62-44.619-41.47-63.387-60.44z"/><path fill="#FEFEFE" d="M552.602 1084.79c.998-1.38 2.593-2.6 3.835-3.79 17.345 22.32 30.705 49.01 45.057 73.37 6.65 11.29 13.659 23.99 22.558 33.64 2.742 2.97 5.749 4.72 9.338 6.47l2.575 2.2c1.64 2.71-3.252 25.13-4.361 29.71-6.6 4.47-15.068 9.65-22.895 11.42-27.995 6.33-36.463-63.27-58.406-75.98-5.628-3.26-9.592-2.5-15.596-.7 2.323-26.47 6.558-52.11 17.895-76.34"/><path fill="#6E2975" d="M552.602 1084.79c.998-1.38 2.593-2.6 3.835-3.79 17.345 22.32 30.705 49.01 45.057 73.37 6.65 11.29 13.659 23.99 22.558 33.64 2.742 2.97 5.749 4.72 9.338 6.47l2.575 2.2c-1.547.86-2.866 1.26-4.551 1.75-6.329-1.37-10.582-5.92-14.571-10.78-6.169-7.52-11.172-16.61-16.196-24.94-14.514-24.04-30.881-56.59-48.045-77.92"/><path fill="#FEFEFE" d="M909.402 1282.33c6.359-.59 10.987.73 16.073 4.52l-.014 2.2c-5.307 3.35-17.717.77-24.145 1.1-4.415.22-11.814.28-14.806 3.63 1.241 1.72 2.324 2.77 4.459 3.18 3.185.61 7.409-.12 10.713-.2 12.536-.29 22.706 2.57 33.744 8.29 7.768 4.04 25.048 11.57 27.744 20.03l-.891 1.51c-6.742-.14-34.194-19.64-56.718-19.47-7.785.05-20.928 2.56-26.412 8.63-1.293 1.43-.881.76-.739 3.02 3.185 2.79 7.54 3.09 11.353 4.72 7.038 3 14.389 7.63 21.053 11.45 4.518 2.59 10.934 5.86 12.394 11.16l-1.132 1.56c-11.036 3.22-27.667-9.41-38.554-12.28l-1.62-.41c-16.705 7.17-29.745 21.17-42.85 33.37-6.44 5.68-12.693 9.43-20.66 12.45-11.53 4.36-25.299 5.94-37.402 8.7-24.53 5.58-48.967 11.87-73.669 16.62-3.118-13.65-4.493-28.13-6.563-42 33.703-1.65 73.272-3.09 103.81-18.42 8.532-4.29 15.759-11.46 22.842-17.76 25.803-22.92 46.161-40.68 81.99-45.6m-255.869-48.39c.409.12.819.24 1.226.37 27.614 8.72 45.37 44.11 78.563 27.15 16.831-8.6 32.513-30.58 53.554-24.64 14.292 4.03 23.717 17.2 38.521 20.5 9.22 2.86 14.019-1.84 22.205-4.7 2.538-.89 3.729-.59 5.988.65 2.642 4.8 3.176 20.52 4.172 26.96-12.239 9.91-23.97 20.31-35.679 30.84a549 549 0 0 0-9.193-5.82c-56.42-34.84-54.153 3.35-99.547 14.03-20.081-4.65-34.485-22.87-54.439-27.33-7.047-1.58-10.512.36-16.417 4 .463-8.8 2.327-53.1 5.082-58.84 1.194-2.49 3.518-2.44 5.964-3.17"/><path fill="#FEFEFE" d="M834.935 1170.27c10.272 20.5 16.419 50.04 16.594 72.88-8.175 5.85-15.135 8.52-25.28 9.32-.557.08-1.111.19-1.671.25-15.106 1.69-41.461-38.56-64.991-12.68a85 85 0 0 0-1.779 2.04c2.247-1.06 4.164-2.61 6.186-4.03 4.602-3.23 14.749-5.24 20.276-3.91 5.132 1.24 38.765 19.67 41.127 23.18-14.804-3.3-24.229-16.47-38.521-20.5-21.041-5.94-36.723 16.04-53.554 24.64-33.193 16.96-50.949-18.43-78.563-27.15-.407-.13-.817-.25-1.226-.37-2.205-.18-3.615.09-5.409-1.3l.056-3.88c2.246-9.94 4.651-27.6 4.135-37.68-.135-2.63-.489-3-2.28-4.65-.084-3.57-.679-6.39 1.117-9.58 7.769-1.54 16.026 6.58 22.983 9.81 11.657 8.26 24.456 17.23 39.03 18.67 2.505.98 5.134.78 7.781.67 22.576-.91 30.825-21.19 49.037-25.67 14.283-3.51 22.323 9.74 35.516 9.67 12.649-.07 21.573-11.27 29.436-19.73"/><path fill="#6E2975" d="M648.18 1228.76c25.146-.46 39.196 26.7 63.216 30.82 29.317 5.03 44.977-34.73 72.519-29 15.959 3.32 27.215 16.34 42.334 21.89-.557.08-1.111.19-1.671.25-15.106 1.69-41.461-38.56-64.991-12.68a85 85 0 0 0-1.779 2.04c2.247-1.06 4.164-2.61 6.186-4.03 4.602-3.23 14.749-5.24 20.276-3.91 5.132 1.24 38.765 19.67 41.127 23.18-14.804-3.3-24.229-16.47-38.521-20.5-21.041-5.94-36.723 16.04-53.554 24.64-33.193 16.96-50.949-18.43-78.563-27.15-.407-.13-.817-.25-1.226-.37-2.205-.18-3.615.09-5.409-1.3z"/><path fill="#F4E5EB" d="M898.147 1174.64c5.029 3.78 9.475 10.82 13.497 15.76 11.55 14.21 23.812 27.26 39.699 36.68 52.187 30.95 116.447 6.27 167.917 39.44 35.11 22.63 51.11 66.38 59.78 105.48-4.35-7.48-7.97-15.45-12.18-23.03-.17-.26-.32-.53-.49-.79-13.83-21.41-36.27-39.77-62.89-40.32-8.38-.17-17.76 2.52-25.87.7-20.28-4.56-39.12-14.49-59.44-18.96-15.17 7.26-29.92 19.84-42.615 30.76-3.975-11.9-14.897-16.71-25.026-22.65-4.465-16.14-13.958-27.39-21.185-42.01-6.814-13.78-11.868-28.39-17.332-42.74-4.818-12.65-10.132-25.31-13.865-38.32"/><path fill="#FEFEFE" d="M614.53 814.257c.939-11.119 5.025-20.639 11.676-29.49 19.282-25.656 50.079-42.602 81.727-46.979a126 126 0 0 1 33.345.133c15.919 2.282 30.384 8.627 45.734 12.996 9.396 2.675 19.527 3.935 28.683 7.279 4.52 1.65 8.84 3.776 12.603 6.807 12.047 9.702 11.448 23.43 12.657 37.438l-1.412.858c-6.651-9.821-15.772-23.219-25.418-30.222-3.077-2.234-6.336-2.668-10.012-1.908-6.746 1.396-26.775 42.407-32.396 50.97-17.503 26.666-37.884 42.148-68.994 48.535-5.46-3.502-10.593-6.086-16.769-8.013-6.644 1.233-12.822 2.1-18.194 6.589-7.818 6.534-9.203 17.175-10.016 26.717-19.047-14.259-23.855-27.077-35.401-46.535l-1.848.062 1.931.872-2.636.14c-1.491 4.537-1.167 9.716-.26 14.346 3.737 19.077 14.252 32.478 30.298 42.863 6.79 14.417 10.394 28.219 11.412 44.059-16.332-7.085-30.77-20.843-40.431-35.648-9.948-15.245-16.03-38.096-8.329-55.578 3.116-7.075 9.013-13.93 10.406-21.566 1.781-9.763-2.921-17.172-8.356-24.725"/><path fill="#7D2F84" d="M721.159 747.374c14.405-2.096 30.293 3.529 42.85 10.1-49.666 5.071-79.963 9.347-121.362 41.713-7.831 6.567-14.28 14.516-22.338 20.887 2.351-11.543 6.636-21.256 13.918-30.506 20.126-25.563 55.744-38.243 86.932-42.194m44.789 17.479c.248.16.524.283.743.48 1.715 1.543 1.562 3.693 1.683 5.802-5.767 15.356-38.984 36.101-53.06 43.654-11.114 5.963-22.867 10.81-34.182 16.397 12.179 1.578 25.306-.911 37.01 1.256 1.997.37 2.497.281 3.678 2.008-.253.24-.486.502-.758.72-13.793 11.084-39.898 9.016-55.974 6.685-10.181-2.138-34.49-6.486-40.106-16.689-1.224-2.225-.821-3.241-.084-5.409 5.044-2.285 18.361.661 24.625.195 9.124-.679 18.045-3.283 26.582-6.471 19.567-7.307 38.895-18.009 56.651-28.991 10.796-6.678 21.61-14.477 33.192-19.637"/><path fill="#FEFEFE" d="M1101.44 1327.39c8.13-.89 15.79 2.13 22.67 6.24 12.83 7.68 23.56 19.53 30.4 32.78 8.23 15.93 13.06 33.53 18.38 50.58a2462 2462 0 0 1 26.61 93.24l50.53 189.96c-11.02 3.16-21.82 8.56-32.79 12.2-9.27 3.19-18.25 5.71-28 6.93-10.18-19.56-16.93-42.38-25.01-62.99-10.08-25.7-20.54-51.17-30.27-77.02-3.26-8.65-8.95-19.58-9.81-28.66-1.02-10.88.54-22.6 1.2-33.51l3.5-56.64c1.71-26.55 6.48-56.67-1.69-82.49-7.98-25.18-23.84-35.28-46.11-46.85 6.83-1.98 13.35-3 20.39-3.77m-464.829-301.88c31.638 47.86 62.038 72.62 116.419 91.37 1.62.56 1.068.37 2.873 1.46l1.453-.4c.049 1.77.379 1.16-.582 2.19-4.421 4.75-10.839 10.59-16.315 14.1 5.095-3.37 18.619-16.1 23.851-16.62l.657 1.31-.45.69c8.565 4.53 22.643 9.06 32.377 7.49 5.552-.89 7.637-3.9 10.624-8.29 3.682-4.65 7.228-10.43 13.697-11.02 5.746-.53 10.408 2.51 14.497 6.21 9.067 8.22 16.115 19.44 23.939 28.87 3.564 4.64 8.074 9.75 10.76 14.91 6.618 12.74 25.174 64.17 27.515 78.24-4.183 8.19-16.201 11.14-24.248 14.07-2.278-22.4-17.805-98.08-32.76-111.15-1.972-1.72-3.121-2.08-5.696-2.25-2.854 1.79-4.209 3.23-4.912 6.62-1.471 7.09.86 14.21 3.349 20.82.681 2.14 1.428 3.87 1.276 6.14-7.863 8.46-16.787 19.66-29.436 19.73-13.193.07-21.233-13.18-35.516-9.67-18.212 4.48-26.461 24.76-49.037 25.67-2.647.11-5.276.31-7.781-.67-14.574-1.44-27.373-10.41-39.03-18.67-6.957-3.23-15.214-11.35-22.983-9.81-1.796 3.19-1.201 6.01-1.117 9.58l-3.693-4.92c-4.066 2.86-11.644 6.26-12.719 11.39-.109.52-.155 1.05-.233 1.58-3.589-1.75-6.596-3.5-9.338-6.47-8.899-9.65-15.908-22.35-22.558-33.64-14.352-24.36-27.712-51.05-45.057-73.37l-.699-1c-.038-1.04-.107-1.1.229-2.28 2.902-10.18 22.272-22.53 31.445-26.55l1.494-1.25c2.987-.18 3.729.94 6.128 2.62l2.006-.67-.069-.93c-1.631-1.43-2.843-2.39-3.694-4.42 1.524-.92 1.84-1.07 3.702-1.22 13.642-5.72 26.704-12.62 39.632-19.79"/><path fill="#6E2975" d="m587.412 1051.17 1.494-1.25c2.987-.18 3.729.94 6.128 2.62l2.006-.67-.069-.93c-1.631-1.43-2.843-2.39-3.694-4.42 1.524-.92 1.84-1.07 3.702-1.22 5.234 4.9 9.629 10.2 14.088 15.8 10.558-4 21.19-9.38 32.051-12.34-8.176 9.6-18.656 12.94-30.182 16.93 3.29 6.86 6.499 12.35 5.916 20.16-1.468 2.49-1.571 2.43-4.291 3.48-7.873-5.09-12.818-20.31-18.179-28.22-2.569-3.79-5.674-6.79-8.97-9.94m177.105 68.44c-8.841 1.34-23.645 23.45-42.654 25.33-29.377 2.9-50.379-26.83-64.304-26.16-3.457.17-13.436 12.92-16.216 16.25-3.266 3.91-3.379 5.17-2.974 10.04l-1.149-.38c-5.593-7.72-9.391-16.99-11.24-26.32-.432-2.18-1.202-3.69.057-5.57 5.911 3.59 7.977 12.76 10.084 18.88 4.935-5.22 9.923-11.28 15.6-15.68 15.834-12.3 34.707 21.4 61.667 23.58 17.453 1.42 30.308-10.6 42.515-21.24l1.453-.4c.049 1.77.379 1.16-.582 2.19-4.421 4.75-10.839 10.59-16.315 14.1 5.095-3.37 18.619-16.1 23.851-16.62l.657 1.31zm69.142 44.52c.681 2.14 1.428 3.87 1.276 6.14-7.863 8.46-16.787 19.66-29.436 19.73-13.193.07-21.233-13.18-35.516-9.67-18.212 4.48-26.461 24.76-49.037 25.67-2.647.11-5.276.31-7.781-.67-14.574-1.44-27.373-10.41-39.03-18.67-6.957-3.23-15.214-11.35-22.983-9.81-1.796 3.19-1.201 6.01-1.117 9.58l-3.693-4.92c.259-2.96.07-4.1-1.386-6.73-.869-1.56-1.49-2.42-1.695-4.27-.172-1.55.118-1.22 1.306-2.67 7.51-1.01 18.412 6.75 24.638 10.76 13.722 6.32 25.277 16.72 39.54 21.92 35.579 3.56 39.909-24.29 64.77-27.02 11.1-1.22 21.555 10.21 33.074 10.63 11.59.43 19.387-12.85 27.07-20"/><path fill="#FEFEFE" d="m999.653 1632.04 1.827-.05c.38.47.91.86 1.14 1.43.55 1.37 4.09 53.84 4.6 60.26 1.62 20.21 2.83 40.59 5.17 60.72.77 6.56 4.42 12.08 5.2 18.26.62 5.02-.22 10.83-.55 15.89-21.776 9.03-43.997 15.71-66.375 22.97-29.62 9.61-59.129 19.4-88.901 28.56a1128 1128 0 0 0-7.491-20.26c-5.447-15.16-9.35-31.06-14.014-46.5-8.97-29.69-18.406-59.71-25.615-89.86a7824 7824 0 0 0 185.009-51.42M809.046 787.671c16.594 21.145 34.479 46.515 32.58 74.902-.644 9.628-3.742 18.885-3.064 28.648 1.001 14.385 12.372 22.388 22.277 31.23-5.585 5.009-11.706 8.799-18.066 12.739.695 3.165 1.658 6.317 2.502 9.448-1.717 4.42-3.213 8.943-4.793 13.415-7.207-.344-15.508-.229-22.233-3.024-6.123-2.545-10.365-10.341-16.271-11.029l-1.81 1.522c-.296 3.074.154 5.035 2.163 7.478 8.534 10.375 24.352 10.776 36.576 11.634a255 255 0 0 1-1.084 4.377c-2.586 10.027-5.431 21.518-15.189 26.917-17.801 9.852-50.45-.721-67.834-7.489-7.112-2.77-15.024-7.261-22.406-8.871-2.116-.461-2.377-.543-4.252.627.028 1.24-.046 1.39.426 2.745 3.137 8.992 16.738 14.861 24.658 18.7-4.656 26.15 7.636 45.77 17.93 68.85 5.229 11.73 9.153 22.81 11.949 35.36a518 518 0 0 1-32.286-10.85 145 145 0 0 1-3.787-1.41c-37.915-14.63-76.146-40.56-93.051-78.75 14.145-21.719 21.699-44.314 24.123-70.005 4.754 2.123 9.728 3.993 13.35 7.856 2.524 2.69 5.752 6.671 9.054 8.236 1.53.726 1.149.421 2.875-.381 2.683-4.565 3.776-10.721 4.263-15.98.349-3.765.234-6.899-2.246-9.914-4.224-.015-8.58.247-12.781-.093-7.591-.616-15.041-4.662-19.58-10.797-6.664-9.007-6.942-21.599-5.264-32.272.84-5.336 2.153-12.662 7.25-15.622 10.259-5.958 22.793 10.85 31.882 13.587.312.094.627.176.941.263-.424 5.299-1.506 11.692-.734 16.922.419 2.844.738 4.995 3.082 6.68.295-.159.615-.279.886-.477 5.88-4.299 6.954-17.733 7.919-24.365 45.905-19.116 70.139-57.119 90.045-100.807"/><path fill="#7D2F84" d="M675.409 883.028c2.218-.137 4.597-.367 6.802-.036 5.613.843 11.549 6.807 14.443 11.35 1.806 2.834 3.422 6.153 2.723 9.55-2.06 2.278-2.5 2.632-5.405 3.591-.872-2.768-1.804-5.535-3.281-8.05-3.886-6.615-11.783-7.343-18.493-9.181l-1.03-1.884c.679-2.581 2.301-3.692 4.241-5.34m133.216-1.994c2.68.053 6.667.088 9.033 1.54 2.444 1.5 2.595 2.355 3.266 4.925-1.271 6.118-4.567 8.487-9.349 12.271-3.109-.659-7.207-1.684-9.663-3.829-1.735-1.515-2.509-3.064-2.117-5.394.758-4.498 5.456-6.993 8.83-9.513m2.743-33.911c5.455-.02 11.585 2.683 15.518 6.433 1.586 1.513 1.502 1.511 1.514 3.807-4.789 4.297-21.234 1.832-29.804 4.566l-1.212.398c-3.848 1.621-7.229 5.052-11.689 3.937l-.528-1.941c.444-.883.594-1.264 1.117-2.037 5.865-8.673 15.336-12.872 25.084-15.163"/><path fill="#FEFEFE" d="M584.326 834.212c1.999.087 3.155.531 5.005 1.223 3.035 3.097 3.873 7.723 5.133 11.778-9.604 43.075-7.849 43.849 4.406 84.613 7.443 24.755 3.022 50.475-9.318 72.924-11.987 21.8-31.626 35.97-55.411 42.78-12.981 3.73-21.372 2.77-32.925-3.73.624.95 1.267 1.88 1.883 2.83 1.548 2.38 3.018 4.75 4.942 6.86 8.431 9.24 18.39 12.11 30.48 12.7-12.311 23.32-16.79 48.81-20.352 74.61-24.708-38.47-42.218-76.07-83.835-99.79 8.028 10.98 17.935 20.41 25.83 31.72 22.022 31.56 35.773 65.32 52.142 99.79-3.848 43.93-2.62 88.54 1.05 132.44.591 7.07 7.308 50.57 5.565 53.61l-3.048-.06c-8.669-4.3-15.099-15.49-20.666-23.18-38.183-52.72-61.038-104.58-89.838-162.01-17.62-32.38-35.906-65.7-61.47-92.58 18.533-21.56 40.817-38.58 65.59-52.4a338 338 0 0 1 33.572-16.36c10.013-4.18 63.743-22.999 71.908-20.702.434 1.008.509 1.021.658 2.3.819 7.022-5.228 23.542-9.482 28.992 8.507.58 15.909.28 24.035-2.5 10.795-3.7 19.397-10.66 25.749-20.07 20.653-30.599 5.649-65.409 8.444-98.732.81-9.656 3.362-16.999 7.555-25.659-32.008 27.32-10.875 65.276-18.518 99.462-3.744 16.748-13.348 25.619-27.308 34.129 11.6-35.862 4.33-73.122 18.347-108.769 5.907-15.023 15.379-29.036 27.861-39.431 4.997-4.161 18.042-10.39 19.278-16.669-.258-.095-.505-.223-.773-.284-6.594-1.511-21.025 5.404-26.961 8.774-27.728 15.74-38.326 39.877-46.505 69.287-.411-19.389 2.753-39.562 14.053-55.798 11.556-16.603 33.309-28.492 52.924-32.098"/><path fill="#FEFEFE" d="M338.593 1087.47c7.467 4.68 39.202 67.26 44.507 78.83 10.473 22.85 19.191 46.43 29.564 69.29 7.174 15.81 15.008 31.59 23.075 46.96 12.895 24.57 28.523 47.13 44.385 69.82-8.309-1.19-40.511-11.03-45.602-8.56.085.3.128.61.253.9 1.336 3.04 6.086 5.92 8.794 7.92 28.631 21.15 64.501 23.88 98.672 28.4a621 621 0 0 1 49.121 8.11c24.46 5.04 51.445 12.51 73.525 24.35 23.277 12.48 42.65 34.88 55.624 57.57 16.632 29.09 26.796 61.78 37.004 93.54a2716 2716 0 0 1 25.616 81.86 7679 7679 0 0 1 54.032 179.33l6.068 19.5c-11.901 4.31-23.793 7.51-36.222 9.91-5.895-15.35-10.25-30.92-15.313-46.55-13.516-41.71-26.41-83.61-40.262-125.22-30.532-91.7-71.068-204.16-161.364-252.31-27.174-14.49-55.943-22.77-85.573-30.39-33.99-8.75-65.154-15.17-94.282-36.24-50.039-36.2-80.389-127.31-89.436-186.99-5.733-37.82-5.227-58.8 17.814-90.03m705.487 258.96c3.87-.26 7.79-.18 11.66.04 15.46.9 32.23 7.32 42.45 19.2 7.93 9.22 11.21 19.99 12.35 31.83 1.81 18.75-.13 38.6-1.37 57.37a3347 3347 0 0 1-4.88 70.64l-16.89 228.44c-18.43-.55-37.51-.18-55.63-3.67-5.18-72.43-13.11-144.97-20.64-217.21-4.26-40.87-6.79-82.03-13.186-122.63-1.681-1.49-1.566-1.52-3.797-1.49-5.548 4.9-5.936 18.27-6.432 25.3-1.365 16.91-1.15 34.06-.624 51.01-35.437 29.06-69.847 58.65-107.16 85.42-14.233 10.22-29.738 21.64-45.716 28.86-12.859 5.81-27.598 8.53-41.262 12.02a10020 10020 0 0 1-43.561-128.16c9.608-5.33 18.643-11.81 28.04-17.52a6232 6232 0 0 1 64.224-38.13 893 893 0 0 1 137.789-63.66c21.235-7.72 41.885-16.01 64.635-17.66"/><path fill="#FEFEFE" d="M301.373 1195.79c3.839 5.04 5.295 23.36 7.43 30.58 14.213 48.04 33.514 97.12 66.396 135.56 38.67 45.21 89.569 50.7 143.131 65.88 38.11 10.8 75.707 27.65 104.425 55.52 72.768 70.64 104.707 200.91 134.715 295.2 4.933 15.5 22.782 61.86 22.998 74.11-1.726.11-3.236.17-4.963.02-23.138-2.08-64.9-14.1-88.53-20.28-25.964-6.79-50.731-15.54-75.701-25.29-23.954-9.36-47.255-18.89-70.121-30.72-53.809-27.83-105.899-67.51-148.065-111.06-26.064-26.91-48.644-56.2-72.901-84.6-1.722-80.02-8.228-159.87-13.62-239.69-1.604-23.75-4.347-47.5-5.578-71.24a758 758 0 0 1 .384-73.99"/><path fill="#F4E5EB" d="M296.333 1572.26c-.63-.36-1.571-.87-2.186-1.33-15.697-11.87-41.533-53-51.965-70.53a1019.7 1019.7 0 0 1-137.445-380.39c-18.65-125.353-16.51-273.196 12.053-397.129 10.994-47.702 27.041-94.923 45.64-140.164 12.802-31.141 27.536-60.018 44.537-89.029 6.081-10.378 11.996-21.194 19.144-30.878.412.184.818.38 1.235.551 5.921 2.443 30.422 1.303 38.923 1.581 27.186.889 54.658 4.048 81.524 8.118 66.125 10.02 132.63 27.8 195.524 50.485 269.768 97.3 451.262 287.984 661.803 470.978 13.52 11.747 26.37 24.267 40.05 35.807 32.29 27.26 64.88 54.57 98.03 80.78 10.51 8.31 53.75 38.04 59.43 45.68.46 3.18.56 6.11.48 9.32-.81 21.44-10.4 161.02.11 171.28 1.97 1.92 4.6 1.42 7.07 1.04 8.75-1.35 17.79-5.63 26.11-8.65a1679 1679 0 0 1 39.56-13.8c6.19 28.38 11.12 57.08 16.69 85.59 7.82 40.02 16.14 79.92 23.45 120.04 6.31 34.66 11.08 70.63 19.33 104.81-22.85 9.13-45.09 19.85-67.76 29.44-40.15 17-80.14 32.46-121.33 46.82-21.8 7.59-55.47 20.09-78.12 19.55-.15-.64-.32-1.28-.45-1.92-1.07-5.12 3.42-9.81 6.19-13.81-9.28-26.88-14.87-54.59-22.62-81.91-9.45-33.3-18.16-66.74-27.07-100.18-4.91-18.44-10.84-37.05-14.78-55.68-2.49-11.82-.68-25.5-1.67-37.66-4.33-53.35-12.51-112.58-47.42-155.29-26.83-32.82-62.55-46.77-104.12-49.73-15.23-1.08-30.65-.74-45.84-2.33-59.452-6.24-84.113-46.62-113.469-92.59-9.778-15.31-20.528-29.87-30.552-44.99-7.607-11.48-12.183-23.34-22.497-33-9.093-8.51-19.945-15.36-30.872-21.26-7.228-3.9-42.544-18.08-45.272-21.43 5.105-3.73 45.825 7.5 64.288-2.32 19.204-10.221 16.461-33.336 19.41-51.421.652-4.001 2.743-8.011 3.995-11.906 4.027-2.692 8.362-5.157 12.218-8.077 3.881-2.94 9.035-7.707 9.403-12.949.747-10.63-13.192-19.101-19.569-26.314l-.924-1.059c-1.827-9.178-.559-17.532.262-26.729 2.307-25.874-5.366-43.927-17.318-66.376l1.412-.858c2.294 1.979 2.319 2.016 5.34 2.153 3.741-2.467 5.046-7.77 5.915-11.934 2.214-10.606 1.661-23.961-4.862-33.022-15.323-21.289-39.407-20.145-61.738-27.187-15.134-4.772-29.098-11.207-45.037-13.271-34.709-4.494-76.778 7.042-104.456 28.484-14.751 11.427-35.696 33.186-38.022 52.67-.447 3.745-.437 7.632-.361 11.403-2.794-.173-3.815-.417-6.396.804-.936 2.768-.638 5.029.724 7.664 1.44 2.783 3.241 5.487 4.829 8.196-5.188-5.526-8.526-9.527-16.718-9.66-16.48-.268-44.812 15.029-56.233 26.793-17.876 18.411-25.408 44.225-24.965 69.453.327 18.59 4.014 38.757 11.625 55.778-69.179 10.131-150.127 47.825-192.413 104.885-12.363 16.68-19.821 34.89-25.942 54.56-24.996 80.32-12.048 166.63-6.694 249.02l6.381 111.66c1.559 27.08 3.679 54.26 4.401 81.37"/></svg>