<svg xmlns="http://www.w3.org/2000/svg" style="display:block" viewBox="0 0 2048 2048"><path fill="#FDF9F7" d="M0 0h2048v2048H0z"/><path fill="#D572B1" d="M2048 841.509v196.001c-55.62 51.94-105.64 109.46-158.37 164.24-26.47 27.5-53.77 54.35-80.65 81.46-128.37 129.44-262.82 254.22-426.21 338.5a1199.8 1199.8 0 0 1-225.02 87.15c-67.19 19.11-135.62 31.88-203.386 48.5-48.723 11.95-96.405 27.64-144.984 39.81-12.401 3.11-47.608 6.51-54.527 10.68a709 709 0 0 1-26.043.38c14.315-10.2 29.888-16.77 45.617-24.38 14.525-7.02 28.811-14.5 43.593-20.99 31.048-13.62 62.884-25.39 94.363-37.97 11.266-4.5 41.162-14.43 49.236-19.71 5.924 2.11 23.771-5.91 30.255-8.06 11.236-1.93 23.856-7.83 34.916-11.28 47.05-14.67 94.11-30.44 139.59-49.49a1310.7 1310.7 0 0 0 287.51-167.39c68.46-53.26 130.75-114.08 190.3-176.97C1782.95 1145.44 1905 984.083 2048 841.509"/><path fill="#832C83" d="M2048 1337.41v234.29l-.99.39c-1.76 2.24-3.76 4.25-5.77 6.27-28.47 28.55-59.98 55.02-90.8 80.99-183.35 154.55-382.58 248.85-624.58 260.91-119.31 5.94-238.95-3.54-358.207 5.79-52.761 4.13-103.705 11.48-155.214 23.92a530 530 0 0 0-51.693 14.99c-16.532 5.6-34.356 13.38-51.64 15.71-17.41 2.34-38.281.49-55.985.52 24.984-8.91 48.346-22.6 72.851-32.89a1129 1129 0 0 1 174.839-56.47c69.725-15.87 141.519-26.3 212.449-35.13 39.86-4.96 79.84-9.11 119.61-14.84 103.97-14.98 218.76-47.35 312.52-94.66 53.6-27.05 103.33-59.64 152.58-93.82 23.35-16.21 45.39-34.37 67.49-52.22 67.24-54.31 129.95-112.63 191.81-172.9 16.39-15.97 33.02-31.8 48.82-48.36 12.53-13.13 25.1-30.09 39.64-40.65.26-.19.53-.37.79-.55z"/><path fill="#D572B1" d="M2048 1337.41v234.29l-.99.39c-.86-17.57-.17-35.42-.14-53.01l.19-111.21c.04-23.01.68-46.2-.54-69.17zm0-250.79v201l-147.14 146.24c-29.4 28.73-58.65 57.61-89.45 84.87-10.6 9.38-21.96 17.92-32.87 26.93-22.8 18.84-45.41 37.66-68.8 55.76-36.97 28.6-74.08 56.37-114.29 80.37a982.2 982.2 0 0 1-285.35 112.92c-77.15 17.41-155.49 26.14-233.71 36.87-106.366 14.6-211.737 33.95-312.712 71.3-21.11 7.8-42.157 15.72-62.509 25.37-31.132 14.78-59.926 31.8-88.602 50.78-8.717.49-17.388.45-26.113.39 9.162-5.5 16.955-13.56 24.93-20.62a745 745 0 0 1 30.449-25.67c38.879-30.84 80.823-56.72 124.92-79.43 105.552-54.37 218.216-71.21 332.147-97.21a1534 1534 0 0 0 164.18-47.34c257.08-89.91 432.83-261.74 618.29-451.97l121.39-125.07c14.9-15.36 30.58-29.9 45.24-45.49M1432.88 81a2380 2380 0 0 1 67.24.72c-11.63 14.328-24.96 26.957-38.28 39.682-25.79 24.646-52.47 47.67-80.02 70.31-106.21 87.269-219.12 144.838-347.44 193.34a2306 2306 0 0 1-147.81 49.831c-59.529 17.225-119.855 31.659-179.201 49.595a1447 1447 0 0 0-163.075 60.462c-115.102 50.435-224.2 122.029-318.531 204.878-51.01 44.801-98.203 93.353-144.119 143.274C54.191 922.94 24.284 952.557 0 985.059V753.505c111.741-121.07 242.85-232.532 393.378-301.89a1143 1143 0 0 1 133.938-50.976c29.727-8.911 60.121-15.734 90.369-22.61 66.204-15.049 132.67-27.434 199.319-40.236 171.691-32.977 340.076-75.049 491.106-166.977 44.06-26.817 87.19-54.169 124.77-89.816"/><path fill="#832C83" d="M0 433.507c186.138-160.608 412.79-234.78 655.727-248.025 86.223-4.7 172.7-4.077 258.857-9.713a1396 1396 0 0 0 128.666-14.436c68.34-10.457 130.19-23.484 195.77-46.411a612 612 0 0 0 41.18-16.558c12.16-5.502 25.59-13.929 38.66-16.358 17.72-3.293 47.82-1.05 67.03-1.33-167.39 126.692-361.52 183.93-564.431 224.251-45.205 8.983-90.76 16.181-135.968 25.109-133.674 26.397-260.878 62.119-380.62 128.883-78.892 43.987-159.28 107.295-225.423 168.881-18.433 17.163-36.144 35.219-54.062 52.922-7.61 7.52-15.028 15.583-23.093 22.588A594 594 0 0 0 0 693.193z"/><path fill="#D572B1" d="M1540.46 81.14c12.59-.381 25.19-.965 37.78-.34-12.38 21.097-26.91 40.574-41.59 60.092-36.58 48.61-75.9 93.247-119.85 135.314-117.19 112.15-260.83 196.739-411.05 256.56-83.836 33.386-170.108 59.967-254.247 92.412-97.583 37.629-193.91 86.233-279.487 146.572-150.709 106.264-273.64 245.48-382.41 393.27A2901 2901 0 0 0 26.4 1253.6c-8.92 12.93-16.865 27.26-26.4 39.62v-251.65c26.142-29.47 49.986-60.812 76.127-90.322C176.532 837.9 284.206 736.294 412.94 655.58a1218.5 1218.5 0 0 1 261.794-123.034c47.522-15.619 95.874-27.935 144.001-41.439 74.993-21.041 150.167-42.613 223.255-69.715 139.4-51.692 272.28-125.561 383.95-224.23a1087 1087 0 0 0 79.75-77.742c11.74-12.482 22.52-26.374 34.77-38.28"/><path fill="#4C0455" d="M1211.73 569.22c4.82.342 9.02 1.213 13.22 3.759 6.78 4.118 9.77 10.339 11.61 17.772 57.97 9.426 98.99 35.68 134.46 81.891 2.25-1.711 4.53-3.505 7.04-4.814a24.1 24.1 0 0 1 19.62-1.257 25.07 25.07 0 0 1 14.27 14.108c2.27 5.712 2.51 12.141-.09 17.79-3.42 7.435-9.19 10.002-16.33 12.869 17.3 50.121 25.12 98.811 3.5 149.516 4.28 3.727 7.79 7.027 9.82 12.49a24.33 24.33 0 0 1-1.08 19.612 22.85 22.85 0 0 1-13.54 11.582c-7.71 2.375-14.56.469-21.39-3.32-16.11 20.35-32.39 37.274-54.23 51.507 28.76-8.363 69.66-15.337 93.93-32.429 3.99-2.811 6.1-6.285 7.4-10.957 1.85-6.662 1.48-13.907 1.57-20.766.24-19.348-1.6-42.473 6.05-60.599 7.13-16.88 22.16-30.951 34.99-43.548l.68-11.574c-7.46 1.389-14.63 2.2-22.21 2.144-1.33-.769-2.66-1.553-3.92-2.437-8.01-5.619-10.84-28.043-12.22-37.314-.69-4.677-2.84-7.288-5.56-11.057 2.95-1.782 5.64-3.981 8.37-6.079-1.55-10.638-5.18-20.761-5.37-31.609 4.8-5.895 6.74-13.469 11.48-19.028 6.15-7.207 24.55-10.418 33.75-10.95 13.03-.752 27.56 2.5 37.39 11.506 10.6 9.72 17.16 24.097 17.4 38.455.42 23.997-21.75 45.133-37.26 61.139.37.202.74.398 1.11.605 15.93 9.003 32.9 23.447 41.64 39.756 22.48 41.894 11.13 124.151.18 169.58-5.17 21.445-13.02 42.017-18.64 63.307a276 276 0 0 0-8.45 62.62c-1.05 41.18 8.15 81.35 20.83 120.34 5.61 17.28 12 34.2 16.93 51.71 5.17 5.14 11.65 8.69 16.97 13.74-2.79 4.65-5.45 8.22-9.62 11.77.11.17.21.35.32.53 6.87 10.95 8.48 22.15 12.67 34.1l.41 1.13c-7.73 3.61-28.26 13.54-36.11 10.79-1.54-.54-3.03-1.06-4.59-1.54-1.42 1.09-2.86 2.14-4.26 3.24-.76.59-1.48 1.22-2.25 1.79-9.3 6.82-32.86 6.24-44.09 4.53-7.27-1.1-13.84-2.82-18.31-8.99-.74-4.65 1.16-10.27 2.14-14.87 10.68-12.12 29.89-5.46 45.04-21.21-3.82-2.88-7.93-5.75-11.36-9.09-2.57-2.5-3.4-4.63-3.41-8.26 1.11-3.37 3.44-4.73 6.16-6.74l-.14-.79c-.08-.44-.17-.87-.24-1.31-3.64-20.81-19.06-46.83-27.48-66.72a389.5 389.5 0 0 1-28.07-117.01c-5.53 20.23-9.57 42.12-11.54 63.01-1.87 19.9-2.03 39.85-4.47 59.73-2.49 20.36-8.69 39.98-10.31 60.47 3.85 6.27 7.57 14 5.51 21.54-1.59 5.85-4.67 8.7-9.82 11.57a1347 1347 0 0 1 .51 33.34c-11.46 1.94-27.03 5.47-38.1 1.58a136 136 0 0 1-25.39 3.1c-11.4.29-30.95-1.23-39.21-9.86-2.42-2.53-4.06-6.14-3.54-9.7 2.31-15.68 30.98-16.56 42.36-21.14 4.7-1.89 9.54-6.33 13.62-9.38l-13.01-13.58c6.48-5.9 13.65-12.35 15.86-21.1 10.49-41.45-.1-93.48 4.16-137.21 6.16-63.32 41.36-118.51 63.42-176.889-15.04 3.65-30.06 7.103-45.38 9.36-12.9 1.9-26.03 2.788-38.87 4.922-5.59.929-9.99 5.226-15.52 6.302-11.08 2.156-23.02.731-34.26 1.218-11.77.51-23.08 2.357-34.95 2.169-4.05 6.731-8.61 11.737-16.1 14.671-6.1 2.394-13.14 2.39-19.11-.449-8.06-3.839-11.31-10.426-13.99-18.411-49.64-1.308-86.29-26-122.45-57.586-3.36 1.185-7.1 2.768-10.67 2.981-6.13.366-12.75-2.414-17.04-6.722-4.35-4.358-7.04-10.235-6.99-16.433.07-8.433 4.29-13.372 10.09-18.883a105 105 0 0 1-3.35-5.708c-23.49-43.108-28.41-89.894-14.52-136.985l-2.95-1.713c-4.37-2.502-7.82-4.615-10.69-8.857-3.91-5.784-5.66-12.656-4.13-19.558 1.33-5.975 4.95-11.275 10.31-14.31 8.02-4.539 15.62-3.136 23.91-.559 7.74-9.098 12.87-20.301 20.23-29.748 29.22-37.502 65.38-57.01 110.82-67.905 1.08-4.322 2.25-8.337 4.62-12.152 4.82-7.756 11.56-10.727 20.21-12.535"/><path fill="#FDF9F7" d="M1068.29 884.039c2.04-.026 4.19-.097 6.22.206 3.71.553 7.53 3.27 9.51 6.399 2.01 3.164 2.39 6.888 1.47 10.476-1.5 5.902-5.25 8.676-10.29 11.586-2.39-.082-4.89-.21-7.25-.66-3.71-.709-7.33-3.327-9.31-6.516-1.97-3.172-2.35-6.87-1.29-10.417 1.77-5.899 5.76-8.336 10.94-11.074m318.19-209.969c1.7.061 3.44.124 5.12.413 4.06.699 7.79 2.713 10.08 6.209 2.12 3.238 2.48 7.082 1.48 10.774-1.62 5.978-5.22 8.468-10.42 11.339-3.41.272-6.66.24-9.82-1.209-3.67-1.682-6.29-4.737-7.54-8.563-1.25-3.803-.68-7.951 1.1-11.489 2.4-4.759 5.2-5.76 10-7.474m-1.08 191.846c2.81.035 4.77.034 7.27 1.545 3.81 2.292 6.58 6.581 7.45 10.895.89 4.447.12 9.394-2.47 13.166-2.77 4.023-5.6 4.553-10.17 5.213-1.96-.295-3.98-.572-5.9-1.109-3.26-.912-6.2-3.447-7.84-6.374-2.01-3.6-2.08-7.504-.78-11.36 2.15-6.395 6.66-9.131 12.44-11.976M1041.11 698.14c3.23-.25 6.23-.549 9.34.623 4.16 1.56 7.7 5.359 9.27 9.459a13.98 13.98 0 0 1-.46 11.147c-2.05 4.197-5.93 5.92-10.06 7.525-2.2.074-4.51.202-6.7-.061-3.75-.449-7.78-3.06-9.95-6.111-2.27-3.195-2.77-7.102-1.86-10.871 1.46-6.069 5.37-8.595 10.42-11.711m171.84-118.929c2.58.146 5.12.782 7.41 1.992 3.28 1.727 5.81 5.264 6.74 8.82 1.13 4.358.06 9.465-2.4 13.191-2.94 4.449-7.21 5.34-12.13 6.414-2.66-.373-5.41-1.058-7.8-2.345-3.46-1.865-6.11-5.558-7.03-9.344a14.43 14.43 0 0 1 1.92-11.152c3.38-5.296 7.37-6.465 13.29-7.576m11.63 376.945c2.89-.173 6.03-.519 8.85.263 4.19 1.158 7.92 4.365 9.97 8.159a14.8 14.8 0 0 1 1.08 11.25c-1.76 5.876-6.02 8.677-11.24 11.274-2.82.124-6 .279-8.74-.472-3.83-1.049-7.47-4.597-9.33-8.003a14.8 14.8 0 0 1-1.23-11.506c1.63-5.315 5.91-8.511 10.64-10.965m23.7-105.134c.95.091.3-.037 1.74.908-1.05 7.428-3.88 15.022-5.51 22.424-4.89 22.317-9.21 44.488-16.04 66.335-3.4-6.349-6.32-12.825-9.19-19.425-9.3-20.984-14.6-45.837-16.6-68.57 15.58 4.297 30.45 3.874 45.6-1.672m-88.38-37.289.92.8-.41-.843c.36.24 11.5 19.642 14.11 22.792 3.16 3.817 6.94 6.648 10.89 9.572-21.04 15.096-41.19 25.486-65.6 34.163l-22.4 6.676c14.71-29.787 36.48-52.76 62.49-73.16m125.09-2.491c30.96 15.265 54.46 39.183 75.07 66.277-6.47-.336-12.87-1.133-19.3-1.91-27.63-3.688-55.48-15.686-78.41-31.329 11.17-9.175 18.31-19.127 22.64-33.038m75.38-107.845 1.92.2c-.03.29-.02.586-.08.87-.87 3.87-5.79 9.307-8.23 12.426-18.92 24.161-40.79 43.184-66.2 60.188l-4.77-12.278c-4.11-8.472-9.84-15.982-15.43-23.51 27.54-21.419 58.57-32.898 92.79-37.896m-149.75-83.827c.41.256.86.449 1.22.769 2.62 2.325 4.39 7.248 5.76 10.416 13.09 30.121 16.85 64.186 20.26 96.539-4.38-1.072-8.85-1.73-13.29-2.477-8.86-.036-16.83 2.004-25.31 4.296-3.68-37.972-2.73-73.608 11.36-109.543m-142.16 100.781c29.85-3.607 76.14 15.734 102.68 29.288-5.58 8.862-10.32 16.515-12.92 26.734-.76 3.905-1.07 7.891-1.47 11.844-19.54-10.723-39.78-20.802-57.24-34.78-7.38-5.916-30.08-24.596-31.05-33.086m191.07 134.357c28 20.839 67.83 28.835 101.76 33.067-11.15 19.332-27.28 33.317-45.75 45.467-20.11 12.551-41.2 20.115-64.42 24.498-4.43-4.483-8.79-8.087-14.52-10.809 9.62-30.146 15.68-61.444 22.93-92.223m-67.69-1.763.83.798c3 32.575 14.39 62.543 26.67 92.509-4.73 4.816-8.94 9.788-13.09 15.109-21.57-5.005-40.69-9.035-60.72-19.138-15.79-9.038-34.32-21.195-45.62-35.725-2.01-2.584-2.79-4.289-2.41-7.536 4.13-3.905 12.03-5.563 17.4-7.284 28.57-9.159 52.56-21.244 76.94-38.733m25.72-112.625c9.89-1.448 21.33 1.288 29.97 6.035 12.03 6.612 20.67 18.513 23.97 31.772 3.34 13.386 1.32 27.427-6.23 39.039-9.11 14.022-23.01 20.327-38.73 23.65-11.35 1.233-23.68-2.983-32.82-9.573-11.29-8.145-19.36-20.762-21.55-34.554a47.94 47.94 0 0 1 8.69-35.983c9.16-12.613 21.72-18.26 36.7-20.386m-157.94-8.06c10.05 4.67 20.39 17.129 29.08 24.475 8.49 7.174 17.59 14.163 27.03 20.04 9.17 5.706 37.6 17.107 41.71 25.691-4.59 6.453-14.56 12.603-20.65 18.032a250 250 0 0 0-23.95 24.251c-9.2 11.618-17.27 23.517-24.79 36.261-4.31-3.618-8.39-5.417-13.92-6.412a184 184 0 0 1-5.55-9.937c-21.48-42.366-23.55-87.583-8.96-132.401m311.72-23.659c2.81 2.509 5.05 6.37 6.64 9.748 3.38 7.164 5.56 15.386 7.83 22.979 12.14 40.666 8.45 76.481-5.82 115.851-5.79 3.049-10.41 6.263-15.07 10.907-7.97-11.548-17.1-20.966-27.13-30.675-14.98-13.634-31.7-26.217-50.07-34.899.2-4.586.18-9.202.26-13.794 29.52-18.808 64.6-50.346 83.36-80.117"/><path fill="#FDF9F7" d="M1233.57 608.807c4.85.171 9.69 1.128 14.43 2.128 50.06 10.567 87.25 39.737 114.65 82.175-14.63 1.818-27.95 4.499-41.91 9.34-22.5 8.406-42.55 19.137-61.77 33.538l-11.63-6.166c-3.34-38.576-8.15-76.643-24.23-112.297 4.27-2.384 7.15-5.22 10.46-8.718m-40.65.355c2.86 1.653 6.44 6.316 8.86 8.772-15.44 39.163-14.84 75.394-11.56 116.634-4.39 2.368-8.55 5.176-12.76 7.852-22.69-11.069-45.31-19.211-69.34-26.795-12.89-3.137-26.08-4.635-38.94-7.924a140 140 0 0 1 2.18-4.289c27.76-52.216 66.73-77.254 121.56-94.25M541.566 1221.36c8.778-19.12 17.624-37.85 29.152-55.52 38.089-58.37 97.696-104.92 162.888-129.06 67.817-25.11 149.887-32.05 217.082-1.29 52.622 24.08 97.282 69.24 117.302 123.86 3.84 10.47 6.95 21.28 8.49 32.34 3.26 23.49 1 64.07 15.96 82.87 16.17 20.33 58.57 51.88 66.41 76.26 2.27 7.06 1.5 14.58-1.54 21.29-8.38 18.47-30.05 22.75-43.49 36.31 7.28 5.27 15.19 10.77 16.42 20.44 1.13 8.94-4.17 17.46-8.8 24.68 5.9 1.99 14.38 6.99 16.83 13.17 1.85 4.66 1.33 9.6-.75 14.1-3.99 8.61-12.4 13.43-17.68 21.05 10.83 20.06 24.12 39.51 17.06 63.6-4.66 15.88-18.46 27.51-32.66 34.92-31.13 16.22-72.18 17.94-106.843 18.06-1.248 26.2-5.483 52.48-5.523 78.68-6.484 2.15-24.331 10.17-30.255 8.06-8.074 5.28-37.97 15.21-49.236 19.71-31.479 12.58-63.315 24.35-94.363 37.97-14.782 6.49-29.068 13.97-43.593 20.99-15.729 7.61-31.302 14.18-45.617 24.38a709 709 0 0 0 26.043-.38c29.447.35 59.369 2.85 88.748 1.33-40.993 13.78-88.25 13.57-131.11 15.29a3523 3523 0 0 1-171.336 2.67c-99.633-.04-198.83-.56-298.431-3.55 12.74-2.44 27.055-1.5 40.035-1.85-11.065-3.24-40.628-7.34-46.092-17.6-4.813-9.04.912-23.46 3.503-32.71-3.621-2.97-7.648-5.49-11.514-8.13 11.387-24.71 26.305-49.19 42.398-71.1 14.354-19.54 33.048-39.81 42.666-62.17 14.824-34.48 17.214-96.7 19.422-135.15l-11.829-5.4c4.562-14.08 7.444-28.69 11.407-42.96 5.016-18.05 11.051-35.92 16.735-53.77 10.666-33.51 21.215-68.73 38.257-99.6 6.472-11.72 14.691-23.44 24.703-32.42 15.27-13.7 30.49-15.57 50.263-14.64-2.625-2.57-5.642-4.87-8.449-7.25a718 718 0 0 0 7.134-14.3c-9.257-17.55-18.445-34.59-19.05-55.11-.647-21.91 8.783-16.25 15.894-26.01 2.256-3.09 3.08-8.15 5.905-10.65 5.671-5.01 14.633-5.49 21.863-5.32 13.386.31 37.431 3.49 46.735 13.95 3.092 3.48 5.208 7.96 4.638 12.7-.756 6.28-5.239 11.39-9.961 15.22-.285.23-.576.46-.864.69 2.705 15.45 4.065 24.94 14.249 37.69-1.037 1.52-2.129 3.05-3.038 4.65-1.59 2.81-1.711 3.48-.738 6.56.998.85 2.461 1.59 2.713 2.9z"/><path fill="#4C0455" d="M814.699 1094.43c37.509-3.89 71.933 6.55 106.286 20.11 3.109-2.52 6.517-5.02 10.163-6.69 6.5-2.98 14.255-3.68 20.986-1.05a22.72 22.72 0 0 1 12.86 12.63c3.811 9.28.774 17.6-2.798 26.29 6.343 5.27 12.412 11.05 18.258 16.87 46.446 46.26 58.506 96.57 58.966 160.16 6.2-.62 10.91.03 16.16 3.63 4.65 3.18 7.5 7.78 8.47 13.32a25.8 25.8 0 0 1-4.38 19.16c-5.82 8.15-12.76 9.98-22.05 11.66-2.54 20.21-13.42 42.88-23.98 60.09-24.523 40-64.719 70.88-108.664 86.86-11.124 4.04-22.643 6.63-34.142 9.35.324 7.73-.09 14.88-5.731 20.8-4.574 4.8-10.869 6.22-17.238 6.58-5.315-1.27-10.201-2.29-14.93-5.22-8.054-4.98-10.758-12.48-12.624-21.26-9.002-.48-17.665-1.42-26.486-3.33-59.753-12.96-107.328-51.98-137.158-104.78-7.942-14.05-12.128-30.33-20.851-43.74l-.818-1.24c-1.641.61-3.299 1.21-4.998 1.64-6.034 1.5-12.317.34-17.524-3.05-5.118-3.33-8.578-9.01-9.639-14.97a23.75 23.75 0 0 1 4.472-18.53c5.943-7.82 12.868-9.1 21.984-10.05-6.194-44.58 1.32-96.58 24.101-135.78 8.199-14.1 18.672-26.44 28.239-39.58-2.741-4.86-4.893-9.17-5.261-14.83-.418-6.44 1.444-12.64 5.798-17.46a25.43 25.43 0 0 1 17.917-8.21c10.249-.22 16.293 5.38 23.194 12 26.821-18.94 58.879-29.08 91.418-31.38"/><path fill="#FDF9F7" d="M796.28 1406.43c4.601 1.74 14.379 4.43 17.351 8.18l-.98 1.87-8.98 3.66zm111.117-47.67c2.481 2.7 5.788 7.34 5.633 11.03-1.744 3.02-3.598 3.44-6.649 5.01l-2.966.99-.946-1.2c.417-5.45 2.994-10.75 4.928-15.83m-145.818 3.91c3.644 3.43 6.761 13.14 8.932 17.87l-.489 1.26c-3.867-1.84-7.988-3.27-11.977-4.84.938-4.82 2.278-9.54 3.534-14.29m121.146-92.32c1.024-.27 2.083-.07 3.134 0l.018 1.79c-1.501 2.34-2.741 3.76-5.225 5.1-3.611 1.95-6.019 1.52-9.816.33l-10.05-3.89zm-2.9 132.65c.012.38.068.76.036 1.14-.34 3.95-2.872 10.59-6.663 12.43-3.225 1.58-5.295.15-8.489-.87-1.607-1.4-.882-.54-2.06-2.66 3.31-4.61 12.014-7.55 17.176-10.04m-116.134-92.03.929.91c-.193 4.67-1.237 9.43-2.115 14.01-.436 2.28-.779 5.73-2.733 7.05l-1.672-2.31c-2.59-4.49-4.771-8.97-6.849-13.7 4.027-2.18 8.298-4.01 12.44-5.96m134.035-10.63c5.862 1.82 11.435 4.06 17.092 6.44-1.891 4.88-3.274 10.02-4.82 15.02l-1.516 2.48c-4.889-3.83-8.446-17.85-10.756-23.94m-122.104-32.17a428 428 0 0 0 24.511 6.15l-8.66 6.04-11.357 7.97zM1038 1332.03c2.35-.06 4.86-.05 7.12.69 3.24 1.06 6.12 3.48 7.7 6.49 1.55 2.97 1.83 6.15.71 9.32-1.5 4.29-4.29 6.38-8.19 8.4-2.21.28-4.75.73-6.96.34-3.42-.6-6.58-2.66-8.27-5.76-1.67-3.07-1.96-6.3-1-9.66 1.45-5.05 4.48-7.35 8.89-9.82m-96.481-217.01c2.199.23 4.199.47 6.266 1.3 3.884 1.56 7.151 4.72 8.553 8.71 1.039 2.96.795 6.44-.669 9.21-2.077 3.94-5.62 5.43-9.611 6.84-2.623.04-5.334.14-7.854-.69a13 13 0 0 1-7.895-7.29c-1.266-3.05-.996-6.52.277-9.53 2.16-5.11 6.12-6.58 10.933-8.55m-99.342 402.09c1.984-.13 4.022-.28 6.004-.07 3.837.42 7.29 2.59 9.56 5.69 2.203 3.01 2.98 6.56 2.123 10.21-1.178 5-4.457 7.53-8.662 10.06-2.103.2-4.291.44-6.4.22a14.22 14.22 0 0 1-9.811-5.67c-2.038-2.77-2.634-6.11-1.985-9.47 1.074-5.55 4.61-8.17 9.171-10.97m-146.065-392c1.998-.11 4.041-.24 6.038-.07a14.23 14.23 0 0 1 9.906 5.37c2.086 2.67 2.647 5.93 2.213 9.22-.802 6.09-4.806 9.76-9.336 13.42-1.933.16-3.99.35-5.916.04-4.121-.67-8.68-3.7-10.847-7.26-1.92-3.15-2.34-7.2-1.4-10.74 1.316-4.97 5.214-7.44 9.342-9.98m-73.046 214.97c2.397.14 4.909.22 7.244.8 3.742.95 7.08 3.36 8.973 6.75 1.69 3.02 1.916 6.49.996 9.79-1.622 5.82-5.491 8.61-10.426 11.63-1.925-.06-3.946-.05-5.829-.49-4.179-.96-8.451-4.37-10.414-8.15a13.5 13.5 0 0 1-.64-11.04c1.875-4.92 5.566-7.1 10.096-9.29m119.082-131.56c8.231 4.93 15.015 15.83 22.388 22.39 14.267 12.68 30.124 23.3 46.454 33.09-12.348-.79-33.965-6.46-45.79-10.75-11.553-11.93-17.365-29.44-23.052-44.73m172.527-14.55.514.5c.745 11.39-19.319 50.35-26.475 60.18-13.769 3.7-28.147 6.55-42.258 8.59l-.46-.37c.121-2.72 8.997-7.8 11.609-9.59 23.972-16.4 40.749-35.52 57.07-59.31M752.971 1387.5c8.714 2.81 17.234 6.36 25.775 9.66 5.855 8.16 9.523 18.34 13.625 27.48l-28.948 12.38a744 744 0 0 0-27.884 11.99c6.286-20.4 11.723-40.96 17.432-61.51m-14.416-62.54c5.681 3.23 11.854 16.19 15.422 22.11-3.079 8.57-5.629 17.27-8.213 26a1102 1102 0 0 0-40.314-11.99l-27.503-8.42c19.885-9.83 41.104-17.16 60.608-27.7m178.21 57.32c7.113 7.3 24.122 51.61 29.229 63.43-7.772-3.35-15.839-6.19-23.744-9.23-12.147-5.21-24.862-9.13-37.079-14.25a669 669 0 0 0 10.696-28.21c6.601-4.46 13.865-8.01 20.898-11.74m10.455-185.76c.055.12.117.24.166.36 2.344 5.86 2.602 13.34 3.279 19.65 3.075 28.62.263 52.32-10.293 79.12-6.297-2.26-12.754-4.2-19.117-6.27-3.494-1.22-6.293-3-9.392-5 10.63-29.89 25.908-57.28 35.357-87.86m-91.692 224.43c10.18 1.16 22.624 6.67 32.582 9.77-6.888 23.29-16.454 45.71-24.546 68.59-3.553-3.16-28.781-58.6-32.514-67 8.354-3.33 16.394-7.43 24.478-11.36m92.403-110.54c16.38 6.66 71.146 23.08 80.909 32.32l-.61 1.92c-6.42 4.14-20.877 1.75-28.412 1.27-19.206.74-36.757 10.76-54.055 18.34-3.276-7.08-6.602-13.97-10.586-20.69 4.213-11.1 8.921-21.89 12.754-33.16m-205.832-123.64c5.201 7.63 7.65 19.1 10.734 27.82 3.587 10.13 7.536 20.4 12.386 30 4.688 9.27 14.87 15.83 18.701 25.23 2.938 7.21 3.227 15.47 4 23.15-2.528 2.15-5.265 4.09-7.912 6.1-4.616 2.92-9.445 5.59-14.162 8.35-22.395-38.41-25.616-77.22-23.747-120.65m157.828 247.63c11.052 4.03 21.9 8.62 32.922 12.74 12.39 4.62 27.536 8.65 38.631 15.81-12.485 8.84-24.803 16.43-38.656 23.03-14.672 6.76-31.03 14.25-47.06 16.89-3.282.54-5.693.92-8.473-1.04.01-12.28 17.855-52.41 22.636-67.43m-82.685 2.46c.623.31 1.392.42 1.869.92 1.502 1.59 29.437 57.82 34.058 66.57a254.7 254.7 0 0 1-54.305-10.19c-16.578-5.82-32.144-13.75-45.653-25.07 15.151-12.31 45.632-24.13 64.031-32.23m-133.707-73.28c15.46.02 60.516 15.34 77.798 20.29-4.336 18.59-10.299 36.54-16.357 54.63l-5.043 16.37c-24.036-13.31-42.678-46.6-53.284-70.93-2.925-6.7-5.899-13.3-3.114-20.36m313.797-6.31c13.196-1.22 26.148 3.71 38.578 7.52-11.19 30.98-25.776 60.88-48.116 85.45-1.497-.13-2.833-.57-4.274-.97-6.15-6.14-29.468-60.12-34.957-71.75 15.86-7.79 31.137-17.28 48.769-20.25m-35.984-194.8c10.39 5.12 20.132 14.87 27.881 23.31 37.361 40.69 47.321 83.89 44.991 137.65l-8.67-1.59c-25.01-5.83-48.868-13.34-73.196-21.48 5.539-16.04 10.189-32.27 11.106-49.31 1.059-19.67-2.801-39.39-3.695-59.03-.457-10.04.671-19.6 1.583-29.55m-236.504 6.04c6.457 4.08 6.205 21.25 6.251 28.33.307 47.95 2.367 70.58 22.873 115.65-18.026 10.06-37.559 18.03-56.375 26.52l-15.425 7.03c-5.999-12.13-8.454-24.28-9.466-37.73-4.271-56.73 16.189-97.8 52.142-139.8m120.739 110.87c16.265-.59 31.841 1.93 45.601 11.22 13.882 9.38 21.847 23.61 24.71 39.84a70.1 70.1 0 0 1-11.838 52.29c-9.65 13.42-24.539 19.95-40.384 22.51-15.55 1.05-30.964-2.17-44.126-10.83-13.832-9.1-23.857-25.04-27.011-41.23-3.117-16 .274-34.14 9.647-47.52 9.968-14.24 26.503-23.25 43.401-26.28m-13.914-158.99c30.261-5.3 79.286 4.54 105.165 21 .294 7.09-.103 14.06-1.704 20.99-9.498 41.05-47.711 72.81-81.704 94.04-1.145.71-2.098.93-3.388 1.28-11.995-2.35-22.769-9.21-32.88-15.81-32.753-21.36-59.734-49.13-68.037-88.27 21.091-19.43 54.631-29.99 82.548-33.23"/><path fill="#4C0455" d="M541.566 1221.36c8.778-19.12 17.624-37.85 29.152-55.52 38.089-58.37 97.696-104.92 162.888-129.06 67.817-25.11 149.887-32.05 217.082-1.29 52.622 24.08 97.282 69.24 117.302 123.86 3.84 10.47 6.95 21.28 8.49 32.34 3.26 23.49 1 64.07 15.96 82.87 16.17 20.33 58.57 51.88 66.41 76.26 2.27 7.06 1.5 14.58-1.54 21.29-8.38 18.47-30.05 22.75-43.49 36.31 7.28 5.27 15.19 10.77 16.42 20.44 1.13 8.94-4.17 17.46-8.8 24.68 5.9 1.99 14.38 6.99 16.83 13.17 1.85 4.66 1.33 9.6-.75 14.1-3.99 8.61-12.4 13.43-17.68 21.05 10.83 20.06 24.12 39.51 17.06 63.6-4.66 15.88-18.46 27.51-32.66 34.92-31.13 16.22-72.18 17.94-106.843 18.06-1.248 26.2-5.483 52.48-5.523 78.68-6.484 2.15-24.331 10.17-30.255 8.06 2.774-29.59 2.18-63.79 7.215-92.43-7.314-7.98-16.191-14.21-24.81-20.69 40.871-1.53 84.556 2.24 124.406-8.39 17.47-4.67 33.68-11.55 43.17-27.81-1.65-23.72-19.66-37.3-18.9-52.83.61-12.33 15.32-20.55 15.49-28.42-4.64-6.48-21.43-9.5-28.86-11.44 10.45-9.33 19.14-18.75 27.08-30.31-8.01-5.3-15.09-10.95-18.21-20.44-11.32-34.47 39.08-35.59 44.34-51.79 3.08-9.48-58.11-62.54-65.78-76.01-16.07-28.22-11.94-69.43-19.24-100.6-4-17.05-11.77-32.52-21.22-47.16-28.177-43.62-75.532-78.42-126.572-89.33-73.068-15.63-160.255 8.8-221.603 48.73-15.855 10.31-30.17 22.62-43.735 35.76-51.714 50.08-73.31 105.84-87.928 174.56-7.169-1.36-14.257-1.27-21.188-3.88 15.873 28.28 36.542 61.57 58.867 85.07 21.709 22.86 51.987 39.54 67.14 67.91 2.791.61 5.686 1.24 8.342 2.31 7.832 3.16 28.757 17.38 31.988 24.73l-.671 1.35c-8.138 1.49-18.937-4.96-26.302-8.33 5.422 5.15 14.226 8.91 18.534 14.82l-1.296 2.78c-.641.81-1.594 2.08-2.344 2.75-2.51 2.22-4.218 2.17-7.391 2.18-7.175.03-11.283-1.99-16.269-6.95l-3.658 1.31c.056.42.119.84.166 1.26.448 4.11.359 6.66-1.052 10.57-3.71 2.62-8.365 4.43-9.356 9.3-1.941 9.54-.27 23.12 1.911 32.62 5.357 23.33 14.715 46.83 22.268 69.62l44.923 133.61c9.03-7.69 17.894-15.34 25.749-24.27 33.634-38.26 54.216-89.84 67.313-138.57 4.63-17.22 7.431-35 12.62-52.05 3.999 81.43-14.273 162.16-70.23 223.81-19.038 20.97-41.129 34.2-64.166 49.88 5.87-.65 12.066-1.09 17.76-2.7 28.276-7.99 54.424-31.78 72.394-54.14 31.661-39.4 46.798-88.83 54.551-138.15 1.958-12.46 2.316-25.23 4.588-37.59 3.587 62.68-6.046 134.57-49.211 182.96-10.534 11.81-21.707 22.26-34.159 32.01-6.805 5.33-14.276 10.12-20.631 15.96l.28 1.16.878.31a709 709 0 0 0 26.043-.38c29.447.35 59.369 2.85 88.748 1.33-40.993 13.78-88.25 13.57-131.11 15.29a3523 3523 0 0 1-171.336 2.67c-99.633-.04-198.83-.56-298.431-3.55 12.74-2.44 27.055-1.5 40.035-1.85-11.065-3.24-40.628-7.34-46.092-17.6-4.813-9.04.912-23.46 3.503-32.71-3.621-2.97-7.648-5.49-11.514-8.13 11.387-24.71 26.305-49.19 42.398-71.1 14.354-19.54 33.048-39.81 42.666-62.17 14.824-34.48 17.214-96.7 19.422-135.15l-11.829-5.4c4.562-14.08 7.444-28.69 11.407-42.96 5.016-18.05 11.051-35.92 16.735-53.77 10.666-33.51 21.215-68.73 38.257-99.6 6.472-11.72 14.691-23.44 24.703-32.42 15.27-13.7 30.49-15.57 50.263-14.64-2.625-2.57-5.642-4.87-8.449-7.25a718 718 0 0 0 7.134-14.3c-9.257-17.55-18.445-34.59-19.05-55.11-.647-21.91 8.783-16.25 15.894-26.01 2.256-3.09 3.08-8.15 5.905-10.65 5.671-5.01 14.633-5.49 21.863-5.32 13.386.31 37.431 3.49 46.735 13.95 3.092 3.48 5.208 7.96 4.638 12.7-.756 6.28-5.239 11.39-9.961 15.22-.285.23-.576.46-.864.69 2.705 15.45 4.065 24.94 14.249 37.69-1.037 1.52-2.129 3.05-3.038 4.65-1.59 2.81-1.711 3.48-.738 6.56.998.85 2.461 1.59 2.713 2.9z"/><path fill="#FDF9F7" d="M620.354 1482.71c7.122 4.17 13.973 7.55 21.817 10.14l-4.79 4.26c-3.068 3.12-6.564 5.69-10.021 8.37-4.178-7.2-5.574-14.71-7.006-22.77m-83.358-263.8c.998.85 2.461 1.59 2.713 2.9l1.857-.45c-.268 6.41-8.292 23.69-10.483 31.14a497 497 0 0 0-10.282 42.5c-3.1-4.84-6.138-9.93-9.765-14.39-4.703-5.79-15.504-12.72-17.321-19.78-.434-1.69.363-2.36 1.103-3.81 6.868-4.39 13.935-3.4 21.797-3.32.453-.57.916-1.13 1.346-1.72 2.462-3.36 4.264-5.35 7.775-7.7 2.535-7.54 11.171-18.02 11.26-25.37m-125.257 351.51c18.479 9.14 58.003 52.97 65.827 72.98 1.338 3.42 2.3 7.02 2.212 10.72-.262 10.95-4.626 22.34-7.276 32.91-8.564 34.17-15.643 67.32-30.336 99.55 4.334.33 8.509 1.24 12.759 2.11-1.121 8.42-1.678 16.81-1.973 25.3a4689 4689 0 0 0-75.713 1.88c-10.139.12-20.291.55-30.427.85-.516-3.7-.993-7.43-1.741-11.09-4.638-22.65-22.936-12.91-38.506-17.54-3.384-1-6.672-3.48-9.607-5.4 15.894-15.8 29.715-40.64 42.863-59.26 15.446-21.86 35.301-43.43 46.382-67.81 12.039-26.48 18.644-57.03 25.536-85.2m80.918-179.89c31.666 24.98 61.723 51.61 93.867 76.07 7.631 20.77 14.894 47.78 23.903 67.14l-17.772 20.36c6.549 4.44 12.436 10.11 18.391 15.32l8.404-8.67c23.941 68.77 44.941 138.55 70.92 206.61-16.807 9.12-33.244 17.66-51.058 24.66-22.167 7.92-44.835 13.37-67.552 19.38-1.651-6.45-3.676-14.21-9.037-18.65-7.448-6.15-20.057-3.78-29.034-3.2-4.324-2-8.294-4.63-12.331-7.14 12.644-37.24 36.954-89.98 40.794-128 .884-8.75.134-17.12-2.874-25.45-10.933-30.27-61.89-94.18-84.28-121.96-2.151-32.23-.231-90.04 17.659-116.47"/></svg>