<svg xmlns="http://www.w3.org/2000/svg" style="display:block" viewBox="0 0 2048 2048"><path fill="#FEFDFC" d="M0 0h2048v2048H0z"/><path fill="#F95BA5" d="m715.222 943.469 24.729-.05-.045 123.661-25.335.06c.642-27.75.227-55.57.207-83.329-.01-13.346-.677-27.057.444-40.342"/><path fill="#4D286D" d="M1244.3 942.997a9488 9488 0 0 0 102.09.076l-.09 19.999-37.4.418.02 67.01.03 36.13-24.71.23-.06-103.465c-13.22-.566-26.61-.181-39.85-.224zm110.17-.012 101.16.101-.11 20.282-37.43-.395.54 65.957.16 38.04-25.64-.09-.15-104.648-38.53.219zM142.561 1281.48c47.74 18.78 90.77 32.38 140.963 43.4-6.653 4.98-13.747 9.1-21.125 12.89-18.152 9.82-40.832 13.16-61.128 9.86-27.818-4.51-49.88-18.53-66.164-41.29 2.109-8.35 4.946-16.62 7.454-24.86M1470.44 943.03l87.54.058.03 20.647c-21.02.339-42.09.081-63.12.107l.04 30.377 55.66-.14.2 20.111c-18.41-.17-37.42-1.28-55.77.07l-.11 31.11 65.07-.05-.1 21.72a2797 2797 0 0 0-89.39-.49 10685 10685 0 0 0-.05-123.52"/><path fill="#F95BA5" d="M312.147 960.315c10.733-1.176 21.721.735 30.921 6.581 10.278 6.531 17.2 17.028 19.863 28.844 2.96 13.13.965 27.67-6.598 38.95-8.427 12.56-20.267 17.61-34.564 20.29-11.159.44-20.886-.8-30.442-7.05-11.274-7.38-19.012-19.82-21.272-33.05a47.25 47.25 0 0 1 8.576-35.976c8.382-11.276 19.962-16.583 33.516-18.589"/><path fill="#FEFDFC" d="M312.976 989.149c2.61-.105 5.177-.127 7.757.368 5.002.96 9.794 4.186 12.428 8.565 2.656 4.418 3.079 9.738 1.498 14.598-2.189 6.73-6.535 9.67-12.527 12.86-3.169.19-6.279.35-9.371-.52-5.151-1.46-9.524-5.18-11.952-9.92a17.85 17.85 0 0 1-.766-14.79c2.406-6.099 7.173-8.775 12.933-11.161"/><path fill="#4D286D" d="m1179.01 942.981 24.38.046c15.64 41.611 33.17 83.593 51.62 124.053l-27.31-.08c-2.75-9.08-6.47-18.07-9.71-27.01l-14.49.01h-40.64c-3.55 8.81-6.56 17.87-9.74 26.82l-25.45.07a3549 3549 0 0 1 51.34-123.909"/><path fill="#FEFDFC" d="M1190.4 967.561c4.5 4.356 16.79 44.099 19.86 52.819l-17.76.1-21.41-.18c6.86-17.38 12.86-35.199 19.31-52.739"/><path fill="#4D286D" d="m1784.85 943.017 24.05-.048.03 123.951-23.64.17c-16.51-28.23-37.34-54.31-56.63-80.698a4786 4786 0 0 0 .01 80.498l-24.19.01-.09-123.864c6.54-.043 13.06.177 19.59.41 9.27 9.196 16.92 20.925 24.59 31.468l36.39 50.466zm-745.92.273c23.45-.185 63.21-5.13 81.94 10.218 8.45 6.926 13.05 17.017 13.93 27.809.88 10.676-1.86 21.783-8.91 30.023-8.47 9.91-19.95 12.96-32.43 13.83-10.09.62-20.3.4-30.41.48v41.36h-24.19c-.09-41.2-.9-82.532.07-123.72"/><path fill="#FEFDFC" d="M1062.83 962.901c11.96-.135 27.7-2.011 38.49 4.133 4.68 2.667 8.72 6.825 9.99 12.198 1.73 7.3-2.26 15.564-6.11 21.488-12.23 8.68-28.09 6.51-42.33 6.33z"/><path fill="#F95BA5" d="m768.415 943.092 20.079-.091c8.869 9.868 16.539 21.396 24.507 32.009a2196 2196 0 0 0 37.888 49.23 3652 3652 0 0 0 .499-80.515l22.87-.176c.361 40.747-.155 81.541-.211 122.291l-.592.65c-5.546 1.8-14.044.69-19.981.62-20.093-25.34-39.455-51.24-59.6-76.517l.136 76.657-25.437-.1a9542 9542 0 0 1-.158-124.058m-209.356.057c7.157.117 14.335-.171 21.491-.345 14.197 26.311 26.098 54.148 42.149 79.426 7.189-11.1 12.645-23.657 18.492-35.513a1600 1600 0 0 1 22.412-43.668l21.42.001c-3.41 39.966-1.129 83.81-.974 124.22l-21.923-.2.007-28.82-.19-46.739c-9.028 20.269-20.848 39.259-30.036 59.519-6.138.04-12.297-.22-18.434-.38-11.95-17.24-22.618-40.84-31.506-60.02-.793 25.53-.17 51.23-.01 76.77l-22.957-.08z"/><path fill="#4D286D" d="M1581.67 943.134c20.53-.111 43.61-2.37 63.84 1.037 11.39 1.92 22.18 7.065 28.83 16.833 6.35 9.342 8.62 23.082 6.08 34.045-3.21 13.821-12.93 22.141-24.42 29.251 9.28 14.42 18.5 28.79 28.63 42.64l-13.86-.09-14.89.11c-8.28-13.08-17.14-25.58-26.18-38.14-7.62-.23-15.24-.3-22.86-.44v38.34l-25.11.01a10565 10565 0 0 0-.06-123.596"/><path fill="#FEFDFC" d="M1608.31 962.465c12.46-.19 32.52-2.675 42.07 6.94 4.54 4.559 6.01 11.02 6.01 17.275 0 7.714-3.03 11.86-8.44 17.05-12.23 6.8-28.19 4.64-41.73 4.37-.09-14.269-1.7-30.418.37-44.444z"/><path fill="#4D286D" d="M185.806 2048c9.477-12.45 18.109-26.88 28.933-38.08 2.131.52 6.357 2.53 8.215 2.5 6.542-.11 15.613-4.9 22.148-6.61a237.5 237.5 0 0 1 32.454-6.16c58.928-6.92 119.125 11.29 173.561 32.36 12.921 5 26.483 9.86 38.895 15.99z"/><path fill="#F95BA5" d="M903.815 943.487c29.187.542 69.569-5.964 93.226 14.277 13.239 11.332 19.629 27.46 20.549 44.596.96 17.91-4.55 34.11-16.6 47.4-26.741 23.76-63.861 17.47-96.93 17.3z"/><path fill="#FEFDFC" d="M929.953 965.27c16.121-.112 35.59-1.768 48.835 9.144 8.334 6.865 11.84 17.149 12.491 27.656.812 13.1-2.32 23.67-11.04 33.51-13.737 12.98-33.118 10.76-50.516 10.57z"/><path fill="#F95BA5" d="M305.661 906.36c8.111-.929 16.756-.947 24.862.075 25.718 3.244 49.867 17.835 65.647 38.181 17.353 22.373 24.476 49.437 20.764 77.444a96.46 96.46 0 0 1-37.577 64.6c-8.032 6-21.324 15.07-31.915 13.2-3.675-.65-7.188-2.68-9.265-5.83-1.852-2.81-2.237-6.24-1.332-9.44 2.785-9.87 13.843-13.55 21.73-18.32 14.346-8.66 24.733-25.58 28.553-41.63 4.387-18.44 1.91-38.835-8.321-54.948-11.871-18.696-28.383-29.647-49.702-34.576-13.989-1.473-28.192-.111-41.24 5.38-17.431 7.337-31.866 22.761-38.731 40.308-10.813 27.636-3.926 60.346 18.688 79.986 5.63 4.89 27.964 16.13 29.274 20.23 1.316 4.12-.031 8.92-2.274 12.46-2.366 3.75-5.867 6.58-10.275 7.4-8.268 1.54-23.126-8.07-29.601-12.92-20.395-15.29-35.163-39.13-38.727-64.42a105.1 105.1 0 0 1 19.793-77.018c17.224-22.812 41.505-36.395 69.649-40.162"/><path fill="#F95BA5" d="M305.641 852.419a153.84 153.84 0 0 1 108.646 35.271 154.82 154.82 0 0 1 55.097 106.053 158.17 158.17 0 0 1-38.549 117.397c-15.286 17.82-49.265 44.39-73.74 45.54-4.694.22-11.953-.79-15.309-4.51-2.306-2.56-2.884-5.39-2.423-8.71.251-1.81 1.147-5.97 2.19-7.41 5.345-7.39 23.787-11.99 32.108-16.18a125 125 0 0 0 17.807-11.01c27.312-20.16 44.37-50.28 49.177-83.8 4.679-32.635-2.956-65.901-22.954-92.272-23.026-30.364-52.469-46.339-89.771-51.646-16.46-.87-31.491.215-47.302 5.153-33.454 10.45-59.347 32.2-75.407 63.311a126.5 126.5 0 0 0-8.324 96.934c10.649 32.78 35.018 61.29 66.693 75.41 7.648 3.41 18.49 4.22 25.154 8.39 3.371 2.11 5.889 5.16 6.814 9.08 1.034 4.37-.172 9.08-2.797 12.68-2.405 3.29-6.169 5.65-10.278 6-17.58 1.46-51.068-19.74-64.364-30.63-30.291-24.8-51.241-63.4-54.823-102.41-4.067-44.305 8.474-85.236 37.166-119.315 26.668-31.674 64.17-49.919 105.189-53.326"/><path fill="#B188C9" d="m1330.04 1220.98 62.2.1c6.83 26.34 15.58 52.12 21.89 78.63a1276.2 1276.2 0 0 1 36.71 270.29c.7 31.98-.59 63.89-1.86 95.83a2958 2958 0 0 1-60.03-.1c1.87-17.72 2.06-35.78 2.46-53.59 2.88-127.76-19.72-270.42-61.37-391.16m164.23-.03c21.41-.36 42.79-.09 64.19-.02 4.95 24.21 11.33 48.19 16.39 72.4a1729 1729 0 0 1 24.49 151.46 1859 1859 0 0 1 9.31 151.08c.54 23.72.11 47.43.93 71.15-20.97-.36-41.85-.66-62.82-.17a1583.8 1583.8 0 0 0-52.49-445.9m-333.12-.29c22.29.46 44.63.26 66.93.32 2.8 11.12 7.45 22.28 11.14 33.16a845 845 0 0 1 17.87 57.64c30.19 110.66 46.92 237.8 34.86 352.16-8.32 2.2-49.25-.05-61.3-.24a1012.96 1012.96 0 0 0-69.5-443.04M192.955 572a404 404 0 0 1 20.004.867c167.849 11.672 335.995 77.664 469.62 179.511 20.901 15.93 45.47 32.344 62.793 52.253l-93.07-.114c-8.195-4.898-15.887-11.079-23.736-16.557-15.513-10.826-31.258-21.585-47.539-31.229-125.888-74.57-242.456-110.178-387.931-123.564z"/><path fill="#4D286D" d="M1697.83 0h51.54c-22.35 14.51-45.26 27.394-66.26 43.925-78.37 61.689-130.64 151.554-151.32 248.668-11.79 55.381-16.36 149.801 15.22 197.952 15.88 24.214 48.05 38.909 75.55 44.51 24.89 5.072 50.74 6.889 75.06 14.67 3.4 20.466 7.69 54.107 25.82 67.111 10.13 7.266 23.49 6.452 35.14 4.179 21.65-4.224 42.11-14.532 61.85-24.055a4134 4134 0 0 0 36.04 109.826c9.9 28.674 20.71 57.211 29.72 86.172 48.73-39.808 102.67-67.082 161.81-87.638v31.006c-66.64 24.579-124.97 60.502-175.49 110.49l-70.33-208.655c-7.09 2.516-14.29 4.94-21.54 6.929-21.37 5.862-48.53 10.798-68.67-1.215-23.04-13.735-33.44-46.48-39.35-70.892-19.9-4.576-40.3-6.642-60.25-10.985-36.24-7.887-66.96-24.67-87.14-56.632-38.05-60.244-33.71-161.791-18.03-229.215 25-107.472 95.93-217.29 190.63-276.151"/><path fill="#B188C9" d="M193.063 413.173a1270 1270 0 0 1 69.442 5.601c230.939 25.071 446.472 133.927 614.121 293.014 31.055 29.468 61.7 59.869 88.577 93.252a5560 5560 0 0 0-82.779-.623c-15.188-13.786-29.256-29.109-44.14-43.269a1248 1248 0 0 0-73.228-63.643 982.9 982.9 0 0 0-572.125-222.617z"/><path fill="#B188C9" d="M193.06 255.277a1203 1203 0 0 1 173.604 19.841 1248.97 1248.97 0 0 1 790.546 529.013l-74.55-.264c-9.12-10.254-17.04-22.098-25.51-32.925a1181 1181 0 0 0-39.55-47.261 1182.9 1182.9 0 0 0-694.851-392.674c-42.693-7.21-86.072-11.059-129.249-13.962a4736 4736 0 0 1-.44-61.768"/><path fill="#B188C9" d="M193.037 96.894c101.894 4.733 203.842 18.491 301.888 47.383a1507 1507 0 0 1 191.073 68.518 1448.1 1448.1 0 0 1 524.172 400.517 1469 1469 0 0 1 95.69 129.972c13.03 19.744 26.29 39.806 37.6 60.587a5567 5567 0 0 0-73.09.074c-7.2-9.605-13.44-20.142-20.18-30.098a3556 3556 0 0 0-34.24-48.637 1564 1564 0 0 0-87.14-108.828 1341.94 1341.94 0 0 0-782.695-442.4c-50.715-8.749-101.793-13.276-153.096-16.635z"/><path fill="#FEFDFC" d="M1749.37 0H2048v705.32c-59.14 20.556-113.08 47.83-161.81 87.638-9.01-28.961-19.82-57.498-29.72-86.172a4134 4134 0 0 1-36.04-109.826c-19.74 9.523-40.2 19.831-61.85 24.055-11.65 2.273-25.01 3.087-35.14-4.179-18.13-13.004-22.42-46.645-25.82-67.111-24.32-7.781-50.17-9.598-75.06-14.67-27.5-5.601-59.67-20.296-75.55-44.51-31.58-48.151-27.01-142.571-15.22-197.952 20.68-97.114 72.95-186.979 151.32-248.668 21-16.531 43.91-29.415 66.26-43.925"/><path fill="#B188C9" d="M1673.65 365.178c2.7-.302 5.4-.576 8.12-.509 13.32.33 26.49 7.032 35.45 16.746 6.54 7.091 13.31 18.39 12.67 28.413-.4 6.401-1.55 9.838-6.35 14.098-15.52.589-10.48-21.817-19.45-32.702-8.55-10.374-26.26-3.557-34.52-11.706-1.05-1.03-1.81-2.523-1.79-3.999.05-4.205 2.93-7.648 5.87-10.341m154.29-7.171c1.42.329 2.54.566 3.56 1.724 6.52 7.404 9.29 16.515 17.39 23.633 18.34 16.12 34.46.051 47.57.365 2.78.067 3.95.614 5.95 2.467 1.42 2.96 1.65 4.579 1.65 7.863-1.29 3.279-3.42 4.454-6.21 6.334-3.06 1.66-6.44 3.181-9.75 4.292a54.4 54.4 0 0 1-41-2.942c-11.05-5.479-24.35-18.128-28-30.169-.96-3.163-1.2-6.537.67-9.444 1.89-2.93 5.04-3.401 8.17-4.123m-59.21 97.614c1.42.034 2.86.02 4.24.392 9 2.427 17.44 15.748 21.74 23.629 9.42 17.245 14.76 38.577 8.85 57.848-2.87 9.341-7.72 17.977-16.55 22.715-2.22-.292-5.35-.805-7.13-2.39-1.81-1.625-3.01-3.218-2.85-5.765.65-10.581 12.87-18.647 11.65-37.133-1.64-24.744-25.52-41.339-25.81-52.111 1.15-3.361 3.23-4.915 5.86-7.185m153.46-375.206c14.35-.043 29.26 5.423 41.33 12.952 4.58 2.86 10.23 6.797 11.06 12.594.48 3.357-.06 6.093-2.27 8.709-9.77 4.543-24.79-10.73-33.89-14.401-6.08-2.457-13.79-2.477-20.26-2.401-13.44 2.923-21.73 8.755-32.26 17.138-2.18 1.734-4.75 4.319-7.33 5.295-1.71.647-4.51-.016-5.97-1.018-2.13-1.462-3.23-3.955-3.46-6.462a11.8 11.8 0 0 1 2.89-8.818c12.47-14.11 31.7-22.121 50.16-23.588M2048 182.438c-9.43-9.186-20-16.826-32.97-20.028-18.25-4.505-39.88.452-54.82 11.815-4.72 3.587-8.45 9.64-13.58 12.433-2.97 1.613-5.99 1.665-9.18.812-1.62-1.704-2.21-2.253-2.62-4.666-.74-4.354 1.49-9.469 4.01-12.925 9.36-12.824 32.14-22.277 47.36-25.167 22.07-4.19 43.46 1.593 61.8 14.275zm-216.22 373.366c1.32.048 3.99-.053 5.14.39 1.28.495 16.99 21.737 24.58 26.999 13.28 9.209 35.56 15.45 51.31 10.231 7.21-2.387 14.53-6.892 22.03-8.007 3.22-.479 5.17-.024 7.9 1.863 1.56 2.246 2.32 4.411 1.99 7.174-.37 3.146-2.22 4.659-4.41 6.662-13.82 6.803-27.83 10.322-43.26 10.237a85.38 85.38 0 0 1-60.3-25.946c-5.16-5.243-10.79-12.559-10.46-20.339.18-4.326 2.51-6.521 5.48-9.264m192.87-25.101c3.05.117 6.05.221 8.66 2.038 2.29 1.597 3.38 4.347 3.96 6.972 3.82 17.451-7.55 44.246-17.01 58.72-14.19 21.698-35.09 34.948-60.21 40.323-3.09.327-5.43.243-7.95-1.84-2.14-1.768-3.39-3.958-3.61-6.738-.17-2.207.46-4.893 2.23-6.344 4.02-3.307 12.1-3.685 17.12-5.247 10.97-3.419 20.74-10.416 28.71-18.581 12.86-13.176 21.05-31.44 22.81-49.723.44-4.658.02-12.439 2.19-16.591.46-.873 2.33-2.242 3.1-2.989m-86.98-320.31c19.62-1.052 38.22 3.782 54.41 15.062a87.52 87.52 0 0 1 36.08 57.094c1.66 9.642 2.99 26.351-3.64 34.238-2.22 2.651-4.44 3.018-7.65 3.542-2.28-1.391-4.76-2.771-5.75-5.422-1.27-3.43-.68-7.756-.57-11.372.47-15.827-.2-29.277-8.61-43.194-10.37-17.169-30.18-30.129-50.14-32.371-5.9-.663-13.85.252-19.37-1.581-2.57-.852-3.36-2.026-4.71-4.255-.17-2.498.06-4.149 1.28-6.319 1.94-3.453 5.13-4.304 8.67-5.422m-298.84-34.659c2.56.138 3.96.672 5.9 2.29 2.32 1.934 4.35 4.855 4.39 7.968.03 1.985-.75 4.332-2.23 5.711-2.43 2.249-6.41 3.708-9.3 5.397-5.95 3.482-11.42 8.076-16.14 13.086a75.2 75.2 0 0 0-20.82 54.194c.6 16.768 7.43 27.073 19.17 38.116-2.5 3.566-5.34 6.576-8.38 9.678-1.64-.098-3.37-.202-4.94-.743-7.51-2.583-13.6-10.753-16.86-17.624-9.17-19.379-8.19-42.314-.97-62.12 8.67-23.801 27.17-45.06 50.18-55.953m121.8-118.431a94 94 0 0 1 11.11-.482c20.35.224 50.87 7.618 65.22 23.135 2.51 2.708 3.96 5.802 3.4 9.59-.38 2.632-1.55 3.91-3.49 5.536-9.97 1.714-28.65-13.554-39.7-17.403-20.14-7.02-38.43-4.791-57.34 4.371-10.67 6.206-20.62 14.137-27.29 24.687-5.22 8.256-5.72 20.1-14.6 25.767-2.65 1.687-4.47 1.759-7.45 1.093-1.76-1.792-2.5-3.165-2.92-5.6-1.98-11.405 5.66-24.693 12.18-33.663 14.76-20.306 36.14-33.236 60.88-37.031M2048 639.024c-5.26 8.909-10.71 16.66-18.14 23.897-21.02 20.445-48.17 30.7-77.39 30.253-19.43-.297-37.57-5.649-54.92-14.214-3.05-1.504-8.01-3.646-10.03-6.343-1.95-2.586-2.95-5.692-2.64-8.927.28-3.1 1.55-4.631 3.91-6.476 7.62-1.687 20.34 8.596 27.69 11.789 3.87 1.681 7.89 2.634 12 3.542 35.79 7.919 77.1-1.305 98.71-33.001 3.9-5.716 6.42-16.159 12.05-19.751 3.49-.809 5.67.518 8.76 1.932zm-89.72-337.142c2.54.059 4.67.338 7.09 1.112 20.49 6.55 41.17 23.563 51.06 42.725 10.27 19.906 12.16 46.344 5.2 67.616-6.71 20.498-20.64 33.114-39.43 42.632-2.81-.262-4.95-.523-7.34-2.133-2.74-1.843-3.69-3.7-4.41-6.832 2.22-7.4 10.68-9.795 16.31-14.249 4.06-3.214 7.84-7.235 10.87-11.44 9.36-12.977 12.61-29.302 10.13-44.992-3.24-20.519-13.55-37.682-31.65-48.466-6.06-3.609-13.21-6.067-18.82-10.302-1.97-1.486-3.93-3.39-4.11-5.986-.31-4.277 2.43-6.796 5.1-9.685"/><path fill="#B188C9" d="M1894.42 19.354c25.85-3.247 53.66 3.03 75.67 16.855 18.36 11.533 30.18 26.527 40.07 45.587 2.38 4.602 5.61 10.163 6.55 15.295.48 2.615-.43 5.383-2.14 7.398-1.88 2.206-3.8 2.536-6.52 2.731-1.65-.538-3.49-1.003-4.73-2.322-4.13-4.414-7.17-12.69-10.09-18.06-6.01-11.074-13.24-19.722-22.38-28.335-12.54-9.972-25.85-16.872-41.57-20.4-23.54-5.283-51.51-2.125-72.47 10.392-5.78 3.454-10.75 8.223-16.51 11.672-3.8 2.277-6.98 2.807-11.24 1.554-1.87-1.737-2.8-2.778-3.12-5.406-.43-3.41 1.29-7.816 3.39-10.457 2.45-3.105 7.04-5.533 10.38-7.61 17.35-10.805 34.48-16.226 54.71-18.894M2048 476.965c-8.54 14.82-19.97 28.982-33.01 40.071-22.69 19.281-54.23 30.353-84.01 27.899-23.05-1.9-49.29-12.911-64.09-31.246-2.57-3.186-4.15-5.789-3.74-9.983 1.53-1.975 2.03-2.682 4.47-3.562 1.3-.468 4.57-1.141 5.91-.804 6.23 1.56 22.55 17.734 31.87 22.129 19.59 9.24 46.58 7.339 66.43.158 24.04-8.7 47.87-27.961 59.09-51.305 3.68-7.654 4.64-17.718 9.11-24.789 1.79-2.838 4.98-3.171 7.97-4.178zm-141.04-139.288c7.46.656 15.8 3.662 22.13 7.531 14.95 9.139 24.43 26.846 28.36 43.525 4.65 19.702.54 40.197-10.26 57.201a68.74 68.74 0 0 1-43.18 30.766c-22.27 4.908-40.69-1.055-59.36-13.076-1.89-1.505-3.72-3.066-5.42-4.789-2.64-2.684-5.68-7.122-5.06-11.159.36-2.283 1.87-4.13 3.89-5.178.72-.374 3.73-1.606 4.49-1.512 3.45.426 22.53 15.308 30.36 18.225 12.04 4.484 27.23 1.939 38.55-3.534 12.66-6.122 21.67-18.001 26.21-31.115 6.6-19.058 3.9-45.959-12.04-59.849-5.91-5.148-18.2-9.714-21.57-16.636.03-3.463 1.04-5.905 2.35-9.094zm-116.37-142.538c3.29-.224 6.51-.775 9.45 1.055 2.56 1.597 4.39 3.236 5.15 6.239-1.21 10.165-18.62 12.125-25.27 18.474-7.33 6.995-9.87 20.753-9.74 30.606.2 16.163 8.06 31.315 19.57 42.356a81.4 81.4 0 0 0 57.58 22.133c21.2-.45 40.92-8.306 55.73-23.541 5.91-6.076 10.9-12.966 16.8-19.071 2.37-.59 3.75-1.074 6.12.092 2.08 1.024 3.53 3.493 4.44 5.543 1.63 3.642.38 5.512-1.02 8.799-10.72 16.456-26.48 30.344-44.68 37.896-24.4 10.125-53.98 9.97-78.32-.257a87.2 87.2 0 0 1-47.34-47.746c-6.68-16.659-8.15-37.171-.76-53.851 6.59-14.879 17.68-22.921 32.29-28.727"/><path fill="#B188C9" d="M1806.31 118.315c11.29-.949 22.24-.703 33.18 2.531 22.8 6.745 41.33 22.289 52.63 43.162 10.67 19.704 12.57 47.403 5.89 68.687-4.97 15.863-16.15 31.257-31.09 38.918-12.97 6.647-27.47 7.764-41.29 3.08-7.14-2.422-17.58-7.031-20.75-14.245-1.31-2.998-1.08-5.572.22-8.51 1.04-2.356 3.24-4.269 5.65-5.061 3.15-1.035 15.99 10.315 20.07 12.545 1.46.515 2.93.95 4.45 1.307 9.21 2.174 16.79-.145 24.67-5.182 12.84-8.21 20.72-21.59 23.61-36.339a71.07 71.07 0 0 0-10.74-53.581c-10.16-15.016-25.83-26.588-43.82-29.94-30.02-5.595-40.66 7.075-63.1 22.539-2.23.231-3.69-.019-5.69-1.104-2.85-1.545-4.16-3.508-5.05-6.616.23-2.57.66-4.247 2.15-6.328 10.48-14.689 31.85-23.146 49.01-25.863m-87.83 29.429c.46.072.92.116 1.38.217 3.39.751 6.96 3.561 8.52 6.729.97 1.963 1.29 3.594.35 5.63-2.67 5.828-15.3 12.142-20.33 16.978-7.03 6.751-12.01 15.448-15.32 24.551-11.53 31.644-2.47 66.586 21.57 89.87 5.07 4.919 14.07 8.234 17.76 14.044 2.65 4.18-.11 9.558 2.01 14.024 20.43 12.685 36.72 32.4 44.27 55.338 7.12 21.616 4.7 45.716-5.56 65.92-14.44 28.417-44 50.165-73.97 59.696-16.73 5.319-55.22 9.39-70.74.668-4.85-2.73-8.14-5.841-9.56-11.291.26-1.375.21-2.485 1.17-3.585 1.86-2.137 4.35-3.185 7.16-3.274 5.19-.166 12.83 2.675 18.05 3.816 10.72 2.337 23.04 1.516 33.79-.322 28.06-4.8 56.6-20.664 73.15-44.233 10.75-15.323 15.96-34.389 12.64-52.97-4.21-23.601-20.18-40.588-39.29-53.689a93 93 0 0 0-40.32-12.451c-21.58-1.634-45.61 4.561-62.12 18.863-14.6 12.654-26.51 32.056-27.63 51.611-.76 13.145 3.03 27.767 12.15 37.567 6.11 6.558 14.42 10.017 23.34 10.262 16.43.453 22.15-10.247 33.09-19.256 1.98-1.626 4.49-1.959 6.97-1.731 3.18.294 4.52 1.441 6.46 3.857.27 1.508.55 2.936.24 4.47-1.69 8.615-11.5 17.327-18.74 21.903-11.64 7.347-25.07 9.949-38.52 6.648a53.92 53.92 0 0 1-33.21-24.638c-9.55-15.795-11.36-36.55-6.9-54.232 6.2-24.578 23.5-45.55 45.07-58.439 25.55-15.265 57.16-16.284 85.42-9.255-11.02-9.514-20.43-19.508-27.4-32.405-12.75-23.609-16.55-51.462-8.51-77.268 7.01-22.533 22.49-42.686 43.56-53.623"/><path fill="#4D286D" d="M449.34 1395.83c14.725-5.71 28.844-14.01 42.826-21.33a6711 6711 0 0 0 88.819-47.78l194.457-103.77c36.139-19.31 71.853-39.35 108.361-57.97.784 16.66 7.893 42.34 6.562 56.24-1.001 10.45-5.999 20.56-9.528 30.37-9.043 25.14-1.792 51.52 12.123 73.37a167 167 0 0 0 22.429 27.63c16.281 16.32 54.47 45.4 62.499 64.51 4.207 10.02 2.2 18.99-4.931 27.04-15.627 17.64-49.837 23.29-48.332 48.28 1.594 26.46 42.973 37.73 20.596 65.45-5.607 6.95-12.58 11.98-20.244 16.45 8.332 4.47 15.816 9.02 18.759 18.67.661 2.17 1.124 4.41 1.589 6.62-5.157 17.82-22.897 28.07-24.784 44.87-2.78 24.76 30.27 48.84 14.169 87.03-4.564 10.83-12.546 19.35-22.793 25.01-17.283 9.54-38.587 11.39-57.934 12.09-29.113 1.05-63.966-3.81-91.451-.94-11.232 1.17-21.438 4.71-30.125 12.14-27.283 23.32-44.311 89.99-54.556 124.46-13.654 45.95-22.842 95.65-22.382 143.73H512.606c-18.311-11.2-39.85-19.45-59.709-27.47-66.026-26.68-134.664-46.77-206.197-29.88-7.505 1.77-14.963 4.03-22.3 6.39 45.419-61.01 109.138-167.14 98.114-245.48-8.601-61.12-53.036-90.69-96.345-127.06 8.257 1.84 16.392 3.11 24.832 3.73 11.126.83 58.783 1.97 67.687-4.61 1.94-1.43 3.148-3.93 3.322-6.3.181-2.46-.615-4.81-2.393-6.55-4.236-4.12-13.147-1.94-18.437-1.3-34.886 4.26-64.046 1.33-97.557-9.42-22.54-24.44-41.138-54.98-54.42-85.32 45.193 31.14 106.474 39.28 159.833 29.39 8.233-1.53 26.914-5.28 31.633-12.68 1.414-2.21 1.587-4.57.688-7.01-.83-2.25-2.949-4.12-5.26-4.72-7.698-1.99-21.002 5.1-28.931 7.06-59.272 14.62-117.631-4.03-166.721-37.28-6.744-21.78-12.926-43.93-14.939-66.74 29.487 30.38 69.391 48.77 111.991 49.54 21.707.39 59.367-5.33 75.184-21.73 1.856-1.92 3.326-4.18 3.268-6.96-.076-3.65-1.884-6.9-4.514-9.27-7.987-1.51-21.26 10.94-29.303 13.84-57.963 20.92-120.973-6.51-158.68-51.63.685-23.44 1.668-46.17 5.172-69.42 23.07 25.12 47.944 40.99 82.92 42.49 32.525 1.39 65.248-12.25 89.01-34.19a155 155 0 0 0 6.349-6.2c24.93 3.63 50.331 8.29 73.488 18.49-20.063 4.2-34.844 15.38-45.886 32.48-14.498 22.47-19.911 52.9-14.118 79.02 5.84 26.32 24.129 46.88 46.516 60.98 10.792 6.8 22.944 10.45 33.734 16.84 16.341 9.69 36.085 34.66 57.47 30.34 11.116-2.24 20.411-10.9 26.107-20.35 2.054-3.41 4.113-7.36 3.41-11.48-.386-2.26-2.301-4.51-4.373-5.5-1.281-.61-2.927-1.47-4.336-.86-11.147 4.8-12.655 28.08-32.669 21.34-12.444-4.19-21.173-15.63-32.086-22.37-27.309-16.89-57.97-24.53-72.708-56.29-8.472-18.25-9.787-43.93-2.774-62.83 6.175-16.63 17.649-32.78 34.118-40.49 13-6.09 28.501-5.3 41.694-.2 16.022 6.2 22.878 16.28 34.85 27.49"/><path fill="#FEFDFC" d="M402.847 1384.1a57 57 0 0 1 3.673-.15c9.568-.02 18.756 5.56 25.333 12.15 8.763 8.78 15.022 21.92 14.882 34.43-.078 7-1.469 18.03-6.669 23.05-3.766-3-1.937-17.7-2.694-22.92-.919-6.33-2.668-13.48-5.653-19.13-3.378-6.4-8.689-10.52-15.662-12.39-6.693-1.79-11.552-.58-17.537 2.79-.329.18-.653.38-.979.56-15.208 13.19-27.253 31.07-26.657 52 .118 4.15 2.09 10.75.102 14.35l-1.555-.62c-2.301-2.61-3.479-4.74-4.476-8.09-4.935-16.62-.88-35.1 7.325-49.99 7.005-12.71 16.353-21.95 30.567-26.04"/></svg>