<svg xmlns="http://www.w3.org/2000/svg" style="display:block" viewBox="0 0 2048 2048"><path fill="#FEFEFE" d="M0 0h2048v2048H0z"/><path fill="#6E1D7B" d="M751.861 94.254a58.77 58.77 0 0 1 35.229 6.268c13.955 7.265 24.251 20.432 28.698 35.447 4.022 13.581 3.058 29.853-3.814 42.375l145.853 87.598a3854 3854 0 0 1 56.433 33.572c11.14 6.638 22.69 12.969 33.31 20.392 5.2-3.105 9.99-5.373 16.16-5.498 4.86-.098 9.27 1.534 12.77 4.935 4.7 4.574 7.52 11.69 7.55 18.215a24.8 24.8 0 0 1-7.84 18.079c-3.47 3.211-7.84 5.08-12.62 4.84-7.78-.392-15.04-5.649-20.13-11.141l-82.399 57.248c-19.313 13.161-48.466 31.34-65.029 46.166 3.115 3.86 6.069 8.068 8.555 12.36 14.197 24.518 14.407 51.484 7.285 78.159 15.298 6.021 29.796 14.382 44.693 21.358 16.315 7.639 34.089 14.244 49.535 23.465 2.61 1.559 4.35 2.601 5.64 5.494l-.6 1.472c-2.98.984-5.15 1.012-8.12.083-8.335-2.599-16.437-7.863-24.329-11.641-23.277-11.144-46.449-22.932-69.934-33.577a299 299 0 0 1-4.578 8.689c-14.157 25.517-34.976 41.629-62.881 49.648 10.251 57.979 22.485 115.632 32.231 173.692l1.173-.008c10.491.02 20.303 3.066 27.635 10.889 6.524 6.962 10.412 17.113 10.085 26.665-.486 14.185-8.408 23.693-18.394 32.711 10.683 69.509 24.441 138.677 37.345 207.801 5.622 30.12 9.663 69.1 18.144 97.62 5.315.33 10.289 1.37 15.061 3.83 6.874 3.55 12.13 9.43 14.187 16.95 2.117 7.74.737 16.25-3.282 23.15-4.063 6.96-10.649 12.1-18.538 13.94-8.83 2.06-16.691-.44-24.238-4.95-26.461 19.62-51.397 41.7-76.722 62.76l-99.012 81.57c12.171 18.24 19.932 41 19.772 63.06-.202 27.95-12.686 56.88-32.554 76.44a105.58 105.58 0 0 1-75.198 30.81c-29.608-.26-56.167-11.83-76.771-32.91-7.841-8.5-14.483-18.85-19.442-29.28-13.091-27.54-11.889-56.77-2.018-85.06-62.218-27.67-125.436-53.35-188.235-79.67-37.482-15.71-75.721-33.79-113.856-47.44-7.739 14.46-17.971 25.59-34.308 30.22-14.901 4.22-32.706 2.51-46.104-5.34-12.732-7.47-21.917-20.53-25.641-34.71a57.3 57.3 0 0 1 6.07-44.26c9.452-15.61 24.54-23.6 41.697-27.69-5.11-29.61-7.827-59.79-11.646-89.59a14146 14146 0 0 0-24.409-190.34c-2.757-20.626-4.973-41.296-8.12-61.873a68.8 68.8 0 0 1-23.817-4.763c-14.132-5.706-25.35-16.37-31.173-30.518-5.611-13.633-6.057-29.088-.203-42.723 7.208-16.79 19.65-25.846 36.158-32.676-4.066-27.684-9.001-55.241-12.993-82.939-7.284-50.543-13.705-101.237-23.357-151.409-8.67-3.574-16.043-8.045-19.776-17.112-2.491-6.052-2.446-12.848.421-18.765a21.33 21.33 0 0 1 13.42-11.138c8.622-2.416 15.829.362 23.232 4.518 18.471-9.012 36.382-22.79 53.763-33.851l112.084-70.991a173 173 0 0 1-4.734-10.538c-13.759-33.921-12.647-68.736 1.598-102.298 14.245-33.564 40.423-57.838 74.113-71.395 34.829-14.017 71.752-13.95 106.371.916 34.882 14.979 57.725 40.777 71.794 75.546 53.08-19.198 106.665-38.205 160.377-55.534-3.279-18.81-2.844-34.987 7.765-51.418 9.648-14.943 23.699-22.353 40.608-25.905"/><path fill="#FEFEFE" d="M155.828 722.264c9.866-.994 19.706.44 28.669 4.808 11.575 5.642 20.923 15.72 24.873 28.056 3.828 11.955 3.552 26.813-2.357 37.98-7.509 14.189-20.629 21.35-35.299 26.012-11.758 2.015-24.612-1.193-34.636-7.517a47.97 47.97 0 0 1-21.424-30.711 49.66 49.66 0 0 1 6.686-37.365c7.94-12.184 19.628-18.368 33.488-21.263m60.214 454.126c11.099-.61 23.106 3.18 31.925 9.87 10.102 7.65 16.843 19.6 18.549 32.13 1.839 13.51-1.875 28.17-10.303 38.92-9.342 11.92-22.4 17.73-37.14 19.27-11.035-.49-21.318-3.59-30.346-10.08a49.06 49.06 0 0 1-20.199-34.04c-1.751-13.52 2.129-26.38 10.585-37.02 9.683-12.18 21.863-17.32 36.929-19.05M753.199 101.204c11.284-.965 22.218.601 32.225 6.111 11.754 6.472 19.631 16.946 23.418 29.73a51.33 51.33 0 0 1-4.843 40.177c-8.304 14.659-20.894 22.42-36.695 26.809-11.138 2.074-22.898-.468-32.748-5.94-12.044-6.69-21.055-17.712-24.447-31.138-3.53-13.975-1.399-29.702 6.317-41.934 8.682-13.761 21.479-20.187 36.773-23.815M527.796 356.396c11.235 3.045 22.399 10.028 32.649 15.483 20.309 10.808 40.242 22.293 60.785 32.662-13.875 22.751-26.62 46.323-39.773 69.506a8767 8767 0 0 0-57.803 102.533l-10.676 19.857c-7.923-3.434-14.526-4.277-22.992-4.454-15.839-60.254-25.815-121.961-40.718-182.459 33.191-9.947 56.922-26.103 78.528-53.128m100.051 51.871c9.806 4.34 19.23 10.904 28.696 16.058l72.794 39.4c-13.504 26.553-15.482 52.725-6.797 81.129-39.463 17.235-80.745 31.573-120.825 47.411a6141 6141 0 0 1-70.828 27.219c-2.833-7.739-6.034-13.005-11.749-18.936 12.686-19.88 23.351-41.805 34.952-62.406a14509 14509 0 0 1 73.757-129.875m114.224-199.533c8.445 2.697 15.75 3.196 24.52 2.997 6.833 29.809 11.877 59.958 17.774 89.952 7.278 37.022 15.248 73.861 21.106 111.146-30.822 5.495-52.988 17.669-71.553 43.337-8.421-3.366-16.575-8.012-24.688-12.084-25.805-13.837-51.4-28.434-77.691-41.31 8.584-19.173 21.225-37.758 31.864-55.945l46.698-81.441c10.799-18.795 22.298-37.243 31.97-56.652m-39.715-28.642c2.174-.348 2.789-.528 4.925.235 7.537 12.042 16.032 18.499 28.069 25.863-12.521 25.979-29.316 50.409-43.543 75.543a5633 5633 0 0 1-42.847 75.477c-7.881 13.774-15.431 27.938-24.073 41.245-13.889-7.105-27.392-15.003-41.286-22.141-16.88-8.792-33.377-18.891-50.911-26.3l1.126-2.068c20.361-37.61 23.805-73.548 11.644-114.502 17.929-7.093 36.915-12.225 55.171-18.513 33.863-11.664 67.588-24.011 101.725-34.839"/><path fill="#FEFEFE" d="M815.985 419.431c23.529 1.075 45.242 8.994 62.982 24.702a90.54 90.54 0 0 1 30.15 62.326c1.22 23.828-7.708 49.371-23.747 67.093-17.418 19.245-40.782 28.849-66.384 30.034-23.052-.2-42.538-6.25-60.405-21.3a92.12 92.12 0 0 1-33.13-64.064 89.45 89.45 0 0 1 21.401-66.351c18.337-21.472 41.648-30.148 69.133-32.44"/><path fill="#6E1D7B" d="M806.836 439.284c16.556-1.414 31.716.443 46.244 8.967 17.017 9.985 29.725 25.964 34.632 45.16a72.8 72.8 0 0 1-8.57 56.147c-11.546 18.849-29.227 29.245-50.339 34.145a69.35 69.35 0 0 1-51.282-10.296 75.72 75.72 0 0 1-31.809-47.846 73.64 73.64 0 0 1 11.432-54.959c11.722-17.284 29.402-27.549 49.692-31.318"/><path fill="#FEFEFE" d="M808.543 447.209c15.425-1.298 30.187 1.263 43.464 9.469a64.6 64.6 0 0 1 28.933 39.994 63.1 63.1 0 0 1-8.243 48.49c-10.46 16.469-26.414 26.447-45.23 30.584a64.7 64.7 0 0 1-45.727-9.352 65.88 65.88 0 0 1-28.669-41.184c-3.619-16.987.577-35.171 10.051-49.576 10.791-16.407 26.557-24.667 45.421-28.425"/><path fill="#6E1D7B" d="M810.976 478.126c7.808-.528 15.021-.158 22.105 3.519a33.36 33.36 0 0 1 16.425 20.045 34.67 34.67 0 0 1-3.113 26.949c-5.154 9.129-13.088 13.87-22.861 16.726-8.079.69-15.086.56-22.535-3.268a34.3 34.3 0 0 1-16.795-20.145c-2.838-8.832-2.209-18.487 2.292-26.662 5.409-9.825 14.074-14.387 24.482-17.164"/><path fill="#FEFEFE" d="M659.611 1318.37c25.075-.55 47.338 4.83 67.991 19.49 20.877 14.83 34.705 35.96 38.76 61.32 4.446 27.8-.653 55.45-17.595 78.29-16.67 22.48-41.258 35.25-68.533 39.3-26.25 2.11-49.197-2.9-70.499-18.99a99.92 99.92 0 0 1-38.128-65.99c-3.412-26.61 3.406-54.5 20.008-75.74 16.251-20.79 41.899-34.61 67.996-37.68"/><path fill="#6E1D7B" d="M659.654 1334.33c17.712-2.9 38.779 3.07 53.554 12.81 19.022 12.54 33.259 32.5 37.77 54.9 4.26 21.16.769 44.1-11.395 62.13-14.152 20.98-34.836 32.4-59.229 37.14-21.737 2.58-42.59-1.53-60.584-14.4a84.36 84.36 0 0 1-33.694-55.01 85.46 85.46 0 0 1 15.566-63.84c14.208-19.24 34.545-30.34 58.012-33.73"/><path fill="#FEFEFE" d="M663.513 1341.36c17.012-1.13 34.093 4.39 47.892 14.25 17.297 12.35 28.921 30.08 32.416 51.1 3.275 19.7-1.078 39.09-12.866 55.28-13.663 18.75-33.272 28.18-55.718 31.88-19.44 1.04-36.967-2.43-52.855-14.3-16.126-12.05-26.062-30.46-28.793-50.27-2.821-20.47 1.641-40.32 14.298-56.8 13.963-18.19 33.082-28.34 55.626-31.14"/><path fill="#935BA7" d="M660.504 1357.21c13.299-1.13 25.906.26 37.706 6.85a63.56 63.56 0 0 1 29.795 38.51c4.269 15.53 1.941 33.89-6.254 47.77-9.368 15.87-24.638 23.97-41.818 28.69-15.878 1.88-30.615-.16-44.304-8.84-13.606-8.63-23.058-21.69-26.353-37.6-3.496-16.88-1.232-34.89 8.473-49.39 10.214-15.25 25.253-22.6 42.755-25.99"/><path fill="#FEFEFE" d="M562.354 873.372c24.051-2.377 49.459 5.018 69.12 18.835a112.64 112.64 0 0 1 47.393 75.149 107 107 0 0 1-19.857 80.824c-17.951 24.52-44.666 37.1-74.042 41.78-28.232 1.13-53.226-4.47-76.087-21.8-23.087-17.5-39.904-44.51-43.7-73.403-3.735-28.421 5.671-58.332 23.272-80.735 18.597-23.671 44.291-37.114 73.901-40.65"/><path fill="#6E1D7B" d="M561.278 893.289a90.3 90.3 0 0 1 62.131 15.82c20.416 14.217 33.205 35.51 37.355 59.991a88.23 88.23 0 0 1-15.94 66.4c-14.495 19.94-36.637 31.36-60.585 35.25-21.809 2.02-42.518-3.04-60.739-15.27-20.118-13.49-34.558-36.13-38.948-59.921-4.202-22.775 2.364-46.709 15.589-65.449 14.686-20.808 36.297-32.659 61.137-36.821"/><path fill="#FEFEFE" d="M561.643 901.225c20.439-1.429 39.256 2.117 56.521 13.638 18.354 12.248 30.122 30.682 34.214 52.325a82.9 82.9 0 0 1-12.88 61.982c-12.95 18.72-33.895 29.59-55.832 33.73-19.452 1.85-37.683-2.33-54.098-13.14a86.38 86.38 0 0 1-37.024-54.824c-4.049-19.916.987-41.678 12.379-58.359 13.537-19.822 33.421-30.985 56.72-35.352m246.596-716.492c17.948 8.429 42.705 26.455 60.958 37.259a11974 11974 0 0 0 174.613 103.193c-2.44 5.987-3.78 11.847-5.05 18.172-8.51 6.591-17.97 12.335-26.86 18.429a2450 2450 0 0 0-49.473 34.659c-24.13 15.749-47.549 32.741-71.041 49.419-25.294-23.333-44.002-32.008-78.623-33.804-3.639-17.797-5.987-35.975-9.188-53.872-4.288-23.973-9.834-47.684-14.563-71.569-5.046-25.484-9.316-51.186-15.647-76.388 14.268-5.449 24.677-14.386 34.874-25.498m-82.627 367.42c9.825 13.424 15.926 26.606 29.288 37.408 23.982 19.387 49.016 23.269 78.769 20.073 9.568 57.776 21.852 115.152 32.401 172.765-10.209 4.564-16.353 10.323-23.349 18.776-12.924-9.08-28.201-15.325-42.428-22.117a2801 2801 0 0 0-74.546-34.564 7851 7851 0 0 0-200.798-92.45c4.916-8.633 6.837-15.904 7.272-25.726 20.797-6.355 41.596-15.183 61.916-23.063 43.801-16.987 87.393-34.944 131.475-51.102M519.338 657.809c9.762 2.568 20.516 8.857 29.778 13.038a3604 3604 0 0 1 74.373 34.134l111.29 51.606a10937 10937 0 0 0 106.231 49.661c-2.138 8.751-2.183 16.657-1.846 25.569a5028 5028 0 0 0-64.703 34.402c-18.485 9.161-36.55 19.857-54.695 29.712-16.578 9.005-33.811 17.29-49.645 27.55-6.356-11.264-13.957-20.979-23.58-29.676-26.141-23.624-57.789-29.34-91.97-27.623-3.761-24.83-10.354-49.122-15.994-73.564a6640 6640 0 0 1-28.663-127.745zM296.123 342.697c4.442 1.445 10.482 12.216 13.513 16.182a139.6 139.6 0 0 0 31.848 30.224c30.564 21.106 64.56 28.208 101.035 21.643 5.381 28.237 12.095 56.214 18.314 84.273 7.243 32.674 14.07 65.353 22.065 97.863-8.357 4.435-14.128 9.444-20.491 16.361-31.951-16.015-64.764-29.465-97.092-44.598-39.528-18.422-79.837-35.46-119.742-53.07-36.489-16.103-72.92-33.105-110.075-47.563-.276-5.932-1.514-11.79-2.556-17.625a8096 8096 0 0 1 163.181-103.69M463.253 653c1.798.519 4.036 2.758 5.52 3.945 11.596 9.281 18.745 10.886 33.292 10.384l27.749 119.419c6.199 26.692 12.722 53.505 17.232 80.542a119.2 119.2 0 0 0-71.051 50.246c-13.69-9.689-30.349-16.681-45.334-24.207l-69.042-35.003-86.266-43.829c-18.762-9.392-37.847-19.354-57.352-27.093l.289-2.408c1.539-12.524.618-23.281-2.592-35.456l160.319-62.352c29.092-11.492 57.834-23.461 87.236-34.188M131.871 469.863c7.967 4.215 16.98 7.375 25.314 10.924a1469 1469 0 0 1 48.282 21.155c84.375 38.636 169.812 75.012 254.464 113.072-2.575 11.511-3.306 20.061-.124 31.536-26.138 9.031-51.827 19.943-77.555 30.11-24.129 10.557-49.337 19.348-73.915 28.849L212.3 743.283c-4.835-7.046-9.494-13.326-16.492-18.459-12.253-8.991-26.763-11.106-41.439-9.06a14318 14318 0 0 0-27.829-183.997c-2.843-17.14-4.652-34.507-8.023-51.537 4.756-3.243 9.127-6.434 13.354-10.367"/><path fill="#FEFEFE" d="M407.346 147.39c30.34-3.28 65.328 9.588 89.009 27.989 26.649 20.707 44.255 53.198 48.185 86.658 4.082 34.757-5.22 67.938-27.061 95.392-23.064 28.991-55.852 44.184-92.233 48.137-.466.059-.932.124-1.399.177-30.56 3.482-66.174-12.151-89.475-30.892-25.806-20.756-43.113-53.551-46.611-86.361-3.466-32.523 6.807-67.958 27.469-93.424 22.692-27.967 56.723-43.896 92.116-47.676"/><path fill="#6E1D7B" d="M422.886 191.201c6.066 12.258 9.352 32.981 15.736 47.598 14.945-4.349 29.732-9.088 44.803-13.006 6.748 19.018 11.6 39.067 16.929 58.545-15.749 4.022-31.203 10.157-46.232 16.298 2.705 14.878 7.603 29.836 11.593 44.43-15.954 6.164-34.676 12.465-51.304 16.277-2.619.601-3.919.944-6.177-.564-4.698-13.4-8.249-27.354-12.066-41.031-16.319 4.444-32.212 10.515-48.459 15.277l-16.601-58.889c15.211-5.722 30.587-11.391 46.143-16.089-5.304-16.481-10.014-33.488-14.039-50.32 19.638-6.87 39.809-12.329 59.674-18.526"/><path fill="#FEFEFE" d="M842.529 838.172c2.533 3.204 5.278 6.373 8.43 8.985 10.77 8.926 22.106 10.305 35.449 8.644 1.722 13.111 4.856 26.279 7.156 39.324l17.183 95.479c10.142 55.926 18.717 112.476 30.339 168.086-7.04 3.02-11.371 6.44-16.312 12.2-16.302-11-33.944-20.07-51.19-29.46l-51.336-28.36c-49.068-25.31-97.396-52.88-147.433-76.18 2.163-4.85 4.363-9.72 6.192-14.71 11.679-31.863 7.446-62.889-6.709-93.183 55.969-30.272 113.021-59.235 168.231-90.825M671.402 1042.37l250.788 133.85c-2.99 10.68-.116 19.59 4.647 29.1-38.077 29.82-75.192 61.06-112.392 91.97-20.846 17.55-42.564 34.01-63.379 51.58-3.547-3.76-7.149-7.52-10.907-11.07-24.628-23.28-52.095-27.61-84.626-26.7-15.7-72.52-33.373-144.76-48.433-217.39 27.549-11.35 49.443-24.64 64.302-51.34m-191.545 9.46c7.553 7.51 14.61 15.6 23.171 21.98 30.353 22.64 60.444 27.13 97.206 21.72 3.379 26.45 11.641 52.76 17.467 78.78 10.282 45.92 19.517 92.36 31.285 137.91a156 156 0 0 0-15.622 4.43c-27.131 9.33-47.212 29.61-59.682 55.01-30.912-14.52-62.455-27.49-93.949-40.67-37.368-16.5-75.369-31.2-112.95-47.14-30.31-12.86-64.344-29.4-95.233-39.02 4.319-15.62 2.768-31.08-4.062-45.67 18.842-14.9 39.807-27.28 59.429-41.14a6318 6318 0 0 1 152.94-106.19M214.96 793.545c14.765 6.087 29.072 13.976 43.369 21.099l81.143 40.771 78.466 39.992c18.076 9.115 37.344 17.691 54.459 28.467-4.571 9.202-8.834 18.245-11.67 28.153-9.49 33.166-1.364 63.233 14.921 92.653-13.858 10.56-29.01 19.89-43.374 29.78-20.348 14.02-40.267 28.61-60.698 42.51l-61.144 42.92c-15.594 10.8-31.648 20.91-46.812 32.31-.552-.72-1.1-1.45-1.686-2.15-11.376-13.53-27.151-19.9-44.426-21.21-6.731-64.15-15.466-128.41-23.949-192.356a6906 6906 0 0 0-20.116-149.9c19.847-6.24 30.922-14.756 41.517-33.039"/><path fill="#6E1D7B" d="M1387.57 265.406c11.27-1.43 23.96-.802 35.36-.37a410.7 410.7 0 0 1 207.19 67.753c84.19 56.495 149.18 144.972 168.8 245.285 6.16 31.485 11.53 68.497 3.07 99.907-2.66 9.882-9.71 19.469-15.03 28.176-22.91 37.476-49.38 71.755-73.86 108.074 26.49 16.521 46.15 37.205 55.72 67.463 10.18 32.18 7.18 64.568-8.35 94.461-17.5 33.675-47.41 53.455-82.83 64.605 6.46 10.52 29.47 37.64 31.12 47.62.29 1.73.49 3.46 1.48 4.95 4.55 6.88 10.52 13.4 15.67 19.87 11.47 14.4 22.98 28.79 33.47 43.92 22.11 31.88 43.92 65.52 61.59 100.07 18.44 36.04 35.88 73.05 49.85 111.07a1283 1283 0 0 1 32.6 102.41c5.07 19.18 9.07 38.68 13.68 57.97a2067 2067 0 0 1 51.69 319.5c2.59 29.79 5.7 59.44 6.71 89.35.25 7.27 1.82 19.55-3.47 25.21-23.81.96-47.78.18-71.62.13-25-.06-50.06.49-75.05.06-13.38-.23-26.7-1.47-40.09-1.53l-352.77.32-291.46.02-85.74.21c-16.48.07-33.73 1.17-50.11-.69l-1.02-1.38c-2.06-14.43 15.63-91.64 19.68-112.5 19.71-101.62 49.29-203.97 90.94-298.83 30.21-68.81 66.35-133.93 104.23-198.73 18.2-31.14 38.71-61.2 58.45-91.37 10.8-16.51 23.04-33.57 31.49-51.39l.56-1.22c-1.48-11.41-5.28-23.05-8.31-34.14-9.43-34.42-18.57-70.19-37.41-100.87-34.56-56.27-105.48-27.35-158.93-40.34-16.12-3.92-33.81-11-42.5-26.04-12.89-22.307 7.67-48.254 5.63-72.018-2.49-29.094-21.75-23.341-10.99-64.046a452 452 0 0 1-5.27-8.263c-13.53-21.856 5.15-23.269 8.31-39.429 4.06-20.722-27.72-31.018-39.83-48.163-4.83-6.834-9.61-15.992-6.29-24.472 5.4-13.812 62.79-48.254 78.88-74.605 3.66-5.995 6.91-12.893 8.04-19.86 2.75-16.875-5.78-50.029-5.94-69.878-.17-20.316 3.18-40.361 6.73-60.287-4.72-.364-10.53-.273-15.02-1.786-3.11-1.047-4.16-2.7-5.46-5.556.99-19.252 63.47-96.975 77.69-113.711 65.05-76.568 123.77-128.295 228.72-136.93"/><path fill="#FEFEFE" d="M1657.87 733.028c-.37-2.009-.81-4.126-.66-6.177.29-4.131 2.07-8.557 5.32-11.186 2.65-2.139 6.68-2.369 9.91-2.021 6.27.675 8.71 3.918 12.5 8.441.7 5.693.66 10.32-3.06 15.021-2.36 2.974-5.78 4.777-9.57 4.957-3.74.176-7.76-1.24-10.48-3.849-1.55-1.496-2.77-3.4-3.96-5.186m-93.77-66.047c2.48-.048 5.09-.036 7.45.854 3.98 1.5 7.26 5.201 8.79 9.095a15.6 15.6 0 0 1-.25 11.944c-2.07 4.691-5.61 6.373-10.18 8.112-1.81-.19-3.67-.374-5.44-.816-3.91-.977-7.64-3.706-9.7-7.173a13.8 13.8 0 0 1-1.39-10.904c1.71-5.884 5.55-8.375 10.72-11.112m71.01-24.182c1.68-1.966 3.38-4.051 5.58-5.461 3.99-2.555 7.53-1.932 11.95-1.032 4.73 3.421 8.5 6.791 9.4 12.862.49 3.324-.49 6.623-2.5 9.286a16.53 16.53 0 0 1-11.47 6.445c-3.43.36-7.01-.377-9.74-2.574-3.27-2.634-4.47-6.977-4.77-10.998-.21-2.951.64-5.75 1.55-8.528m-3.18 386.811c1.57-.85 1.08-.72 2.52-1.11 9.27-2.49 18.75-4.83 27.59-8.65 25.51-11 51.34-32.665 65.76-56.469 18.01-29.712 23.42-68.629 11.39-101.518-3.02-8.244-10.27-18.403-11.78-26.668-.08-.399-.08-.808-.12-1.211 22.92 20.429 35.87 47.295 37.6 78.015 1.65 29.36-9.59 60.163-29.3 81.928a114.54 114.54 0 0 1-80.61 37.863 87.7 87.7 0 0 1-23.05-2.18"/><path fill="#FEFEFE" d="M1664.12 638.805c13.49-4.515 27.63-10.532 41.5-13.383 2.82 4.656 5.38 7.729 10.29 10.19 3.49 2.077 7.17 1.869 11.1 2.337a429 429 0 0 1 15.48 41.552c-4.3 2.842-7.91 5.424-10.38 10.067-1.11 3.813-1.32 8.087-1.82 12.031-13.81 5.754-28.64 8.987-42.64 14.436a115 115 0 0 0-2.15-2.097c-6.49-6.119-11.41-6.263-19.86-5.988-6.58-11.988-13.56-24.015-17.54-37.165 1.99-.436 3.95-.941 5.87-1.631 4.91-1.766 9.35-5.277 11.53-10.116 3.09-6.868 1.25-13.591-1.38-20.233m-52.63 398.055c18.45 5.59 33.76 8.52 52.94 5.92 10.06 15.54 20.27 30.75 31.36 45.59-96.02 28.42-193.54 97.58-254.72 176.54-12.52 3.51-25.52 5.4-38.1 8.73-14.98 3.95-29.36 9.63-43.66 15.51-19.35 7.43-38.75 17.08-55.27 29.6a802 802 0 0 1 6.01-35.75c3.85-19.31 9.01-42.71 18.98-59.64 4.96-8.41 14.51-16 21.56-22.83 56.69-54.89 126.68-94.11 196.08-130.61a1408 1408 0 0 1 39.25-19.79c8.23-4 17.2-7.57 24.75-12.7.28-.19.55-.38.82-.57"/><path fill="#FEFEFE" d="M1309.8 1230.83c.75.78.87 1.47.81 2.6-.31 6.84-4.63 16.72-6.58 23.6a417 417 0 0 0-7.39 30.22c-14.61 70.79-8.49 140-.32 211.07-53.38 38.34-91.73 91.24-133.15 141.36-37.33 45.17-75.43 90.02-107.3 139.33-1.88 3.6-4.11 7.01-6.27 10.46 32.13-132.82 74.17-246.75 140.89-366.19 36.83-65.93 78.44-129.01 119.31-192.45"/><path fill="#935BA7" d="M1550.41 772.889c18.2 15.184 35.61 31.658 52.87 47.911 14.17 13.335 46.35 46.444 61.76 53.885 6.96-2.88 35.9-45.019 42.21-54.054 6.88 3.885 14.41 7.722 20.04 13.353.04.403.04.812.12 1.211 1.51 8.265 8.76 18.424 11.78 26.668 12.03 32.889 6.62 71.806-11.39 101.518-14.42 23.804-40.25 45.469-65.76 56.469-8.84 3.82-18.32 6.16-27.59 8.65-1.44.39-.95.26-2.52 1.11-16.29-3.04-32.97-9.71-47.47-17.63-33.95-18.539-58.23-50.241-68.94-87.19-8.87-30.607-11.56-77.914 4.77-106.546 8.98-15.758 21.23-29.284 30.12-45.355"/><path fill="#FEFEFE" d="M1498.92 837.995c1.79 2.133-1.1 17.564-1.5 21.001a174.2 174.2 0 0 0 5.8 68.132c14.8 51.763 46.11 79.712 91.59 105.152-85.42 41.48-174.57 86.5-244.73 151.48-9.15 8.88-17.97 18.35-28.13 26.08-5.83-44.83-25.92-100.37-44.83-141.57 34.24-30.49 62.55-64.16 90.3-100.505 15.79-20.68 31.42-41.766 44.5-64.301 9.34-16.101 16.59-33.372 24.99-49.975 8.65 3.19 18.08 5.461 27.34 4.752 14.68-1.123 25.33-9.729 34.67-20.246m200.21 262.225c1.04.7 1.98 1.33 2.88 2.21 14.01 13.69 33 41.68 45.26 58.57 123.5 170.26 170.99 382.46 198.04 587.49 8.82 66.87 17.04 134.86 17.99 202.36a7676 7676 0 0 1-141.99-.07c-.74-25.63.93-51.37 2.03-76.97.73-17.07.58-34.82 2.83-51.73 2.82-21.12 9.32-42.12 13.2-63.14 6.62-35.84 9.83-72.08 11.59-108.45.51-80.67-3.89-146.9-34.37-222.4 24.73 114.73 30.04 217.37 10.94 333.33-1.65-33.6-2.11-67.28-5.43-100.78-4.33-43.73-14.58-87.95-28.37-129.63a312.57 312.57 0 0 0-122.59-160.19c-11.4-7.47-23.57-13.52-35.73-19.63-5.97-67.76-23.29-138.39-37.22-205.15 21.68-15.81 74.27-39.74 100.94-45.82"/><path fill="#FEFEFE" d="M1113.66 525.67c65.37 12.576 130.68 38.159 189.06 69.891 11.66 6.339 25.16 12.835 34.51 22.357 19.39 19.755 44.43 59.583 64.12 74.764.27.207.54.406.82.61-10.22-13.275-27.69-43.674-33.7-59.639 5.18 3.52 9.85 11.864 12.75 17.403 13.94 26.603 22.97 51.691 52.05 65.008l1.3-.747c1.52-12.001-26.7-54.123-35.09-66.102 20.77 18.193 25.51 38.907 40.65 59.873 1.85.839 2.85 1.335 4.94 1.156 1.8-.153 1.22-.006 2.41-1.393-6.28-14.82-14.64-28.882-22.91-42.653 13.93 12.916 22.81 29.442 26.89 47.865 2.97-1.548 5.84-2.597 7.44-5.721.7-8.523-6.83-16.001-10.2-23.63l-.6-1.375c3.86 5.023 7.38 10.351 11.45 15.205 2.18 2.591 4.44 5.07 7.96 5.409 2.39-2.82-.84-4.231.41-7.387l9.55 4.223c14.81-10.15 25.16-15.811 43.53-15.828 6.64 5.344 12.58 10.512 17.23 17.75 9.07 14.097 11.8 31.058 8.29 47.36-6.26 28.976-44.56 75.357-69.35 91.14-9.58 6.099-16.35 6.303-27.1 4.009-1.85-.627-3.63-1.399-5.4-2.211-5.87-2.685-11.81-6.028-14.14-12.368-1.28-3.455-2.19-7.509-5.08-9.948-.64.072-1.3.01-1.9.217a5.37 5.37 0 0 0-3.66 4.682c-.55 6.437 5.99 14.305 9.5 19.31-6.14 9.66-10.98 20.334-16.12 30.555-13 25.847-27.23 49.715-48.91 69.289-57.35 51.763-149.82 82.026-226.84 77.906-20.28-1.09-48.4-3.31-62.7-19.86-13.48-15.614 5.56-46.758 5.29-66.31-.29-21.267-12.57-28.315-15.3-45.43-.76-4.794.17-10.578.53-15.431a244 244 0 0 0 6.72.87c12.72 1.444 59.16-3.81 67.21-12.291 1.92-2.021 1.67-2.683 1.57-5.289-1.39-1.671-.88-1.775-3.27-1.922-7.87-.483-16.11 2.111-24.08 2.264-8.88.169-35.26-3.298-44.51-5.045-4.41-.834-7.84-1.727-10.5-5.633-1.45-7.638 8.37-16.887 10.74-24.517 9.48-30.525-31.49-39.625-42.42-61.486-1.54-3.082-2.57-6.807-1.05-10.079 4.65-10.01 25.89-23.672 34.76-31.088 16.37-13.683 34.26-28.492 45.04-47.164 14.08-24.397 3.89-46.039 1.58-71.403-2.33-25.669-1.52-52.53 6.53-77.166"/><path fill="#6E1D7B" d="M1137.08 842.029c1.4-.199 2.91-.45 4.32-.295 3.36.371 6.18 3.617 8.25 6.036 6.38 7.474 8.59 17.327 7.9 26.899-2.46-.11-4.21-.382-6.51-1.265-3.12-3.964-1.57-9.399-3.52-13.889-2.65-6.123-9.15-10.862-10.44-17.486m-28.57-87.096c.35.11.7.197 1.04.331 2.29.903 3.55 2.436 4.51 4.64 3.02 6.967 2.43 15.779-.41 22.694-2.35 5.731-6.55 10.908-12.43 13.242-13.59 5.404-23.37-9.074-34.68-13.911-.39-.167-.79-.319-1.18-.478-2.57-.94-3.89-1.478-5.82-3.525l.31-1.361c2.3-1.407 4.7-1.21 7.29-.883 13.19 1.671 20.73 15.863 30.22 15.128 2.82-.218 5.04-1.29 6.85-3.465 6.91-8.312 5.27-22.395 4.3-32.412m390.41-41.755a86 86 0 0 1 5.1-.078c7.91.184 16.14 3.998 21.33 9.966 6.5 7.465 8.64 17.876 7.87 27.537-1.12 14.116-8.39 29.193-19.1 38.476 2.63-11.727 9.49-22.733 10.46-34.788.68-8.342-.92-18.239-6.86-24.545-4.04-4.301-9.88-6.579-15.75-6.621-9.65-.07-18.5 5.785-25.18 12.291-7.14 6.953-19.86 21.007-19.03 31.486.23 3.025 1.25 4.174 3.36 6.216 2.25-.717 3.8-4.321 5.09-6.32 2.26-3.51 4.23-5.638 7.6-8.163.32-.147.64-.31.97-.442 4.39-1.745 9.54-2.642 14.01-.7 3.02 1.316 6 3.214 7.27 6.262-1.73 1.389-3.16 1.096-5.34 1.32-4.82.498-13.18.554-16.09 5.302-3.2 5.232-.58 11.33 1.19 16.535-.98 3.907-2.35 8.228-4.5 11.645-3.02 4.776-10.44 11.843-16.37 12.558-2.74.332-3.24-.192-5.36-1.698-1.6-3.003-2.49-5.662-2.39-9.121.12-4.53.92-12.283 4.48-15.484l2.53 1.886c1.59 3.498 1.51 6.875.79 10.592-.12.613-.26 1.222-.38 1.833l1.78.603c3.56-1.019 6.76-2.476 8.84-5.751 6.41-10.14-13.91-13.632-16.12-22.899-1.74-7.272 3.66-17.713 7.38-23.918 9.25-15.42 24.85-29.444 42.42-33.98m-361.51-143.871c12.12-.711 23.69 1.081 35.16 5.032 26.94 9.274 55.71 39.441 67.94 64.787-4.3-2.519-8.47-5.263-12.67-7.953-22.21-15.692-46.25-27.812-73.56-30.918-9.31-1.058-19.77-.374-28.8-2.871-3.91-1.084-5.98-2.569-7.95-6.128-.51-3.737.28-6.216 2.28-9.358 4.67-7.355 9.23-10.529 17.6-12.591m-14.29 56.351c9.35 1.187 20.6 5.61 29.33 9.104 10.06 4.022 43.39 25.042 46.19 35.031.67 2.424.44 3.535-1.05 5.54-7.13 9.57-40.39 16.518-52.41 16.902-3.2-.048-6.78.075-9.79-1.165-2.17-.894-2.93-2.369-3.6-4.439l1.59-2.304c3.32-2.032 7.29-1.477 11.04-1.392-1.82-2.778-3.98-5.86-5.08-8.995-1.69-4.783-1.77-12.065-4.76-16.188-3.71-5.102-11.82-5.812-14.86-12.394-2.01-4.343-1.05-9.082.71-13.306 1.83.993 2.33 7.698 3.55 10.026 1.78 3.401 7.39 6.995 10.42 9.425 1.25-4.266 3-8.128 4.88-12.137-4.99-1.977-14.68-4.31-17.22-9.357-.78-1.567.42-2.865 1.06-4.351"/><path fill="#FEFEFE" d="M1175.89 659.531c3.61 3.167 8.32 5.996 11.34 9.686 1.38 1.675 1.45 1.833 1.25 4.038l-3.86 1.837c-3.47 1.462-7.12 3.466-10.87 2.909-1.25-3.284 1.76-14.051 2.14-18.47m-81.02-147.752c21.15-45.201 102.8-140.885 141.54-173.134 22.02-18.332 48.51-35.16 75.45-44.97 87.45-31.845 184.39-15.133 266.7 23.518 90.16 42.336 163.06 124.225 196.46 217.907 12.45 34.913 28.63 114.389 12.51 147.778-8.47 17.557-22.34 36.79-33.32 53.108-28.56 42.452-58.86 84.49-91.07 124.266-37.27-32.303-71.94-67.742-108.39-100.971 2.42-24.008 2.89-48.507-13.4-68.31a73 73 0 0 0-7.05-7.484l14.42 1.735 3.51 9.746a99 99 0 0 0 2.19 1.596c5.68 4.009 11.61 6.37 18.62 4.896 4.48-.94 8.32-3.888 10.66-7.783 3.75-6.226 3.26-11.629 1.78-18.447 15.03-4.387 29.62-10.792 44.87-14.2 2.41 3.514 4.32 6.012 8.3 7.829 1.37.626 2.19 1.047 3.45 1.994.37.278.72.584 1.08.875 3.18 13.309 11.35 27.178 18 39.106-4.76 4.812-8.93 9.325-8.92 16.492a31 31 0 0 0 .76 6.651c1.29 2.92 2.77 5.685 5.1 7.918 3.87 3.709 8.87 6.004 14.3 5.635 5.16-.351 9.84-2.916 13.07-6.943 5.12-6.401 5.18-12.882 4.14-20.664 6.82-.185 37.32-10.164 43.12-13.53l3.42-4.265c-.82-4.982-.54-8.008 1.6-12.642l-5.66.082c2.47-4.643 6.08-7.225 10.38-10.067a429 429 0 0 0-15.48-41.552c-3.93-.468-7.61-.26-11.1-2.337-4.91-2.461-7.47-5.534-10.29-10.19l2.77-4.323c-.9-5.922-.02-8.201 3.37-13.054l-3.15-3.292c-.22.277-.45.551-.66.832-3.48 4.534-3.4 9.981-6.3 14.146-2.04 2.928-35.49 12.712-41.04 13.713-2.3.415-4.41-.173-6.54-1.004l-1.43 3.866c-4.42-.9-7.96-1.523-11.95 1.032-2.2 1.41-3.9 3.495-5.58 5.461l-2.95-3.108c-3.74 5.302-3.32 9.811-3.16 16.016-15.34 3.933-29.92 10.399-45.36 14.249-5.47-5.585-10.12-7.714-17.95-8.309-5.04-9.2-9.7-19.891-16.25-28.031-.1.557.01.164-.67 1.026-.41-1.64-.85-3.23-1.39-4.833l-.48-1.337c-3.48 1.398-6.69 2.443-10.4 3.082l-5.83 3.632c4.91.496 9.32.987 14.23-.014 4.9 9.202 9.69 18.487 14.94 27.491-5.29 4.19-8.72 7.029-11.05 13.614l-1.47 2.022c-7.97-1.018-15.56-4.103-23.49-5.163-16.27-2.177-33.78 5.834-47.88 12.899-19.72-14.769-40.67-27.866-61.47-41.02-84.29-53.281-218.91-126.4-319.61-133.236"/><path fill="#6E1D7B" d="M1760.05 709.298c.94 1.461 1.68 2.376 2 4.11-.6.339-1.2.678-1.81.989-6.23 3.159-12.35 2.818-18.82.721l5.76-3.676c4.83.287 8.46-.091 12.87-2.144"/><path fill="#5A1566" d="M1295.36 402.195c-3.64-1.677-6.52-4.103-8.47-7.656-2.46-4.488-2.76-9.948-1.27-14.798 1.7-5.57 4.81-8.59 9.76-11.404-.13 2.397-.45 3.92-1.45 6.105-2.58 4.442-5.28 9.946-3.49 15.244 1.63 4.842 5.86 7.346 10.21 9.495z"/><path fill="#6E1D7B" d="M1440.65 330.831c-4.03-4.841-6.18-8.443-5.83-14.912.24-4.568 2.87-8.608 6.32-11.472a21.2 21.2 0 0 1 16.58-4.627c5.2.747 10.35 3.223 13.45 7.581 2.95 4.153 4.2 9.985 3.35 15.005-.78 4.654-3.6 8.38-7.5 10.888-.08.051-.17.086-.25.128l-1.3-.671-2.89 1.116 1.09.643-1.36-2.095 1.46-.519.02-1.423c3.01-4.774 5.66-9.124 4.36-14.968a12.86 12.86 0 0 0-6.42-8.526c-3.51-1.944-7.77-2.554-11.65-1.396a11.82 11.82 0 0 0-7.25 5.996c-2.8 5.569-.92 10.73 1.07 16.205l7.75 5.438 1.62 1.353c-1.86 1.357-3.46 1.942-5.57 2.742-2.79-1.987-4.84-3.874-7.05-6.486"/><path fill="#FEFEFE" d="M1443.9 327.784c-1.99-5.475-3.87-10.636-1.07-16.205a11.82 11.82 0 0 1 7.25-5.996c3.88-1.158 8.14-.548 11.65 1.396a12.86 12.86 0 0 1 6.42 8.526c1.3 5.844-1.35 10.194-4.36 14.968-4.13 1.426-7.7 2.802-12.14 2.749z"/><path fill="#58135E" d="M1451.65 333.222c4.44.053 8.01-1.323 12.14-2.749l-.02 1.423-1.46.519 1.36 2.095-1.09-.643 2.89-1.116 1.3.671-4.22 3.685c.11 6.657 11.4 36.696 15.73 41.57l2.45 1.078 4.12.882c.72 1.783 1.62 3.493 1.75 5.424 1.6 5.242 3.94 11.332 1.31 16.611-1.9 3.803-4.77 6.903-7.62 9.999 0 2.425.93 3.742 2.08 5.801l-4.49 1.485-2.42-4.074c-2.67-.602-4.11.827-6.4 2.266-9.99 6.297-23.21 5.951-34.73 6.896l-12.77 2.105-1.47-3.619c-.46-3.475-2.08-6.309-3.62-9.399 13.34-3.332 25.93-8.229 38.67-13.321l2.39 2.925c.71-1.91 1.43-2.923 2.84-4.395-.64-4.037-.52-7.34.06-11.379-.5-2.382-.76-2.365-2.67-3.937 3.34-4.519 7.15-6.034 12.28-8.045-3.83-12.021-7.56-25.073-13.15-36.37-2.07-1.99-6.38-1.949-9.19-2.293 2.11-.8 3.71-1.385 5.57-2.742z"/><path fill="#FEFEFE" d="M1460.43 387.962c1.99-1.921 4.01-3.767 6.41-5.175 3.23-1.896 6.04-1.371 9.51-.58 3.96 3.79 7.29 7.607 7.59 13.356.19 3.678-.95 7.033-3.6 9.63-2.15 2.112-8.07 3.985-11.03 4.975-.15.05-.32.031-.48.047-2.26-3.857-5.64-7.388-8.46-10.874-.64-4.037-.52-7.34.06-11.379m-5.29 12.849 2.39 2.925c2.38 3.55 4.89 6.405 7.97 9.365-5.08 6.011-25.56 6.688-33.5 7.665-3.98.76-8.12 1.317-11.91 2.765-.46-3.475-2.08-6.309-3.62-9.399 13.34-3.332 25.93-8.229 38.67-13.321"/><path fill="#5A1566" d="M1713.84 599.797c.01-.324-.08-.664.02-.973.54-1.683 1.84-3.717 2.62-5.369.7 1.135 1.15 2.48 2.11 3.404 2.92 2.793 28.55 7.2 26.69 21.688-.82 6.434-7.18 13.167-11.94 17.045l-.99.817c5.16 13.971 10.27 27.941 16.63 41.42 7.45 1.181 12.61 3.238 17.21 9.541 2.82 3.877 4.18 8.506 3.44 13.291-.84 5.432-3.8 8.988-7.58 12.747-.32-1.734-1.06-2.649-2-4.11-4.41 2.053-8.04 2.431-12.87 2.144l-5.76 3.676c-3.51-2.602-6-5.274-8.67-8.725l3.42-4.265c-.82-4.982-.54-8.008 1.6-12.642l-5.66.082c2.47-4.643 6.08-7.225 10.38-10.067a429 429 0 0 0-15.48-41.552c-3.93-.468-7.61-.26-11.1-2.337-4.91-2.461-7.47-5.534-10.29-10.19l2.77-4.323c-.9-5.922-.02-8.201 3.37-13.054l-3.15-3.292z"/><path fill="#FEFEFE" d="M1737.77 689.486c3.69-3.543 7.07-6.267 12.44-6.214 3.16.03 6.01 1.333 8.14 3.653 3.25 3.549 5.48 9.552 4.91 14.372-.35 2.913-1.81 5.488-3.21 8.001-4.41 2.053-8.04 2.431-12.87 2.144l-5.76 3.676c-3.51-2.602-6-5.274-8.67-8.725l3.42-4.265c-.82-4.982-.54-8.008 1.6-12.642"/><path fill="#58135E" d="m1732.75 706.393 3.42-4.265c3.21 4.577 5.86 7.121 11.01 9.314l-5.76 3.676c-3.51-2.602-6-5.274-8.67-8.725"/><path fill="#FEFEFE" d="M1711.76 608.045c4.81-3.247 8.44-4.779 14.32-3.574 3.84.787 7.06 3.138 9.11 6.458a15.26 15.26 0 0 1 1.66 12.571c-1.14 3.64-3.75 6.445-7.26 7.923-3.65 1.542-6.85 1.392-10.67.731-1.86 1.351-2.07 1.199-3.01 3.458-4.91-2.461-7.47-5.534-10.29-10.19l2.77-4.323c-.9-5.922-.02-8.201 3.37-13.054"/><path fill="#58135E" d="M1708.39 621.099c2.65 3.883 5.14 6.674 8.78 9.638l1.08.894c.22.177.45.348.67.523-1.86 1.351-2.07 1.199-3.01 3.458-4.91-2.461-7.47-5.534-10.29-10.19z"/><path fill="#6E1D7B" d="M1357.46 353.894c-.86-7.547-.96-13.837 3.8-20.26a17.48 17.48 0 0 1 11.47-6.977c5.41-.804 10.83 1.112 15.03 4.506 4.09 3.299 6.45 7.882 8.52 12.598 13.04-3.681 26.05-7.512 38.54-12.85l1.73.218c-2.68 5.94-14.84 9.183-20.91 11.476a284 284 0 0 1-19.2 6.548c-2.64 6.758-4.38 10.326-10.75 14.351 3.5 9.509 12.96 30.693 13.66 39.696l-3.64 1.343c-5.17-12.753-9.24-25.972-14.9-38.51-9.34-.38-13.51-2.335-20.83-7.996-11.88 7.692-28.02 11.729-40.99 17.764 1.89 6.599 2.47 13.336-1.13 19.545-3.07 5.287-8.21 8.178-14.03 9.445-.31.069-.63.13-.95.195 2.61 10.879 6.34 21.221 10.83 31.458l-3.61.259c-9.43-8.368-7.94-28.611-14.74-34.508l5.29-3.014c-4.35-2.149-8.58-4.653-10.21-9.495-1.79-5.298.91-10.802 3.49-15.244 1-2.185 1.32-3.708 1.45-6.105 4.33-1.97 7.52-2.577 12.13-.933 3.02 1.079 5.92 2.857 8.72 4.426 13.54-6.843 26.9-12.878 41.23-17.936"/><path fill="#FEFEFE" d="M1293.93 374.442c4.46-2.088 8.29-3.677 13.15-1.803a12.92 12.92 0 0 1 7.52 7.872 14.6 14.6 0 0 1-.66 11.314c-1.4 2.853-4.18 5.679-7.33 6.499-1.92.5-3.99.662-5.96.857-4.35-2.149-8.58-4.653-10.21-9.495-1.79-5.298.91-10.802 3.49-15.244m78.07-42.537c1.98-.075 4.04-.186 6.02.026 3.78.405 7.84 3.058 10.09 6.049 2.3 3.04 3.18 6.751 2.36 10.492-1.21 5.599-5.03 8.346-9.7 11.081-2.14.44-4.7 1.136-6.88.802-3.3-.504-7.14-3.24-8.96-6.015-2.2-3.372-2.67-7.662-1.77-11.539 1.26-5.38 4.36-8.013 8.84-10.896"/><path fill="#6E1D7B" d="M1221.61 433.146c-2.03-.018-4.12-.023-6.14-.309-5.22-.741-10.95-4.069-14.13-8.273-2.9-3.826-3.76-8.615-3.04-13.301.87-5.727 4.15-11.039 9.03-14.203 3.94-2.554 8.86-3.733 13.49-2.669 5.17 1.192 9.83 4.957 12.52 9.481 3.33 5.587 3.12 11.214 1.77 17.346 4.79.504 9.56-.363 14.31-.958 9.68-1.967 30.11-8.279 39.33-6.089l1.62 1.611c-.6 2.145-1.09 3.166-3.42 4.091-5.36 2.132-28.75 4.913-35.58 5.678l-1.72.286c-4.94.799-16.24-.354-19.75 1.827-1.26.783-2.54 1.533-3.8 2.321 3.98 13.555 10.85 26.855 16.7 39.714 6.69-.518 12.8-.635 18.16 3.985 1.35 1.165 2.6 2.435 3.87 3.678 12.93-4.805 26.14-11.213 39.52-14.341.99 1.484 1.66 2.533 2.24 4.236-10.61 4.221-31.18 10.341-39.92 16.157-.36 2.898-.57 5.724-.69 8.64-.91 3.446-1.97 6.035-3.92 9.024-4.05 3.75-9.05 6.62-14.65 6.946a17.89 17.89 0 0 1-13.95-5.334c-3.78-3.833-5.7-9.01-5.56-14.368.2-7.564 3.87-11.981 9.16-16.956-6.27-11.973-10.6-25.577-15.45-38.22"/><path fill="#FEFEFE" d="M1212.99 399.995c1.47-.071 3.05-.203 4.53-.101 3.9.267 7.49 1.904 10.12 4.856 2.34 2.639 3.24 5.928 2.97 9.416-.5 6.384-4.55 9.964-9.27 13.722-1.6.039-3.25.083-4.85-.121a14.7 14.7 0 0 1-10.46-6.73c-2.12-3.335-2.68-7.324-1.75-11.141 1.26-5.164 4.32-7.309 8.71-9.901m45.05 96.967c-3.89 3.07-8.83 5.594-13.97 5.345-2.89-.141-4.7-1.138-6.55-3.327-2.46-2.906-3.15-7.803-2.79-11.453.46-4.617 2.96-10.53 7.05-13.096 2.03-1.274 4.46-2.082 6.87-1.415 6.08 1.681 10.33 7.137 12.9 12.478-.71 4.202-1.7 7.608-3.51 11.468m60.95-121.161c12.97-6.035 29.11-10.072 40.99-17.764 7.32 5.661 11.49 7.616 20.83 7.996 5.66 12.538 9.73 25.757 14.9 38.51-5.21 3.581-9.62 6.794-11.05 13.327-1.3 5.924.83 12.019 3.31 17.314-16.35 3.066-32.48 11.147-48.64 13.256l-.8-.601-2.58 1.73a157 157 0 0 1-4.19-3.285c-5.79-3.733-8.02-4.612-14.89-3.278-1.47.09-2.9.197-4.36.418-.38.057-.76.124-1.14.186l-1.03-2.21c.11-1.56-.12-3.14-.24-4.697l3.61-.259c-4.49-10.237-8.22-20.579-10.83-31.458.32-.065.64-.126.95-.195 5.82-1.267 10.96-4.158 14.03-9.445 3.6-6.209 3.02-12.946 1.13-19.545"/><path fill="#58135E" d="m1310.1 436.703 3.61-.259c8.41.904 15.97-.299 21.9 6.872 1.19 1.431 2.15 2.829 2.92 4.523l-2.58 1.73a157 157 0 0 1-4.19-3.285c-5.79-3.733-8.02-4.612-14.89-3.278-1.47.09-2.9.197-4.36.418-.38.057-.76.124-1.14.186l-1.03-2.21c.11-1.56-.12-3.14-.24-4.697"/><path fill="#5A1566" d="M1531.84 364.472c.6-7.221 1.68-14.224 7.35-19.369 3.48-3.15 8.16-4.601 12.8-4.268a20.3 20.3 0 0 1 14.81 8.073c3.27 4.29 4.83 9.723 3.81 15.07-1.35 7.099-5.52 10.419-11.2 14.235 4.75 11.588 9.99 23.024 14.49 34.706 5.67-.597 10.81-.343 15.55 3.253 2.73 2.074 4.6 4.358 6 7.459 10.05-3.375 20.2-5.667 30.54-7.936-.87-2.95-1.54-6.157-1.76-9.227-.38-5.238 1.26-11.869 4.73-15.904 3.69-4.282 8.35-5.625 13.79-6.111 5.78.762 10.11 2.999 13.88 7.554 3.25 3.932 5.39 10.01 4.79 15.131-.19 1.673-.66 3.336-1.11 4.954-2.04 3.654-4.49 6.063-7.52 8.923 5.62 10.242 11.68 20.34 15.51 31.408.13.392.28.78.42 1.17 7.36.44 13.15 1.552 18.15 7.408a19.1 19.1 0 0 1 4.57 14.279c-.51 5.301-3.53 10.755-7.76 13.986-1.81 1.38-3.8 2.376-5.83 3.373l12.94 38.01 7.99 1.477c6.2 2.534 11.82 5.681 14.63 12.116 1.89 4.318 1.68 9.099-.05 13.428-1.88 4.704-5.21 8.237-9 11.476-3.09 1.553-5.39 1.726-8.82 1.837-5.63.344-9.67-2.279-14.29-5.152l-2.07-.307c.15-2.13-.05-1.324.65-3.307.16-.458.34-.91.51-1.365l-3.12-.767c-2.11-6.26-3.05-9.869-.86-16.186 2.31-4.811 5.85-7.887 9.94-11.179-2.64-8.228-8.49-32.665-14.28-38.338-2.29-2.241-10.76-4.403-15.3-8.201-.37-.307-.73-.622-1.09-.933-2.83-5.361-4.65-12.107-3.01-18.115 1.79-6.561 6.12-9.619 11.77-12.776-5-10.781-11.02-21.133-17.15-31.301-6.79.555-11.53-.436-17.85-2.735-10.25 2.473-20.71 4.713-30.57 8.483-.03 3.275.13 6.589-.57 9.805-3.47 6.329-7.11 11.264-14.36 13.245-3.75 1.026-7.38.984-11.18.312-3.64-1.739-6.91-3.775-9.48-6.948-3.65-4.504-5.58-10.154-4.61-15.95 1.16-6.971 4.86-10.513 10.41-14.426-5.68-11.251-10.1-23.305-15.45-34.752-1.9-.213-3.8-.423-5.67-.796-6.77-1.351-9.23-5.805-12.75-11.106-15.43 7.41-32.21 12.885-48.56 17.873-.13-1.931-1.03-3.641-1.75-5.424 15.72-5.428 31.59-9.765 46.99-16.165"/><path fill="#FEFEFE" d="M1656.02 400.561c.05 2.703.27 5.693-.41 8.328-.81 3.165-2.66 5.572-5.55 7.127-3.25 1.747-8.65 2.003-12.13.871a12.18 12.18 0 0 1-7.2-6.35c-1.91-3.934-1.88-8.759-.12-12.742 1.4-3.166 3.91-5.676 7.21-6.817 4.92-1.707 8.61-.245 13.13 1.831 1.66 2.605 3.28 5.231 5.07 7.752m-108.14-54.657c2.22.001 4.62-.087 6.77.466 3.65.937 7.09 3.83 8.97 7.049 1.99 3.415 2.32 7.376 1.15 11.129-1.6 5.105-5.26 7.117-9.74 9.497-2 .047-4.07.129-6.06-.088-3.53-.386-7.25-3.062-9.18-5.99-2.05-3.1-2.61-6.791-1.79-10.387 1.33-5.801 5-8.765 9.88-11.676m119.29 113.193c1.93-.093 3.93-.217 5.86-.042 3.75.339 7.74 2.757 10.07 5.659a13.07 13.07 0 0 1 2.74 10.683c-1.13 5.789-4.75 8.578-9.45 11.618-2.28.11-4.65.284-6.92.058-3.95-.394-8.36-3.622-10.48-6.888-2.07-3.198-2.5-7.059-1.52-10.706 1.43-5.351 5.21-7.646 9.7-10.382m12.66 92.786c.98-4.444 2.12-9.008 5.56-12.243 3.36-3.147 6.99-3.533 11.39-3.421 4.88 2.183 9.3 4.641 11.31 9.904 1.48 3.86 1.36 8.296-.62 11.958a13.64 13.64 0 0 1-8.54 6.672c-5.03 1.349-9.64-.319-13.95-2.864-.33-.196-.65-.412-.97-.617-1.9-2.832-2.96-6.214-4.18-9.389m-104.92-104.442c-.3-.153-.6-.302-.89-.458-4.68-2.46-8.85-6.036-10.21-11.368-.9-3.525-.01-7.079 1.96-10.053a16.35 16.35 0 0 1 10.97-7.028c3.94-.64 7.87.204 10.97 2.775 4.26 3.542 5.88 8.76 6.38 14.074-2.49 5.058-4.83 8.998-10.44 10.9-2.78.945-5.82 1.059-8.74 1.158"/><path fill="#5A1566" d="M1457.76 384.025c1.91 1.572 2.17 1.555 2.67 3.937-.58 4.039-.7 7.342-.06 11.379-1.41 1.472-2.13 2.485-2.84 4.395l-2.39-2.925c-12.74 5.092-25.33 9.989-38.67 13.321 1.54 3.09 3.16 5.924 3.62 9.399l1.47 3.619 12.77-2.105c11.52-.945 24.74-.599 34.73-6.896 2.29-1.439 3.73-2.868 6.4-2.266l2.42 4.074 4.49-1.485c3.58 7.718 7.44 15.411 10.54 23.331 6.93-1.301 13.84-1.175 19.88 2.998 4.52 3.124 7.32 8.224 8.08 13.615a21.55 21.55 0 0 1-4.21 16.291c-2.95 3.797-7.42 6.389-12.27 6.68-6.75.405-12.94-2.764-17.81-7.183-.33-.301-.64-.619-.97-.928-14.96 5.469-31.21 7.344-45.85 13.334-2.37 11.474 6.9 11.523-4.59 24.611-2.61 2.978-3.81 3.555-4.08 7.565-1.34 1.057-1.64 1.686-3.39 1.788-1.97-1.793-3.12-2.074-5.78-2.414-3.14-.4-6.09-.984-9.16-1.727-13.14 6.399-27.41 9.78-41.43 13.682-.28 6.53-1.07 11.852-5.43 17.07-2.93 3.507-6.92 5.598-11.5 5.81-5.76.266-11.42-2.316-15.47-6.331-4.27-4.24-7.03-10.108-6.8-16.189.23-6.318 2.9-9.35 7.33-13.545-2.08-4.94-12.98-38.322-14.57-39.417-3.49-2.408-8.26-.757-12.22-3.866-.36-.288-.7-.62-1.04-.93-2.48-1.724-3.5-2.956-5.04-5.46-.58-1.703-1.25-2.752-2.24-4.236-1.51-2.997-1.9-6.209-1.44-9.521.7-5.116 3.46-8.994 7.43-12.1l1.03 2.21c.38-.062.76-.129 1.14-.186 1.46-.221 2.89-.328 4.36-.418 6.87-1.334 9.1-.455 14.89 3.278 1.38 1.112 2.77 2.218 4.19 3.285l2.58-1.73.8.601c16.16-2.109 32.29-10.19 48.64-13.256-2.48-5.295-4.61-11.39-3.31-17.314 1.43-6.533 5.84-9.746 11.05-13.327l3.64-1.343c2.64 1.922 5.95 2.733 9.06 3.703 18.27 5.7 29.89-7.757 46.78-7.403-.17-.573-.38-1.134-.51-1.718-1.19-5.434.46-9.082 3.08-13.757"/><path fill="#FEFEFE" d="M1398.99 410.025c1.22.051 1.75.045 3.04.239 4.31.65 8.06 3.218 10.48 6.847a13.18 13.18 0 0 1 1.66 10.861c-1.37 4.932-5 7.029-9.15 9.431-1.19-.091-2.36-.173-3.54-.406a15.62 15.62 0 0 1-10.4-7.172c-1.99-3.244-2.57-7.055-1.41-10.704 1.59-4.941 4.91-6.867 9.32-9.096m-82.12 32.981c6.87-1.334 9.1-.455 14.89 3.278 2.48 5.133 4.29 9.606 2.33 15.27-1.35 3.919-4.3 6.425-8.05 8.01-2.82 1.194-5.66 1.189-8.67 1.18-1.95-1.516-4.03-3.052-5.65-4.923-2.66-3.074-4.47-7.594-3.98-11.668.64-5.338 5.02-8.433 9.13-11.147m32.38 74.915c1.73-.013 3.53-.046 5.25.212 3.74.563 7.33 3.217 9.36 6.346 2.24 3.463 2.69 7.506 1.7 11.476-1.4 5.59-4.8 8.097-9.63 10.74l-.56-.053c-2.11-.183-4.31-.309-6.37-.804-3.7-.892-7.45-4.074-9.41-7.281-1.95-3.198-2.43-6.805-1.35-10.403 1.68-5.615 6.09-7.799 11.01-10.233m70.06-35.033c2.35.106 4.79.19 7.01 1.053 3.73 1.455 6.96 4.325 8.57 8.025a14.62 14.62 0 0 1 .14 11.115c-1.95 5.024-5.44 7.154-10.13 9.342-1.78-.11-3.64-.205-5.38-.608-3.89-.899-7.58-3.804-9.59-7.202a13.74 13.74 0 0 1-1.33-11.056c1.73-5.758 5.6-8.116 10.71-10.669m78.85-36.998c2.52.181 5.26.402 7.63 1.308a15.85 15.85 0 0 1 8.63 8.207 14.2 14.2 0 0 1 .29 11.27c-1.94 4.958-4.96 6.727-9.69 8.733-2.14-.166-4.37-.295-6.47-.777-3.82-.882-7.51-4.128-9.49-7.432-2.04-3.409-2.59-7.316-1.36-11.118 1.71-5.281 5.73-7.866 10.46-10.191m-63.83-20.845c11.52-.945 24.74-.599 34.73-6.896 2.29-1.439 3.73-2.868 6.4-2.266l2.42 4.074c3.41 8.274 7.12 16.303 11.09 24.324-4.69 6.522-7.88 11.402-6.61 19.844a99 99 0 0 0 .99 5.323c-16.68 4.094-33.87 7.222-50.28 12.155l-8.91-4.415a1638 1638 0 0 0-15.13-35.046c5.57-3.783 8.46-7.238 11.28-13.306.56-1.201.25-.732 1.25-1.686z"/><path fill="#FEFEFE" d="M1389.34 437.312c4.96 2.523 9.3 4.319 14.76 5.598 4.53 11.723 8.86 23.182 14.46 34.458-2.65 1.224-5.29 2.508-7.72 4.142-4.21 2.829-7.53 7.627-8.29 12.684-1.07 7.093 2.03 12.584 5.91 18.203-9.19 2.941-29.62 11.255-38.2 11.077l-1.35-2.055c-1.45-1.993-2.77-3.699-4.76-5.196-6.16-4.644-12.72-3.795-19.86-2.775a556 556 0 0 1-14.36-38.162 181 181 0 0 0 3.78-3.503c6.38-6.121 6.59-11.325 6.75-19.731 16.47-4.151 32.67-9.651 48.88-14.74m145.82-69.124c3.52 5.301 5.98 9.755 12.75 11.106 1.87.373 3.77.583 5.67.796 5.35 11.447 9.77 23.501 15.45 34.752-5.55 3.913-9.25 7.455-10.41 14.426-.97 5.796.96 11.446 4.61 15.95 2.57 3.173 5.84 5.209 9.48 6.948 3.8.672 7.43.714 11.18-.312 7.25-1.981 10.89-6.916 14.36-13.245.7-3.216.54-6.53.57-9.805 9.86-3.77 20.32-6.01 30.57-8.483 6.32 2.299 11.06 3.29 17.85 2.735 6.13 10.168 12.15 20.52 17.15 31.301-5.65 3.157-9.98 6.215-11.77 12.776-1.64 6.008.18 12.754 3.01 18.115.36.311.72.626 1.09.933 4.54 3.798 13.01 5.96 15.3 8.201 5.79 5.673 11.64 30.11 14.28 38.338-4.09 3.292-7.63 6.368-9.94 11.179-2.19 6.317-1.25 9.926.86 16.186l3.12.767c-.17.455-.35.907-.51 1.365-.7 1.983-.5 1.177-.65 3.307l2.07.307c4.62 2.873 8.66 5.496 14.29 5.152 3.43-.111 5.73-.284 8.82-1.837 4.14 7.49 9.68 16.117 12.12 24.309-.78 1.652-2.08 3.686-2.62 5.369-.1.309-.01.649-.02.973l-5.23 4.956c-.22.277-.45.551-.66.832-3.48 4.534-3.4 9.981-6.3 14.146-2.04 2.928-35.49 12.712-41.04 13.713-2.3.415-4.41-.173-6.54-1.004l-1.43 3.866c-4.42-.9-7.96-1.523-11.95 1.032-2.2 1.41-3.9 3.495-5.58 5.461l-2.95-3.108c-3.74 5.302-3.32 9.811-3.16 16.016-15.34 3.933-29.92 10.399-45.36 14.249-5.47-5.585-10.12-7.714-17.95-8.309-5.04-9.2-9.7-19.891-16.25-28.031-.1.557.01.164-.67 1.026-.41-1.64-.85-3.23-1.39-4.833l-.48-1.337c-3.48 1.398-6.69 2.443-10.4 3.082l-5.83 3.632c-3.75-1.829-6.48-4.095-9.61-6.826-3.34 1.094-6.25 2.213-9.31 3.948-1.21 4.918 3.95 10.714 2.53 16.725-.92 3.861-3.89 6.978-7.18 9.027-5.04 3.142-11.76 3.953-17.45 2.318-5.22-1.499-9.85-4.887-12.47-9.701-2.8-5.139-1.4-10.103.24-15.358-6.04-7.377-22.83-39.737-25.05-41.301-3.16-2.221-10.83-2.379-15-4.528-5.18-2.666-10.77-7.263-12.28-13.147-1.18-4.576.6-9.037 2.9-12.941 4-6.799 7.61-8.445 15.05-10.507-4.36-8.845-12.91-23.541-15.34-32.321 1.75-.102 2.05-.731 3.39-1.788.27-4.01 1.47-4.587 4.08-7.565 11.49-13.088 2.22-13.137 4.59-24.611 14.64-5.99 30.89-7.865 45.85-13.334.33.309.64.627.97.928 4.87 4.419 11.06 7.588 17.81 7.183 4.85-.291 9.32-2.883 12.27-6.68a21.55 21.55 0 0 0 4.21-16.291c-.76-5.391-3.56-10.491-8.08-13.615-6.04-4.173-12.95-4.299-19.88-2.998-3.1-7.92-6.96-15.613-10.54-23.331-1.15-2.059-2.08-3.376-2.08-5.801 2.85-3.096 5.72-6.196 7.62-9.999 2.63-5.279.29-11.369-1.31-16.611 16.35-4.988 33.13-10.463 48.56-17.873"/><path fill="#6E1D7B" d="M1431.09 518.786c7.5 10.101 12.42 22.719 17.65 34.122l-5.7-.013c-4.36-8.845-12.91-23.541-15.34-32.321 1.75-.102 2.05-.731 3.39-1.788m137.85 1.115c-1.76-3.879-2.54-7.928-1.74-12.17.94-5.013 4.07-9.463 8.33-12.244 4.56-2.981 10.39-4.255 15.73-2.961 5.63 1.364 9.45 5.049 12.23 9.964l-3.96 1.346c-5.1-4.308-9.28-6.673-16.17-5.913-3.26.359-5.94 2.06-7.82 4.673-2.73 3.767-2.87 7.576-2.88 12.071-1.31 1.676-2.82 3.306-3.72 5.234m-58.55 26.134c-.96-3.3-1.62-6.614-1.58-10.072.06-5.576 2.83-12.458 7.02-16.201 3.48-3.1 7.7-4.049 12.26-3.591 5.77.579 8.72 2.661 12.24 7.107l5.11 6.47c3.08 1.236 5.78-.249 8.94-1.089-.42.425-.82.858-1.24 1.275-1.64 1.64-2.94 1.986-5.14 2.546l-.7 1.316c2.51-.595 4.78-1.276 7.18-2.205.83.261 1.68.407 2.36.948-3.35 1.274-6.69 2.507-10.09 3.627-.61 4.497-1.07 8.992-2.4 13.345-3.45 2.259-6.85 4.534-10.52 6.447.88 4.687 1.74 9.345 3.3 13.86 2.72 7.837 8.83 18.226 9.29 26.288-.77 1.445-.2.898-1.81 1.563l-1.13-1.274-.08 1.337c-7.36-10.787-11.42-26.921-14.57-39.536-5.86-1.688-10.49-3.62-15.46-7.241-16.2 3.511-31.76 7.825-47.47 13.049l-3.17-3.43c13.57-7.872 32.35-11.012 47.66-14.539"/><path fill="#FEFEFE" d="M1524.13 520.914c1.79.23 3.65.451 5.38.957 4.26 1.24 8.15 4.647 10.12 8.586a14.36 14.36 0 0 1 .73 11.114c-1.84 5.351-5.49 7.311-10.3 9.763-1.82-.013-3.76.013-5.55-.343-3.18-.631-6.76-3.686-8.55-6.281-2.58-3.718-3.03-8.334-1.93-12.65 1.44-5.664 5.26-8.389 10.1-11.146"/><path fill="#5A1566" d="M1603.49 502.49c.51-.1 1.03-.193 1.55-.299 7.68-1.587 39.12-13.531 46.69-17.272l1.93 1.231c-2.34 3.051-39.71 15.973-46.92 19.365.58 6.414 1.87 13.568-2.59 18.967-1.37 1.656-2.97 3.152-4.52 4.632a1769 1769 0 0 0 16.09 28.712c6.45-.588 12.51-.59 17.73 3.836 3.24 2.749 5.43 6.676 6.69 10.681 8.52-5.477 26.88-8.96 37.08-12.258l3.12.767c-.17.455-.35.907-.51 1.365-.7 1.983-.5 1.177-.65 3.307l2.07.307c4.62 2.873 8.66 5.496 14.29 5.152 3.43-.111 5.73-.284 8.82-1.837 4.14 7.49 9.68 16.117 12.12 24.309-.78 1.652-2.08 3.686-2.62 5.369-.1.309-.01.649-.02.973l-5.23 4.956c-.22.277-.45.551-.66.832-3.48 4.534-3.4 9.981-6.3 14.146-2.04 2.928-35.49 12.712-41.04 13.713-2.3.415-4.41-.173-6.54-1.004l-1.43 3.866c-4.42-.9-7.96-1.523-11.95 1.032-2.2 1.41-3.9 3.495-5.58 5.461l-2.95-3.108c-3.74 5.302-3.32 9.811-3.16 16.016-15.34 3.933-29.92 10.399-45.36 14.249-5.47-5.585-10.12-7.714-17.95-8.309-5.04-9.2-9.7-19.891-16.25-28.031-.1.557.01.164-.67 1.026-.41-1.64-.85-3.23-1.39-4.833l-.48-1.337c-3.48 1.398-6.69 2.443-10.4 3.082l-5.83 3.632c-3.75-1.829-6.48-4.095-9.61-6.826-3.34 1.094-6.25 2.213-9.31 3.948-1.21 4.918 3.95 10.714 2.53 16.725-.92 3.861-3.89 6.978-7.18 9.027-5.04 3.142-11.76 3.953-17.45 2.318-5.22-1.499-9.85-4.887-12.47-9.701-2.8-5.139-1.4-10.103.24-15.358-6.04-7.377-22.83-39.737-25.05-41.301-3.16-2.221-10.83-2.379-15-4.528-5.18-2.666-10.77-7.263-12.28-13.147-1.18-4.576.6-9.037 2.9-12.941 4-6.799 7.61-8.445 15.05-10.507l5.7.013c6.9.99 9.4 2.429 13.99 7.666l3.17 3.43c15.71-5.224 31.27-9.538 47.47-13.049 4.97 3.621 9.6 5.553 15.46 7.241 3.15 12.615 7.21 28.749 14.57 39.536l.08-1.337 1.13 1.274c1.61-.665 1.04-.118 1.81-1.563-.46-8.062-6.57-18.451-9.29-26.288-1.56-4.515-2.42-9.173-3.3-13.86 3.67-1.913 7.07-4.188 10.52-6.447 1.33-4.353 1.79-8.848 2.4-13.345 3.4-1.12 6.74-2.353 10.09-3.627-.68-.541-1.53-.687-2.36-.948-2.4.929-4.67 1.61-7.18 2.205l.7-1.316c2.2-.56 3.5-.906 5.14-2.546.42-.417.82-.85 1.24-1.275 4.09-2.312 9.92-2.035 13.61-4.918 1.36-1.065.88-2.248.95-3.84.9-1.928 2.41-3.558 3.72-5.234.01-4.495.15-8.304 2.88-12.071 1.88-2.613 4.56-4.314 7.82-4.673 6.89-.76 11.07 1.605 16.17 5.913z"/><path fill="#FEFEFE" d="M1492.27 629.894c1.36.22 1.08.15 2.49.486 5.34 1.268 10.19 3.064 12.99 8.134 1.59 2.864 1.71 5.689.66 8.798-1.48 4.406-5.53 6.407-9.35 8.439-2.97.123-5.93.324-8.72-.839-3.5-1.452-6.48-4.334-7.89-7.86-1.19-2.974-1.03-6.618.24-9.541 1.92-4.403 5.45-5.794 9.58-7.617m44.23 1.66c-4.15-1.463-8.46-3.089-10.45-7.38-1.89-4.084-2.72-9.207-.81-13.424 1.5-3.343 4.52-5.752 8-6.801 4.19-1.259 8.73-.82 12.44 1.54 2.91 1.847 4.6 4.756 5.24 8.097 1.1 5.799-.74 10.216-4.02 14.886-3.48 1.398-6.69 2.443-10.4 3.082m-92.11-73.322c2.61.214 5.68.456 8.06 1.612 3.32 1.615 6.08 5.322 7.16 8.792a14.9 14.9 0 0 1-1.64 12.275c-2.58 4.089-6.06 5.142-10.53 6.324-2.26-.363-4.7-.7-6.82-1.601-4.03-1.713-7.34-5.855-8.66-9.962-1.14-3.584-.75-7.475 1.24-10.688 2.68-4.335 6.48-5.557 11.19-6.752m191.29 24.057c-2.72 3.709-6.06 7.528-10.53 9.14-3.61 1.303-7.38-.507-10.46-2.313-3.5-2.05-6.46-4.743-7.41-8.826-.88-3.794.23-7.659 2.35-10.853 2.53-3.823 6.66-6.576 11.22-7.247 3.18-.469 6.53.227 8.98 2.416 4.26 3.816 6.03 9.709 6.44 15.246zm-63.02-67.622c.01-4.495.15-8.304 2.88-12.071 1.88-2.613 4.56-4.314 7.82-4.673 6.89-.76 11.07 1.605 16.17 5.913 1.83 5.066 3.23 9.985 1.01 15.196-1.52 3.59-4.33 6.537-7.99 7.958a13.95 13.95 0 0 1-11.02-.46c-5.16-2.424-7.12-6.74-8.87-11.863m-.19 13.952c8.14 5.406 13.92 5.497 23.4 4.009 5.43 8.672 10.38 17.506 15.24 26.497-5.12 4.816-7.93 8.941-8.23 16.151-.09 2.25-.02 4.502-.09 6.753-7.38 1.861-52.47 16.498-54.81 16.098l-1.56-2.021c-.46-8.062-6.57-18.451-9.29-26.288-1.56-4.515-2.42-9.173-3.3-13.86 3.67-1.913 7.07-4.188 10.52-6.447 1.33-4.353 1.79-8.848 2.4-13.345 3.4-1.12 6.74-2.353 10.09-3.627 5.26-1.18 10.46-2.389 15.63-3.92"/><path fill="#FEFEFE" d="M1513.37 550.955c4.97 3.621 9.6 5.553 15.46 7.241 3.15 12.615 7.21 28.749 14.57 39.536-1.5.602-.99.577-2.35.577-4.09.001-8.27.22-12.23 1.388-4.95 1.459-7.44 6.515-9.77 10.667-.18 4.378.08 8.803.21 13.183a717 717 0 0 0-14.18 4.526c-9.63-2.253-14.81-1.934-23.78 2.223-8.14-13.047-15.7-26.445-23.62-39.621a114 114 0 0 0 2.12-2.261c7.66-8.431 5.11-13.347 4.66-23.766l1.44-.644c15.71-5.224 31.27-9.538 47.47-13.049m163.85 9.13 3.12.767c-.17.455-.35.907-.51 1.365-.7 1.983-.5 1.177-.65 3.307l2.07.307c4.62 2.873 8.66 5.496 14.29 5.152 3.43-.111 5.73-.284 8.82-1.837 4.14 7.49 9.68 16.117 12.12 24.309-.78 1.652-2.08 3.686-2.62 5.369-.1.309-.01.649-.02.973l-5.23 4.956c-.22.277-.45.551-.66.832-3.48 4.534-3.4 9.981-6.3 14.146-2.04 2.928-35.49 12.712-41.04 13.713-2.3.415-4.41-.173-6.54-1.004a373 373 0 0 0-10.17-1.521c-5.84-11.341-10.61-23.107-15.49-34.879 2.04-1.308 3.94-2.723 5.88-4.174l-.65-2.338c1.04-2.531 1.7-4.484 2.04-7.239l.59-2.437c1.02-1.685 1.42-2.899 1.64-4.832l.2-1.988.58.589 1.45-1.278c8.52-5.477 26.88-8.96 37.08-12.258"/><path fill="#6E1D7B" d="M1695.54 570.983c3.43-.111 5.73-.284 8.82-1.837 4.14 7.49 9.68 16.117 12.12 24.309-.78 1.652-2.08 3.686-2.62 5.369-.1.309-.01.649-.02.973-4.66-8.072-7.36-17.253-12.42-25.1-1.71-2.664-2.88-2.945-5.88-3.714m-18.32-10.898 3.12.767c-.17.455-.35.907-.51 1.365-.7 1.983-.5 1.177-.65 3.307-6.76 2.217-35.43 9.444-37.82 14.162-.8 1.59-1.17 2.999-1.58 4.719-.84 3.503-2.55 5.372-5.49 7.461l-.65-2.338c1.04-2.531 1.7-4.484 2.04-7.239l.59-2.437c1.02-1.685 1.42-2.899 1.64-4.832l.2-1.988.58.589 1.45-1.278c8.52-5.477 26.88-8.96 37.08-12.258"/><path fill="#FEFEFE" d="M1604.49 588.028c5.77 6.101 10.3 7.399 18.47 8.739 5.35 12.034 9.89 24.368 15.13 36.431l-5.93 6.493c-3.74 5.302-3.32 9.811-3.16 16.016-15.34 3.933-29.92 10.399-45.36 14.249-5.47-5.585-10.12-7.714-17.95-8.309-5.04-9.2-9.7-19.891-16.25-28.031 4.46-5.58 8.55-10.905 7.48-18.502-.57-4.011-2.68-7.873-4.54-11.437 17.14-5.907 34.22-12.423 52.11-15.649m-19.92 565.812 1.87.6c5.27 13.04 7.09 29.6 9.99 43.47 10.27 49.1 20.49 99.47 25.41 149.41-21.76-5.19-42.63-10.12-65.17-8.83a283 283 0 0 1 157.32 84.01c79.75 85.61 99.54 202.95 101.08 316.01.32 23.35-.77 46.76-1.41 70.11l-4.81 140.68c-35.48 1.24-71.17.77-106.68.93-115.07.5-230.34-2.06-345.38.59 1.05-16.18 3.91-32.42 6.14-48.48l10.18-73.31c11.26-77.06 22.75-154.6 40.02-230.58a2603 2603 0 0 1 22.31-90.43c4.14-15.4 29.22-96.37 28.92-103.46-1.42-2.73-1.75-2.91-4.46-4.44-1.54.08-2.57-.15-3.88.8-2.34 1.7-3.67 4.19-4.79 6.8-4.06 9.48-5.62 20.22-8.69 30.07-17.85 57.32-31.4 115.8-45.2 174.2-12.27 63.95-23.99 127.77-32.34 192.37-12.86-59.89-12.33-162.1-5.52-223.68-3.82 8.87-5.73 19.67-7.67 29.18-11.74 57.55-8.95 116.49-1.78 174.44 2.09 16.89 8.46 41.71 8.49 57.25.03 13.27-3.16 26.79-5.12 39.92-3.4 22.82-6.75 45.92-8.68 68.91-76.99-.92-154.09-.44-231.09-.25-32.02.08-64.1.82-96.11.26 2.52-22.84 16.03-103.57 23.57-121.84 5.09-12.37 13.59-24.28 20.82-35.51 35.49-55.1 78.15-105.82 119.74-156.37 24.77-30.11 49.01-61.02 75.79-89.42 15.41-16.35 36.86-27.78 51.15-44.3.28-.33.56-.66.84-1-7.75-55.63-12.62-112.15-7.21-168.23 49.56-30.62 90.5-45.07 147.02-58.13 40.43-52.6 79.97-85.6 135.33-121.75"/></svg>